<svg width="256" height="256" viewBox="0 0 256 256" fill="none" xmlns="http://www.w3.org/2000/svg">
<path d="M0 56C0 25.0721 25.0721 0 56 0H200C230.928 0 256 25.0721 256 56V200C256 230.928 230.928 256 200 256H56C25.0721 256 0 230.928 0 200V56Z" fill="#22272E"/>
<path d="M49.8868 198.446C49.8868 199.732 49.2075 200.59 48.6132 200.59H39.3585C38.5943 200.59 38 199.732 38 198.446V57.286C38 56.4287 38.6792 55.2857 39.3585 55.2857H48.5283C49.2075 55.2857 49.8019 56.4287 49.8019 57.286L49.8868 198.446ZM73.9151 198.446C73.9151 199.732 73.2358 200.59 72.6415 200.59H63.4717C62.7075 200.59 62.1132 199.732 62.1132 198.446V57.286C62.1132 56.4287 62.7925 55.2857 63.4717 55.2857H72.6415C73.3208 55.2857 73.9151 56.4287 73.9151 57.286V198.446ZM97.9434 198.446C97.9434 199.732 97.2641 200.59 96.6698 200.59H87.5C86.7359 200.59 86.1415 199.732 86.1415 198.446V57.286C86.1415 56.4287 86.8208 55.2857 87.5 55.2857H96.6698C97.3491 55.2857 97.9434 56.4287 97.9434 57.286V198.446ZM122.142 198.446C122.142 199.732 121.462 200.59 120.868 200.59H111.698C110.934 200.59 110.34 199.732 110.34 198.446V57.286C110.34 56.4287 111.019 55.2857 111.698 55.2857H120.868C121.547 55.2857 122.142 56.4287 122.142 57.286V198.446ZM216.726 55C217.491 55 218 56.143 218 57.286V73.1451C218 74.431 217.491 75.574 216.726 75.574H135.132C134.623 75.574 133.943 74.431 133.943 73.1451V57.286C133.943 56.143 134.623 55 135.132 55H216.726ZM216.726 96.8623C217.491 96.8623 218 98.0053 218 99.1483V115.007C218 116.293 217.491 117.436 216.726 117.436H135.132C134.623 117.436 133.943 116.293 133.943 115.007V99.1483C133.943 98.0053 134.623 96.8623 135.132 96.8623H216.726ZM216.726 138.439C217.491 138.439 218 139.582 218 140.725V156.584C218 157.87 217.491 159.013 216.726 159.013H135.132C134.623 159.013 133.943 157.87 133.943 156.584V140.725C133.943 139.582 134.623 138.439 135.132 138.439H216.726ZM216.726 180.016C217.491 180.016 218 181.159 218 182.302V198.161C218 199.447 217.491 200.59 216.726 200.59H135.132C134.623 200.59 133.943 199.447 133.943 198.161V182.302C133.943 181.159 134.623 180.016 135.132 180.016H216.726Z" fill="white"/>
</svg>
