<svg width="256" height="256" viewBox="0 0 256 256" fill="none" xmlns="http://www.w3.org/2000/svg">
<path d="M0 56C0 25.0721 25.0721 0 56 0H200C230.928 0 256 25.0721 256 56V200C256 230.928 230.928 256 200 256H56C25.0721 256 0 230.928 0 200V56Z" fill="#0F172A"/>
<path fill-rule="evenodd" clip-rule="evenodd" d="M137.062 48L228 114.264V140.691L137.062 207.349V180.923L209.875 127.675L137.062 74.8212V48Z" fill="#F1027E"/>
<path fill-rule="evenodd" clip-rule="evenodd" d="M137.062 101.248L173.312 127.675L137.062 154.101V101.248Z" fill="#F1027E"/>
<path fill-rule="evenodd" clip-rule="evenodd" d="M118.937 48L28 114.264V140.691L100.813 87.8374V193.939L118.937 207.349V48ZM82.6876 127.675L46.1251 154.101L82.3751 180.528V127.675H82.6876Z" fill="#6D6D6D"/>
</svg>
