<svg width="256" height="256" viewBox="0 0 256 256" fill="none" xmlns="http://www.w3.org/2000/svg">
<path d="M0 56C0 25.0721 25.0721 0 56 0H200C230.928 0 256 25.0721 256 56V200C256 230.928 230.928 256 200 256H56C25.0721 256 0 230.928 0 200V56Z" fill="#F8FAFC"/>
<path fill-rule="evenodd" clip-rule="evenodd" d="M121.723 32.1807C120.535 39.6864 114.582 40.0855 112.208 32.8192C110.592 27.8765 106.593 28.0146 107.087 32.9958C107.839 40.5868 101.919 43.0869 98.2133 36.7435C96.8803 34.4623 95.6295 33.3939 94.7084 33.7505C93.9212 34.0558 92.9681 34.3057 92.5908 34.3057C92.213 34.3057 92.0747 36.1099 92.2832 38.3152C92.9582 45.4657 88.6075 47.5692 84.1668 42.2389C80.7844 38.1785 77.1231 39.4595 78.8559 44.0964C81.4235 50.9677 76.9394 54.6374 71.3761 50.2175C69.3188 48.5828 68.3993 48.3898 66.7987 49.2552C64.405 50.5487 64.4387 50.2369 66.2906 53.987C69.1317 59.7389 65.1839 62.8479 59.4088 59.4061C54.577 56.5265 51.9201 59.1278 54.9504 63.7713C58.7822 69.6423 55.2917 74.0429 49.2277 70.9876C45.0073 68.8607 42.949 71.9788 45.9925 75.8875C50.0825 81.1396 47.0666 86.2653 41.2008 84.0322C39.9029 83.5379 38.777 83.2586 38.699 83.4112C38.6203 83.5638 38.0011 84.4253 37.3226 85.3257C36.2825 86.7058 36.5749 87.4536 39.1864 90.0913C43.0399 93.9841 41.6709 97.4289 36.0489 97.9861C30.5514 98.5308 29.6162 101.719 34.1832 104.343C38.938 107.076 36.7419 113.118 30.994 113.118C28.0047 113.118 28.8388 117.372 32.2078 119.308C36.3339 121.68 36.331 125.816 32.201 127.39C29.0162 128.605 27.7145 134.069 30.6099 134.069C36.3503 134.069 37.0674 140.989 31.5467 143.109C29.8399 143.765 29.2271 144.574 29.6316 145.637C29.9586 146.498 30.2257 147.614 30.2257 148.117C30.2257 148.621 31.4702 149.033 32.9912 149.033C38.4596 149.033 39.9351 153.987 35.5246 157.54C32.4391 160.024 33.5344 164.242 37.0255 163.319C42.1999 161.953 44.8401 167.449 40.9954 171.582C37.9188 174.89 39.6438 177.286 45.1749 177.387C50.1825 177.479 51.3988 180.117 48.4965 184.591C46.121 188.254 48.694 191.25 52.8531 189.665C57.919 187.733 60.9458 192.057 57.9161 196.897C56.1476 199.721 59.5655 202.11 62.8901 200.375C68.3056 197.546 71.7402 200.067 69.7333 205.399C68.4522 208.803 68.4142 208.642 70.8029 209.933C72.3932 210.793 73.2347 210.722 74.5068 209.622C79.0773 205.667 83.1753 207.749 82.2429 213.552C81.4685 218.374 84.4583 219.865 87.9087 216.381C91.8837 212.365 97.5294 215.4 96.1309 220.8C95.8335 221.95 96.2192 222.957 97.0849 223.292C99.7487 224.325 100.995 223.877 102.299 221.414C104.893 216.518 109.389 217.872 110.584 223.906C111.359 227.816 115.616 228.155 116.553 224.384C117.914 218.907 123.243 218.948 125.212 224.45C126.748 228.742 130.578 229.272 131.558 225.329C132.964 219.67 137.847 218.961 140.447 224.038C142.548 228.142 145.957 227.591 146.882 222.997C148.254 216.177 154.153 215.484 156.17 221.906C156.588 223.233 157.367 223.791 158.302 223.429C159.112 223.115 160.158 222.858 160.628 222.858C161.097 222.858 161.616 220.725 161.781 218.119C162.163 212.112 165.81 210.877 169.432 215.529C172.583 219.574 174.92 217.763 174.922 211.277C174.923 205.409 177.622 204.221 182.569 207.915C186.415 210.786 188.978 208.944 187.309 204.509C184.698 197.574 187.942 194.361 193.944 197.937C199.082 201 200.899 198.681 197.816 192.995C194.623 187.106 199.119 183.46 204.702 187.411C208.684 190.227 211.107 185.742 207.602 182.046C203.039 177.235 204.262 174.473 210.957 174.473C217.579 174.473 218.438 172.689 213.984 168.191C208.936 163.091 210.735 159.579 218.095 160.167C223.652 160.612 224.864 157.112 219.875 155.024C212.333 151.869 214.449 145.582 222.97 145.826C225.425 145.897 228.035 142.011 226.01 141.3C216.64 138.013 215.209 132.049 223.419 130.492C228.103 129.605 228.269 125.641 223.66 124.711C215.787 123.12 216.078 116.597 224.112 114.571C228.937 113.355 227.372 109.676 221.928 109.433C214.166 109.087 212.662 102.944 219.601 99.933C221.102 99.2809 222.464 98.6674 222.627 98.5686C224.983 97.1376 221.222 93.5435 218.312 94.4455C209.367 97.2189 207.226 90.3841 215.295 84.8108C219.027 82.2335 215.734 78.9592 211.294 80.8328C203.801 83.9952 200.197 78.2664 205.994 72.4102C209.903 68.4621 207.283 64.704 202.725 67.7204C196.513 71.8311 191.109 65.9476 196.112 60.523C200.094 56.2063 196.379 53.0542 191.848 56.9046C185.887 61.9706 180.634 58.2967 184.003 51.4186C186.81 45.6887 183.874 42.0299 180.228 46.7128C174.058 54.6359 168.706 50.7407 171.936 40.6781C172.469 39.018 172.124 38.4414 170.31 37.96C169.045 37.6243 167.868 37.7645 167.696 38.2718C164.796 46.8245 154.945 45.2926 157.099 36.6237C158.015 32.9394 158.006 32.919 155.15 32.1473C153.214 31.6245 152.699 31.858 152.699 33.2597C152.699 35.8326 148.918 40.2915 146.736 40.2915C144.347 40.2915 142.823 37.4013 142.823 32.8745C142.823 30.9182 142.414 29.3175 141.916 29.3175C141.417 29.3175 140.306 29.0451 139.446 28.712C138.408 28.3099 137.884 28.6621 137.884 29.759C137.884 38.609 129.013 40.2336 127.422 31.6744C126.466 26.5262 122.563 26.8728 121.723 32.1807ZM144.286 48.7853C178.315 56.0655 174.083 79.7863 136.403 92.9764C86.9244 110.298 47.1185 94.9473 73.4686 68.7081C90.2801 51.9668 120.035 43.5961 144.287 48.7853H144.286ZM182.822 77.2009C185.268 79.9319 184.989 85.2064 182.28 87.4216C175.536 92.9381 166.342 83.3778 172.453 77.2039C175.062 74.5687 180.461 74.5672 182.822 77.201V77.2009ZM194.567 94.5518C211.189 101.567 212.853 139.977 197.752 168.064C188.558 185.163 173.006 197.781 163.954 195.486C137.245 188.715 161.27 97.8829 191.004 93.21C191.157 93.186 192.761 93.7896 194.567 94.5518ZM68.3583 102.66C73.4039 107.756 68.7479 116.607 62.1813 114.403C56.2447 112.412 55.2818 104.631 60.6098 101.712C64.3769 99.6467 65.5128 99.7859 68.3583 102.66ZM132.7 109.295C141.765 111.601 149.04 122.715 147.209 131.463C143.102 151.083 116.636 153.956 109.672 135.537C103.893 120.253 117.01 105.305 132.7 109.295ZM75.8158 126.843C106.043 141.874 135.752 186.003 125.748 201.012C113.987 218.661 71.717 196.6 55.6112 164.409C40.4995 134.204 51.0747 114.541 75.8158 126.843ZM147.312 189.392C151.316 193.436 150.194 198.652 144.841 200.892C139.059 203.311 133.441 196.719 136.385 190.968C138.791 186.27 143.542 185.584 147.312 189.392Z" fill="black"/>
</svg>
