<svg width="256" height="256" viewBox="0 0 256 256" fill="none" xmlns="http://www.w3.org/2000/svg">
<g clip-path="url(#clip0_115_2)">
<path d="M196 0H60C26.8629 0 0 26.8629 0 60V196C0 229.137 26.8629 256 60 256H196C229.137 256 256 229.137 256 196V60C256 26.8629 229.137 0 196 0Z" fill="#00005B"/>
<path d="M106.338 154.748H68.23L60.4445 178.924C60.2396 179.846 59.42 180.461 58.498 180.359H39.2391C38.1122 180.359 37.8049 179.744 38.1122 178.515L71.0983 83.9612C71.4057 82.9369 71.713 82.0149 72.1228 80.7856C72.5326 78.6343 72.7374 76.3806 72.7374 74.1268C72.635 73.6147 73.0448 73.1025 73.5569 73H73.8643H100.089C100.806 73 101.319 73.3073 101.421 73.8195L138.812 178.31C139.119 179.437 138.812 179.949 137.788 179.949H116.377C115.661 180.052 114.943 179.539 114.739 178.822L106.338 154.236V154.748ZM74.1716 134.362H100.192C99.5771 132.211 98.7576 129.65 97.8356 126.986C96.9136 124.22 95.9916 121.25 95.0697 118.177C94.0453 115.001 93.1232 111.927 92.0989 108.752C91.0744 105.576 90.1525 102.606 89.333 99.6348C88.5135 96.7665 87.7964 94.1029 87.0792 91.6443H86.8744C85.9524 96.0493 84.8256 100.454 83.3913 104.859C81.8547 109.776 80.3181 114.899 78.6791 120.021C77.3473 125.245 75.7082 130.06 74.1716 134.362Z" fill="#9999FF"/>
<path d="M199.151 145.529H166.677C167.087 148.705 168.111 151.88 169.853 154.646C171.696 157.411 174.258 159.563 177.331 160.792C181.429 162.534 185.936 163.456 190.443 163.353C194.029 163.251 197.615 162.943 201.098 162.227C204.273 161.817 207.346 160.998 210.215 159.87C210.727 159.461 211.034 159.665 211.034 160.69V176.364C211.034 176.773 210.932 177.183 210.829 177.593C210.625 177.9 210.419 178.105 210.112 178.31C206.834 179.744 203.454 180.768 199.869 181.383C195.053 182.305 190.239 182.715 185.322 182.612C177.536 182.612 170.98 181.383 165.653 179.027C160.633 176.876 156.228 173.495 152.745 169.295C149.467 165.3 147.111 160.792 145.677 155.875C144.243 151.06 143.525 146.04 143.525 140.919C143.525 135.387 144.345 129.958 146.087 124.63C147.725 119.509 150.287 114.796 153.77 110.596C157.15 106.498 161.35 103.221 166.165 100.864C170.98 98.5079 176.716 97.6884 183.273 97.6884C188.702 97.5859 194.131 98.6103 199.151 100.864C203.351 102.708 207.039 105.474 209.908 109.06C212.571 112.542 214.722 116.435 216.054 120.738C217.386 124.835 218.001 129.036 218.001 133.236C218.001 135.694 217.898 137.845 217.795 139.792C217.591 141.738 217.488 143.173 217.386 144.095C217.283 144.811 216.669 145.426 215.951 145.426C215.337 145.426 214.21 145.529 212.571 145.631C210.932 145.836 208.986 145.939 206.63 145.939C204.273 145.939 201.814 145.529 199.151 145.529ZM166.677 130.572H188.292C190.956 130.572 192.902 130.572 194.131 130.47C194.951 130.367 195.771 130.162 196.488 129.65V128.626C196.488 127.294 196.282 126.064 195.873 124.835C194.029 119.099 188.599 115.206 182.556 115.411C176.921 115.103 171.595 118.074 168.931 123.197C167.701 125.552 166.985 128.011 166.677 130.572Z" fill="#9999FF"/>
</g>
<defs>
<clipPath id="clip0_115_2">
<rect width="256" height="256" fill="white"/>
</clipPath>
</defs>
</svg>
