<svg width="256" height="256" viewBox="0 0 256 256" fill="none" xmlns="http://www.w3.org/2000/svg">
<path d="M196 0H60C26.8629 0 0 26.8629 0 60V196C0 229.137 26.8629 256 60 256H196C229.137 256 256 229.137 256 196V60C256 26.8629 229.137 0 196 0Z" fill="#242938"/>
<path d="M116.354 43.4783C114.292 39.3034 109.849 37 105.248 37C100.805 37 96.3623 39.3034 94.4583 43.4783L55.2681 122.658C52.5708 127.985 55.2681 134.463 61.2973 136.766C62.884 137.486 64.4707 137.774 66.0573 137.774C70.6586 137.774 74.9425 135.471 77.0052 131.439L82.3998 120.498H128.412L133.807 131.439C135.711 135.471 140.154 137.774 144.596 137.774C146.183 137.774 147.929 137.486 149.515 136.766C155.386 134.463 158.083 127.985 155.386 122.658L116.354 43.4783ZM119.052 101.495H91.761L105.248 73.7105L119.052 101.495Z" fill="url(#paint0_linear_30_446)"/>
<path d="M189.181 51.1085C189.181 56.8671 184.104 61.4739 177.758 61.4739C171.411 61.4739 166.175 56.8671 166.175 51.1085C166.175 45.494 171.411 40.8872 177.758 40.8872C184.104 40.8872 189.181 45.494 189.181 51.1085ZM177.758 137.774C170.776 137.774 165.223 132.591 165.223 126.401V77.1658C165.223 70.9754 170.776 65.7928 177.758 65.7928C184.579 65.7928 190.133 70.9754 190.133 77.1658V126.401C190.133 132.591 184.579 137.774 177.758 137.774Z" fill="url(#paint1_linear_30_446)"/>
<path d="M43.5295 205.552C39.2907 205.552 34.2042 204.039 30.8132 201.769C27.9308 199.835 27.0831 195.967 29.1176 193.109C31.0675 190.25 34.9672 189.493 37.8495 191.427C41.7492 194.034 49.1247 193.445 49.7181 187.728C49.9724 185.793 49.0399 183.776 47.5139 182.683C45.6488 181.337 43.0208 181.253 40.9863 180.328C38.5277 179.404 36.2388 177.89 34.3737 176.041C30.8979 172.846 28.9482 168.726 28.7786 164.606C28.7786 162.252 29.2024 159.982 30.0502 157.711C30.8979 155.693 32.1696 153.844 33.6955 152.162C35.3063 150.564 37.0865 149.304 39.0364 148.379C41.2405 147.37 43.4447 146.781 45.7336 146.613C48.8703 146.529 53.5329 147.202 56.924 149.219C59.9758 151.069 60.9084 154.853 59.2129 157.88C57.3478 160.822 53.5329 161.747 50.5658 159.982C48.4464 158.805 45.3945 158.805 43.4447 160.318C42.3427 161.158 41.5796 162.588 41.5796 163.933C41.4101 168.894 47.7682 168.978 51.0745 170.323C53.6177 171.416 55.9914 173.014 57.8565 175.116C60.7389 178.311 62.4344 182.346 62.5192 186.719C62.6886 191.68 60.8237 196.303 57.263 199.835C53.9568 203.198 49.3789 205.216 44.6316 205.468C44.2924 205.468 43.8685 205.552 43.5295 205.552Z" fill="url(#paint2_linear_30_446)"/>
<path d="M87.9516 205.468C85.0692 205.468 82.2716 204.964 79.7284 203.871C77.1852 202.778 74.8962 201.265 72.9464 199.331C70.9966 197.397 69.4706 195.127 68.3686 192.689C67.3512 190.082 66.7578 187.307 66.7578 184.449C66.7578 181.675 67.3512 178.899 68.3686 176.209C69.4706 173.77 70.9966 171.585 72.9464 169.567C74.8962 167.633 77.1852 166.203 79.7284 165.111C82.2716 163.934 85.0692 163.429 87.9516 163.429C90.3253 163.429 92.6142 163.849 94.9032 164.607C97.1073 165.279 99.0572 166.372 100.837 167.801C103.72 169.987 104.313 174.107 102.109 177.05C100.753 178.731 98.8029 179.657 96.7682 179.657C95.4118 179.657 93.9706 179.152 92.699 178.227C91.3426 177.134 89.7319 176.63 87.9516 176.63C83.5433 176.63 80.0675 180.161 80.0675 184.449C80.0675 188.82 83.5433 192.268 87.9516 192.268C89.7319 192.268 91.3426 191.764 92.699 190.671C95.6661 188.484 99.8201 188.989 102.024 191.932C104.313 194.791 103.72 198.994 100.837 201.181C97.1921 204.039 92.6143 205.468 87.9516 205.468Z" fill="url(#paint3_linear_30_446)"/>
<path d="M126.694 163.513C126.439 163.429 126.101 163.429 125.761 163.429C122.879 163.429 119.997 164.102 117.453 165.363C116.436 164.185 114.826 163.513 113.13 163.513C109.908 163.513 107.28 166.12 107.28 169.314V198.827C107.28 202.526 110.248 205.468 113.893 205.468C117.623 205.468 120.59 202.526 120.59 198.827V181.842C120.59 178.984 122.964 176.713 125.761 176.713H126.355C129.916 176.713 132.882 173.939 133.053 170.408C133.222 166.708 130.34 163.681 126.694 163.513Z" fill="url(#paint4_linear_30_446)"/>
<path d="M150.94 154.853C150.94 158.216 148.227 160.907 144.836 160.907C141.445 160.907 138.647 158.216 138.647 154.853C138.647 151.573 141.445 148.884 144.836 148.884C148.227 148.884 150.94 151.573 150.94 154.853ZM144.836 205.468C141.106 205.468 138.138 202.441 138.138 198.826V170.071C138.138 166.456 141.106 163.429 144.836 163.429C148.482 163.429 151.448 166.456 151.448 170.071V198.826C151.448 202.441 148.482 205.468 144.836 205.468Z" fill="url(#paint5_linear_30_446)"/>
<path d="M178.661 163.261C174.931 163.261 171.371 164.27 168.234 165.952C167.217 164.27 165.352 163.261 163.232 163.261C160.01 163.261 157.383 165.783 157.383 169.063V212.111C157.383 215.726 160.434 218.753 164.164 218.753C167.81 218.753 170.862 215.726 170.862 212.111V203.955C173.236 204.964 175.948 205.468 178.661 205.468C190.445 205.468 199.94 196.052 199.94 184.364C199.94 172.677 190.445 163.261 178.661 163.261ZM184.256 189.914C182.73 191.427 180.781 192.184 178.661 192.184C176.542 192.184 174.592 191.427 173.066 189.914C171.54 188.484 170.692 186.467 170.692 184.364C170.692 182.262 171.54 180.244 173.066 178.731C174.592 177.302 176.542 176.461 178.661 176.461C180.781 176.461 182.73 177.302 184.256 178.731C185.783 180.244 186.63 182.262 186.63 184.364C186.63 186.467 185.783 188.484 184.256 189.914Z" fill="url(#paint6_linear_30_446)"/>
<path d="M221.388 192.267C219.014 192.267 217.065 190.334 217.065 187.98V175.116H222.15C225.372 175.116 228 172.51 228 169.314C228 166.036 225.372 163.429 222.15 163.429H217.065V156.618C217.065 153.003 214.097 150.06 210.452 150.06C206.721 150.06 203.755 153.003 203.755 156.618V187.98C203.755 192.689 205.62 197.06 208.926 200.423C212.232 203.619 216.641 205.468 221.388 205.468C225.034 205.468 228 202.525 228 198.826C228 195.211 225.034 192.267 221.388 192.267Z" fill="url(#paint7_linear_30_446)"/>
<defs>
<linearGradient id="paint0_linear_30_446" x1="54.2218" y1="98.7541" x2="576.323" y2="98.7541" gradientUnits="userSpaceOnUse">
<stop stop-color="#82E97A"/>
<stop offset="1" stop-color="#21DEBB"/>
</linearGradient>
<linearGradient id="paint1_linear_30_446" x1="54.2219" y1="98.7544" x2="576.323" y2="98.7544" gradientUnits="userSpaceOnUse">
<stop stop-color="#82E97A"/>
<stop offset="1" stop-color="#21DEBB"/>
</linearGradient>
<linearGradient id="paint2_linear_30_446" x1="-50.9606" y1="182.68" x2="228" y2="182.68" gradientUnits="userSpaceOnUse">
<stop stop-color="#82E97A"/>
<stop offset="1" stop-color="#21DEBB"/>
</linearGradient>
<linearGradient id="paint3_linear_30_446" x1="-50.9603" y1="182.68" x2="228" y2="182.68" gradientUnits="userSpaceOnUse">
<stop stop-color="#82E97A"/>
<stop offset="1" stop-color="#21DEBB"/>
</linearGradient>
<linearGradient id="paint4_linear_30_446" x1="-50.9602" y1="182.68" x2="228" y2="182.68" gradientUnits="userSpaceOnUse">
<stop stop-color="#82E97A"/>
<stop offset="1" stop-color="#21DEBB"/>
</linearGradient>
<linearGradient id="paint5_linear_30_446" x1="-50.9602" y1="182.68" x2="228" y2="182.68" gradientUnits="userSpaceOnUse">
<stop stop-color="#82E97A"/>
<stop offset="1" stop-color="#21DEBB"/>
</linearGradient>
<linearGradient id="paint6_linear_30_446" x1="-50.9602" y1="182.68" x2="228" y2="182.68" gradientUnits="userSpaceOnUse">
<stop stop-color="#82E97A"/>
<stop offset="1" stop-color="#21DEBB"/>
</linearGradient>
<linearGradient id="paint7_linear_30_446" x1="-50.9604" y1="182.68" x2="228" y2="182.68" gradientUnits="userSpaceOnUse">
<stop stop-color="#82E97A"/>
<stop offset="1" stop-color="#21DEBB"/>
</linearGradient>
</defs>
</svg>
