<svg width="256" height="256" viewBox="0 0 256 256" fill="none" xmlns="http://www.w3.org/2000/svg">
<g clip-path="url(#clip0_30_446)">
<path d="M196 0H60C26.8629 0 0 26.8629 0 60V196C0 229.137 26.8629 256 60 256H196C229.137 256 256 229.137 256 196V60C256 26.8629 229.137 0 196 0Z" fill="#242938"/>
<path d="M117.519 51.8305C115.663 48.073 111.664 46 107.523 46C103.524 46 99.526 48.073 97.8124 51.8305L62.5413 123.092C60.1137 127.886 62.5413 133.716 67.9676 135.789C69.3956 136.437 70.8236 136.697 72.2515 136.697C76.3927 136.697 80.2483 134.623 82.1047 130.995L86.9598 121.149H128.371L133.226 130.995C134.94 134.623 138.938 136.697 142.936 136.697C144.364 136.697 145.936 136.437 147.364 135.789C152.647 133.716 155.075 127.886 152.647 123.092L117.519 51.8305ZM119.947 104.046H95.3849L107.523 79.0394L119.947 104.046Z" fill="url(#paint0_linear_30_446)"/>
<path d="M183.063 58.6977C183.063 63.8804 178.493 68.0266 172.781 68.0266C167.069 68.0266 162.357 63.8804 162.357 58.6977C162.357 53.6447 167.069 49.4985 172.781 49.4985C178.493 49.4985 183.063 53.6447 183.063 58.6977ZM172.781 136.697C166.498 136.697 161.5 132.032 161.5 126.461V82.1493C161.5 76.5779 166.498 71.9136 172.781 71.9136C178.921 71.9136 183.92 76.5779 183.92 82.1493V126.461C183.92 132.032 178.921 136.697 172.781 136.697Z" fill="url(#paint1_linear_30_446)"/>
<path d="M51.9766 197.697C48.1617 197.697 43.5838 196.335 40.5319 194.292C37.9377 192.551 37.1748 189.07 39.0059 186.498C40.7608 183.925 44.2704 183.244 46.8646 184.984C50.3743 187.33 57.0122 186.8 57.5463 181.655C57.7752 179.914 56.9359 178.098 55.5625 177.115C53.884 175.904 51.5187 175.828 49.6876 174.996C47.4749 174.163 45.4149 172.801 43.7363 171.137C40.6082 168.261 38.8534 164.553 38.7007 160.845C38.7007 158.726 39.0822 156.684 39.8452 154.64C40.6082 152.824 41.7526 151.16 43.126 149.646C44.5757 148.208 46.1779 147.073 47.9327 146.241C49.9165 145.333 51.9002 144.803 53.9603 144.652C56.7833 144.576 60.9796 145.181 64.0316 146.997C66.7783 148.662 67.6176 152.068 66.0916 154.792C64.413 157.44 60.9796 158.272 58.3092 156.684C56.4018 155.624 53.6551 155.624 51.9002 156.986C50.9084 157.742 50.2217 159.029 50.2217 160.24C50.0691 164.705 55.7914 164.78 58.767 165.991C61.0559 166.975 63.1923 168.413 64.8708 170.304C67.465 173.179 68.991 176.812 69.0673 180.747C69.2198 185.212 67.5413 189.373 64.3367 192.551C61.3612 195.578 57.241 197.394 52.9684 197.621C52.6632 197.621 52.2817 197.697 51.9766 197.697Z" fill="url(#paint2_linear_30_446)"/>
<path d="M91.9572 197.621C89.3631 197.621 86.8453 197.167 84.5563 196.184C82.2674 195.201 80.2074 193.838 78.4525 192.098C76.6977 190.357 75.3243 188.314 74.3325 186.12C73.4169 183.774 72.8828 181.276 72.8828 178.704C72.8828 176.207 73.4169 173.71 74.3325 171.288C75.3243 169.094 76.6977 167.127 78.4525 165.311C80.2074 163.57 82.2674 162.283 84.5563 161.3C86.8453 160.24 89.3631 159.786 91.9572 159.786C94.0935 159.786 96.1536 160.165 98.2137 160.846C100.197 161.451 101.952 162.435 103.554 163.721C106.149 165.689 106.682 169.397 104.699 172.045C103.478 173.558 101.723 174.391 99.8922 174.391C98.6714 174.391 97.3743 173.937 96.2299 173.104C95.0091 172.121 93.5595 171.667 91.9572 171.667C87.9897 171.667 84.8616 174.845 84.8616 178.704C84.8616 182.639 87.9897 185.742 91.9572 185.742C93.5595 185.742 95.0091 185.288 96.2299 184.304C98.9003 182.336 102.639 182.79 104.623 185.439C106.682 188.012 106.149 191.795 103.554 193.763C100.274 196.335 96.1536 197.621 91.9572 197.621Z" fill="url(#paint3_linear_30_446)"/>
<path d="M126.824 159.862C126.595 159.786 126.29 159.786 125.984 159.786C123.39 159.786 120.796 160.392 118.507 161.527C117.592 160.467 116.142 159.862 114.616 159.862C111.716 159.862 109.352 162.208 109.352 165.083V191.644C109.352 194.973 112.022 197.621 115.303 197.621C118.66 197.621 121.33 194.973 121.33 191.644V176.358C121.33 173.785 123.467 171.742 125.984 171.742H126.519C129.723 171.742 132.393 169.245 132.547 166.067C132.699 162.737 130.105 160.013 126.824 159.862Z" fill="url(#paint4_linear_30_446)"/>
<path d="M148.646 152.068C148.646 155.094 146.205 157.516 143.153 157.516C140.1 157.516 137.583 155.094 137.583 152.068C137.583 149.116 140.1 146.695 143.153 146.695C146.205 146.695 148.646 149.116 148.646 152.068ZM143.153 197.621C139.796 197.621 137.125 194.897 137.125 191.643V165.764C137.125 162.51 139.796 159.786 143.153 159.786C146.434 159.786 149.104 162.51 149.104 165.764V191.643C149.104 194.897 146.434 197.621 143.153 197.621Z" fill="url(#paint5_linear_30_446)"/>
<path d="M173.596 159.635C170.239 159.635 167.034 160.543 164.211 162.057C163.296 160.543 161.617 159.635 159.71 159.635C156.81 159.635 154.445 161.905 154.445 164.856V203.6C154.445 206.854 157.192 209.578 160.549 209.578C163.83 209.578 166.576 206.854 166.576 203.6V196.259C168.713 197.167 171.155 197.621 173.596 197.621C184.201 197.621 192.747 189.147 192.747 178.628C192.747 168.11 184.201 159.635 173.596 159.635ZM178.632 183.622C177.258 184.984 175.504 185.666 173.596 185.666C171.688 185.666 169.933 184.984 168.561 183.622C167.187 182.336 166.424 180.52 166.424 178.628C166.424 176.736 167.187 174.92 168.561 173.558C169.933 172.272 171.688 171.515 173.596 171.515C175.504 171.515 177.258 172.272 178.632 173.558C180.005 174.92 180.768 176.736 180.768 178.628C180.768 180.52 180.005 182.336 178.632 183.622Z" fill="url(#paint6_linear_30_446)"/>
<path d="M212.049 185.741C209.913 185.741 208.158 184.001 208.158 181.882V170.305H212.736C215.635 170.305 218 167.959 218 165.083C218 162.132 215.635 159.786 212.736 159.786H208.158V153.657C208.158 150.403 205.488 147.754 202.207 147.754C198.849 147.754 196.18 150.403 196.18 153.657V181.882C196.18 186.12 197.858 190.054 200.834 193.081C203.809 195.957 207.777 197.621 212.049 197.621C215.33 197.621 218 194.973 218 191.643C218 188.39 215.33 185.741 212.049 185.741Z" fill="url(#paint7_linear_30_446)"/>
</g>
<defs>
<linearGradient id="paint0_linear_30_446" x1="61.5996" y1="101.579" x2="531.491" y2="101.579" gradientUnits="userSpaceOnUse">
<stop stop-color="#82E97A"/>
<stop offset="1" stop-color="#21DEBB"/>
</linearGradient>
<linearGradient id="paint1_linear_30_446" x1="61.5994" y1="101.579" x2="531.49" y2="101.579" gradientUnits="userSpaceOnUse">
<stop stop-color="#82E97A"/>
<stop offset="1" stop-color="#21DEBB"/>
</linearGradient>
<linearGradient id="paint2_linear_30_446" x1="-33.0645" y1="177.112" x2="218" y2="177.112" gradientUnits="userSpaceOnUse">
<stop stop-color="#82E97A"/>
<stop offset="1" stop-color="#21DEBB"/>
</linearGradient>
<linearGradient id="paint3_linear_30_446" x1="-33.0635" y1="177.112" x2="218.001" y2="177.112" gradientUnits="userSpaceOnUse">
<stop stop-color="#82E97A"/>
<stop offset="1" stop-color="#21DEBB"/>
</linearGradient>
<linearGradient id="paint4_linear_30_446" x1="-33.065" y1="177.112" x2="217.999" y2="177.112" gradientUnits="userSpaceOnUse">
<stop stop-color="#82E97A"/>
<stop offset="1" stop-color="#21DEBB"/>
</linearGradient>
<linearGradient id="paint5_linear_30_446" x1="-33.0637" y1="177.112" x2="218" y2="177.112" gradientUnits="userSpaceOnUse">
<stop stop-color="#82E97A"/>
<stop offset="1" stop-color="#21DEBB"/>
</linearGradient>
<linearGradient id="paint6_linear_30_446" x1="-33.0633" y1="177.112" x2="218.001" y2="177.112" gradientUnits="userSpaceOnUse">
<stop stop-color="#82E97A"/>
<stop offset="1" stop-color="#21DEBB"/>
</linearGradient>
<linearGradient id="paint7_linear_30_446" x1="-33.0642" y1="177.112" x2="218" y2="177.112" gradientUnits="userSpaceOnUse">
<stop stop-color="#82E97A"/>
<stop offset="1" stop-color="#21DEBB"/>
</linearGradient>
<clipPath id="clip0_30_446">
<rect width="256" height="256" fill="white"/>
</clipPath>
</defs>
</svg>
