<svg width="256" height="256" viewBox="0 0 256 256" fill="none" xmlns="http://www.w3.org/2000/svg">
<path d="M0 56C0 25.0721 25.0721 0 56 0H200C230.928 0 256 25.0721 256 56V200C256 230.928 230.928 256 200 256H56C25.0721 256 0 230.928 0 200V56Z" fill="#F8FAFC"/>
<path d="M107.46 53.3H63.8385C55.1508 53.3 48.0102 60.717 48.0102 69.901C47.6998 78.7652 54.5262 86.1793 63.0659 86.501H107.926L107.46 53.3Z" fill="#073042"/>
<path d="M206.335 200.927H63.8381C54.9947 200.927 48.0098 193.514 48.0098 184.327V69.7415C48.0098 78.9264 55.1503 86.3405 63.8381 86.5009H183.208C183.208 86.5009 206.49 84.4084 206.49 102.62V200.927H206.335Z" fill="#4285F4"/>
<path d="M139.9 142.264C146.264 137.269 147.505 127.922 142.698 121.474C140.056 117.928 136.02 115.673 131.672 115.51H132.138C132.917 115.35 133.847 115.35 134.626 115.51V106.325C134.626 105.196 134.158 104.229 133.227 103.747C131.829 102.941 130.122 103.425 129.347 104.875C129.035 105.359 128.881 105.842 129.035 106.486V115.832C121.275 117.122 115.842 124.697 117.081 132.918V133.078C117.704 136.946 119.724 140.493 122.827 142.748L96.5938 201.089H113.669L125.775 174.336C127.175 171.111 130.899 169.662 134.158 171.274C135.402 171.919 136.486 173.046 137.107 174.336L149.683 201.089H167.066L139.9 142.264ZM131.053 139.686C126.085 139.686 122.205 135.495 122.205 130.34C122.205 125.18 126.241 121.152 131.207 121.312C133.535 121.312 135.557 122.28 137.262 123.894C140.832 127.437 140.832 133.24 137.417 136.946C135.866 138.559 133.535 139.686 131.053 139.686Z" fill="#3870B2"/>
<path d="M97.9922 61.3613H159.149V72.9642H97.9922V61.3613Z" fill="white"/>
<path d="M126.395 121.152C131.206 121.152 135.244 125.343 135.09 130.499C135.09 135.495 131.052 139.686 126.084 139.525C121.273 139.525 117.391 135.335 117.391 130.34C117.391 127.922 118.322 125.664 120.034 123.893C121.739 122.119 124.065 121.152 126.395 121.152ZM129.81 115.832V106.163C129.81 105.035 129.345 104.069 128.414 103.584C127.018 102.778 125.309 103.262 124.53 104.713C124.219 105.196 124.065 105.68 124.219 106.325V115.673C116.458 116.96 111.025 124.538 112.272 132.757V132.918C112.893 136.783 114.908 140.33 118.013 142.585L84.9506 216.238C83.7101 218.819 83.8648 222.04 85.5723 224.458C88.0525 228.163 92.8686 229.13 96.4346 226.553C97.6808 225.746 98.611 224.458 99.2308 223.168L121.273 174.174C122.67 170.951 126.395 169.5 129.656 171.111C130.897 171.757 131.982 172.886 132.604 174.174L155.111 222.685C156.976 226.713 161.63 228.325 165.514 226.39C169.391 224.458 170.945 219.622 169.081 215.593L135.09 142.264C141.297 137.106 142.385 127.599 137.415 121.152C135.556 118.573 132.915 116.8 129.81 115.832Z" fill="#073042"/>
<path d="M150.148 71.6755C147.817 71.6755 145.954 69.901 145.954 67.4849C145.954 66.3566 146.419 65.068 147.195 64.2614C148.904 62.651 151.388 62.651 153.096 64.2614C153.871 65.068 154.337 66.1953 154.337 67.3236C154.182 69.7415 152.474 71.5142 150.148 71.6755ZM104.201 71.5142C101.869 71.5142 100.009 69.5802 100.009 67.3236C100.009 66.1953 100.476 65.068 101.249 64.2614C102.647 62.4897 105.289 62.1661 106.994 63.6189H107.15C108.855 65.2293 109.01 67.968 107.461 69.7416L106.994 70.384C106.22 71.1906 105.135 71.6755 104.044 71.6755L104.201 71.5142ZM151.388 45.5661L159.615 30.7396C160.08 29.934 159.77 28.967 159.15 28.3226C158.373 28 157.599 28.1613 157.134 28.8066L148.594 44.1161C134.936 37.8311 119.414 37.8311 105.909 44.1161L97.5269 28.967C97.2165 28.484 96.5939 28 95.9713 28C95.3514 28 94.7297 28.3226 94.4175 28.967C94.108 29.4509 94.108 30.2557 94.4175 30.7396L102.803 45.5661C88.209 53.783 78.7411 69.2585 77.3477 86.3406H176.998C175.759 69.0982 166.134 53.783 151.543 45.5661" fill="#3DDC84"/>
<path d="M192.688 118.414H186.169C185.856 118.573 185.547 118.895 185.547 119.378V226.553C185.547 227.035 185.856 227.358 186.325 227.358H193.153C201.07 227.358 207.434 220.588 207.434 212.531V103.425C207.434 111.643 201.07 118.252 193.153 118.252H192.688V118.414Z" fill="#073042"/>
</svg>
