<svg width="256" height="256" viewBox="0 0 256 256" fill="none" xmlns="http://www.w3.org/2000/svg">
<path d="M128 96.3506C80.8512 96.3506 42.155 132.456 38 178.521H218C213.845 132.456 175.149 96.3506 128 96.3506ZM162.421 145.067C162.421 140.927 165.778 137.571 169.918 137.571C174.058 137.571 177.414 140.927 177.414 145.067C177.414 149.207 174.058 152.563 169.918 152.563C165.778 152.563 162.421 149.207 162.421 145.067ZM86.0825 152.563C81.9425 152.563 78.5863 149.207 78.5863 145.067C78.5863 140.927 81.9425 137.571 86.0825 137.571C90.2225 137.571 93.5788 140.927 93.5788 145.067C93.5788 149.207 90.2225 152.563 86.0825 152.563Z" fill="#30DC80"/>
<path d="M165.642 115.944C165.117 115.944 164.589 115.813 164.105 115.532C162.631 114.681 162.129 112.798 162.976 111.324L182.465 77.5445C183.316 76.067 185.199 75.5607 186.672 76.4157C188.146 77.267 188.649 79.1495 187.801 80.6232L168.312 114.403C167.742 115.393 166.707 115.944 165.642 115.944Z" fill="#30DC80"/>
<path d="M90.3575 115.944C89.2925 115.944 88.2575 115.389 87.6875 114.403L68.2025 80.6232C67.3512 79.1495 67.8575 77.267 69.3275 76.4157C70.7975 75.5607 72.6837 76.067 73.535 77.5445L93.0237 111.324C93.875 112.802 93.3687 114.684 91.895 115.532C91.4112 115.813 90.8825 115.944 90.3575 115.944Z" fill="#30DC80"/>
</svg>
