<svg width="256" height="256" viewBox="0 0 256 256" fill="none" xmlns="http://www.w3.org/2000/svg">
<path d="M109.507 60.77H70.2468C62.4279 60.77 56.0013 67.4453 56.0013 75.7109C55.722 83.6886 61.8658 90.3614 69.5515 90.6509H109.926L109.507 60.77Z" fill="#073042"/>
<path d="M198.494 193.635H70.2474C62.2884 193.635 56.002 186.963 56.002 178.695V75.5674C56.002 83.8338 62.4285 90.5065 70.2474 90.6509H177.681C177.681 90.6509 198.634 88.7677 198.634 105.158V193.635H198.494Z" fill="#4285F4"/>
<path d="M138.702 140.838C144.43 136.342 145.547 127.93 141.22 122.126C138.843 118.936 135.211 116.905 131.297 116.759H131.717C132.417 116.615 133.254 116.615 133.956 116.759V108.492C133.956 107.477 133.534 106.606 132.696 106.173C131.438 105.447 129.902 105.882 129.204 107.187C128.924 107.623 128.785 108.057 128.924 108.637V117.049C121.94 118.21 117.05 125.028 118.165 132.426V132.571C118.726 136.052 120.544 139.243 123.336 141.273L99.7266 193.78H115.095L125.99 169.702C127.25 166.8 130.601 165.496 133.534 166.946C134.654 167.527 135.63 168.542 136.189 169.702L147.507 193.78H163.151L138.702 140.838ZM130.74 138.517C126.269 138.517 122.777 134.746 122.777 130.106C122.777 125.462 126.409 121.837 130.879 121.981C132.974 121.981 134.794 122.852 136.328 124.304C139.541 127.493 139.541 132.716 136.467 136.052C135.071 137.503 132.974 138.517 130.74 138.517Z" fill="#3870B2"/>
<path d="M100.984 68.0251H156.026V78.4677H100.984V68.0251Z" fill="white"/>
<path d="M126.548 121.837C130.878 121.837 134.512 125.608 134.373 130.249C134.373 134.746 130.739 138.517 126.268 138.372C121.939 138.372 118.445 134.602 118.445 130.106C118.445 127.93 119.282 125.898 120.823 124.304C122.357 122.707 124.451 121.837 126.548 121.837ZM129.622 117.049V108.347C129.622 107.332 129.203 106.462 128.365 106.026C127.109 105.301 125.571 105.736 124.87 107.042C124.589 107.477 124.451 107.912 124.589 108.492V116.905C117.605 118.064 112.715 124.884 113.837 132.281V132.426C114.397 135.905 116.21 139.097 119.004 141.127L89.2481 207.414C88.1316 209.737 88.2709 212.636 89.8077 214.812C92.0398 218.147 96.3743 219.017 99.5837 216.698C100.705 215.972 101.542 214.812 102.1 213.651L121.939 169.556C123.195 166.656 126.548 165.35 129.483 166.8C130.6 167.381 131.576 168.397 132.136 169.556L152.393 213.217C154.071 216.842 158.26 218.292 161.755 216.551C165.245 214.812 166.643 210.46 164.966 206.833L134.373 140.838C139.96 136.195 140.939 127.639 136.466 121.837C134.793 119.515 132.416 117.92 129.622 117.049Z" fill="#073042"/>
<path d="M147.925 77.308C145.826 77.308 144.15 75.7109 144.15 73.5364C144.15 72.521 144.568 71.3612 145.267 70.6352C146.805 69.1859 149.041 69.1859 150.578 70.6352C151.275 71.3612 151.694 72.3758 151.694 73.3913C151.555 75.5674 150.018 77.1628 147.925 77.308ZM106.572 77.1628C104.473 77.1628 102.799 75.4222 102.799 73.3913C102.799 72.3758 103.22 71.3612 103.915 70.6352C105.174 69.0407 107.552 68.7495 109.086 70.057H109.226C110.761 71.5064 110.901 73.9712 109.506 75.5674L109.086 76.1456C108.389 76.8715 107.413 77.308 106.431 77.308L106.572 77.1628ZM149.041 53.8094L156.445 40.4657C156.863 39.7406 156.584 38.8703 156.026 38.2904C155.327 38 154.63 38.1452 154.212 38.7259L146.526 52.5044C134.233 46.848 120.264 46.848 108.11 52.5044L100.566 38.8703C100.286 38.4356 99.7259 38 99.1655 38C98.6077 38 98.0482 38.2904 97.7671 38.8703C97.4886 39.3058 97.4886 40.0301 97.7671 40.4657L105.314 53.8094C92.1795 61.2047 83.6584 75.1327 82.4043 90.5066H172.09C170.975 74.9883 162.312 61.2047 149.18 53.8094" fill="#3DDC84"/>
<path d="M186.213 119.373H180.345C180.064 119.515 179.785 119.806 179.785 120.24V216.698C179.785 217.132 180.064 217.422 180.486 217.422H186.631C193.756 217.422 199.483 211.329 199.483 204.078V105.882C199.483 113.279 193.756 119.227 186.631 119.227H186.213V119.373Z" fill="#073042"/>
</svg>
