<svg width="256" height="256" viewBox="0 0 256 256" fill="none" xmlns="http://www.w3.org/2000/svg">
<path d="M0 56C0 25.0721 25.0721 0 56 0H200C230.928 0 256 25.0721 256 56V200C256 230.928 230.928 256 200 256H56C25.0721 256 0 230.928 0 200V56Z" fill="#22272E"/>
<path d="M34 61.125L127.075 28L222.6 60.6125L207.162 183.7L127.075 228L48.2875 184.275L34 61.125Z" fill="#E23237"/>
<path d="M222.601 60.6125L127.076 28V228L207.163 183.7L222.601 60.6125Z" fill="#B52E31"/>
<path d="M127.219 51.375L69.2188 180.375L90.8624 179.937L102.55 150.788H154.425L167.125 180.163L187.762 180.6L127.219 51.375ZM127.362 92.7875L146.987 133.769H110.25L127.419 92.7875H127.362Z" fill="white"/>
</svg>
