<svg width="256" height="256" viewBox="0 0 256 256" fill="none" xmlns="http://www.w3.org/2000/svg">
<path d="M95.6303 165.415C94.9148 165.416 94.2075 165.263 93.5569 164.965C92.9516 164.692 92.4059 164.303 91.951 163.82C91.4962 163.337 91.141 162.769 90.9058 162.148C90.6706 161.527 90.5601 160.866 90.5805 160.203C90.6009 159.539 90.7519 158.886 91.0248 158.281L107.374 122.027L107.441 121.885L123.379 86.5392C123.831 85.7124 124.499 85.0226 125.31 84.5421C126.121 84.0616 127.047 83.8081 127.99 83.8081C128.933 83.8081 129.858 84.0616 130.669 84.5421C131.481 85.0226 132.148 85.7124 132.601 86.5392L164.961 158.281C165.423 159.305 165.531 160.451 165.268 161.543C165.006 162.634 164.389 163.608 163.513 164.31C162.636 165.011 161.551 165.401 160.429 165.418C159.307 165.436 158.21 165.079 157.313 164.404L114.027 131.871L100.241 162.437C99.841 163.324 99.1933 164.078 98.3752 164.607C97.5573 165.135 96.6041 165.415 95.6303 165.415ZM118.292 122.422L147.646 144.488L127.99 100.918L118.292 122.422Z" fill="black"/>
<path d="M127.991 218C110.191 218 92.7908 212.721 77.9905 202.832C63.1903 192.943 51.6548 178.887 44.843 162.442C38.0312 145.996 36.2489 127.9 39.7215 110.442C43.1942 92.9838 51.7657 76.9474 64.3523 64.3607C76.939 51.774 92.9752 43.2023 110.433 39.7295C127.891 36.2567 145.987 38.0389 162.433 44.8505C178.878 51.6622 192.934 63.1974 202.824 77.9976C212.714 92.7979 217.992 110.199 217.992 127.998C217.966 151.86 208.476 174.737 191.603 191.61C174.73 208.483 151.853 217.973 127.991 218ZM127.991 48.1124C112.191 48.1126 96.7456 52.7981 83.6083 61.5764C70.4709 70.3547 60.2317 82.8316 54.1853 97.4293C48.139 112.027 46.5571 128.089 49.6399 143.586C52.7226 159.083 60.3313 173.318 71.504 184.49C82.6766 195.663 96.9114 203.271 112.408 206.352C127.905 209.435 143.968 207.853 158.565 201.806C173.163 195.759 185.639 185.52 194.417 172.382C203.195 159.244 207.88 143.799 207.88 127.998C207.856 106.819 199.432 86.5124 184.455 71.5359C169.478 56.5594 149.172 48.1355 127.991 48.1124Z" fill="#EE0000"/>
</svg>
