<svg width="256" height="256" viewBox="0 0 256 256" fill="none" xmlns="http://www.w3.org/2000/svg">
<path d="M0 56C0 25.0721 25.0721 0 56 0H200C230.928 0 256 25.0721 256 56V200C256 230.928 230.928 256 200 256H56C25.0721 256 0 230.928 0 200V56Z" fill="#0F172A"/>
<path d="M92.0432 169.573C91.2482 169.574 90.4623 169.403 89.7394 169.072C89.0669 168.769 88.4606 168.337 87.9551 167.8C87.4497 167.263 87.0551 166.632 86.7937 165.942C86.5325 165.253 86.4096 164.518 86.4324 163.781C86.455 163.043 86.6228 162.318 86.926 161.646L105.092 121.363L105.166 121.206L122.875 81.9323C123.378 81.0137 124.119 80.2473 125.021 79.7134C125.922 79.1795 126.95 78.8978 127.998 78.8978C129.046 78.8978 130.074 79.1795 130.975 79.7134C131.877 80.2473 132.619 81.0137 133.122 81.9323L169.077 161.646C169.59 162.783 169.71 164.057 169.419 165.27C169.127 166.482 168.442 167.565 167.468 168.344C166.494 169.123 165.289 169.557 164.042 169.576C162.795 169.595 161.577 169.199 160.58 168.449L112.484 132.301L97.1663 166.263C96.7217 167.249 96.0021 168.087 95.0932 168.674C94.1844 169.261 93.1253 169.573 92.0432 169.573ZM117.223 121.802L149.838 146.32L127.998 97.9086L117.223 121.802Z" fill="white"/>
<path d="M127.999 228C108.221 228 88.8873 222.135 72.4425 211.146C55.9978 200.159 43.1807 184.541 35.612 166.269C28.0433 147.995 26.063 127.889 29.9215 108.491C33.78 89.0931 43.3039 71.2749 57.289 57.2897C71.2742 43.3045 89.0922 33.7803 108.49 29.9217C127.888 26.063 147.994 28.0432 166.267 35.6117C184.539 43.1802 200.158 55.9971 211.146 72.4418C222.135 88.8865 228 108.221 228 127.998C227.971 154.511 217.426 179.93 198.679 198.678C179.931 217.425 154.512 227.97 127.999 228ZM127.999 39.236C110.443 39.2362 93.2816 44.4423 78.6846 54.196C64.0874 63.9497 52.7105 77.8129 45.9924 94.0326C39.2742 110.253 37.5166 128.099 40.9419 145.318C44.3671 162.537 52.8213 178.353 65.2353 190.767C77.6494 203.181 93.4658 211.634 110.685 215.058C127.903 218.483 145.751 216.726 161.97 210.007C178.19 203.288 192.053 191.911 201.806 177.313C211.559 162.715 216.765 145.554 216.765 127.998C216.737 104.465 207.377 81.9026 190.736 65.2621C174.095 48.6216 151.533 39.2617 127.999 39.236Z" fill="#EE0000"/>
</svg>
