<svg width="256" height="256" viewBox="0 0 256 256" fill="none" xmlns="http://www.w3.org/2000/svg">
<path d="M196 0H60C26.8629 0 0 26.8629 0 60V196C0 229.137 26.8629 256 60 256H196C229.137 256 256 229.137 256 196V60C256 26.8629 229.137 0 196 0Z" fill="url(#paint0_linear_30_408)"/>
<path d="M139.452 78.0558L115.212 78.0139L81.6248 167.011L103.549 167.049L109.03 151.97L142.102 152.026L135.849 135.328L114.078 135.29L127.633 96.9937L153.94 167.136L175.865 167.174L139.452 78.0558Z" fill="white"/>
<path d="M223.882 101.766C223.82 101.465 223.73 101.171 223.612 100.886C223.584 100.788 223.487 100.606 223.487 100.606C223.076 99.7535 222.425 99.0302 221.613 98.5224C220.801 98.0146 219.86 97.7437 218.905 97.7418C217.579 97.7395 216.316 98.2537 215.393 99.1712C214.47 100.089 213.963 101.335 213.983 102.634C213.992 103.185 214.098 103.713 214.276 104.206L214.262 104.212C216.614 112.017 217.867 120.084 217.988 128.186C218.361 151.751 209.351 173.892 192.621 190.527C175.888 207.162 153.435 216.298 129.398 216.257C105.363 216.216 82.6165 206.999 65.3576 190.306C48.0946 173.613 38.3845 151.44 38.011 127.875C37.6376 104.309 46.6472 82.1693 63.38 65.5347C80.1107 48.899 102.565 39.7626 126.601 39.8041C148.064 39.8412 168.493 47.1992 184.91 60.6602C184.372 62.0562 184.107 63.5434 184.132 65.0446C184.237 71.6625 189.793 77.0343 196.544 77.0459C203.293 77.0575 208.681 71.7049 208.576 65.0869C208.471 58.4689 202.913 53.0943 196.164 53.0826C194.691 53.08 193.285 53.3325 191.985 53.7978C174.247 39.0102 151.343 30.0433 126.446 30.0002C71.2239 29.9047 27.1541 73.717 28.0123 127.858C28.8704 181.998 74.3315 225.966 129.553 226.061C184.776 226.157 228.845 182.346 227.988 128.203C227.842 119.046 226.411 110.18 223.882 101.766Z" fill="white"/>
<defs>
<linearGradient id="paint0_linear_30_408" x1="0" y1="0" x2="256" y2="256" gradientUnits="userSpaceOnUse">
<stop stop-color="#4010AC"/>
<stop offset="1" stop-color="#D540A8"/>
</linearGradient>
</defs>
</svg>
