<svg width="256" height="256" viewBox="0 0 256 256" fill="none" xmlns="http://www.w3.org/2000/svg">
<g clip-path="url(#clip0_30_408)">
<path d="M196 0H60C26.8629 0 0 26.8629 0 60V196C0 229.137 26.8629 256 60 256H196C229.137 256 256 229.137 256 196V60C256 26.8629 229.137 0 196 0Z" fill="url(#paint0_linear_30_408)"/>
<path d="M138.306 83.2501L116.49 83.2124L86.2617 163.31L105.993 163.344L110.927 149.773L140.691 149.823L135.064 134.795L115.47 134.761L127.669 100.294L151.345 163.422L171.078 163.457L138.306 83.2501Z" fill="white"/>
<path d="M214.294 104.589C214.238 104.319 214.157 104.054 214.051 103.797C214.025 103.709 213.938 103.546 213.938 103.546C213.569 102.778 212.983 102.127 212.252 101.67C211.52 101.213 210.674 100.969 209.814 100.968C208.621 100.966 207.484 101.428 206.653 102.254C205.823 103.08 205.366 104.201 205.385 105.371C205.392 105.867 205.488 106.342 205.649 106.786L205.635 106.791C207.752 113.815 208.881 121.076 208.989 128.367C209.325 149.576 201.216 169.503 186.159 184.474C171.1 199.446 150.892 207.669 129.258 207.632C107.626 207.594 87.1549 199.299 71.6218 184.276C56.0851 169.252 47.3461 149.296 47.0099 128.088C46.6738 106.878 54.7824 86.9524 69.842 71.9812C84.8996 57.0091 105.109 48.7863 126.741 48.8237C146.058 48.8571 164.444 55.4793 179.219 67.5942C178.735 68.8506 178.497 70.1891 178.519 71.5401C178.613 77.4963 183.613 82.3308 189.69 82.3413C195.764 82.3518 200.613 77.5344 200.518 71.5782C200.424 65.622 195.422 60.7849 189.348 60.7743C188.022 60.772 186.756 60.9993 185.586 61.418C169.623 48.1092 149.009 40.0389 126.601 40.0001C76.9015 39.9142 37.2387 79.3453 38.0111 128.072C38.7834 176.798 79.6983 216.369 129.398 216.455C179.098 216.541 218.761 177.111 217.989 128.383C217.858 120.141 216.57 112.162 214.294 104.589Z" fill="white"/>
</g>
<defs>
<linearGradient id="paint0_linear_30_408" x1="0" y1="0" x2="256" y2="256" gradientUnits="userSpaceOnUse">
<stop stop-color="#4010AC"/>
<stop offset="1" stop-color="#D540A8"/>
</linearGradient>
<clipPath id="clip0_30_408">
<rect width="256" height="256" fill="white"/>
</clipPath>
</defs>
</svg>
