<svg width="256" height="256" viewBox="0 0 256 256" fill="none" xmlns="http://www.w3.org/2000/svg">
<path d="M177.406 133.628C177.659 160.868 201.303 169.933 201.565 170.048C201.365 170.688 197.787 182.966 189.108 195.65C181.606 206.615 173.82 217.54 161.554 217.766C149.501 217.988 145.626 210.619 131.846 210.619C118.071 210.619 113.765 217.54 102.356 217.988C90.5162 218.436 81.5004 206.131 73.9357 195.206C58.4782 172.858 46.6655 132.057 62.527 104.515C70.4067 90.8383 84.4882 82.1773 99.7725 81.9552C111.399 81.7334 122.373 89.777 129.48 89.777C136.583 89.777 149.918 80.1039 163.938 81.5245C169.806 81.7688 186.281 83.8952 196.859 99.3794C196.007 99.9078 177.202 110.855 177.406 133.628M154.755 66.7397C161.041 59.131 165.272 48.539 164.117 38C155.057 38.3642 144.101 44.0377 137.602 51.6422C131.778 58.3763 126.677 69.1548 128.053 79.4852C138.152 80.2665 148.469 74.3532 154.755 66.7397" fill="black"/>
</svg>
