<svg width="256" height="256" viewBox="0 0 256 256" fill="none" xmlns="http://www.w3.org/2000/svg">
<g clip-path="url(#clip0_196_9)">
<rect width="256" height="256" rx="56" fill="#F02E65"/>
<path fill-rule="evenodd" clip-rule="evenodd" d="M158.053 187.918C147.104 187.918 136.841 184.984 128.008 179.857C121.38 183.693 114.014 186.26 106.283 187.341C90.5376 189.543 74.5619 185.4 61.8709 175.823C55.5809 171.083 50.2864 165.151 46.2901 158.364C42.294 151.577 39.6742 144.069 38.5806 136.27C37.4871 128.471 37.9413 120.532 39.9171 112.908C41.893 105.283 45.3518 98.1238 50.0959 91.8372C54.84 85.5505 60.7765 80.2602 67.566 76.2687C74.3556 72.2773 81.8649 69.6628 89.6657 68.5747C97.4659 67.4868 105.404 67.9465 113.027 69.9277C118.288 71.2952 123.328 73.3691 128.012 76.0842C136.844 70.9594 147.106 68.0249 158.053 68.0249C191.162 68.0249 218 94.8636 218 127.972C218 161.079 191.162 187.918 158.053 187.918ZM117.973 83.3916L117.992 83.3759C109.667 79.6407 100.391 78.2793 91.2103 79.5632C78.3718 81.3586 66.7718 88.1808 58.963 98.5288C51.1543 108.877 47.776 121.902 49.5715 134.742C51.3669 147.58 58.189 159.18 68.537 166.989C78.8848 174.797 91.9112 178.176 104.75 176.38C117.589 174.585 129.188 167.763 136.997 157.415C144.806 147.066 148.184 134.041 146.388 121.202C145.561 115.279 143.662 109.619 140.841 104.474C135.733 95.1933 127.695 87.751 117.973 83.3916Z" fill="white"/>
<path d="M99.5866 107.231C99.5146 107.408 98.5983 111.008 97.6111 115.278C96.5868 119.548 94.9634 126.289 94.0476 130.275C92.2814 137.58 91.2228 142.38 91.2228 143.016C91.2228 143.191 92.3174 143.333 93.6573 143.333H96.0935L97.1859 138.462C97.8226 135.816 99.2345 129.746 100.363 124.982C101.493 120.217 102.868 114.431 103.399 112.101C103.927 109.771 104.456 107.656 104.563 107.408C104.67 107.092 104.068 106.986 102.234 106.986C100.857 106.986 99.6558 107.092 99.5866 107.231ZM80.6354 122.511L77.3887 126.041L78.3426 127.169C78.8702 127.804 80.3187 129.394 81.5539 130.699L83.8124 133.098H90.235L87.2009 129.815C85.5409 128.053 84.1645 126.358 84.1645 126.147C84.1645 125.9 85.4358 124.313 86.9889 122.618C88.5408 120.89 89.8115 119.406 89.8115 119.229C89.8115 119.089 88.4704 118.983 86.8476 118.983H83.9187L80.6354 122.511ZM105.338 119.194C105.338 119.301 105.939 119.971 106.678 120.712C109.433 123.465 111.373 125.795 111.267 126.252C111.197 126.5 109.855 128.157 108.233 129.887L105.305 133.098H108.586L111.868 133.063L114.865 129.782C116.526 127.948 117.866 126.322 117.866 126.111C117.866 125.936 116.455 124.277 114.69 122.407L111.515 118.983H108.443C106.714 118.983 105.338 119.089 105.338 119.194Z" fill="white"/>
</g>
<defs>
<clipPath id="clip0_196_9">
<rect width="256" height="256" fill="white"/>
</clipPath>
</defs>
</svg>
