<svg width="256" height="256" viewBox="0 0 256 256" fill="none" xmlns="http://www.w3.org/2000/svg">
<path d="M196 0H60C26.8629 0 0 26.8629 0 60V196C0 229.137 26.8629 256 60 256H196C229.137 256 256 229.137 256 196V60C256 26.8629 229.137 0 196 0Z" fill="#F02E65"/>
<path fill-rule="evenodd" clip-rule="evenodd" d="M161.393 194.243C149.227 194.243 137.823 190.982 128.009 185.285C120.644 189.548 112.461 192.4 103.87 193.601C86.3752 196.048 68.6243 191.444 54.5233 180.804C47.5343 175.537 41.6516 168.945 37.2113 161.405C32.7711 153.864 29.8602 145.522 28.6451 136.856C27.4301 128.19 27.9347 119.369 30.1301 110.897C32.3255 102.426 36.1686 94.4709 41.4399 87.4858C46.7112 80.5005 53.3072 74.6224 60.8511 70.1875C68.3951 65.7525 76.7388 62.8476 85.4064 61.6386C94.0733 60.4298 102.894 60.9405 111.363 63.1419C117.209 64.6613 122.808 66.9657 128.013 69.9824C137.827 64.2882 149.229 61.0277 161.393 61.0277C198.18 61.0277 228 90.8484 228 127.635C228 164.422 198.18 194.243 161.393 194.243ZM116.859 78.1018L116.88 78.0843C107.63 73.9342 97.3232 72.4214 87.1226 73.848C72.8575 75.8429 59.9687 83.4231 51.2923 94.9208C42.6158 106.419 38.8622 120.891 40.8572 135.158C42.8521 149.423 50.4322 162.311 61.93 170.987C73.4275 179.664 87.9013 183.418 102.166 181.422C116.432 179.428 129.321 171.848 137.997 160.35C146.673 148.852 150.427 134.379 148.432 120.114C147.512 113.532 145.403 107.244 142.268 101.527C136.592 91.2148 127.661 82.9455 116.859 78.1018Z" fill="white"/>
<path d="M96.4295 104.59C96.3495 104.787 95.3314 108.787 94.2344 113.531C93.0964 118.275 91.2926 125.765 90.2751 130.195C88.3126 138.311 87.1363 143.644 87.1363 144.351C87.1363 144.545 88.3526 144.703 89.8414 144.703H92.5482L93.762 139.291C94.4695 136.351 96.0383 129.606 97.2926 124.314C98.5476 119.019 100.076 112.59 100.665 110.001C101.252 107.412 101.84 105.062 101.958 104.787C102.077 104.435 101.409 104.318 99.3708 104.318C97.8408 104.318 96.5064 104.435 96.4295 104.59ZM75.3726 121.568L71.7651 125.49L72.8251 126.744C73.4113 127.449 75.0208 129.215 76.3932 130.665L78.9026 133.331H86.0389L82.6676 129.684C80.8232 127.725 79.2938 125.843 79.2938 125.608C79.2938 125.334 80.7064 123.57 82.432 121.687C84.1564 119.767 85.5683 118.118 85.5683 117.922C85.5683 117.765 84.0782 117.647 82.2751 117.647H79.0207L75.3726 121.568ZM102.82 117.882C102.82 118.001 103.487 118.745 104.309 119.568C107.37 122.627 109.526 125.217 109.408 125.725C109.33 126 107.838 127.841 106.036 129.763L102.783 133.331H106.428L110.075 133.292L113.406 129.646C115.251 127.609 116.74 125.802 116.74 125.567C116.74 125.373 115.172 123.53 113.211 121.452L109.683 117.647H106.27C104.349 117.647 102.82 117.765 102.82 117.882Z" fill="white"/>
</svg>
