<svg width="256" height="256" viewBox="0 0 256 256" fill="none" xmlns="http://www.w3.org/2000/svg">
<g clip-path="url(#clip0_196_14)">
<rect width="256" height="256" rx="56" fill="#00979C"/>
<path fill-rule="evenodd" clip-rule="evenodd" d="M38 134.914V121.421C38.2829 121.28 38.2829 120.999 38.2829 120.718C42.5266 102.305 54.1261 91.2007 72.5155 86.8434C74.0716 86.4217 75.7691 86.5623 77.3251 86H86.3783C86.5198 86.2812 86.9442 86.1406 87.2271 86.1406C96.2804 87.1245 104.485 90.3574 111.699 95.9797C117.923 100.618 122.733 106.522 127.118 112.846C127.684 113.69 127.967 113.69 128.533 112.846C131.079 109.192 133.767 105.678 136.878 102.445C144.376 94.4336 153.429 88.8112 164.463 86.8434C166.019 86.4217 167.857 86.5623 169.414 86H178.184C178.325 86.2812 178.609 86.1406 178.892 86.1406C181.579 86.4217 184.126 86.9839 186.672 87.6867C205.627 93.1685 219.065 110.457 217.934 129.995C217.084 146.441 208.739 158.247 194.169 165.696C186.955 169.633 179.033 170.616 170.829 170.476C160.078 170.335 150.742 166.68 142.679 159.653C137.02 154.733 132.635 148.83 128.533 142.645C127.967 141.802 127.684 141.942 127.118 142.786C124.572 146.581 121.884 150.376 118.772 154.03C113.256 160.215 106.89 165.275 98.9681 167.946C89.2076 171.319 79.3055 171.46 69.4035 168.789C55.1164 164.713 45.3558 155.717 39.9804 141.942C39.1316 139.693 38.7073 137.164 38 134.914ZM82.9834 155.576C91.0464 155.857 97.9778 153.187 103.919 147.706C110.002 142.083 114.387 135.055 118.772 128.168C118.914 127.746 118.914 127.465 118.631 127.043C114.953 121.28 111.133 115.518 106.041 110.738C96.2804 101.462 84.8224 98.3692 71.9497 102.445C61.3404 105.959 54.5505 113.409 52.9945 124.653C51.4384 135.195 55.5407 143.629 64.0281 149.954C69.6864 154.03 76.052 155.717 82.9834 155.576ZM172.667 155.576C175.779 155.576 178.892 155.436 181.862 154.592C193.037 151.219 200.393 144.332 202.515 132.806C204.637 121.421 200.252 112.284 190.633 105.819C180.023 98.5098 164.604 99.2126 153.853 107.224C146.64 112.565 141.83 119.734 137.02 127.184C136.737 127.605 136.878 127.887 137.02 128.308C140.839 134.352 144.659 140.396 149.61 145.596C155.833 152.203 163.331 155.998 172.667 155.576Z" fill="white"/>
<path fill-rule="evenodd" clip-rule="evenodd" d="M82.841 123.669C87.3677 123.669 92.0357 123.81 96.5624 123.669C97.6941 123.669 97.8355 123.95 97.8355 125.075C97.694 126.34 97.694 127.605 97.8355 128.87C97.977 129.995 97.694 130.276 96.4209 130.276H78.3144C75.2024 130.276 72.0903 130.135 68.9782 130.276C67.988 130.276 67.7051 129.995 67.7051 128.87C67.8465 127.605 67.8465 126.34 67.7051 124.934C67.7051 123.95 67.988 123.669 68.9782 123.669C73.5049 123.81 78.1729 123.669 82.841 123.669ZM171.959 114.673C173.09 114.673 174.222 114.814 175.213 114.673C175.92 114.673 176.203 114.954 176.203 115.657C176.062 117.626 176.203 119.593 176.062 121.561C176.062 122.545 176.344 122.826 177.335 122.826C179.173 122.685 181.154 122.826 183.134 122.685C183.983 122.685 184.266 122.826 184.266 123.81V130.276C184.266 130.979 183.983 131.26 183.276 131.26C181.296 131.119 179.315 131.26 177.193 131.119C176.344 131.119 176.062 131.4 176.062 132.243C176.203 134.211 176.062 136.179 176.203 138.147C176.203 138.991 175.92 139.412 175.071 139.412C172.949 139.272 170.828 139.272 168.705 139.412C167.857 139.412 167.574 139.131 167.574 138.288C167.715 136.179 167.574 134.211 167.715 132.103C167.715 131.4 167.432 131.119 166.725 131.119C164.745 131.26 162.765 131.119 160.784 131.26C159.652 131.26 159.511 130.838 159.511 129.995C159.511 128.027 159.652 126.059 159.511 124.091C159.369 122.966 159.936 122.685 160.925 122.685C162.906 122.826 164.745 122.685 166.725 122.826C167.432 122.826 167.715 122.545 167.715 121.842C167.574 119.874 167.715 117.766 167.574 115.799C167.574 114.954 167.857 114.673 168.705 114.673C169.837 114.814 170.828 114.673 171.959 114.673Z" fill="white"/>
</g>
<defs>
<clipPath id="clip0_196_14">
<rect width="256" height="256" fill="white"/>
</clipPath>
</defs>
</svg>
