<svg width="256" height="256" viewBox="0 0 256 256" fill="none" xmlns="http://www.w3.org/2000/svg">
<path d="M196 0H60C26.8629 0 0 26.8629 0 60V196C0 229.137 26.8629 256 60 256H196C229.137 256 256 229.137 256 196V60C256 26.8629 229.137 0 196 0Z" fill="#00979C"/>
<path fill-rule="evenodd" clip-rule="evenodd" d="M28 135.349V120.356C28.3143 120.2 28.3143 119.888 28.3143 119.575C33.0296 99.1165 45.9179 86.7785 66.3506 81.9371C68.0796 81.4686 69.9657 81.6247 71.6945 81H81.7537C81.9109 81.3124 82.3824 81.1563 82.6968 81.1563C92.756 82.2495 101.872 85.8416 109.888 92.0886C116.804 97.2424 122.148 103.802 127.02 110.829C127.648 111.766 127.964 111.766 128.592 110.829C131.421 106.769 134.407 102.865 137.865 99.2727C146.195 90.3707 156.255 84.1236 168.514 81.9371C170.243 81.4686 172.286 81.6247 174.016 81H183.76C183.917 81.3124 184.232 81.1563 184.546 81.1563C187.533 81.4686 190.362 82.0932 193.191 82.8742C214.252 88.965 229.184 108.174 227.926 129.883C226.983 148.156 217.71 161.275 201.521 169.552C193.505 173.925 184.703 175.018 175.587 174.862C163.642 174.706 153.269 170.645 144.31 162.837C138.022 157.37 133.15 150.811 128.592 143.939C127.964 143.002 127.648 143.158 127.02 144.095C124.191 148.312 121.205 152.529 117.747 156.589C111.617 163.461 104.544 169.083 95.7423 172.051C84.8973 175.799 73.895 175.955 62.8928 172.988C47.0182 168.458 36.1731 158.463 30.2005 143.158C29.2574 140.659 28.7858 137.848 28 135.349ZM77.9816 158.307C86.9405 158.619 94.642 155.652 101.243 149.562C108.002 143.314 112.874 135.505 117.747 127.853C117.904 127.384 117.904 127.072 117.59 126.604C113.503 120.2 109.259 113.797 103.601 108.487C92.756 98.1795 80.0249 94.7436 65.7219 99.2727C53.9338 103.177 46.3894 111.454 44.6606 123.948C42.9316 135.661 47.4897 145.032 56.9201 152.06C63.2071 156.589 70.28 158.463 77.9816 158.307ZM177.63 158.307C181.088 158.307 184.546 158.151 187.847 157.214C200.263 153.466 208.437 145.813 210.795 133.006C213.152 120.356 208.28 110.205 197.592 103.021C185.804 94.8997 168.671 95.6806 156.726 104.583C148.711 110.517 143.366 118.482 138.022 126.76C137.708 127.228 137.865 127.541 138.022 128.009C142.266 134.724 146.51 141.44 152.011 147.218C158.926 154.559 167.257 158.775 177.63 158.307Z" fill="white"/>
<path fill-rule="evenodd" clip-rule="evenodd" d="M77.8243 122.855C82.8539 122.855 88.0407 123.011 93.0703 122.855C94.3277 122.855 94.4849 123.167 94.4849 124.416C94.3276 125.823 94.3276 127.228 94.4849 128.634C94.642 129.883 94.3276 130.195 92.9131 130.195H72.7947C69.3369 130.195 65.879 130.039 62.4212 130.195C61.3209 130.195 61.0066 129.883 61.0066 128.634C61.1638 127.228 61.1638 125.823 61.0066 124.26C61.0066 123.167 61.3209 122.855 62.4212 122.855C67.4508 123.011 72.6376 122.855 77.8243 122.855ZM176.845 112.859C178.101 112.859 179.359 113.016 180.459 112.859C181.246 112.859 181.56 113.172 181.56 113.953C181.403 116.14 181.56 118.326 181.403 120.512C181.403 121.605 181.717 121.918 182.817 121.918C184.86 121.762 187.061 121.918 189.261 121.762C190.205 121.762 190.519 121.918 190.519 123.011V130.195C190.519 130.976 190.205 131.289 189.418 131.289C187.218 131.132 185.017 131.289 182.66 131.132C181.717 131.132 181.403 131.445 181.403 132.382C181.56 134.568 181.403 136.754 181.56 138.942C181.56 139.879 181.246 140.347 180.302 140.347C177.944 140.191 175.587 140.191 173.229 140.347C172.287 140.347 171.972 140.035 171.972 139.098C172.129 136.754 171.972 134.568 172.129 132.226C172.129 131.445 171.815 131.132 171.029 131.132C168.828 131.289 166.628 131.132 164.427 131.289C163.17 131.289 163.013 130.82 163.013 129.883C163.013 127.697 163.17 125.51 163.013 123.323C162.856 122.074 163.485 121.762 164.584 121.762C166.785 121.918 168.828 121.762 171.029 121.918C171.815 121.918 172.129 121.605 172.129 120.825C171.972 118.638 172.129 116.296 171.972 114.11C171.972 113.172 172.287 112.859 173.229 112.859C174.487 113.016 175.587 112.859 176.845 112.859Z" fill="white"/>
</svg>
