<svg width="256" height="256" viewBox="0 0 256 256" fill="none" xmlns="http://www.w3.org/2000/svg">
<g clip-path="url(#clip0_30_413)">
<path d="M196 0H60C26.8629 0 0 26.8629 0 60V196C0 229.137 26.8629 256 60 256H196C229.137 256 256 229.137 256 196V60C256 26.8629 229.137 0 196 0Z" fill="url(#paint0_linear_30_413)"/>
<path fill-rule="evenodd" clip-rule="evenodd" d="M157.719 42.5101C159.353 44.3351 160.185 46.7986 161.851 51.7231L198.247 159.328C184.576 152.944 169.903 148.472 154.734 146.069L131.037 73.9974C130.848 73.4225 130.457 72.9179 129.923 72.5594C129.389 72.2008 128.741 72.0075 128.075 72.0083C127.408 72.0092 126.76 72.2041 126.228 72.5641C125.695 72.924 125.306 73.4295 125.119 74.005L101.708 146.033C86.4709 148.425 71.7306 152.903 58 159.312L94.5734 51.6989C96.2458 46.7811 97.0803 44.323 98.714 42.5018C100.156 40.8931 102.032 39.6438 104.163 38.8728C106.577 38 109.433 38 115.147 38H141.27C146.991 38 149.851 38 152.267 38.8751C154.4 39.6475 156.277 40.8991 157.719 42.5101Z" fill="#31274A"/>
<path fill-rule="evenodd" clip-rule="evenodd" d="M162.074 164.449C156.074 169.067 144.098 172.215 130.304 172.215C113.373 172.215 99.1826 167.471 95.4177 161.092C94.0714 164.749 93.7697 168.933 93.7697 171.607C93.7697 171.607 92.8822 184.733 103.026 193.863C103.026 189.122 107.296 185.279 112.564 185.279C121.592 185.279 121.582 192.368 121.573 198.12V198.633C121.573 207.363 127.501 214.846 135.932 218C134.634 215.596 133.962 212.958 133.966 210.285C133.966 201.959 139.398 198.859 145.71 195.257C150.732 192.39 156.312 189.205 160.158 182.815C162.229 179.374 163.31 175.521 163.303 171.607C163.303 169.111 162.872 166.706 162.074 164.449Z" fill="#FF5D01"/>
<path fill-rule="evenodd" clip-rule="evenodd" d="M162.074 164.449C156.074 169.067 144.098 172.215 130.304 172.215C113.373 172.215 99.1826 167.471 95.4177 161.092C94.0714 164.749 93.7697 168.933 93.7697 171.607C93.7697 171.607 92.8822 184.733 103.026 193.863C103.026 189.122 107.296 185.279 112.564 185.279C121.592 185.279 121.582 192.368 121.573 198.12V198.633C121.573 207.363 127.501 214.846 135.932 218C134.634 215.596 133.962 212.958 133.966 210.285C133.966 201.959 139.398 198.859 145.71 195.257C150.732 192.39 156.312 189.205 160.158 182.815C162.229 179.374 163.31 175.521 163.303 171.607C163.303 169.111 162.872 166.706 162.074 164.449Z" fill="url(#paint1_linear_30_413)"/>
</g>
<defs>
<linearGradient id="paint0_linear_30_413" x1="128" y1="0" x2="128" y2="256" gradientUnits="userSpaceOnUse">
<stop offset="0.192708" stop-color="#FCB3B2"/>
<stop offset="1" stop-color="#C587EE"/>
</linearGradient>
<linearGradient id="paint1_linear_30_413" x1="189.089" y1="126.888" x2="159.262" y2="196.268" gradientUnits="userSpaceOnUse">
<stop stop-color="#FF1639"/>
<stop offset="1" stop-color="#FF1639" stop-opacity="0"/>
</linearGradient>
<clipPath id="clip0_30_413">
<rect width="256" height="256" fill="white"/>
</clipPath>
</defs>
</svg>
