<svg width="256" height="256" viewBox="0 0 256 256" fill="none" xmlns="http://www.w3.org/2000/svg">
<g clip-path="url(#clip0_30_272)">
<path d="M196 0H60C26.8629 0 0 26.8629 0 60V196C0 229.137 26.8629 256 60 256H196C229.137 256 256 229.137 256 196V60C256 26.8629 229.137 0 196 0Z" fill="url(#paint0_linear_30_272)"/>
<path d="M97.9398 108.662C96.4398 110.976 94.9882 113.299 93.589 115.626C92.0581 111.411 90.7139 107.26 89.5685 103.211C93.6387 102.627 97.9653 102.168 102.525 101.848C100.977 104.07 99.4464 106.34 97.9398 108.662ZM210.486 116.818C205.977 112.491 199.53 108.524 191.326 105.029C175.039 98.0938 153.224 93.5993 129.896 92.376C127.083 92.2283 124.338 92.1276 121.681 92.0738C139.49 70.8165 156.69 59.5059 166.707 59.1255C168.828 59.0443 170.609 59.464 172.004 60.3707C176.692 63.4175 177.993 72.8675 175.483 85.6497C174.989 88.1729 176.633 90.62 179.155 91.1151C181.679 91.6092 184.126 89.9669 184.621 87.4434C188.935 65.4697 182.9 56.3471 177.079 52.5631C174.042 50.5882 170.431 49.6656 166.353 49.8205C150.946 50.406 129.357 66.8351 109.658 92.1638C101.858 92.4324 94.3396 93.1051 87.306 94.1566C86.5341 90.5712 85.9376 87.0967 85.5334 83.7663C83.7666 69.2052 85.9336 58.8694 91.329 56.1173C92.1964 55.6754 93.1431 55.421 94.2255 55.3398C99.0463 54.9771 105.849 58.2168 113.367 64.4609C115.346 66.1035 118.281 65.832 119.925 63.8536C121.567 61.8755 121.296 58.9401 119.317 57.2976C109.66 49.2778 100.984 45.494 93.5285 46.0542C91.2229 46.2272 89.0604 46.8222 87.099 47.8222C82.0869 50.3783 78.6616 55.2729 76.9185 62.3699C75.4255 68.4473 75.2139 76.0237 76.2897 84.8878C76.715 88.3933 77.3369 92.0416 78.1387 95.7976C72.6396 96.9564 67.5429 98.3691 62.9746 100.019C42.988 107.238 38.3738 116.755 38.0224 123.468C37.6865 129.88 40.9686 139.422 58.5106 148.468C60.7959 149.647 63.604 148.749 64.7825 146.464C65.9611 144.179 65.0639 141.371 62.7784 140.192C52.6873 134.988 47.0534 129.07 47.3213 123.954C47.6988 116.747 59.7791 109.12 80.3568 104.822C82.2629 111.705 84.7111 118.855 87.6469 126.106C80.2509 139.988 74.8544 153.671 72.0564 165.843C70.0565 174.539 69.4721 182.09 70.3189 188.285C71.3082 195.521 74.2023 200.745 78.9199 203.812C81.3254 205.375 84.5675 206.598 88.8261 206.598C95.0003 206.597 103.312 204.025 114.298 196.189C116.392 194.696 116.879 191.788 115.386 189.695C113.893 187.601 110.986 187.115 108.892 188.608C98.062 196.332 88.7543 199.097 83.9945 196.004C78.9184 192.705 77.8479 182.21 81.1311 167.928C83.3081 158.46 87.193 147.965 92.461 137.147C93.6051 139.596 94.7989 142.045 96.0437 144.49C106.647 165.319 119.627 183.441 132.593 195.518C139.123 201.599 145.369 205.881 151.155 208.245C154.667 209.679 157.965 210.395 161.025 210.395C163.859 210.395 166.491 209.78 168.899 208.552C173.734 206.086 177.097 201.436 178.892 194.732C180.43 188.988 180.776 181.825 179.921 173.439C178.236 156.951 172.005 136.842 162.376 116.814C161.263 114.498 158.48 113.523 156.163 114.637C153.845 115.751 152.87 118.533 153.985 120.849C163.159 139.93 169.079 158.943 170.656 174.385C172.043 187.966 169.804 197.639 164.67 200.257C159.277 203.006 149.66 198.688 138.94 188.704C126.75 177.351 114.464 160.148 104.341 140.267C102.027 135.721 99.8963 131.165 97.9559 126.645C100.364 122.34 102.968 118.021 105.751 113.73C108.591 109.355 111.465 105.231 114.346 101.362C115.111 101.353 115.88 101.345 116.655 101.342C120.654 101.329 124.939 101.44 129.409 101.675C151.674 102.843 172.368 107.078 187.678 113.597C201.144 119.332 208.994 126.369 208.677 132.42C208.408 137.558 202.166 142.868 191.551 146.99C189.154 147.921 187.964 150.619 188.894 153.016C189.61 154.859 191.37 155.988 193.238 155.988C193.797 155.988 194.366 155.886 194.92 155.671C213.367 148.509 217.64 139.338 217.977 132.907C218.271 127.286 215.751 121.873 210.486 116.818Z" fill="#F2F8F6"/>
<path d="M118.393 129.434C118.393 135.058 122.947 139.616 128.564 139.616C134.184 139.616 138.738 135.058 138.738 129.434C138.738 123.811 134.184 119.252 128.564 119.252C122.947 119.252 118.393 123.811 118.393 129.434Z" fill="#F1F8F3"/>
</g>
<defs>
<linearGradient id="paint0_linear_30_272" x1="128" y1="10.1404" x2="128" y2="256" gradientUnits="userSpaceOnUse">
<stop stop-color="#B2E198"/>
<stop offset="1" stop-color="#04A171"/>
</linearGradient>
<clipPath id="clip0_30_272">
<rect width="256" height="256" fill="white"/>
</clipPath>
</defs>
</svg>
