<svg width="256" height="256" viewBox="0 0 256 256" fill="none" xmlns="http://www.w3.org/2000/svg">
<path d="M196 0H60C26.8629 0 0 26.8629 0 60V196C0 229.137 26.8629 256 60 256H196C229.137 256 256 229.137 256 196V60C256 26.8629 229.137 0 196 0Z" fill="url(#paint0_linear_30_272)"/>
<path d="M94.5998 106.624C92.9331 109.195 91.3203 111.776 89.7656 114.362C88.0646 109.679 86.571 105.066 85.2983 100.568C89.8208 99.9193 94.6281 99.4089 99.6947 99.0538C97.9748 101.522 96.2738 104.044 94.5998 106.624ZM219.651 115.687C214.641 110.878 207.477 106.471 198.362 102.588C180.266 94.882 156.026 89.8881 130.107 88.5289C126.982 88.3647 123.931 88.2529 120.979 88.1932C140.767 64.5739 159.878 52.0066 171.008 51.5839C173.365 51.4937 175.343 51.96 176.894 52.9674C182.102 56.3527 183.548 66.8528 180.759 81.0552C180.21 83.8588 182.037 86.5777 184.839 87.1278C187.643 87.6769 190.363 85.8521 190.913 83.0482C195.706 58.633 189 48.4968 182.532 44.2923C179.157 42.098 175.145 41.0729 170.615 41.245C153.496 41.8956 129.508 60.1501 107.62 88.2931C98.9539 88.5915 90.5996 89.339 82.7845 90.5073C81.9268 86.5235 81.264 82.663 80.8148 78.9626C78.8517 62.7836 81.2596 51.2993 87.2544 48.2415C88.2183 47.7505 89.2702 47.4678 90.4728 47.3776C95.8292 46.9745 103.388 50.5743 111.742 57.5122C113.939 59.3372 117.202 59.0355 119.028 56.8374C120.853 54.6394 120.551 51.3779 118.352 49.5529C107.623 40.6419 97.9822 36.4378 89.6984 37.0602C87.1365 37.2524 84.7337 37.9136 82.5544 39.0247C76.9854 41.8648 73.1796 47.3032 71.2428 55.1888C69.5839 61.9414 69.3487 70.3596 70.5441 80.2086C71.0166 84.1036 71.7077 88.1574 72.5985 92.3306C66.4884 93.6182 60.8255 95.1879 55.7495 97.0216C33.5422 105.043 28.4154 115.617 28.0249 123.076C27.6517 130.2 31.2985 140.802 50.7895 150.853C53.3288 152.164 56.4489 151.165 57.7584 148.627C59.0679 146.088 58.071 142.968 55.5316 141.658C44.3193 135.876 38.0593 129.3 38.357 123.616C38.7764 115.608 52.199 107.133 75.0631 102.357C77.181 110.005 79.9013 117.95 83.1632 126.007C74.9455 141.431 68.9494 156.635 65.8404 170.159C63.6183 179.821 62.969 188.211 63.9099 195.095C65.0091 203.135 68.2248 208.938 73.4665 212.346C76.1394 214.084 79.7417 215.442 84.4734 215.442C91.3337 215.441 100.569 212.583 112.776 203.877C115.102 202.217 115.644 198.987 113.985 196.661C112.325 194.335 109.095 193.795 106.769 195.453C94.7355 204.036 84.3937 207.108 79.105 203.671C73.4649 200.006 72.2755 188.344 75.9235 172.476C78.3424 161.955 82.6589 150.294 88.5123 138.274C89.7834 140.995 91.1099 143.717 92.493 146.434C104.274 169.577 118.697 189.712 133.104 203.131C140.359 209.888 147.299 214.646 153.728 217.272C157.63 218.865 161.294 219.662 164.695 219.662C167.843 219.662 170.768 218.978 173.444 217.613C178.816 214.874 182.552 209.707 184.547 202.257C186.256 195.876 186.64 187.917 185.69 178.599C183.818 160.278 176.895 137.935 166.195 115.683C164.959 113.109 161.867 112.026 159.292 113.263C156.717 114.501 155.633 117.592 156.872 120.166C167.065 141.367 173.644 162.492 175.395 179.65C176.937 194.74 174.449 205.488 168.744 208.397C162.753 211.451 152.066 206.653 140.155 195.56C126.611 182.946 112.96 163.831 101.712 141.741C99.1416 136.69 96.7736 131.628 94.6176 126.606C97.293 121.822 100.186 117.024 103.279 112.255C106.434 107.395 109.628 102.812 112.829 98.5137C113.679 98.5032 114.534 98.4943 115.395 98.4913C119.838 98.4763 124.599 98.6002 129.565 98.8613C154.304 100.159 177.298 104.864 194.309 112.108C209.271 118.48 217.993 126.299 217.641 133.022C217.343 138.731 210.407 144.631 198.612 149.212C195.949 150.246 194.626 153.243 195.661 155.907C196.456 157.954 198.412 159.209 200.486 159.209C201.108 159.209 201.74 159.095 202.355 158.856C222.852 150.898 227.6 140.709 227.974 133.563C228.301 127.318 225.501 121.303 219.651 115.687Z" fill="#F2F8F6"/>
<path d="M117.324 129.705C117.324 135.953 122.385 141.018 128.626 141.018C134.87 141.018 139.929 135.953 139.929 129.705C139.929 123.457 134.87 118.391 128.626 118.391C122.385 118.391 117.324 123.457 117.324 129.705Z" fill="#F1F8F3"/>
<defs>
<linearGradient id="paint0_linear_30_272" x1="128" y1="10.1404" x2="128" y2="256" gradientUnits="userSpaceOnUse">
<stop stop-color="#B2E198"/>
<stop offset="1" stop-color="#04A171"/>
</linearGradient>
</defs>
</svg>
