<svg width="256" height="256" viewBox="0 0 256 256" fill="none" xmlns="http://www.w3.org/2000/svg">
<path d="M196 0H60C26.8629 0 0 26.8629 0 60V196C0 229.137 26.8629 256 60 256H196C229.137 256 256 229.137 256 196V60C256 26.8629 229.137 0 196 0Z" fill="#00005B"/>
<path d="M106.17 154.852H68.1637L60.4094 178.976C60.2179 179.934 59.3563 180.508 58.4947 180.412H39.2524C38.1036 180.412 37.8164 179.838 38.1036 178.593L71.0357 84.0093C71.3229 82.9562 71.6101 81.9032 72.0888 80.6586C72.5674 78.5525 72.9504 76.3507 72.9504 74.1488C72.8546 73.6701 73.2376 73.0957 73.812 73C73.9077 73 74.0034 73 74.0992 73H100.33C101 73 101.574 73.2872 101.67 73.8616L138.814 178.785C139.102 179.934 138.814 180.412 137.761 180.412H116.413C115.743 180.508 114.977 180.029 114.785 179.264L106.17 154.852ZM74.0992 134.461H100.043C99.4684 132.354 98.6068 129.77 97.6495 127.089C96.6921 124.313 95.8306 121.345 94.8732 118.282C93.8202 115.123 92.9586 112.059 91.9055 108.9C90.8524 105.741 89.9908 102.773 89.1292 99.8052C88.2677 96.9332 87.5975 94.2527 86.8317 91.8594H86.6402C85.6829 96.2631 84.6298 100.667 83.1938 105.071C81.6621 109.953 80.1303 115.123 78.5029 120.196C77.2584 125.366 75.6309 130.153 74.0992 134.461Z" fill="#9999FF"/>
<path d="M217.22 99.8054V162.51C217.22 165.287 217.22 167.68 217.315 169.882C217.411 171.988 217.507 173.902 217.603 175.53C217.794 177.157 217.89 178.115 217.986 179.168C218.081 180.125 217.698 180.508 216.837 180.508H199.318C198.456 180.604 197.69 180.125 197.403 179.359C197.212 178.498 197.02 177.636 196.829 176.774C196.637 176.104 196.637 175.338 196.637 174.668C193.382 177.636 189.361 179.742 185.053 180.987C181.416 182.04 177.491 182.518 173.661 182.518C169.832 182.518 166.098 182.04 162.556 180.795C159.301 179.646 156.238 177.732 153.845 175.147C151.164 172.275 149.249 168.924 148.101 165.191C146.665 160.5 145.994 155.617 146.09 150.639V99.9011C145.994 99.3267 146.377 98.6566 147.143 98.5608C147.239 98.5608 147.335 98.5608 147.43 98.5608H166.96C167.534 98.4651 168.204 98.848 168.3 99.6139C168.3 99.7096 168.3 99.8054 168.3 99.9011V147.959C168.3 152.458 169.353 156 171.268 158.585C173.183 161.17 177.203 162.51 181.799 162.51C184.192 162.51 186.489 162.127 188.787 161.266C191.18 160.404 193.286 159.351 195.201 157.915V99.8054C195.201 99.1352 195.68 98.6566 196.637 98.6566H216.167C216.645 98.5608 217.315 98.9438 217.315 99.5182C217.22 99.6139 217.22 99.7096 217.22 99.8054Z" fill="#9999FF"/>
</svg>
