<svg width="256" height="256" viewBox="0 0 256 256" fill="none" xmlns="http://www.w3.org/2000/svg">
<path d="M108.777 38.021L146.579 38C155.143 53.08 162.364 68.973 168.521 85.2791C170.984 91.3373 173.473 97.3955 175.471 103.644C178.462 112.797 182.232 121.648 185.092 130.853C190.709 150.228 195.673 169.806 200.662 189.364C202.522 197.153 205.099 204.726 206.776 212.561C204.131 213.459 201.473 214.325 198.833 215.249C195.868 216.233 192.719 216.134 189.647 216.409C185.248 216.856 180.831 217.143 176.426 217.537L165.82 209.906C165.336 206.384 165.412 202.785 164.776 199.278C162.973 188.033 160.145 176.992 156.928 166.102L97.9503 174.645C97.5104 177.117 97.0517 179.595 96.6055 182.073C94.6325 190.858 95.1289 199.959 94.6011 208.909L81.129 217.584C80.2618 218.278 79.1308 217.897 78.1442 217.885C74.814 217.537 71.4648 217.551 68.1471 217.131C64.7665 216.692 61.1471 217.321 57.9864 215.721C55.3411 214.436 52.614 213.335 50 211.978C53.0099 197.048 57.0126 182.356 60.9146 167.656C65.7342 149.317 71.5026 131.267 77.4405 113.296C85.7601 87.3183 96.3291 62.1283 108.777 38.0199V38.021ZM125.159 90.9507C120.251 105.808 114.57 120.363 109.317 135.09L140.685 117.059C137.631 108.175 134.553 99.3038 131.322 90.4917C130.707 89.0034 130.091 87.0824 128.394 86.6627C126.378 86.9119 125.787 89.2788 125.159 90.9507Z" fill="#BF2223"/>
</svg>
