<svg width="256" height="256" viewBox="0 0 256 256" fill="none" xmlns="http://www.w3.org/2000/svg">
<path d="M0 56C0 25.0721 25.0721 0 56 0H200C230.928 0 256 25.0721 256 56V200C256 230.928 230.928 256 200 256H56C25.0721 256 0 230.928 0 200V56Z" fill="#22272E"/>
<path d="M84.3618 111.437C84.3618 113.898 84.6279 115.892 85.0935 117.356C85.6256 118.819 86.2908 120.416 87.2221 122.146C87.5546 122.678 87.6877 123.209 87.6877 123.676C87.6877 124.341 87.2886 125.006 86.4238 125.67L82.2333 128.465C81.6346 128.863 81.0359 129.064 80.5038 129.064C79.8386 129.064 79.1735 128.731 78.5083 128.132C77.577 127.134 76.7787 126.07 76.1137 125.006C75.4485 123.875 74.7833 122.611 74.0516 121.081C68.8632 127.201 62.3444 130.261 54.4954 130.261C48.9079 130.261 44.4512 128.664 41.1918 125.471C37.9324 122.278 36.2695 118.022 36.2695 112.7C36.2695 107.045 38.265 102.456 42.3226 98.9973C46.3802 95.5383 51.7681 93.8089 58.6194 93.8089C60.8811 93.8089 63.2092 94.0084 65.6703 94.341C68.1315 94.6736 70.6591 95.2058 73.3199 95.8044V90.9487C73.3199 85.8933 72.2556 82.3678 70.1935 80.3058C68.0649 78.2438 64.473 77.2459 59.3511 77.2459C57.023 77.2459 54.6283 77.512 52.1672 78.1107C49.706 78.7094 47.3114 79.4411 44.9833 80.3723C43.919 80.838 43.1208 81.104 42.6551 81.237C42.1895 81.3701 41.857 81.4366 41.5909 81.4366C40.6597 81.4366 40.194 80.7714 40.194 79.3745V76.1151C40.194 75.0509 40.3271 74.2527 40.6597 73.7871C40.9922 73.3215 41.5909 72.8558 42.5222 72.3902C44.8503 71.1929 47.6441 70.1951 50.9033 69.3969C54.1627 68.5321 57.6217 68.1331 61.2802 68.1331C69.1957 68.1331 74.9828 69.929 78.7078 73.5209C82.3663 77.113 84.2288 82.5674 84.2288 89.8843V111.437H84.3618ZM57.3556 121.547C59.5507 121.547 61.8123 121.148 64.2069 120.349C66.6016 119.551 68.7301 118.087 70.5261 116.093C71.5904 114.829 72.3886 113.431 72.7877 111.835C73.1868 110.238 73.4529 108.309 73.4529 106.049V103.254C71.5239 102.789 69.4618 102.39 67.3332 102.124C65.2047 101.858 63.1426 101.724 61.0806 101.724C56.6239 101.724 53.3645 102.59 51.1695 104.385C48.9743 106.181 47.9101 108.709 47.9101 112.035C47.9101 115.161 48.7083 117.489 50.3712 119.085C51.9677 120.749 54.2958 121.547 57.3556 121.547ZM110.769 128.731C109.572 128.731 108.773 128.531 108.241 128.066C107.71 127.666 107.244 126.735 106.845 125.471L91.2132 74.0531C90.814 72.7228 90.6145 71.858 90.6145 71.3924C90.6145 70.3281 91.1466 69.7294 92.2109 69.7294H98.7297C99.9932 69.7294 100.859 69.929 101.324 70.3946C101.856 70.7938 102.255 71.725 102.654 72.9888L113.829 117.024L124.206 72.9888C124.539 71.6585 124.937 70.7938 125.47 70.3946C126.002 69.9955 126.933 69.7294 128.13 69.7294H133.451C134.715 69.7294 135.581 69.929 136.113 70.3946C136.644 70.7938 137.111 71.725 137.376 72.9888L147.887 117.556L159.394 72.9888C159.793 71.6585 160.259 70.7938 160.724 70.3946C161.256 69.9955 162.121 69.7294 163.318 69.7294H169.504C170.569 69.7294 171.167 70.2616 171.167 71.3924C171.167 71.725 171.101 72.0576 171.034 72.4567C170.968 72.8558 170.835 73.3879 170.569 74.1196L154.538 125.538C154.139 126.869 153.673 127.733 153.141 128.132C152.609 128.531 151.744 128.798 150.613 128.798H144.893C143.629 128.798 142.764 128.597 142.233 128.132C141.7 127.666 141.235 126.802 140.969 125.471L130.658 82.5674L120.415 125.404C120.082 126.735 119.683 127.6 119.151 128.066C118.618 128.531 117.687 128.731 116.49 128.731H110.769ZM196.245 130.527C192.786 130.527 189.327 130.127 186.001 129.329C182.675 128.531 180.081 127.666 178.351 126.668C177.287 126.07 176.555 125.404 176.29 124.806C176.024 124.207 175.89 123.542 175.89 122.944V119.551C175.89 118.154 176.422 117.489 177.42 117.489C177.819 117.489 178.219 117.556 178.617 117.689C179.016 117.821 179.615 118.087 180.28 118.354C182.542 119.351 185.003 120.15 187.597 120.682C190.258 121.215 192.852 121.481 195.513 121.481C199.704 121.481 202.963 120.749 205.224 119.285C207.486 117.821 208.683 115.693 208.683 112.966C208.683 111.104 208.085 109.573 206.887 108.309C205.69 107.045 203.429 105.915 200.169 104.85L190.524 101.858C185.668 100.328 182.076 98.066 179.881 95.0727C177.686 92.146 176.555 88.8866 176.555 85.4276C176.555 82.6339 177.154 80.1728 178.351 78.0442C179.548 75.9156 181.145 74.0531 183.141 72.5897C185.136 71.0598 187.398 69.929 190.058 69.1308C192.719 68.3325 195.513 68 198.44 68C199.903 68 201.433 68.0665 202.897 68.2661C204.427 68.4656 205.823 68.7317 207.22 68.9977C208.551 69.3304 209.815 69.6629 211.012 70.0621C212.209 70.4611 213.14 70.8602 213.805 71.2594C214.736 71.7915 215.402 72.3236 215.801 72.9223C216.199 73.4544 216.4 74.1861 216.4 75.1174V78.2438C216.4 79.6406 215.868 80.3723 214.87 80.3723C214.337 80.3723 213.473 80.1062 212.342 79.5741C208.551 77.8446 204.293 76.9799 199.57 76.9799C195.779 76.9799 192.786 77.5786 190.724 78.8424C188.662 80.1062 187.597 82.0353 187.597 84.7624C187.597 86.625 188.263 88.2214 189.593 89.4852C190.923 90.7491 193.385 92.0129 196.91 93.1437L206.356 96.137C211.144 97.6669 214.604 99.7951 216.666 102.523C218.727 105.25 219.725 108.376 219.725 111.835C219.725 114.695 219.126 117.29 217.996 119.551C216.799 121.813 215.203 123.808 213.14 125.404C211.078 127.068 208.616 128.265 205.757 129.13C202.763 130.061 199.637 130.527 196.245 130.527Z" fill="white"/>
<path fill-rule="evenodd" clip-rule="evenodd" d="M208.817 162.854C186.932 179.018 155.137 187.599 127.798 187.599C89.4836 187.599 54.961 173.43 28.886 149.883C26.824 148.021 28.6865 145.493 31.1476 146.956C59.3511 163.32 94.1399 173.231 130.126 173.231C154.405 173.231 181.079 168.176 205.624 157.799C209.282 156.136 212.408 160.193 208.817 162.854Z" fill="#FF9900"/>
<path fill-rule="evenodd" clip-rule="evenodd" d="M217.93 152.478C215.136 148.885 199.438 150.748 192.32 151.612C190.192 151.879 189.859 150.016 191.788 148.62C204.293 139.839 224.847 142.367 227.243 145.293C229.637 148.287 226.577 168.841 214.87 178.686C213.073 180.216 211.345 179.417 212.142 177.422C214.803 170.837 220.723 156.002 217.93 152.478Z" fill="#FF9900"/>
</svg>
