<svg width="256" height="256" viewBox="0 0 256 256" fill="none" xmlns="http://www.w3.org/2000/svg">
<path d="M88.7187 113.093C88.7187 115.308 88.9582 117.103 89.3772 118.421C89.8561 119.738 90.4548 121.174 91.2929 122.731C91.5922 123.21 91.712 123.689 91.712 124.108C91.712 124.707 91.3528 125.306 90.5745 125.903L86.803 128.419C86.2642 128.777 85.7254 128.957 85.2465 128.957C84.6478 128.957 84.0492 128.658 83.4505 128.119C82.6123 127.221 81.8939 126.263 81.2953 125.306C80.6967 124.287 80.098 123.15 79.4395 121.773C74.7699 127.281 68.903 130.035 61.8388 130.035C56.8101 130.035 52.7991 128.598 49.8656 125.724C46.9322 122.851 45.4355 119.02 45.4355 114.23C45.4355 109.141 47.2315 105.011 50.8833 101.898C54.5352 98.7845 59.3843 97.228 65.5505 97.228C67.586 97.228 69.6813 97.4077 71.8963 97.707C74.1114 98.0063 76.3863 98.4852 78.7809 99.024V94.6538C78.7809 90.104 77.8231 86.9311 75.9672 85.0753C74.0515 83.2194 70.8187 82.3214 66.209 82.3214C64.1138 82.3214 61.9585 82.5609 59.7435 83.0996C57.5284 83.6384 55.3733 84.297 53.278 85.1351C52.3201 85.5542 51.6017 85.7936 51.1826 85.9134C50.7636 86.0331 50.4643 86.093 50.2248 86.093C49.3867 86.093 48.9676 85.4943 48.9676 84.2371V81.3037C48.9676 80.3458 49.0873 79.6274 49.3867 79.2084C49.686 78.7893 50.2248 78.3702 51.063 77.9512C53.1582 76.8736 55.6726 75.9756 58.606 75.2572C61.5395 74.4789 64.6525 74.1198 67.9452 74.1198C75.0692 74.1198 80.2776 75.7361 83.63 78.9689C86.9228 82.2017 88.599 87.1107 88.599 93.6959V113.093H88.7187ZM64.413 122.193C66.3887 122.193 68.4241 121.833 70.5792 121.114C72.7345 120.396 74.6501 119.079 76.2665 117.283C77.2244 116.146 77.9428 114.888 78.302 113.452C78.6612 112.015 78.9007 110.278 78.9007 108.244V105.729C77.1646 105.31 75.3087 104.951 73.3929 104.711C71.4773 104.472 69.6214 104.352 67.7655 104.352C63.7545 104.352 60.821 105.131 58.8455 106.747C56.8699 108.363 55.9121 110.638 55.9121 113.632C55.9121 116.445 56.6305 118.54 58.1271 119.977C59.5639 121.474 61.6592 122.193 64.413 122.193ZM112.485 128.658C111.408 128.658 110.689 128.478 110.21 128.059C109.732 127.7 109.312 126.862 108.954 125.724L94.8849 79.4478C94.5257 78.2505 94.3462 77.4722 94.3462 77.0532C94.3462 76.0953 94.8251 75.5565 95.7829 75.5565H101.65C102.787 75.5565 103.566 75.7361 103.985 76.1552C104.463 76.5144 104.823 77.3525 105.182 78.4899L115.239 118.121L124.579 78.4899C124.878 77.2926 125.237 76.5144 125.716 76.1552C126.195 75.796 127.033 75.5565 128.11 75.5565H132.9C134.037 75.5565 134.816 75.7361 135.295 76.1552C135.773 76.5144 136.193 77.3525 136.432 78.4899L145.891 118.6L156.247 78.4899C156.607 77.2926 157.026 76.5144 157.445 76.1552C157.924 75.796 158.703 75.5565 159.78 75.5565H165.347C166.305 75.5565 166.844 76.0354 166.844 77.0532C166.844 77.3525 166.784 77.6519 166.724 78.011C166.665 78.3702 166.545 78.8491 166.305 79.5077L151.878 125.784C151.518 126.982 151.099 127.76 150.62 128.119C150.142 128.478 149.363 128.718 148.345 128.718H143.197C142.059 128.718 141.281 128.538 140.803 128.119C140.323 127.7 139.904 126.922 139.665 125.724L130.385 87.1107L121.166 125.664C120.867 126.862 120.508 127.64 120.029 128.059C119.549 128.478 118.711 128.658 117.634 128.658H112.485ZM189.414 130.274C186.301 130.274 183.188 129.915 180.194 129.197C177.201 128.478 174.866 127.7 173.309 126.802C172.352 126.263 171.693 125.664 171.454 125.125C171.215 124.587 171.094 123.988 171.094 123.449V120.396C171.094 119.139 171.573 118.54 172.471 118.54C172.831 118.54 173.19 118.6 173.549 118.72C173.908 118.839 174.447 119.079 175.045 119.319C177.081 120.216 179.296 120.935 181.631 121.414C184.026 121.893 186.36 122.133 188.755 122.133C192.527 122.133 195.46 121.474 197.495 120.157C199.531 118.839 200.608 116.924 200.608 114.47C200.608 112.794 200.069 111.416 198.992 110.278C197.915 109.141 195.879 108.124 192.945 107.165L184.265 104.472C179.895 103.095 176.662 101.059 174.686 98.3655C172.71 95.7314 171.693 92.798 171.693 89.6849C171.693 87.1706 172.232 84.9555 173.309 83.0398C174.387 81.124 175.823 79.4478 177.62 78.1308C179.416 76.7538 181.452 75.7361 183.846 75.0177C186.241 74.2993 188.755 74 191.389 74C192.706 74 194.083 74.0599 195.4 74.2395C196.777 74.419 198.034 74.6585 199.291 74.898C200.489 75.1973 201.626 75.4966 202.704 75.8559C203.781 76.215 204.619 76.5742 205.218 76.9335C206.056 77.4124 206.655 77.8913 207.014 78.4301C207.373 78.909 207.553 79.5675 207.553 80.4057V83.2194C207.553 84.4766 207.074 85.1351 206.176 85.1351C205.697 85.1351 204.919 84.8957 203.901 84.4167C200.489 82.8601 196.657 82.0819 192.407 82.0819C188.994 82.0819 186.301 82.6207 184.444 83.7582C182.589 84.8956 181.631 86.6318 181.631 89.0862C181.631 90.7626 182.23 92.1993 183.427 93.3368C184.624 94.4742 186.84 95.6117 190.013 96.6294L198.513 99.3233C202.823 100.7 205.937 102.616 207.792 105.071C209.648 107.525 210.546 110.339 210.546 113.452C210.546 116.026 210.007 118.361 208.99 120.396C207.912 122.432 206.476 124.227 204.619 125.664C202.764 127.161 200.548 128.238 197.975 129.017C195.28 129.855 192.467 130.274 189.414 130.274Z" fill="#252F3E"/>
<path fill-rule="evenodd" clip-rule="evenodd" d="M200.728 159.369C181.031 173.917 152.416 181.64 127.81 181.64C93.3276 181.64 62.2571 168.887 38.7896 147.695C36.9338 146.019 38.61 143.744 40.8251 145.061C66.2083 159.788 97.5182 168.708 129.906 168.708C151.757 168.708 175.764 164.158 197.854 154.819C201.146 153.322 203.96 156.974 200.728 159.369Z" fill="#FF9900"/>
<path fill-rule="evenodd" clip-rule="evenodd" d="M208.929 150.03C206.414 146.797 192.286 148.473 185.88 149.251C183.965 149.492 183.665 147.815 185.401 146.558C196.656 138.656 215.155 140.931 217.31 143.564C219.465 146.258 216.711 164.757 206.175 173.617C204.558 174.994 203.002 174.275 203.72 172.48C206.115 166.553 211.443 153.202 208.929 150.03Z" fill="#FF9900"/>
</svg>
