<svg width="256" height="256" viewBox="0 0 256 256" fill="none" xmlns="http://www.w3.org/2000/svg">
<path d="M196 0H60C26.8629 0 0 26.8629 0 60V196C0 229.137 26.8629 256 60 256H196C229.137 256 256 229.137 256 196V60C256 26.8629 229.137 0 196 0Z" fill="url(#paint0_linear_30_283)"/>
<path fill-rule="evenodd" clip-rule="evenodd" d="M139.254 48.1687L139.35 58.3375L158.13 58.5174L176.912 58.6974L174.79 62.117C173.623 63.9978 172.357 66.0225 171.976 66.6164C171.596 67.2104 169.836 70.045 168.067 72.9156C166.298 75.7863 163.162 80.8432 161.098 84.1534C159.036 87.4637 157.184 90.4603 156.983 90.8126C156.782 91.1649 156.357 91.8583 156.036 92.3532C155.716 92.8481 154.358 95.0349 153.018 97.2126C149.483 102.959 142.457 114.283 141.518 115.75C139.955 118.188 139.17 119.619 139.17 120.024C139.17 120.327 149.318 120.409 178.495 120.342L217.82 120.25V109.991V99.7323L197.025 99.6391L176.23 99.5465L176.833 98.3793C177.165 97.7377 177.72 96.8077 178.067 96.3127C178.414 95.8178 180.033 93.2261 181.664 90.5534C183.297 87.8808 184.995 85.1271 185.439 84.4342C185.884 83.7413 187.739 80.7447 189.564 77.775C191.387 74.8054 193.249 71.8088 193.699 71.1159C194.15 70.423 195.612 68.0742 196.947 65.8965C198.282 63.7188 199.74 61.3701 200.189 60.6772C200.636 59.9843 202.341 57.2306 203.978 54.5579C205.614 51.8853 207.475 48.8886 208.112 47.8988C210.298 44.5044 214.04 38.3726 214.04 38.1863C214.04 38.0837 197.192 38 176.6 38H139.158L139.254 48.1687ZM77.0979 45.2891C75.7458 47.9123 73.6301 52.0023 72.3964 54.378C71.1631 56.7537 68.6529 61.6131 66.818 65.1766C64.9831 68.7402 62.391 73.7615 61.0569 76.3352C55.4853 87.0853 53.2396 91.4268 44.813 107.741C43.2027 110.859 41.2625 114.564 40.5021 115.974C39.7417 117.384 38.9579 118.964 38.76 119.484L38.4004 120.43L53.4196 120.429L68.4387 120.428L70.6934 116.019C77.9262 101.876 81.137 95.7998 81.4286 95.7071C81.609 95.6495 82.324 96.611 83.0169 97.8439C85.2315 101.784 86.4864 103.993 87.8727 106.391C88.6164 107.678 89.6095 109.41 90.0792 110.238C90.5489 111.066 92.0522 113.658 93.4196 115.997L95.906 120.25L111.401 120.343L126.896 120.437L125.61 118.184C124.902 116.944 124 115.363 123.605 114.67C123.21 113.978 121.062 110.252 118.832 106.391C116.601 102.531 114.326 98.5624 113.775 97.5726C113.225 96.5827 111.776 94.072 110.556 91.9933C108.437 88.3838 105.989 84.1174 104.257 81.0146C103.814 80.2227 101.014 75.3633 98.0333 70.216C95.0524 65.0686 92.1683 60.0472 91.6243 59.0574C91.0799 58.0675 88.7991 54.0967 86.5557 50.2331C84.3123 46.3699 82.1566 42.6038 81.7651 41.8641C80.4891 39.4533 79.8736 39.9046 77.0979 45.2891ZM38.1021 160.29L38.2038 186.481L39.2171 189.361C43.721 202.165 52.9255 212 65.0029 216.916L67.6135 217.978L81.1645 217.972C96.2938 217.967 95.528 218.071 101.019 215.256C114.796 208.193 123.519 195.391 125.111 179.898C125.512 175.993 125.656 136.396 125.273 135.397C125.079 134.891 123.474 134.828 110.894 134.828H96.7352L96.6088 157.055C96.4684 181.666 96.5867 180.403 94.0428 184.424C87.982 194.005 72.854 193.196 67.694 183.013C66.0886 179.845 65.9969 178.548 65.7728 155.885L65.5591 134.288L51.7795 134.193L38 134.099L38.1021 160.29ZM139.049 135.068C138.918 135.2 138.81 153.908 138.81 176.642V217.978H178.405H218V206.102V194.225L190.373 194.133L162.747 194.04L162.654 164.434L162.562 134.828H150.926C144.526 134.828 139.182 134.936 139.049 135.068Z" fill="white"/>
<defs>
<linearGradient id="paint0_linear_30_283" x1="0" y1="0" x2="256" y2="266" gradientUnits="userSpaceOnUse">
<stop stop-color="#014C8E"/>
<stop offset="1" stop-color="#013B70"/>
</linearGradient>
</defs>
</svg>
