<svg width="256" height="256" viewBox="0 0 256 256" fill="none" xmlns="http://www.w3.org/2000/svg">
<path d="M97.9988 43.0021H151.262L95.9696 206.828C95.4013 208.511 94.3194 209.975 92.8761 211.011C91.4329 212.047 89.701 212.604 87.9243 212.605H46.4722C45.126 212.605 43.7991 212.285 42.6013 211.67C41.4035 211.056 40.3691 210.165 39.584 209.072C38.7987 207.978 38.2852 206.714 38.0858 205.382C37.8863 204.051 38.0067 202.691 38.437 201.416L89.9514 48.7788C90.5195 47.0947 91.6016 45.6312 93.0452 44.5945C94.4889 43.5578 96.2215 43.0001 97.9988 43V43.0021Z" fill="url(#paint0_linear_36_1661)"/>
<path d="M175.398 152.885H90.935C90.1497 152.884 89.3824 153.12 88.733 153.562C88.0836 154.003 87.5822 154.63 87.2941 155.36C87.006 156.091 86.9446 156.891 87.1178 157.657C87.2911 158.423 87.691 159.12 88.2655 159.654L142.54 210.312C144.119 211.786 146.2 212.605 148.361 212.605H196.188L175.398 152.885Z" fill="#0078D4"/>
<path d="M97.9978 43.002C96.2011 42.9951 94.4491 43.5629 92.9981 44.6225C91.5469 45.6819 90.4726 47.1777 89.932 48.8912L38.4994 201.276C38.0401 202.557 37.8959 203.928 38.0791 205.277C38.2621 206.624 38.7671 207.908 39.5513 209.019C40.3356 210.13 41.3758 211.037 42.5842 211.66C43.7926 212.285 45.1335 212.609 46.4936 212.605H89.0156C90.5993 212.322 92.0795 211.623 93.305 210.581C94.5306 209.539 95.4575 208.191 95.9911 206.672L106.248 176.445L142.885 210.616C144.42 211.886 146.346 212.589 148.338 212.605H195.986L175.088 152.886L114.168 152.9L151.454 43.002H97.9978Z" fill="url(#paint1_linear_36_1661)"/>
<path d="M166.029 48.7706C165.462 47.0891 164.382 45.6281 162.94 44.5931C161.498 43.5583 159.769 43.0018 157.994 43.002H98.6328C100.407 43.002 102.137 43.5587 103.578 44.5936C105.02 45.6284 106.101 47.0893 106.668 48.7706L158.185 201.414C158.615 202.689 158.735 204.049 158.536 205.381C158.338 206.713 157.824 207.977 157.039 209.072C156.253 210.165 155.219 211.056 154.021 211.671C152.823 212.286 151.496 212.607 150.149 212.607H209.512C210.859 212.606 212.186 212.286 213.383 211.671C214.581 211.055 215.615 210.164 216.401 209.071C217.186 207.977 217.699 206.712 217.897 205.38C218.097 204.049 217.977 202.689 217.546 201.414L166.029 48.7706Z" fill="url(#paint2_linear_36_1661)"/>
<defs>
<linearGradient id="paint0_linear_36_1661" x1="117.411" y1="55.5703" x2="62.0968" y2="218.985" gradientUnits="userSpaceOnUse">
<stop stop-color="#114A8B"/>
<stop offset="1" stop-color="#0669BC"/>
</linearGradient>
<linearGradient id="paint1_linear_36_1661" x1="134.69" y1="131.726" x2="121.895" y2="136.052" gradientUnits="userSpaceOnUse">
<stop stop-opacity="0.3"/>
<stop offset="0.071" stop-opacity="0.2"/>
<stop offset="0.321" stop-opacity="0.1"/>
<stop offset="0.623" stop-opacity="0.05"/>
<stop offset="1" stop-opacity="0"/>
</linearGradient>
<linearGradient id="paint2_linear_36_1661" x1="127.654" y1="50.8038" x2="188.373" y2="212.572" gradientUnits="userSpaceOnUse">
<stop stop-color="#3CCBF4"/>
<stop offset="1" stop-color="#2892DF"/>
</linearGradient>
</defs>
</svg>
