<svg width="256" height="256" viewBox="0 0 256 256" fill="none" xmlns="http://www.w3.org/2000/svg">
<path d="M0 56C0 25.0721 25.0721 0 56 0H200C230.928 0 256 25.0721 256 56V200C256 230.928 230.928 256 200 256H56C25.0721 256 0 230.928 0 200V56Z" fill="#22272E"/>
<path d="M94.6742 34.0023H153.856L92.4195 216.032C91.7881 217.902 90.5859 219.528 88.9823 220.679C87.3787 221.831 85.4544 222.45 83.4802 222.451H37.4223C35.9265 222.451 34.4522 222.095 33.1213 221.412C31.7904 220.729 30.6411 219.74 29.7687 218.525C28.8962 217.31 28.3256 215.905 28.104 214.425C27.8824 212.946 28.0162 211.435 28.4943 210.018L85.7326 40.4209C86.3638 38.5497 87.5661 36.9236 89.1702 35.7717C90.7743 34.6198 92.6994 34.0001 94.6742 34V34.0023Z" fill="url(#paint0_linear_23_49)"/>
<path d="M180.675 156.095H86.8268C85.9543 156.094 85.1017 156.356 84.3802 156.847C83.6586 157.337 83.1015 158.034 82.7814 158.845C82.4613 159.657 82.393 160.546 82.5855 161.397C82.778 162.248 83.2224 163.022 83.8607 163.616L144.166 219.903C145.921 221.54 148.233 222.451 150.634 222.451H203.775L180.675 156.095Z" fill="#0078D4"/>
<path d="M94.674 34.0023C92.6776 33.9946 90.731 34.6255 89.1187 35.8028C87.5063 36.98 86.3126 38.642 85.712 40.5459L28.5644 209.863C28.0541 211.286 27.8939 212.81 28.0974 214.308C28.3008 215.805 28.8619 217.232 29.7332 218.466C30.6046 219.701 31.7604 220.708 33.1031 221.401C34.4458 222.095 35.9357 222.455 37.4469 222.451H84.6937C86.4534 222.136 88.0981 221.36 89.4598 220.202C90.8215 219.044 91.8514 217.546 92.4443 215.859L103.84 182.273L144.548 220.241C146.254 221.652 148.394 222.433 150.607 222.451H203.55L180.33 156.096L112.641 156.112L154.069 34.0023H94.674Z" fill="url(#paint1_linear_23_49)"/>
<path d="M170.264 40.4118C169.634 38.5435 168.434 36.9201 166.832 35.7702C165.23 34.6204 163.308 34.002 161.336 34.0022H95.3789C97.3505 34.0023 99.2724 34.6208 100.874 35.7707C102.476 36.9205 103.677 38.5437 104.307 40.4118L161.548 210.016C162.026 211.433 162.16 212.944 161.939 214.424C161.718 215.904 161.147 217.309 160.275 218.525C159.402 219.74 158.253 220.73 156.922 221.413C155.591 222.096 154.116 222.453 152.62 222.453H218.579C220.075 222.452 221.55 222.096 222.88 221.413C224.211 220.729 225.36 219.739 226.233 218.524C227.105 217.308 227.675 215.903 227.896 214.423C228.118 212.944 227.984 211.433 227.505 210.016L170.264 40.4118Z" fill="url(#paint2_linear_23_49)"/>
<defs>
<linearGradient id="paint0_linear_23_49" x1="116.244" y1="47.967" x2="54.7829" y2="229.54" gradientUnits="userSpaceOnUse">
<stop stop-color="#114A8B"/>
<stop offset="1" stop-color="#0669BC"/>
</linearGradient>
<linearGradient id="paint1_linear_23_49" x1="135.443" y1="132.585" x2="121.226" y2="137.392" gradientUnits="userSpaceOnUse">
<stop stop-opacity="0.3"/>
<stop offset="0.071" stop-opacity="0.2"/>
<stop offset="0.321" stop-opacity="0.1"/>
<stop offset="0.623" stop-opacity="0.05"/>
<stop offset="1" stop-opacity="0"/>
</linearGradient>
<linearGradient id="paint2_linear_23_49" x1="127.625" y1="42.671" x2="195.091" y2="222.414" gradientUnits="userSpaceOnUse">
<stop stop-color="#3CCBF4"/>
<stop offset="1" stop-color="#2892DF"/>
</linearGradient>
</defs>
</svg>
