<svg width="256" height="256" viewBox="0 0 256 256" fill="none" xmlns="http://www.w3.org/2000/svg">
<path d="M200.662 140.308H163.248C162.067 140.293 160.92 140.707 160.021 141.472C159.121 142.237 158.528 143.302 158.352 144.469C157.322 151.825 153.667 158.56 148.062 163.433C142.456 168.305 135.277 170.987 127.85 170.983L137.983 217.266C174.694 212.466 202.951 182.476 205.562 145.545C205.607 144.873 205.515 144.2 205.29 143.566C205.065 142.932 204.713 142.351 204.255 141.858C203.794 141.369 203.238 140.979 202.621 140.712C202.004 140.445 201.339 140.308 200.666 140.308H200.662ZM135.903 139.135L189.749 92.8516C190.271 92.3931 190.69 91.8284 190.976 91.1952C191.263 90.562 191.411 89.875 191.411 89.18C191.411 88.4849 191.263 87.7979 190.976 87.1647C190.69 86.5316 190.271 85.9668 189.749 85.5083L135.903 39.1469C135.19 38.549 134.322 38.1661 133.4 38.0431C132.478 37.92 131.54 38.0619 130.695 38.4521C129.848 38.8395 129.129 39.4617 128.624 40.2452C128.12 41.0286 127.85 41.9403 127.848 42.8722V135.412C127.852 136.344 128.121 137.255 128.625 138.038C129.129 138.822 129.845 139.446 130.691 139.837C131.536 140.227 132.476 140.369 133.399 140.245C134.322 140.12 135.191 139.735 135.903 139.135Z" fill="#2684FF"/>
<path d="M50.7246 150.421C55.8786 189.088 88.8479 217.971 127.849 218V170.983C110.905 170.983 97.1543 157.257 97.1055 140.308L50.7246 150.421Z" fill="url(#paint0_linear_133_255)"/>
<path d="M49.9922 139.574V140.305H97.1045C97.1533 123.363 110.904 109.642 127.848 109.642L117.742 63.3564C79.3338 68.3666 50.4578 100.853 49.9922 139.574Z" fill="url(#paint1_linear_133_255)"/>
<defs>
<linearGradient id="paint0_linear_133_255" x1="89.2853" y1="63.9355" x2="89.2853" y2="169.986" gradientUnits="userSpaceOnUse">
<stop stop-color="#0052CC"/>
<stop offset="1" stop-color="#2684FF"/>
</linearGradient>
<linearGradient id="paint1_linear_133_255" x1="88.9196" y1="63.972" x2="88.9196" y2="170.009" gradientUnits="userSpaceOnUse">
<stop stop-color="#0052CC"/>
<stop offset="1" stop-color="#2684FF"/>
</linearGradient>
</defs>
</svg>
