<svg width="256" height="256" viewBox="0 0 256 256" fill="none" xmlns="http://www.w3.org/2000/svg">
<path fill-rule="evenodd" clip-rule="evenodd" d="M123.924 41.0092C126.724 39.4387 130.17 39.4387 132.965 41.0092C146.795 48.7715 188.414 72.1367 202.248 79.899C205.047 81.4654 206.77 84.3675 206.77 87.5087C206.77 103.033 206.77 149.759 206.77 165.284C206.77 168.425 205.047 171.327 202.248 172.898C188.418 180.66 146.799 204.025 132.965 211.788C130.166 213.358 126.719 213.358 123.924 211.788C110.094 204.025 68.4755 180.66 54.6411 172.898C51.8462 171.327 50.123 168.429 50.123 165.288C50.123 149.764 50.123 103.037 50.123 87.5129C50.123 84.3717 51.8462 81.4696 54.6452 79.899C68.4714 72.1367 110.098 48.7715 123.924 41.0092Z" fill="url(#paint0_linear_36_1655)"/>
<path d="M128.392 218C123.92 218 119.443 216.961 115.345 214.879C106.194 210.234 94.2473 202.929 82.6925 195.863C74.5593 190.892 66.8794 186.192 60.8567 182.849C51.6929 177.754 46 168.087 46 157.612V96.0048C46 85.3281 51.8413 75.5788 61.2484 70.5579C76.6369 62.3586 101.305 48.9818 114.335 41.6606C123.033 36.7798 133.846 36.7798 142.548 41.6606C157.29 49.934 185.292 66.6582 201.299 76.7537C207.305 80.5338 210.892 87.0429 210.892 94.1704V159.377C210.892 169.27 207.351 176.064 200.368 179.555C196.476 181.744 189.534 186.052 181.496 191.044C168.997 198.802 153.439 208.461 142.07 214.562C137.803 216.85 133.096 218 128.392 218ZM118.371 48.8499C105.295 56.1958 80.5531 69.618 65.1274 77.8379C58.4164 81.416 54.2446 88.3744 54.2446 96.0048V157.612C54.2446 165.09 58.3133 171.999 64.8636 175.639C71.0388 179.069 78.7887 183.806 86.9962 188.827C98.415 195.806 110.221 203.028 119.08 207.525C125.09 210.572 132.222 210.481 138.17 207.294C149.313 201.313 164.747 191.733 177.151 184.032C185.272 178.991 192.284 174.638 196.509 172.267C201.967 169.534 202.647 163.948 202.647 159.377V94.1704C202.647 89.8956 200.499 85.9959 196.909 83.7327C180.989 73.695 153.159 57.0739 138.517 48.854C132.21 45.3171 124.678 45.3171 118.371 48.8499Z" fill="#343434"/>
<path d="M124.229 199.173L123.994 143.778C123.949 133.085 129.819 123.245 139.251 118.203L188.76 91.7546C196.996 87.352 206.956 93.321 206.956 102.662V163.384C206.956 167.675 204.73 171.661 201.077 173.912L143.085 209.644C134.865 214.714 124.271 208.828 124.229 199.173Z" fill="#343434"/>
<path d="M148.229 135.773C148.736 135.513 149.157 135.83 149.165 136.498L149.218 141.94C151.494 141.037 153.473 140.794 155.266 141.21C155.657 141.309 155.827 141.841 155.67 142.471L154.47 147.29C154.371 147.657 154.173 148.024 153.926 148.251C153.819 148.354 153.712 148.432 153.609 148.486C153.444 148.568 153.287 148.593 153.139 148.564C152.318 148.379 150.373 147.954 147.314 149.504C144.107 151.132 142.981 153.919 143.002 155.988C143.031 158.466 144.301 159.216 148.678 159.294C154.516 159.389 157.034 161.945 157.096 167.815C157.162 173.595 154.075 179.79 149.363 183.587L149.466 188.979C149.47 189.626 149.054 190.372 148.538 190.628L145.344 192.462C144.836 192.722 144.416 192.405 144.408 191.753L144.354 186.452C141.617 187.59 138.855 187.862 137.087 187.153C136.749 187.021 136.604 186.526 136.74 185.966L137.895 181.097C137.985 180.718 138.187 180.33 138.463 180.083C138.558 179.988 138.661 179.918 138.76 179.865C138.942 179.774 139.119 179.753 139.271 179.811C141.176 180.45 143.612 180.149 145.958 178.962C148.934 177.457 150.929 174.419 150.896 171.402C150.867 168.664 149.387 167.531 145.78 167.502C141.192 167.51 136.913 166.611 136.843 159.855C136.786 154.29 139.679 148.506 144.259 144.846L144.206 139.408C144.202 138.741 144.61 138.007 145.133 137.739L148.229 135.773Z" fill="url(#paint1_linear_36_1655)"/>
<path d="M182.968 171.154L167.699 180.161C167.25 180.413 166.693 180.083 166.693 179.572V174.411C166.693 173.945 166.945 173.516 167.353 173.285L182.622 164.278C183.079 164.027 183.636 164.357 183.636 164.876V170.021C183.636 170.495 183.38 170.923 182.968 171.154Z" fill="#21A366"/>
<defs>
<linearGradient id="paint0_linear_36_1655" x1="176.896" y1="42.4809" x2="75.9739" y2="217.287" gradientUnits="userSpaceOnUse">
<stop stop-color="#F9F9F9"/>
<stop offset="0.26" stop-color="#F0F1F2"/>
<stop offset="0.678" stop-color="#D9DCDF"/>
<stop offset="1" stop-color="#C2C8CC"/>
</linearGradient>
<linearGradient id="paint1_linear_36_1655" x1="162.583" y1="136.91" x2="126.109" y2="200.089" gradientUnits="userSpaceOnUse">
<stop stop-color="#F9F9F9"/>
<stop offset="0.26" stop-color="#F0F1F2"/>
<stop offset="0.678" stop-color="#D9DCDF"/>
<stop offset="1" stop-color="#C2C8CC"/>
</linearGradient>
</defs>
</svg>
