<svg width="256" height="256" viewBox="0 0 256 256" fill="none" xmlns="http://www.w3.org/2000/svg">
<path fill-rule="evenodd" clip-rule="evenodd" d="M195.529 74.7519L138.703 41.0197C131.921 36.9934 123.561 36.9934 116.778 41.0197L59.9518 74.7519C53.1712 78.7782 48.9922 86.2175 48.9922 94.2701V161.735C48.9922 169.785 53.1712 177.228 59.9538 181.255L116.78 214.981C120.171 216.995 123.953 217.999 127.741 217.999C131.528 217.999 135.31 216.995 138.701 214.981L195.527 181.255C202.31 177.228 206.491 169.785 206.491 161.735V94.2701C206.491 86.2175 202.31 78.7782 195.529 74.7519Z" fill="white"/>
<path fill-rule="evenodd" clip-rule="evenodd" d="M118.766 211.527L61.9401 177.801C56.3819 174.501 52.9291 168.345 52.9291 161.734V94.2711C52.9291 87.6592 56.382 81.5037 61.9381 78.2057L118.766 44.4736C121.491 42.8563 124.594 42.001 127.741 42.001C130.887 42.001 133.99 42.8563 136.717 44.4736L193.543 78.2057C198.227 80.9857 201.386 85.7998 202.274 91.1993C200.389 87.177 196.139 86.0836 191.186 88.9768L137.425 122.183C130.722 126.102 125.779 130.499 125.775 138.582V204.826C125.771 209.666 127.726 212.801 130.728 213.71C129.742 213.881 128.747 214 127.741 214C124.594 214 121.491 213.145 118.766 211.527ZM195.529 74.7509L138.703 41.0207C135.312 39.0066 131.526 38.0005 127.741 38.0005C123.956 38.0005 120.17 39.0066 116.778 41.0207L59.9518 74.7509C53.1712 78.7772 48.9922 86.2185 48.9922 94.2711V161.734C48.9922 169.784 53.1712 177.227 59.9538 181.254L116.78 214.981C120.173 216.994 123.956 218 127.741 218C131.528 218 135.31 216.994 138.701 214.981L195.529 181.254C202.312 177.227 206.491 169.784 206.491 161.734V94.2711C206.491 86.2185 202.312 78.7772 195.529 74.7509Z" fill="#242938"/>
<path fill-rule="evenodd" clip-rule="evenodd" d="M180.633 168.256L166.483 176.725C166.108 176.944 165.833 177.189 165.83 177.64V181.343C165.83 181.796 166.134 181.984 166.509 181.763L180.878 173.031C181.252 172.812 181.31 172.393 181.313 171.942V168.676C181.313 168.226 181.008 168.037 180.633 168.256Z" fill="#47B353"/>
<path fill-rule="evenodd" clip-rule="evenodd" d="M150.502 137.088C150.96 136.856 151.337 137.142 151.343 137.741L151.391 142.636C153.44 141.821 155.22 141.603 156.833 141.975C157.183 142.069 157.338 142.545 157.195 143.11L156.118 147.448C156.034 147.776 155.849 148.107 155.627 148.313C155.534 148.405 155.438 148.476 155.344 148.524C155.199 148.598 155.056 148.621 154.919 148.593C154.183 148.427 152.432 148.044 149.678 149.439C146.789 150.902 145.779 153.412 145.798 155.275C145.823 157.499 146.964 158.173 150.904 158.241C156.155 158.328 158.423 160.622 158.478 165.911C158.532 171.104 155.76 176.68 151.52 180.097L151.613 184.943C151.619 185.526 151.24 186.195 150.782 186.427L147.912 188.08C147.452 188.313 147.075 188.026 147.068 187.443L147.019 182.677C144.561 183.698 142.07 183.945 140.478 183.306C140.179 183.189 140.05 182.746 140.169 182.242L141.209 177.861C141.292 177.515 141.475 177.17 141.723 176.95C141.81 176.865 141.901 176.799 141.992 176.753C142.157 176.67 142.318 176.652 142.455 176.703C144.169 177.281 146.363 177.011 148.471 175.944C151.151 174.588 152.943 171.856 152.915 169.142C152.889 166.678 151.556 165.655 148.313 165.631C144.186 165.643 140.338 164.829 140.274 158.753C140.223 153.751 142.824 148.545 146.941 145.254L146.89 140.363C146.884 139.761 147.251 139.1 147.723 138.862L150.502 137.088Z" fill="white"/>
</svg>
