<svg width="256" height="256" viewBox="0 0 256 256" fill="none" xmlns="http://www.w3.org/2000/svg">
<path d="M0 56C0 25.0721 25.0721 0 56 0H200.001C230.928 0 256.001 25.0721 256.001 56V200C256.001 230.928 230.928 256 200.001 256H56C25.0721 256 0 230.928 0 200V56Z" fill="#F8FAFC"/>
<path d="M200.776 122.313C200.759 122.313 200.743 122.313 200.726 122.313C199.682 125.521 198.874 129.005 198.721 132.974C198.432 140.428 199.203 144.964 198.329 149.792C197.456 154.62 194.873 159.372 188.303 166.825C180.482 175.696 168.089 182.56 153.774 184.88C151.109 186.551 148.297 188.082 145.338 189.443C156.481 193.563 168.134 193.786 177.371 190.81C193.645 185.566 192.385 181.799 199.677 170.827C201.975 167.37 204.627 164.732 207.291 162.564C214.88 165.814 222.355 167.9 227.012 167.383C229.516 161.683 226.951 155.072 222.689 148.824C226.185 138.16 220.88 127.483 209.13 123.707C206.065 122.723 203.311 122.26 200.776 122.308V122.313ZM209.59 137.969C210.236 137.956 210.875 138.079 211.463 138.332C212.05 138.584 212.573 138.958 212.995 139.43C213.38 139.86 213.674 140.36 213.859 140.905C214.044 141.45 214.117 142.027 214.073 142.603C214.03 143.179 213.871 143.744 213.607 144.264C213.342 144.784 212.976 145.25 212.529 145.635C211.629 146.413 210.456 146.814 209.27 146.75C208.084 146.685 206.981 146.162 206.203 145.294C205.818 144.864 205.525 144.363 205.34 143.818C205.155 143.274 205.082 142.696 205.126 142.121C205.169 141.545 205.327 140.98 205.592 140.46C205.857 139.939 206.223 139.474 206.669 139.089C207.481 138.388 208.518 137.991 209.59 137.969ZM136.766 185.427C136.901 185.506 137.04 185.575 137.176 185.652C137.315 185.601 137.457 185.547 137.596 185.495C137.319 185.471 137.043 185.454 136.766 185.427Z" fill="#ECECEC"/>
<path d="M142.322 56.0004C135.96 55.9638 129.437 58.456 123.831 63.8012C116.468 70.8215 114.181 77.1413 115.472 85.0261L115.826 87.1893L113.625 86.838C97.4487 84.2643 77.4282 85.5644 54.65 94.6122C61.3459 97.4305 73.636 102.134 87.2744 108.566L91.5992 110.606L86.8979 111.541C68.8887 115.126 47.5187 125.479 28 148.076C36.7317 147.41 54.5771 145.348 73.189 145.376C83.5351 145.392 93.7313 146.094 102.038 148.209C110.345 150.324 117.894 155.164 118.958 158.709C120.022 162.256 119.418 164.123 118.37 166.897C117.322 169.671 114.1 173.885 109.642 176.667C105.184 179.449 99.5273 181.88 93.6506 183.947C81.8972 188.08 69.3882 190.721 63.8657 191.225C62.6919 191.332 62.2233 191.746 61.7709 192.552C61.3186 193.358 61.0691 194.626 61.0324 195.952C60.9834 197.721 61.2635 198.645 61.7725 199.346C62.2815 200.047 63.0765 200.327 63.8956 200.382C98.5984 202.688 124.546 194.116 143.392 186.774C165.067 177.015 178.766 157.744 181.74 140.394C183.604 129.522 183.204 124.194 181.407 119.657C179.61 115.119 176.165 111.09 171.794 103.395C168.987 98.4508 167.42 93.5993 166.449 89.0808L166.243 88.1289L167.017 87.5202C175.047 81.1986 181.587 74.2964 183.962 69.2714C179.09 64.1836 170.672 63.1084 161.253 64.0974L160.479 64.1768L159.934 63.6315C154.915 58.6108 148.685 56.0375 142.322 56.0004ZM145.143 67.7476C147.905 67.7046 150.341 69.5846 151.003 72.2679C151.781 75.428 149.851 78.5978 146.693 79.3476C143.534 80.0981 140.342 78.1448 139.564 74.9846C138.785 71.8246 140.715 68.6548 143.874 67.9049C144.29 67.8066 144.715 67.7537 145.143 67.7476Z" fill="#787878"/>
<path d="M184.657 81.5079C182.622 81.467 180.491 81.6773 178.289 82.1697C178.141 82.2032 178.011 82.2438 177.865 82.2779C175.443 84.629 172.739 86.9891 169.845 89.3025C170.777 93.3391 172.16 97.5467 174.607 101.854C178.854 109.332 182.355 113.322 184.409 118.51C186.464 123.697 186.821 129.799 184.915 140.916C182.552 154.697 174.008 169.292 160.461 180.065C170.976 177.054 179.938 171.498 185.872 164.768C192.276 157.503 194.413 153.393 195.162 149.252C195.911 145.111 195.209 140.571 195.507 132.87C195.7 127.908 196.776 123.567 198.145 119.75L198.474 118.835L199.456 118.708C208.22 117.592 216.141 115.396 220.235 112.801C218.92 106.994 213.333 102.489 205.934 99.0643L205.228 98.7375L205.052 97.9919C202.705 88.0969 194.837 81.7155 184.657 81.5079ZM189.751 93.7289C190.275 93.7284 190.795 93.8077 191.293 93.9638C192.59 94.3712 193.667 95.2773 194.286 96.4831C194.904 97.689 195.015 99.0959 194.592 100.394C194.383 101.037 194.049 101.634 193.61 102.15C193.171 102.668 192.635 103.094 192.033 103.406C191.43 103.718 190.774 103.91 190.1 103.97C189.426 104.028 188.748 103.956 188.106 103.754C186.808 103.347 185.732 102.441 185.113 101.235C184.494 100.029 184.384 98.6221 184.807 97.3239C185.146 96.2823 185.808 95.3721 186.697 94.7255C187.587 94.0789 188.656 93.7298 189.751 93.7289Z" fill="#B2B2B2"/>
</svg>
