<svg width="256" height="256" viewBox="0 0 256 256" fill="none" xmlns="http://www.w3.org/2000/svg">
<path d="M191.133 97.3299C177.48 87.3642 139.209 55.3835 139.209 55.3835C134.957 51.7889 128.602 52.3209 125.012 56.5683C121.413 60.8157 121.945 67.1708 126.193 70.7654L148.058 89.2703H72.2535C66.6883 89.2703 62.1789 93.7797 62.1789 99.3448C62.1789 104.91 66.6883 109.419 72.2535 109.419H107.664L41.9412 159.861C37.5285 163.25 36.6944 169.573 40.0834 173.985C42.0661 176.572 45.0562 177.926 48.0826 177.926C50.2225 177.926 52.3784 177.249 54.212 175.843L94.4941 144.926C94.482 145.394 94.4175 145.841 94.4175 146.308C94.4175 177.809 120.74 202.105 154.865 202.105C188.989 202.105 218 177.809 218 146.308C218 126.647 206.753 108.734 191.133 97.3299Z" fill="url(#paint0_linear_36_1645)"/>
<path d="M156.881 177.926C178.58 177.926 196.171 161.689 196.171 141.658C196.171 121.628 178.58 105.39 156.881 105.39C135.181 105.39 117.59 121.628 117.59 141.658C117.59 161.689 135.181 177.926 156.881 177.926Z" fill="white"/>
<path opacity="0.07" d="M156.88 105.39C178.58 105.39 196.171 121.626 196.171 141.658C196.171 161.69 178.58 177.926 156.88 177.926C135.179 177.926 117.589 161.69 117.589 141.658C117.589 121.626 135.179 105.39 156.88 105.39ZM156.88 103.375C134.103 103.375 115.574 120.55 115.574 141.658C115.574 162.766 134.103 179.941 156.88 179.941C179.656 179.941 198.186 162.766 198.186 141.658C198.186 120.55 179.656 103.375 156.88 103.375Z" fill="black"/>
<path opacity="0.05" d="M156.879 103.375C179.656 103.375 198.185 120.55 198.185 141.658C198.185 162.766 179.656 179.941 156.879 179.941C134.103 179.941 115.574 162.766 115.574 141.658C115.574 120.55 134.103 103.375 156.879 103.375ZM156.879 101.36C132.99 101.36 113.559 119.438 113.559 141.658C113.559 163.878 132.99 181.956 156.879 181.956C180.768 181.956 200.2 163.878 200.2 141.658C200.2 119.438 180.768 101.36 156.879 101.36Z" fill="black"/>
<path d="M156.879 161.807C169.12 161.807 179.043 152.786 179.043 141.658C179.043 130.53 169.12 121.509 156.879 121.509C144.638 121.509 134.715 130.53 134.715 141.658C134.715 152.786 144.638 161.807 156.879 161.807Z" fill="#0370C8"/>
<path opacity="0.05" d="M156.879 119.494C170.21 119.494 181.058 129.435 181.058 141.658C181.058 153.88 170.21 163.822 156.879 163.822C143.549 163.822 132.7 153.88 132.7 141.658C132.7 129.435 143.549 119.494 156.879 119.494ZM156.879 117.479C142.437 117.479 130.686 128.327 130.686 141.658C130.686 154.989 142.437 165.837 156.879 165.837C171.322 165.837 183.073 154.989 183.073 141.658C183.073 128.327 171.322 117.479 156.879 117.479Z" fill="black"/>
<path opacity="0.07" d="M156.88 121.509C169.123 121.509 179.044 130.532 179.044 141.658C179.044 152.784 169.123 161.807 156.88 161.807C144.637 161.807 134.716 152.784 134.716 141.658C134.716 130.532 144.637 121.509 156.88 121.509ZM156.88 119.494C143.549 119.494 132.701 129.435 132.701 141.658C132.701 153.88 143.549 163.822 156.88 163.822C170.211 163.822 181.059 153.88 181.059 141.658C181.059 129.435 170.211 119.494 156.88 119.494Z" fill="black"/>
<defs>
<linearGradient id="paint0_linear_36_1645" x1="38" y1="127.554" x2="218" y2="127.554" gradientUnits="userSpaceOnUse">
<stop stop-color="#FFA402"/>
<stop offset="1" stop-color="#FF8800"/>
</linearGradient>
</defs>
</svg>
