<svg width="256" height="256" viewBox="0 0 256 256" fill="none" xmlns="http://www.w3.org/2000/svg">
<path d="M108.761 136.553C109.418 124.797 115.147 114.439 123.791 107.096C132.268 99.884 143.678 95.4761 156.127 95.4761C168.564 95.4761 179.974 99.884 188.457 107.096C197.095 114.439 202.824 124.797 203.487 136.541C204.142 148.621 199.31 159.843 190.833 168.161C182.189 176.623 169.895 181.933 156.127 181.933C142.36 181.933 130.041 176.623 121.403 168.161C112.919 159.843 108.1 148.621 108.761 136.553Z" fill="white"/>
<path d="M131.828 137.609C132.164 131.576 135.104 126.261 139.539 122.494C143.889 118.793 149.743 116.531 156.131 116.531C162.513 116.531 168.367 118.793 172.719 122.494C177.152 126.261 180.092 131.576 180.431 137.602C180.768 143.8 178.288 149.558 173.939 153.827C169.503 158.169 163.195 160.893 156.131 160.893C149.067 160.893 142.746 158.169 138.313 153.827C133.961 149.558 131.488 143.8 131.828 137.609Z" fill="#265787"/>
<path d="M93.1247 149.798C93.166 152.159 93.9152 156.746 95.0391 160.329C97.4013 167.912 101.408 174.927 106.983 181.109C112.704 187.464 119.749 192.568 127.886 196.192C136.439 199.997 145.706 201.937 155.333 201.921C164.943 201.908 174.21 199.931 182.763 196.096C190.901 192.437 197.939 187.311 203.651 180.953C209.223 174.744 213.223 167.717 215.591 160.134C216.782 156.302 217.534 152.414 217.836 148.512C218.131 144.669 218.008 140.818 217.465 136.971C216.404 129.474 213.823 122.439 209.848 116.028C206.213 110.136 201.527 104.977 195.955 100.635L195.968 100.626L139.738 57.2434C139.687 57.2051 139.646 57.1637 139.592 57.1287C135.902 54.283 129.699 54.2926 125.641 57.1446C121.539 60.0284 121.07 64.7976 124.721 67.8059L124.705 67.8218L148.158 86.9848L76.6758 87.0614H76.5806C70.6722 87.0678 64.9924 90.9629 63.8685 95.8853C62.7128 100.9 66.7258 105.06 72.8691 105.082L72.8596 105.104L109.091 105.034L44.4383 154.899C44.3558 154.96 44.2669 155.023 44.1908 155.084C38.0918 159.777 36.1203 167.58 39.9619 172.518C43.8606 177.54 52.1501 177.549 58.3125 172.546L93.5977 143.529C93.5977 143.529 93.0834 147.447 93.1247 149.798ZM183.795 162.916C176.525 170.359 166.347 174.579 155.333 174.601C144.303 174.621 134.124 170.438 126.854 163.008C123.302 159.387 120.692 155.222 119.082 150.784C117.504 146.423 116.892 141.794 117.298 137.123C117.682 132.559 119.035 128.204 121.194 124.265C123.315 120.391 126.235 116.892 129.842 113.932C136.909 108.145 145.906 105.012 155.317 104.999C164.736 104.987 173.727 108.09 180.802 113.858C184.402 116.806 187.32 120.293 189.44 124.159C191.609 128.096 192.951 132.434 193.351 137.012C193.752 141.676 193.139 146.298 191.561 150.663C189.948 155.113 187.347 159.279 183.795 162.916Z" fill="#EA7600"/>
</svg>
