<svg width="256" height="256" viewBox="0 0 256 256" fill="none" xmlns="http://www.w3.org/2000/svg">
<path d="M0 56C0 25.0721 25.0721 0 56 0H200C230.928 0 256 25.0721 256 56V200C256 230.928 230.928 256 200 256H56C25.0721 256 0 230.928 0 200V56Z" fill="#0F172A"/>
<path d="M106.633 136.615C107.363 123.552 113.729 112.043 123.333 103.884C132.752 95.8711 145.43 90.9734 159.262 90.9734C173.081 90.9734 185.759 95.8711 195.184 103.884C204.782 112.043 211.148 123.552 211.884 136.601C212.612 150.023 207.243 162.492 197.824 171.735C188.22 181.137 174.559 187.037 159.262 187.037C143.965 187.037 130.277 181.137 120.68 171.735C111.253 162.492 105.898 150.023 106.633 136.615Z" fill="white"/>
<path d="M132.259 137.787C132.633 131.085 135.899 125.179 140.827 120.993C145.66 116.881 152.165 114.368 159.263 114.368C166.353 114.368 172.858 116.881 177.694 120.993C182.619 125.179 185.886 131.085 186.263 137.78C186.637 144.667 183.882 151.065 179.049 155.808C174.12 160.632 167.112 163.659 159.263 163.659C151.414 163.659 144.39 160.632 139.465 155.808C134.63 151.065 131.882 144.667 132.259 137.787Z" fill="#265787"/>
<path d="M89.2583 151.331C89.3043 153.954 90.1367 159.051 91.3855 163.032C94.0101 171.457 98.4618 179.252 104.656 186.121C111.013 193.182 118.841 198.854 127.882 202.88C137.386 207.108 147.683 209.263 158.378 209.246C169.057 209.231 179.353 207.034 188.857 202.773C197.898 198.708 205.719 193.012 212.065 185.948C218.256 179.049 222.701 171.241 225.332 162.816C226.656 158.558 227.491 154.237 227.826 149.903C228.155 145.632 228.017 141.353 227.414 137.079C226.236 128.749 223.367 120.933 218.951 113.808C214.912 107.262 209.705 101.53 203.514 96.7059L203.528 96.6952L141.05 48.4927C140.994 48.4502 140.949 48.4041 140.889 48.3652C136.789 45.2034 129.896 45.214 125.388 48.3829C120.83 51.5871 120.309 56.8863 124.365 60.2288L124.347 60.2465L150.406 81.5387L70.9818 81.6238H70.876C64.3112 81.6309 58.0002 85.9588 56.7514 91.4281C55.4674 97.0001 59.9262 101.622 66.7522 101.647L66.7416 101.672L106.998 101.594L35.1624 156.999C35.0707 157.067 34.9719 157.137 34.8873 157.205C28.1107 162.419 25.9201 171.088 30.1885 176.575C34.5204 182.155 43.731 182.166 50.5781 176.607L89.7839 144.366C89.7839 144.366 89.2125 148.719 89.2583 151.331ZM190.003 165.907C181.926 174.176 170.616 178.866 158.378 178.89C146.123 178.912 134.814 174.265 126.736 166.009C122.789 161.986 119.888 157.357 118.1 152.427C116.347 147.581 115.666 142.438 116.118 137.248C116.544 132.176 118.047 127.338 120.446 122.961C122.803 118.657 126.048 114.769 130.055 111.48C137.908 105.05 147.905 101.569 158.361 101.555C168.827 101.541 178.817 104.989 186.677 111.398C190.677 114.673 193.919 118.548 196.276 122.843C198.685 127.218 200.177 132.038 200.621 137.125C201.066 142.307 200.385 147.443 198.632 152.292C196.84 157.237 193.95 161.865 190.003 165.907Z" fill="#EA7600"/>
</svg>
