<svg width="256" height="256" viewBox="0 0 256 256" fill="none" xmlns="http://www.w3.org/2000/svg">
<g clip-path="url(#clip0_30_681)">
<path d="M196 0H60C26.8629 0 0 26.8629 0 60V196C0 229.137 26.8629 256 60 256H196C229.137 256 256 229.137 256 196V60C256 26.8629 229.137 0 196 0Z" fill="url(#paint0_linear_30_681)"/>
<g filter="url(#filter0_d_30_681)">
<path d="M133.993 218C173.224 218 196.866 198.79 196.866 167.107C196.866 143.156 179.998 125.818 154.95 123.072V122.075C173.353 119.081 187.793 101.992 187.793 82.907C187.793 55.7138 166.325 38 133.609 38H60V218H133.993ZM88.6257 60.8276H126.708C147.411 60.8276 159.167 70.0582 159.167 86.7733C159.167 104.612 145.494 114.59 120.702 114.59H88.6257V60.8276ZM88.6257 195.173V135.922H126.452C153.545 135.922 167.602 145.901 167.602 165.36C167.602 184.819 153.928 195.173 128.114 195.173H88.6257Z" fill="url(#paint1_linear_30_681)"/>
<path d="M133.993 218C173.224 218 196.866 198.79 196.866 167.107C196.866 143.156 179.998 125.818 154.95 123.072V122.075C173.353 119.081 187.793 101.992 187.793 82.907C187.793 55.7138 166.325 38 133.609 38H60V218H133.993ZM88.6257 60.8276H126.708C147.411 60.8276 159.167 70.0582 159.167 86.7733C159.167 104.612 145.494 114.59 120.702 114.59H88.6257V60.8276ZM88.6257 195.173V135.922H126.452C153.545 135.922 167.602 145.901 167.602 165.36C167.602 184.819 153.928 195.173 128.114 195.173H88.6257Z" stroke="white" stroke-width="2"/>
</g>
</g>
<defs>
<filter id="filter0_d_30_681" x="43" y="25" width="170.865" height="214" filterUnits="userSpaceOnUse" color-interpolation-filters="sRGB">
<feFlood flood-opacity="0" result="BackgroundImageFix"/>
<feColorMatrix in="SourceAlpha" type="matrix" values="0 0 0 0 0 0 0 0 0 0 0 0 0 0 0 0 0 0 127 0" result="hardAlpha"/>
<feOffset dy="4"/>
<feGaussianBlur stdDeviation="8"/>
<feColorMatrix type="matrix" values="0 0 0 0 0 0 0 0 0 0 0 0 0 0 0 0 0 0 0.15 0"/>
<feBlend mode="normal" in2="BackgroundImageFix" result="effect1_dropShadow_30_681"/>
<feBlend mode="normal" in="SourceGraphic" in2="effect1_dropShadow_30_681" result="shape"/>
</filter>
<linearGradient id="paint0_linear_30_681" x1="0" y1="0" x2="256" y2="256" gradientUnits="userSpaceOnUse">
<stop stop-color="#9013FE"/>
<stop offset="1" stop-color="#6B11F4"/>
</linearGradient>
<linearGradient id="paint1_linear_30_681" x1="72.9464" y1="49.8478" x2="155.899" y2="190.141" gradientUnits="userSpaceOnUse">
<stop stop-color="white"/>
<stop offset="1" stop-color="#F1E5FC"/>
</linearGradient>
<clipPath id="clip0_30_681">
<rect width="256" height="256" fill="white"/>
</clipPath>
</defs>
</svg>
