<svg width="256" height="256" viewBox="0 0 256 256" fill="none" xmlns="http://www.w3.org/2000/svg">
<path d="M75.3866 56C65.1159 56 57.5163 64.9893 57.8564 74.7383C58.1829 84.1044 57.7588 96.2346 54.7049 106.127C51.6419 116.048 46.4615 122.333 38 123.14V132.25C46.4615 133.057 51.6419 139.342 54.7049 149.263C57.7588 159.155 58.1829 171.285 57.8564 180.652C57.5163 190.399 65.1159 199.39 75.3881 199.39H180.627C190.898 199.39 198.496 190.401 198.156 180.652C197.829 171.285 198.253 159.155 201.307 149.263C204.372 139.342 209.538 133.057 218 132.25V123.14C209.538 122.333 204.372 116.048 201.307 106.127C198.253 96.2361 197.829 84.1044 198.156 74.7383C198.496 64.9908 190.898 56 180.627 56H75.3851H75.3866ZM160.034 144.266C160.034 157.689 150.021 165.831 133.405 165.831H105.119C103.434 165.831 102.068 164.465 102.068 162.78V92.6102C102.068 90.9252 103.434 89.5593 105.119 89.5593H133.243C147.098 89.5593 156.191 97.0644 156.191 108.587C156.191 116.675 150.074 123.916 142.281 125.184V125.607C152.89 126.771 160.034 134.117 160.034 144.266ZM130.32 99.2305H114.192V122.011H127.776C138.277 122.011 144.067 117.783 144.067 110.224C144.067 103.142 139.088 99.2305 130.32 99.2305ZM114.192 131.051V156.156H130.914C141.846 156.156 147.638 151.769 147.638 143.524C147.638 135.278 141.685 131.049 130.21 131.049H114.192V131.051Z" fill="#7E13F8"/>
</svg>
