<svg width="256" height="256" viewBox="0 0 256 256" fill="none" xmlns="http://www.w3.org/2000/svg">
<path d="M0 56C0 25.0721 25.0721 0 56 0H200C230.928 0 256 25.0721 256 56V200C256 230.928 230.928 256 200 256H56C25.0721 256 0 230.928 0 200V56Z" fill="#22272E"/>
<path d="M143.833 157.872C147.864 193.909 182.119 194.883 197.231 198.78C241.561 207.545 219.397 224.104 201.261 224.104L202.269 227.025L163.983 228L195.216 210.468L198.239 218.26C203.276 220.207 236.524 208.52 183.126 203.65C160.961 199.753 146.855 194.883 138.796 185.144L111.593 200.728C104.54 185.144 83.3828 179.299 92.4504 158.845" fill="#D10000"/>
<path d="M143.833 157.872C147.864 193.909 182.119 194.883 197.231 198.78C241.561 207.545 219.397 224.104 201.261 224.104L202.269 227.025L163.983 228L195.216 210.468L198.239 218.26C203.276 220.207 236.524 208.52 183.126 203.65C160.961 199.753 146.855 194.883 138.796 185.144L111.593 200.728C104.54 185.144 83.3828 179.299 92.4504 158.845" stroke="black" stroke-width="1.113" stroke-linecap="round" stroke-linejoin="round"/>
<path d="M137.788 179.299C139.803 180.274 142.826 176.377 141.818 174.429L68.2703 121.834C68.2703 118.912 75.3228 113.067 65.2477 105.275L66.2553 103.327L53.1577 97.4833C55.1727 101.379 57.1877 102.353 59.2027 109.172L63.2328 107.223C67.2628 112.094 67.2628 115.989 63.2328 117.937L56.1802 113.067C56.1802 112.094 57.1877 111.119 57.1877 110.145C57.1877 110.145 56.1802 109.172 53.1577 109.172C51.1427 109.172 47.1127 105.275 44.0901 105.275C44.0901 108.197 49.1276 113.067 49.1276 117.937L52.1501 115.989C55.1727 116.964 57.1877 118.912 59.2027 121.834C56.1802 125.729 52.1501 127.677 44.0901 123.781C44.0901 121.834 46.1051 120.859 46.1051 118.912C42.0751 118.912 37.0376 115.989 32 113.067C34.015 119.885 40.06 127.677 46.1051 129.626C56.1802 133.521 60.2102 126.704 65.2477 126.704L137.788 179.299Z" fill="#FFD700" stroke="black" stroke-width="1.113" stroke-linecap="round" stroke-linejoin="round"/>
<path d="M109.578 115.989L79.3535 79.9512C81.3685 75.0812 80.361 68.2632 79.3535 65.3411C74.3159 49.2701 85.3986 41.9651 95.4736 34.1731C103.533 28.3291 107.563 27.355 109.578 28.3291C111.593 30.2771 101.519 36.1211 99.5036 42.9391C99.5036 42.9391 97.4886 53.6531 104.541 48.7831C110.586 45.8611 118.647 43.9131 127.714 45.8611C134.766 46.8351 145.849 50.7312 152.902 58.5231C174.059 54.6271 161.969 41.9651 159.954 34.1731C167.007 28.3291 203.78 64.3672 158.947 87.7433C158.947 101.379 155.924 110.145 146.857 117.937C135.774 126.704 142.826 130.599 144.842 136.443C149.879 153.001 147.864 163.715 127.714 166.637C113.609 168.585 111.593 174.429 100.511 166.637" fill="#D10000"/>
<path d="M109.578 115.989L79.3535 79.9512C81.3685 75.0812 80.361 68.2632 79.3535 65.3411C74.3159 49.2701 85.3986 41.9651 95.4736 34.1731C103.533 28.3291 107.563 27.355 109.578 28.3291C111.593 30.2771 101.519 36.1211 99.5036 42.9391C99.5036 42.9391 97.4886 53.6531 104.541 48.7831C110.586 45.8611 118.647 43.9131 127.714 45.8611C134.766 46.8351 145.849 50.7312 152.902 58.5231C174.059 54.6271 161.969 41.9651 159.954 34.1731C167.007 28.3291 203.78 64.3672 158.947 87.7433C158.947 101.379 155.924 110.145 146.857 117.937C135.774 126.704 142.826 130.599 144.842 136.443C149.879 153.001 147.864 163.715 127.714 166.637C113.609 168.585 111.593 174.429 100.511 166.637" stroke="black" stroke-width="1.113" stroke-linecap="round" stroke-linejoin="round"/>
<path d="M104.541 57.5492C105.548 53.6533 95.4735 46.8352 84.3909 67.2893C83.3834 70.2113 79.3533 78.0033 79.3533 78.0033C78.3459 81.8993 77.3383 86.7694 75.3233 88.7173C65.2483 98.4574 70.2857 111.119 83.3833 115.989C86.4059 116.964 95.4735 123.781 101.519 126.704C104.541 128.651 101.519 135.469 96.4809 134.496C69.2783 128.651 68.2708 147.158 79.3533 150.08L118.646 148.131" fill="#D10000"/>
<path d="M104.541 57.5492C105.548 53.6533 95.4735 46.8352 84.3909 67.2893C83.3834 70.2113 79.3533 78.0033 79.3533 78.0033C78.3459 81.8993 77.3383 86.7694 75.3233 88.7173C65.2483 98.4574 70.2857 111.119 83.3833 115.989C86.4059 116.964 95.4735 123.781 101.519 126.704C104.541 128.651 101.519 135.469 96.4809 134.496C69.2783 128.651 68.2708 147.158 79.3533 150.08L118.646 148.131" stroke="black" stroke-width="1.113" stroke-linecap="round" stroke-linejoin="round"/>
<path d="M110.586 56.5751C114.616 52.679 121.669 52.679 124.692 58.5231C125.699 60.471 125.699 62.4191 126.707 63.3931" stroke="black" stroke-width="1.113" stroke-linecap="round" stroke-linejoin="round"/>
<path d="M81.3691 109.172C86.4066 110.145 86.4066 113.067 92.4517 117.937C102.527 125.729 114.617 118.911 117.64 116.964C121.67 115.015 121.67 112.094 125.7 114.042" fill="#D10000"/>
<path d="M81.3691 109.172C86.4066 110.145 86.4066 113.067 92.4517 117.937C102.527 125.729 114.617 118.911 117.64 116.964C121.67 115.015 121.67 112.094 125.7 114.042" stroke="black" stroke-width="1.67" stroke-linecap="round" stroke-linejoin="round"/>
<path d="M94.4651 95.5353C82.3751 88.7172 79.3525 99.4312 84.39 104.301C85.3976 105.275 88.42 105.275 90.4351 106.25C92.4501 107.223 93.4576 103.327 98.4952 105.762C102.525 108.197 104.54 103.327 100.51 101.379" fill="#D10000"/>
<path d="M94.4651 95.5353C82.3751 88.7172 79.3525 99.4312 84.39 104.301C85.3976 105.275 88.42 105.275 90.4351 106.25C92.4501 107.223 93.4576 103.327 98.4952 105.762C102.525 108.197 104.54 103.327 100.51 101.379" stroke="black" stroke-width="1.113" stroke-linecap="round" stroke-linejoin="round"/>
<path d="M101.518 62.4192C101.518 59.4972 95.4733 57.5492 88.4207 68.2632C80.3607 80.9253 81.3682 87.7433 85.3983 90.6653C88.4207 92.6133 91.4432 91.6393 94.4658 82.8733C96.4808 78.0032 101.518 65.3412 101.518 62.4192Z" fill="white" stroke="black" stroke-width="1.113" stroke-linecap="round" stroke-linejoin="round"/>
<path d="M113.606 61.4452C123.682 59.4972 122.674 95.5354 106.554 96.5093C88.4189 97.4833 100.509 64.3672 113.606 61.4452Z" fill="white" stroke="black" stroke-width="1.113" stroke-linecap="round" stroke-linejoin="round"/>
<path d="M108.57 78.977C113.607 82.873 107.562 98.4571 100.51 92.6131C95.4724 87.7431 102.525 74.107 108.57 78.977Z" fill="black"/>
<path d="M91.4437 77.029C96.4812 80.9251 88.4212 93.5871 85.3986 87.7431C82.3761 83.8471 85.3986 73.1331 91.4437 77.029Z" fill="black"/>
<path d="M88.4193 78.0031C89.4269 78.0031 89.4269 83.8471 88.4193 83.8471C85.3968 83.8471 86.4043 78.0031 88.4193 78.0031Z" fill="white"/>
<path d="M104.54 81.8992C105.548 81.8992 105.548 85.7951 103.533 85.7951C102.525 85.7951 101.518 81.8992 104.54 81.8992Z" fill="white"/>
<path d="M106.556 166.637C101.519 166.637 98.4962 167.612 92.4512 160.793L106.556 166.637Z" fill="#D10000"/>
<path d="M106.556 166.637C101.519 166.637 98.4962 167.612 92.4512 160.793" stroke="black" stroke-width="1.113" stroke-linecap="round" stroke-linejoin="round"/>
<path d="M101.517 160.793C75.3217 162.742 95.4719 126.703 115.622 142.288C119.652 145.209 123.682 146.183 129.727 144.235" fill="#D10000"/>
<path d="M101.517 160.793C75.3217 162.742 95.4719 126.703 115.622 142.288C119.652 145.209 123.682 146.183 129.727 144.235" stroke="black" stroke-width="1.113" stroke-linecap="round" stroke-linejoin="round"/>
<path d="M97.4873 143.261C100.51 148.131 90.4347 155.923 84.3897 151.053C78.3446 146.183 94.4647 139.366 97.4873 143.261Z" fill="#D10000" stroke="black" stroke-width="1.113" stroke-linecap="round" stroke-linejoin="round"/>
<path d="M91.4428 133.521C68.2701 130.599 69.2776 147.158 79.3527 150.08C90.4353 153.001 102.525 137.417 91.4428 133.521Z" fill="#D10000" stroke="black" stroke-width="1.113" stroke-linecap="round" stroke-linejoin="round"/>
<path d="M85.3976 138.391C86.405 145.21 71.2924 149.105 68.2699 139.365C66.2549 132.548 83.3825 122.807 85.3976 138.391Z" fill="#D10000" stroke="black" stroke-width="1.113" stroke-linecap="round" stroke-linejoin="round"/>
<path d="M88.4194 124.756C94.4645 132.548 79.3518 136.443 75.3218 131.573C67.2617 122.807 83.3818 118.911 88.4194 124.756Z" fill="#D10000" stroke="black" stroke-width="1.113" stroke-linecap="round" stroke-linejoin="round"/>
<path d="M67.2637 197.806C80.3613 196.831 102.526 196.831 96.4814 187.091C94.4664 184.169 95.4739 182.222 95.4739 180.274C97.4889 188.066 113.609 183.196 112.601 192.936L93.4589 218.26L67.2637 197.806Z" fill="#00B000" stroke="black" stroke-width="1.113" stroke-linecap="round" stroke-linejoin="round"/>
<path d="M125.699 188.066C129.728 186.118 133.758 188.066 137.788 185.144C144.841 191.961 144.841 201.701 146.856 203.65L112.6 217.285L90.4355 206.572C100.511 194.883 111.593 199.753 112.6 192.936C114.615 181.248 120.661 184.169 125.699 189.039C125.699 189.039 126.706 198.78 123.684 198.78C116.631 199.753 101.518 205.598 101.518 205.598" fill="#00B000"/>
<path d="M125.699 188.066C129.728 186.118 133.758 188.066 137.788 185.144C144.841 191.961 144.841 201.701 146.856 203.65L112.6 217.285L90.4355 206.572C100.511 194.883 111.593 199.753 112.6 192.936C114.615 181.248 120.661 184.169 125.699 189.039C125.699 189.039 126.706 198.78 123.684 198.78C116.631 199.753 101.518 205.598 101.518 205.598" stroke="black" stroke-width="1.113" stroke-linecap="round" stroke-linejoin="round"/>
<path d="M50.1348 202.676C52.1497 199.754 80.36 191.961 80.36 203.65L63.2324 212.416L50.1348 202.676Z" fill="white" stroke="black" stroke-width="1.113" stroke-linecap="round" stroke-linejoin="round"/>
<path d="M139.804 194.884C139.804 201.701 133.759 200.728 132.751 197.806C130.736 190.988 139.804 190.014 139.804 194.884Z" fill="#F4FFF4" stroke="black" stroke-width="1.113" stroke-linecap="round" stroke-linejoin="round"/>
<path d="M73.3088 212.415C48.1211 215.338 48.1211 208.52 48.1211 208.52C48.1211 203.65 48.1211 203.65 50.1361 202.676C53.1587 206.572 70.2863 208.52 78.3464 204.623" fill="white"/>
<path d="M73.3088 212.415C48.1211 215.338 48.1211 208.52 48.1211 208.52C48.1211 203.65 48.1211 203.65 50.1361 202.676C53.1587 206.572 70.2863 208.52 78.3464 204.623" stroke="black" stroke-width="1.113" stroke-linecap="round" stroke-linejoin="round"/>
<path d="M109.58 213.39C109.58 195.858 80.3615 197.806 74.3164 208.52L87.414 218.26L109.58 213.39Z" fill="white" stroke="black" stroke-width="1.113" stroke-linecap="round" stroke-linejoin="round"/>
<path d="M145.85 202.676C147.865 201.701 146.857 205.598 146.857 209.493C126.707 222.155 84.3912 223.13 73.3086 214.363C73.3086 210.468 73.3086 209.493 74.3162 207.545C80.3611 217.285 137.789 213.39 145.85 202.676Z" fill="white" stroke="black" stroke-width="1.113" stroke-linecap="round" stroke-linejoin="round"/>
<path d="M98.4955 190.988L108.57 191.961L98.4955 190.988ZM96.4804 193.909L106.555 195.858L96.4804 193.909ZM91.4429 195.858L99.5029 197.806L91.4429 195.858ZM83.3828 197.806L95.4729 199.754L83.3828 197.806ZM113.608 191.961L125.698 192.936L113.608 191.961ZM112.601 194.884L124.691 196.831L112.601 194.884ZM108.57 197.806L115.623 198.779L108.57 197.806ZM102.525 199.754L110.585 200.728L102.525 199.754Z" fill="#D10000"/>
<path d="M102.525 199.754L110.585 200.728M98.4955 190.988L108.57 191.961L98.4955 190.988ZM96.4804 193.909L106.555 195.858L96.4804 193.909ZM91.4429 195.858L99.5029 197.806L91.4429 195.858ZM83.3828 197.806L95.4729 199.754L83.3828 197.806ZM113.608 191.961L125.698 192.936L113.608 191.961ZM112.601 194.884L124.691 196.831L112.601 194.884ZM108.57 197.806L115.623 198.779L108.57 197.806Z" stroke="#00FFFF" stroke-width="1.113" stroke-linecap="round" stroke-linejoin="round"/>
</svg>
