<svg width="256" height="256" viewBox="0 0 256 256" fill="none" xmlns="http://www.w3.org/2000/svg">
<path fill-rule="evenodd" clip-rule="evenodd" d="M123.727 39.2268C126.637 37.594 130.22 37.594 133.126 39.2268C147.504 47.2968 190.773 71.5882 205.156 79.6582C208.066 81.2868 209.857 84.3039 209.857 87.5697C209.857 103.71 209.857 152.288 209.857 168.428C209.857 171.694 208.066 174.711 205.156 176.344C190.777 184.414 147.508 208.705 133.126 216.775C130.216 218.408 126.633 218.408 123.727 216.775C109.349 208.705 66.08 184.414 51.6971 176.344C48.7914 174.711 47 171.698 47 168.432C47 152.292 47 103.714 47 87.5739C47 84.3082 48.7914 81.2911 51.7014 79.6582C66.0757 71.5882 109.353 47.2968 123.727 39.2268Z" fill="url(#paint0_linear_170_80)"/>
<path fill-rule="evenodd" clip-rule="evenodd" d="M48.3029 172.59C47.1629 171.064 47 169.615 47 167.665C47 151.62 47 103.32 47 87.2697C47 84.0212 48.7871 81.0212 51.6886 79.4012C66.0157 71.3783 109.139 47.2283 123.466 39.2012C126.367 37.5769 130.297 37.6112 133.199 39.2355C147.526 47.2583 190.503 71.2026 204.83 79.2255C205.987 79.8769 206.87 80.6612 207.658 81.694L48.3029 172.59Z" fill="url(#paint1_linear_170_80)"/>
<path fill-rule="evenodd" clip-rule="evenodd" d="M128.429 68.0012C161.544 68.0012 188.429 94.8855 188.429 128.001C188.429 161.117 161.544 188.001 128.429 188.001C95.313 188.001 68.4287 161.117 68.4287 128.001C68.4287 94.8855 95.313 68.0012 128.429 68.0012ZM128.429 98.0012C144.984 98.0012 158.429 111.441 158.429 128.001C158.429 144.557 144.984 158.001 128.429 158.001C111.873 158.001 98.4287 144.557 98.4287 128.001C98.4287 111.441 111.869 98.0012 128.429 98.0012Z" fill="white"/>
<path fill-rule="evenodd" clip-rule="evenodd" d="M207.649 81.7368C209.861 83.8068 209.818 86.9268 209.818 89.3825C209.818 105.647 209.681 151.907 209.856 168.171C209.874 169.868 209.312 171.655 208.472 173.001L126.684 128.001L207.649 81.7368Z" fill="url(#paint2_linear_170_80)"/>
<g opacity="0.05">
<path d="M167 115.144V123.716H175.571V132.287H167V140.858H158.428V132.287H149.857V123.716H158.428V115.144H167ZM171.286 110.858H167H158.428H154.143V115.144V119.43H149.857H145.571V123.716V132.287V136.573H149.857H154.143V140.858V145.144H158.428H167H171.286V140.858V136.573H175.571H179.857V132.287V123.716V119.43H175.571H171.286V115.144V110.858Z" fill="black"/>
<path d="M197 115.144V123.716H205.571V132.287H197V140.858H188.428V132.287H179.857V123.716H188.428V115.144H197ZM201.286 110.858H197H188.428H184.143V115.144V119.43H179.857H175.571V123.716V132.287V136.573H179.857H184.143V140.858V145.144H188.428H197H201.286V140.858V136.573H205.571H209.857V132.287V123.716V119.43H205.571H201.286V115.144V110.858Z" fill="black"/>
</g>
<g opacity="0.07">
<path d="M167.001 115.144V123.715H175.572V132.287H167.001V140.858H158.429V132.287H149.858V123.715H158.429V115.144H167.001ZM169.143 113.001H167.001H158.429H156.286V115.144V121.573H149.858H147.715V123.715V132.287V134.43H149.858H156.286V140.858V143.001H158.429H167.001H169.143V140.858V134.43H175.572H177.715V132.287V123.715V121.573H175.572H169.143V115.144V113.001Z" fill="black"/>
<path d="M197.001 115.144V123.715H205.572V132.287H197.001V140.858H188.429V132.287H179.858V123.715H188.429V115.144H197.001ZM199.143 113.001H197.001H188.429H186.286V115.144V121.573H179.858H177.715V123.715V132.287V134.43H179.858H186.286V140.858V143.001H188.429H197.001H199.143V140.858V134.43H205.572H207.715V132.287V123.715V121.573H205.572H199.143V115.144V113.001Z" fill="black"/>
</g>
<path d="M167 115.144H158.429V123.715H149.857V132.287H158.429V140.858H167V132.287H175.572V123.715H167V115.144Z" fill="white"/>
<path d="M205.572 123.715H197V115.144H188.429V123.715H179.857V132.287H188.429V140.858H197V132.287H205.572V123.715Z" fill="white"/>
<path opacity="0.05" d="M128.429 68.0013C150.406 68.0013 169.581 79.877 180.033 97.517L154.006 112.388C148.731 103.774 139.259 98.0013 128.429 98.0013C111.869 98.0013 98.4292 111.441 98.4292 128.001C98.4292 144.557 111.874 158.001 128.429 158.001C139.443 158.001 149.052 152.036 154.268 143.177L180.548 157.637C170.215 175.753 150.758 188.001 128.429 188.001C95.3135 188.001 68.4293 161.117 68.4293 128.001C68.4293 94.8855 95.3135 68.0013 128.429 68.0013ZM128.429 63.7156C92.9821 63.7156 64.1436 92.5541 64.1436 128.001C64.1436 163.448 92.9821 192.287 128.429 192.287C151.431 192.287 172.829 179.824 184.272 159.758L186.428 155.978L182.613 153.878L156.333 139.418L152.686 137.413L150.573 141C145.958 148.843 137.472 153.715 128.429 153.715C114.252 153.715 102.715 142.178 102.715 128.001C102.715 113.824 114.252 102.287 128.429 102.287C137.425 102.287 145.619 106.898 150.351 114.626L152.523 118.174L156.132 116.113L182.159 101.241L185.939 99.0813L183.719 95.3356C172.165 75.8313 150.981 63.7156 128.429 63.7156Z" fill="black"/>
<path opacity="0.07" d="M128.429 68.0013C150.406 68.0013 169.58 79.877 180.033 97.5169L154.006 112.388C148.73 103.774 139.259 98.0012 128.429 98.0012C111.869 98.0012 98.429 111.441 98.429 128.001C98.429 144.557 111.873 158.001 128.429 158.001C139.443 158.001 149.052 152.035 154.267 143.177L180.547 157.637C170.215 175.753 150.757 188.001 128.429 188.001C95.3132 188.001 68.429 161.117 68.429 128.001C68.429 94.8855 95.3132 68.0013 128.429 68.0013ZM128.429 65.8584C94.1647 65.8584 66.2861 93.7369 66.2861 128.001C66.2861 162.265 94.1647 190.144 128.429 190.144C150.663 190.144 171.346 178.093 182.407 158.7L183.487 156.81L181.58 155.76L155.3 141.3L153.479 140.297L152.425 142.088C147.419 150.583 138.226 155.858 128.429 155.858C113.069 155.858 100.572 143.361 100.572 128.001C100.572 112.641 113.069 100.144 128.429 100.144C138.179 100.144 147.055 105.141 152.18 113.507L153.265 115.281L155.069 114.248L181.096 99.3769L182.986 98.2969L181.876 96.4241C170.703 77.5712 150.226 65.8584 128.429 65.8584Z" fill="black"/>
<defs>
<linearGradient id="paint0_linear_170_80" x1="47" y1="128.001" x2="209.857" y2="128.001" gradientUnits="userSpaceOnUse">
<stop offset="0.002" stop-color="#427FDB"/>
<stop offset="0.397" stop-color="#2668CB"/>
<stop offset="0.763" stop-color="#1358BF"/>
<stop offset="1" stop-color="#0C52BB"/>
</linearGradient>
<linearGradient id="paint1_linear_170_80" x1="47" y1="105.295" x2="207.658" y2="105.295" gradientUnits="userSpaceOnUse">
<stop stop-color="#32BDEF"/>
<stop offset="1" stop-color="#1EA2E4"/>
</linearGradient>
<linearGradient id="paint2_linear_170_80" x1="126.684" y1="127.367" x2="209.856" y2="127.367" gradientUnits="userSpaceOnUse">
<stop stop-color="#2AA4F4"/>
<stop offset="1" stop-color="#007AD9"/>
</linearGradient>
</defs>
</svg>
