<svg width="256" height="256" viewBox="0 0 256 256" fill="none" xmlns="http://www.w3.org/2000/svg">
<path d="M196 0H60C26.8629 0 0 26.8629 0 60V196C0 229.137 26.8629 256 60 256H196C229.137 256 256 229.137 256 196V60C256 26.8629 229.137 0 196 0Z" fill="#394AAB"/>
<path d="M134.001 38C167.294 38 196.363 56.0818 211.932 82.9584L211.781 82.6997L172.608 105.255C164.891 92.1873 150.742 83.3687 134.512 83.1871L134.001 83.1843C109.25 83.1843 89.1843 103.249 89.1843 127.999C89.1843 136.093 91.3422 143.681 95.0949 150.234C102.82 163.72 117.341 172.816 134.001 172.816C150.762 172.816 165.366 163.604 173.052 149.974L172.866 150.301L211.979 172.96C196.58 199.61 167.91 217.635 135.003 217.994L134.001 218C100.601 218 71.4503 199.807 55.9198 172.788C48.3381 159.598 44 144.306 44 127.999C44 78.2948 84.2938 38 134.001 38Z" fill="white"/>
</svg>
