<svg width="256" height="256" viewBox="0 0 256 256" fill="none" xmlns="http://www.w3.org/2000/svg">
<path d="M56.9255 168.979C58.4502 168.979 59.8945 169.34 60.6175 170.061C60.7379 171.186 59.734 172.991 59.0921 172.991C58.3298 172.71 57.6076 172.549 56.7249 172.549C53.0739 172.549 51.2676 176.322 51.2676 180.053C51.2676 182.38 52.0701 183.785 53.9165 183.785C55.8824 183.785 57.8884 182.461 59.0118 181.458C59.2927 181.657 59.6537 182.3 59.6537 183.022C59.6537 183.825 59.413 184.587 58.6909 185.309C57.407 186.593 55.2405 187.676 52.1102 187.676C48.4992 187.676 46.0117 185.63 46.0117 180.856C46.0117 174.596 50.1442 168.979 56.8855 168.979H56.9255Z" fill="#111827"/>
<path d="M68.7201 183.584C70.686 183.584 74.2576 180.133 75.2607 173.553C75.3008 173.152 75.341 173.031 75.4212 172.63C74.9798 172.47 74.3781 172.349 73.7754 172.349C72.2909 172.349 70.7663 172.791 69.4022 174.636C67.998 176.602 67.3962 179.049 67.3962 181.016C67.3962 182.7 67.8775 183.584 68.68 183.584H68.7201ZM62.2598 181.779C62.2598 179.411 63.0622 175.278 66.0721 172.269C68.6399 169.621 71.7693 168.979 74.6188 168.979C76.5045 168.979 79.0722 169.58 80.677 169.902C80.2759 171.667 79.3129 178.327 78.8716 182.179C78.671 183.825 78.5907 186.112 78.671 186.955C77.347 187.516 74.8595 187.676 74.1766 187.676C73.8163 187.676 73.7353 186.031 73.8565 184.467C73.8957 183.945 73.9769 183.183 74.0161 182.861C72.4514 185.469 69.3621 187.676 66.1122 187.676C63.7852 187.676 62.2598 185.75 62.2598 181.819V181.779Z" fill="#111827"/>
<path d="M90.6644 168.979C92.3093 168.979 93.8741 169.581 94.5971 170.342C94.557 171.467 93.6743 173.352 92.2693 172.83C91.6674 172.629 91.0656 172.47 90.2632 172.47C89.1799 172.47 88.2571 172.951 88.2571 173.954C88.2571 174.715 88.8189 175.278 91.507 177.164C93.4336 178.569 94.1959 179.812 94.1959 181.577C94.1959 184.507 91.4267 187.676 86.6121 187.676C84.6462 187.676 82.9202 186.914 82.3585 186.112C81.6363 184.908 82.198 182.541 83.0012 182.942C84.0444 183.463 85.7696 184.025 87.1739 184.025C88.4979 184.025 89.3404 183.422 89.3404 182.621C89.3404 181.939 88.7386 181.336 86.2912 179.611C84.2442 178.087 83.6023 176.682 83.6023 175.078C83.6023 171.748 86.4517 168.979 90.6243 168.979H90.6644Z" fill="#111827"/>
<path d="M104.508 168.979C106.153 168.979 107.718 169.581 108.44 170.342C108.4 171.467 107.518 173.352 106.113 172.83C105.511 172.629 104.909 172.47 104.107 172.47C103.024 172.47 102.101 172.951 102.101 173.954C102.101 174.715 102.662 175.278 105.351 177.164C107.276 178.569 108.039 179.812 108.039 181.577C108.039 184.507 105.269 187.676 100.455 187.676C98.4892 187.676 96.764 186.914 96.2023 186.112C95.4801 184.908 96.0418 182.541 96.8442 182.942C97.8874 183.463 99.6125 184.025 101.017 184.025C102.341 184.025 103.183 183.422 103.183 182.621C103.183 181.939 102.582 181.336 100.134 179.611C98.088 178.087 97.4461 176.682 97.4461 175.078C97.4461 171.748 100.295 168.979 104.468 168.979H104.508Z" fill="#111827"/>
<path d="M117.146 183.584C119.113 183.584 122.684 180.133 123.686 173.553C123.727 173.152 123.768 173.031 123.848 172.63C123.405 172.47 122.805 172.349 122.202 172.349C120.718 172.349 119.193 172.791 117.828 174.636C116.425 176.602 115.822 179.049 115.822 181.016C115.822 182.7 116.304 183.584 117.107 183.584H117.146ZM110.686 181.779C110.686 179.411 111.489 175.278 114.498 172.269C117.066 169.621 120.195 168.979 123.045 168.979C124.931 168.979 127.499 169.58 129.104 169.902C128.703 171.667 127.739 178.327 127.299 182.179C127.097 183.825 127.018 186.112 127.097 186.955C125.773 187.516 123.286 187.676 122.604 187.676C122.243 187.676 122.162 186.031 122.283 184.467C122.323 183.945 122.403 183.183 122.443 182.861C120.879 185.469 117.789 187.676 114.539 187.676C112.212 187.676 110.686 185.75 110.686 181.819V181.779Z" fill="#111827"/>
<path d="M138.168 174.195C140.014 171.225 142.421 168.979 145.792 168.979C148.64 168.979 149.563 171.627 149.043 175.398C148.762 177.164 148.28 179.692 147.959 182.019C147.678 183.985 147.477 185.75 147.518 186.955C146.475 187.476 143.425 187.677 142.743 187.677C142.462 187.677 142.421 185.469 142.783 183.142C143.103 181.217 143.786 177.726 144.107 175.719C144.308 174.557 144.267 173.151 143.144 173.151C141.658 173.151 138.129 175.519 136.363 185.229C136.242 186.031 135.921 186.512 135.479 186.793C134.878 187.155 133.593 187.476 130.986 187.516C131.468 185.069 132.231 180.053 132.792 176.362C133.312 172.991 133.514 170.824 133.393 169.982C134.076 169.741 137.647 168.979 138.047 168.979C138.49 168.979 138.57 170.223 138.168 173.232C138.129 173.513 138.088 173.954 138.047 174.195H138.168Z" fill="#111827"/>
<path d="M158.549 183.544C160.313 183.544 163.886 180.253 164.888 174.435C164.929 174.114 165.05 173.513 165.13 173.151C164.607 172.669 163.925 172.348 162.843 172.348C158.789 172.348 156.984 177.204 156.984 180.695C156.984 182.58 157.626 183.544 158.508 183.544H158.549ZM155.901 187.676C153.333 187.676 151.729 185.389 151.729 181.458C151.729 174.957 155.78 168.979 162.601 168.979C163.805 168.979 164.888 169.299 165.57 169.7C165.932 167.855 166.774 162.157 166.815 160.471C167.938 160.271 170.345 159.911 171.428 159.911C171.871 159.911 171.991 160.352 171.83 161.354C170.866 167.373 169.143 178.929 168.821 181.498C168.579 183.664 168.54 185.791 168.579 186.994C167.296 187.556 164.687 187.676 164.006 187.676C163.724 187.676 163.564 185.831 163.645 184.186C163.685 183.664 163.764 182.901 163.764 182.781C161.758 186.072 158.99 187.676 155.94 187.676H155.901Z" fill="#111827"/>
<path d="M179.413 174.756C181.541 170.021 184.067 168.979 185.713 168.979C186.235 168.979 187.037 169.3 187.398 169.701C187.559 171.025 186.516 173.673 185.593 174.675C185.11 174.435 184.51 174.195 183.827 174.195C182.462 174.195 179.774 176.322 178.089 185.469C177.967 186.232 177.727 186.553 177.287 186.754C176.606 187.155 173.916 187.476 172.633 187.516C173.233 184.225 174.277 177.525 174.679 173.592C174.799 172.589 174.839 170.744 174.759 170.021C175.521 169.661 178.531 168.979 179.213 168.979C179.574 168.979 179.855 171.186 179.292 174.756H179.413Z" fill="#111827"/>
<path d="M193.574 183.584C195.541 183.584 199.111 180.133 200.115 173.553C200.154 173.152 200.195 173.031 200.276 172.63C199.834 172.47 199.232 172.349 198.63 172.349C197.145 172.349 195.621 172.791 194.256 174.636C192.852 176.602 192.249 179.049 192.249 181.016C192.249 182.7 192.731 183.584 193.534 183.584H193.574ZM187.113 181.779C187.113 179.411 187.916 175.278 190.925 172.269C193.493 169.621 196.623 168.979 199.472 168.979C201.357 168.979 203.925 169.58 205.532 169.902C205.13 171.667 204.167 178.327 203.726 182.179C203.525 183.825 203.444 186.112 203.525 186.955C202.201 187.516 199.714 187.676 199.03 187.676C198.67 187.676 198.59 186.031 198.71 184.467C198.75 183.945 198.83 183.183 198.871 182.861C197.305 185.469 194.217 187.676 190.966 187.676C188.639 187.676 187.113 185.75 187.113 181.819V181.779Z" fill="#111827"/>
<path d="M181.791 100.984C183.115 116.408 158.843 131.087 127.578 133.769C96.3137 136.451 69.8956 126.12 68.5732 110.698C67.2492 95.2722 91.5217 80.5937 122.786 77.9114C154.05 75.23 180.469 85.5586 181.791 100.984Z" fill="#BBE6FB"/>
<g opacity="0.350006">
<g opacity="0.350006">
<path opacity="0.350006" d="M123.699 79.7201C111.774 79.5262 97.8179 84.2614 87.434 88.6955C86.3533 91.8099 85.7715 95.1225 85.7715 98.5562C85.7715 116.852 102.291 131.685 122.671 131.685C143.049 131.685 159.569 116.852 159.569 98.5562C159.569 92.7662 157.911 87.3265 155.003 82.5905C146.695 81.2991 135.269 79.9082 123.699 79.7201Z" fill="white"/>
</g>
</g>
<path d="M122.673 79.7165C116.071 79.3137 104.691 82.7582 95.2017 86.1944C93.7598 89.5972 92.959 93.321 92.959 97.2286C92.959 113.259 107.493 126.253 122.868 126.253C138.141 126.253 151.655 113.238 152.777 97.2286C153.141 92.0154 151.347 87.103 148.854 82.8677C139.017 81.135 128.576 80.0768 122.673 79.7165Z" fill="white"/>
<path d="M105.731 95.1238C106.541 93.3301 107.769 92.4516 108.957 90.9479C108.824 90.5918 108.536 89.4275 108.536 89.0238C108.536 87.2217 109.998 85.7589 111.8 85.7589C112.226 85.7589 112.632 85.8434 113.004 85.9912C118.408 81.873 125.522 80.0776 132.671 81.6758C133.324 81.8229 133.965 82.0009 134.593 82.1964C127.528 81.2168 119.564 83.7194 114.146 88.0918C114.311 88.4821 114.77 89.598 114.77 90.0469C114.77 91.8498 113.604 92.2886 111.8 92.2886C111.391 92.2886 110.999 92.21 110.638 92.0722C109.414 93.7155 107.914 96.8457 107.181 98.8025C110.176 101.482 112.883 102.454 116.41 103.772C116.401 103.604 116.532 103.448 116.532 103.277C116.532 97.8412 121.317 93.4237 126.753 93.4237C131.624 93.4237 135.659 96.9661 136.446 101.613C138.876 100.067 141.227 98.8818 143.018 96.59C142.601 96.08 142.15 94.6366 142.15 93.9261C142.15 92.2903 143.477 90.9638 145.113 90.9638C145.344 90.9638 145.567 90.9972 145.783 91.0474C146.693 89.1784 147.379 87.1974 147.818 85.1546C139.317 78.8614 122.87 79.7199 122.87 79.7199C122.87 79.7199 109.782 79.037 100.922 83.3549C101.513 87.6271 103.217 91.6884 105.731 95.1238Z" fill="white"/>
<path d="M146.36 92.672C146.961 93.2136 147.288 93.6892 147.547 94.1523C148.341 95.5816 146.747 96.8897 145.111 96.8897C144.945 96.8897 144.784 96.8671 144.624 96.8404C142.782 99.7208 139.553 103.414 136.686 105.274C141.083 105.994 145.229 107.755 148.53 110.476C150.933 106.171 152.776 99.954 152.776 94.673C152.776 90.6533 151.002 87.707 148.323 85.5454C148.182 87.6987 147.033 90.7102 146.36 92.672Z" fill="white"/>
<path d="M110.666 119.942C112.132 115.895 115.736 112.76 119.145 110.001C118.646 109.319 117.898 107.628 117.586 106.827C113.427 105.563 109.749 103.196 106.894 100.062C106.874 100.153 106.848 100.241 106.826 100.333C106.288 102.74 106.19 105.154 106.457 107.507C108.448 107.879 109.956 109.623 109.956 111.722C109.956 112.967 108.865 114.77 108.018 115.555C108.939 117.541 109.566 118.499 110.666 119.942Z" fill="white"/>
<path d="M110.405 123.338C108.658 121.601 107.449 118.135 106.315 115.958C106.103 115.99 105.886 116.013 105.664 116.013C103.293 116.013 100.809 114.024 101.371 111.722C101.682 110.448 102.561 109.615 103.993 108.92C103.667 106.281 103.578 102.487 104.192 99.744C104.367 98.9591 104.739 98.5913 104.985 97.8441C102.369 94.0168 100.68 88.9932 100.68 84.009C100.68 83.8268 100.689 83.6471 100.693 83.4666C96.2731 85.6833 92.959 89.1754 92.959 94.6729C92.959 106.833 99.9626 118.762 110.383 123.437C110.39 123.405 110.397 123.371 110.405 123.338Z" fill="white"/>
<path d="M136.032 106.528C134.685 110.358 131.044 113.109 126.754 113.109C124.459 113.109 122.353 112.317 120.68 111.001C117.23 113.688 114.1 118.407 112.51 122.501C113.224 123.269 113.721 123.901 114.522 124.583C116.935 125.211 120.258 124.583 122.871 124.583C133.378 124.583 142.683 119.909 148.018 111.712C144.471 109.256 140.286 106.917 136.032 106.528Z" fill="white"/>
<path d="M105.46 96.5448C106.27 94.751 107.286 93.091 108.473 91.5874C108.342 91.2321 108.264 90.8485 108.264 90.4447C108.264 88.6426 109.726 87.1799 111.529 87.1799C111.955 87.1799 112.361 87.2643 112.732 87.4122C118.136 83.2939 125.251 81.4985 132.4 83.0967C133.052 83.2438 133.693 83.4218 134.321 83.6174C127.256 82.6378 119.955 84.8035 114.539 89.1767C114.704 89.5662 114.794 89.9959 114.794 90.4447C114.794 92.2477 113.332 93.7095 111.529 93.7095C111.119 93.7095 110.728 93.631 110.366 93.4931C109.142 95.1364 108.142 96.9519 107.408 98.9094C109.981 101.682 113.139 103.874 116.665 105.192C116.658 105.024 116.64 104.858 116.64 104.687C116.64 99.2513 121.046 94.8447 126.482 94.8447C131.354 94.8447 135.387 98.387 136.175 103.034C138.605 101.488 140.765 99.502 142.556 97.2102C142.137 96.7002 141.878 96.0575 141.878 95.347C141.878 93.7112 143.205 92.3847 144.842 92.3847C145.073 92.3847 145.295 92.4182 145.512 92.4683C146.421 90.5993 147.107 88.6184 147.546 86.5755C139.046 80.2824 122.598 81.1408 122.598 81.1408C122.598 81.1408 109.51 80.4579 100.65 84.7759C101.241 89.048 102.945 93.1094 105.46 96.5448Z" fill="#1287B1"/>
<path d="M146.821 93.1566C147.421 93.6983 147.807 94.4747 147.807 95.3474C147.807 96.9832 146.48 98.3105 144.844 98.3105C144.678 98.3105 144.517 98.288 144.358 98.2612C142.514 101.142 140.072 103.597 137.203 105.456C141.443 106.119 145.433 107.918 148.732 110.64C151.136 106.334 152.509 101.375 152.509 96.0939C152.509 92.0742 150.734 89.1278 148.055 86.9663C147.915 89.1195 147.493 91.1949 146.821 93.1566Z" fill="#1287B1"/>
<path d="M111.118 120.914C112.584 116.868 115.13 113.237 118.539 110.479C118.041 109.795 117.629 109.049 117.317 108.248C113.158 106.984 109.479 104.616 106.626 101.483C106.605 101.574 106.578 101.662 106.558 101.754C106.019 104.162 105.92 106.575 106.189 108.929C108.179 109.299 109.687 111.044 109.687 113.143C109.687 114.388 109.153 115.507 108.306 116.292C109.074 117.92 110.019 119.471 111.118 120.914Z" fill="#1287B1"/>
<path d="M110.396 123.289C108.649 121.552 107.182 119.555 106.048 117.38C105.836 117.412 105.618 117.434 105.396 117.434C103.026 117.434 101.104 115.513 101.104 113.143C101.104 111.445 102.094 109.98 103.525 109.285C103.201 106.647 103.311 103.908 103.925 101.165C104.1 100.381 104.314 99.6154 104.561 98.8672C101.945 95.0407 100.413 90.4143 100.413 85.43C100.413 85.2478 100.421 85.0681 100.426 84.8884C96.0056 87.1042 92.6914 90.5973 92.6914 96.0939C92.6914 108.255 99.9533 118.712 110.374 123.388C110.381 123.355 110.388 123.322 110.396 123.289Z" fill="#1287B1"/>
<path d="M135.761 107.949C134.414 111.779 130.773 114.53 126.482 114.53C124.187 114.53 122.082 113.738 120.409 112.423C116.959 115.109 114.355 118.771 112.766 122.866C113.479 123.634 114.24 124.358 115.041 125.038C117.455 125.667 119.988 126.003 122.599 126.003C133.106 126.003 142.343 120.579 147.679 112.384C144.131 109.926 140.015 108.339 135.761 107.949Z" fill="#1287B1"/>
<path d="M136.107 105.412L145.201 103.243L136.073 102.777L143.501 97.0999L135.072 100.122L140.801 92.1834L132.889 97.4418L135.656 88.1496L130.222 95.8085L130.098 86.1301L126.524 94.7512L123.543 86.0273L123.704 96.3042L118.552 87.0922L121.341 96.8735L112.984 90.7967L119.53 99.0216L109.156 95.2067L117.344 101.264L106.845 101.587L117.579 104.357L106.836 106.68L117.441 107.449L108.497 113.175L117.706 109.836L111.316 117.928L119.391 111.418L116.483 122.276L122.716 113.439L121.843 123.876L125.38 114.415L128.393 124.359L129.124 114.385L133.595 122.894L130.954 113.161L139.139 119.502L133.855 111.418L142.836 114.916L135.968 108.168L145.177 108.892L136.107 105.412Z" fill="white"/>
<g opacity="0.350006">
<g opacity="0.350006">
<path opacity="0.350006" d="M39.2949 122.811C67.4968 94.6104 90.0206 85.9041 110.463 81.9297C113.167 81.4039 113.678 75.4935 113.678 75.4935C113.678 75.4935 114.057 79.8467 115.95 80.4142C117.843 80.9826 120.303 73.6004 120.303 73.6004C120.303 73.6004 118.032 80.2254 120.303 80.604C122.575 80.9826 126.738 74.1687 126.738 74.1687C126.738 74.1687 125.035 80.0356 126.171 80.4142C127.305 80.7929 132.984 71.8977 132.984 71.8977C132.984 71.8977 129.577 77.7646 132.795 78.333C136.013 78.9005 140.708 74.3283 140.708 74.3283C140.708 74.3283 137.017 78.5118 138.662 79.0894C145.665 81.5511 151.332 72.4485 151.332 72.4485C151.332 72.4485 150.02 76.4398 146.613 80.7929C153.993 82.6853 159.475 71.5658 159.475 71.5658L153.993 82.6853C156.833 84.2007 168.19 71.1404 168.19 71.1404C168.19 71.1404 162.322 81.3613 158.915 83.4426C160.807 84.9572 167.621 78.9005 167.621 78.9005C167.621 78.9005 162.133 85.7136 164.214 86.0922C167.243 88.553 178.409 73.4114 178.409 73.4114C178.409 73.4114 174.057 82.3067 167.621 89.3103C173.001 92.0009 186.36 74.7362 186.36 74.7362C186.36 74.7362 185.981 80.2253 176.327 88.9316C183.521 87.9855 192.795 74.3576 192.795 74.3576C192.795 74.3576 189.388 84.5785 181.249 91.7702C188.311 91.0355 199.607 73.6004 199.607 73.6004C199.607 73.6004 195.255 85.7136 186.36 92.7172C196.202 94.8938 210.398 80.2253 210.398 80.2253C210.398 80.2253 204.814 90.636 197.526 94.8938C205.665 98.0166 216.833 85.1461 216.833 85.1461C216.833 85.1461 205.665 102.371 187.874 101.613C182.037 101.365 164.38 83.9031 126.549 85.3358C76.5817 87.229 65.9831 108.427 39.2949 122.811Z" fill="white"/>
</g>
</g>
<path d="M40.4531 120.67C68.6549 92.4684 91.178 83.763 111.62 79.7876C114.326 79.2619 114.837 73.3523 114.837 73.3523C114.837 73.3523 115.214 77.7063 117.109 78.273C119.001 78.8406 121.461 71.46 121.461 71.46C121.461 71.46 119.19 78.085 121.461 78.4628C123.733 78.8406 127.897 72.0275 127.897 72.0275C127.897 72.0275 126.193 77.8944 127.328 78.273C128.464 78.6517 134.141 69.7556 134.141 69.7556C134.141 69.7556 130.735 75.6234 133.953 76.1909C137.17 76.7594 141.866 72.1872 141.866 72.1872C141.866 72.1872 138.175 76.3707 139.82 76.9482C146.823 79.409 152.489 70.3073 152.489 70.3073C152.489 70.3073 151.176 74.2985 147.771 78.6517C155.151 80.5449 160.633 69.4238 160.633 69.4238L155.151 80.5449C157.991 82.0586 169.347 69 169.347 69C169.347 69 163.48 79.2192 160.073 81.3013C161.966 82.8159 168.78 76.7594 168.78 76.7594C168.78 76.7594 163.291 83.5732 165.373 83.951C168.401 86.4126 179.567 71.2702 179.567 71.2702C179.567 71.2702 175.213 80.1663 168.78 87.1691C174.159 89.8606 187.518 72.595 187.518 72.595C187.518 72.595 187.139 78.085 177.486 86.7912C184.678 85.8443 193.953 72.2164 193.953 72.2164C193.953 72.2164 190.546 82.4373 182.406 89.6298C189.469 88.8951 200.765 71.46 200.765 71.46C200.765 71.46 196.414 83.5732 187.518 90.576C197.36 92.7526 211.556 78.085 211.556 78.085C211.556 78.085 205.972 88.4939 198.685 92.7526C206.824 95.8754 217.991 83.0049 217.991 83.0049C217.991 83.0049 206.824 100.229 189.031 99.4721C183.195 99.223 165.537 81.7611 127.706 83.1945C77.7399 85.087 67.1403 106.285 40.4531 120.67Z" fill="#111827"/>
<g opacity="0.350006">
<g opacity="0.350006">
<path opacity="0.350006" d="M38.5566 125.896C53.4617 133.373 67.0904 124.761 84.2664 129.601C97.325 133.282 113.225 137.82 134.8 134.696C156.378 131.575 174.833 122.205 183.635 105.454C186.379 97.979 197.545 107.158 197.545 107.158C197.545 107.158 189.407 103.751 189.597 105.36C189.786 106.969 201.805 112.553 201.805 112.553C201.805 112.553 190.921 109.146 191.584 111.7C192.247 114.255 205.21 124.476 205.21 124.476C205.21 124.476 190.542 113.31 189.313 114.823C188.082 116.338 195.559 122.49 195.559 122.49C195.559 122.49 183.161 114.823 178.807 117.084C175.675 118.709 191.678 129.209 191.678 129.209C191.678 129.209 181.268 121.259 178.807 123.34C176.347 125.424 190.542 142.458 190.542 142.458C190.542 142.458 174.453 125.044 172.845 125.896C171.236 126.747 177.292 135.076 177.292 135.076C177.292 135.076 169.343 126.369 167.167 127.883C164.991 129.398 178.523 152.015 178.523 152.015C178.523 152.015 163.855 128.831 157.798 132.709C167.31 153.577 163.76 156.558 163.76 156.558C163.76 156.558 162.547 135.269 150.701 135.832C144.738 136.117 153.539 151.732 153.539 151.732C153.539 151.732 145.439 137.47 140.044 137.754C149.986 156.57 146.442 164.223 146.442 164.223C146.442 164.223 148.087 148.153 134.602 139.21C139.711 143.752 131.395 164.223 131.395 164.223C131.395 164.223 138.711 134.056 126 139.808C123.991 140.714 125.858 154.855 125.858 154.855C125.858 154.855 123.302 138.671 119.471 139.523C117.237 140.019 105.275 161.952 105.275 161.952C105.275 161.952 115.07 138.245 112.089 139.239C109.918 139.964 105.844 149.744 105.844 149.744C105.844 149.744 107.83 140.091 105.844 139.523C103.856 138.956 92.7829 149.744 92.7829 149.744C92.7829 149.744 101.017 140.091 99.5968 138.103C97.4453 135.092 94.9236 134.95 91.9312 136.117C87.5772 137.813 81.7112 145.769 81.7112 145.769C81.7112 145.769 87.5588 137.714 86.5366 134.696C84.8958 129.848 68.0834 144.065 68.0834 144.065C68.0834 144.065 78.02 134.696 75.749 132.709C73.4779 130.722 61.1457 131.336 57.2949 131.326C45.939 131.29 42.0037 128.626 38.5566 125.896Z" fill="white"/>
</g>
</g>
<path d="M37.9922 124.192C52.8971 131.668 66.525 123.057 83.701 127.898C96.7596 131.578 112.66 136.116 134.237 132.993C155.814 129.869 174.267 120.501 183.069 103.751C185.814 96.2751 196.98 105.454 196.98 105.454C196.98 105.454 188.842 102.048 189.032 103.657C189.221 105.265 201.239 110.848 201.239 110.848C201.239 110.848 190.356 107.442 191.018 109.998C191.681 112.551 204.646 122.773 204.646 122.773C204.646 122.773 189.977 111.605 188.747 113.12C187.518 114.634 194.994 120.785 194.994 120.785C194.994 120.785 182.596 113.12 178.242 115.38C175.111 117.004 191.113 127.504 191.113 127.504C191.113 127.504 180.702 119.555 178.242 121.637C175.782 123.72 189.978 140.753 189.978 140.753C189.978 140.753 173.888 123.34 172.281 124.192C170.672 125.045 176.728 133.372 176.728 133.372C176.728 133.372 168.778 124.665 166.603 126.18C164.426 127.694 177.958 150.312 177.958 150.312C177.958 150.312 163.29 127.126 157.233 131.005C166.744 151.873 163.196 154.855 163.196 154.855C163.196 154.855 161.982 133.565 150.135 134.13C144.173 134.413 152.973 150.028 152.973 150.028C152.973 150.028 144.873 135.765 139.48 136.05C149.423 154.866 145.878 162.519 145.878 162.519C145.878 162.519 147.521 146.448 134.036 137.506C139.146 142.048 130.83 162.519 130.83 162.519C130.83 162.519 138.147 132.352 125.436 138.104C123.428 139.011 125.294 153.151 125.294 153.151C125.294 153.151 122.738 136.968 118.907 137.819C116.671 138.315 104.709 160.248 104.709 160.248C104.709 160.248 114.505 136.542 111.524 137.537C109.352 138.259 105.278 148.04 105.278 148.04C105.278 148.04 107.265 138.387 105.278 137.819C103.291 137.252 92.2184 148.04 92.2184 148.04C92.2184 148.04 100.452 138.387 99.0315 136.4C96.88 133.388 94.3582 133.248 91.3667 134.413C87.0119 136.109 81.1458 144.065 81.1458 144.065C81.1458 144.065 86.9935 136.01 85.972 132.993C84.3304 128.145 67.5188 142.362 67.5188 142.362C67.5188 142.362 77.4555 132.993 75.1836 131.005C72.9127 129.018 60.5803 129.633 56.7295 129.621C45.3736 129.586 41.4393 126.923 37.9922 124.192Z" fill="#111827"/>
</svg>
