<svg width="256" height="256" viewBox="0 0 256 256" fill="none" xmlns="http://www.w3.org/2000/svg">
<path d="M0 56C0 25.0721 25.0721 0 56 0H200C230.928 0 256 25.0721 256 56V200C256 230.928 230.928 256 200 256H56C25.0721 256 0 230.928 0 200V56Z" fill="#22272E"/>
<path d="M49.0366 173.087C50.7307 173.087 52.3355 173.489 53.1389 174.291C53.2726 175.54 52.1572 177.546 51.4439 177.546C50.5969 177.234 49.7945 177.054 48.8137 177.054C44.757 177.054 42.75 181.247 42.75 185.392C42.75 187.978 43.6417 189.539 45.6933 189.539C47.8776 189.539 50.1065 188.068 51.3548 186.953C51.6668 187.175 52.068 187.89 52.068 188.691C52.068 189.583 51.8005 190.431 50.9982 191.232C49.5716 192.659 47.1644 193.863 43.6863 193.863C39.6741 193.863 36.9102 191.589 36.9102 186.284C36.9102 179.329 41.5018 173.087 48.9921 173.087H49.0366Z" fill="white"/>
<path d="M62.1411 189.316C64.3254 189.316 68.2939 185.481 69.4084 178.17C69.453 177.725 69.4976 177.591 69.5867 177.145C69.0963 176.966 68.4277 176.833 67.7581 176.833C66.1086 176.833 64.4146 177.323 62.899 179.374C61.3387 181.558 60.67 184.277 60.67 186.462C60.67 188.334 61.2049 189.316 62.0965 189.316H62.1411ZM54.9629 187.31C54.9629 184.68 55.8545 180.087 59.1988 176.743C62.0519 173.801 65.5291 173.087 68.6952 173.087C70.7904 173.087 73.6434 173.755 75.4266 174.113C74.9808 176.074 73.9109 183.474 73.4205 187.755C73.1976 189.583 73.1084 192.124 73.1976 193.061C71.7265 193.684 68.9627 193.863 68.2039 193.863C67.8035 193.863 67.7135 192.035 67.8481 190.297C67.8918 189.717 67.9819 188.87 68.0255 188.513C66.2869 191.411 62.8544 193.863 59.2434 193.863C56.6578 193.863 54.9629 191.723 54.9629 187.354V187.31Z" fill="white"/>
<path d="M86.5267 173.087C88.3544 173.087 90.0929 173.756 90.8963 174.603C90.8517 175.852 89.871 177.946 88.3099 177.367C87.6411 177.144 86.9725 176.966 86.0808 176.966C84.8772 176.966 83.8519 177.502 83.8519 178.615C83.8519 179.462 84.476 180.087 87.4628 182.182C89.6035 183.743 90.4505 185.125 90.4505 187.086C90.4505 190.341 87.3736 193.863 82.0241 193.863C79.8398 193.863 77.922 193.016 77.2978 192.124C76.4954 190.787 77.1195 188.157 78.012 188.602C79.1711 189.181 81.088 189.806 82.6483 189.806C84.1194 189.806 85.0555 189.136 85.0555 188.245C85.0555 187.488 84.3869 186.818 81.6676 184.902C79.3931 183.208 78.6798 181.647 78.6798 179.864C78.6798 176.165 81.8458 173.087 86.4821 173.087H86.5267Z" fill="white"/>
<path d="M101.905 173.087C103.734 173.087 105.472 173.756 106.275 174.603C106.23 175.852 105.25 177.946 103.689 177.367C103.02 177.144 102.351 176.966 101.46 176.966C100.256 176.966 99.2312 177.502 99.2312 178.615C99.2312 179.462 99.8546 180.087 102.842 182.182C104.981 183.743 105.829 185.125 105.829 187.086C105.829 190.341 102.751 193.863 97.4022 193.863C95.2178 193.863 93.3009 193.016 92.6768 192.124C91.8743 190.787 92.4985 188.157 93.39 188.602C94.5491 189.181 96.466 189.806 98.0263 189.806C99.4978 189.806 100.433 189.136 100.433 188.245C100.433 187.488 99.7654 186.818 97.0456 184.902C94.772 183.208 94.0588 181.647 94.0588 179.864C94.0588 176.165 97.2238 173.087 101.861 173.087H101.905Z" fill="white"/>
<path d="M115.946 189.316C118.131 189.316 122.099 185.481 123.213 178.17C123.258 177.725 123.303 177.591 123.392 177.145C122.901 176.966 122.234 176.833 121.564 176.833C119.915 176.833 118.22 177.323 116.704 179.374C115.145 181.558 114.475 184.277 114.475 186.462C114.475 188.334 115.01 189.316 115.902 189.316H115.946ZM108.768 187.31C108.768 184.68 109.661 180.087 113.003 176.743C115.856 173.801 119.334 173.087 122.5 173.087C124.596 173.087 127.45 173.755 129.233 174.113C128.787 176.074 127.716 183.474 127.227 187.755C127.003 189.583 126.915 192.124 127.003 193.061C125.531 193.684 122.768 193.863 122.01 193.863C121.61 193.863 121.519 192.035 121.653 190.297C121.698 189.717 121.787 188.87 121.832 188.513C120.093 191.411 116.66 193.863 113.049 193.863C110.463 193.863 108.768 191.723 108.768 187.354V187.31Z" fill="white"/>
<path d="M139.306 178.883C141.357 175.584 144.031 173.087 147.777 173.087C150.942 173.087 151.968 176.03 151.389 180.22C151.077 182.182 150.541 184.991 150.185 187.576C149.872 189.762 149.649 191.723 149.695 193.061C148.536 193.641 145.147 193.864 144.389 193.864C144.077 193.864 144.031 191.411 144.434 188.825C144.789 186.685 145.548 182.807 145.904 180.577C146.128 179.285 146.083 177.723 144.835 177.723C143.184 177.723 139.262 180.355 137.3 191.143C137.165 192.035 136.81 192.569 136.318 192.881C135.65 193.284 134.223 193.641 131.326 193.685C131.861 190.966 132.709 185.392 133.332 181.291C133.911 177.546 134.135 175.138 134 174.202C134.759 173.935 138.727 173.087 139.171 173.087C139.664 173.087 139.752 174.47 139.306 177.814C139.262 178.126 139.217 178.615 139.171 178.883H139.306Z" fill="white"/>
<path d="M161.953 189.271C163.914 189.271 167.883 185.615 168.997 179.151C169.042 178.794 169.176 178.126 169.265 177.724C168.685 177.188 167.926 176.832 166.724 176.832C162.22 176.832 160.214 182.227 160.214 186.106C160.214 188.201 160.928 189.271 161.908 189.271H161.953ZM159.011 193.863C156.158 193.863 154.375 191.322 154.375 186.953C154.375 179.73 158.876 173.087 166.456 173.087C167.794 173.087 168.997 173.443 169.755 173.889C170.156 171.839 171.092 165.508 171.137 163.635C172.385 163.413 175.06 163.013 176.263 163.013C176.756 163.013 176.889 163.502 176.71 164.616C175.639 171.304 173.724 184.143 173.366 186.998C173.098 189.405 173.054 191.768 173.098 193.104C171.673 193.729 168.774 193.863 168.017 193.863C167.703 193.863 167.526 191.812 167.615 189.985C167.66 189.405 167.748 188.557 167.748 188.424C165.519 192.08 162.443 193.863 159.055 193.863H159.011Z" fill="white"/>
<path d="M185.133 179.507C187.497 174.246 190.305 173.087 192.133 173.087C192.713 173.087 193.604 173.444 194.005 173.89C194.185 175.361 193.025 178.303 191.999 179.417C191.463 179.151 190.796 178.883 190.038 178.883C188.521 178.883 185.534 181.247 183.662 191.411C183.527 192.258 183.26 192.615 182.771 192.838C182.014 193.284 179.026 193.641 177.6 193.685C178.266 190.028 179.426 182.584 179.873 178.214C180.007 177.099 180.05 175.049 179.962 174.246C180.809 173.846 184.153 173.087 184.91 173.087C185.312 173.087 185.624 175.54 184.999 179.507H185.133Z" fill="white"/>
<path d="M200.87 189.316C203.056 189.316 207.022 185.481 208.138 178.17C208.181 177.725 208.227 177.591 208.316 177.145C207.826 176.966 207.157 176.833 206.488 176.833C204.838 176.833 203.144 177.323 201.628 179.374C200.068 181.558 199.398 184.277 199.398 186.462C199.398 188.334 199.933 189.316 200.826 189.316H200.87ZM193.691 187.31C193.691 184.68 194.583 180.087 197.927 176.743C200.78 173.801 204.258 173.087 207.423 173.087C209.518 173.087 212.372 173.755 214.156 174.113C213.71 176.074 212.64 183.474 212.15 187.755C211.927 189.583 211.836 192.124 211.927 193.061C210.456 193.684 207.692 193.863 206.933 193.863C206.532 193.863 206.443 192.035 206.577 190.297C206.622 189.717 206.71 188.87 206.755 188.513C205.016 191.411 201.584 193.863 197.973 193.863C195.386 193.863 193.691 191.723 193.691 187.354V187.31Z" fill="white"/>
<path d="M187.777 97.5383C189.248 114.675 162.279 130.985 127.541 133.966C92.8022 136.946 63.4486 125.467 61.9793 108.331C60.5082 91.1914 87.4777 74.8819 122.216 71.9015C156.954 68.9222 186.308 80.3985 187.777 97.5383Z" fill="#BBE6FB"/>
<g opacity="0.350006">
<g opacity="0.350006">
<path opacity="0.350006" d="M123.234 73.9113C109.983 73.6959 94.4767 78.9571 82.9391 83.884C81.7382 87.3445 81.0918 91.0251 81.0918 94.8404C81.0918 115.169 99.4469 131.65 122.091 131.65C144.734 131.65 163.089 115.169 163.089 94.8404C163.089 88.407 161.248 82.3628 158.016 77.1007C148.785 75.6658 136.089 74.1203 123.234 73.9113Z" fill="white"/>
</g>
</g>
<path d="M122.09 73.9074C114.755 73.4597 102.11 77.287 91.5661 81.105C89.964 84.8859 89.0742 89.0234 89.0742 93.3652C89.0742 111.177 105.223 125.615 122.306 125.615C139.277 125.615 154.292 111.153 155.538 93.3652C155.943 87.5728 153.95 82.1146 151.18 77.4087C140.25 75.4834 128.648 74.3076 122.09 73.9074Z" fill="white"/>
<path d="M103.265 91.0266C104.166 89.0335 105.529 88.0574 106.85 86.3867C106.702 85.991 106.382 84.6973 106.382 84.2487C106.382 82.2464 108.006 80.6211 110.009 80.6211C110.482 80.6211 110.933 80.7149 111.347 80.8792C117.351 76.3034 125.255 74.3084 133.199 76.0843C133.925 76.2477 134.636 76.4455 135.334 76.6628C127.484 75.5743 118.635 78.355 112.615 83.2132C112.799 83.6468 113.309 84.8868 113.309 85.3855C113.309 87.3888 112.013 87.8763 110.009 87.8763C109.555 87.8763 109.119 87.789 108.718 87.6358C107.358 89.4617 105.691 92.9398 104.876 95.114C108.204 98.0914 111.212 99.1708 115.131 100.635C115.121 100.449 115.266 100.275 115.266 100.086C115.266 94.0459 120.583 89.1375 126.623 89.1375C132.036 89.1375 136.518 93.0735 137.393 98.2373C140.094 96.5191 142.705 95.2021 144.695 92.6556C144.232 92.089 143.731 90.4852 143.731 89.6957C143.731 87.8782 145.206 86.4043 147.023 86.4043C147.28 86.4043 147.528 86.4414 147.767 86.4971C148.779 84.4206 149.541 82.2194 150.028 79.9496C140.583 72.9571 122.308 73.911 122.308 73.911C122.308 73.911 107.767 73.1522 97.9219 77.95C98.5785 82.6968 100.472 87.2095 103.265 91.0266Z" fill="white"/>
<path d="M148.411 88.3023C149.079 88.9041 149.443 89.4326 149.73 89.9472C150.613 91.5352 148.842 92.9887 147.023 92.9887C146.839 92.9887 146.66 92.9636 146.483 92.9339C144.436 96.1344 140.848 100.238 137.662 102.304C142.548 103.105 147.155 105.061 150.822 108.085C153.492 103.302 155.54 96.3935 155.54 90.5257C155.54 86.0594 153.569 82.7856 150.592 80.3839C150.436 82.7764 149.159 86.1226 148.411 88.3023Z" fill="white"/>
<path d="M108.747 118.602C110.376 114.106 114.38 110.622 118.168 107.557C117.614 106.799 116.782 104.92 116.436 104.03C111.815 102.626 107.728 99.9954 104.556 96.5132C104.534 96.6144 104.505 96.7128 104.481 96.8141C103.883 99.4893 103.774 102.171 104.071 104.786C106.283 105.199 107.958 107.137 107.958 109.469C107.958 110.852 106.746 112.856 105.805 113.728C106.828 115.934 107.525 116.999 108.747 118.602Z" fill="white"/>
<path d="M108.459 122.376C106.518 120.446 105.175 116.594 103.914 114.175C103.679 114.212 103.437 114.236 103.19 114.236C100.556 114.236 97.7969 112.026 98.4209 109.469C98.7664 108.053 99.743 107.128 101.334 106.355C100.972 103.423 100.873 99.2082 101.555 96.16C101.75 95.2878 102.163 94.8792 102.436 94.049C99.5303 89.7963 97.6529 84.2146 97.6529 78.6765C97.6529 78.4741 97.6631 78.2744 97.6677 78.0739C92.7566 80.5369 89.0742 84.4171 89.0742 90.5254C89.0742 104.036 96.8561 117.291 108.434 122.486C108.443 122.45 108.45 122.412 108.459 122.376Z" fill="white"/>
<path d="M136.931 103.698C135.434 107.953 131.389 111.01 126.622 111.01C124.071 111.01 121.732 110.13 119.873 108.668C116.04 111.653 112.562 116.897 110.795 121.446C111.588 122.299 112.141 123.001 113.031 123.759C115.712 124.457 119.404 123.759 122.307 123.759C133.981 123.759 144.321 118.566 150.249 109.458C146.307 106.729 141.657 104.13 136.931 103.698Z" fill="white"/>
<path d="M102.967 92.6057C103.867 90.6126 104.996 88.7681 106.315 87.0973C106.169 86.7026 106.083 86.2763 106.083 85.8278C106.083 83.8253 107.707 82.2001 109.711 82.2001C110.184 82.2001 110.635 82.2939 111.048 82.4583C117.052 77.8824 124.957 75.8875 132.9 77.6632C133.625 77.8267 134.337 78.0245 135.035 78.2418C127.185 77.1534 119.073 79.5598 113.054 84.4188C113.238 84.8516 113.339 85.329 113.339 85.8278C113.339 87.831 111.713 89.4553 109.711 89.4553C109.255 89.4553 108.821 89.3681 108.418 89.2148C107.059 91.0407 105.947 93.058 105.132 95.233C107.99 98.3136 111.499 100.749 115.417 102.214C115.409 102.027 115.389 101.843 115.389 101.653C115.389 95.6129 120.284 90.7166 126.325 90.7166C131.738 90.7166 136.219 94.6526 137.095 99.8159C139.795 98.0982 142.195 95.8915 144.185 93.3449C143.72 92.7783 143.432 92.0642 143.432 91.2748C143.432 89.4572 144.906 87.9833 146.725 87.9833C146.982 87.9833 147.229 88.0205 147.469 88.0762C148.479 85.9995 149.242 83.7985 149.729 81.5286C140.285 74.5362 122.009 75.49 122.009 75.49C122.009 75.49 107.467 74.7312 97.623 79.5291C98.2797 84.2758 100.173 88.7885 102.967 92.6057Z" fill="#1287B1"/>
<path d="M148.921 88.8408C149.588 89.4427 150.016 90.3054 150.016 91.275C150.016 93.0925 148.542 94.5673 146.724 94.5673C146.54 94.5673 146.361 94.5423 146.184 94.5126C144.136 97.713 141.423 100.441 138.234 102.507C142.945 103.244 147.379 105.242 151.044 108.267C153.715 103.482 155.241 97.9721 155.241 92.1044C155.241 87.6381 153.269 84.3643 150.292 81.9626C150.137 84.355 149.668 86.661 148.921 88.8408Z" fill="#1287B1"/>
<path d="M109.249 119.683C110.877 115.187 113.706 111.152 117.494 108.088C116.94 107.328 116.483 106.499 116.136 105.61C111.515 104.204 107.427 101.574 104.257 98.092C104.234 98.1934 104.204 98.2918 104.181 98.393C103.583 101.069 103.473 103.75 103.771 106.366C105.983 106.777 107.658 108.716 107.658 111.048C107.658 112.431 107.064 113.674 106.124 114.547C106.977 116.355 108.027 118.079 109.249 119.683Z" fill="#1287B1"/>
<path d="M108.448 122.321C106.506 120.391 104.876 118.173 103.617 115.756C103.38 115.791 103.138 115.816 102.892 115.816C100.258 115.816 98.1231 113.681 98.1231 111.047C98.1231 109.161 99.2222 107.533 100.813 106.761C100.452 103.83 100.575 100.787 101.257 97.739C101.452 96.8678 101.69 96.0171 101.963 95.1859C99.0573 90.9342 97.355 85.7936 97.355 80.2556C97.355 80.0531 97.3643 79.8535 97.3689 79.6538C92.4578 82.1158 88.7754 85.997 88.7754 92.1044C88.7754 105.617 96.8442 117.236 108.423 122.431C108.431 122.395 108.438 122.357 108.448 122.321Z" fill="#1287B1"/>
<path d="M136.632 105.276C135.136 109.532 131.091 112.588 126.323 112.588C123.773 112.588 121.434 111.709 119.574 110.248C115.741 113.232 112.848 117.301 111.082 121.851C111.874 122.705 112.721 123.509 113.611 124.265C116.293 124.964 119.106 125.337 122.008 125.337C133.683 125.337 143.946 119.31 149.875 110.204C145.932 107.473 141.36 105.71 136.632 105.276Z" fill="#1287B1"/>
<path d="M137.016 102.458L147.12 100.047L136.978 99.5297L145.231 93.222L135.866 96.5793L142.231 87.7592L133.44 93.6019L136.514 83.2771L130.477 91.7871L130.339 81.0333L126.368 90.6123L123.055 80.9191L123.235 92.3378L117.51 82.1022L120.608 92.9703L111.324 86.2184L118.596 95.3571L107.071 91.1184L116.167 97.8489L104.503 98.2074L116.429 101.286L104.492 103.866L116.275 104.721L106.338 111.084L116.57 107.374L109.471 116.365L118.442 109.131L115.211 121.196L122.137 111.377L121.166 122.973L125.097 112.461L128.444 123.51L129.257 112.428L134.224 121.882L131.29 111.068L140.385 118.113L134.514 109.131L144.492 113.018L136.862 105.52L147.093 106.324L137.016 102.458Z" fill="white"/>
<g opacity="0.350006">
<g opacity="0.350006">
<path opacity="0.350006" d="M29.4512 121.79C60.7867 90.456 85.8132 80.7822 108.527 76.3662C111.531 75.782 112.1 69.2149 112.1 69.2149C112.1 69.2149 112.521 74.0518 114.624 74.6823C116.727 75.3139 119.46 67.1114 119.46 67.1114C119.46 67.1114 116.937 74.4725 119.46 74.8932C121.985 75.3139 126.61 67.7429 126.61 67.7429C126.61 67.7429 124.719 74.2617 125.981 74.6823C127.241 75.1031 133.55 65.2195 133.55 65.2195C133.55 65.2195 129.764 71.7383 133.34 72.3698C136.916 73.0004 142.132 67.9202 142.132 67.9202C142.132 67.9202 138.031 72.5685 139.859 73.2103C147.641 75.9455 153.937 65.8315 153.937 65.8315C153.937 65.8315 152.479 70.2663 148.693 75.1031C156.894 77.2057 162.985 64.8508 162.985 64.8508L156.894 77.2057C160.049 78.8895 172.668 64.3781 172.668 64.3781C172.668 64.3781 166.149 75.7346 162.363 78.0472C164.465 79.7301 172.036 73.0004 172.036 73.0004C172.036 73.0004 165.938 80.5706 168.251 80.9912C171.616 83.7255 184.023 66.9014 184.023 66.9014C184.023 66.9014 179.188 76.7851 172.036 84.5669C178.014 87.5565 192.857 68.3735 192.857 68.3735C192.857 68.3735 192.436 74.4724 181.71 84.1461C189.702 83.0949 200.007 67.9528 200.007 67.9528C200.007 67.9528 196.222 79.3093 187.178 87.3001C195.025 86.4838 207.576 67.1114 207.576 67.1114C207.576 67.1114 202.74 80.5706 192.857 88.3524C203.793 90.7708 219.566 74.4724 219.566 74.4724C219.566 74.4724 213.362 86.0399 205.264 90.7708C214.308 94.2406 226.716 79.94 226.716 79.94C226.716 79.94 214.308 99.0785 194.54 98.2369C188.054 97.9611 168.434 78.5589 126.401 80.1507C70.8811 82.2544 59.1047 105.808 29.4512 121.79Z" fill="white"/>
</g>
</g>
<path d="M30.7363 119.411C62.0717 88.076 87.0974 78.4034 109.81 73.9862C112.817 73.4021 113.385 66.8359 113.385 66.8359C113.385 66.8359 113.804 71.6737 115.91 72.3034C118.012 72.9341 120.745 64.7333 120.745 64.7333C120.745 64.7333 118.222 72.0945 120.745 72.5142C123.269 72.9341 127.896 65.3639 127.896 65.3639C127.896 65.3639 126.003 71.8827 127.265 72.3034C128.527 72.7241 134.835 62.8396 134.835 62.8396C134.835 62.8396 131.05 69.3593 134.625 69.9899C138.2 70.6215 143.417 65.5414 143.417 65.5414C143.417 65.5414 139.316 70.1897 141.144 70.8313C148.925 73.5656 155.221 63.4525 155.221 63.4525C155.221 63.4525 153.762 67.8873 149.978 72.7241C158.179 74.8277 164.27 62.4709 164.27 62.4709L158.179 74.8277C161.334 76.5096 173.952 62 173.952 62C173.952 62 167.433 73.3547 163.648 75.6682C165.751 77.3511 173.322 70.6215 173.322 70.6215C173.322 70.6215 167.223 78.1925 169.537 78.6122C172.901 81.3474 185.308 64.5225 185.308 64.5225C185.308 64.5225 180.47 74.407 173.322 82.1879C179.298 85.1784 194.142 65.9945 194.142 65.9945C194.142 65.9945 193.721 72.0945 182.996 81.7681C190.987 80.7159 201.292 65.5738 201.292 65.5738C201.292 65.5738 197.507 76.9304 188.463 84.9221C196.31 84.1057 208.861 64.7333 208.861 64.7333C208.861 64.7333 204.026 78.1925 194.142 85.9734C205.078 88.3918 220.851 72.0945 220.851 72.0945C220.851 72.0945 214.647 83.66 206.55 88.3918C215.593 91.8616 228.001 77.561 228.001 77.561C228.001 77.561 215.593 96.6994 195.823 95.858C189.339 95.5812 169.719 76.179 127.685 77.7717C72.1662 79.8745 60.3889 103.428 30.7363 119.411Z" fill="white"/>
<g opacity="0.350006">
<g opacity="0.350006">
<path opacity="0.350006" d="M28.6289 125.218C45.1901 133.525 60.3331 123.957 79.4176 129.334C93.9272 133.425 111.594 138.466 135.567 134.996C159.541 131.528 180.047 121.117 189.827 102.504C192.877 94.1988 205.283 104.398 205.283 104.398C205.283 104.398 196.241 100.612 196.452 102.401C196.662 104.188 210.016 110.392 210.016 110.392C210.016 110.392 197.923 106.606 198.66 109.445C199.396 112.284 213.8 123.64 213.8 123.64C213.8 123.64 197.502 111.233 196.136 112.914C194.768 114.597 203.076 121.433 203.076 121.433C203.076 121.433 189.3 112.914 184.463 115.427C180.984 117.232 198.764 128.899 198.764 128.899C198.764 128.899 187.197 120.065 184.463 122.378C181.729 124.693 197.502 143.62 197.502 143.62C197.502 143.62 179.625 124.271 177.839 125.218C176.051 126.164 182.78 135.418 182.78 135.418C182.78 135.418 173.948 125.744 171.53 127.426C169.112 129.109 184.148 154.239 184.148 154.239C184.148 154.239 167.85 128.479 161.12 132.788C171.689 155.975 167.744 159.287 167.744 159.287C167.744 159.287 166.396 135.632 153.234 136.258C146.608 136.575 156.388 153.924 156.388 153.924C156.388 153.924 147.387 138.077 141.392 138.394C152.44 159.301 148.502 167.803 148.502 167.803C148.502 167.803 150.33 149.948 135.346 140.012C141.023 145.057 131.783 167.803 131.783 167.803C131.783 167.803 139.911 134.285 125.788 140.676C123.557 141.683 125.631 157.394 125.631 157.394C125.631 157.394 122.791 139.412 118.534 140.359C116.052 140.91 102.761 165.28 102.761 165.28C102.761 165.28 113.644 138.939 110.332 140.044C107.919 140.849 103.392 151.716 103.392 151.716C103.392 151.716 105.599 140.99 103.392 140.359C101.184 139.729 88.8805 151.716 88.8805 151.716C88.8805 151.716 98.0294 140.99 96.4515 138.782C94.0609 135.436 91.259 135.278 87.9341 136.575C83.0963 138.459 76.5785 147.299 76.5785 147.299C76.5785 147.299 83.0759 138.349 81.9401 134.996C80.117 129.609 61.4364 145.406 61.4364 145.406C61.4364 145.406 72.4772 134.996 69.9538 132.788C67.4304 130.58 53.7279 131.262 49.4493 131.251C36.8315 131.212 32.459 128.251 28.6289 125.218Z" fill="white"/>
</g>
</g>
<path d="M28 123.325C44.5611 131.632 59.7032 122.064 78.7877 127.443C93.2973 131.531 110.965 136.574 134.939 133.103C158.913 129.633 179.417 119.223 189.197 100.613C192.246 92.3059 204.654 102.504 204.654 102.504C204.654 102.504 195.611 98.7197 195.822 100.508C196.032 102.295 209.386 108.498 209.386 108.498C209.386 108.498 197.293 104.713 198.029 107.553C198.766 110.391 213.172 121.748 213.172 121.748C213.172 121.748 196.872 109.339 195.506 111.022C194.14 112.705 202.447 119.539 202.447 119.539C202.447 119.539 188.671 111.022 183.834 113.533C180.354 115.338 198.134 127.005 198.134 127.005C198.134 127.005 186.567 118.172 183.834 120.485C181.1 122.8 196.874 141.726 196.874 141.726C196.874 141.726 178.996 122.378 177.21 123.325C175.423 124.272 182.152 133.524 182.152 133.524C182.152 133.524 173.318 123.85 170.901 125.533C168.482 127.215 183.518 152.347 183.518 152.347C183.518 152.347 167.22 126.585 160.49 130.895C171.058 154.082 167.115 157.394 167.115 157.394C167.115 157.394 165.767 133.739 152.603 134.367C145.979 134.682 155.757 152.031 155.757 152.031C155.757 152.031 146.757 136.184 140.764 136.5C151.812 157.407 147.873 165.91 147.873 165.91C147.873 165.91 149.699 148.054 134.716 138.118C140.393 143.165 131.153 165.91 131.153 165.91C131.153 165.91 139.283 132.392 125.16 138.783C122.928 139.791 125.003 155.502 125.003 155.502C125.003 155.502 122.162 137.521 117.905 138.466C115.421 139.017 102.13 163.387 102.13 163.387C102.13 163.387 113.014 137.047 109.703 138.152C107.289 138.955 102.762 149.822 102.762 149.822C102.762 149.822 104.97 139.097 102.762 138.466C100.554 137.836 88.2515 149.822 88.2515 149.822C88.2515 149.822 97.4005 139.097 95.8216 136.889C93.4311 133.542 90.629 133.386 87.3052 134.682C82.4665 136.566 75.9486 145.406 75.9486 145.406C75.9486 145.406 82.446 136.455 81.3111 133.103C79.487 127.717 60.8074 143.513 60.8074 143.513C60.8074 143.513 71.8482 133.103 69.3239 130.895C66.8006 128.687 53.098 129.371 48.8193 129.357C36.2016 129.318 31.8301 126.359 28 123.325Z" fill="white"/>
</svg>
