<svg width="256" height="256" viewBox="0 0 256 256" fill="none" xmlns="http://www.w3.org/2000/svg">
<path d="M126.313 149.463C138.15 149.463 147.745 139.868 147.745 128.031C147.745 116.194 138.15 106.599 126.313 106.599C114.476 106.599 104.881 116.194 104.881 128.031C104.881 139.868 114.476 149.463 126.313 149.463Z" fill="#161616"/>
<path d="M126.307 38.0314C84.369 38.0314 49.1352 66.7177 39.1413 105.531C39.048 105.88 38.9979 106.238 38.9922 106.599C38.9922 108.954 40.9077 110.886 43.2786 110.886H79.5723C80.3938 110.888 81.1984 110.652 81.8883 110.206C82.5782 109.76 83.1237 109.124 83.4583 108.373C83.4583 108.373 83.5133 108.271 83.5368 108.216C88.0464 98.4667 95.7504 90.5494 105.373 85.7754C114.996 81.0014 125.961 79.657 136.452 81.9647C146.944 84.2724 156.332 90.0938 163.064 98.4652C169.795 106.837 173.466 117.256 173.468 127.998C173.47 138.74 169.804 149.161 163.075 157.535C156.347 165.909 146.961 171.734 136.471 174.046C125.98 176.358 115.015 175.018 105.39 170.247C95.7653 165.477 88.0581 157.563 83.5447 147.815L83.4662 147.658C83.1275 146.911 82.5811 146.277 81.8921 145.831C81.2031 145.386 80.4005 145.148 79.5801 145.146H43.2865C42.7233 145.145 42.1654 145.255 41.6449 145.47C41.1244 145.685 40.6514 146.001 40.2532 146.399C39.855 146.797 39.5393 147.27 39.3242 147.791C39.1092 148.311 38.999 148.869 39 149.432C39.0041 149.793 39.0542 150.152 39.1492 150.5C49.1431 189.314 84.3847 218 126.315 218C176.025 217.992 216.394 177.703 216.394 128C216.394 78.2975 176.096 38 126.394 38L126.307 38.0314Z" fill="#161616"/>
</svg>
