<svg width="256" height="256" viewBox="0 0 256 256" fill="none" xmlns="http://www.w3.org/2000/svg">
<path d="M124.264 129.618C123.37 131.557 122.382 133.736 121.36 136.054C117.746 144.242 113.744 154.204 112.282 160.588C111.757 162.86 111.432 165.677 111.438 168.801C111.438 170.037 111.504 171.336 111.609 172.658C116.719 174.535 122.236 175.568 127.999 175.578C133.245 175.568 138.285 174.701 143.003 173.132C141.893 172.118 140.836 171.038 139.873 169.821C133.477 161.665 129.909 149.714 124.264 129.618Z" fill="#91DC47"/>
<path d="M100.653 89.1018C88.4387 97.7095 80.4463 111.906 80.416 127.996C80.4463 143.844 88.1983 157.857 100.105 166.501C103.026 154.336 110.346 143.196 121.324 120.868C120.673 119.076 119.93 117.116 119.098 115.057C116.057 107.428 111.668 98.5677 107.75 94.5555C105.753 92.4597 103.329 90.6484 100.653 89.1018Z" fill="#91DC47"/>
<path d="M169.446 182.572C163.145 181.782 157.943 180.829 153.394 179.225C145.741 183.024 137.123 185.171 127.999 185.171C96.4243 185.171 70.829 159.579 70.8251 127.996C70.8251 110.859 78.3748 95.4963 90.3186 85.0191C87.1242 84.2473 83.7928 83.7968 80.3898 83.803C63.6147 83.961 45.9067 93.2448 38.5344 118.318C37.8451 121.967 38.0093 124.727 38.0093 127.997C38.0093 177.699 78.3025 217.993 128.001 217.993C158.437 217.993 185.325 202.869 201.608 179.74C192.801 181.934 184.332 182.984 177.079 183.006C174.361 183.006 171.809 182.861 169.446 182.572Z" fill="#63B132"/>
<path d="M152.535 165.133C153.091 165.409 154.35 165.858 156.104 166.356C167.895 157.7 175.558 143.755 175.589 127.996H175.584C175.54 101.722 154.278 80.4628 127.998 80.4106C122.775 80.4208 117.757 81.2828 113.059 82.8396C122.72 93.8529 127.367 109.592 131.861 126.808C131.863 126.816 131.867 126.822 131.869 126.829C131.877 126.843 133.306 131.609 135.76 137.933C138.196 144.249 141.668 152.068 145.454 157.766C147.94 161.584 150.673 164.329 152.535 165.133Z" fill="#90B4FE"/>
<path d="M128.001 38C97.8585 38 71.195 52.8386 54.8633 75.5912C63.3629 70.2682 72.0414 68.3481 79.6153 68.4165C90.0762 68.4469 98.3004 71.6903 102.247 73.9091C103.2 74.4584 104.104 75.0497 104.99 75.6573C112.032 72.5562 119.811 70.822 127.999 70.822C159.577 70.8259 185.176 96.4174 185.181 127.996H185.176C185.176 143.916 178.664 158.311 168.167 168.678C170.743 168.967 173.492 169.146 176.298 169.132C186.264 169.137 197.037 166.937 205.114 160.145C210.38 155.708 214.792 149.213 217.239 139.474C217.718 135.713 217.992 131.889 217.992 127.997C217.992 78.2971 177.704 38 128.001 38Z" fill="#5881D8"/>
</svg>
