<svg width="256" height="256" viewBox="0 0 256 256" fill="none" xmlns="http://www.w3.org/2000/svg">
<path d="M0 56C0 25.0721 25.0721 0 56 0H200C230.928 0 256 25.0721 256 56V200C256 230.928 230.928 256 200 256H56C25.0721 256 0 230.928 0 200V56Z" fill="#22272E"/>
<path d="M123.857 129.798C122.863 131.952 121.766 134.373 120.631 136.949C116.615 146.047 112.168 157.116 110.544 164.208C109.961 166.733 109.599 169.864 109.606 173.335C109.606 174.708 109.68 176.151 109.796 177.62C115.473 179.706 121.604 180.853 128.007 180.864C133.836 180.853 139.436 179.889 144.678 178.147C143.445 177.02 142.27 175.82 141.2 174.468C134.094 165.406 130.13 152.127 123.857 129.798Z" fill="#91DC47"/>
<path d="M97.6218 84.7799C84.0508 94.344 75.1704 110.118 75.1367 127.996C75.1704 145.604 83.7837 161.175 97.0132 170.779C100.259 157.262 108.392 144.885 120.59 120.075C119.867 118.085 119.041 115.907 118.117 113.619C114.738 105.142 109.861 95.2976 105.508 90.8396C103.289 88.5109 100.596 86.4984 97.6218 84.7799Z" fill="#91DC47"/>
<path d="M174.06 188.635C167.058 187.758 161.279 186.699 156.225 184.916C147.721 189.138 138.146 191.523 128.007 191.523C92.9246 191.523 64.4854 163.088 64.4811 127.995C64.4811 108.954 72.8695 91.8847 86.1405 80.2433C82.5911 79.3858 78.8896 78.8852 75.1085 78.8922C56.4695 79.0677 36.7939 89.383 28.6024 117.242C27.8365 121.297 28.019 124.363 28.019 127.997C28.019 183.221 72.7892 227.992 128.009 227.992C161.828 227.992 191.703 211.188 209.795 185.488C200.009 187.927 190.6 189.093 182.541 189.118C179.521 189.118 176.686 188.956 174.06 188.635Z" fill="#63B132"/>
<path d="M155.271 169.26C155.889 169.566 157.287 170.065 159.236 170.618C172.338 161 180.852 145.506 180.887 127.996H180.881C180.832 98.802 157.208 75.1811 128.008 75.1232C122.204 75.1345 116.629 76.0922 111.408 77.822C122.143 90.059 127.306 107.547 132.3 126.675C132.302 126.684 132.306 126.691 132.309 126.699C132.317 126.714 133.905 132.01 136.632 139.037C139.339 146.054 143.196 154.743 147.403 161.074C150.165 165.316 153.202 168.366 155.271 169.26Z" fill="#90B4FE"/>
<path d="M128.01 28C94.5185 28 64.8924 44.4874 46.7461 69.768C56.1902 63.8535 65.8329 61.7201 74.2483 61.7961C85.8716 61.8299 95.0096 65.4337 99.3941 67.899C100.453 68.5094 101.458 69.1663 102.442 69.8415C110.266 66.3958 118.91 64.4689 128.008 64.4689C163.094 64.4733 191.538 92.9082 191.543 127.995H191.538C191.538 145.685 184.302 161.679 172.639 173.198C175.501 173.518 178.555 173.718 181.673 173.702C192.747 173.708 204.717 171.263 213.692 163.716C219.543 158.787 224.444 151.57 227.163 140.749C227.695 136.57 228.001 132.321 228.001 127.997C228.001 72.7745 183.236 28 128.01 28Z" fill="#5881D8"/>
</svg>
