<svg width="256" height="256" viewBox="0 0 256 256" fill="none" xmlns="http://www.w3.org/2000/svg">
<path d="M0 56C0 25.0721 25.0721 0 56 0H200C230.928 0 256 25.0721 256 56V200C256 230.928 230.928 256 200 256H56C25.0721 256 0 230.928 0 200V56Z" fill="#0F172A"/>
<path d="M79 173.431H211.356V136.806L186.212 122.387L181.875 120.512L79 121.218V173.431Z" fill="white"/>
<path d="M165.575 168.568C166.806 164.35 166.338 160.481 164.288 157.606C162.413 154.968 159.244 153.443 155.438 153.268L83.2813 152.331C82.8125 152.331 82.4063 152.093 82.1688 151.743C81.9313 151.393 81.875 150.931 81.9938 150.456C82.2313 149.75 82.9313 149.225 83.6938 149.168L156.494 148.231C165.119 147.818 174.494 140.843 177.769 132.293L181.931 121.45C182.115 121.004 182.158 120.514 182.056 120.043C177.369 98.825 158.431 83 135.806 83C114.931 83 97.2438 96.4813 90.9063 115.187C86.8 112.137 81.5313 110.5 75.9563 111.025C65.9313 112.025 57.8313 120.05 56.9063 130.075C56.6634 132.568 56.8408 135.084 57.4313 137.518C49.5447 137.732 42.0537 141.018 36.5556 146.676C31.0574 152.334 27.9874 159.917 28 167.806C28 169.268 28.125 170.743 28.2938 172.2C28.4188 172.906 29 173.431 29.7 173.431H162.875C163.258 173.424 163.629 173.295 163.934 173.064C164.24 172.832 164.464 172.51 164.575 172.143L165.575 168.568Z" fill="#F38020"/>
<path d="M188.55 122.2L186.55 122.262C186.081 122.262 185.675 122.612 185.487 123.075L182.675 132.862C181.444 137.081 181.912 140.95 183.962 143.825C185.837 146.462 189.006 147.987 192.812 148.162L208.169 149.1C208.637 149.1 209.044 149.337 209.281 149.687C209.519 150.037 209.575 150.562 209.456 150.975C209.219 151.681 208.519 152.206 207.756 152.262L191.756 153.2C183.081 153.612 173.756 160.587 170.481 169.137L169.306 172.125C169.069 172.712 169.481 173.3 170.119 173.3H225.1C225.418 173.304 225.729 173.203 225.983 173.012C226.238 172.821 226.422 172.55 226.506 172.243C227.481 168.777 227.983 165.194 228 161.593C227.97 151.146 223.802 141.135 216.409 133.753C209.015 126.371 198.998 122.219 188.55 122.206" fill="#FAAE40"/>
</svg>
