<svg width="256" height="256" viewBox="0 0 256 256" fill="none" xmlns="http://www.w3.org/2000/svg">
<path d="M83.8926 168.388H203.013V135.426L180.383 122.448L176.48 120.761L83.8926 121.396V168.388Z" fill="white"/>
<path d="M161.81 164.011C162.918 160.215 162.496 156.733 160.651 154.146C158.964 151.771 156.112 150.399 152.686 150.241L87.7454 149.398C87.3235 149.398 86.9579 149.184 86.7441 148.869C86.5304 148.554 86.4797 148.138 86.5866 147.711C86.8004 147.075 87.4304 146.603 88.1166 146.551L153.637 145.708C161.399 145.336 169.837 139.059 172.784 131.364L176.53 121.605C176.696 121.204 176.734 120.763 176.643 120.339C172.424 101.242 155.38 87 135.018 87C116.23 87 100.312 99.1332 94.6079 115.969C90.9122 113.224 86.1704 111.75 81.1529 112.223C72.1304 113.123 64.8404 120.345 64.0079 129.368C63.7893 131.611 63.9489 133.876 64.4804 136.066C57.3824 136.259 50.6405 139.216 45.6923 144.309C40.7439 149.401 37.9809 156.226 37.9922 163.326C37.9922 164.641 38.1047 165.969 38.2566 167.28C38.3691 167.916 38.8922 168.388 39.5222 168.388H159.38C159.724 168.382 160.058 168.266 160.333 168.058C160.608 167.849 160.81 167.559 160.91 167.229L161.81 164.011Z" fill="#F38020"/>
<path d="M182.488 122.28L180.688 122.336C180.266 122.336 179.9 122.651 179.731 123.068L177.2 131.876C176.093 135.673 176.514 139.155 178.359 141.743C180.046 144.116 182.898 145.489 186.324 145.646L200.145 146.49C200.566 146.49 200.933 146.704 201.146 147.019C201.36 147.334 201.41 147.806 201.303 148.178C201.09 148.813 200.46 149.286 199.773 149.336L185.373 150.18C177.566 150.551 169.173 156.829 166.226 164.524L165.168 167.213C164.955 167.741 165.326 168.27 165.9 168.27H215.383C215.669 168.274 215.949 168.183 216.178 168.011C216.407 167.839 216.573 167.595 216.648 167.319C217.526 164.2 217.978 160.975 217.993 157.734C217.966 148.332 214.215 139.322 207.561 132.678C200.906 126.034 191.891 122.297 182.488 122.286" fill="#FAAE40"/>
</svg>
