<svg width="256" height="256" viewBox="0 0 256 256" fill="none" xmlns="http://www.w3.org/2000/svg">
<path d="M0 56C0 25.0721 25.0721 0 56 0H200C230.928 0 256 25.0721 256 56V200C256 230.928 230.928 256 200 256H56C25.0721 256 0 230.928 0 200V56Z" fill="#22272E"/>
<path d="M224.205 90.3849L132.798 29.4468C129.678 27.5249 126.348 27.5106 123.202 29.4468L31.7952 90.3849C29.4524 91.9468 28 94.7382 28 97.5268V158.464C28 161.255 29.4524 164.045 31.7952 165.606L123.202 226.553C126.32 228.474 129.652 228.491 132.798 226.553L224.205 165.606C226.548 164.045 228 161.255 228 158.466V97.5277C228 94.7382 226.548 91.9468 224.205 90.3849ZM136.595 52.6601L203.892 97.5268L173.87 117.617L136.594 92.7268V52.663L136.595 52.6601ZM119.406 52.6601V92.7278L82.1276 117.616L52.1057 97.5277L119.406 52.6601ZM45.1876 113.597L66.7276 127.995L45.1876 142.394V113.597ZM119.406 203.331L52.1057 158.464L82.1276 138.375L119.406 163.264V203.331ZM128 148.308L97.6438 127.995L128 107.683L158.356 127.995L128 148.308ZM136.594 203.331V163.264L173.87 138.375L203.892 158.464L136.595 203.331H136.594ZM210.813 142.394L189.272 127.995L210.813 113.599V142.394Z" fill="white"/>
</svg>
