<svg width="256" height="256" viewBox="0 0 256 256" fill="none" xmlns="http://www.w3.org/2000/svg">
<path d="M214.576 94.1464L132.31 39.3021C129.502 37.5724 126.505 37.5595 123.674 39.3021L41.4079 94.1464C39.2993 95.5521 37.9922 98.0644 37.9922 100.574V155.417C37.9922 157.93 39.2993 160.44 41.4079 161.845L123.674 216.698C126.48 218.427 129.479 218.442 132.31 216.698L214.576 161.845C216.685 160.44 217.992 157.93 217.992 155.419V100.575C217.992 98.0644 216.685 95.5521 214.576 94.1464ZM135.728 60.1941L196.295 100.574L169.275 118.655L135.727 96.2541V60.1967L135.728 60.1941ZM120.257 60.1941V96.255L86.707 118.655L59.6873 100.575L120.257 60.1941ZM53.461 115.037L72.847 127.996L53.461 140.955V115.037ZM120.257 195.798L59.6873 155.417L86.707 137.338L120.257 159.737V195.798ZM127.992 146.277L100.672 127.996L127.992 109.715L155.313 127.996L127.992 146.277ZM135.727 195.798V159.737L169.275 137.338L196.295 155.417L135.728 195.798H135.727ZM202.524 140.955L183.137 127.996L202.524 115.039V140.955Z" fill="#111827"/>
</svg>
