<svg width="256" height="256" viewBox="0 0 256 256" fill="none" xmlns="http://www.w3.org/2000/svg">
<path d="M72.8294 94.4117C88.5454 98.4107 108.66 100.41 132.854 100.41C157.608 100.41 177.243 98.4107 192.918 94.4117C209.634 90.5327 217.673 85.294 217.673 80.3353C217.673 76.8162 214.074 73.3771 207.555 70.7378C209.034 71.7375 210.195 73.3771 210.195 75.1767C210.195 80.2153 202.596 84.3343 187.4 87.7734C173.284 90.8526 155.328 93.052 133.414 93.052C112.259 93.052 93.4642 90.8526 79.8676 87.9733C65.2713 84.3743 57.6333 80.4953 57.6333 75.3766C57.6333 73.2572 58.593 71.4576 61.5123 69.3781C52.3946 72.8972 47.4359 75.8965 47.4359 80.3753C47.9557 85.454 56.1137 90.5327 72.8294 94.4117ZM107.981 78.2558C125.016 76.7762 129.975 65.819 149.93 64.0195C159.727 63.2597 165.966 65.2192 166.606 68.6583C167.205 71.8975 162.326 74.0569 156.408 74.4968C148.25 75.3366 144.891 72.4174 144.211 69.6181C138.132 70.2979 137.173 72.8572 137.493 74.6168C138.173 78.0559 145.491 81.535 158.128 80.3353C172.364 79.2156 177.163 73.6171 175.963 67.9785C174.483 60.6203 163.526 54.4619 143.892 56.3415C118.698 58.5808 118.857 70.2979 101.702 71.6975C94.6638 72.3773 90.7448 70.6978 90.0649 67.9385C89.6251 65.1392 93.0642 63.8196 97.1032 63.4996C100.862 63.0997 105.421 63.7795 107.58 64.9792C109.18 64.1394 109.7 63.2996 109.54 62.34C108.78 59.7406 103.581 58.5808 97.1032 59.0607C84.3464 60.1805 84.3464 65.899 84.7864 68.4184C85.9861 75.0166 95.8235 79.3755 107.981 78.2558ZM193.599 107.008C177.842 110.688 157.768 113.087 133.533 113.087C108.82 113.087 88.6654 110.527 72.9893 107.089C58.913 103.489 51.3949 99.4904 48.7556 95.4115C50.1152 104.609 52.4346 113.527 55.4338 122.004C51.8347 124.244 48.5956 127.043 45.6764 130.803C40.3177 137.32 37.5985 145.599 38.0383 154.036C38.5982 161.794 42.4772 168.953 48.7156 173.671C55.234 178.75 62.2721 180.269 70.31 178.75C73.3893 178.23 76.8284 176.67 79.9876 175.631C73.3893 175.631 67.8307 173.511 62.3121 169.113C56.2337 164.914 52.1947 158.316 51.1149 150.997C49.6353 143.959 51.1149 137.401 55.114 131.642C56.0337 130.523 56.9935 129.523 58.0332 128.643C60.2726 134.122 62.672 139.52 65.3913 144.519C71.4698 153.756 77.5482 161.755 83.6266 170.472C86.266 175.551 87.9455 180.59 89.1452 185.628C93.2242 191.267 99.1427 195.226 105.861 196.865C114.498 199.865 123.497 201.224 132.694 200.705H133.654C143.011 201.104 152.409 199.785 161.326 196.826C167.765 194.906 173.444 190.987 177.523 185.628H178.042C179.002 180.629 180.642 175.591 183.042 170.472C189.039 161.714 195.198 153.756 201.196 144.519C209.475 129.243 215.153 112.647 217.992 95.4915C214.713 100.01 207.155 103.93 193.599 107.008Z" fill="#111827"/>
</svg>
