<svg width="256" height="256" viewBox="0 0 256 256" fill="none" xmlns="http://www.w3.org/2000/svg">
<path d="M129.035 218C114.389 218.007 99.9626 214.439 87.008 207.607C74.0533 200.775 62.9617 190.885 54.6958 178.794C46.43 166.704 41.2396 152.779 39.5752 138.228C37.9109 123.677 39.8227 108.939 45.1449 95.2947C50.4672 81.65 59.0389 69.5104 70.1162 59.9294C81.1935 50.3483 94.4416 43.6154 108.711 40.315C122.98 37.0145 137.839 37.2463 151.998 40.9901C166.158 44.734 179.189 51.8768 189.962 61.7986L168.68 84.1293C160.186 76.4707 149.654 71.4392 138.358 69.6444C127.063 67.8495 115.489 69.3682 105.04 74.0165C94.5898 78.6649 85.7119 86.2434 79.4813 95.8343C73.2506 105.425 69.9344 116.617 69.9344 128.054C69.9344 139.491 73.2506 150.683 79.4813 160.273C85.7119 169.864 94.5898 177.443 105.04 182.091C115.489 186.739 127.063 188.258 138.358 186.463C149.654 184.668 160.186 179.637 168.68 171.978L189.962 194.224C173.368 209.533 151.612 218.023 129.035 218V218ZM201.468 172.97C199.514 172.97 197.64 172.194 196.258 170.812C194.876 169.43 194.1 167.556 194.1 165.602C194.1 163.648 194.876 161.774 196.258 160.392C197.64 159.011 199.514 158.234 201.468 158.234C203.422 158.234 205.296 159.011 206.678 160.392C208.06 161.774 208.836 163.648 208.836 165.602C208.836 167.556 208.06 169.43 206.678 170.812C205.296 172.194 203.422 172.97 201.468 172.97Z" fill="#E03875"/>
<path d="M128.462 147.494C123.291 147.494 118.332 145.44 114.675 141.784C111.019 138.127 108.965 133.168 108.965 127.997C108.965 122.826 111.019 117.867 114.675 114.211C118.332 110.555 123.291 108.5 128.462 108.5C133.633 108.5 138.592 110.555 142.248 114.211C145.904 117.867 147.959 122.826 147.959 127.997C147.959 133.168 145.904 138.127 142.248 141.784C138.592 145.44 133.633 147.494 128.462 147.494V147.494ZM209.935 147.777C208.477 147.777 207.053 147.345 205.841 146.536C204.63 145.726 203.685 144.575 203.128 143.229C202.57 141.883 202.424 140.401 202.708 138.972C202.993 137.543 203.694 136.23 204.725 135.199C205.755 134.169 207.068 133.467 208.497 133.183C209.926 132.899 211.408 133.045 212.754 133.602C214.101 134.16 215.251 135.104 216.061 136.316C216.87 137.528 217.303 138.952 217.303 140.409C217.295 142.361 216.516 144.231 215.136 145.611C213.756 146.991 211.886 147.77 209.935 147.777ZM188.004 146.927C186.049 146.927 184.175 146.151 182.794 144.769C181.412 143.387 180.636 141.513 180.636 139.559C180.636 137.605 181.412 135.731 182.794 134.349C184.175 132.968 186.049 132.191 188.004 132.191C189.958 132.191 191.832 132.968 193.213 134.349C194.595 135.731 195.372 137.605 195.372 139.559C195.372 141.513 194.595 143.387 193.213 144.769C191.832 146.151 189.958 146.927 188.004 146.927ZM209.935 122.981C208.477 122.981 207.053 122.549 205.841 121.74C204.63 120.93 203.685 119.779 203.128 118.433C202.57 117.087 202.424 115.605 202.708 114.176C202.993 112.747 203.694 111.434 204.725 110.403C205.755 109.373 207.068 108.671 208.497 108.387C209.926 108.103 211.408 108.249 212.754 108.806C214.101 109.364 215.251 110.308 216.061 111.52C216.87 112.732 217.303 114.156 217.303 115.613C217.295 117.565 216.516 119.435 215.136 120.815C213.756 122.195 211.886 122.974 209.935 122.981ZM188.004 123.831C186.049 123.831 184.175 123.055 182.794 121.673C181.412 120.292 180.636 118.418 180.636 116.463C180.636 114.509 181.412 112.635 182.794 111.254C184.175 109.872 186.049 109.095 188.004 109.095C189.958 109.095 191.832 109.872 193.213 111.254C194.595 112.635 195.372 114.509 195.372 116.463C195.372 118.418 194.595 120.292 193.213 121.673C191.832 123.055 189.958 123.831 188.004 123.831ZM201.887 98.1852C199.932 98.1852 198.058 97.4089 196.677 96.0272C195.295 94.6454 194.519 92.7713 194.519 90.8172C194.519 88.8631 195.295 86.989 196.677 85.6073C198.058 84.2255 199.932 83.4492 201.887 83.4492C203.841 83.4492 205.715 84.2255 207.096 85.6073C208.478 86.989 209.255 88.8631 209.255 90.8172C209.255 92.7713 208.478 94.6454 207.096 96.0272C205.715 97.4089 203.841 98.1852 201.887 98.1852Z" fill="#E03875"/>
</svg>
