<svg width="256" height="256" viewBox="0 0 256 256" fill="none" xmlns="http://www.w3.org/2000/svg">
<g clip-path="url(#clip0_30_287)">
<path d="M196 0H60C26.8629 0 0 26.8629 0 60V196C0 229.137 26.8629 256 60 256H196C229.137 256 256 229.137 256 196V60C256 26.8629 229.137 0 196 0Z" fill="#00599C"/>
<path d="M112.483 202.965C71.4129 202.965 38 169.553 38 128.483C38 87.4129 71.4129 54 112.483 54C138.984 54 163.7 68.2612 176.984 91.218L144.75 109.871C138.102 98.38 125.737 91.2414 112.483 91.2414C91.9474 91.2414 75.2414 107.948 75.2414 128.483C75.2414 149.018 91.9474 165.724 112.483 165.724C125.737 165.724 138.103 158.585 144.752 147.092L176.986 165.745C163.702 188.704 138.985 202.965 112.483 202.965Z" fill="white"/>
<path d="M186.966 124.345H178.69V116.068H170.415V124.345H162.139V132.62H170.415V140.897H178.69V132.62H186.966V124.345Z" fill="white"/>
<path d="M217.999 124.345H209.723V116.068H201.448V124.345H193.172V132.62H201.448V140.897H209.723V132.62H217.999V124.345Z" fill="white"/>
</g>
<defs>
<clipPath id="clip0_30_287">
<rect width="256" height="256" fill="white"/>
</clipPath>
</defs>
</svg>
