<svg width="256" height="256" viewBox="0 0 256 256" fill="none" xmlns="http://www.w3.org/2000/svg">
<path d="M152.573 217.337L217.719 152.32C217.98 152.059 218.111 151.798 217.85 151.408L194.006 62.5465C194.006 62.2859 193.746 62.0254 193.354 61.895L104.363 38.0511C104.102 37.9208 103.712 38.0511 103.451 38.3117L38.3039 103.329C38.0433 103.59 37.913 103.85 38.0433 104.241L62.0176 193.102C62.0176 193.362 62.2781 193.623 62.669 193.754L151.661 217.597C151.921 217.727 152.312 217.597 152.573 217.337Z" fill="black" stroke="white" stroke-width="5" stroke-linecap="round"/>
<path d="M107.229 168.997L42.9941 104.892L130.682 81.7L107.229 168.997Z" fill="white"/>
</svg>
