<svg width="256" height="256" viewBox="0 0 256 256" fill="none" xmlns="http://www.w3.org/2000/svg">
<g clip-path="url(#clip0_30_299)">
<path d="M196 0H60C26.8629 0 0 26.8629 0 60V196C0 229.137 26.8629 256 60 256H196C229.137 256 256 229.137 256 196V60C256 26.8629 229.137 0 196 0Z" fill="#953CAD"/>
<path d="M188.002 103.262V115.262H200.002V103.262H206.001V115.262H218V121.262H206.001V133.26H218V139.26H206.001V151.259H200.002V139.26H188.002V151.259H182.002V139.26H170.004V133.26H182.002V121.262H170.004V115.262H182.002V103.262H188.002ZM200.002 121.262H188.002V133.26H200.002V121.262Z" fill="white"/>
<path d="M122.604 43C153.901 43 181.227 59.9975 195.862 85.2625L195.72 85.0193L158.896 106.222C151.642 93.938 138.341 85.6482 123.084 85.4775L122.604 85.4748C99.3373 85.4748 80.4748 104.336 80.4748 127.602C80.4748 135.211 82.5033 142.344 86.031 148.504C93.2927 161.181 106.944 169.732 122.604 169.732C138.36 169.732 152.089 161.072 159.314 148.26L159.138 148.567L195.906 169.867C181.431 194.919 154.48 211.864 123.546 212.201L122.604 212.206C91.2074 212.206 63.8042 195.104 49.205 169.705C42.078 157.306 38 142.932 38 127.602C38 80.8785 75.8776 43 122.604 43Z" fill="white"/>
</g>
<defs>
<clipPath id="clip0_30_299">
<rect width="256" height="256" fill="white"/>
</clipPath>
</defs>
</svg>
