<svg width="256" height="256" viewBox="0 0 256 256" fill="none" xmlns="http://www.w3.org/2000/svg">
<path fill-rule="evenodd" clip-rule="evenodd" d="M123.727 39.2271C126.637 37.5942 130.22 37.5942 133.126 39.2271C147.504 47.2971 190.773 71.5884 205.155 79.6584C208.065 81.287 209.857 84.3041 209.857 87.5698C209.857 103.71 209.857 152.288 209.857 168.428C209.857 171.694 208.065 174.711 205.155 176.344C190.777 184.414 147.508 208.705 133.126 216.775C130.216 218.408 126.633 218.408 123.727 216.775C109.348 208.705 66.08 184.414 51.6971 176.344C48.7914 174.711 47 171.698 47 168.433C47 152.293 47 103.714 47 87.5741C47 84.3084 48.7914 81.2913 51.7014 79.6584C66.0757 71.5884 109.353 47.2971 123.727 39.2271Z" fill="url(#paint0_linear_170_79)"/>
<path fill-rule="evenodd" clip-rule="evenodd" d="M48.3029 172.59C47.1629 171.064 47 169.615 47 167.665C47 151.62 47 103.32 47 87.2697C47 84.0211 48.7871 81.0211 51.6886 79.4011C66.0157 71.3783 109.138 47.2283 123.466 39.2012C126.367 37.5769 130.297 37.6112 133.198 39.2355C147.526 47.2583 190.503 71.2026 204.83 79.2254C205.987 79.8768 206.87 80.6611 207.658 81.694L48.3029 172.59Z" fill="url(#paint1_linear_170_79)"/>
<path fill-rule="evenodd" clip-rule="evenodd" d="M128.429 68.0012C161.544 68.0012 188.428 94.8855 188.428 128.001C188.428 161.117 161.544 188.001 128.429 188.001C95.3129 188.001 68.4287 161.117 68.4287 128.001C68.4287 94.8855 95.3129 68.0012 128.429 68.0012ZM128.429 98.0012C144.984 98.0012 158.429 111.441 158.429 128.001C158.429 144.557 144.984 158.001 128.429 158.001C111.873 158.001 98.4286 144.557 98.4286 128.001C98.4286 111.441 111.869 98.0012 128.429 98.0012Z" fill="white"/>
<path fill-rule="evenodd" clip-rule="evenodd" d="M207.649 81.7368C209.861 83.8068 209.818 86.9268 209.818 89.3825C209.818 105.647 209.681 151.907 209.856 168.171C209.873 169.868 209.312 171.655 208.472 173.001L126.684 128.001L207.649 81.7368Z" fill="url(#paint2_linear_170_79)"/>
<path opacity="0.05" d="M188.429 110.858V119.43H197V123.715H188.429V132.287H197V136.572H188.429V145.144H184.143V136.572H175.572V145.144H171.286V136.572H162.714V132.287H171.286V123.715H162.714V119.43H171.286V110.858H175.572V119.43H184.143V110.858H188.429ZM175.572 132.287H184.143V123.715H175.572V132.287ZM192.714 106.573H188.429H184.143H179.857H175.572H171.286H167V110.858V115.144H162.714H158.429V119.43V123.715V128.001V132.287V136.572V140.858H162.714H167V145.144V149.43H171.286H175.572H179.857V145.144V140.858V145.144V149.43H184.143H188.429H192.714V145.144V140.858H197H201.286V136.572V132.287V128.001H197H192.714H197H201.286V123.715V119.43V115.144H197H192.714V110.858V106.573Z" fill="black"/>
<path opacity="0.07" d="M188.428 110.858V119.43H197V123.715H188.428V132.287H197V136.572H188.428V145.144H184.143V136.572H175.571V145.144H171.286V136.572H162.714V132.287H171.286V123.715H162.714V119.43H171.286V110.858H175.571V119.43H184.143V110.858H188.428ZM175.571 132.287H184.143V123.715H175.571V132.287ZM190.571 108.715H188.428H184.143H182V110.858V117.287H177.714V110.858V108.715H175.571H171.286H169.143V110.858V117.287H162.714H160.571V119.43V123.715V125.858H162.714H169.143V130.144H162.714H160.571V132.287V136.572V138.715H162.714H169.143V145.144V147.287H171.286H175.571H177.714V145.144V138.715H182V145.144V147.287H184.143H188.428H190.571V145.144V138.715H197H199.143V136.572V132.287V130.144H197H190.571V125.858H197H199.143V123.715V119.43V117.287H197H190.571V110.858V108.715ZM177.714 125.858H182V130.144H177.714V125.858Z" fill="black"/>
<path d="M197 123.715V119.43H188.428V110.858H184.142V119.43H175.571V110.858H171.285V119.43H162.714V123.715H171.285V132.287H162.714V136.572H171.285V145.144H175.571V136.572H184.142V145.144H188.428V136.572H197V132.287H188.428V123.715H197ZM184.142 132.287H175.571V123.715H184.142V132.287Z" fill="white"/>
<path opacity="0.05" d="M128.428 68.0013C150.405 68.0013 169.58 79.877 180.032 97.5169L154.005 112.388C148.73 103.774 139.258 98.0012 128.428 98.0012C111.868 98.0012 98.4282 111.441 98.4282 128.001C98.4282 144.557 111.872 158.001 128.428 158.001C139.442 158.001 149.051 152.035 154.267 143.177L180.547 157.637C170.214 175.752 150.757 188.001 128.428 188.001C95.3125 188.001 68.4283 161.117 68.4283 128.001C68.4283 94.8855 95.3125 68.0013 128.428 68.0013ZM128.428 63.7156C92.9811 63.7156 64.1426 92.5541 64.1426 128.001C64.1426 163.448 92.9811 192.287 128.428 192.287C151.43 192.287 172.828 179.824 184.271 159.758L186.427 155.978L182.612 153.878L156.332 139.418L152.685 137.413L150.572 141C145.957 148.843 137.471 153.715 128.428 153.715C114.251 153.715 102.714 142.178 102.714 128.001C102.714 113.824 114.251 102.287 128.428 102.287C137.424 102.287 145.618 106.898 150.35 114.625L152.522 118.174L156.131 116.113L182.158 101.241L185.938 99.0812L183.718 95.3355C172.164 75.8313 150.98 63.7156 128.428 63.7156Z" fill="black"/>
<path opacity="0.07" d="M128.428 68.0013C150.405 68.0013 169.579 79.8769 180.032 97.5169L154.005 112.388C148.729 103.774 139.258 98.0012 128.428 98.0012C111.868 98.0012 98.4279 111.441 98.4279 128.001C98.4279 144.557 111.872 158.001 128.428 158.001C139.442 158.001 149.051 152.035 154.266 143.177L180.546 157.637C170.214 175.752 150.756 188.001 128.428 188.001C95.3122 188.001 68.428 161.117 68.428 128.001C68.428 94.8855 95.3122 68.0013 128.428 68.0013ZM128.428 65.8584C94.1637 65.8584 66.2852 93.7369 66.2852 128.001C66.2852 162.265 94.1637 190.144 128.428 190.144C150.662 190.144 171.345 178.092 182.406 158.7L183.486 156.81L181.579 155.76L155.299 141.3L153.478 140.297L152.424 142.088C147.418 150.583 138.225 155.858 128.428 155.858C113.068 155.858 100.571 143.361 100.571 128.001C100.571 112.641 113.068 100.144 128.428 100.144C138.178 100.144 147.054 105.141 152.179 113.507L153.264 115.281L155.068 114.248L181.095 99.3769L182.985 98.2969L181.875 96.4241C170.702 77.5712 150.225 65.8584 128.428 65.8584Z" fill="black"/>
<defs>
<linearGradient id="paint0_linear_170_79" x1="72.3928" y1="-25.9585" x2="137.896" y2="154.007" gradientUnits="userSpaceOnUse">
<stop stop-color="#889097"/>
<stop offset="1" stop-color="#4C5963"/>
</linearGradient>
<linearGradient id="paint1_linear_170_79" x1="112.198" y1="84.184" x2="182.973" y2="278.631" gradientUnits="userSpaceOnUse">
<stop stop-color="#889097"/>
<stop offset="1" stop-color="#4C5963"/>
</linearGradient>
<linearGradient id="paint2_linear_170_79" x1="142.305" y1="35.6141" x2="208.009" y2="216.141" gradientUnits="userSpaceOnUse">
<stop stop-color="#889097"/>
<stop offset="1" stop-color="#4C5963"/>
</linearGradient>
</defs>
</svg>
