<svg width="256" height="256" viewBox="0 0 256 256" fill="none" xmlns="http://www.w3.org/2000/svg">
<g clip-path="url(#clip0_30_324)">
<path d="M196 0H60C26.8629 0 0 26.8629 0 60V196C0 229.137 26.8629 256 60 256H196C229.137 256 256 229.137 256 196V60C256 26.8629 229.137 0 196 0Z" fill="#0277BD"/>
<path d="M53.752 102.336L56.6148 134.122H128.095V102.336H53.752Z" fill="#EBEBEB"/>
<path d="M128.095 38H127.985H48L50.9036 69.7865H128.095V38Z" fill="#EBEBEB"/>
<path d="M128.095 217.959V184.888L127.955 184.925L92.3818 175.367L90.1077 150.015H72.8215H58.043L62.518 199.925L127.948 218L128.095 217.959Z" fill="#EBEBEB"/>
<path d="M167.317 134.122L163.609 175.346L127.984 184.915V217.984L193.467 199.925L193.947 194.554L201.453 110.872L202.232 102.336L207.999 38H127.984V69.7866H172.993L170.087 102.336H127.984V134.122H167.317Z" fill="white"/>
</g>
<defs>
<clipPath id="clip0_30_324">
<rect width="256" height="256" fill="white"/>
</clipPath>
</defs>
</svg>
