<svg width="256" height="256" viewBox="0 0 256 256" fill="none" xmlns="http://www.w3.org/2000/svg">
<path d="M48.0375 48.3617L60.5468 190.121C61.0658 196.011 65.1657 200.978 70.8513 202.602L121.531 217.082C125.807 218.306 130.336 218.306 134.612 217.082L185.292 202.602C190.978 200.978 195.077 196.016 195.596 190.121L208.106 48.3617C208.601 42.7904 204.215 38 198.625 38H57.523C51.9326 38 47.547 42.7904 48.0375 48.3617Z" fill="url(#paint0_linear_170_48)"/>
<path d="M128.074 52.2854V204.187L175.102 190.749C178.897 189.664 181.63 186.349 181.973 182.421L192.859 57.4615C193.101 54.6758 190.911 52.2854 188.116 52.2854H128.074Z" fill="#35C1F1"/>
<path d="M171.407 76.0945H128.074V95.1417H151.407L149.979 114.189H128.074V133.236H149.026L147.598 154.664L128.074 161.331V181.33L165.693 168.95L169.026 114.189L171.407 76.0945Z" fill="white"/>
<path d="M128.073 76.0945V95.1417H85.6932L84.2646 76.0945H128.073ZM106.169 114.189L107.121 133.236H128.073V114.189H106.169ZM108.074 142.76H89.0265L90.455 168.95L128.073 181.33V161.331L108.55 154.664L108.074 142.76Z" fill="#D6E0E9"/>
<path opacity="0.05" d="M171.406 76.0946L169.025 114.189L165.692 168.95L128.074 181.331L90.4554 168.95L89.0269 142.76H108.074L108.55 154.664L128.074 161.331L147.597 154.664L149.026 133.236H128.074H107.122L106.169 114.189H128.074H149.978L151.407 95.1418H128.074H85.6936L84.2651 76.0946H128.074H171.406ZM176.473 71.3328H171.406H128.074H84.2651H79.1318L79.5175 76.4517L80.9461 95.499L81.2746 99.9036H85.6936H128.074H146.273L145.559 109.427H128.074H106.169H101.165L101.412 114.427L102.365 133.474L102.593 137.998H89.0269H83.9984L84.2746 143.017L85.7031 169.207L85.8793 172.455L88.9697 173.474L126.588 185.854L128.074 186.345L129.564 185.854L167.182 173.474L170.249 172.464L170.444 169.24L173.778 114.48L176.158 76.3946L176.473 71.3328ZM112.65 137.998H128.074H143.935L143.054 151.184L128.074 156.298L113.179 151.212L112.831 142.569L112.65 137.998Z" fill="black"/>
<path opacity="0.07" d="M171.406 76.0945L169.025 114.189L165.692 168.95L128.074 181.331L90.4552 168.95L89.0267 142.76H108.074L108.55 154.664L128.074 161.331L147.597 154.664L149.025 133.236H128.074H107.122L106.169 114.189H128.074H149.978L151.406 95.1418H128.074H85.6934L84.2649 76.0945H128.074H171.406ZM173.939 73.7136H171.406H128.074H84.2649H81.6982L81.8887 76.2707L83.3173 95.318L83.4839 97.5227H85.6934H128.074H148.84L147.768 111.808H128.074H106.169H103.664L103.788 114.308L104.741 133.355L104.855 135.617H107.122H128.074H146.483L145.33 152.922L128.074 158.817L110.864 152.941L110.455 142.665L110.36 140.379H108.074H89.0267H86.5124L86.6505 142.888L88.0791 169.078L88.1695 170.702L89.7124 171.212L127.331 183.592L128.074 183.835L128.816 183.592L166.435 171.212L167.968 170.707L168.068 169.093L171.401 114.332L173.782 76.2421L173.939 73.7136Z" fill="black"/>
<defs>
<linearGradient id="paint0_linear_170_48" x1="91.5509" y1="1.1055" x2="167.564" y2="209.944" gradientUnits="userSpaceOnUse">
<stop stop-color="#2AA4F4"/>
<stop offset="1" stop-color="#007AD9"/>
</linearGradient>
</defs>
</svg>
