<svg width="256" height="256" viewBox="0 0 256 256" fill="none" xmlns="http://www.w3.org/2000/svg">
<path d="M137.833 128.113C137.833 81.1079 99.6422 43 52.5196 43H37.9922V80.4125H52.5272C78.935 80.4125 100.34 101.768 100.34 128.113C100.34 154.459 78.935 175.814 52.5272 175.814H37.9922V213.227H52.5272C99.6354 213.227 137.833 175.119 137.833 128.113ZM217.992 94.9132C217.992 66.2409 194.689 43 165.958 43H105.957C120.721 52.2251 132.831 65.1167 141.102 80.4125H165.958C173.975 80.4125 180.493 86.9068 180.493 94.9132C180.493 102.92 173.975 109.414 165.958 109.414H151.423C153.769 121.776 153.769 134.466 151.423 146.826H165.958C173.968 146.826 180.493 153.314 180.493 161.329C180.493 169.342 173.975 175.829 165.958 175.829H141.102C132.831 191.124 120.721 204.017 105.957 213.241H165.958C178.115 213.241 189.89 208.992 199.242 201.232C221.315 182.899 224.337 150.171 205.955 128.129C213.731 118.798 217.989 107.047 217.992 94.9132Z" fill="#F9A03C"/>
</svg>
