<svg width="256" height="256" viewBox="0 0 256 256" fill="none" xmlns="http://www.w3.org/2000/svg">
<path d="M0 56C0 25.0721 25.0721 0 56 0H200C230.928 0 256 25.0721 256 56V200C256 230.928 230.928 256 200 256H56C25.0721 256 0 230.928 0 200V56Z" fill="#0F172A"/>
<path d="M83.109 82.4498L70.1777 69.5122L70.2277 162.959L70.384 167.322C70.4465 169.384 70.8371 171.697 71.4621 174.103L173.884 210.228L199.509 198.884L199.531 198.847L83.1027 82.4498H83.109Z" fill="#00C4B3"/>
<path d="M71.464 174.103H71.4735C71.464 174.065 71.4485 174.022 71.4297 173.978C71.4516 174.025 71.4516 174.072 71.4609 174.103H71.464ZM199.483 198.884L173.857 210.228L71.4516 174.103C73.4047 181.615 77.739 190.059 82.3953 194.665L115.802 227.907L190.14 228L199.452 198.884H199.483Z" fill="#22D3C5"/>
<path d="M70.5271 69.5154L30.7052 129.657C27.399 133.188 29.049 140.474 34.3709 145.843L57.3583 169.019L71.8083 174.112C71.1833 171.712 70.7897 169.424 70.7302 167.331L70.574 162.969L70.5271 69.5216V69.5154Z" fill="#0075C9"/>
<path d="M174.728 70.7186C172.322 70.1092 170.015 69.7248 167.938 69.6654L163.319 69.4967L70.1777 69.5186L199.528 198.85L210.89 173.224L174.734 70.7248L174.728 70.7186Z" fill="#0075C9"/>
<path d="M174.609 70.6967C174.65 70.7123 174.694 70.7216 174.728 70.728V70.7154C174.688 70.7061 174.65 70.7061 174.609 70.6904V70.6967ZM195.282 81.6904C190.578 76.9561 182.251 72.628 174.728 70.728L210.885 173.219L199.509 198.843L227.266 189.974L227.328 113.874L195.278 81.6873L195.282 81.6904Z" fill="#00A8E1"/>
<path d="M169.658 56.3591L146.534 33.3591C141.139 28.056 133.853 26.3997 130.353 29.6997L70.2148 69.5123L163.356 69.4905L167.974 69.6591C170.053 69.7217 172.362 70.1029 174.765 70.7124L169.665 56.3529L169.658 56.3591Z" fill="#00C4B3"/>
</svg>
