<svg width="256" height="256" viewBox="0 0 256 256" fill="none" xmlns="http://www.w3.org/2000/svg">
<path d="M87.6908 87.0049L76.0527 75.3611L76.0977 159.463L76.2383 163.39C76.2946 165.246 76.6461 167.327 77.2086 169.493L169.389 202.005L192.451 191.796L192.471 191.762L87.6852 87.0049H87.6908Z" fill="#00C4B3"/>
<path d="M77.2106 169.493H77.2191C77.2106 169.459 77.1966 169.42 77.1797 169.38C77.1994 169.423 77.1994 169.465 77.2078 169.493H77.2106ZM192.428 191.796L169.365 202.005L77.1994 169.493C78.9572 176.254 82.8581 183.853 87.0487 187.999L117.115 217.916L184.019 218L192.4 191.796H192.428Z" fill="#22D3C5"/>
<path d="M76.3666 75.3638L40.5269 129.491C37.5513 132.669 39.0363 139.227 43.826 144.059L64.5147 164.917L77.5197 169.501C76.9572 167.341 76.6029 165.282 76.5494 163.398L76.4088 159.472L76.3666 75.3694V75.3638Z" fill="#0075C9"/>
<path d="M170.148 76.4466C167.983 75.8981 165.907 75.5522 164.037 75.4987L159.88 75.3469L76.0527 75.3666L192.468 191.765L202.694 168.702L170.154 76.4522L170.148 76.4466Z" fill="#0075C9"/>
<path d="M170.041 76.427C170.078 76.4411 170.117 76.4495 170.148 76.4552V76.4439C170.112 76.4355 170.078 76.4355 170.041 76.4214V76.427ZM188.646 86.3214C184.413 82.0605 176.918 78.1652 170.148 76.4552L202.689 168.697L192.451 191.759L217.432 183.777L217.488 115.287L188.643 86.3186L188.646 86.3214Z" fill="#00A8E1"/>
<path d="M165.585 63.5232L144.773 42.8232C139.918 38.0504 133.36 36.5598 130.21 39.5298L76.0859 75.3611L159.913 75.3414L164.069 75.4932C165.94 75.5495 168.018 75.8926 170.181 76.4411L165.591 63.5176L165.585 63.5232Z" fill="#00C4B3"/>
</svg>
