<svg width="256" height="256" viewBox="0 0 256 256" fill="none" xmlns="http://www.w3.org/2000/svg">
<path d="M200.524 132.828L204.944 189.362L126.678 203.43L119.917 146.896L131.097 145.334C132.919 146.113 134.218 146.376 136.299 146.896C139.68 147.678 143.58 148.72 149.298 145.594C150.6 144.812 153.458 142.468 154.5 140.906L200.524 132.828V132.828ZM79.6122 200.042C78.3157 197.958 75.9746 195.614 72.3344 192.748C67.1326 188.58 68.954 181.283 72.0746 176.856C75.9746 169.302 96.5168 159.402 95.4748 147.158C94.9551 142.728 94.4355 136.996 90.2756 132.828C90.1256 133.864 90.1256 134.917 90.2756 135.954C90.2756 135.954 88.4542 133.87 87.6774 130.744C86.8953 129.702 86.1158 129.182 85.3336 127.618C84.814 129.439 84.814 131.266 84.814 131.266C84.814 131.266 83.5149 127.878 83.255 125.274C82.4756 126.576 82.2158 128.92 82.2158 128.92C82.2158 128.92 80.3943 123.71 80.914 120.844C80.1372 118.5 77.5336 113.55 78.3157 102.608C82.7354 105.734 92.6141 104.951 96.5168 99.222C97.8159 97.3979 98.5954 92.188 95.9944 82.0254C94.1757 75.5137 89.7533 65.8735 87.9346 62.2279L87.6747 62.4877C88.7167 65.3538 90.5355 71.6057 91.3176 74.7316C93.3962 83.8495 94.1757 86.9754 93.1364 91.1433C92.3542 94.7916 90.2756 97.138 84.814 99.7416C79.6148 102.348 72.3317 95.8336 72.0746 95.5737C66.8728 91.4058 62.9727 84.6317 62.4531 81.5058C61.9334 77.8575 64.5343 75.7736 65.8335 72.9075C64.012 73.4298 61.9334 74.4718 61.9334 74.4718C61.9334 74.4718 64.2745 71.8655 67.3924 69.7842C68.5786 69.0913 69.7088 68.3068 70.7728 67.4378H67.3951C67.3951 67.4378 70.513 65.6136 73.8934 64.5717H69.2138L81.6961 59.0993C85.5961 57.5377 89.2363 58.0573 91.3149 60.9234C94.1757 64.8342 97.0364 66.9154 103.015 68.4771C106.658 66.9154 107.957 65.8735 112.637 64.5717C116.796 59.8841 120.177 59.3618 120.177 59.3618C120.177 59.3618 117.838 61.4457 117.579 63.7895C119.917 61.9681 122.518 60.4038 122.518 60.4038C122.518 60.4038 121.479 61.7056 120.696 63.5297L120.956 63.7895C122.906 62.744 124.901 61.7877 126.938 60.9234C126.938 60.9234 125.898 61.9681 124.859 63.5297C126.938 63.5297 131.1 63.5297 132.659 63.7895C142.278 64.0493 144.359 53.6296 147.999 52.0653C152.679 50.5037 154.76 49.4617 162.56 57.2779C169.321 64.0493 174.52 75.7736 171.922 78.3798C169.841 80.4638 165.421 77.5977 160.479 71.6057C157.881 68.4797 156.059 64.5717 155.02 59.8814C154.5 55.9734 151.64 53.6296 151.64 53.6296C151.64 53.6296 153.461 57.5377 153.461 60.9234C153.461 62.7475 153.721 69.5217 156.579 73.4298C156.319 73.9494 156.059 76.2959 155.802 76.5557C152.419 72.3878 144.879 69.5217 143.84 68.4797C147.999 71.8655 157.361 79.4218 161.001 86.7156C164.379 93.7496 162.3 100.001 164.119 101.566C164.641 102.085 171.4 110.424 172.701 114.852C175.04 122.405 172.961 130.224 169.841 134.914L161.521 136.216C160.434 136.026 159.382 135.674 158.4 135.171C158.92 134.129 160.222 131.526 160.222 131.004L159.699 130.224C157.101 133.87 152.682 137.518 149.039 139.602C144.359 142.208 138.898 141.946 135.257 140.644C125.119 137.518 115.497 130.744 113.416 128.92C113.416 128.92 113.416 130.224 113.676 130.744C116.277 133.61 121.998 138.82 127.717 142.468L115.757 143.77L121.479 188.058C118.878 188.32 118.618 188.58 115.757 189.102C113.416 180.504 108.737 175.032 103.537 171.646C99.1177 168.78 92.8766 167.998 86.8953 169.302L86.6354 169.822C90.7953 169.302 95.7346 170.082 100.677 173.21C105.616 176.336 109.516 184.412 111.078 189.102C112.899 195.354 114.198 201.866 109.256 208.9C105.616 213.85 95.215 216.716 86.8953 210.724C89.2363 214.372 92.0944 217.238 96.2569 217.758C102.236 218.54 107.957 217.498 112.117 213.59C115.497 210.204 117.316 202.908 116.796 195.094L122.258 194.312L124.08 208.12L212.744 197.438L204.944 126.576L200.524 127.358L191.685 38L43.9922 55.1939L62.1932 202.648L79.6148 200.042H79.6122Z" fill="#592D86"/>
<path d="M149.827 122.534C153.727 125.4 157.107 127.181 160.49 126.964C162.572 126.707 164.653 123.316 165.952 120.193C166.991 118.109 166.991 115.765 165.435 115.031C164.664 114.774 161.535 114.774 159.256 115.031C154.836 115.548 150.416 117.118 149.374 117.897C147.813 118.939 148.603 121.545 149.889 122.542L149.827 122.537V122.534ZM150.92 92.0086V92.2658L151.177 92.7827C152.219 94.8667 153.258 96.9533 155.339 97.9444C155.854 97.9444 156.381 97.6846 156.901 97.6846C158.133 97.6471 159.365 97.8239 160.544 98.2069V96.6426C160.284 94.0363 161.058 89.3488 155.907 86.7452C153.826 85.7005 151.271 86.2282 150.239 87.2595H150.756C152.053 87.7764 151.271 88.3041 151.014 88.8238C150.756 89.8684 150.497 90.1229 151.014 91.9524M127.501 92.5792C128.797 91.5345 121.525 89.9729 115.795 93.6211C111.636 96.4872 111.636 102.477 115.538 105.862C116.055 106.122 116.312 106.379 116.58 106.639C117.62 106.122 119.181 105.594 120.48 105.072C123.078 104.298 125.114 103.773 126.979 103.511C127.753 102.466 128.8 100.904 128.54 98.0381C128.283 94.1327 125.162 94.9122 127.501 92.5684V92.5792V92.5792ZM184.708 165.788L169.89 155.89L157.407 176.73L142.847 172.302L130.107 191.84L130.621 198.035L200.305 185.272L196.145 141.764L184.708 165.791V165.788Z" fill="#592D86"/>
</svg>
