<svg width="256" height="256" viewBox="0 0 256 256" fill="none" xmlns="http://www.w3.org/2000/svg">
<path d="M0 56C0 25.0721 25.0721 0 56 0H200C230.928 0 256 25.0721 256 56V200C256 230.928 230.928 256 200 256H56C25.0721 256 0 230.928 0 200V56Z" fill="#22272E"/>
<path d="M120.129 28.0514C119.659 28.0986 118.162 28.2737 116.809 28.3976C97.5767 30.4099 78.6359 38.5555 63.1906 51.4869C60.3403 53.8533 53.8471 60.3465 51.4807 63.1968C38.6949 78.4729 31.2201 95.6138 28.4603 115.9C27.8466 120.405 27.8466 135.602 28.4603 140.105C31.2181 160.389 38.6949 177.532 51.4807 192.808C53.8471 195.66 60.3403 202.151 63.1906 204.518C78.4667 217.304 95.6076 224.778 115.894 227.538C120.398 228.154 135.596 228.154 140.098 227.538C160.383 224.78 177.526 217.304 192.802 204.518C195.654 202.151 202.145 195.658 204.512 192.808C217.297 177.532 224.772 160.391 227.526 140.105C228.148 135.6 228.148 120.403 227.526 115.9C224.772 95.6158 217.297 78.4729 204.512 63.1968C202.145 60.3465 195.652 53.8533 192.802 51.4869C177.581 38.7482 160.261 31.179 140.244 28.4979C138.078 28.197 134.935 28.075 129.103 28.0278C124.653 27.9747 120.589 28.0062 120.129 28.0514ZM121.358 38.6774C121.358 41.5513 121.549 47.7987 121.827 53.7313C121.972 56.6268 122.141 60.7852 122.22 62.9509C122.487 70.6283 123.302 90.765 123.424 92.5649L123.548 94.3549L122.44 94.2329C121.827 94.1857 121.258 94.0402 121.158 93.9635C121.089 93.8651 120.912 92.1656 120.811 90.1749C120.375 81.4215 118.923 47.4525 118.776 42.4896L118.622 37.0271L119.315 36.9346C119.682 36.8795 120.298 36.8107 120.69 36.7812L121.358 36.7576V38.6774ZM144.892 38.0873C144.916 38.109 144.992 45.5405 145.061 54.5909C145.162 63.6669 145.286 71.8026 145.362 72.6878C145.431 73.6005 145.408 74.3854 145.284 74.4385C145.185 74.5073 144.57 74.5073 143.956 74.4385L142.827 74.3401L142.658 67.1781C142.578 63.925 142.485 60.672 142.382 57.4195C142.187 53.0625 142.012 38.286 142.166 37.9181C142.258 37.6428 142.534 37.6172 143.562 37.7942C144.278 37.9398 144.871 38.0637 144.892 38.0873ZM88.003 46.3234C88.1564 46.5457 89.3091 60.1006 90.7372 77.8277C91.2073 83.8587 91.6676 89.3684 91.7443 90.053C91.8663 91.304 91.8427 91.3591 91.0519 91.8508C90.6153 92.1184 90.1687 92.3426 90.0684 92.3426C89.9996 92.3426 89.854 91.7033 89.7773 90.9126C89.4311 87.7161 88.1014 72.2727 87.1729 61.1077C86.6261 54.5378 86.1343 48.6602 86.0655 48.0209C85.9435 46.9391 85.9671 46.8387 86.6044 46.5004C87.3873 46.0775 87.8338 46.0086 88.001 46.3234H88.003ZM155.711 51.2725C156.403 51.5184 156.472 51.6403 156.626 53.0389C156.872 55.4977 156.795 67.2548 156.527 67.2548C155.811 67.2548 154.336 66.4168 154.214 65.9487C154.135 65.6556 154.068 62.168 154.068 58.2024C154.068 50.2122 153.968 50.6804 155.711 51.2725ZM110.286 52.4252C110.286 53.0861 110.463 56.7507 110.654 60.616C110.854 64.4714 111.077 69.3674 111.177 71.4879C111.346 75.7682 111.393 75.6148 109.747 75.7151C108.932 75.7367 108.932 75.7367 108.887 74.5073C108.84 73.8248 108.718 71.6807 108.565 69.7136C108.441 67.7466 108.15 63.4899 107.949 60.2462C107.815 57.857 107.644 55.47 107.436 53.0861C107.288 51.8567 107.312 51.8095 107.973 51.5636C108.372 51.418 109.054 51.2961 109.501 51.2961C110.286 51.2725 110.286 51.2725 110.286 52.4252ZM178.509 55.7987L179.347 56.135L179.524 59.4318C179.593 61.2297 179.646 65.1166 179.593 68.0475L179.524 73.4018L178.487 72.8865L177.457 72.3947L177.38 64.2275C177.335 59.7328 177.356 55.9206 177.404 55.7436C177.502 55.3758 177.502 55.3758 178.509 55.7987ZM133.605 59.0168C133.751 59.1643 134.097 71.0886 134.121 77.1432L134.144 80.7862L132.991 80.6091C132.323 80.5304 131.784 80.4636 131.762 80.44C131.683 80.3868 130.948 62.166 130.948 60.3937V58.5722L132.199 58.7178C132.915 58.8161 133.528 58.9401 133.605 59.0168ZM190.243 60.7616C190.544 61.1078 190.589 66.4935 190.666 96.2C190.734 130.315 190.734 131.2 190.296 131.2C189.982 131.18 189.68 131.068 189.43 130.877C189.06 130.608 189.013 127.634 188.891 98.4897C188.791 80.8314 188.667 64.794 188.598 62.8525L188.445 59.3099L189.159 59.8233C189.582 60.1242 190.052 60.5393 190.243 60.7616ZM168.182 65.8031C168.306 65.9015 168.428 67.3 168.452 68.9071C168.575 74.3382 168.597 107.664 168.475 107.764C168.428 107.81 167.983 107.686 167.492 107.495L166.606 107.125V65.2858L167.299 65.4333C167.669 65.5317 168.06 65.6792 168.184 65.8031H168.182ZM100.305 67.1781C100.374 67.8469 100.496 69.3438 100.572 70.5732C100.651 71.781 100.818 74.5388 100.966 76.675C101.265 81.0025 101.21 81.2779 99.8112 81.2779C99.0756 81.2779 98.9752 81.1992 98.8749 80.4636C98.629 79.0099 97.7675 66.9086 97.8914 66.7158C98.0133 66.5388 99.2978 66.1021 99.882 66.047C100.035 66.0254 100.226 66.5388 100.305 67.1781ZM59.6263 73.4549C59.8958 76.0593 60.4328 81.5238 60.8321 85.5799C61.2471 89.6379 61.5933 93.0802 61.5933 93.2258C61.5933 93.5248 59.6951 94.4552 59.5024 94.2624C59.3804 94.1405 56.9216 72.3711 56.9216 71.3876C56.9216 70.7975 58.81 68.315 59.0578 68.5845C59.1345 68.6298 59.3804 70.8191 59.6263 73.4549ZM156.057 76.0377L156.773 76.4508L156.795 81.7697C156.818 84.6652 156.873 87.9167 156.873 88.9691C156.919 91.182 156.649 91.5499 155.32 91.0896L154.56 90.8142V88.6996C154.56 87.5253 154.482 84.1046 154.383 81.0773L154.236 75.6148H154.806C155.097 75.6148 155.666 75.8134 156.057 76.0377ZM70.4215 85.5799C70.868 90.2988 71.5742 98.2674 72.0423 103.283L72.8803 112.391L71.9204 113.341L70.99 114.303L70.8129 112.357C70.7146 111.276 70.2228 106.265 69.7074 101.194C69.1515 95.7531 68.6112 90.3102 68.0866 84.8658L67.3942 77.7805L68.3541 76.8973C69.2157 76.0829 69.316 76.0593 69.4852 76.5039C69.5835 76.7517 69.9986 80.8314 70.4215 85.5799ZM52.004 88.5541C52.541 93.4028 53.971 106.289 55.2004 117.185C56.4298 128.08 57.5806 138.576 57.8048 140.543C58.0054 142.51 58.3418 145.49 58.5424 147.19C58.8886 150.062 58.8886 150.263 58.4972 150.554C57.9051 151 57.6592 150.947 57.6592 150.432C57.6592 150.209 57.437 148.341 57.1675 146.328C56.721 142.955 55.9833 137.247 54.3389 124.437C53.832 120.628 53.3403 116.818 52.8636 113.005C52.3718 109.285 51.6578 103.753 51.2584 100.703C50.865 97.6517 50.2061 92.441 49.7832 89.0694C49.3445 85.7254 49.075 82.7532 49.1458 82.4306C49.3229 81.7697 50.7667 79.4564 50.9201 79.602C50.9654 79.6708 51.4571 83.6817 52.002 88.5521L52.004 88.5541ZM44.4741 99.1506C44.8419 102.109 45.5343 107.495 46.0025 111.152C46.4628 114.795 47.0549 119.342 47.3243 121.243L47.7925 124.685L47.2771 125.129C46.986 125.375 46.687 125.468 46.5867 125.375C46.4942 125.275 46.2936 124.291 46.148 123.208C45.4837 118.531 44.8025 113.856 44.1043 109.185L42.3595 97.1363L42.9221 95.4624C43.2211 94.5555 43.5358 93.8179 43.6125 93.8179C43.7128 93.8179 44.0807 96.2295 44.4741 99.1486V99.1506ZM179.493 95.9305C179.839 96.2767 179.892 97.7992 179.892 109.092V121.856H179.202C177.703 121.856 177.726 122.224 177.628 108.256L177.557 95.5391H178.34C178.755 95.5391 179.302 95.7082 179.493 95.9305ZM125.66 100.333C131.215 101.171 136.066 102.723 140.86 105.182C143.956 106.781 145.431 107.886 148.873 111.181C153.99 116.079 157.141 120.357 160.092 126.406C164.396 135.211 166.071 143.002 168.182 163.91C169.144 173.283 170.395 190.272 170.665 197.232C170.743 199.254 170.91 202.574 171.064 204.608C171.333 208.944 171.648 208.352 167.838 210.195C162.55 212.756 157.456 214.522 150.748 216.175C142.534 218.187 137.217 218.824 129.103 218.856L123.201 218.879L123.249 216.051C123.249 214.499 123.394 210.887 123.548 208.06C124.285 194.36 124.132 177.071 123.178 167.474C122.633 161.966 121.581 155.279 120.989 153.803C120.867 153.483 121.427 153.213 123.862 152.375C128.32 150.823 132.177 148.88 132.767 147.928C133.829 146.106 131.931 143.494 129.518 143.494C129.105 143.494 127.85 143.938 126.691 144.454C121.181 146.989 110.14 149.962 103.769 150.63C99.3667 151.1 92.5272 150.823 87.7866 149.962C85.2059 149.493 80.5793 147.751 76.7141 145.76C72.2666 143.447 69.5383 140.374 68.7239 136.731C68.2774 134.764 68.4013 130.83 68.9698 128.617C69.5835 126.182 71.3047 122.639 72.8803 120.572C79.8889 111.352 94.3487 103.36 109.178 100.557C113.905 99.6719 120.589 99.5735 125.662 100.333H125.66ZM201.53 101.094C202.415 101.462 202.513 101.562 202.513 102.4C202.568 109.116 202.415 124.461 202.291 125.1C202.267 125.32 200.993 125.344 200.448 125.151C200.109 125.029 200.054 123.699 200.054 112.849C200.054 105.081 200.155 100.703 200.3 100.703C200.424 100.703 200.993 100.88 201.53 101.094ZM212.279 114.602L213.165 114.972L212.996 135.333C212.795 161.282 212.771 162.041 211.835 164.278C210.312 167.942 210.389 168.68 210.537 152.599C210.582 144.554 210.704 136.416 210.759 134.518C210.804 132.63 210.851 127.287 210.881 122.639C210.881 117.029 210.95 114.234 211.127 114.234C211.274 114.234 211.788 114.403 212.279 114.602ZM64.3748 120.725C64.5203 122.716 64.4672 122.909 63.7512 124.482L62.9683 126.158L62.6772 123.699C62.2071 119.765 62.2071 119.588 63.1375 119.004C63.5604 118.705 64.005 118.512 64.0758 118.56C64.1525 118.605 64.298 119.588 64.3748 120.725ZM49.1694 135.557C49.3917 137.569 51.1129 150.947 52.002 157.517C53.3258 167.675 53.4242 169.127 52.8341 168.513C52.7652 168.434 52.1948 165.015 51.6046 160.912C47.7689 134.396 47.7925 134.573 48.1151 134.373C48.776 133.926 49.0003 134.172 49.1675 135.555L49.1694 135.557ZM66.8788 146.82C67.0263 147.436 67.7404 154.098 67.7404 154.911C67.7404 155.595 66.8552 156.24 66.4638 155.841C66.3418 155.717 66.0192 153.628 65.7733 151.222C65.5038 148.787 65.2344 146.252 65.1576 145.591L65.0121 144.361L65.8737 145.345C66.3654 145.882 66.8021 146.545 66.8788 146.82ZM86.7264 156.087C86.9959 156.333 87.1729 157.316 87.3873 159.976C87.7571 164.77 87.8102 164.402 86.8031 164.402C85.7665 164.402 85.7901 164.478 85.4517 160.143C85.1055 155.741 85.1055 155.796 85.7665 155.796C86.0891 155.796 86.5041 155.941 86.7264 156.087ZM106.206 156.455C106.251 156.701 106.373 158.176 106.474 159.73C106.552 161.282 106.775 164.77 106.965 167.474C107.658 177.408 107.681 178.669 107.266 178.669C106.796 178.669 106.743 178.301 106.204 171.286C105.965 167.897 105.694 164.511 105.39 161.127C105.175 158.453 105.022 156.209 105.099 156.164C105.368 155.865 106.082 156.087 106.206 156.455ZM59.9725 161.182C60.1181 161.404 61.0465 169.272 62.2071 180.022C62.5533 183.264 62.8916 186.391 62.9683 186.976L63.0922 188.038L62.4766 187.644C62.0084 187.322 61.8392 187.007 61.8392 186.439C61.8392 184.885 60.777 174.682 59.9705 168.434C59.5024 164.893 59.1345 161.774 59.1345 161.473C59.1345 160.959 59.7246 160.759 59.9725 161.182ZM201.899 171.461L201.73 181.743L201.114 182.648C199.71 184.717 199.787 185.107 199.863 173.6L199.909 163.048L200.816 162.11C201.307 161.618 201.799 161.205 201.897 161.205C201.976 161.205 201.976 165.83 201.897 171.461H201.899ZM179.154 187.768C179.278 202.059 179.247 203.166 178.855 203.603C178.609 203.873 178.387 204.05 178.318 203.973C178.141 203.78 177.895 172.614 178.094 172.445C178.194 172.347 178.44 172.299 178.665 172.323C178.979 172.392 179.056 174.145 179.156 187.766L179.154 187.768ZM98.8297 177.978C98.9969 179.499 99.6126 186.806 99.8584 190.249C100.004 192.562 100.004 192.639 99.465 192.806C99.1739 192.908 98.8277 192.885 98.7294 192.763C98.5602 192.586 98.0133 187.129 97.3524 178.716L97.1754 176.702H97.9445C98.6526 176.702 98.7057 176.749 98.8297 177.978ZM79.4955 186.584C79.6647 186.761 79.7886 187.375 79.7886 187.991C79.7886 188.628 80.0876 191.946 80.4023 195.389C81.3406 204.811 81.4173 206.086 80.9944 205.84C80.3571 205.47 79.7886 204.909 79.9125 204.764C79.9656 204.665 79.8653 203.434 79.6647 202.029C79.4661 200.311 79.3021 198.589 79.1729 196.864C79.0805 195.444 78.8582 192.832 78.6595 191.087C78.1894 186.783 78.2209 186.291 78.7579 186.291C79.0305 186.299 79.2917 186.403 79.4955 186.584ZM91.1287 203.135C91.2073 203.68 91.3529 205.692 91.4513 207.614C91.6204 211.302 91.5437 211.572 90.5385 210.81C90.2454 210.588 90.0468 209.658 89.7537 206.855C89.2403 201.782 89.2088 201.982 90.1687 202.083C90.8828 202.151 90.9831 202.252 91.1287 203.135Z" fill="white"/>
<path d="M82.347 112.113C79.7879 113.219 79.5951 116.693 82.0008 117.922C83.7515 118.805 85.5199 118.382 86.4346 116.86C88.1558 114.057 85.3507 110.813 82.347 112.113ZM99.0198 114.48C96.6593 115.923 96.6593 119.419 99.0198 120.873C101.357 122.269 104.384 120.426 104.384 117.621C104.384 114.916 101.286 113.097 99.0198 114.48Z" fill="white"/>
</svg>
