<svg width="256" height="256" viewBox="0 0 256 256" fill="none" xmlns="http://www.w3.org/2000/svg">
<path d="M196 0H60C26.8629 0 0 26.8629 0 60V196C0 229.137 26.8629 256 60 256H196C229.137 256 256 229.137 256 196V60C256 26.8629 229.137 0 196 0Z" fill="#5865F2"/>
<path fill-rule="evenodd" clip-rule="evenodd" d="M146.705 211.193C171.447 211.173 196.226 211.323 221.004 211.193L228 172.737H28L35.9139 211.193C72.8416 210.951 109.794 211.221 146.705 211.193Z" fill="#98A0F7"/>
<path fill-rule="evenodd" clip-rule="evenodd" d="M202.999 174.215H53V123.905C53 79.7752 86.5791 44 128 44C169.42 44 202.999 79.7752 202.999 123.905V174.215Z" fill="#98A0F7"/>
<path fill-rule="evenodd" clip-rule="evenodd" d="M207.395 147.122V74.1228V147.122ZM49.061 147.122V74.1228V147.122Z" fill="white"/>
<path d="M49.061 147.122V74.1228M207.395 147.122V74.1228V147.122Z" stroke="#202225" stroke-width="3.37" stroke-linecap="round" stroke-linejoin="round"/>
<path fill-rule="evenodd" clip-rule="evenodd" d="M211.561 119.006H44.894C41.8268 119.006 39.3379 127.62 39.3379 138.243C39.3379 148.87 41.8268 157.479 44.894 157.479H211.561C214.629 157.479 217.117 148.87 217.117 138.243C217.117 127.62 214.629 119.006 211.561 119.006Z" fill="white"/>
<path fill-rule="evenodd" clip-rule="evenodd" d="M143.461 113.547C135.994 124.686 120.462 124.686 112.995 113.547C109.479 108.307 103.807 105.197 97.7595 105.197H80.9585C74.08 105.197 68.5073 111.138 68.5073 118.465V165.864H187.952V118.465C187.952 111.138 182.376 105.197 175.498 105.197H158.697C152.648 105.197 146.976 108.307 143.461 113.547Z" fill="white"/>
<path fill-rule="evenodd" clip-rule="evenodd" d="M136.562 101.375C136.562 96.4732 132.83 92.4956 128.228 92.4956C123.626 92.4956 119.894 96.4732 119.894 101.375C119.894 106.276 123.626 110.254 128.228 110.254C132.83 110.254 136.562 106.276 136.562 101.375Z" fill="white"/>
<path fill-rule="evenodd" clip-rule="evenodd" d="M101.84 137.751C101.84 132.029 97.487 127.39 92.1171 127.39C86.7472 127.39 82.394 132.029 82.394 137.751C82.394 143.471 86.7472 148.109 92.1171 148.109C97.487 148.109 101.84 143.471 101.84 137.751ZM174.062 137.751C174.062 132.029 169.709 127.39 164.339 127.39C158.969 127.39 154.616 132.029 154.616 137.751C154.616 143.471 158.969 148.109 164.339 148.109C169.709 148.109 174.062 143.471 174.062 137.751Z" fill="black"/>
<path fill-rule="evenodd" clip-rule="evenodd" d="M192.116 196.741C192.116 194.292 190.251 192.302 187.951 192.302C185.649 192.302 183.785 194.292 183.785 196.741C183.785 199.194 185.649 201.181 187.951 201.181C190.251 201.181 192.116 199.194 192.116 196.741ZM178.229 196.741C178.229 194.292 176.364 192.302 174.061 192.302C171.759 192.302 169.895 194.292 169.895 196.741C169.895 199.194 171.759 201.181 174.061 201.181C176.364 201.181 178.229 199.194 178.229 196.741ZM164.339 196.741C164.339 194.292 162.474 192.302 160.172 192.302C157.872 192.302 156.005 194.292 156.005 196.741C156.005 199.194 157.872 201.181 160.172 201.181C162.474 201.181 164.339 199.194 164.339 196.741Z" fill="white"/>
</svg>
