<svg width="256" height="256" viewBox="0 0 256 256" fill="none" xmlns="http://www.w3.org/2000/svg">
<g clip-path="url(#clip0_30_331)">
<path d="M196 0H60C26.8629 0 0 26.8629 0 60V196C0 229.137 26.8629 256 60 256H196C229.137 256 256 229.137 256 196V60C256 26.8629 229.137 0 196 0Z" fill="#5865F2"/>
<path d="M190.377 64.6368C178.905 58.7878 166.603 54.4785 153.739 52.0103C153.505 51.9627 153.271 52.0817 153.15 52.3198C151.568 55.4466 149.815 59.5258 148.588 62.732C134.753 60.4306 120.989 60.4306 107.438 62.732C106.21 59.4545 104.394 55.4466 102.804 52.3198C102.684 52.0897 102.45 51.9707 102.215 52.0103C89.3593 54.4706 77.0567 58.7799 65.577 64.6368C65.4776 64.6844 65.3925 64.7638 65.3359 64.8669C42.0004 103.603 35.6079 141.387 38.7438 178.703C38.7581 178.886 38.8502 179.06 38.978 179.171C54.3741 191.734 69.2878 199.361 83.9245 204.416C84.1588 204.495 84.407 204.4 84.5561 204.186C88.0185 198.932 91.1048 193.393 93.751 187.568C93.9073 187.226 93.7581 186.822 93.439 186.687C88.5434 184.623 83.882 182.108 79.3979 179.251C79.0433 179.021 79.0149 178.457 79.3412 178.187C80.2848 177.401 81.2286 176.584 82.1297 175.759C82.2927 175.608 82.5198 175.576 82.7114 175.671C112.17 190.615 144.061 190.615 173.172 175.671C173.364 175.568 173.591 175.6 173.761 175.751C174.662 176.576 175.605 177.401 176.557 178.187C176.883 178.457 176.862 179.021 176.507 179.251C172.023 182.163 167.361 184.623 162.459 186.679C162.14 186.814 161.997 187.226 162.154 187.568C164.857 193.385 167.943 198.924 171.341 204.178C171.483 204.4 171.739 204.495 171.973 204.416C186.681 199.361 201.595 191.734 216.991 179.171C217.125 179.06 217.211 178.893 217.225 178.711C220.978 135.57 210.939 98.0956 190.611 64.8748C190.562 64.7638 190.477 64.6844 190.377 64.6368ZM98.1501 155.982C89.2813 155.982 81.9734 146.935 81.9734 135.824C81.9734 124.713 89.1395 115.666 98.1501 115.666C107.232 115.666 114.468 124.793 114.326 135.824C114.326 146.935 107.16 155.982 98.1501 155.982ZM157.961 155.982C149.091 155.982 141.784 146.935 141.784 135.824C141.784 124.713 148.95 115.666 157.961 115.666C167.042 115.666 174.279 124.793 174.138 135.824C174.138 146.935 167.042 155.982 157.961 155.982Z" fill="white"/>
</g>
<defs>
<clipPath id="clip0_30_331">
<rect width="256" height="256" fill="white"/>
</clipPath>
</defs>
</svg>
