<svg width="256" height="256" viewBox="0 0 256 256" fill="none" xmlns="http://www.w3.org/2000/svg">
<g clip-path="url(#clip0_30_335)">
<path d="M196 0H60C26.8629 0 0 26.8629 0 60V196C0 229.137 26.8629 256 60 256H196C229.137 256 256 229.137 256 196V60C256 26.8629 229.137 0 196 0Z" fill="#5865F2"/>
<path fill-rule="evenodd" clip-rule="evenodd" d="M144.835 203.473C167.103 203.456 189.404 203.59 211.704 203.473L218 168.863H38L45.1225 203.473C78.3574 203.256 111.615 203.498 144.835 203.473Z" fill="#98A0F7"/>
<path fill-rule="evenodd" clip-rule="evenodd" d="M195.5 170.194H60.5V124.914C60.5 85.1977 90.7212 53 128 53C165.278 53 195.5 85.1977 195.5 124.914V170.194Z" fill="#98A0F7"/>
<path fill-rule="evenodd" clip-rule="evenodd" d="M199.455 145.81V80.1106V145.81ZM56.9551 145.81V80.1106V145.81Z" fill="white"/>
<path d="M56.9551 145.81V80.1106M199.455 145.81V80.1106V145.81Z" stroke="#202225" stroke-width="3.37" stroke-linecap="round" stroke-linejoin="round"/>
<path fill-rule="evenodd" clip-rule="evenodd" d="M203.204 120.506H53.2036C50.4432 120.506 48.2031 128.257 48.2031 137.818C48.2031 147.383 50.4432 155.131 53.2036 155.131H203.204C205.965 155.131 208.204 147.383 208.204 137.818C208.204 128.257 205.965 120.506 203.204 120.506Z" fill="white"/>
<path fill-rule="evenodd" clip-rule="evenodd" d="M141.915 115.592C135.195 125.617 121.216 125.617 114.496 115.592C111.332 110.876 106.227 108.077 100.784 108.077H85.6631C79.4724 108.077 74.457 113.424 74.457 120.018V162.678H181.957V120.018C181.957 113.424 176.939 108.077 170.748 108.077H155.627C150.184 108.077 145.079 110.876 141.915 115.592Z" fill="white"/>
<path fill-rule="evenodd" clip-rule="evenodd" d="M135.705 104.637C135.705 100.226 132.346 96.646 128.204 96.646C124.062 96.646 120.703 100.226 120.703 104.637C120.703 109.048 124.062 112.628 128.204 112.628C132.346 112.628 135.705 109.048 135.705 104.637Z" fill="white"/>
<path fill-rule="evenodd" clip-rule="evenodd" d="M104.457 137.376C104.457 132.226 100.539 128.051 95.7058 128.051C90.8729 128.051 86.9551 132.226 86.9551 137.376C86.9551 142.523 90.8729 146.698 95.7058 146.698C100.539 146.698 104.457 142.523 104.457 137.376ZM169.456 137.376C169.456 132.226 165.538 128.051 160.706 128.051C155.872 128.051 151.955 132.226 151.955 137.376C151.955 142.523 155.872 146.698 160.706 146.698C165.538 146.698 169.456 142.523 169.456 137.376Z" fill="black"/>
<path fill-rule="evenodd" clip-rule="evenodd" d="M185.705 190.467C185.705 188.263 184.026 186.471 181.957 186.471C179.884 186.471 178.207 188.263 178.207 190.467C178.207 192.674 179.884 194.463 181.957 194.463C184.026 194.463 185.705 192.674 185.705 190.467ZM173.207 190.467C173.207 188.263 171.529 186.471 169.456 186.471C167.384 186.471 165.706 188.263 165.706 190.467C165.706 192.674 167.384 194.463 169.456 194.463C171.529 194.463 173.207 192.674 173.207 190.467ZM160.706 190.467C160.706 188.263 159.028 186.471 156.955 186.471C154.886 186.471 153.205 188.263 153.205 190.467C153.205 192.674 154.886 194.463 156.955 194.463C159.028 194.463 160.706 192.674 160.706 190.467Z" fill="white"/>
</g>
<defs>
<clipPath id="clip0_30_335">
<rect width="256" height="256" fill="white"/>
</clipPath>
</defs>
</svg>
