<svg width="256" height="256" viewBox="0 0 256 256" fill="none" xmlns="http://www.w3.org/2000/svg">
<g clip-path="url(#clip0_30_304)">
<path d="M196 0H60C26.8629 0 0 26.8629 0 60V196C0 229.137 26.8629 256 60 256H196C229.137 256 256 229.137 256 196V60C256 26.8629 229.137 0 196 0Z" fill="#092E20"/>
<path d="M121.452 38H150.884V174.234C135.786 177.101 124.701 178.248 112.661 178.248C76.7296 178.247 58 162.004 58 130.85C58 100.844 77.8775 81.3513 108.647 81.3513C113.425 81.3513 117.055 81.7323 121.452 82.879V38ZM121.452 106.576C118.012 105.431 115.145 105.048 111.515 105.048C96.607 105.048 88.006 114.222 88.006 130.275C88.006 145.949 96.2248 154.548 111.323 154.548C114.57 154.548 117.248 154.357 121.452 153.785V106.576Z" fill="white"/>
<path d="M197.706 83.4519V151.68C197.706 175.189 195.987 186.464 190.826 196.212C186.047 205.578 179.74 211.502 166.744 218L139.414 205.003C152.41 198.888 158.717 193.539 162.73 185.317C166.936 176.909 168.275 167.161 168.275 141.551V83.4519H197.706ZM168.275 38.1562H197.706V68.3534H168.275V38.1562Z" fill="white"/>
</g>
<defs>
<clipPath id="clip0_30_304">
<rect width="256" height="256" fill="white"/>
</clipPath>
</defs>
</svg>
