<svg width="256" height="256" viewBox="0 0 256 256" fill="none" xmlns="http://www.w3.org/2000/svg">
<path d="M214.285 112.568C210.231 109.756 200.943 108.701 193.68 110.107C192.836 103.077 188.952 96.9244 182.196 91.4754L178.312 88.663L175.61 92.7058C172.232 97.9791 170.543 105.362 171.05 112.393C171.219 114.853 172.063 119.248 174.596 123.115C172.232 124.521 167.334 126.279 160.917 126.279H38.8119L38.4742 127.685C37.292 134.716 37.292 156.688 51.1406 173.562C61.6116 186.393 77.1491 192.897 97.5843 192.897C141.832 192.897 174.596 171.628 189.965 133.134C196.045 133.31 209.049 133.134 215.636 119.951C215.804 119.599 216.142 118.896 217.324 116.26L218 114.853L214.285 112.568ZM136.428 63H117.851V80.5774H136.428V63ZM136.428 84.0929H117.851V101.67H136.428V84.0929ZM114.473 84.0929H95.8954V101.67H114.473V84.0929ZM92.5177 84.0929H73.9402V101.67H92.5177V84.0929ZM70.5625 105.186H51.9851V122.763H70.5625V105.186ZM92.5177 105.186H73.9402V122.763H92.5177V105.186ZM114.473 105.186H95.8954V122.763H114.473V105.186ZM136.428 105.186H117.851V122.763H136.428V105.186ZM158.383 105.186H139.806V122.763H158.383V105.186Z" fill="#2396ED"/>
</svg>
