<svg width="256" height="256" viewBox="0 0 256 256" fill="none" xmlns="http://www.w3.org/2000/svg">
<g clip-path="url(#clip0_30_675)">
<path d="M196 0H60C26.8629 0 0 26.8629 0 60V196C0 229.137 26.8629 256 60 256H196C229.137 256 256 229.137 256 196V60C256 26.8629 229.137 0 196 0Z" fill="#2396ED"/>
<path d="M139.868 122.123H158.514V103.379H139.868V122.123ZM117.673 122.123H136.317V103.379H117.673V122.123ZM95.9199 122.123H114.565V103.379H95.9199V122.123ZM74.1673 122.123H92.3684V103.379H74.1673V122.123ZM51.971 122.123H70.6159V103.379H51.971V122.123ZM74.1673 99.4333H92.3684V80.6896H74.1673V99.4333ZM95.9199 99.4333H114.565V80.6896H95.9199V99.4333ZM117.673 99.4333H136.317V80.6896H117.673V99.4333ZM117.673 76.7436H136.317V58H117.673V76.7436ZM218 113.738C218 113.738 210.009 105.352 193.584 108.312C191.808 94.0075 178.046 85.6222 178.046 85.6222C178.046 85.6222 165.173 102.886 174.495 122.123C171.832 123.603 167.392 125.576 160.733 125.576H38.6531C36.4335 134.948 36.4335 197.097 97.6956 197.097C141.644 197.097 174.495 174.408 190.033 132.974C213.117 134.948 218 113.738 218 113.738Z" fill="white"/>
</g>
<defs>
<clipPath id="clip0_30_675">
<rect width="256" height="256" fill="white"/>
</clipPath>
</defs>
</svg>
