<svg width="256" height="256" viewBox="0 0 256 256" fill="none" xmlns="http://www.w3.org/2000/svg">
<path d="M196 0H60C26.8629 0 0 26.8629 0 60V196C0 229.137 26.8629 256 60 256H196C229.137 256 256 229.137 256 196V60C256 26.8629 229.137 0 196 0Z" fill="#512BD4"/>
<path d="M35.1872 164.14C33.1908 164.14 31.4938 163.488 30.0963 162.182C28.6988 160.842 28 159.252 28 157.409C28 155.534 28.6988 153.927 30.0963 152.587C31.4938 151.248 33.1908 150.578 35.1872 150.578C37.2169 150.578 38.9305 151.248 40.3281 152.587C41.7588 153.927 42.4742 155.534 42.4742 157.409C42.4742 159.252 41.7588 160.842 40.3281 162.182C38.9305 163.488 37.2169 164.14 35.1872 164.14Z" fill="white"/>
<path d="M114.996 163.035H102.02L67.831 110.089C66.9659 108.75 66.2502 107.359 65.6848 105.919H65.3852C65.6514 107.46 65.7845 110.759 65.7845 115.815V163.035H54.3047V91H68.13L101.171 142.691C102.569 144.835 103.467 146.307 103.867 147.112H104.066C103.734 145.202 103.567 141.971 103.567 137.416V91H114.996V163.035Z" fill="white"/>
<path d="M170.9 163.035H130.721V91H169.303V101.147H142.6V121.542H167.207V131.639H142.6V152.938H170.9V163.035Z" fill="white"/>
<path d="M228 101.147H207.437V163.035H195.558V101.147H175.044V91H228V101.147Z" fill="white"/>
</svg>
