<svg width="256" height="256" viewBox="0 0 256 256" fill="none" xmlns="http://www.w3.org/2000/svg">
<g clip-path="url(#clip0_30_317)">
<path d="M196 0H60C26.8629 0 0 26.8629 0 60V196C0 229.137 26.8629 256 60 256H196C229.137 256 256 229.137 256 196V60C256 26.8629 229.137 0 196 0Z" fill="#512BD4"/>
<path d="M44.4685 160.826C42.6717 160.826 41.1444 160.239 39.8867 159.064C38.6289 157.858 38 156.426 38 154.768C38 153.081 38.6289 151.634 39.8867 150.428C41.1444 149.223 42.6717 148.62 44.4685 148.62C46.2952 148.62 47.8374 149.223 49.0953 150.428C50.3829 151.634 51.0267 153.081 51.0267 154.768C51.0267 156.426 50.3829 157.858 49.0953 159.064C47.8374 160.239 46.2952 160.826 44.4685 160.826Z" fill="white"/>
<path d="M116.296 159.832H104.617L73.8475 112.181C73.069 110.975 72.4248 109.723 71.916 108.427H71.6463C71.8859 109.814 72.0057 112.783 72.0057 117.334V159.832H61.6738V95H74.1166L103.854 141.522C105.112 143.451 105.92 144.777 106.28 145.501H106.459C106.16 143.782 106.01 140.874 106.01 136.774V95H116.296V159.832Z" fill="white"/>
<path d="M166.61 159.832H130.449V95H165.173V104.133H141.141V122.488H163.286V131.575H141.141V150.745H166.61V159.832Z" fill="white"/>
<path d="M218 104.133H199.493V159.832H188.802V104.133H170.34V95H218V104.133Z" fill="white"/>
</g>
<defs>
<clipPath id="clip0_30_317">
<rect width="256" height="256" fill="white"/>
</clipPath>
</defs>
</svg>
