<svg width="256" height="256" viewBox="0 0 256 256" fill="none" xmlns="http://www.w3.org/2000/svg">
<path d="M0 56C0 25.0721 25.0721 0 56 0H200C230.928 0 256 25.0721 256 56V200C256 230.928 230.928 256 200 256H56C25.0721 256 0 230.928 0 200V56Z" fill="#0F172A"/>
<path d="M83.0438 153.434H52.377C56.4375 167.363 63.9723 179.848 75.0035 190.879C92.5896 208.469 113.737 217.249 138.465 217.249C143.409 217.249 148.198 216.881 152.85 216.18C171.477 213.368 187.784 204.947 201.757 190.879C212.859 179.852 220.447 167.363 224.539 153.434H212.094H193.896H83.0438Z" fill="#2C2255"/>
<path d="M66.1341 111.782H50.114C49.5279 115.302 49.1286 118.896 48.9473 122.581H67.9876H77.5389H215.405H227.989C227.806 118.896 227.407 115.302 226.815 111.782" fill="#2C2255"/>
<path d="M48.9473 132.609C49.1286 136.295 49.5261 139.889 50.114 143.407H66.7697H79.3942H214.281H226.819C227.409 139.889 227.812 136.295 227.995 132.609" fill="#2C2255"/>
<path d="M224.542 101.753C220.454 87.7855 212.864 75.2434 201.756 64.1335C187.82 50.1994 171.559 41.8367 152.993 39.0236C148.297 38.3111 143.46 37.9375 138.465 37.9375C113.736 37.9375 92.5873 46.672 75.003 64.1335C63.9682 75.2434 56.4297 87.7855 52.3711 101.753" fill="#2C2255"/>
<path d="M43.6227 127.597C43.6227 80.3004 79.1448 41.0018 125.355 34.0897C124.209 34.0476 123.057 34 121.899 34C70.0422 34 28 75.9067 28 127.597C28 179.29 70.0403 221.193 121.899 221.193C123.061 221.193 124.213 221.15 125.363 221.106C79.1448 214.194 43.6227 174.896 43.6227 127.597Z" fill="#F7941E"/>
<path d="M199.398 122.579C199.097 118.878 198.475 115.268 197.544 111.781H79.3944C78.464 115.264 77.8394 118.876 77.5391 122.579H199.398Z" fill="url(#paint0_linear_24_943)"/>
<path d="M199.399 132.609H77.541C77.8413 136.31 78.4622 139.918 79.3945 143.407H197.547C198.477 139.92 199.098 136.31 199.399 132.609Z" fill="url(#paint1_linear_24_943)"/>
<path d="M138.469 188.748C163.006 188.748 184.156 174.291 193.896 153.434H83.043C92.7829 174.291 113.933 188.748 138.469 188.748Z" fill="url(#paint2_linear_24_943)"/>
<path d="M68.5085 132.608H77.4536H199.626H215.676H227.867C227.951 131.013 228 129.407 228 127.788C228 126.039 227.936 124.306 227.837 122.577H215.673H199.625H77.4517H67.8748H48.9462C48.8473 124.302 48.7832 126.039 48.7832 127.788C48.7832 129.407 48.8308 131.013 48.9151 132.608H68.5085Z" fill="white"/>
<path d="M82.6848 101.753H52.3697C51.3734 105.018 50.7305 108.368 50.1133 111.784H65.7269H79.0218H197.482H214.258H226.249C225.63 108.372 224.834 105.022 223.839 101.753" fill="white"/>
<path d="M214.733 143.405H197.956H79.4978H66.8385H50.1113C50.712 146.817 51.3952 150.165 52.3751 153.434H83.1571H194.297H212.542H224.425C225.403 150.168 226.193 146.82 226.795 143.405H214.733Z" fill="white"/>
<defs>
<linearGradient id="paint0_linear_24_943" x1="138.467" y1="229.42" x2="138.467" y2="94.558" gradientUnits="userSpaceOnUse">
<stop offset="0.303" stop-color="#473788"/>
<stop offset="0.872" stop-color="#2C2255"/>
</linearGradient>
<linearGradient id="paint1_linear_24_943" x1="138.469" y1="229.422" x2="138.469" y2="94.56" gradientUnits="userSpaceOnUse">
<stop offset="0.303" stop-color="#473788"/>
<stop offset="0.872" stop-color="#2C2255"/>
</linearGradient>
<linearGradient id="paint2_linear_24_943" x1="138.469" y1="229.417" x2="138.469" y2="94.564" gradientUnits="userSpaceOnUse">
<stop offset="0.303" stop-color="#473788"/>
<stop offset="0.863" stop-color="#2C2255"/>
</linearGradient>
</defs>
</svg>
