<svg width="256" height="256" viewBox="0 0 256 256" fill="none" xmlns="http://www.w3.org/2000/svg">
<path d="M217.992 131.947C218.009 124.643 215.768 117.512 211.574 111.532C207.38 105.552 201.44 101.014 194.568 98.5413C195.193 95.3535 195.508 92.1126 195.509 88.8639C195.515 78.1109 192.111 67.6329 185.787 58.9364C179.462 50.2399 170.543 43.7728 160.312 40.465C150.081 37.1572 139.063 37.179 128.845 40.5273C118.626 43.8756 109.733 50.3779 103.443 59.0993C98.8025 55.5034 93.1166 53.5176 87.2464 53.443C81.3761 53.3684 75.6415 55.2089 70.9111 58.6857C66.1807 62.1625 62.7123 67.0863 61.0311 72.7112C59.3501 78.336 59.5479 84.3555 61.5947 89.8578C54.7058 92.3688 48.7511 96.9292 44.5314 102.926C40.3118 108.922 38.0298 116.067 37.9923 123.399C37.9732 130.729 40.2266 137.884 44.4422 143.879C48.6578 149.875 54.6284 154.416 61.5319 156.878C60.9209 160.065 60.6091 163.3 60.6008 166.545C60.5906 177.285 63.9916 187.751 70.3134 196.435C76.6353 205.117 85.5513 211.568 95.776 214.858C106.001 218.146 117.006 218.103 127.204 214.733C137.402 211.364 146.267 204.843 152.52 196.111C157.148 199.716 162.824 201.713 168.689 201.801C174.554 201.889 180.287 200.061 185.019 196.596C189.752 193.13 193.225 188.216 194.912 182.599C196.599 176.981 196.409 170.967 194.369 165.467C201.261 162.96 207.22 158.401 211.442 152.404C215.664 146.407 217.946 139.26 217.982 131.926" fill="white"/>
<path d="M108.756 115.228L148.146 133.213L187.902 98.395C188.474 95.5221 188.758 92.5991 188.749 89.6696C188.747 80.1858 185.71 70.9515 180.081 63.3181C174.454 55.6846 166.531 50.0528 157.471 47.2467C148.411 44.4405 138.692 44.6073 129.735 47.7228C120.777 50.8382 113.052 56.7386 107.689 64.5607L101.066 98.8135L108.756 115.228Z" fill="#FEC514"/>
<path d="M67.9875 156.94C67.4068 159.858 67.1158 162.826 67.1192 165.802C67.1194 175.325 70.1722 184.598 75.8297 192.258C81.4872 199.92 89.4512 205.565 98.5531 208.367C107.655 211.169 117.415 210.979 126.402 207.826C135.388 204.674 143.127 198.723 148.483 190.848L155.042 156.668L146.286 139.929L106.749 121.914L67.9875 156.94Z" fill="#00BFB3"/>
<path d="M67.7447 88.7801L94.7368 95.1515L100.648 64.4558C96.9765 61.6719 92.5022 60.1522 87.8949 60.1242C83.2875 60.096 78.795 61.5612 75.0901 64.3002C71.3852 67.0391 68.6671 70.9045 67.3429 75.3175C66.0187 79.7306 66.1597 84.4538 67.7447 88.7801Z" fill="#F04E98"/>
<path d="M65.4007 95.2039C59.4783 97.2023 54.3259 100.997 50.6602 106.059C46.9945 111.122 44.9976 117.201 44.9473 123.451C44.943 129.492 46.7774 135.391 50.2067 140.364C53.6359 145.337 58.4975 149.148 64.1452 151.291L102.018 117.059L95.0606 102.203L65.4007 95.2039Z" fill="#1BA9F5"/>
<path d="M155.408 190.848C159.074 193.617 163.537 195.128 168.131 195.152C172.725 195.176 177.204 193.715 180.898 190.984C184.593 188.253 187.305 184.4 188.631 180.001C189.955 175.603 189.821 170.893 188.249 166.576L161.277 160.299L155.408 190.848Z" fill="#93C90E"/>
<path d="M160.892 153.195L190.583 160.131C196.509 158.138 201.664 154.346 205.331 149.281C208.998 144.218 210.992 138.136 211.036 131.884C211.031 125.856 209.193 119.972 205.767 115.013C202.339 110.054 197.486 106.254 191.849 104.118L153.014 138.119L160.892 153.195Z" fill="#0077CC"/>
</svg>
