<svg width="256" height="256" viewBox="0 0 256 256" fill="none" xmlns="http://www.w3.org/2000/svg">
<path d="M196 0H60C26.8629 0 0 26.8629 0 60V196C0 229.137 26.8629 256 60 256H196C229.137 256 256 229.137 256 196V60C256 26.8629 229.137 0 196 0Z" fill="#2B2E3A"/>
<path d="M101.093 70.9865C74.9576 66.2268 54.2925 71.2086 46.0564 85.4738C39.9107 96.1189 41.6675 110.232 50.3177 125.319C50.4884 125.632 50.7201 125.908 50.9991 126.131C51.2779 126.353 51.5984 126.518 51.9419 126.615C52.2853 126.712 52.6447 126.74 52.9988 126.696C53.353 126.652 53.6949 126.539 54.0044 126.361C54.3141 126.183 54.585 125.946 54.8016 125.662C55.0181 125.378 55.1758 125.054 55.2654 124.709C55.3551 124.364 55.3749 124.004 55.3235 123.65C55.2723 123.298 55.151 122.958 54.9669 122.652C47.176 109.063 45.6594 96.8828 50.6986 88.1542C57.5407 76.3041 75.9727 71.8599 100.132 76.2599C100.827 76.3754 101.538 76.2133 102.114 75.8085C102.69 75.4037 103.083 74.7887 103.21 74.0964C103.335 73.4039 103.184 72.6896 102.788 72.1078C102.393 71.526 101.783 71.1232 101.093 70.9865ZM63.9085 143.656C74.4762 155.269 88.2057 166.162 103.864 175.202C141.776 197.091 182.137 202.941 202.029 189.378C202.326 189.183 202.581 188.93 202.78 188.635C202.979 188.34 203.117 188.007 203.186 187.659C203.256 187.31 203.255 186.95 203.183 186.601C203.112 186.253 202.972 185.922 202.771 185.628C202.571 185.333 202.314 185.082 202.016 184.889C201.717 184.695 201.382 184.563 201.032 184.5C200.682 184.437 200.322 184.444 199.975 184.521C199.628 184.598 199.299 184.744 199.009 184.95C181.206 197.089 142.866 191.531 106.544 170.56C91.3544 161.791 78.0591 151.242 67.8732 140.048C67.6368 139.786 67.3508 139.574 67.0321 139.422C66.7132 139.271 66.3676 139.185 66.0152 139.168C65.6627 139.15 65.3104 139.203 64.9782 139.322C64.646 139.441 64.3407 139.624 64.0798 139.862C63.8188 140.099 63.6073 140.386 63.4574 140.705C63.3075 141.025 63.222 141.371 63.2062 141.724C63.1903 142.076 63.2441 142.428 63.3646 142.76C63.4852 143.091 63.6699 143.396 63.9085 143.656Z" fill="#9FEAF9"/>
<path d="M195.683 140.396C212.796 120.179 218.771 99.8455 210.552 85.6105C204.505 75.1352 191.72 69.6046 174.728 69.3835C174.024 69.3845 173.348 69.6627 172.848 70.1578C172.347 70.6529 172.061 71.3251 172.052 72.0292C172.043 72.7334 172.311 73.4128 172.799 73.9207C173.287 74.4285 173.955 74.724 174.659 74.7433C189.94 74.9423 200.955 79.7071 205.911 88.2909C212.737 100.115 207.408 118.247 191.591 136.933C191.359 137.201 191.182 137.511 191.072 137.849C190.961 138.186 190.918 138.541 190.945 138.894C190.972 139.248 191.07 139.592 191.232 139.907C191.392 140.224 191.616 140.504 191.886 140.734C192.156 140.962 192.47 141.136 192.807 141.242C193.146 141.35 193.502 141.389 193.855 141.357C194.207 141.326 194.551 141.225 194.865 141.059C195.179 140.894 195.457 140.669 195.683 140.396ZM151.702 71.879C136.229 75.1945 119.759 81.6769 103.942 90.8085C64.8048 113.404 39.2744 146.723 42.8201 170.883C42.8673 171.235 42.9839 171.573 43.1631 171.879C43.3422 172.186 43.5804 172.453 43.8637 172.667C44.147 172.88 44.4699 173.035 44.8136 173.123C45.1573 173.211 45.515 173.23 45.866 173.177C46.2169 173.126 46.5542 173.006 46.8581 172.823C47.1621 172.64 47.4268 172.399 47.6368 172.112C47.8468 171.827 47.9979 171.502 48.0814 171.157C48.165 170.813 48.1793 170.455 48.1235 170.104C44.9748 148.653 69.1756 117.07 106.622 95.4506C121.966 86.5914 137.914 80.3151 152.825 77.1201C153.174 77.0514 153.505 76.9138 153.801 76.7155C154.096 76.5172 154.35 76.2621 154.545 75.9651C154.741 75.6681 154.875 75.335 154.941 74.9855C155.007 74.636 155.002 74.2768 154.927 73.929C154.853 73.5812 154.71 73.2517 154.507 72.9597C154.303 72.6677 154.045 72.4191 153.745 72.2282C153.444 72.0375 153.109 71.9083 152.759 71.8483C152.408 71.7884 152.049 71.7988 151.702 71.879Z" fill="#9FEAF9"/>
<path d="M88.297 187.632C97.2456 212.616 111.884 228 128.344 228C140.349 228 151.455 219.816 160.116 205.409C160.304 205.108 160.429 204.771 160.486 204.42C160.542 204.07 160.528 203.712 160.445 203.366C160.362 203.02 160.211 202.696 160 202.409C159.79 202.123 159.525 201.881 159.221 201.698C158.916 201.515 158.578 201.394 158.227 201.343C157.875 201.292 157.516 201.311 157.173 201.399C156.829 201.488 156.505 201.644 156.222 201.858C155.938 202.072 155.701 202.341 155.522 202.648C147.739 215.595 138.178 222.639 128.344 222.639C114.671 222.639 101.614 208.919 93.3441 185.826C93.2309 185.488 93.0513 185.175 92.8158 184.908C92.5804 184.64 92.2939 184.422 91.9731 184.266C91.6523 184.11 91.3037 184.02 90.9476 184.001C90.5915 183.981 90.2351 184.034 89.8994 184.153C89.5636 184.274 89.2552 184.46 88.9922 184.7C88.7293 184.941 88.517 185.233 88.3678 185.556C88.2188 185.88 88.1358 186.231 88.1237 186.586C88.1117 186.943 88.1709 187.299 88.298 187.632H88.297ZM170.027 182.744C174.66 167.942 177.147 150.867 177.147 133.073C177.147 88.673 161.607 50.398 139.472 40.5699C138.826 40.2991 138.098 40.2923 137.447 40.5512C136.796 40.81 136.271 41.3138 135.987 41.9545C135.703 42.5952 135.68 43.322 135.926 43.9788C136.171 44.6356 136.663 45.1704 137.297 45.4684C157.039 54.2351 171.787 90.5594 171.787 133.073C171.787 150.337 169.378 166.872 164.912 181.143C164.802 181.481 164.758 181.837 164.787 182.192C164.815 182.545 164.912 182.89 165.075 183.207C165.237 183.522 165.461 183.803 165.732 184.032C166.005 184.26 166.319 184.433 166.658 184.538C166.997 184.645 167.353 184.682 167.707 184.649C168.061 184.617 168.405 184.513 168.718 184.346C169.032 184.179 169.309 183.952 169.533 183.677C169.758 183.402 169.926 183.085 170.028 182.744H170.027ZM220.503 180.119C220.503 173.035 214.76 167.292 207.676 167.292C200.591 167.292 194.849 173.035 194.849 180.119C194.849 187.204 200.591 192.946 207.676 192.946C214.76 192.946 220.503 187.204 220.503 180.119ZM215.143 180.119C215.143 181.1 214.95 182.071 214.574 182.976C214.199 183.883 213.649 184.706 212.956 185.4C212.263 186.093 211.439 186.643 210.533 187.019C209.627 187.393 208.657 187.586 207.676 187.586C206.695 187.586 205.724 187.393 204.818 187.019C203.912 186.643 203.089 186.093 202.395 185.4C201.702 184.706 201.152 183.883 200.777 182.976C200.401 182.071 200.208 181.1 200.208 180.119C200.208 178.139 200.995 176.24 202.395 174.839C203.796 173.439 205.695 172.652 207.676 172.652C209.657 172.652 211.555 173.439 212.956 174.839C214.356 176.24 215.143 178.139 215.143 180.119ZM48.827 192.946C55.9124 192.946 61.655 187.204 61.655 180.119C61.655 173.035 55.9114 167.292 48.827 167.292C41.7437 167.292 36 173.035 36 180.119C36 187.204 41.7437 192.946 48.827 192.946ZM48.827 187.586C46.8465 187.586 44.9472 186.799 43.5469 185.4C42.1465 184 41.3597 182.1 41.3597 180.119C41.3597 178.139 42.1465 176.24 43.5469 174.839C44.9472 173.439 46.8465 172.652 48.827 172.652C50.8075 172.652 52.7068 173.439 54.1072 174.839C55.5075 176.24 56.2943 178.139 56.2943 180.119C56.2943 182.1 55.5075 184 54.1072 185.4C52.7068 186.799 50.8075 187.586 48.827 187.586Z" fill="#9FEAF9"/>
<path d="M128.344 53.654C135.428 53.654 141.171 47.9114 141.171 40.827C141.171 33.7427 135.428 28 128.344 28C121.26 28 115.517 33.7427 115.517 40.827C115.517 47.9114 121.26 53.654 128.344 53.654ZM128.344 48.2943C126.363 48.2943 124.465 47.5075 123.064 46.1072C121.664 44.7068 120.877 42.8075 120.877 40.827C120.877 38.8465 121.664 36.9472 123.064 35.5469C124.465 34.1465 126.363 33.3597 128.344 33.3597C130.325 33.3597 132.223 34.1465 133.624 35.5469C135.024 36.9472 135.811 38.8465 135.811 40.827C135.811 42.8075 135.024 44.7068 133.624 46.1072C132.223 47.5075 130.325 48.2943 128.344 48.2943ZM130.303 142.145C125.293 143.227 120.357 140.043 119.273 135.033C118.753 132.627 119.211 130.114 120.544 128.045C121.878 125.977 123.978 124.523 126.384 124.002C131.394 122.92 136.33 126.104 137.415 131.114C138.498 136.124 135.314 141.06 130.303 142.145Z" fill="#9FEAF9"/>
</svg>
