<svg width="256" height="256" viewBox="0 0 256 256" fill="none" xmlns="http://www.w3.org/2000/svg">
<g clip-path="url(#clip0_30_531)">
<path d="M196 0H60C26.8629 0 0 26.8629 0 60V196C0 229.137 26.8629 256 60 256H196C229.137 256 256 229.137 256 196V60C256 26.8629 229.137 0 196 0Z" fill="#2B2E3A"/>
<path d="M103.584 76.6879C80.0622 72.4041 61.4636 76.8878 54.0511 89.7265C48.52 99.3071 50.1011 112.009 57.8863 125.587C58.04 125.869 58.2484 126.117 58.4995 126.318C58.7505 126.518 59.039 126.666 59.3481 126.754C59.6571 126.84 59.9806 126.866 60.2993 126.826C60.6181 126.787 60.9258 126.685 61.2044 126.525C61.4831 126.365 61.7269 126.151 61.9219 125.896C62.1167 125.64 62.2586 125.349 62.3393 125.038C62.42 124.728 62.4378 124.404 62.3916 124.085C62.3454 123.768 62.2363 123.462 62.0706 123.187C55.0588 110.956 53.6939 99.9945 58.2291 92.1388C64.387 81.4737 80.9758 77.4739 102.719 81.4339C103.344 81.5379 103.985 81.392 104.503 81.0277C105.021 80.6633 105.375 80.1099 105.489 79.4868C105.602 78.8635 105.466 78.2207 105.11 77.6971C104.754 77.1735 104.206 76.8109 103.584 76.6879ZM70.118 142.091C79.629 152.542 91.9855 162.346 106.078 170.481C140.199 190.182 176.524 195.447 194.426 183.24C194.694 183.065 194.924 182.837 195.103 182.571C195.282 182.306 195.406 182.007 195.468 181.693C195.531 181.379 195.53 181.055 195.465 180.741C195.401 180.427 195.276 180.13 195.095 179.865C194.915 179.6 194.683 179.374 194.414 179.2C194.146 179.025 193.845 178.907 193.529 178.85C193.214 178.793 192.89 178.799 192.578 178.869C192.265 178.939 191.97 179.07 191.708 179.255C175.686 190.18 141.18 185.178 108.49 166.304C94.8194 158.412 82.8536 148.918 73.6863 138.843C73.4735 138.607 73.2161 138.416 72.9292 138.28C72.6422 138.144 72.3313 138.066 72.014 138.051C71.6968 138.035 71.3797 138.083 71.0808 138.189C70.7818 138.297 70.507 138.462 70.2722 138.676C70.0373 138.889 69.8469 139.147 69.7121 139.435C69.5771 139.723 69.5002 140.034 69.4859 140.351C69.4716 140.669 69.52 140.985 69.6285 141.284C69.737 141.582 69.9033 141.856 70.118 142.091Z" fill="#9FEAF9"/>
<path d="M188.715 139.156C204.117 120.961 209.495 102.661 202.098 89.8494C196.655 80.4216 185.149 75.4441 169.856 75.2451C169.222 75.246 168.614 75.4964 168.164 75.942C167.713 76.3875 167.456 76.9925 167.448 77.6262C167.439 78.26 167.681 78.8715 168.12 79.3285C168.559 79.7856 169.161 80.0515 169.794 80.0689C183.547 80.248 193.46 84.5363 197.921 92.2617C204.064 102.903 199.268 119.223 185.033 136.039C184.824 136.281 184.665 136.56 184.565 136.864C184.466 137.167 184.427 137.486 184.451 137.805C184.476 138.123 184.564 138.433 184.709 138.717C184.854 139.002 185.055 139.254 185.298 139.46C185.541 139.665 185.824 139.822 186.128 139.918C186.432 140.015 186.753 140.05 187.07 140.021C187.387 139.993 187.697 139.902 187.979 139.753C188.262 139.605 188.512 139.402 188.715 139.156ZM149.133 77.491C135.207 80.475 120.384 86.3091 106.149 94.5275C70.9251 114.864 47.9477 144.851 51.1388 166.595C51.1814 166.911 51.2863 167.216 51.4476 167.491C51.6087 167.767 51.8231 168.007 52.0781 168.2C52.3331 168.392 52.6237 168.531 52.933 168.611C53.2424 168.689 53.5643 168.707 53.8802 168.66C54.196 168.614 54.4996 168.505 54.7731 168.34C55.0467 168.176 55.2849 167.959 55.4739 167.701C55.6629 167.444 55.7989 167.152 55.8741 166.842C55.9493 166.531 55.9622 166.209 55.912 165.894C53.0781 146.588 74.8588 118.163 108.561 98.7055C122.37 90.7322 136.723 85.0835 150.143 82.2081C150.457 82.1462 150.756 82.0224 151.022 81.8439C151.287 81.6654 151.515 81.4358 151.691 81.1685C151.867 80.9012 151.988 80.6015 152.047 80.2869C152.107 79.9723 152.102 79.649 152.036 79.336C151.969 79.023 151.84 78.7265 151.657 78.4636C151.474 78.2009 151.241 77.9771 150.971 77.8053C150.7 77.6337 150.399 77.5174 150.084 77.4634C149.768 77.4095 149.445 77.4188 149.133 77.491Z" fill="#9FEAF9"/>
<path d="M92.0673 181.669C100.121 204.155 113.295 218 128.109 218C138.914 218 148.91 210.635 156.705 197.669C156.874 197.397 156.986 197.094 157.038 196.778C157.088 196.463 157.076 196.141 157 195.83C156.925 195.518 156.79 195.226 156.6 194.969C156.411 194.711 156.173 194.493 155.899 194.328C155.625 194.164 155.32 194.055 155.004 194.009C154.688 193.963 154.365 193.98 154.055 194.06C153.746 194.139 153.455 194.279 153.2 194.472C152.945 194.665 152.731 194.907 152.57 195.183C145.565 206.836 136.96 213.176 128.109 213.176C115.803 213.176 104.053 200.827 96.6097 180.043C96.5078 179.739 96.3461 179.458 96.1342 179.217C95.9224 178.976 95.6645 178.78 95.3758 178.639C95.0871 178.499 94.7733 178.418 94.4528 178.401C94.1324 178.383 93.8116 178.43 93.5094 178.538C93.2072 178.647 92.9297 178.814 92.693 179.03C92.4564 179.247 92.2653 179.51 92.131 179.801C91.9969 180.092 91.9222 180.408 91.9113 180.728C91.9006 181.049 91.9538 181.369 92.0682 181.669H92.0673ZM165.624 177.27C169.794 163.948 172.033 148.581 172.033 132.566C172.033 92.6058 158.046 58.1583 138.125 49.313C137.543 49.0693 136.889 49.0632 136.302 49.2962C135.716 49.5291 135.244 49.9826 134.988 50.5592C134.732 51.1358 134.712 51.7899 134.933 52.3811C135.154 52.9722 135.597 53.4534 136.168 53.7216C153.935 61.6117 167.208 94.3035 167.208 132.566C167.208 148.103 165.04 162.985 161.021 175.829C160.922 176.133 160.883 176.453 160.908 176.772C160.933 177.091 161.021 177.401 161.168 177.686C161.313 177.97 161.515 178.222 161.759 178.429C162.004 178.634 162.287 178.79 162.592 178.885C162.897 178.98 163.218 179.014 163.536 178.984C163.855 178.955 164.164 178.862 164.446 178.712C164.729 178.562 164.978 178.357 165.18 178.109C165.383 177.861 165.534 177.577 165.625 177.27H165.624ZM211.052 174.907C211.052 168.531 205.884 163.363 199.508 163.363C193.132 163.363 187.964 168.531 187.964 174.907C187.964 181.283 193.132 186.452 199.508 186.452C205.884 186.452 211.052 181.283 211.052 174.907ZM206.229 174.907C206.229 175.79 206.055 176.664 205.717 177.479C205.379 178.295 204.884 179.036 204.26 179.66C203.636 180.284 202.895 180.779 202.08 181.117C201.265 181.454 200.391 181.628 199.508 181.628C198.625 181.628 197.751 181.454 196.937 181.117C196.121 180.779 195.38 180.284 194.756 179.66C194.132 179.036 193.637 178.295 193.299 177.479C192.961 176.664 192.788 175.79 192.788 174.907C192.788 173.125 193.496 171.416 194.756 170.155C196.017 168.895 197.725 168.187 199.508 168.187C201.291 168.187 202.999 168.895 204.26 170.155C205.52 171.416 206.229 173.125 206.229 174.907ZM56.5443 186.452C62.9211 186.452 68.0895 181.283 68.0895 174.907C68.0895 168.531 62.9202 163.363 56.5443 163.363C50.1693 163.363 45 168.531 45 174.907C45 181.283 50.1693 186.452 56.5443 186.452ZM56.5443 181.628C54.7619 181.628 53.0525 180.92 51.7922 179.66C50.5318 178.4 49.8238 176.69 49.8238 174.907C49.8238 173.125 50.5318 171.416 51.7922 170.155C53.0525 168.895 54.7619 168.187 56.5443 168.187C58.3267 168.187 60.0361 168.895 61.2964 170.155C62.5568 171.416 63.2648 173.125 63.2648 174.907C63.2648 176.69 62.5568 178.4 61.2964 179.66C60.0361 180.92 58.3267 181.628 56.5443 181.628Z" fill="#9FEAF9"/>
<path d="M128.111 61.0886C134.487 61.0886 139.655 55.9202 139.655 49.5443C139.655 43.1684 134.487 38 128.111 38C121.735 38 116.566 43.1684 116.566 49.5443C116.566 55.9202 121.735 61.0886 128.111 61.0886ZM128.111 56.2648C126.328 56.2648 124.619 55.5568 123.358 54.2964C122.098 53.0361 121.39 51.3267 121.39 49.5443C121.39 47.7619 122.098 46.0525 123.358 44.7922C124.619 43.5318 126.328 42.8238 128.111 42.8238C129.894 42.8238 131.602 43.5318 132.863 44.7922C134.123 46.0525 134.831 47.7619 134.831 49.5443C134.831 51.3267 134.123 53.0361 132.863 54.2964C131.602 55.5568 129.894 56.2648 128.111 56.2648ZM129.874 140.73C125.365 141.704 120.923 138.839 119.947 134.33C119.479 132.164 119.89 129.902 121.091 128.041C122.291 126.179 124.182 124.87 126.347 124.402C130.856 123.428 135.298 126.293 136.275 130.802C137.249 135.311 134.384 139.754 129.874 140.73Z" fill="#9FEAF9"/>
</g>
<defs>
<clipPath id="clip0_30_531">
<rect width="256" height="256" fill="white"/>
</clipPath>
</defs>
</svg>
