<svg width="256" height="256" viewBox="0 0 256 256" fill="none" xmlns="http://www.w3.org/2000/svg">
<path fill-rule="evenodd" clip-rule="evenodd" d="M133.368 38.4531C120.29 43.0885 107.667 56.6179 95.4964 79.0414C77.2406 112.677 53.6623 160.473 86.1298 198.316C101.15 215.823 125.951 226.156 158.498 209.791C184.644 196.645 191.916 158.918 182.529 141.189C163.166 104.618 143.52 95.5978 138.26 72.9182C134.753 57.7984 133.123 46.3101 133.368 38.4531Z" fill="url(#paint0_linear_36_1502)"/>
<path fill-rule="evenodd" clip-rule="evenodd" d="M133.369 38C120.225 42.6832 107.601 56.2126 95.497 78.5883C77.3407 112.152 53.6628 160.02 86.1303 197.863C101.151 215.37 125.632 221.028 139.216 210.644C148.072 203.875 154.095 197.423 157.566 183.828C161.429 168.69 158.465 148.31 156.433 138.948C153.863 127.101 153.022 114.098 153.909 99.9393C153.597 99.5581 153.363 99.2729 153.208 99.0835C146.136 90.4286 140.679 82.8898 138.261 72.4651C134.753 57.3453 133.123 45.8569 133.369 38Z" fill="url(#paint1_linear_36_1502)"/>
<path fill-rule="evenodd" clip-rule="evenodd" d="M122.486 43.8887C110.244 53.5641 101.142 69.7932 95.1792 92.5758C86.2353 126.75 85.2661 158.263 88.4205 176.594C94.5354 212.128 126.237 225.616 158.754 209.077C178.765 198.898 187.1 177.049 186.659 153.333C186.201 128.778 138.749 100.947 130.345 80.4536C124.742 66.7913 122.122 54.6029 122.486 43.8887Z" fill="url(#paint2_linear_36_1502)"/>
<path fill-rule="evenodd" clip-rule="evenodd" d="M153.522 107.959C168.203 126.789 171.404 139.896 163.123 147.282C150.701 158.361 120.324 165.589 101.426 152.188C88.8275 143.253 84.0608 124.087 87.1256 94.6895C81.925 105.55 77.5278 116.553 73.934 127.697C70.3403 138.84 69.2908 150.502 70.7857 162.682C75.2895 171.793 86.2399 177.878 103.637 180.938C129.732 185.526 154.431 183.259 171.004 174.904C182.052 169.335 187.279 163.79 186.681 158.271C187.081 150.121 184.567 142.363 179.142 134.996C173.717 127.629 165.177 118.617 153.522 107.959Z" fill="url(#paint3_linear_36_1502)"/>
<path fill-rule="evenodd" clip-rule="evenodd" d="M96.1453 89.1562C96.0225 102.755 99.5192 115.683 106.635 127.938C117.309 146.322 129.768 164.487 148.413 179.545C160.843 189.583 170.774 192.826 178.208 189.274C172.102 200.202 165.61 205.557 158.731 205.338C148.413 205.01 135.832 200.501 115.673 176.276C102.234 160.126 93.0401 144.85 88.0918 130.446C88.8765 124.732 89.7086 119.04 90.588 113.372C91.4675 107.703 93.32 99.6314 96.1453 89.1562Z" fill="url(#paint4_linear_36_1502)"/>
<path fill-rule="evenodd" clip-rule="evenodd" d="M127.681 107.818C128.821 118.897 133.132 136.618 127.681 148.416C122.229 160.215 97.0503 181.528 104.001 200.305C110.951 219.081 127.889 214.865 138.514 206.213C149.138 197.559 154.825 183.49 156.086 173.595C157.347 163.699 153.07 144.661 151.679 128.1C150.752 117.06 151.381 107.593 153.567 99.7018L150.311 95.6049L131.148 89.9312C128.076 94.4708 126.92 100.433 127.681 107.818Z" fill="url(#paint5_linear_36_1502)"/>
<path fill-rule="evenodd" clip-rule="evenodd" d="M134.521 52.9485C128.319 55.5692 122.443 60.7621 116.893 68.5273C108.567 80.1749 104.326 87.157 107.465 110.246C109.558 125.638 111.055 139.799 111.958 152.728L138.798 74.7457C137.812 70.7721 136.991 67.1835 136.336 63.9798C135.681 60.7761 135.076 57.099 134.521 52.9485Z" fill="url(#paint6_linear_36_1502)"/>
<path fill-rule="evenodd" clip-rule="evenodd" d="M138.745 74.5898C131.932 78.5667 126.653 86.7143 122.907 99.0326C119.161 111.351 115.735 128.572 112.627 150.694C116.771 136.624 119.521 126.432 120.875 120.12C122.907 110.652 123.601 97.2622 128.994 88.1721C132.59 82.112 135.84 77.5846 138.745 74.5898Z" fill="#330A4C" fill-opacity="0.316321"/>
<path fill-rule="evenodd" clip-rule="evenodd" d="M107.197 206.575C118.409 208.177 124.273 209.601 124.786 210.848C125.556 212.718 123.367 214.428 117.143 213.279C112.994 212.513 109.679 210.278 107.197 206.575Z" fill="white"/>
<path fill-rule="evenodd" clip-rule="evenodd" d="M112.83 52.9485C106.663 60.3161 101.319 68.1268 96.7979 76.3809C92.2772 84.6349 89.047 90.7927 87.1074 94.8543C86.5062 97.8836 86.2127 102.353 86.2271 108.264C86.2414 114.174 86.7526 120.746 87.7607 127.978C88.6433 113.815 91.3452 100.067 95.8665 86.7343C100.388 73.4016 106.042 62.1396 112.83 52.9485Z" fill="#EDEDED" fill-opacity="0.603261"/>
<defs>
<linearGradient id="paint0_linear_36_1502" x1="130.849" y1="51.7198" x2="124.605" y2="217.864" gradientUnits="userSpaceOnUse">
<stop stop-color="#D9D8DC"/>
<stop offset="1" stop-color="white" stop-opacity="0.385275"/>
</linearGradient>
<linearGradient id="paint1_linear_36_1502" x1="133.672" y1="51.6778" x2="68.4144" y2="194.704" gradientUnits="userSpaceOnUse">
<stop stop-color="#8D67AF" stop-opacity="0.671932"/>
<stop offset="1" stop-color="#9F8DAF"/>
</linearGradient>
<linearGradient id="paint2_linear_36_1502" x1="140.958" y1="98.0181" x2="140.958" y2="213.034" gradientUnits="userSpaceOnUse">
<stop stop-color="#26053D" stop-opacity="0.761634"/>
<stop offset="1" stop-color="#B7B4B4" stop-opacity="0.277683"/>
</linearGradient>
<linearGradient id="paint3_linear_36_1502" x1="81.9419" y1="105.797" x2="111.222" y2="183.359" gradientUnits="userSpaceOnUse">
<stop stop-color="#91739F" stop-opacity="0.45955"/>
<stop offset="1" stop-color="#32054F" stop-opacity="0.539912"/>
</linearGradient>
<linearGradient id="paint4_linear_36_1502" x1="160.205" y1="201.174" x2="79.6867" y2="134.456" gradientUnits="userSpaceOnUse">
<stop stop-color="#463D49" stop-opacity="0.331182"/>
<stop offset="1" stop-color="#340A50" stop-opacity="0.821388"/>
</linearGradient>
<linearGradient id="paint5_linear_36_1502" x1="143.657" y1="99.1022" x2="86.868" y2="185.494" gradientUnits="userSpaceOnUse">
<stop stop-color="#715383" stop-opacity="0.145239"/>
<stop offset="1" stop-color="#F4F4F4" stop-opacity="0.233639"/>
</linearGradient>
<linearGradient id="paint6_linear_36_1502" x1="149.089" y1="125.453" x2="108.872" y2="122.998" gradientUnits="userSpaceOnUse">
<stop stop-color="#A5A1A8" stop-opacity="0.356091"/>
<stop offset="1" stop-color="#370C50" stop-opacity="0.581975"/>
</linearGradient>
</defs>
</svg>
