<svg width="256" height="256" viewBox="0 0 256 256" fill="none" xmlns="http://www.w3.org/2000/svg">
<g clip-path="url(#clip0_30_296)">
<path d="M196 0H60C26.8629 0 0 26.8629 0 60V196C0 229.137 26.8629 256 60 256H196C229.137 256 256 229.137 256 196V60C256 26.8629 229.137 0 196 0Z" fill="url(#paint0_linear_30_296)"/>
<path fill-rule="evenodd" clip-rule="evenodd" d="M90.1768 217.772C90.1768 217.772 100.68 218.512 114.193 217.326C119.665 216.846 140.441 214.814 155.974 211.421C155.974 211.421 174.913 207.385 185.045 203.666C195.646 199.777 201.415 196.475 204.012 191.795C203.898 190.837 204.811 187.438 199.922 185.396C187.423 180.175 172.927 181.119 144.243 180.513C112.434 179.425 101.852 174.123 96.215 169.853C90.8096 165.521 93.5277 153.536 116.688 142.979C128.355 137.356 174.09 126.982 174.09 126.982C158.688 119.4 129.966 106.072 124.062 103.194C118.884 100.67 110.598 96.8694 108.802 92.271C106.765 87.8564 113.611 84.0536 117.435 82.9646C129.751 79.4268 147.138 77.2281 162.962 76.9813C170.916 76.8572 172.206 76.3476 172.206 76.3476C183.182 74.5346 190.406 67.0573 187.397 55.2155C184.694 43.1281 170.442 36.0256 156.897 38.4844C144.144 40.7999 113.402 49.692 113.402 49.692C151.4 49.3645 157.761 49.9961 160.601 53.9507C162.279 56.2862 159.839 59.4886 149.705 61.1368C138.672 62.9311 115.738 65.092 115.738 65.092C93.7369 66.3931 78.2394 66.4803 73.5913 76.28C70.5547 82.6823 76.8295 88.3425 79.5798 91.8854C91.2021 104.757 107.99 111.698 118.795 116.81C122.861 118.733 134.791 122.366 134.791 122.366C99.7345 120.445 74.4464 131.165 59.6126 143.507C42.835 158.961 50.257 177.38 84.6295 188.722C104.932 195.421 115 198.572 145.283 195.856C163.12 194.899 165.932 195.468 166.11 196.925C166.36 198.977 146.297 204.075 140.821 205.648C126.886 209.65 90.3596 217.732 90.1768 217.772Z" fill="white"/>
</g>
<defs>
<linearGradient id="paint0_linear_30_296" x1="0" y1="0" x2="256" y2="256" gradientUnits="userSpaceOnUse">
<stop stop-color="#8381C5"/>
<stop offset="0.615" stop-color="#7E55B3"/>
<stop offset="1" stop-color="#A52ECB"/>
</linearGradient>
<clipPath id="clip0_30_296">
<rect width="256" height="256" fill="white"/>
</clipPath>
</defs>
</svg>
