<svg width="256" height="256" viewBox="0 0 256 256" fill="none" xmlns="http://www.w3.org/2000/svg">
<g clip-path="url(#clip0_196_31)">
<rect width="256" height="256" rx="56" fill="#E04E39"/>
<path d="M78.6816 174.079L79.1314 173.028L79.1898 172.878C79.5472 172.025 79.8916 171.167 80.2231 170.303C80.6646 169.162 81.0561 168.012 81.4979 166.896C81.7397 166.246 81.9729 165.596 82.2146 164.954C82.781 163.413 83.5558 161.355 84.4975 159.371C85.0558 158.213 85.514 157.347 85.9892 156.547C86.4641 155.747 87.0891 154.813 87.6556 153.988L88.1723 153.288L88.8971 152.83C89.0044 152.758 89.1154 152.691 89.2307 152.63C89.5636 152.443 89.9087 152.279 90.2636 152.139C90.7719 151.93 91.372 151.722 92.0801 151.505C93.0718 151.213 94.1635 150.939 95.5215 150.672C97.4548 150.247 99.596 149.838 102.263 149.439C106.254 148.806 110.512 148.248 115.669 147.68C124.76 146.698 133.801 146.014 142.542 145.548C147.166 145.331 150.708 145.231 154.024 145.231H156.115C158.47 145.239 160.821 145.392 163.156 145.689C163.896 145.792 164.623 145.962 165.331 146.198C165.548 146.272 165.731 146.356 165.847 146.406L166.531 146.714L167.072 147.222C167.297 147.431 167.523 147.639 167.739 147.864C168.601 148.728 169.412 149.644 170.164 150.605C173.025 154.336 175.436 158.391 177.347 162.688C179.194 166.609 180.564 170.738 181.429 174.986L182.462 180.411H169.647L168.881 176.795C168.047 172.861 157.448 162.504 152.174 160.463C151.641 160.262 149.366 159.629 142.434 159.629C128.143 159.629 107.862 162.171 104.937 162.779C101.521 164.371 96.2214 171.179 93.2134 177.877L91.9801 180.636" fill="white"/>
<path d="M166.546 153.497C165.901 152.672 165.208 151.884 164.471 151.139L163.947 150.639L163.813 150.589C163.39 150.453 162.955 150.356 162.513 150.297C160.383 150.027 158.238 149.891 156.089 149.889C151.69 149.831 147.249 149.972 142.816 150.181C133.942 150.614 125.06 151.33 116.218 152.297C111.802 152.78 107.394 153.33 103.028 154.022C100.853 154.364 98.6786 154.739 96.5537 155.205C95.4954 155.43 94.4455 155.68 93.4541 155.98C92.9856 156.116 92.5239 156.274 92.071 156.455C91.8881 156.528 91.71 156.61 91.5375 156.705L91.4541 156.755C90.9357 157.458 90.4493 158.184 89.9961 158.93C89.5378 159.679 89.1127 160.53 88.713 161.371C87.9215 163.038 87.238 164.804 86.5796 166.587C85.9215 168.371 85.2799 170.178 84.5717 171.979C84.23 172.878 83.8718 173.504 83.4967 174.403C83.3217 174.829 83.1386 175.403 82.9551 175.403H88.9462C92.1874 167.904 98.2702 160.172 103.378 158.089C104.786 157.513 127.425 154.83 142.391 154.83C147.94 154.83 151.781 155.031 153.815 155.822C159.948 158.188 172.146 169.57 173.404 175.403H176.879C176.129 171.569 174.874 167.85 173.146 164.346C171.391 160.478 169.175 156.835 166.547 153.497H166.546Z" fill="#BA8449"/>
<path d="M163.9 150.6L163.891 150.59L163.881 150.581L163.91 150.61L163.9 150.6Z" fill="white"/>
<path d="M163.9 150.6L163.891 150.59L163.881 150.581L163.91 150.61L163.9 150.6Z" fill="#BA8449"/>
<path d="M172.977 180.403L172.261 176.703C171.536 173.172 170.392 169.739 168.853 166.479C167.254 162.878 165.237 159.477 162.846 156.346C162.404 155.797 162.012 155.314 161.562 154.863C159.703 154.656 157.834 154.55 155.963 154.547H154.063C150.897 154.547 147.489 154.639 143.03 154.847C134.473 155.272 125.624 155.972 116.725 156.938C111.725 157.497 107.601 158.03 103.751 158.605C101.252 158.996 99.2935 159.355 97.5437 159.738C96.6168 159.934 95.6969 160.162 94.7856 160.421L94.4938 160.513C94.3271 160.78 94.1606 161.038 93.9941 161.346C93.6775 161.887 93.336 162.521 92.9108 163.404C92.1527 165.004 91.5025 166.737 90.9609 168.204C90.7192 168.853 90.486 169.479 90.261 170.112C89.8362 171.279 89.4279 172.478 88.9194 173.695C88.5612 174.611 88.1861 175.562 87.7946 176.478L87.7446 176.611C87.5778 177.012 87.4031 177.311 87.2281 177.72L86.0115 180.403H77.7956L76.6208 179.928H76.4959C75.5718 179.489 74.8103 178.769 74.3208 177.87C73.8313 176.972 73.6389 175.943 73.7711 174.928V174.72L73.9209 174.087L74.1211 173.32C74.2611 172.801 74.4083 172.285 74.5626 171.77C74.8629 170.729 75.1791 169.737 75.5124 168.77C76.1374 166.912 76.8959 164.979 77.8205 162.879C78.7454 160.78 79.7456 158.822 80.7369 157.046C81.2854 156.062 81.8691 155.098 82.4867 154.155C83.1617 153.122 83.8202 152.18 84.5449 151.264C85.0012 150.679 85.5368 150.159 86.1364 149.722C86.4767 149.479 86.83 149.253 87.1947 149.048C87.6805 148.785 88.1814 148.551 88.6947 148.348C89.4199 148.057 90.1596 147.804 90.9109 147.59C92.3274 147.172 93.6523 146.881 94.6607 146.664C96.7107 146.24 98.8268 145.831 101.635 145.439C105.693 144.823 109.968 144.29 115.242 143.773C124.408 142.832 133.574 142.165 142.372 141.789C146.597 141.615 149.872 141.54 152.929 141.54H156.171C158.727 141.552 161.279 141.73 163.812 142.073H163.895C164.819 142.213 165.728 142.436 166.612 142.74H166.67C167.076 142.886 167.473 143.06 167.853 143.265C168.141 143.423 168.419 143.598 168.687 143.789L169.028 144.04L169.295 144.257L169.569 144.506C169.837 144.756 170.103 145.006 170.353 145.264C171.31 146.24 172.211 147.27 173.052 148.348C176.071 152.331 178.608 156.658 180.61 161.237C181.624 163.495 182.511 165.806 183.269 168.162C184.012 170.422 184.586 172.734 184.985 175.078L185.86 180.386L172.977 180.403Z" fill="white"/>
<path d="M83.1699 180.403L86.3196 173.861C88.9358 168.287 95.2187 158.155 102.151 155.314H102.285C104.626 154.439 128.115 151.731 142.405 151.731C150.446 151.731 153.446 152.564 155.004 153.139C162.253 155.93 174.835 167.754 176.535 174.762L177.935 180.428L83.1699 180.403Z" fill="white"/>
<path d="M168.321 180.403L167.488 176.945C166.655 173.654 156.78 163.747 151.656 161.772C151.181 161.588 149.156 161.022 142.415 161.022C128.6 161.022 108.694 163.471 105.436 164.104C102.753 165.437 97.9364 171.045 94.7619 177.82L93.4786 180.403H81.7383L84.6963 173.928C88.1543 166.212 94.9284 156.722 101.611 153.989C104.186 152.93 127.983 150.273 142.39 150.273C148.673 150.273 152.839 150.764 155.498 151.789C162.721 154.58 176.287 166.787 177.995 174.887L179.154 180.403H168.321Z" fill="white"/>
<path d="M173.686 180.403L172.344 179.261C167.269 174.545 165.878 164.846 167.461 160.821C168.334 158.174 171.134 156.68 173.819 157.43C174.71 157.372 176.851 155.638 177.485 154.597C177.982 153.671 178.729 152.904 179.641 152.383C180.553 151.861 181.593 151.607 182.643 151.647C186.101 151.647 191.692 154.389 193.525 156.98C194.03 157.661 194.362 158.454 194.493 159.291C194.623 160.129 194.548 160.986 194.275 161.788C194.225 161.921 194.142 162.196 194.008 162.571C192.109 168.279 189.659 175.136 187.651 178.328L186.309 180.403H173.686Z" fill="white"/>
<path d="M173.264 180.403L177.613 173.404C179.305 170.708 180.819 167.905 182.146 165.013C179.688 166.729 176.23 167.879 171.131 168.104L170.989 168.004L170.897 168.479C169.798 168.463 168.726 168.13 167.81 167.52C166.895 166.911 166.174 166.051 165.735 165.043C165.296 164.034 165.156 162.921 165.332 161.836C165.509 160.75 165.995 159.738 166.731 158.922C167.225 158.374 167.823 157.93 168.489 157.616C169.156 157.301 169.877 157.122 170.614 157.088C175.613 156.863 176.263 155.68 177.205 153.897C178.48 151.505 181.237 150.122 184.779 150.122C185.673 150.118 186.564 150.213 187.437 150.406C191.681 151.188 194.804 154.825 194.937 159.138C195.136 163.588 192.72 169.971 187.754 178.236L186.396 180.403H173.264Z" fill="white"/>
<path d="M191.793 166.77C186.102 166.77 179.911 163.063 176.736 159.405C173.844 156.072 173.561 153.139 173.828 151.256C174.229 148.463 176.702 146.443 179.518 146.606C180.127 146.614 180.735 146.671 181.336 146.773C181.894 144.273 183.227 138.998 188.618 138.998C188.862 138.986 189.107 138.986 189.351 138.998C190.58 139.105 191.749 139.581 192.704 140.363C193.658 141.145 194.354 142.197 194.701 143.382C195.612 142.899 196.627 142.647 197.658 142.648C198.503 142.654 199.338 142.834 200.11 143.179C200.881 143.523 201.573 144.023 202.142 144.648C203.071 145.634 203.68 146.879 203.883 148.22C204.087 149.559 203.878 150.929 203.283 152.147C204.578 152.949 205.527 154.206 205.941 155.672C206.23 156.66 206.284 157.702 206.099 158.715C205.914 159.727 205.494 160.682 204.875 161.504C202.375 164.912 196.734 166.579 192.201 166.729L191.793 166.77ZM186.127 50.974C180.977 54.1988 175.352 61.598 168.503 71.722C167.971 72.5078 167.251 73.1482 166.409 73.5848C165.566 74.0214 164.628 74.2403 163.679 74.2217C161.138 74.2217 157.946 72.6969 154.213 69.6889C148.289 64.9226 148.164 62.1897 148.114 61.2147C147.971 58.3635 150.132 55.9201 152.98 55.7154C158.671 55.182 163.387 51.774 167.979 48.4828C172.569 45.1915 176.794 42.125 181.844 42.125C182.853 42.1229 183.858 42.2517 184.835 42.5083" fill="white"/>
<path d="M153.448 60.3565C167.214 59.0734 175.262 44.8082 183.653 47.0244C178.054 50.524 172.454 57.5565 164.647 69.1057C162.806 71.8138 149.699 60.7064 153.448 60.3568V60.3565Z" fill="#FFF8EF"/>
<path d="M64.1992 53.7488C67.6321 50.574 72.2819 48.9659 78.0062 48.9659C82.939 48.9659 88.7633 50.1743 95.3212 52.5573C97.2136 53.112 99.1832 53.3568 101.154 53.2821H103.704C105.37 53.2821 108.795 53.2821 110.211 56.4736C110.665 57.5427 110.831 58.7118 110.694 59.865C110.556 61.0182 110.12 62.1155 109.429 63.0482C107.153 66.6145 101.012 70.4137 95.1378 70.4137H94.8545C91.6964 70.4137 88.7218 68.7473 85.2722 66.7891C80.9727 64.3894 76.1063 61.6732 70.382 61.6732C69.5823 61.6726 68.7833 61.7253 67.9906 61.8312L64.1992 53.7488ZM170.214 87.9119C167.664 87.9119 162.931 86.8535 159.839 79.7127C158.43 76.3844 157.664 72.8191 157.582 69.2055C157.582 64.206 160.189 62.9229 161.748 62.5396C162.872 61.3981 164.98 58.5485 166.573 56.3987C173.03 47.7079 177.646 42 183.02 42C183.91 41.9979 184.792 42.1647 185.62 42.4916C192.886 45.3998 196.369 51.4907 195.177 59.2065C194.344 64.9059 190.769 71.7052 185.47 77.8213C182.97 80.6962 176.588 87.4455 170.947 87.8703L170.214 87.9119Z" fill="white"/>
<path d="M87.1537 90.4118C86.5437 90.4619 85.9308 90.4619 85.3208 90.4118C76.3216 88.9453 65.0893 79.8961 60.848 70.547C57.9485 64.1559 59.2483 59.8066 60.848 57.2568C61.9915 55.3027 63.6348 53.6884 65.609 52.5798C67.5831 51.4712 69.8169 50.9083 72.0806 50.9491C77.813 50.9491 83.5874 54.1072 88.6787 56.8899C90.6117 57.9149 93.4532 59.4982 94.6529 59.7899C95.0944 59.6601 95.5514 59.59 96.0115 59.5816C96.9305 59.6 97.8283 59.8609 98.614 60.3379C99.3997 60.8148 100.045 61.491 100.486 62.2979C102.819 66.3558 101.411 77.2381 97.7443 83.5956C95.1946 88.0704 91.4117 90.4116 87.1537 90.4116V90.4118Z" fill="white"/>
<path d="M118.468 168.737C97.3619 168.737 76.5142 158.488 69.5815 151.006C62.3406 143.19 59.6993 134.391 61.7241 124.733C63.3905 116.801 67.815 109.685 71.7231 103.377C74.4145 99.0439 76.9558 94.9527 77.6224 92.0114C86.1967 54.1404 107.711 49.2908 125.484 49.2908C126.617 49.2908 127.809 49.2908 129.117 49.349C166.98 50.4911 170.779 68.7805 173.021 79.7129C173.324 81.4819 173.77 83.2235 174.354 84.9207C187.061 116.143 189.153 134.849 181.37 147.49C173.721 159.913 156.931 165.962 123.443 168.662C121.776 168.787 120.11 168.737 118.443 168.737H118.468V168.737Z" fill="white"/>
<path d="M117.685 169.046C96.1956 169.046 76.2807 158.346 69.5815 151.123C62.3406 143.306 59.6993 134.458 61.7241 124.792C63.3905 116.859 67.815 109.718 71.7231 103.411C74.4145 99.0695 76.9558 94.9697 77.6224 92.0284C86.1967 54.1572 107.711 49.2996 125.484 49.2996C126.617 49.2996 127.809 49.2996 129.117 49.3578C166.98 50.4911 170.779 68.7808 173.021 79.7129C173.324 81.4819 173.77 83.2235 174.354 84.9207C186.853 115.651 188.919 134.166 181.236 146.831C172.43 161.355 151.781 166.104 123.501 168.771C121.618 168.954 119.651 169.046 117.684 169.046H117.685Z" fill="white"/>
<path d="M172.412 142.623C172.683 141.956 172.96 141.292 173.245 140.632C176.154 133.716 178.245 127.683 174.828 123.859C170.762 119.35 153.481 111.243 138.232 104.019C108.935 90.2035 90.8455 81.2877 88.2375 72.3553C87.9008 71.2688 87.8009 70.1227 87.9447 68.9943C88.0885 67.8659 88.4724 66.7815 89.0708 65.8141C94.0703 57.89 108.235 49.3657 127.542 49.3657H128.125C146.298 49.524 159.547 54.7652 167.496 64.931C174.212 73.5216 175.737 83.5373 176.845 90.8448C177.229 93.3446 177.678 96.4445 178.186 97.2942C191.969 120.984 185.686 138.448 180.687 146.748L172.412 142.623Z" fill="white"/>
<path d="M158.021 115.41C150.913 115.41 139.056 113.642 134.94 109.71C131.716 106.627 130.473 101.536 129.282 96.5611C128.765 94.1787 128.051 91.8433 127.149 89.5786H127.082C126.783 90.4116 126.441 91.245 126.158 92.0784C124.233 97.4445 121.608 104.785 116.017 108.743C113.609 110.468 105.01 112.076 98.3271 112.076C91.6609 112.076 86.6032 110.627 83.2452 107.785C78.404 103.694 74.7128 96.1778 72.2794 85.4622L71.9462 85.2457C70.5284 84.4709 69.3542 83.3169 68.5549 81.9129C67.2884 79.3713 67.8052 74.8552 69.1216 72.5052C69.562 71.6643 70.2045 70.946 70.9914 70.4151C71.7783 69.8842 72.6849 69.5573 73.6295 69.4639H74.2209C75.268 69.5003 76.3103 69.6228 77.3374 69.8308C78.5079 70.0639 79.6947 70.2058 80.8871 70.2554C81.0979 70.2696 81.3096 70.2696 81.5203 70.2554C87.69 69.3127 93.9189 68.8088 100.16 68.7473C114.017 68.7473 121.291 71.5888 124.025 72.6554L124.574 72.8637C125.813 73.1692 127.082 73.3286 128.357 73.3386C128.915 73.3409 129.472 73.302 130.024 73.2218C135.888 72.3041 141.812 71.8251 147.747 71.7887C162.371 71.7887 170.128 75.1214 173.445 76.5549L174.178 76.863H174.461C175.603 76.7888 176.734 76.6103 177.844 76.3299C178.719 76.1382 179.552 75.963 180.343 75.8717C180.562 75.8453 180.782 75.8313 181.002 75.8299C182.117 75.8495 183.204 76.1767 184.146 76.775C185.087 77.3734 185.844 78.2198 186.334 79.2211C187.668 81.6627 188.568 86.8204 186.693 89.7703C185.443 91.7366 183.36 92.67 181.694 93.4199L180.985 93.7447C180.427 94.703 179.427 96.6864 178.594 98.3276C176.153 103.152 173.394 108.61 170.853 111.551C168.636 114.143 164.437 115.409 158.021 115.409V115.41Z" fill="white"/>
<g style="mix-blend-mode:multiply" opacity="0.3">
<g style="mix-blend-mode:multiply">
<path d="M155.189 114.226C149.556 114.226 141.648 113.393 135.949 109.368C132.683 107.077 131.216 102.394 129.183 94.9613C128.621 92.7356 127.942 90.5411 127.15 88.3867C126.791 89.22 126.383 90.3533 126.041 91.2616C123.924 96.9276 121.042 104.693 115.776 107.927C113.068 109.593 104.569 111.135 97.9527 111.135C90.8701 111.135 85.7623 109.551 82.7792 106.435C75.2799 98.5691 73.7633 91.0532 72.8803 86.5705C72.7553 85.9288 72.597 85.1206 72.4554 84.5705C68.0391 82.2543 67.7473 78.7962 67.8389 77.3548C67.9584 74.7044 70.1273 72.6086 72.7802 72.5801C74.1302 72.632 75.4265 73.1236 76.4714 73.9799L76.7298 74.1548L77.105 74.2716C78.419 74.5691 79.6121 75.2579 80.5269 76.2471C81.4417 77.2362 82.0353 78.4794 82.2294 79.8127C83.0287 83.2137 84.0645 86.5549 85.3289 89.8117C88.2454 97.3113 90.2784 98.6025 90.4534 98.7026C93.1448 99.5668 95.9597 99.9833 98.786 99.9356C102.608 99.9412 106.41 99.3796 110.068 98.2693C111.11 96.6028 113.226 92.4363 114.693 89.5366C119.15 80.7295 119.909 79.396 121.758 78.4296C122.971 77.8361 124.31 77.5499 125.659 77.5962C127.898 77.6189 130.118 78.0073 132.232 78.7461C135.482 80.1211 137.232 84.3707 140.932 95.2613C141.598 97.2194 142.473 99.7691 142.998 101.094C145.798 102.444 152.164 103.377 158.905 103.377C160.805 103.377 162.188 103.302 163.071 103.219C163.704 101.91 164.604 100.002 165.379 98.3608C170.77 86.9205 171.578 85.6204 172.987 84.5456C175.564 82.7893 178.572 81.7694 181.686 81.5959C182.89 81.5289 184.077 81.8994 185.029 82.6389C185.982 83.3785 186.635 84.4374 186.868 85.6204C187.619 89.7283 183.644 91.2449 182.344 91.745C182.027 91.8614 181.511 92.0615 181.161 92.2198C180.678 93.0532 179.777 94.8612 179.019 96.386C173.279 107.643 171.345 110.718 169.171 112.018C166.587 113.518 160.105 114.226 155.189 114.226Z" fill="white"/>
</g>
</g>
<g style="mix-blend-mode:multiply" opacity="0.3">
<g style="mix-blend-mode:multiply">
<path d="M81.145 80.9461C79.1894 80.8564 77.2614 80.4483 75.4371 79.7379C74.554 79.4462 73.8623 79.1712 73.3871 78.988C72.3542 78.588 69.6543 77.5382 69.6543 74.3136V69.5806H74.2289C74.7023 69.5901 75.1714 69.6717 75.6206 69.8224C76.5953 69.964 79.7867 70.2056 80.8451 70.2803L81.4616 70.3307C82.2947 70.3307 84.8945 69.9807 86.011 69.8138C86.7928 69.6761 87.5838 69.598 88.3774 69.5803H92.4107L93.0354 73.547C93.1991 74.6767 92.9461 75.8273 92.3235 76.7841C91.701 77.7409 90.7515 78.4383 89.6523 78.7463L88.6109 79.1048C86.3608 80.0542 83.9875 80.6798 81.5617 80.9628L81.145 80.9461ZM173.994 87.7121C172.006 87.5783 170.105 86.843 168.544 85.6038C166.519 84.1876 164.645 82.8208 164.645 80.3463V75.6882H169.536C170.233 75.6889 170.924 75.8247 171.569 76.0886C172.094 76.313 174.069 76.9216 174.902 77.1215C175.185 77.0799 175.802 76.8382 176.918 76.605C177.393 76.4349 177.885 76.3202 178.385 76.2632H182.352L182.993 80.3296C183.178 81.4384 182.961 82.5768 182.383 83.5405C181.804 84.5041 180.901 85.2298 179.835 85.5872C179.668 85.6539 179.243 85.9041 179.001 86.0457C177.705 86.7948 176.299 87.3374 174.835 87.6538C174.557 87.6963 174.276 87.716 173.994 87.7121Z" fill="white"/>
</g>
</g>
<path d="M141.316 175.403H157.981V190.402H141.316V175.403Z" fill="white"/>
<path d="M166.546 153.497C165.901 152.672 165.208 151.884 164.471 151.139L163.947 150.639L163.813 150.589C163.39 150.453 162.955 150.356 162.513 150.297C160.383 150.027 158.238 149.891 156.089 149.889C151.69 149.831 147.249 149.972 142.816 150.181C133.942 150.614 125.06 151.33 116.218 152.297C111.802 152.78 107.394 153.33 103.028 154.022C100.853 154.364 98.6786 154.739 96.5537 155.205C95.4954 155.43 94.4455 155.68 93.4541 155.98C92.9856 156.116 92.5239 156.274 92.071 156.455C91.8881 156.528 91.71 156.61 91.5375 156.705L91.4541 156.755C90.9357 157.458 90.4493 158.184 89.9961 158.93C89.5378 159.679 89.1127 160.53 88.713 161.371C87.9215 163.038 87.238 164.804 86.5796 166.587C85.9215 168.371 85.2799 170.178 84.5717 171.979C84.23 172.878 83.8718 173.504 83.4967 174.403C83.3217 174.829 83.1386 175.403 82.9551 175.403H88.9462C92.1874 167.904 98.2702 160.172 103.378 158.089C104.786 157.513 127.425 154.83 142.391 154.83C147.94 154.83 151.781 155.031 153.815 155.822C159.948 158.188 172.146 169.57 173.404 175.403H176.879C176.129 171.569 174.874 167.85 173.146 164.346C171.391 160.478 169.175 156.835 166.547 153.497H166.546ZM163.899 150.601L163.89 150.59L163.88 150.58L163.909 150.61L163.899 150.601Z" fill="#BA8449"/>
<path d="M176.361 163.171C174.515 158.933 172.174 154.928 169.387 151.239C168.659 150.3 167.878 149.404 167.046 148.556L166.388 147.922L166.263 147.806L166.171 147.731L166.037 147.632C165.916 147.547 165.792 147.469 165.663 147.398C165.461 147.299 165.256 147.21 165.046 147.131C164.409 146.915 163.754 146.759 163.088 146.664C160.79 146.352 158.474 146.187 156.155 146.173C151.622 146.081 147.131 146.173 142.64 146.381C133.676 146.764 124.725 147.417 115.801 148.34C111.335 148.806 106.877 149.331 102.411 150.006C100.177 150.348 97.9527 150.722 95.7447 151.189C94.6197 151.43 93.4949 151.689 92.3367 152.022C91.7362 152.195 91.1439 152.395 90.5618 152.622C90.2252 152.759 89.897 152.914 89.5786 153.089C89.3793 153.196 89.1873 153.315 89.0036 153.447C88.7356 153.645 88.4946 153.878 88.2871 154.138C87.6434 154.94 87.0426 155.774 86.4872 156.639C85.9207 157.472 85.3791 158.388 84.8876 159.28C83.821 161.138 82.9876 162.947 82.1543 164.771C81.3213 166.596 80.6213 168.429 79.9879 170.295C79.6734 171.225 79.3789 172.162 79.1048 173.103C78.9637 173.574 78.8303 174.046 78.7048 174.52L78.5131 175.228L78.4297 175.587C78.4297 175.645 78.5465 175.47 78.8382 175.637L78.9131 175.403H82.9876C83.1711 175.403 83.3543 174.829 83.5293 174.403C83.9041 173.504 84.2625 172.737 84.6043 171.845C85.3124 170.046 85.9456 168.304 86.6122 166.521C87.279 164.737 87.9538 163.013 88.7453 161.338C89.1456 160.504 89.5786 159.671 90.0286 158.913C90.4787 158.155 90.9618 157.455 91.4867 156.747L91.5701 156.706C91.7426 156.61 91.9207 156.528 92.1035 156.455C92.555 156.271 93.0167 156.112 93.4864 155.98C94.478 155.68 95.5279 155.43 96.5863 155.205C98.7112 154.739 100.886 154.372 103.061 154.022C107.427 153.33 111.835 152.78 116.251 152.297C125.092 151.33 133.974 150.63 142.848 150.181C147.281 149.972 151.723 149.831 156.121 149.889C158.27 149.891 160.416 150.028 162.546 150.298C162.988 150.356 163.423 150.453 163.846 150.589L163.98 150.639L164.504 151.139C165.241 151.884 165.933 152.672 166.579 153.497C169.206 156.83 171.422 160.466 173.179 164.33C174.897 167.84 176.142 171.565 176.879 175.404H180.378C180.027 173.736 179.486 171.387 178.828 169.329C178.125 167.231 177.301 165.175 176.361 163.171Z" fill="#895C2F"/>
<path d="M153.313 157.197C151.439 156.472 147.764 156.247 142.389 156.247C127.333 156.247 105.118 158.889 103.901 159.347C99.3353 161.238 93.6526 168.737 90.4863 175.403H171.961C170.711 170.404 159.379 159.572 153.313 157.197Z" fill="#FFF8EF"/>
<path d="M153.814 155.889C151.781 155.055 147.939 154.83 142.39 154.83C127.392 154.83 104.786 157.438 103.377 158.014C98.2695 160.105 92.1537 167.904 88.9453 175.404H90.4871C93.6284 168.737 99.3112 161.28 103.877 159.413C105.094 158.955 127.308 156.247 142.365 156.247C147.74 156.247 151.414 156.405 153.289 157.13C159.355 159.472 170.688 170.403 171.962 175.404H173.379C172.146 169.57 159.947 158.255 153.814 155.889Z" fill="#E5D1AE"/>
<path d="M181.636 156.739C180.803 158.447 176.353 162.746 172.612 161.68C170.654 161.121 171.012 171.237 175.52 175.404H183.703C185.952 172.071 189.477 161.105 189.877 159.972C190.343 158.646 182.486 155.03 181.636 156.739Z" fill="#BA8449"/>
<path d="M190.3 159.072C190.2 156.814 188.792 155.347 186.434 154.814C184.534 154.388 181.984 154.814 181.351 156.005C180.102 158.372 178.543 161.346 170.844 161.68C170.595 161.694 170.361 161.807 170.195 161.992C170.028 162.178 169.941 162.422 169.952 162.671C169.963 162.918 170.071 163.151 170.251 163.319C170.432 163.487 170.671 163.578 170.919 163.571C178.959 163.222 181.293 160.147 182.968 156.997C184.18 156.514 185.531 156.514 186.742 156.997C187.221 157.118 187.647 157.396 187.949 157.788C188.251 158.179 188.413 158.661 188.409 159.155C188.609 163.529 184.059 171.237 181.559 175.403H183.809C186.592 170.404 190.475 163.571 190.3 159.072Z" fill="#895C2F"/>
<g style="mix-blend-mode:multiply" opacity="0.15">
<g style="mix-blend-mode:multiply">
<path d="M174.478 176.178C179.478 175.012 183.885 170.038 184.277 162.846C184.352 161.521 181.636 158.964 181.636 158.264C181.636 157.564 190.035 158.413 190.418 160.363C190.801 162.313 185.21 174.204 183.344 176.145C181.477 178.086 171.57 176.861 174.478 176.178Z" fill="#C7893E"/>
</g>
</g>
<path d="M178.445 151.923C177.82 156.238 186.31 162.288 192.052 162.071C196.876 161.913 202.243 159.663 201.459 157.021C200.676 154.38 196.018 157.489 195.626 155.622C195.235 153.755 201.076 150.331 198.743 147.839C196.585 145.548 194.076 151.497 191.51 150.639C188.944 149.781 192.01 143.973 188.869 143.64C185.135 143.257 186.536 151.572 183.736 151.731C181.711 151.872 178.644 150.498 178.445 151.923Z" fill="#F8B1AB" stroke="#F38089" stroke-width="0.531213"/>
<g style="mix-blend-mode:multiply" opacity="0.5">
<g style="mix-blend-mode:multiply">
<path d="M180.828 151.897C181.753 152.581 184.994 153.513 185.56 152.305C186.128 151.097 186.569 148.747 186.186 148.398C185.927 149.506 185.569 151.614 184.335 152.08C183.394 152.447 181.477 152.005 180.828 151.897ZM189.935 147.231C189.768 148.006 189.177 151.647 191.027 152.155C192.693 152.597 193.843 151.605 195.102 149.53C194.427 150.189 192.676 151.697 191.277 151.106C189.877 150.514 189.827 149.098 189.935 147.231Z" fill="#F8B1AB"/>
</g>
</g>
<g style="mix-blend-mode:multiply" opacity="0.25">
<g style="mix-blend-mode:multiply">
<path d="M181.729 157.072C191.294 152.406 193.244 160.005 192.778 161.563C189.044 162.221 182.312 158.313 181.729 157.072Z" fill="#F8B1AB"/>
</g>
</g>
<g style="mix-blend-mode:multiply" opacity="0.5">
<g style="mix-blend-mode:multiply">
<path d="M195.669 154.063C194.003 155.905 194.836 157.397 195.886 157.555C197.261 157.813 198.936 156.463 198.719 156.446C198.344 156.446 195.761 157.33 195.261 156.039C194.886 155.063 195.478 154.505 195.669 154.063Z" fill="#F8B1AB"/>
</g>
</g>
<g style="mix-blend-mode:multiply" opacity="0.15">
<g style="mix-blend-mode:multiply">
<path d="M86.5365 166.304C117.208 183.919 178.194 166.046 174.944 160.239C170.67 152.623 168.961 147.74 159.57 148.248C150.18 148.756 90.0525 153.497 87.6028 155.364C85.153 157.23 82.5202 163.996 86.5362 166.304H86.5365Z" fill="#C7893E"/>
</g>
</g>
<path d="M153.448 60.3565C167.214 59.0734 175.262 44.8082 183.653 47.0244C178.054 50.524 172.454 57.5565 164.647 69.1057C162.806 71.8138 149.699 60.7064 153.448 60.3568V60.3565Z" fill="#FFF8EF" stroke="#E5D1AE" stroke-width="0.797008" stroke-linecap="round" stroke-linejoin="round"/>
<path d="M67.3633 57.2068C73.5876 51.4574 84.7035 53.6987 93.7272 56.9733C98.8602 58.8398 105.509 57.3235 105.976 58.3734C107.076 60.8732 100.435 65.8727 94.9523 65.7808C89.4695 65.6892 80.4288 55.457 67.3633 57.2068Z" fill="#BA8449" stroke="#895C2F" stroke-width="0.531213" stroke-linecap="round" stroke-linejoin="round"/>
<path d="M162.896 67.1223C166.047 68.0558 178.053 44.4914 183.886 46.8244C202.443 54.2488 178.287 82.6542 170.554 83.2207C162.821 83.7875 161.089 66.5892 162.897 67.1223H162.896ZM95.8286 64.3227C90.6956 66.5392 72.4973 47.5243 64.7982 59.7732C59.7323 67.8389 75.064 84.1538 86.0294 85.9039C96.9952 87.6537 98.5367 63.1561 95.8286 64.3227Z" fill="#F8B1AB" stroke="#F38089" stroke-width="0.531213"/>
<g style="mix-blend-mode:multiply">
<g style="mix-blend-mode:multiply">
<path d="M177.205 51.374C176.188 54.5988 167.914 62.9644 169.08 70.1556C169.505 72.7969 172.339 80.6877 173.547 80.3795C174.755 80.0712 177.788 78.2046 177.512 78.6297C175.749 80.179 173.834 81.5468 171.797 82.7125C170.364 81.9377 164.056 67.4223 164.955 66.6142C167.639 64.2063 176.038 51.5323 177.205 51.374ZM65.0745 60.2397C70.6738 56.8153 80.906 58.2567 86.8887 64.0896C89.0055 66.1642 89.6052 73.2552 84.8223 78.0463C82.9309 79.9629 96.0962 71.2473 96.1377 68.7472C96.1795 66.2475 95.3047 65.5061 93.338 64.7809C86.1139 62.0814 78.5149 55.9653 71.9154 56.0987C70.509 56.1143 69.1325 56.5067 67.9293 57.235C66.7261 57.9633 65.7402 59.0009 65.0742 60.2397H65.0745Z" fill="#F8B1AB"/>
</g>
</g>
<g style="mix-blend-mode:multiply" opacity="0.25">
<g style="mix-blend-mode:multiply">
<path d="M179.453 49.5828C192.226 56.6406 171.645 67.3143 173.153 80.613C170.478 80.3212 163.879 67.4559 165.521 66.3226C167.795 64.7312 177.311 48.9745 179.453 49.5828Z" fill="#F8B1AB"/>
</g>
</g>
<path d="M83.5623 93.4033L83.4956 93.6532C83.4956 93.82 83.3955 94.0699 83.2705 94.4866C82.9549 95.5187 82.5651 96.5267 82.1042 97.5027C80.3618 100.974 78.4141 104.338 76.2714 107.577C74.9549 109.643 73.5548 111.977 72.1549 114.576C70.6512 117.321 69.4123 120.203 68.4552 123.184C67.3896 126.48 67.0264 129.962 67.389 133.407C67.8794 137.19 69.3405 140.781 71.6301 143.831C72.2217 144.665 72.8552 145.44 73.5466 146.215C74.2158 146.986 74.9399 147.706 75.7131 148.373C77.3659 149.749 79.1302 150.987 80.9876 152.072C84.9542 154.441 89.1398 156.422 93.4863 157.988C98.0825 159.675 102.824 160.936 107.651 161.754C112.658 162.636 117.752 162.915 122.825 162.587C133.324 161.754 144.239 160.704 154.847 157.88C160.121 156.464 165.362 154.639 170.011 151.689C172.344 150.208 174.418 148.357 176.152 146.206C176.587 145.665 176.986 145.081 177.453 144.54C177.94 144.023 178.343 143.432 178.645 142.79C179.245 141.51 179.732 140.18 180.103 138.815C181.528 133.316 181.261 127.566 180.344 122.058C179.345 116.576 177.918 111.179 176.078 105.918C174.311 100.669 172.253 95.5613 170.245 90.5285C169.72 89.2535 169.195 88.0788 168.678 86.7287C168.424 86.0583 168.206 85.374 168.029 84.6792C167.837 83.9957 167.679 83.3206 167.529 82.6544C166.921 79.9879 166.47 77.405 165.712 74.9634C165.015 72.5652 163.98 70.2785 162.638 68.1723C161.308 66.1349 159.643 64.3375 157.713 62.8563C153.811 60.0034 149.364 57.984 144.648 56.9237C140.109 55.8416 135.482 55.1722 130.824 54.9237C126.462 54.5739 122.076 54.5962 117.717 54.9904C113.727 55.3674 109.821 56.3714 106.144 57.9653C99.8862 60.7225 94.7323 65.4951 91.503 71.5221C90.2522 73.8881 89.188 76.3481 88.3201 78.8797C87.5535 81.1794 86.9451 83.2461 86.4787 85.0707C86.2451 85.979 86.0368 86.8205 85.887 87.5705C85.6521 88.2569 85.3738 88.9276 85.0536 89.5786C84.5976 90.4738 84.2077 91.4012 83.8874 92.3534C83.6705 92.9948 83.5956 93.3366 83.5956 93.3366L83.5623 93.4033ZM80.7874 92.7364C81.0878 91.3668 81.2579 89.9719 81.2957 88.5703C81.3628 87.8084 81.477 87.0515 81.6375 86.3038C81.7863 85.9023 81.9587 85.51 82.1539 85.1289L82.6707 83.7958C83.5019 81.6958 84.442 79.6405 85.487 77.6382C88.3144 72.2382 92.0106 67.34 96.4276 63.1395C99.1482 60.591 102.274 58.5129 105.676 56.9904C109.446 55.3269 113.442 54.2345 117.534 53.7488C121.957 53.2248 126.416 53.0604 130.866 53.2572C135.644 53.3597 140.403 53.8839 145.09 54.8239C149.905 55.8822 154.905 57.5483 159.255 60.7483C161.451 62.3593 163.359 64.3315 164.896 66.5809C166.409 68.8961 167.568 71.4237 168.337 74.0804C169.085 76.7134 169.697 79.3833 170.17 82.0794C170.312 82.7292 170.445 83.371 170.612 83.996C170.756 84.6128 170.939 85.2196 171.162 85.8125C171.638 87.0778 172.118 88.3415 172.603 89.6035C174.542 94.731 176.272 100.008 177.794 105.435C179.355 110.857 180.47 116.397 181.127 122C181.459 124.82 181.571 127.662 181.461 130.499C181.372 133.322 180.927 136.122 180.136 138.831C179.751 140.196 179.246 141.523 178.628 142.799C178.478 143.114 178.344 143.44 178.202 143.773C178.061 144.107 177.986 144.456 177.844 144.79C177.72 145.128 177.569 145.457 177.395 145.772L176.827 146.689C175.225 149.102 173.238 151.236 170.945 153.005C169.805 153.894 168.615 154.714 167.379 155.463C166.129 156.188 164.879 156.863 163.554 157.472C160.965 158.663 158.291 159.66 155.555 160.454C150.184 161.968 144.716 163.118 139.19 163.896C133.757 164.729 128.358 165.279 123.05 165.713C117.723 166.113 112.366 165.856 107.101 164.946C102.087 164.09 97.1611 162.777 92.3864 161.021C87.8478 159.376 83.4758 157.303 79.3294 154.83C77.3239 153.633 75.4203 152.274 73.6382 150.764C72.7444 149.993 71.9089 149.158 71.1385 148.264C70.3974 147.42 69.6994 146.538 69.0472 145.623C66.4787 142.135 64.8568 138.041 64.3391 133.741C63.983 129.874 64.4458 125.976 65.6974 122.3C66.7519 119.162 68.0936 116.127 69.7052 113.235C71.1636 110.577 72.6384 108.235 73.9381 106.118C75.9966 102.96 77.8665 99.6822 79.538 96.3027C79.9358 95.45 80.2726 94.5702 80.5461 93.6699C80.6195 93.44 80.6807 93.2063 80.7295 92.97L80.7962 92.7201L80.7878 92.7364H80.7874Z" fill="#E5D1AE"/>
<path d="M82.1546 93.0534C79.1966 106.118 53.3825 126.8 72.989 147.956C79.6549 155.155 101.319 166.179 123.067 164.129C179.553 158.796 193.827 145.156 170.029 86.679C166.162 77.1716 170.496 55.2655 128.975 54.0239C111.552 53.4991 90.5873 55.8905 82.1546 93.0531V93.0534Z" fill="#FFF8EF"/>
<path d="M93.3873 68.3638L93.2705 68.5555C93.1573 68.7327 93.0544 68.9164 92.9624 69.1055C92.5962 69.8116 92.2977 70.5509 92.0708 71.3133C91.2422 74.3473 90.96 77.5046 91.2375 80.6375C91.5749 85.5648 92.7705 90.3954 94.7704 94.9112C97.3103 100.789 101.222 105.972 106.178 110.026C108.999 112.331 112.133 114.225 115.485 115.65C119.089 117.16 122.872 118.199 126.742 118.742C130.864 119.307 135.034 119.433 139.182 119.117C140.241 119.05 141.316 118.934 142.382 118.817H142.765L143.158 118.75C143.399 118.7 143.632 118.658 143.899 118.592C144.407 118.467 144.932 118.317 145.457 118.167C147.565 117.568 149.715 116.909 151.931 116.409C156.348 115.418 161.097 114.917 165.729 115.934C168.052 116.454 170.269 117.364 172.288 118.625C172.792 118.918 173.281 119.235 173.754 119.576L174.463 120.133L175.129 120.725C175.587 121.117 175.963 121.558 176.412 121.991C176.625 122.204 176.828 122.426 177.02 122.658C177.221 122.9 177.408 123.153 177.578 123.416C178.806 125.561 179.409 128.005 179.32 130.474C179.302 132.894 179.023 135.305 178.487 137.665C178.229 138.846 177.938 140.018 177.612 141.182L177.145 142.906L176.904 143.739L176.812 144.14V144.19C176.637 144.065 177.221 144.523 176.396 143.531C175.229 143.531 175.804 143.731 175.637 143.672V143.623C176.839 141.624 177.847 139.514 178.645 137.323C180.212 132.932 180.883 128.271 180.62 123.617C180.339 119.01 179.332 114.477 177.637 110.185C176.828 108.046 175.888 105.959 174.82 103.935C174.294 102.922 173.739 101.924 173.154 100.944C172.81 100.378 172.515 99.7845 172.271 99.1689C172.042 98.5651 171.853 97.9472 171.704 97.319C171.146 94.9112 170.871 92.6447 170.512 90.3951C170.155 88.1449 169.829 85.9621 169.363 83.8205C168.526 79.6591 167.054 75.6515 164.996 71.9386C163.033 68.4567 160.359 65.4274 157.148 63.0477C154.025 60.7943 150.558 59.0609 146.882 57.9148C143.403 56.8177 139.826 56.0643 136.2 55.6652C132.837 55.2823 129.452 55.1125 126.067 55.157C123.022 55.1782 119.982 55.4093 116.968 55.8484C112.073 56.4953 107.319 57.9541 102.903 60.1647C100.097 61.5913 97.5594 63.4944 95.4039 65.7891C94.8443 66.3952 94.3159 67.0293 93.8209 67.6891L93.346 68.389L93.3876 68.3638H93.3873ZM91.9875 67.5308L92.4957 66.7726C93.0124 66.048 93.5687 65.3524 94.1621 64.6893C96.4243 62.2164 99.0966 60.1528 102.061 58.5898C106.619 56.1906 111.54 54.5551 116.627 53.7487C119.737 53.2189 122.881 52.9098 126.034 52.8237C129.517 52.7064 133.004 52.8094 136.474 53.1321C140.285 53.4628 144.053 54.1717 147.723 55.2486C151.724 56.4075 155.505 58.2207 158.914 60.6147C162.529 63.2029 165.561 66.5213 167.813 70.3553C170.06 74.3531 171.66 78.6812 172.554 83.1791C173.046 85.4286 173.387 87.7037 173.746 89.9699C174.104 92.2364 174.329 94.5278 174.804 96.6361C174.914 97.1354 175.053 97.6279 175.221 98.1108C175.404 98.5751 175.623 99.0238 175.879 99.4525C176.454 100.486 177.02 101.536 177.545 102.61C178.608 104.774 179.537 107 180.328 109.276C181.964 113.888 182.845 118.733 182.937 123.625C183.022 128.555 182.113 133.453 180.262 138.023C179.33 140.299 178.174 142.476 176.812 144.523C176.781 144.571 176.748 144.619 176.712 144.665C176.495 144.665 177.029 144.923 175.796 144.931C174.912 143.881 175.529 144.248 175.354 144.056V143.889C175.391 143.729 175.436 143.571 175.487 143.415L175.771 142.581L176.304 140.915C176.654 139.789 176.969 138.652 177.246 137.507C177.815 135.237 178.145 132.913 178.228 130.574C178.372 128.29 177.876 126.01 176.795 123.991C176.65 123.76 176.493 123.535 176.329 123.316C176.149 123.093 175.957 122.879 175.754 122.675C175.351 122.264 174.94 121.861 174.521 121.467L173.879 120.892L173.204 120.368C172.762 120 172.271 119.701 171.805 119.375C169.88 118.153 167.743 117.305 165.505 116.876C161.047 116.001 156.489 116.659 152.232 117.783C150.082 118.326 147.99 119.026 145.874 119.692C145.348 119.858 144.815 120.025 144.265 120.175C143.998 120.25 143.699 120.317 143.432 120.384L143.024 120.459H142.59C141.491 120.592 140.408 120.733 139.316 120.817C135.044 121.216 130.743 121.161 126.484 120.65C122.417 120.154 118.437 119.108 114.651 117.543C111.11 116.078 107.796 114.114 104.811 111.709C99.6434 107.389 95.5886 101.891 92.9873 95.6778C90.9509 90.9429 89.7498 85.8909 89.4376 80.7461C89.1982 77.3992 89.5536 74.0364 90.4875 70.8135C90.7619 69.9505 91.1133 69.1139 91.5374 68.3137C91.6875 68.0138 91.8043 67.864 91.8791 67.7306L91.9956 67.5389L91.9875 67.5308Z" fill="#E5BFA1"/>
<path d="M95.1119 69.3557L94.8869 69.8057L94.8283 69.914V70.1223C94.8658 70.4634 94.9677 70.7943 95.1286 71.0973C95.6818 72.0442 96.3693 72.9058 97.1698 73.6552C99.0189 75.379 101.015 76.9376 103.136 78.3133C107.477 81.1545 112.152 83.7458 116.768 86.2455C126.126 91.1951 135.741 95.753 145.323 100.411C150.114 102.735 154.906 105.077 159.664 107.51C162.046 108.735 164.413 110.01 166.755 111.285C169.096 112.559 171.429 113.943 173.696 115.451C174.829 116.209 175.945 117.001 177.028 117.876C177.562 118.326 178.095 118.792 178.604 119.292L178.987 119.693L179.17 119.892L179.22 119.942L179.295 120.042L179.37 120.142L179.97 120.976L180.27 121.375C180.37 121.525 180.47 121.709 180.561 121.867L181.128 122.883C181.285 123.221 181.424 123.565 181.544 123.917C181.689 124.254 181.805 124.602 181.895 124.958C182.089 125.662 182.223 126.382 182.294 127.108C182.294 127.467 182.386 127.825 182.386 128.183V129.258C182.236 132.035 181.652 134.77 180.653 137.365C179.745 139.932 178.612 142.365 177.587 144.798L175.92 143.965C177.548 141.161 178.777 138.143 179.57 134.999C180.356 131.861 180.717 128.633 180.645 125.4C180.603 124.567 180.645 123.792 180.545 122.984L180.286 120.575C180.203 119.742 180.004 118.984 179.87 118.193C179.738 117.395 179.562 116.605 179.345 115.826L178.703 113.485C178.52 112.652 178.17 111.952 177.92 111.185L177.087 108.893L176.078 106.676C175.729 105.943 175.437 105.185 175.045 104.469L173.87 102.327L173.279 101.261L172.979 100.661L172.787 100.294L172.645 100.011C172.554 99.8108 172.462 99.6611 172.371 99.4276L172.096 98.6942L171.97 98.3276L171.879 98.0029L171.704 97.353C170.871 93.9116 170.537 90.6868 169.904 87.4289C169.342 84.2464 168.505 81.1184 167.405 78.0798C166.315 75.1076 164.815 72.3027 162.946 69.7472C161.085 67.2338 158.815 65.051 156.231 63.2897C153.619 61.5189 150.776 60.1169 147.782 59.1235C147.037 58.8488 146.277 58.6152 145.507 58.4236C144.732 58.2235 143.973 57.9984 143.19 57.8152C141.616 57.5236 140.066 57.1572 138.457 56.9819C137.624 56.8818 136.865 56.7484 136.066 56.6735L133.649 56.4985L132.442 56.407H131.225L128.817 56.3654H126.4C125.567 56.3654 124.734 56.3654 123.959 56.4654L121.617 56.6653L119.252 56.9904C116.109 57.4809 113.021 58.2677 110.027 59.34C107.055 60.3666 104.216 61.7427 101.569 63.4394L100.594 64.0812L99.6529 64.806C99.0197 65.256 98.4614 65.7727 97.8864 66.2646C96.7975 67.252 95.8297 68.3652 95.0034 69.5807L95.1119 69.3557ZM91.129 67.081C93.2135 64.0751 95.8866 61.5237 98.9863 59.5815C101.931 57.6496 105.094 56.0749 108.41 54.8904C111.701 53.7407 115.094 52.9037 118.543 52.3906L121.126 52.0659L123.759 51.8741C124.659 51.7908 125.426 51.8074 126.309 51.7908H128.884L131.449 51.899L132.724 51.9575L134.008 52.0825L136.566 52.3242C137.4 52.4243 138.232 52.574 139.116 52.699C140.782 52.9155 142.507 53.3489 144.198 53.6989C145.032 53.9157 145.865 54.1738 146.698 54.4073C147.531 54.6407 148.365 54.9319 149.198 55.2403C152.52 56.4043 155.664 58.0254 158.538 60.0566C161.441 62.1193 163.976 64.6542 166.038 67.5559C168.052 70.4261 169.654 73.5646 170.796 76.8798C171.921 80.133 172.757 83.479 173.295 86.8787C173.879 90.2118 174.187 93.545 174.854 96.6445L174.987 97.1944L175.062 97.4694L175.137 97.6944L175.27 98.1445C175.32 98.3027 175.437 98.5111 175.52 98.6942L175.654 98.9775C175.654 98.9775 175.57 98.8192 175.654 98.9193V98.986L175.729 99.1276L176.028 99.6941L176.612 100.827L177.795 103.094C178.186 103.844 178.487 104.652 178.828 105.427L179.836 107.777L180.67 110.201C180.919 111.035 181.261 111.801 181.445 112.643L182.062 115.142C182.272 115.966 182.433 116.8 182.544 117.643C182.67 118.476 182.853 119.309 182.919 120.142L183.12 122.708C183.211 123.542 183.12 124.425 183.12 125.283C183.092 128.717 182.613 132.132 181.694 135.44C180.763 138.74 179.374 141.892 177.57 144.806C177.452 145.013 177.258 145.167 177.03 145.236C176.802 145.305 176.556 145.284 176.343 145.177C176.13 145.071 175.966 144.886 175.883 144.662C175.802 144.439 175.809 144.192 175.904 143.973C176.887 141.473 177.937 139.048 178.736 136.574C179.599 134.164 180.078 131.633 180.153 129.074C180.238 126.663 179.5 124.295 178.061 122.359L177.437 121.584L177.361 121.484C177.303 121.417 177.42 121.55 177.361 121.534L177.32 121.492L177.162 121.333L176.845 121.017C176.394 120.59 175.921 120.187 175.429 119.809C174.421 119.034 173.337 118.318 172.246 117.618C167.736 114.887 163.091 112.383 158.331 110.118C153.564 107.794 148.748 105.56 143.915 103.327C134.241 98.9111 124.517 94.5782 114.952 89.72C110.169 87.2954 105.419 84.7875 100.786 81.8544C99.6362 81.1129 98.4948 80.3463 97.3782 79.5212C96.2264 78.6903 95.1298 77.7857 94.0951 76.8131C92.9281 75.7615 91.9303 74.5361 91.1371 73.1801C90.6695 72.3113 90.386 71.3555 90.304 70.3722C90.2763 70.0952 90.2763 69.816 90.304 69.5389C90.2962 69.3946 90.2962 69.25 90.304 69.1058C90.304 68.939 90.379 68.7641 90.429 68.5976C90.4791 68.4307 90.5291 68.2558 90.5873 68.0972L90.6707 67.8728L90.729 67.7642L90.9539 67.3141L91.129 67.0806V67.081Z" fill="#895C2F"/>
<path d="M92.6789 67.9138C84.9629 79.8379 94.1952 125.766 142.715 119.576C147.857 118.926 164.921 109.826 176.421 122.609C182.72 129.608 174.221 147.389 176.421 143.722C178.87 139.64 188.319 123.892 174.204 99.6275C169.645 91.8866 177.146 54.3652 128.525 53.9403C109.843 53.7487 97.8115 60.0064 92.6786 67.9138H92.6789Z" fill="#BA8449"/>
<g style="mix-blend-mode:multiply" opacity="0.15">
<g style="mix-blend-mode:multiply">
<path d="M91.3196 70.8135C105.318 61.7977 147.622 62.4145 161.146 84.0374C170.145 98.4026 153.647 133.799 147.622 138.315C141.598 142.832 133.107 146.739 110.918 141.424C92.1529 136.907 120.483 119.4 98.3523 116.851C78.1379 114.517 76.1464 80.6209 91.3198 70.8135H91.3196Z" fill="#C7893E"/>
</g>
</g>
<g style="mix-blend-mode:multiply" opacity="0.25">
<g style="mix-blend-mode:multiply">
<path d="M130.481 105.652C130.481 106.727 128.431 107.593 125.898 107.593C123.366 107.593 121.307 106.76 121.307 105.652C121.307 104.544 123.341 103.744 125.882 103.744C128.422 103.744 130.481 104.577 130.481 105.652Z" fill="#C7893E"/>
</g>
</g>
<path d="M122.415 99.8941C123.466 99.1941 129.082 99.4274 129.765 100.128C130.448 100.827 132.04 103.802 130.231 105.027C129.615 105.452 129.565 103.694 128.19 103.977C126.523 104.327 127.356 106.527 126.09 106.477C124.049 106.419 126.015 104.11 124.224 103.794C122.882 103.56 122.557 104.827 122.007 104.727C120.024 104.385 120.949 100.877 122.415 99.8941Z" fill="#F38089"/>
<path d="M125.483 99.9442C126.837 99.8617 128.194 100.037 129.482 100.461C130.218 101.321 130.628 102.412 130.641 103.544C130.631 103.74 130.579 103.932 130.49 104.107C130.401 104.282 130.277 104.436 130.124 104.56L130.016 104.427C129.87 104.155 129.656 103.925 129.394 103.76C129.133 103.595 128.833 103.5 128.525 103.485C128.397 103.469 128.268 103.469 128.141 103.485C127.713 103.608 127.332 103.859 127.051 104.205C126.769 104.551 126.6 104.974 126.566 105.419C126.4 106.06 126.341 106.202 126.149 106.202C125.575 106.202 125.558 105.96 125.575 105.26C125.591 104.56 125.575 103.594 124.35 103.36C124.218 103.327 124.085 103.304 123.95 103.294C123.344 103.309 122.77 103.574 122.367 104.027L122.133 104.244C121.948 104.216 121.778 104.127 121.65 103.991C121.521 103.855 121.442 103.68 121.425 103.494C121.361 102.888 121.445 102.276 121.67 101.71C121.894 101.143 122.254 100.641 122.717 100.244C123.608 99.95 124.547 99.8338 125.483 99.9023V99.9442ZM125.483 99.4359C124.457 99.36 123.426 99.502 122.458 99.8526C120.992 100.836 120.067 104.344 122.05 104.693H122.117C122.608 104.693 122.95 103.727 123.95 103.727C124.05 103.727 124.158 103.61 124.267 103.635C126.058 103.944 124.091 106.193 126.133 106.193C127.391 106.193 126.525 104.152 128.199 103.81C128.296 103.797 128.394 103.797 128.491 103.81C129.457 103.81 129.641 104.985 130.057 104.985C130.117 105.004 130.181 105.004 130.241 104.985C132.05 103.76 130.474 100.819 129.775 100.094C129.366 99.6858 127.274 99.4441 125.45 99.4441L125.483 99.4359Z" fill="#F38089"/>
<g style="mix-blend-mode:multiply" opacity="0.25">
<g style="mix-blend-mode:multiply">
<path d="M169.24 118.351C171.306 131.84 154.466 148.831 131.793 152.305C109.121 155.78 92.3388 135.474 90.2639 121.983C88.189 108.494 102.155 113.642 124.794 110.159C147.433 106.677 167.148 104.86 169.24 118.351Z" fill="#F6E8D0"/>
</g>
</g>
<path opacity="0.5" d="M110.068 138.84C110.481 139.406 111.036 139.854 111.676 140.14C112.302 140.443 112.958 140.681 113.634 140.848C115.002 141.186 116.395 141.406 117.801 141.507C120.573 141.722 123.358 141.739 126.133 141.556C128.924 141.39 131.699 141.09 134.465 140.674C135.84 140.457 137.215 140.223 138.573 139.916C139.923 139.645 141.243 139.243 142.515 138.715C142.781 138.591 143.123 138.357 143.106 138.273L143.364 137.266C143.565 136.591 143.798 135.899 144.031 135.232C144.523 133.916 145.048 132.616 145.589 131.316C146.673 128.725 147.856 126.183 149.072 123.65C149.672 122.383 150.305 121.151 150.939 119.867C151.572 118.584 152.231 117.367 152.889 116.126C153.554 114.872 154.256 113.638 154.997 112.426C155.38 111.818 155.747 111.21 156.172 110.593L156.838 109.685C157.105 109.368 157.404 109.052 157.671 108.743L159.021 111.143C156.455 111.976 153.888 112.81 151.297 113.526C150.005 113.901 148.698 114.226 147.398 114.567C146.097 114.91 144.781 115.201 143.473 115.518C142.164 115.834 140.848 116.084 139.532 116.351C138.215 116.617 136.882 116.851 135.565 117.101C134.249 117.351 132.907 117.526 131.574 117.751C130.241 117.975 128.908 118.126 127.574 118.284C126.241 118.442 124.9 118.609 123.55 118.709C122.2 118.809 120.867 118.967 119.517 119.009L115.484 119.175H111.426C110.076 119.175 108.718 119.051 107.368 118.984L105.343 118.859L103.318 118.617L101.319 118.351L100.31 118.226L99.3022 117.95L95.2944 117.117L96.0443 114.509L97.7359 115.409L98.1525 115.659L98.544 115.942L99.3274 116.509C99.5878 116.686 99.8382 116.878 100.077 117.084L100.769 117.726L101.452 118.368C101.669 118.601 101.852 118.85 102.052 119.084C102.463 119.544 102.841 120.031 103.185 120.542C103.533 121.036 103.856 121.548 104.152 122.075C104.418 122.625 104.743 123.134 104.985 123.683C105.227 124.233 105.485 124.775 105.709 125.35L106.326 127.016L106.877 128.683C107.217 129.815 107.534 130.954 107.826 132.099C108.119 133.244 108.434 134.383 108.768 135.516C108.952 136.082 109.101 136.649 109.326 137.182C109.527 137.754 109.776 138.309 110.068 138.84ZM110.068 138.84C109.762 138.333 109.5 137.8 109.284 137.249C109.043 136.707 108.885 136.132 108.693 135.582L107.668 132.191C107.316 131.071 106.939 129.96 106.535 128.858L105.893 127.192L105.144 125.608C104.868 125.083 104.577 124.583 104.31 124.075C104.043 123.566 103.668 123.1 103.344 122.625C103.013 122.157 102.651 121.712 102.26 121.292C101.896 120.855 101.491 120.454 101.052 120.092C100.835 119.909 100.636 119.709 100.419 119.534L99.6522 119.084L98.9607 118.625C98.7241 118.481 98.4758 118.355 98.2189 118.251L97.469 117.909L97.1524 117.742L96.7524 117.626L95.1776 117.209C94.8284 117.115 94.53 116.888 94.3461 116.576C94.1624 116.264 94.1079 115.894 94.1945 115.543C94.2807 115.235 94.4723 114.967 94.7358 114.785C94.9992 114.604 95.3177 114.521 95.6361 114.551L95.936 114.601L99.7774 115.326L100.736 115.493L101.71 115.61L103.66 115.851L105.61 116.085L107.568 116.201C108.885 116.259 110.185 116.409 111.501 116.384H115.45L119.392 116.218C120.708 116.218 122.025 116.017 123.342 115.926C124.658 115.834 125.966 115.676 127.274 115.509C128.583 115.342 129.891 115.209 131.199 114.984C132.507 114.759 133.816 114.609 135.107 114.351C136.398 114.093 137.715 113.884 139.007 113.618C140.299 113.351 141.598 113.076 142.881 112.785C144.164 112.493 145.455 112.193 146.739 111.851C148.022 111.51 149.306 111.202 150.572 110.834C153.115 110.126 155.638 109.348 158.138 108.502C158.433 108.398 158.754 108.397 159.05 108.499C159.346 108.6 159.599 108.798 159.768 109.061C159.938 109.323 160.013 109.636 159.984 109.947C159.954 110.258 159.821 110.55 159.604 110.776L159.487 110.901L158.88 111.452L158.238 112.185C157.814 112.676 157.404 113.226 156.988 113.759C156.155 114.868 155.413 116.017 154.655 117.176C153.897 118.334 153.172 119.517 152.463 120.717C151.755 121.917 151.047 123.109 150.372 124.325C149.014 126.759 147.714 129.224 146.506 131.733C145.903 132.978 145.347 134.245 144.839 135.532C144.583 136.17 144.344 136.814 144.122 137.465L143.823 138.465C143.74 138.708 143.571 138.912 143.347 139.04C143.186 139.146 143.016 139.238 142.839 139.315C141.507 139.813 140.128 140.179 138.723 140.407C137.341 140.664 135.951 140.884 134.557 141.065C131.791 141.419 129.011 141.649 126.224 141.756C123.428 141.892 120.625 141.846 117.834 141.623C116.427 141.509 115.034 141.275 113.668 140.923C112.989 140.749 112.33 140.506 111.701 140.198C111.039 139.911 110.466 139.45 110.043 138.865L110.068 138.84Z" fill="#D7CAB2"/>
<path opacity="0.5" d="M110.061 138.848C110.48 139.41 111.033 139.857 111.669 140.148C112.298 140.454 112.956 140.692 113.636 140.856C115.004 141.193 116.398 141.416 117.802 141.523C120.575 141.728 123.359 141.747 126.135 141.581C128.923 141.432 131.704 141.154 134.467 140.748C135.842 140.548 137.225 140.323 138.583 140.032C139.943 139.767 141.275 139.371 142.558 138.848C142.841 138.706 143.199 138.515 143.249 138.315L143.517 137.298C143.716 136.632 143.958 135.957 144.191 135.298C144.689 133.986 145.22 132.685 145.782 131.399C146.908 128.833 148.124 126.316 149.382 123.808C149.998 122.55 150.64 121.308 151.29 120.067C151.939 118.824 152.612 117.593 153.307 116.375C153.99 115.184 154.723 113.943 155.482 112.751C155.873 112.159 156.248 111.559 156.673 110.984L157.331 110.151C157.588 109.853 157.867 109.575 158.165 109.318L158.84 110.518C156.298 111.351 153.74 112.184 151.157 112.884C149.874 113.26 148.565 113.584 147.274 113.926C145.982 114.267 144.674 114.551 143.366 114.868C142.058 115.184 140.75 115.434 139.442 115.7C138.133 115.968 136.808 116.193 135.492 116.442C134.175 116.692 132.851 116.867 131.526 117.084C130.201 117.301 128.876 117.459 127.543 117.626C126.209 117.792 124.884 117.95 123.543 118.042C122.201 118.134 120.868 118.301 119.527 118.343L115.486 118.475H111.453C110.111 118.475 108.769 118.351 107.428 118.284L105.412 118.159L103.404 117.908L101.395 117.668L100.396 117.543L99.4038 117.192L95.4375 116.243L95.8209 115.05L97.4872 115.926L97.9039 116.16L98.2873 116.425L99.0624 116.943C99.3123 117.117 99.587 117.259 99.8205 117.459L100.504 118.067L101.195 118.667C101.404 118.884 101.595 119.125 101.795 119.35C102.229 119.782 102.628 120.247 102.987 120.742C103.348 121.22 103.682 121.718 103.987 122.233C104.27 122.766 104.595 123.267 104.82 123.8C105.045 124.333 105.336 124.875 105.57 125.466L106.22 127.133L106.795 128.8C107.15 129.928 107.48 131.065 107.787 132.207C108.094 133.349 108.411 134.49 108.753 135.615C108.936 136.173 109.086 136.748 109.32 137.282C109.524 137.823 109.772 138.347 110.061 138.848ZM110.061 138.848C109.758 138.341 109.498 137.808 109.286 137.257C109.053 136.715 108.894 136.14 108.703 135.59L107.695 132.191C107.365 131.07 107.004 129.959 106.612 128.858L105.995 127.191L105.278 125.583C105.02 125.05 104.728 124.542 104.445 124.016C104.162 123.491 103.828 123.025 103.52 122.534C103.191 122.052 102.838 121.588 102.462 121.142C102.117 120.684 101.735 120.255 101.32 119.858C101.112 119.659 100.912 119.45 100.695 119.267L99.9539 118.742L99.2622 118.234C99.0245 118.076 98.777 117.934 98.5208 117.809L97.7626 117.409L97.3875 117.209L96.9872 117.075L95.3793 116.534C95.2039 116.475 95.059 116.349 94.9762 116.184C94.8934 116.018 94.8797 115.826 94.9378 115.651C94.9973 115.507 95.1073 115.39 95.247 115.323C95.3869 115.256 95.5466 115.241 95.696 115.284L95.7542 115.401L99.637 116.059L100.612 116.193L101.595 116.284L103.562 116.517L105.528 116.751L107.511 116.868C108.827 116.926 110.144 117.075 111.478 117.05L115.486 117.075L119.46 116.909C120.785 116.909 122.101 116.709 123.426 116.617C124.752 116.525 126.068 116.367 127.384 116.201C128.701 116.034 130.017 115.892 131.325 115.667C132.634 115.443 133.958 115.293 135.259 115.034C136.559 114.776 137.875 114.567 139.175 114.292C140.475 114.018 141.774 113.751 143.066 113.46C144.362 113.168 145.654 112.857 146.941 112.526C148.232 112.192 149.515 111.868 150.79 111.492C153.349 110.793 155.882 110.002 158.389 109.152C158.476 109.121 158.568 109.108 158.66 109.114C158.752 109.119 158.842 109.143 158.925 109.183C159.008 109.223 159.082 109.28 159.143 109.348C159.204 109.418 159.251 109.497 159.281 109.584C159.321 109.707 159.329 109.839 159.3 109.964C159.273 110.091 159.211 110.207 159.122 110.301L159.064 110.351L158.389 111.001L157.739 111.776C157.315 112.301 156.906 112.868 156.506 113.443C155.723 114.576 154.973 115.742 154.24 116.926C153.508 118.111 152.797 119.308 152.106 120.517C151.415 121.725 150.723 122.941 150.065 124.166C148.749 126.666 147.482 129.116 146.308 131.666C145.747 132.938 145.191 134.213 144.641 135.49C144.391 136.14 144.15 136.782 143.932 137.44L143.641 138.448C143.574 138.657 143.427 138.831 143.233 138.932C143.081 139.037 142.919 139.126 142.75 139.199C141.431 139.704 140.067 140.077 138.675 140.314C137.3 140.582 135.917 140.815 134.509 140.997C131.744 141.38 128.963 141.633 126.176 141.756C123.382 141.904 120.581 141.866 117.794 141.639C116.387 141.525 114.994 141.291 113.627 140.939C112.948 140.765 112.29 140.523 111.66 140.214C111.014 139.912 110.459 139.443 110.053 138.856L110.061 138.848H110.061Z" fill="#D7CAB2"/>
<path d="M110.051 138.857C113.667 144.456 142.914 140.598 143.381 138.39C144.664 132.674 155.163 112.61 158.546 109.81C152.48 111.91 121.1 121.942 95.5605 115.876C107.151 119.576 107.243 134.507 110.051 138.856V138.857Z" fill="#333333"/>
<path d="M154.714 112.526C150.323 119.15 143.582 132.074 142.149 137.707C140.415 138.657 131.316 140.348 122.375 140.348C115.243 140.348 111.944 139.19 111.243 138.098C110.411 136.422 109.784 134.651 109.377 132.824C108.169 128.508 106.519 122.642 102.486 118.533C106.146 118.987 109.83 119.209 113.519 119.2C130.35 119.2 146.765 114.942 154.723 112.534L154.714 112.526ZM158.588 109.818C153.897 111.484 134.074 117.809 113.519 117.809C107.493 117.862 101.481 117.216 95.6035 115.884C107.152 119.576 107.244 134.507 110.052 138.857C111.435 140.99 116.551 141.748 122.367 141.748C131.808 141.748 143.107 139.757 143.415 138.415C144.698 132.699 155.197 112.635 158.58 109.835L158.588 109.818Z" fill="#333333"/>
<g style="mix-blend-mode:multiply">
<g style="mix-blend-mode:multiply">
<path d="M108.31 133.957C110.252 135.624 116.859 128.2 116.16 125.325C114.369 118.017 106.286 119.026 103.328 118.559C100.37 118.092 94.6535 115.568 97.0283 116.31C103.878 118.409 116.935 117.476 118.493 117.975C120.46 118.559 121.826 126.525 119.893 128.316C117.959 130.108 111.118 140.523 110.094 138.74C109.069 136.957 108.819 135.049 108.31 133.957ZM139.257 125.325C140.824 126.85 144.932 128.658 147.498 127.733C147.035 129.174 146.409 130.558 145.632 131.857C127.9 130.3 132.724 117.859 134.041 116.692C135.358 115.526 151.773 113.193 154.964 112.526C150.139 113.585 133.817 120.042 139.257 125.325Z" fill="#818181"/>
</g>
</g>
<path d="M122.149 141.789C116.117 141.789 112.15 140.957 110.634 139.29C110.517 139.149 110.493 138.306 111.184 136.732C112.85 132.882 118.058 126.225 127.015 125.683C127.615 125.683 128.215 125.625 128.799 125.625C139.339 125.625 145.688 130.975 145.705 131.932L145.188 133.174C144.622 134.541 143.755 136.607 142.989 138.906C142.239 139.657 131.624 141.79 122.149 141.79V141.789Z" fill="#F8B1AB"/>
<path d="M128.816 125.408V126.083C137.982 126.083 144.523 130.608 145.206 131.916C145.09 132.208 144.931 132.566 144.756 132.991C144.198 134.325 143.356 136.324 142.606 138.557C141.115 139.39 131.258 141.324 122.109 141.324C116.384 141.324 112.452 140.49 111.002 139.04C110.935 138.549 111.417 136.607 113.168 134.107C114.734 131.874 119.234 126.608 127.025 126.15C127.608 126.15 128.216 126.092 128.799 126.092V125.158L128.816 125.408ZM128.799 125.158C128.208 125.158 127.599 125.158 126.983 125.217C114.651 125.95 108.952 138.174 110.252 139.573C112.051 141.548 116.776 142.231 122.109 142.231C131.615 142.231 143.073 140.049 143.414 139.032C144.465 135.882 145.673 133.199 146.139 132.033C146.606 130.867 139.473 125.134 128.782 125.134L128.799 125.158Z" fill="#F38089"/>
<g style="mix-blend-mode:multiply">
<g style="mix-blend-mode:multiply">
<path d="M110.485 138.89C109.652 142.715 132.916 124.084 145.481 133.058C147.981 129.575 134.124 123.742 126.033 125.091C119.209 126.241 112.192 130.616 110.485 138.89Z" fill="#F8B1AB"/>
</g>
</g>
<path d="M115.184 118.909C116.317 121.009 118.567 131.241 119.5 131.508C120.433 131.775 126.166 133.374 127 133.024C127.832 132.674 127.758 130.691 128.666 131.274C129.365 131.741 129.716 132.674 130.416 132.324C131.666 131.7 135.415 129.408 136.016 128.358C136.615 127.308 136.482 121.475 136.016 116.809C133.498 117.859 119.383 119.375 115.184 118.909Z" fill="#FEF6E4"/>
<path d="M135.541 117.443C135.983 122.234 135.991 127.325 135.541 128.133C135.091 128.941 131.667 131.141 130.142 131.907C130.111 131.912 130.08 131.912 130.05 131.907C129.941 131.907 129.733 131.683 129.559 131.491C129.348 131.255 129.114 131.043 128.858 130.858C128.696 130.746 128.505 130.682 128.309 130.675C127.708 130.675 127.475 131.283 127.259 131.774C127.133 132.074 126.967 132.491 126.792 132.607C126.731 132.616 126.669 132.616 126.608 132.607C124.482 132.315 122.382 131.858 120.326 131.241L119.684 131.074C119.243 130.574 118.31 127.291 117.626 124.875C117.01 122.725 116.427 120.709 115.959 119.434H117.259C122.618 119.434 132.45 118.318 135.591 117.409L135.541 117.443ZM135.999 116.776C133.867 117.693 122.85 118.967 117.284 118.967C116.6 118.972 115.916 118.942 115.234 118.876C116.318 121.009 118.568 131.241 119.501 131.508C120.434 131.774 125.1 133.074 126.608 133.074C126.73 133.08 126.851 133.063 126.967 133.024C127.683 132.716 127.725 131.166 128.309 131.166C128.414 131.172 128.516 131.21 128.6 131.274C129.191 131.666 129.534 132.399 130.05 132.399C130.154 132.397 130.257 132.371 130.35 132.325C131.599 131.699 135.349 129.408 135.95 128.358C136.549 127.308 136.416 121.475 135.95 116.809L136 116.776H135.999Z" fill="#FFD085"/>
<g style="mix-blend-mode:multiply">
<g style="mix-blend-mode:multiply">
<path d="M116.816 123.809C116.433 120.034 133.923 118.809 136.106 119.101C136.106 118.209 135.948 117.592 135.989 116.601C133.106 118.05 117.399 119.576 115.225 118.951C115.875 120.528 116.407 122.152 116.816 123.809Z" fill="#EADCBE"/>
</g>
</g>
<g style="mix-blend-mode:multiply">
<g style="mix-blend-mode:multiply">
<path d="M125.551 120.959C125.793 121.458 126.01 121.971 126.201 122.492C126.567 123.425 127.033 124.684 127.409 125.942C127.783 127.2 128.242 128.441 128.5 129.417L128.975 130.983L127.767 131.333L127.4 129.666C127.183 128.7 126.892 127.417 126.567 126.134C126.242 124.85 125.917 123.583 125.634 122.642C125.35 121.7 125.117 121.101 125.117 121.101L125.551 120.959Z" fill="#FFD085"/>
</g>
</g>
<g style="mix-blend-mode:multiply" opacity="0.4">
<g style="mix-blend-mode:multiply">
<path d="M66.3234 61.4479C75.6142 63.8145 74.0976 79.871 79.6554 81.1211C85.2132 82.3708 92.4459 67.9142 93.1458 64.731C82.4387 60.1815 77.4808 54.8071 69.8147 56.3986C67.282 56.8817 63.7238 60.7731 66.3237 61.4479H66.3234Z" fill="#F8B1AB"/>
</g>
</g>
<g style="mix-blend-mode:multiply" opacity="0.5">
<g style="mix-blend-mode:multiply">
<path d="M92.0548 108.377C103.72 109.309 113.361 109.776 116.785 106.193C120.21 102.61 121.451 86.7535 127.126 87.1453C131.884 87.4701 133.501 108.143 136.609 108.76C139.717 109.376 161.606 115.376 167.014 109.776C172.421 104.177 174.947 100.677 173.68 97.2775C172.413 93.8779 140.483 82.9122 133.967 82.3208C127.451 81.7291 83.2721 87.2203 82.1556 90.0199C81.039 92.8196 79.8727 92.4196 80.081 95.4109C80.4892 100.985 80.3891 107.443 92.0548 108.377Z" fill="#C7893E"/>
</g>
</g>
<path d="M124.75 84.8543C125.583 84.8543 128.916 84.6208 129.649 85.2043C133.882 88.5371 133.699 102.044 138.165 106.31C142.106 110.077 163.596 112.843 167.329 108.527C171.062 104.211 176.536 91.1533 177.819 90.1953C179.102 89.237 181.902 88.5289 182.719 87.2789C183.536 86.0292 182.836 80.2797 180.853 80.5132C178.87 80.7464 175.136 82.0295 172.803 81.3463C170.471 80.663 159.163 73.5305 130.699 77.8467C128.242 78.1581 125.748 77.9997 123.35 77.38C121.484 76.9133 110.751 70.7141 82.1794 74.8135C79.3212 75.2217 75.4134 73.9802 74.0136 74.1136C72.6138 74.247 72.1552 78.6716 72.7303 79.8382C73.3052 81.0045 76.2298 81.9379 76.5798 83.3378C76.9297 84.7376 79.4962 98.4945 86.2621 104.211C93.3866 110.235 111.702 106.068 113.318 104.911C120.667 99.6612 122.3 84.8543 124.75 84.8543Z" fill="#333333"/>
<path d="M100.161 74.8298C112.877 74.8298 119.377 77.3711 121.826 78.3212C122.203 78.4855 122.591 78.6275 122.984 78.746C124.732 79.1841 126.525 79.4107 128.326 79.4211C129.179 79.4251 130.031 79.3635 130.875 79.2376C136.45 78.3752 142.082 77.9323 147.723 77.9127C161.097 77.9127 168.055 80.9043 171.055 82.1874C171.654 82.4458 172.087 82.629 172.438 82.7372C173.099 82.9234 173.784 83.0132 174.471 83.0041C176.042 82.9413 177.603 82.7151 179.128 82.329C179.778 82.1956 180.395 82.0621 180.879 81.9875C181.529 82.6957 181.92 85.8453 181.579 86.5871C180.873 87.1724 180.065 87.6216 179.195 87.9117C178.427 88.2226 177.693 88.6107 177.003 89.0701C176.253 89.6117 175.454 91.1117 173.18 95.6111C171.013 99.8939 168.321 105.227 166.271 107.593C165.555 108.427 163.013 109.26 158.022 109.26C150.615 109.26 141.257 107.268 139.132 105.243C137.199 103.394 136.167 99.1273 135.175 95.0112C134.067 90.4114 132.983 86.0703 130.484 84.104C129.851 83.6039 128.817 83.4041 126.867 83.4041H124.718C122.751 83.4041 121.876 85.8453 120.426 89.9032C118.818 94.5779 116.552 100.886 112.527 103.744C111.636 104.285 105.027 105.976 98.3619 105.976C93.2623 105.976 89.3961 104.993 87.1878 103.127C84.513 100.869 80.7636 95.6274 78.0971 83.5706C78.0388 83.2955 77.997 83.0957 77.9636 82.9792C77.6388 81.6792 76.3891 80.8625 75.2807 80.1459C74.8259 79.879 74.4013 79.563 74.0143 79.2043C73.8096 77.9576 73.9479 76.6787 74.4143 75.5045C75.0628 75.5636 75.708 75.6553 76.3473 75.7796C77.8558 76.073 79.3857 76.243 80.9219 76.2882C81.4083 76.3085 81.8954 76.2942 82.38 76.2463C88.2667 75.3591 94.2084 74.8859 100.161 74.8301V74.8298ZM100.161 73.4299C94.1338 73.4656 88.1165 73.9306 82.1549 74.8216C81.7298 74.8792 81.301 74.9071 80.8718 74.9047C78.3721 74.9047 75.5139 74.0717 74.2059 74.0717H73.9976C72.5978 74.1881 72.1311 78.6211 72.7142 79.7877C73.2977 80.9541 76.2138 81.8875 76.5641 83.2873C76.914 84.6872 79.4802 98.4441 86.2461 104.16C89.0876 106.56 93.6957 107.343 98.32 107.343C105.311 107.343 112.336 105.56 113.318 104.843C120.668 99.594 122.301 84.7872 124.751 84.7872C125.125 84.7872 125.992 84.7372 126.901 84.7372C128.033 84.7372 129.242 84.8121 129.65 85.1372C133.883 88.47 133.7 101.977 138.166 106.243C140.666 108.651 150.381 110.651 158.022 110.651C162.33 110.651 165.98 110.018 167.33 108.46C171.063 104.144 176.537 91.0865 177.82 90.1282C179.103 89.1699 181.903 88.4618 182.72 87.2118C183.537 85.9621 182.87 80.4376 180.97 80.4376H180.854C179.287 80.6208 176.637 81.4626 174.438 81.4626C173.875 81.4717 173.313 81.4019 172.771 81.2543C170.98 80.7127 163.855 76.3712 147.69 76.3712C141.989 76.4058 136.299 76.8682 130.667 77.7544C129.892 77.8674 129.109 77.9231 128.326 77.9212C126.64 77.9107 124.961 77.6981 123.326 77.288C121.942 77.0797 115.485 73.4299 100.161 73.4299Z" fill="#1A1A1A"/>
<g style="mix-blend-mode:multiply" opacity="0.5">
<g style="mix-blend-mode:multiply">
<path fill-rule="evenodd" clip-rule="evenodd" d="M84.5133 83.4541C83.8634 84.2875 83.4634 96.7447 88.6797 100.119C92.1208 102.344 106.761 101.869 109.677 100.236C114.31 97.6696 118.819 85.8371 117.519 84.1541C115.419 81.3544 100.262 77.6216 88.821 80.538C87.1605 81.1278 85.6778 82.1315 84.5133 83.4541Z" stroke="#333333" stroke-width="1.06243"/>
</g>
</g>
<path d="M84.5133 83.4541C83.8634 84.2875 83.4634 96.7447 88.6797 100.119C92.1208 102.344 106.761 101.869 109.677 100.236C114.31 97.6696 118.819 85.8371 117.519 84.1541C115.419 81.3544 100.262 77.6216 88.821 80.538C87.1605 81.1278 85.6778 82.1315 84.5133 83.4541Z" fill="white"/>
<g style="mix-blend-mode:multiply" opacity="0.5">
<g style="mix-blend-mode:multiply">
<path fill-rule="evenodd" clip-rule="evenodd" d="M170.404 88.9035C170.937 89.8117 169.72 102.236 164.079 104.902C160.379 106.651 145.923 104.294 143.248 102.294C139.015 99.1442 136.107 86.8289 137.582 85.3206C140.023 82.8207 155.547 81.0795 166.495 85.4539C168.072 86.2499 169.418 87.4378 170.404 88.9035Z" stroke="#333333" stroke-width="1.06243"/>
</g>
</g>
<path d="M170.404 88.9035C170.937 89.8117 169.72 102.236 164.079 104.902C160.379 106.651 145.923 104.294 143.248 102.294C139.015 99.1442 136.107 86.8289 137.582 85.3206C140.023 82.8207 155.547 81.0795 166.495 85.4539C168.072 86.2499 169.418 87.4378 170.404 88.9035Z" fill="white"/>
<path d="M101.162 91.0118C100.779 93.7199 99.4037 95.7696 98.0957 95.5779C96.7872 95.3863 96.0457 93.0782 96.4291 90.3368C96.8123 87.5954 98.187 85.579 99.4952 85.7707C100.804 85.9623 101.545 88.3037 101.162 91.0118H101.162ZM157.148 94.1615C157.44 96.8862 156.598 99.1609 155.29 99.3359C153.982 99.5109 152.681 97.3778 152.399 94.6531C152.115 91.9283 152.948 89.612 154.264 89.4786C155.581 89.3451 156.872 91.4367 157.148 94.1615Z" fill="#010101"/>
<g style="mix-blend-mode:multiply" opacity="0.3">
<g style="mix-blend-mode:multiply">
<path d="M74.1905 78.088C75.782 79.1464 77.282 78.4965 77.6319 80.5878C77.9819 82.6794 82.823 100.994 88.8887 103.085C98.8213 106.544 111.32 103.161 112.986 102.077C114.653 100.994 122.61 83.2461 123.952 82.5459C125.293 81.846 129.518 82.6211 130.426 83.0129C133.168 84.1792 138.192 103.436 139.592 104.411C145.716 108.727 165.314 108.377 166.256 107.21C167.197 106.043 174.589 89.2118 175.872 88.2038C177.796 86.7457 182.229 85.754 182.346 86.3957C182.463 87.0371 178.788 87.6206 177.68 89.0205C176.572 90.4203 169.173 106.519 166.848 107.911C164.523 109.302 147.341 111.618 138.675 105.519C134.509 102.602 132.901 85.0541 129.634 84.121C127.937 83.5623 126.116 83.5015 124.386 83.946C122.344 85.2873 119.486 100.153 113.362 103.944C110.937 105.452 91.8637 109.119 86.1892 103.186C75.5736 92.1118 78.7815 82.196 75.3569 80.7379C72.9905 79.738 72.4989 78.5214 72.5572 77.6465C72.6157 76.7716 73.3153 77.5049 74.1905 78.088ZM74.3655 74.3553C73.2571 73.947 79.1481 76.3967 81.3231 76.2467C83.4978 76.0968 87.1557 74.5802 88.3223 74.2051C89.4889 73.8303 82.8394 75.0385 81.2064 74.9633C79.5733 74.8883 75.0069 74.5802 74.3655 74.3553ZM119.969 77.6216C122.01 78.5548 122.944 80.8295 124.969 81.0629C126.993 81.2962 129.344 81.6461 130.452 81.0045C131.947 80.1224 133.513 79.3671 135.134 78.7464C135.967 78.5714 129.01 79.6798 126.444 79.4463C123.719 79.1794 120.727 77.7381 119.969 77.6216ZM169.839 80.363C169.006 80.0131 172.922 83.221 174.089 83.0459C175.255 82.871 177.422 81.5379 178.255 81.238C178.955 81.0045 175.456 81.9379 174.405 81.7626C172.851 81.4078 171.325 80.94 169.839 80.363Z" fill="#333333"/>
</g>
</g>
<g style="mix-blend-mode:multiply" opacity="0.3">
<g style="mix-blend-mode:multiply">
<path d="M82.2959 81.6461C87.487 76.5132 99.8441 78.263 102.094 78.7297C87.2538 79.8047 86.9873 80.9132 84.396 83.5375C83.6691 88.4647 84.1641 93.495 85.8374 98.1861C83.2875 96.7196 80.5628 83.3629 82.2959 81.6461ZM173.228 87.1624C168.762 81.3963 156.28 81.5045 153.989 81.671C168.562 84.6876 168.67 85.8375 170.903 88.762C170.978 93.7397 169.834 98.6599 167.571 103.094C170.27 101.977 174.728 89.0957 173.228 87.1624Z" fill="#333333"/>
</g>
</g>
<g style="mix-blend-mode:multiply">
<g style="mix-blend-mode:multiply">
<path d="M84.6563 92.0285C85.1727 85.9373 85.7059 81.0879 97.6963 80.7131C107.295 80.4129 114.953 82.6631 116.086 84.9708C116.795 86.4207 116.236 92.9034 111.428 98.8193C114.545 96.0445 119.461 85.2043 117.32 83.8209C109.503 78.8214 93.9884 78.6882 88.2141 80.7628C86.7305 81.408 85.4075 82.3726 84.3394 83.5877C84.1896 85.1124 84.1645 91.1785 84.656 92.0285H84.6563Z" fill="#D0DDDC"/>
</g>
</g>
<g style="mix-blend-mode:multiply">
<g style="mix-blend-mode:multiply">
<path d="M85.0209 92.4364C86.8459 104.21 108.427 100.636 109.71 100.169C109.627 100.827 98.3945 103.944 88.9456 100.327C85.1458 98.8691 84.8044 91.0866 85.0209 92.4367V92.4364ZM169.404 97.2943C169.637 91.1867 169.704 86.3121 157.855 84.4622C148.365 82.9875 140.482 84.2873 139.082 86.4289C138.198 87.7869 137.957 94.2863 142.007 100.752C139.249 97.6194 135.699 86.2536 137.999 85.154C146.332 81.1377 161.805 82.9208 167.254 85.6871C168.651 86.5075 169.846 87.6291 170.754 88.9702C170.712 90.4864 170.004 96.511 169.404 97.2946V97.2943Z" fill="#D0DDDC"/>
</g>
</g>
<g style="mix-blend-mode:multiply">
<g style="mix-blend-mode:multiply">
<path d="M168.998 97.6526C165.74 109.118 144.767 102.927 143.551 102.302C143.551 102.969 154.316 107.435 164.132 105.002C168.082 104.027 169.373 96.3359 168.998 97.6526Z" fill="#D0DDDC"/>
</g>
</g>
<g style="mix-blend-mode:screen" opacity="0.25">
<g style="mix-blend-mode:screen">
<path d="M100.151 88.3656C100.573 88.3656 100.915 88.0234 100.915 87.6014C100.915 87.1793 100.573 86.8372 100.151 86.8372C99.7288 86.8372 99.3867 87.1793 99.3867 87.6014C99.3867 88.0234 99.7288 88.3656 100.151 88.3656Z" fill="white"/>
</g>
</g>
<g style="mix-blend-mode:screen" opacity="0.25">
<g style="mix-blend-mode:screen">
<path d="M155.671 91.6322C156.093 91.6322 156.435 91.29 156.435 90.8679C156.435 90.4459 156.093 90.1038 155.671 90.1038C155.249 90.1038 154.906 90.4459 154.906 90.8679C154.906 91.29 155.249 91.6322 155.671 91.6322Z" fill="white"/>
</g>
</g>
<g style="mix-blend-mode:screen" opacity="0.1">
<g style="mix-blend-mode:screen">
<path d="M74.541 77.3297C76.2074 79.2544 77.2491 79.4379 79.5405 79.138C101.43 76.2465 113.495 76.3965 119.444 81.9959C120.736 83.2125 120.028 78.4377 117.578 77.8298C99.1552 72.9552 85.7982 77.3297 82.99 77.6796C80.1819 78.0296 78.0989 77.3879 74.541 77.3297ZM134.96 80.1293C134.468 80.6376 134.677 85.7038 137.059 83.8039C143.942 78.321 158.349 79.6378 168.381 82.9708C166.715 79.8212 155.049 77.6047 148.433 77.7215C145.334 77.7882 136.318 78.7465 134.96 80.1293Z" fill="#D0DDDC"/>
</g>
</g>
<path d="M174.146 85.3324C175.498 85.3324 176.595 84.9902 176.595 84.5681C176.595 84.1461 175.498 83.804 174.146 83.804C172.792 83.804 171.695 84.1461 171.695 84.5681C171.695 84.9902 172.792 85.3324 174.146 85.3324Z" fill="#D0DDDC"/>
<path d="M81.8541 78.063C81.8541 78.2631 80.7041 78.2464 79.3543 78.063C78.0045 77.8799 76.9713 77.4881 77.0047 77.2797C77.038 77.0714 78.1546 77.088 79.5044 77.2797C80.8542 77.4713 81.8874 77.8546 81.8541 78.063Z" fill="#D0DDDC"/>
<path d="M217.916 190.718C217.491 186.435 214.357 184.519 211.441 184.519C210.476 184.522 209.52 184.709 208.625 185.068L208.05 185.319L207.567 185.677C206.659 186.347 205.664 186.891 204.609 187.293C204.556 186.314 204.589 185.333 204.709 184.36V184.202C205.501 176.661 203.925 172.262 200.018 171.12C199.36 170.929 198.678 170.834 197.993 170.837C195.876 170.933 193.84 171.678 192.16 172.97C191.483 172.202 190.638 171.599 189.693 171.206C188.747 170.813 187.724 170.642 186.702 170.704C183.128 170.704 180.253 172.37 179.203 175.061C179.103 175.32 178.961 175.745 178.786 176.287C177.887 174.307 176.42 172.638 174.572 171.494C172.724 170.348 170.577 169.777 168.404 169.854C165.288 169.851 162.232 170.717 159.581 172.353L159.363 172.512C155.849 174.988 152.989 178.283 151.031 182.11C149.95 178.414 147.504 175.265 144.19 173.303L144.123 173.262L143.832 173.086C147.523 166.521 150.789 157.813 148.831 149.53C146.748 140.69 141.549 139.365 138.641 139.365C137.382 139.378 136.133 139.603 134.949 140.032H134.791C129.308 142.19 126.892 145.431 126.366 146.206C121.968 153.277 119.233 161.254 118.368 169.537C118.207 171.046 118.04 172.554 117.867 174.062C116.759 172.593 115.184 171.544 113.402 171.086C112.715 170.878 112.002 170.771 111.285 170.771C108.26 170.771 105.778 172.628 104.469 173.861C103.912 173.037 103.169 172.355 102.301 171.869C101.433 171.383 100.463 171.106 99.4696 171.062H98.978C96.132 171.114 93.3995 172.188 91.2786 174.087C90.6733 173.029 89.7946 172.154 88.7348 171.553C87.6748 170.952 86.4727 170.646 85.2544 170.671H84.2212C80.6298 170.671 77.8052 172.336 76.655 175.178C76.5508 175.454 76.4538 175.731 76.3638 176.011C73.5472 172.512 69.956 170.87 65.1397 170.87H64.6564C61.6568 170.928 54.1658 172.187 49.558 182.536C48.867 184.077 48.3094 185.674 47.8914 187.31C47.0618 186.933 46.1613 186.737 45.25 186.736C44.2513 186.74 43.2685 186.985 42.384 187.449C41.4996 187.913 40.7394 188.583 40.1675 189.402C39.4506 190.451 37.1925 194.143 38.3009 197.734C38.5983 198.685 39.1096 199.554 39.7957 200.277C40.4818 201 41.3244 201.555 42.2587 201.9C43.9836 202.575 46.1586 203.234 47.8082 203.708C49.137 206.669 51.2096 209.236 53.8243 211.158C56.3159 212.94 59.3286 213.846 62.3901 213.732C66.4992 213.591 70.5411 212.649 74.2887 210.958L74.5136 210.857L74.5722 210.816C75.747 212.028 77.2755 212.836 78.9382 213.124C79.6199 213.25 80.3116 213.314 81.0049 213.316C84.1127 213.316 86.2958 211.774 88.2958 208.8C89.1907 210.12 90.4084 211.19 91.8331 211.908C93.258 212.625 94.8425 212.967 96.4364 212.899C96.6281 212.899 96.8282 212.999 97.0365 212.999C98.8864 212.999 101.203 212.316 103.153 209.208C103.958 210.629 105.137 211.802 106.561 212.6C107.986 213.397 109.603 213.789 111.235 213.732C113.43 213.682 115.588 213.156 117.56 212.191L117.66 212.141C118.709 211.583 119.568 211.108 120.268 210.699C123.404 212.405 126.913 213.31 130.483 213.333C131.224 213.335 131.964 213.296 132.699 213.216H133.091C142.257 211.416 148.206 209.216 151.764 207.558C154.863 211.003 159.188 213.097 163.813 213.391C164.455 213.441 165.096 213.466 165.73 213.466C169.608 213.478 173.427 212.524 176.845 210.691C177.787 211.71 178.943 212.509 180.228 213.032C181.057 213.379 181.946 213.557 182.844 213.557C188.544 213.557 191.177 206.792 191.935 204.483L193.318 200.809C194.572 202.194 196.184 203.207 197.976 203.733C199.079 204.048 200.221 204.205 201.368 204.2C207.617 204.2 213.658 199.767 214.608 199.034C215.83 198.051 216.776 196.768 217.356 195.311C217.935 193.854 218.129 192.272 217.916 190.718Z" fill="white"/>
<path d="M192.693 210.289C195.361 210.289 197.523 208.127 197.523 205.46C197.523 202.792 195.361 200.63 192.693 200.63C190.026 200.63 187.863 202.792 187.863 205.46C187.863 208.127 190.026 210.289 192.693 210.289Z" fill="white"/>
<path d="M192.707 202.62C193.08 202.62 193.448 202.694 193.792 202.837C194.136 202.979 194.447 203.189 194.71 203.453C194.973 203.716 195.181 204.03 195.322 204.374C195.464 204.718 195.536 205.087 195.534 205.46C195.534 206.022 195.367 206.571 195.055 207.038C194.742 207.506 194.298 207.869 193.778 208.084C193.258 208.298 192.687 208.354 192.136 208.243C191.585 208.132 191.08 207.861 190.682 207.463C190.286 207.064 190.017 206.557 189.908 206.006C189.8 205.454 189.858 204.883 190.076 204.364C190.293 203.845 190.658 203.403 191.127 203.093C191.595 202.782 192.145 202.618 192.707 202.62ZM192.707 203.087C192.078 203.087 191.475 203.337 191.03 203.782C190.585 204.227 190.335 204.83 190.335 205.46C190.335 206.089 190.585 206.692 191.03 207.137C191.475 207.582 192.078 207.832 192.707 207.832C193.336 207.829 193.937 207.577 194.381 207.133C194.825 206.689 195.076 206.088 195.08 205.46C195.08 204.83 194.829 204.227 194.385 203.782C193.94 203.337 193.337 203.087 192.707 203.087ZM192.794 203.898C193.026 203.886 193.259 203.915 193.482 203.985C193.624 204.039 193.745 204.139 193.826 204.267C193.913 204.407 193.955 204.569 193.949 204.735C193.953 204.833 193.937 204.932 193.904 205.025C193.871 205.117 193.819 205.203 193.752 205.275C193.598 205.433 193.394 205.533 193.174 205.558C193.293 205.623 193.401 205.705 193.494 205.803C193.622 205.944 193.736 206.097 193.838 206.259L194.207 206.836H193.494L193.051 206.185C192.904 205.963 192.744 205.816 192.744 205.754C192.691 205.701 192.629 205.659 192.56 205.631C192.463 205.614 192.363 205.614 192.264 205.631H192.142V206.86H191.564V203.898H192.794ZM193.039 204.403H192.142V205.153H192.572C192.753 205.159 192.935 205.142 193.113 205.103C193.184 205.085 193.245 205.041 193.285 204.98C193.325 204.913 193.346 204.837 193.346 204.759C193.349 204.671 193.324 204.585 193.272 204.513C193.21 204.45 193.127 204.411 193.039 204.403Z" fill="#E24C32"/>
<path d="M213.275 191.184C212.991 188.318 210.408 189.385 210.408 189.385C210.408 189.385 206.242 192.601 202.601 192.243C198.959 191.884 200.101 183.711 200.101 183.711C200.101 183.711 200.934 176.211 198.743 175.595C196.552 174.978 193.935 177.553 193.935 177.553C191.824 180.014 190.176 182.838 189.069 185.885L188.635 186.027C188.635 186.027 189.135 177.861 188.56 176.028C188.136 175.103 184.194 175.195 183.561 176.819C182.927 178.445 179.77 189.935 179.553 194.734C179.553 194.734 173.387 199.967 168.013 200.826C162.638 201.683 161.347 198.326 161.347 198.326C161.347 198.326 175.97 194.243 175.512 182.561C175.054 170.878 163.721 175.194 162.447 176.161C161.171 177.128 154.614 181.069 152.689 192.085C152.623 192.46 152.506 194.093 152.506 194.093C152.506 194.093 146.848 197.893 143.69 198.9C143.69 198.9 152.506 184.069 141.757 177.328C136.815 174.32 132.983 180.486 132.983 180.486C132.983 180.486 147.531 164.296 144.307 150.605C142.765 144.09 139.515 143.39 136.525 144.439C131.983 146.24 130.258 148.889 130.258 148.889C126.259 155.316 123.772 162.567 122.984 170.095C121.625 182.777 119.651 198.117 119.651 198.117C119.651 198.117 116.86 200.834 114.285 200.983C111.71 201.134 112.852 193.309 112.852 193.309C112.852 193.309 114.852 181.418 114.71 179.411C114.568 177.403 114.426 176.328 112.06 175.612C109.693 174.895 107.086 177.903 107.086 177.903C107.086 177.903 100.278 188.227 99.7028 189.801L99.3447 190.443L98.9862 190.018C98.9862 190.018 103.786 175.97 99.2031 175.761C94.6199 175.553 91.6034 180.761 91.6034 180.761C91.6034 180.761 86.371 189.502 86.1542 190.501L85.7961 190.068C85.7961 190.068 87.9874 179.911 87.5207 177.403C87.4864 177.079 87.384 176.767 87.2202 176.486C87.0564 176.205 86.8349 175.963 86.5703 175.773C86.3058 175.585 86.0042 175.454 85.6854 175.39C85.3667 175.326 85.0379 175.33 84.721 175.403C84.721 175.403 81.713 175.044 80.9297 176.978C80.1464 178.911 77.2718 191.735 76.9137 195.826C76.9137 195.826 69.4141 201.192 64.415 201.267C59.4154 201.342 59.9734 198.134 59.9734 198.134C59.9734 198.134 78.0966 191.926 73.1557 179.67C70.9307 176.519 68.3561 175.503 64.6979 175.603C61.04 175.703 56.4657 177.903 53.5326 184.494C52.249 187.123 51.4986 189.981 51.3245 192.902C51.3245 192.902 48.1913 193.543 46.4664 192.11C44.7418 190.676 43.8835 192.11 43.8835 192.11C43.8835 192.11 40.942 196.318 43.8835 197.459C46.3345 198.329 48.8396 199.039 51.3828 199.584C52.1948 202.669 54.0385 205.383 56.6073 207.274C61.9816 211.357 72.2972 206.683 72.2972 206.683L76.5219 204.184C76.5219 204.184 76.6635 208.008 79.7467 208.574C82.8296 209.142 84.1212 208.533 89.4955 195.493C92.6451 188.827 92.8286 189.176 92.8286 189.176L93.1867 189.093C93.1867 189.093 90.7455 201.842 91.6786 205.283C92.6121 208.724 96.6781 208.366 96.6781 208.366C96.6781 208.366 98.9029 208.958 100.694 202.659C102.105 198.157 103.883 193.779 106.01 189.569H106.436C106.436 189.569 104.936 202.442 107.269 206.599C109.602 210.757 115.485 207.899 115.485 207.899C117.141 207.074 118.744 206.144 120.284 205.116C123.676 207.713 127.923 208.932 132.175 208.533C147.732 205.475 153.256 201.325 153.256 201.325C154.236 203.435 155.771 205.237 157.697 206.542C159.623 207.847 161.866 208.604 164.188 208.733C166.862 208.993 169.559 208.659 172.088 207.753C174.616 206.847 176.913 205.391 178.811 203.492C178.811 203.492 178.736 207.358 182.036 208.724C185.336 210.091 187.553 202.775 187.553 202.775L193.069 187.902H193.568C193.568 187.902 193.86 197.45 199.301 199.025C204.742 200.601 211.8 195.168 211.8 195.168C211.8 195.168 213.566 194.051 213.275 191.184ZM59.1234 192.593C59.3402 184.069 64.9566 180.345 66.8647 182.21C68.7728 184.077 68.081 188.085 64.4313 190.593C60.7819 193.102 59.1404 192.593 59.1404 192.593H59.1237H59.1234ZM131.874 159.572C131.874 159.572 136.966 146.315 138.182 152.763C139.399 159.213 127.5 178.42 127.5 178.42C127.65 174.112 131.874 159.572 131.874 159.572ZM137.983 196.468C134.649 205.283 126.442 201.7 126.442 201.7C126.442 201.7 125.517 198.542 128.167 189.726C130.816 180.911 137.049 184.36 137.049 184.36C137.049 184.36 141.316 187.651 137.983 196.468ZM160.555 192.593C160.555 192.593 159.763 189.801 162.705 184.427C165.646 179.053 167.938 181.994 167.938 181.994C167.938 181.994 170.437 184.719 167.579 188.802C166.811 189.967 165.765 190.923 164.537 191.585C163.308 192.247 161.934 192.593 160.538 192.593H160.555Z" fill="#E24C32"/>
</g>
<defs>
<clipPath id="clip0_196_31">
<rect width="256" height="256" fill="white"/>
</clipPath>
</defs>
</svg>
