<svg width="256" height="256" viewBox="0 0 256 256" fill="none" xmlns="http://www.w3.org/2000/svg">
<path d="M196 0H60C26.8629 0 0 26.8629 0 60V196C0 229.137 26.8629 256 60 256H196C229.137 256 256 229.137 256 196V60C256 26.8629 229.137 0 196 0Z" fill="#E04E39"/>
<path d="M73.2002 179.754L73.6999 178.587L73.7649 178.42C74.1619 177.473 74.5446 176.519 74.9129 175.559C75.4035 174.291 75.8385 173.014 76.3294 171.773C76.598 171.051 76.8571 170.329 77.1257 169.615C77.7551 167.903 78.616 165.617 79.6622 163.412C80.2826 162.126 80.7917 161.163 81.3197 160.274C81.8474 159.385 82.5418 158.348 83.1713 157.432L83.7454 156.654L84.5507 156.145C84.67 156.064 84.7933 155.99 84.9214 155.923C85.2913 155.715 85.6747 155.532 86.069 155.377C86.6338 155.145 87.3006 154.913 88.0874 154.672C89.1892 154.348 90.4022 154.043 91.9111 153.747C94.0592 153.274 96.4384 152.821 99.4012 152.377C103.836 151.673 108.567 151.053 114.297 150.423C124.398 149.331 134.444 148.571 144.156 148.053C149.294 147.812 153.229 147.701 156.914 147.701H159.237C161.854 147.71 164.466 147.88 167.061 148.21C167.882 148.325 168.691 148.514 169.477 148.775C169.718 148.858 169.921 148.951 170.051 149.007L170.811 149.349L171.412 149.914C171.662 150.145 171.913 150.376 172.152 150.627C173.111 151.587 174.011 152.604 174.847 153.673C178.026 157.818 180.705 162.324 182.828 167.098C184.88 171.455 186.403 176.042 187.364 180.763L188.512 186.79H174.273L173.422 182.772C172.495 178.402 160.719 166.894 154.858 164.626C154.266 164.403 151.738 163.699 144.036 163.699C128.158 163.699 105.623 166.523 102.373 167.199C98.577 168.967 92.6888 176.532 89.3465 183.975L87.9762 187.04" fill="white"/>
<path d="M170.829 156.886C170.112 155.969 169.343 155.093 168.524 154.265L167.941 153.71L167.793 153.655C167.322 153.504 166.839 153.395 166.348 153.33C163.981 153.03 161.597 152.879 159.21 152.877C154.322 152.812 149.388 152.969 144.462 153.201C134.602 153.682 124.733 154.478 114.909 155.552C110.002 156.089 105.105 156.701 100.253 157.469C97.8371 157.849 95.4208 158.265 93.0598 158.783C91.8838 159.034 90.7173 159.311 89.6158 159.644C89.0952 159.796 88.5822 159.971 88.079 160.172C87.8758 160.253 87.6778 160.345 87.4862 160.45L87.3936 160.506C86.8176 161.287 86.2771 162.093 85.7735 162.922C85.2644 163.755 84.792 164.7 84.3479 165.635C83.4684 167.486 82.7089 169.449 81.9775 171.431C81.2462 173.412 80.5333 175.421 79.7465 177.421C79.3667 178.421 78.9688 179.115 78.552 180.115C78.3575 180.587 78.1541 181.226 77.9502 181.226H84.607C88.2083 172.893 94.9669 164.302 100.643 161.987C102.207 161.348 127.362 158.367 143.99 158.367C150.156 158.367 154.424 158.59 156.683 159.469C163.497 162.098 177.051 174.745 178.449 181.226H182.31C181.477 176.965 180.083 172.833 178.162 168.94C176.212 164.642 173.75 160.595 170.83 156.886H170.829Z" fill="#BA8449"/>
<path d="M167.888 153.667L167.877 153.656L167.866 153.645L167.898 153.677L167.888 153.667Z" fill="white"/>
<path d="M167.888 153.667L167.877 153.656L167.866 153.645L167.898 153.677L167.888 153.667Z" fill="#BA8449"/>
<path d="M177.977 186.781L177.181 182.67C176.375 178.746 175.104 174.933 173.394 171.31C171.617 167.309 169.376 163.53 166.719 160.051C166.228 159.441 165.793 158.904 165.293 158.404C163.227 158.173 161.15 158.055 159.071 158.052H156.96C153.443 158.052 149.656 158.154 144.702 158.386C135.194 158.857 125.362 159.635 115.474 160.709C109.919 161.329 105.336 161.922 101.059 162.561C98.2812 162.996 96.1055 163.394 94.1613 163.819C93.1314 164.038 92.1093 164.291 91.0967 164.579L90.7725 164.681C90.5873 164.977 90.4023 165.264 90.2173 165.607C89.8655 166.208 89.4861 166.912 89.0137 167.893C88.1713 169.671 87.4489 171.597 86.8471 173.227C86.5786 173.948 86.3194 174.643 86.0694 175.346C85.5974 176.643 85.1438 177.976 84.5787 179.328C84.1807 180.346 83.7639 181.402 83.329 182.419L83.2734 182.568C83.088 183.013 82.894 183.346 82.6995 183.799L81.3477 186.781H72.219L70.9136 186.253H70.7748C69.7481 185.765 68.902 184.966 68.3581 183.967C67.8142 182.969 67.6004 181.825 67.7473 180.697V180.466L67.9137 179.763L68.1361 178.911C68.2917 178.335 68.4553 177.761 68.6268 177.189C68.9604 176.032 69.3117 174.93 69.6821 173.856C70.3765 171.791 71.2193 169.643 72.2466 167.31C73.2743 164.977 74.3856 162.802 75.4871 160.829C76.0965 159.735 76.745 158.664 77.4313 157.617C78.1813 156.469 78.9129 155.422 79.7181 154.404C80.2252 153.754 80.8203 153.177 81.4865 152.691C81.8646 152.421 82.2572 152.17 82.6625 151.942C83.2022 151.65 83.7587 151.39 84.329 151.164C85.1349 150.841 85.9568 150.56 86.7915 150.322C88.3654 149.858 89.8375 149.534 90.9579 149.293C93.2357 148.822 95.587 148.368 98.7071 147.932C103.216 147.247 107.966 146.655 113.826 146.081C124.01 145.035 134.195 144.294 143.971 143.877C148.665 143.683 152.303 143.599 155.701 143.599H159.303C162.143 143.613 164.978 143.811 167.792 144.192H167.885C168.912 144.348 169.922 144.595 170.903 144.933H170.968C171.42 145.095 171.86 145.289 172.283 145.516C172.603 145.692 172.912 145.887 173.209 146.099L173.588 146.377L173.885 146.618L174.19 146.896C174.487 147.173 174.783 147.451 175.061 147.738C176.124 148.823 177.125 149.966 178.06 151.164C181.414 155.59 184.233 160.398 186.458 165.486C187.584 167.995 188.57 170.562 189.411 173.18C190.237 175.691 190.875 178.259 191.318 180.865L192.29 186.762L177.977 186.781Z" fill="white"/>
<path d="M78.1904 186.781L81.6901 179.512C84.597 173.319 91.5779 162.061 99.2806 158.904H99.4289C102.031 157.932 128.13 154.923 144.007 154.923C152.942 154.923 156.275 155.849 158.006 156.488C166.061 159.589 180.041 172.727 181.93 180.513L183.485 186.809L78.1904 186.781Z" fill="white"/>
<path d="M172.801 186.781L171.875 182.939C170.949 179.282 159.977 168.274 154.284 166.079C153.756 165.875 151.506 165.246 144.017 165.246C128.666 165.246 106.548 167.968 102.928 168.671C99.9471 170.153 94.5956 176.384 91.0684 183.911L89.6425 186.781H76.5977L79.8843 179.587C83.7266 171.014 91.2534 160.469 98.6784 157.432C101.539 156.256 127.981 153.303 143.989 153.303C150.97 153.303 155.599 153.849 158.552 154.988C166.579 158.089 181.652 171.653 183.55 180.652L184.837 186.781H172.801Z" fill="white"/>
<path d="M178.764 186.781L177.273 185.513C171.634 180.272 170.088 169.496 171.847 165.023C172.817 162.082 175.928 160.422 178.911 161.255C179.902 161.191 182.281 159.265 182.985 158.108C183.538 157.079 184.367 156.227 185.38 155.648C186.394 155.068 187.55 154.785 188.716 154.83C192.558 154.83 198.771 157.877 200.808 160.756C201.369 161.512 201.738 162.394 201.883 163.324C202.028 164.254 201.944 165.207 201.64 166.098C201.585 166.246 201.492 166.551 201.344 166.968C199.233 173.31 196.512 180.929 194.28 184.475L192.789 186.781H178.764Z" fill="white"/>
<path d="M178.292 186.781L183.125 179.004C185.005 176.01 186.687 172.895 188.161 169.681C185.431 171.588 181.588 172.865 175.922 173.116L175.764 173.004L175.662 173.532C174.441 173.514 173.25 173.145 172.233 172.467C171.215 171.79 170.415 170.835 169.926 169.714C169.439 168.594 169.283 167.357 169.479 166.151C169.676 164.945 170.215 163.82 171.033 162.913C171.582 162.304 172.246 161.811 172.986 161.462C173.727 161.112 174.529 160.913 175.348 160.876C180.903 160.626 181.625 159.311 182.671 157.33C184.088 154.673 187.152 153.136 191.087 153.136C192.08 153.131 193.07 153.237 194.04 153.451C198.755 154.32 202.225 158.361 202.373 163.154C202.595 168.098 199.91 175.19 194.392 184.373L192.883 186.781H178.292Z" fill="white"/>
<path d="M198.881 171.634C192.558 171.634 185.679 167.514 182.152 163.45C178.938 159.746 178.623 156.488 178.92 154.395C179.366 151.292 182.114 149.048 185.243 149.229C185.92 149.238 186.594 149.301 187.262 149.414C187.882 146.636 189.363 140.776 195.354 140.776C195.625 140.762 195.897 140.762 196.168 140.776C197.534 140.895 198.833 141.423 199.893 142.292C200.954 143.161 201.727 144.33 202.112 145.646C203.125 145.11 204.253 144.83 205.398 144.831C206.337 144.837 207.265 145.038 208.122 145.421C208.979 145.803 209.748 146.359 210.38 147.053C211.413 148.149 212.089 149.533 212.315 151.022C212.541 152.51 212.309 154.033 211.648 155.386C213.087 156.276 214.141 157.674 214.602 159.302C214.922 160.4 214.982 161.558 214.777 162.683C214.571 163.808 214.105 164.869 213.417 165.782C210.639 169.569 204.371 171.421 199.335 171.587L198.881 171.634ZM192.586 42.9711C186.864 46.5543 180.614 54.7756 173.004 66.0244C172.413 66.8976 171.613 67.6091 170.677 68.0942C169.74 68.5793 168.698 68.8226 167.643 68.8019C164.82 68.8019 161.274 67.1077 157.126 63.7655C150.543 58.4696 150.405 55.433 150.349 54.3497C150.19 51.1816 152.591 48.4668 155.756 48.2394C162.079 47.6467 167.319 43.86 172.421 40.2031C177.522 36.5461 182.216 33.1389 187.827 33.1389C188.948 33.1365 190.065 33.2796 191.15 33.5648" fill="white"/>
<path d="M156.275 53.396C171.57 51.9703 180.512 36.1201 189.836 38.5825C183.615 42.471 177.392 50.2848 168.718 63.1174C166.672 66.1264 152.108 53.7848 156.275 53.3963V53.396Z" fill="#FFF8EF"/>
<path d="M57.1084 46.0542C60.9227 42.5266 66.0892 40.7399 72.4495 40.7399C77.9304 40.7399 84.4019 42.0825 91.6884 44.7303C93.791 45.3467 95.9795 45.6186 98.169 45.5357H101.002C102.854 45.5357 106.659 45.5357 108.233 49.0818C108.737 50.2697 108.921 51.5687 108.769 52.85C108.616 54.1313 108.132 55.3506 107.363 56.3869C104.835 60.3494 98.0117 64.5707 91.4846 64.5707H91.1698C87.6609 64.5707 84.3557 62.7192 80.5228 60.5435C75.7456 57.8772 70.3385 54.8591 63.9782 54.8591C63.0895 54.8584 62.2018 54.917 61.321 55.0347L57.1084 46.0542ZM174.902 84.0132C172.069 84.0132 166.81 82.8373 163.375 74.903C161.809 71.2049 160.958 67.2434 160.867 63.2283C160.867 57.6734 163.764 56.2477 165.496 55.8218C166.745 54.5535 169.087 51.3872 170.857 48.9985C178.031 39.3421 183.16 33 189.132 33C190.12 32.9977 191.101 33.1831 192.02 33.5462C200.094 36.7776 203.964 43.5453 202.639 52.1183C201.714 58.451 197.742 66.0058 191.854 72.8015C189.076 75.9958 181.984 83.495 175.717 83.967L174.902 84.0132Z" fill="white"/>
<path d="M82.6154 86.791C81.9377 86.8465 81.2566 86.8465 80.5789 86.791C70.5798 85.1615 58.0995 75.1068 53.3868 64.719C50.1653 57.6177 51.6094 52.7851 53.3868 49.9521C54.6575 47.7808 56.4834 45.9871 58.6769 44.7554C60.8703 43.5236 63.3523 42.8982 65.8675 42.9435C72.2369 42.9435 78.6529 46.4524 84.3099 49.5443C86.4577 50.6832 89.6149 52.4424 90.9479 52.7666C91.4385 52.6223 91.9462 52.5445 92.4574 52.5351C93.4785 52.5556 94.4761 52.8454 95.3491 53.3755C96.2221 53.9054 96.9395 54.6567 97.4288 55.5532C100.021 60.062 98.4566 72.1535 94.3828 79.2173C91.5497 84.1894 87.3466 86.7907 82.6154 86.7907V86.791Z" fill="white"/>
<path d="M117.409 173.818C93.9575 173.818 70.7934 162.431 63.0903 154.117C55.0449 145.433 52.1101 135.656 54.3599 124.926C56.2115 116.112 61.1276 108.205 65.4699 101.197C68.4604 96.3821 71.284 91.8363 72.0246 88.5682C81.5516 46.4893 105.456 41.1008 125.204 41.1008C126.464 41.1008 127.787 41.1008 129.241 41.1655C171.311 42.4345 175.532 62.756 178.023 74.9031C178.36 76.8688 178.855 78.8039 179.504 80.6896C193.623 115.381 195.947 136.165 187.3 150.211C178.801 164.014 160.145 170.736 122.936 173.736C121.085 173.875 119.233 173.819 117.381 173.819H117.409V173.818Z" fill="white"/>
<path d="M116.539 174.162C92.6616 174.162 70.5339 162.274 63.0903 154.247C55.0449 145.562 52.1101 135.731 54.3599 124.991C56.2115 116.177 61.1276 108.242 65.4699 101.234C68.4604 96.4105 71.284 91.8552 72.0246 88.5871C81.5516 46.5079 105.456 41.1106 125.204 41.1106C126.464 41.1106 127.787 41.1106 129.241 41.1753C171.311 42.4345 175.532 62.7564 178.023 74.9032C178.36 76.8688 178.856 78.8039 179.504 80.6896C193.392 114.834 195.688 135.407 187.151 149.479C177.366 165.617 154.424 170.894 123.001 173.856C120.908 174.06 118.724 174.162 116.538 174.162H116.539Z" fill="white"/>
<path d="M177.347 144.803C177.648 144.062 177.955 143.325 178.272 142.591C181.504 134.906 183.828 128.203 180.031 123.954C175.513 118.945 156.312 109.936 139.369 101.91C106.817 86.5594 86.7168 76.653 83.8191 66.7281C83.445 65.5208 83.334 64.2474 83.4938 62.9936C83.6535 61.7399 84.0802 60.5349 84.745 59.46C90.3 50.6555 106.039 41.1841 127.491 41.1841H128.139C148.331 41.36 163.052 47.1835 171.884 58.4788C179.346 68.024 181.041 79.1525 182.272 87.272C182.698 90.0495 183.198 93.4939 183.762 94.4379C199.076 120.76 192.095 140.164 186.54 149.386L177.347 144.803Z" fill="white"/>
<path d="M161.358 114.566C153.46 114.566 140.286 112.603 135.712 108.233C132.13 104.807 130.749 99.1508 129.426 93.6234C128.851 90.9764 128.058 88.3815 127.056 85.8651H126.981C126.649 86.7907 126.269 87.7167 125.954 88.6426C123.816 94.605 120.899 102.762 114.687 107.159C112.011 109.076 102.456 110.862 95.0313 110.862C87.6244 110.862 82.0047 109.252 78.2736 106.094C72.8945 101.549 68.7932 93.1975 66.0895 81.2913L65.7192 81.0508C64.1439 80.1898 62.8392 78.9077 61.951 77.3477C60.5439 74.5237 61.1181 69.5058 62.5808 66.8947C63.0701 65.9603 63.7839 65.1622 64.6583 64.5723C65.5327 63.9824 66.54 63.6193 67.5896 63.5154H68.2467C69.4101 63.5559 70.5682 63.692 71.7095 63.9231C73.01 64.1821 74.3286 64.3398 75.6535 64.3949C75.8877 64.4107 76.1229 64.4107 76.3571 64.3949C83.2124 63.3474 90.1333 62.7875 97.0678 62.7192C112.464 62.7192 120.547 65.8765 123.584 67.0615L124.194 67.293C125.571 67.6325 126.981 67.8096 128.398 67.8207C129.018 67.8233 129.637 67.78 130.25 67.6909C136.766 66.6712 143.348 66.139 149.942 66.0985C166.191 66.0985 174.81 69.8016 178.495 71.3944L179.31 71.7367H179.625C180.893 71.6543 182.151 71.4559 183.383 71.1444C184.356 70.9314 185.281 70.7366 186.16 70.6352C186.404 70.6059 186.648 70.5904 186.892 70.5888C188.131 70.6106 189.339 70.9741 190.385 71.6389C191.431 72.3038 192.272 73.2442 192.817 74.3568C194.298 77.0697 195.299 82.8005 193.215 86.0781C191.826 88.2629 189.512 89.3 187.661 90.1333L186.873 90.4941C186.253 91.5589 185.143 93.7626 184.216 95.5862C181.504 100.947 178.439 107.011 175.616 110.279C173.152 113.159 168.486 114.566 161.358 114.566V114.566Z" fill="white"/>
<g style="mix-blend-mode:multiply" opacity="0.3">
<g style="mix-blend-mode:multiply">
<path d="M158.21 113.251C151.951 113.251 143.165 112.325 136.833 107.853C133.203 105.308 131.574 100.104 129.315 91.846C128.69 89.373 127.936 86.9347 127.056 84.5409C126.657 85.4669 126.204 86.7261 125.824 87.7353C123.472 94.0308 120.269 102.66 114.418 106.252C111.409 108.104 101.966 109.817 94.6145 109.817C86.745 109.817 81.0697 108.057 77.7551 104.594C69.4226 95.8548 67.7375 87.5037 66.7563 82.5229C66.6175 81.81 66.4416 80.9119 66.2842 80.3007C61.3772 77.7271 61.053 73.8849 61.1548 72.2833C61.2875 69.3383 63.6974 67.0097 66.6451 66.978C68.1451 67.0357 69.5854 67.5819 70.7465 68.5334L71.0335 68.7278L71.4504 68.8575C72.9104 69.1881 74.2361 69.9534 75.2526 71.0525C76.269 72.1515 76.9286 73.5329 77.1442 75.0143C78.0324 78.7932 79.1832 82.5056 80.5881 86.1243C83.8286 94.4571 86.0875 95.8918 86.282 96.0031C89.2724 96.9632 92.4001 97.426 95.5404 97.3731C99.7875 97.3792 104.012 96.7552 108.076 95.5216C109.233 93.67 111.585 89.0406 113.214 85.8186C118.167 76.0329 119.01 74.5513 121.065 73.4775C122.412 72.818 123.9 72.5 125.399 72.5515C127.887 72.5767 130.354 73.0083 132.703 73.8292C136.314 75.357 138.258 80.0787 142.369 92.1793C143.109 94.355 144.081 97.1881 144.665 98.6603C147.776 100.16 154.849 101.197 162.34 101.197C164.45 101.197 165.987 101.114 166.968 101.021C167.672 99.5673 168.672 97.4473 169.533 95.6233C175.523 82.9118 176.421 81.4673 177.986 80.2731C180.849 78.3216 184.191 77.1883 187.651 76.9956C188.989 76.9212 190.308 77.3328 191.366 78.1545C192.425 78.9763 193.15 80.1528 193.41 81.4673C194.244 86.0316 189.827 87.7167 188.382 88.2724C188.031 88.4017 187.457 88.6241 187.069 88.8C186.532 89.726 185.531 91.7349 184.689 93.429C178.31 105.937 176.162 109.353 173.745 110.798C170.875 112.464 163.672 113.251 158.21 113.251Z" fill="white"/>
</g>
</g>
<g style="mix-blend-mode:multiply" opacity="0.3">
<g style="mix-blend-mode:multiply">
<path d="M75.9403 76.2734C73.7674 76.1737 71.6252 75.7203 69.5982 74.931C68.617 74.6069 67.8485 74.3013 67.3204 74.0977C66.1727 73.6533 63.1729 72.4868 63.1729 68.9039V63.6451H68.2558C68.7818 63.6556 69.303 63.7463 69.8021 63.9137C70.885 64.0711 74.4311 64.3396 75.6071 64.4225L76.2921 64.4785C77.2177 64.4785 80.1064 64.0896 81.347 63.9042C82.2156 63.7512 83.0945 63.6645 83.9763 63.6448H88.4578L89.1518 68.0521C89.3338 69.3074 89.0526 70.5859 88.3608 71.649C87.6692 72.7121 86.6141 73.487 85.3928 73.8292L84.2357 74.2275C81.7356 75.2825 79.0986 75.9775 76.4033 76.2919L75.9403 76.2734ZM179.105 83.7912C176.897 83.6425 174.784 82.8256 173.051 81.4487C170.801 79.8751 168.718 78.3564 168.718 75.607V70.4313H174.152C174.927 70.4321 175.695 70.583 176.411 70.8762C176.995 71.1255 179.19 71.8018 180.115 72.0238C180.429 71.9776 181.115 71.709 182.355 71.4499C182.882 71.261 183.429 71.1336 183.985 71.0702H188.392L189.104 75.5885C189.31 76.8204 189.069 78.0853 188.427 79.156C187.783 80.2267 186.78 81.033 185.596 81.4302C185.41 81.5043 184.938 81.7823 184.67 81.9396C183.229 82.772 181.667 83.3748 180.041 83.7265C179.731 83.7736 179.419 83.7956 179.105 83.7912Z" fill="white"/>
</g>
</g>
<path d="M142.795 181.226H161.311V197.891H142.795V181.226Z" fill="white"/>
<path d="M170.829 156.886C170.112 155.969 169.343 155.093 168.524 154.265L167.941 153.71L167.793 153.655C167.322 153.504 166.839 153.395 166.348 153.33C163.981 153.03 161.597 152.879 159.21 152.877C154.322 152.812 149.388 152.969 144.462 153.201C134.602 153.682 124.733 154.478 114.909 155.552C110.002 156.089 105.105 156.701 100.253 157.469C97.8371 157.849 95.4208 158.265 93.0598 158.783C91.8838 159.034 90.7173 159.311 89.6158 159.644C89.0952 159.796 88.5822 159.971 88.079 160.172C87.8758 160.253 87.6778 160.345 87.4862 160.45L87.3936 160.506C86.8176 161.287 86.2771 162.093 85.7735 162.922C85.2644 163.755 84.792 164.7 84.3479 165.635C83.4684 167.486 82.7089 169.449 81.9775 171.431C81.2462 173.412 80.5333 175.421 79.7465 177.421C79.3667 178.421 78.9688 179.115 78.552 180.115C78.3575 180.587 78.1541 181.226 77.9502 181.226H84.607C88.2083 172.893 94.9669 164.302 100.643 161.987C102.207 161.348 127.362 158.367 143.99 158.367C150.156 158.367 154.424 158.59 156.683 159.469C163.497 162.098 177.051 174.745 178.449 181.226H182.31C181.477 176.965 180.083 172.833 178.162 168.94C176.212 164.642 173.75 160.595 170.83 156.886H170.829ZM167.888 153.667L167.878 153.656L167.867 153.645L167.899 153.678L167.888 153.667Z" fill="#BA8449"/>
<path d="M181.736 167.635C179.685 162.925 177.084 158.475 173.987 154.377C173.178 153.334 172.31 152.338 171.385 151.396L170.654 150.691L170.515 150.563L170.413 150.479L170.265 150.368C170.13 150.274 169.992 150.188 169.848 150.109C169.625 149.999 169.396 149.9 169.163 149.813C168.456 149.573 167.727 149.399 166.987 149.293C164.435 148.946 161.861 148.764 159.285 148.748C154.248 148.645 149.258 148.748 144.267 148.979C134.308 149.404 124.362 150.13 114.447 151.155C109.484 151.673 104.531 152.257 99.5683 153.007C97.087 153.386 94.6151 153.803 92.1618 154.321C90.9118 154.589 89.662 154.877 88.3751 155.247C87.7078 155.439 87.0497 155.661 86.403 155.914C86.029 156.065 85.6643 156.238 85.3105 156.432C85.0891 156.551 84.8757 156.684 84.6717 156.83C84.3738 157.05 84.1061 157.309 83.8755 157.598C83.1603 158.489 82.4927 159.416 81.8757 160.376C81.2462 161.302 80.6444 162.32 80.0983 163.311C78.9132 165.376 77.9872 167.385 77.0613 169.412C76.1357 171.439 75.358 173.477 74.6542 175.55C74.3047 176.583 73.9775 177.624 73.673 178.67C73.5162 179.193 73.368 179.717 73.2285 180.245L73.0156 181.031L72.9229 181.43C72.9229 181.494 73.0526 181.3 73.3767 181.485L73.4599 181.225H77.9872C78.1911 181.225 78.3947 180.587 78.589 180.115C79.0055 179.115 79.4038 178.263 79.7835 177.272C80.5703 175.273 81.2739 173.338 82.0145 171.356C82.7555 169.375 83.5052 167.459 84.3847 165.598C84.8294 164.671 85.3105 163.746 85.8106 162.904C86.3106 162.062 86.8474 161.284 87.4306 160.496L87.5234 160.451C87.715 160.345 87.9129 160.253 88.116 160.172C88.6177 159.967 89.1307 159.791 89.6526 159.644C90.7543 159.311 91.9209 159.034 93.0968 158.783C95.4578 158.265 97.8742 157.858 100.291 157.468C105.142 156.701 110.04 156.089 114.946 155.552C124.77 154.478 134.639 153.7 144.499 153.201C149.424 152.969 154.359 152.813 159.247 152.877C161.634 152.879 164.018 153.031 166.386 153.331C166.876 153.395 167.359 153.504 167.83 153.655L167.979 153.71L168.561 154.265C169.379 155.093 170.149 155.968 170.867 156.886C173.786 160.588 176.248 164.629 178.2 168.922C180.109 172.822 181.492 176.961 182.31 181.226H186.198C185.809 179.374 185.208 176.763 184.476 174.476C183.695 172.146 182.779 169.861 181.736 167.635Z" fill="#895C2F"/>
<path d="M156.126 160.997C154.043 160.191 149.96 159.941 143.989 159.941C127.259 159.941 102.576 162.876 101.224 163.385C96.1505 165.487 89.8364 173.819 86.3184 181.226H176.846C175.457 175.671 162.866 163.635 156.126 160.997Z" fill="#FFF8EF"/>
<path d="M156.682 159.543C154.423 158.617 150.154 158.367 143.989 158.367C127.324 158.367 102.206 161.264 100.641 161.904C94.9657 164.227 88.1704 172.894 84.6055 181.226H86.3185C89.8089 173.819 96.1231 165.533 101.197 163.459C102.548 162.95 127.231 159.941 143.961 159.941C149.932 159.941 154.015 160.117 156.098 160.922C162.838 163.524 175.43 175.67 176.846 181.226H178.42C177.05 174.745 163.496 162.173 156.682 159.543Z" fill="#E5D1AE"/>
<path d="M187.596 160.487C186.671 162.386 181.727 167.162 177.569 165.977C175.394 165.357 175.792 176.596 180.8 181.226H189.893C192.391 177.523 196.308 165.339 196.753 164.08C197.271 162.607 188.54 158.589 187.596 160.487Z" fill="#BA8449"/>
<path d="M197.224 163.079C197.113 160.571 195.549 158.941 192.928 158.348C190.818 157.876 187.984 158.348 187.281 159.672C185.892 162.302 184.161 165.607 175.606 165.977C175.33 165.994 175.07 166.119 174.885 166.325C174.699 166.531 174.603 166.802 174.615 167.079C174.628 167.353 174.747 167.612 174.947 167.799C175.149 167.986 175.415 168.087 175.689 168.079C184.623 167.69 187.216 164.274 189.077 160.774C190.424 160.238 191.925 160.238 193.271 160.774C193.803 160.909 194.276 161.218 194.612 161.653C194.947 162.088 195.127 162.623 195.123 163.172C195.345 168.032 190.29 176.597 187.512 181.226H190.012C193.104 175.671 197.418 168.079 197.224 163.079Z" fill="#895C2F"/>
<g style="mix-blend-mode:multiply" opacity="0.15">
<g style="mix-blend-mode:multiply">
<path d="M179.642 182.087C185.198 180.791 190.095 175.264 190.53 167.273C190.613 165.801 187.595 162.959 187.595 162.182C187.595 161.404 196.927 162.348 197.354 164.514C197.78 166.681 191.567 179.893 189.494 182.05C187.419 184.207 176.411 182.846 179.642 182.087Z" fill="#C7893E"/>
</g>
</g>
<path d="M184.05 155.136C183.356 159.931 192.79 166.653 199.169 166.412C204.529 166.237 210.492 163.737 209.621 160.801C208.751 157.867 203.575 161.321 203.14 159.247C202.705 157.172 209.196 153.368 206.603 150.599C204.205 148.053 201.418 154.663 198.567 153.71C195.715 152.756 199.123 146.303 195.632 145.933C191.484 145.508 193.04 154.747 189.929 154.923C187.679 155.08 184.272 153.553 184.05 155.136Z" fill="#F8B1AB" stroke="#F38089" stroke-width="0.531213"/>
<g style="mix-blend-mode:multiply" opacity="0.5">
<g style="mix-blend-mode:multiply">
<path d="M186.698 155.108C187.726 155.867 191.327 156.904 191.956 155.561C192.586 154.219 193.077 151.608 192.651 151.22C192.364 152.451 191.965 154.793 190.595 155.312C189.55 155.719 187.42 155.228 186.698 155.108ZM196.817 149.924C196.632 150.785 195.975 154.83 198.03 155.395C199.882 155.885 201.16 154.783 202.558 152.478C201.808 153.21 199.863 154.885 198.308 154.229C196.753 153.571 196.697 151.997 196.817 149.924Z" fill="#F8B1AB"/>
</g>
</g>
<g style="mix-blend-mode:multiply" opacity="0.25">
<g style="mix-blend-mode:multiply">
<path d="M187.697 160.858C198.325 155.673 200.492 164.117 199.974 165.848C195.826 166.579 188.345 162.237 187.697 160.858Z" fill="#F8B1AB"/>
</g>
</g>
<g style="mix-blend-mode:multiply" opacity="0.5">
<g style="mix-blend-mode:multiply">
<path d="M203.187 157.515C201.335 159.561 202.26 161.219 203.427 161.394C204.955 161.681 206.816 160.181 206.575 160.163C206.159 160.163 203.289 161.144 202.733 159.71C202.317 158.626 202.974 158.006 203.187 157.515Z" fill="#F8B1AB"/>
</g>
</g>
<g style="mix-blend-mode:multiply" opacity="0.15">
<g style="mix-blend-mode:multiply">
<path d="M81.931 171.116C116.011 190.688 183.772 170.829 180.162 164.376C175.412 155.914 173.514 150.488 163.08 151.053C152.646 151.618 85.8376 156.886 83.1157 158.96C80.3938 161.033 77.4684 168.551 81.9307 171.116H81.931Z" fill="#C7893E"/>
</g>
</g>
<path d="M156.275 53.396C171.57 51.9703 180.512 36.1201 189.836 38.5825C183.615 42.471 177.392 50.2848 168.718 63.1174C166.672 66.1264 152.108 53.7848 156.275 53.3963V53.396Z" fill="#FFF8EF" stroke="#E5D1AE" stroke-width="0.797008" stroke-linecap="round" stroke-linejoin="round"/>
<path d="M60.6279 49.8965C67.5438 43.5082 79.8948 45.9985 89.9212 49.637C95.6245 51.7109 103.012 50.0262 103.531 51.1927C104.753 53.9702 97.3742 59.5252 91.2824 59.4231C85.1904 59.3213 75.1452 47.9523 60.6279 49.8965Z" fill="#BA8449" stroke="#895C2F" stroke-width="0.531213" stroke-linecap="round" stroke-linejoin="round"/>
<path d="M166.773 60.9137C170.273 61.9509 183.614 35.7684 190.095 38.3606C210.713 46.6098 183.874 78.1714 175.282 78.8009C166.69 79.4306 164.765 60.3214 166.774 60.9137H166.773ZM92.2534 57.803C86.5502 60.2658 66.3298 39.1382 57.7752 52.748C52.1464 61.71 69.1817 79.8376 81.3655 81.7822C93.5497 83.7264 95.2624 56.5068 92.2534 57.803Z" fill="#F8B1AB" stroke="#F38089" stroke-width="0.531213"/>
<g style="mix-blend-mode:multiply">
<g style="mix-blend-mode:multiply">
<path d="M182.671 43.4155C181.542 46.9986 172.348 56.2938 173.644 64.2839C174.116 67.2187 177.265 75.9862 178.607 75.6439C179.95 75.3013 183.319 73.2273 183.013 73.6997C181.054 75.421 178.927 76.9408 176.662 78.2361C175.07 77.3752 168.061 61.247 169.061 60.349C172.043 57.6736 181.375 43.5914 182.671 43.4155ZM58.0824 53.2662C64.3038 49.4614 75.6729 51.0629 82.3203 57.5439C84.6723 59.849 85.3387 67.7279 80.0244 73.0514C77.9228 75.181 92.5509 65.4969 92.597 62.7191C92.6435 59.9416 91.6714 59.1178 89.4863 58.3121C81.4594 55.3126 73.0161 48.517 65.6833 48.6652C64.1207 48.6825 62.5912 49.1185 61.2544 49.9277C59.9175 50.7369 58.822 51.8898 58.082 53.2662H58.0824Z" fill="#F8B1AB"/>
</g>
</g>
<g style="mix-blend-mode:multiply" opacity="0.25">
<g style="mix-blend-mode:multiply">
<path d="M185.17 41.4253C199.363 49.2673 176.495 61.1269 178.17 75.9033C175.199 75.5791 167.866 61.2843 169.69 60.0251C172.217 58.2568 182.79 40.7494 185.17 41.4253Z" fill="#F8B1AB"/>
</g>
</g>
<path d="M78.6252 90.1149L78.5511 90.3925C78.5511 90.5779 78.4399 90.8555 78.301 91.3185C77.9503 92.4653 77.5172 93.5854 77.0051 94.6697C75.0691 98.5264 72.905 102.264 70.5242 105.863C69.0615 108.159 67.5058 110.752 65.9504 113.64C64.2796 116.69 62.903 119.893 61.8396 123.204C60.6555 126.867 60.2519 130.736 60.6549 134.564C61.1998 138.767 62.8232 142.756 65.3672 146.146C66.0245 147.072 66.7284 147.933 67.4967 148.794C68.2402 149.651 69.0447 150.452 69.9039 151.192C71.7403 152.721 73.7007 154.097 75.7644 155.303C80.1718 157.935 84.8224 160.136 89.6519 161.876C94.7588 163.751 100.027 165.151 105.391 166.061C110.954 167.04 116.613 167.35 122.25 166.986C133.916 166.061 146.044 164.894 157.83 161.756C163.691 160.182 169.514 158.154 174.68 154.877C177.272 153.232 179.576 151.174 181.503 148.784C181.986 148.183 182.429 147.535 182.948 146.933C183.489 146.359 183.937 145.703 184.272 144.989C184.939 143.566 185.481 142.089 185.892 140.573C187.476 134.462 187.179 128.074 186.161 121.954C185.05 115.862 183.465 109.866 181.42 104.021C179.457 98.1882 177.17 92.5126 174.939 86.9206C174.357 85.504 173.773 84.1987 173.198 82.6986C172.916 81.9538 172.674 81.1935 172.477 80.4214C172.264 79.6619 172.088 78.9119 171.921 78.1717C171.245 75.2088 170.745 72.339 169.903 69.6261C169.128 66.9614 167.978 64.4207 166.487 62.0804C165.009 59.8166 163.159 57.8195 161.015 56.1737C156.679 53.0038 151.738 50.76 146.498 49.5819C141.455 48.3796 136.314 47.6358 131.138 47.3597C126.291 46.9711 121.419 46.9959 116.575 47.4338C112.141 47.8528 107.801 48.9683 103.715 50.7394C96.7629 53.8029 91.0363 59.1057 87.4482 65.8024C86.0585 68.4313 84.876 71.1646 83.9116 73.9776C83.0598 76.5327 82.3839 78.829 81.8656 80.8564C81.6062 81.8656 81.3747 82.8006 81.2082 83.634C80.9473 84.3966 80.6379 85.1419 80.2823 85.8652C79.7755 86.8598 79.3423 87.8903 78.9864 88.9483C78.7455 89.661 78.6622 90.0408 78.6622 90.0408L78.6252 90.1149ZM75.542 89.3739C75.8758 87.8521 76.0648 86.3022 76.1068 84.7448C76.1813 83.8983 76.3082 83.0573 76.4865 82.2265C76.6518 81.7804 76.8435 81.3445 77.0603 80.9211L77.6346 79.4399C78.5581 77.1065 79.6027 74.8228 80.7638 72.5981C83.9053 66.5981 88.0123 61.1556 92.92 56.4884C95.9429 53.6567 99.4159 51.3477 103.196 49.656C107.385 47.8078 111.825 46.594 116.372 46.0544C121.286 45.4721 126.24 45.2894 131.185 45.5081C136.493 45.622 141.782 46.2045 146.989 47.2488C152.339 48.4248 157.895 50.276 162.728 53.8315C165.168 55.6215 167.288 57.8129 168.995 60.3122C170.677 62.8846 171.965 65.693 172.82 68.6449C173.65 71.5705 174.331 74.5371 174.856 77.5327C175.013 78.2548 175.161 78.9678 175.347 79.6623C175.507 80.3477 175.711 81.0219 175.958 81.6806C176.487 83.0866 177.021 84.4907 177.56 85.8929C179.714 91.59 181.637 97.4537 183.327 103.484C185.062 109.508 186.3 115.664 187.031 121.889C187.399 125.023 187.524 128.18 187.401 131.333C187.303 134.469 186.809 137.58 185.929 140.591C185.501 142.107 184.941 143.582 184.254 144.998C184.087 145.349 183.938 145.711 183.781 146.081C183.623 146.452 183.54 146.84 183.383 147.211C183.245 147.587 183.077 147.952 182.883 148.303L182.253 149.321C180.473 152.003 178.265 154.374 175.717 156.339C174.451 157.326 173.128 158.238 171.755 159.071C170.366 159.876 168.978 160.626 167.505 161.302C164.629 162.626 161.657 163.734 158.617 164.616C152.649 166.298 146.574 167.576 140.434 168.44C134.397 169.366 128.398 169.977 122.501 170.459C116.581 170.903 110.629 170.618 104.78 169.607C99.2081 168.656 93.735 167.196 88.4298 165.246C83.3869 163.418 78.5291 161.115 73.922 158.367C71.6936 157.037 69.5785 155.526 67.5984 153.849C66.6053 152.993 65.677 152.065 64.8209 151.071C63.9975 150.133 63.222 149.153 62.4973 148.136C59.6434 144.261 57.8413 139.713 57.2661 134.934C56.8704 130.638 57.3847 126.307 58.7754 122.222C59.947 118.735 61.4377 115.363 63.2285 112.15C64.8489 109.196 66.4875 106.595 67.9316 104.243C70.2189 100.733 72.2966 97.0914 74.1538 93.3365C74.5958 92.389 74.97 91.4114 75.2739 90.411C75.3554 90.1556 75.4235 89.896 75.4777 89.6334L75.5518 89.3557L75.5424 89.3739H75.542Z" fill="#E5D1AE"/>
<path d="M77.0604 89.7259C73.7737 104.243 45.0914 127.222 66.8764 150.728C74.2829 158.728 98.3544 170.977 122.519 168.699C185.281 162.773 201.141 147.617 174.698 82.6432C170.402 72.0794 175.218 47.7393 129.083 46.3598C109.724 45.7766 86.43 48.4338 77.0604 89.7256V89.7259Z" fill="#FFF8EF"/>
<path d="M89.5412 62.2932L89.4114 62.5061C89.2857 62.7031 89.1714 62.9072 89.0691 63.1173C88.6622 63.9019 88.3305 64.7233 88.0785 65.5704C87.1578 68.9415 86.8443 72.4497 87.1525 75.9306C87.5274 81.4054 88.8559 86.7727 91.078 91.7903C93.9001 98.321 98.2465 104.08 103.753 108.585C106.888 111.146 110.369 113.25 114.094 114.834C118.099 116.511 122.303 117.666 126.602 118.269C131.182 118.897 135.815 119.037 140.425 118.686C141.601 118.612 142.795 118.482 143.98 118.352H144.406L144.841 118.278C145.11 118.222 145.369 118.176 145.665 118.102C146.23 117.964 146.813 117.797 147.397 117.63C149.739 116.964 152.128 116.232 154.59 115.677C159.497 114.575 164.774 114.019 169.921 115.149C172.503 115.727 174.966 116.738 177.208 118.139C177.769 118.464 178.312 118.817 178.837 119.195L179.625 119.815L180.365 120.472C180.874 120.907 181.291 121.398 181.791 121.879C182.028 122.116 182.254 122.363 182.467 122.62C182.689 122.889 182.897 123.17 183.087 123.463C184.451 125.845 185.121 128.562 185.022 131.305C185.002 133.993 184.692 136.672 184.096 139.294C183.81 140.607 183.486 141.909 183.124 143.202L182.605 145.118L182.338 146.044L182.236 146.488V146.545C182.041 146.405 182.689 146.915 181.773 145.813C180.476 145.813 181.115 146.035 180.93 145.969V145.915C182.265 143.693 183.385 141.349 184.272 138.915C186.013 134.035 186.758 128.857 186.466 123.686C186.154 118.567 185.035 113.53 183.152 108.761C182.253 106.384 181.208 104.065 180.022 101.817C179.438 100.691 178.82 99.5827 178.171 98.4933C177.788 97.8648 177.461 97.2051 177.19 96.5211C176.935 95.8502 176.725 95.1637 176.56 94.4656C175.94 91.7903 175.634 89.2719 175.236 86.7724C174.838 84.2722 174.477 81.8469 173.959 79.4673C173.029 74.8435 171.393 70.3906 169.107 66.2652C166.926 62.3964 163.954 59.0305 160.386 56.3865C156.917 53.8826 153.065 51.9566 148.98 50.6832C145.114 49.4642 141.14 48.6271 137.11 48.1836C133.374 47.7581 129.613 47.5696 125.852 47.619C122.469 47.6425 119.091 47.8993 115.742 48.3872C110.303 49.106 105.021 50.7269 100.115 53.183C96.9963 54.7682 94.1769 56.8827 91.7819 59.4324C91.1602 60.1058 90.573 60.8104 90.0231 61.5435L89.4954 62.3211L89.5416 62.2932H89.5412ZM87.9858 61.3676L88.5505 60.5252C89.1247 59.7201 89.7427 58.9472 90.4021 58.2104C92.9156 55.4627 95.8849 53.1699 99.179 51.4332C104.243 48.7674 109.711 46.9502 115.363 46.0541C118.818 45.4655 122.311 45.1221 125.815 45.0264C129.685 44.8961 133.56 45.0106 137.416 45.3691C141.65 45.7365 145.837 46.5242 149.914 47.7207C154.36 49.0084 158.561 51.023 162.349 53.6831C166.365 56.5588 169.734 60.246 172.237 64.5059C174.733 68.9479 176.511 73.757 177.505 78.7546C178.051 81.2541 178.43 83.782 178.828 86.3C179.227 88.8183 179.476 91.3644 180.004 93.7069C180.126 94.2617 180.281 94.8089 180.467 95.3454C180.67 95.8613 180.915 96.3598 181.198 96.8362C181.837 97.9841 182.467 99.1506 183.05 100.345C184.231 102.748 185.264 105.222 186.142 107.752C187.96 112.876 188.938 118.259 189.04 123.694C189.135 129.173 188.125 134.614 186.068 139.693C185.033 142.221 183.749 144.64 182.236 146.915C182.201 146.968 182.164 147.021 182.124 147.072C181.883 147.072 182.476 147.358 181.106 147.368C180.124 146.201 180.81 146.608 180.615 146.395V146.21C180.657 146.032 180.706 145.857 180.763 145.683L181.078 144.757L181.671 142.906C182.06 141.655 182.409 140.392 182.717 139.119C183.35 136.597 183.716 134.015 183.809 131.416C183.968 128.877 183.417 126.345 182.217 124.102C182.055 123.845 181.881 123.594 181.699 123.352C181.498 123.104 181.285 122.866 181.06 122.639C180.612 122.182 180.156 121.734 179.689 121.297L178.977 120.658L178.227 120.075C177.736 119.667 177.19 119.334 176.671 118.972C174.533 117.615 172.159 116.672 169.672 116.195C164.719 115.223 159.655 115.954 154.924 117.204C152.535 117.806 150.211 118.584 147.859 119.324C147.276 119.509 146.683 119.695 146.072 119.861C145.776 119.944 145.443 120.019 145.147 120.093L144.693 120.176H144.211C142.99 120.325 141.786 120.481 140.573 120.574C135.827 121.018 131.048 120.957 126.315 120.389C121.797 119.838 117.374 118.676 113.168 116.936C109.233 115.309 105.551 113.126 102.234 110.455C96.4924 105.655 91.9871 99.5457 89.0967 92.6421C86.8341 87.381 85.4996 81.7677 85.1527 76.0513C84.8867 72.3325 85.2816 68.596 86.3193 65.0151C86.6241 64.0562 87.0146 63.1266 87.4858 62.2376C87.6525 61.9043 87.7823 61.7379 87.8655 61.5897L87.9949 61.3766L87.9858 61.3676Z" fill="#E5BFA1"/>
<path d="M91.458 63.3953L91.208 63.8953L91.1429 64.0156V64.247C91.1845 64.6261 91.2977 64.9936 91.4766 65.3303C92.0912 66.3824 92.8551 67.3398 93.7445 68.1725C95.7991 70.0878 98.0173 71.8196 100.374 73.3482C105.197 76.505 110.391 79.3843 115.52 82.1617C125.918 87.6612 136.601 92.7256 147.248 97.9008C152.572 100.484 157.895 103.085 163.182 105.789C165.83 107.15 168.459 108.566 171.061 109.983C173.663 111.399 176.255 112.937 178.773 114.612C180.033 115.454 181.273 116.334 182.476 117.307C183.069 117.806 183.662 118.325 184.226 118.88L184.653 119.325L184.856 119.547L184.911 119.603L184.994 119.714L185.078 119.825L185.744 120.751L186.078 121.195C186.189 121.361 186.3 121.565 186.401 121.741L187.031 122.87C187.206 123.245 187.36 123.628 187.494 124.019C187.654 124.394 187.784 124.78 187.883 125.176C188.099 125.958 188.248 126.757 188.327 127.565C188.327 127.963 188.429 128.361 188.429 128.759V129.953C188.263 133.038 187.613 136.078 186.503 138.962C185.495 141.813 184.235 144.517 183.097 147.22L181.245 146.294C183.054 143.179 184.419 139.825 185.301 136.332C186.173 132.846 186.575 129.259 186.494 125.666C186.448 124.741 186.494 123.88 186.383 122.982L186.096 120.306C186.004 119.38 185.782 118.538 185.633 117.659C185.487 116.772 185.292 115.895 185.051 115.029L184.337 112.427C184.133 111.502 183.745 110.724 183.468 109.872L182.541 107.326L181.421 104.863C181.032 104.048 180.708 103.206 180.272 102.41L178.967 100.03L178.311 98.8453L177.977 98.1788L177.764 97.7711L177.606 97.4567C177.505 97.2343 177.403 97.0679 177.301 96.8084L176.996 95.9936L176.856 95.5863L176.755 95.2254L176.56 94.5033C175.634 90.6796 175.264 87.0964 174.56 83.4766C173.936 79.9404 173.006 76.4649 171.783 73.0887C170.572 69.7862 168.906 66.6697 166.829 63.8302C164.762 61.0376 162.239 58.6123 159.368 56.6552C156.466 54.6876 153.307 53.1299 149.98 52.0262C149.152 51.7209 148.308 51.4613 147.452 51.2485C146.591 51.0261 145.748 50.776 144.878 50.5725C143.129 50.2484 141.407 49.8414 139.619 49.6466C138.694 49.5354 137.851 49.3872 136.962 49.3039L134.277 49.1095L132.935 49.0078H131.583L128.908 48.9616H126.223C125.298 48.9616 124.371 48.9616 123.51 49.0727L120.908 49.2948L118.28 49.656C114.788 50.2011 111.357 51.0752 108.03 52.2667C104.728 53.4073 101.574 54.9364 98.633 56.8216L97.5497 57.5347L96.5036 58.34C95.8 58.84 95.1797 59.4142 94.5408 59.9607C93.3309 61.0578 92.2556 62.2947 91.3374 63.6452L91.458 63.3953ZM87.0325 60.8678C89.3486 57.5279 92.3188 54.693 95.7629 52.535C99.0343 50.3885 102.549 48.6388 106.234 47.3226C109.891 46.0452 113.661 45.1153 117.492 44.5452L120.362 44.1843L123.288 43.9713C124.288 43.8787 125.14 43.8972 126.121 43.8787H128.982L131.833 43.999L133.25 44.0639L134.675 44.2028L137.518 44.4713C138.444 44.5826 139.37 44.749 140.352 44.8878C142.202 45.1284 144.119 45.6099 145.998 45.9988C146.924 46.2397 147.85 46.5264 148.776 46.7859C149.702 47.0453 150.628 47.3688 151.553 47.7114C155.244 49.0048 158.738 50.806 161.932 53.0629C165.157 55.3548 167.973 58.1714 170.264 61.3955C172.503 64.5845 174.282 68.0718 175.551 71.7553C176.802 75.3701 177.731 79.0877 178.328 82.8653C178.977 86.5687 179.319 90.2722 180.06 93.7162L180.208 94.3271L180.291 94.6327L180.375 94.8827L180.523 95.3828C180.578 95.5586 180.708 95.7901 180.8 95.9936L180.949 96.3084C180.949 96.3084 180.856 96.1324 180.949 96.2437V96.3178L181.032 96.4751L181.365 97.1046L182.013 98.3638L183.328 100.882C183.763 101.715 184.097 102.613 184.476 103.474L185.596 106.085L186.522 108.779C186.8 109.706 187.179 110.557 187.383 111.492L188.069 114.269C188.302 115.184 188.481 116.111 188.605 117.047C188.744 117.973 188.948 118.899 189.022 119.825L189.245 122.676C189.346 123.602 189.245 124.583 189.245 125.537C189.213 129.352 188.681 133.147 187.661 136.823C186.626 140.488 185.083 143.991 183.078 147.229C182.947 147.459 182.732 147.63 182.479 147.707C182.225 147.784 181.951 147.76 181.715 147.641C181.478 147.523 181.295 147.318 181.204 147.069C181.114 146.821 181.122 146.547 181.226 146.303C182.319 143.526 183.485 140.831 184.374 138.082C185.333 135.404 185.864 132.593 185.948 129.749C186.042 127.071 185.223 124.439 183.624 122.288L182.931 121.427L182.846 121.316C182.782 121.241 182.912 121.389 182.846 121.371L182.8 121.325L182.624 121.148L182.273 120.797C181.771 120.322 181.246 119.875 180.699 119.454C179.579 118.593 178.375 117.797 177.162 117.02C172.151 113.986 166.99 111.204 161.701 108.686C156.405 106.104 151.054 103.623 145.684 101.141C134.935 96.2346 124.13 91.4202 113.502 86.0223C108.188 83.3283 102.91 80.5417 97.763 77.2827C96.485 76.4589 95.2167 75.6071 93.9761 74.6902C92.6964 73.767 91.4779 72.7619 90.3282 71.6812C89.0315 70.5128 87.9229 69.1512 87.0415 67.6446C86.522 66.6792 86.207 65.6172 86.1159 64.5247C86.0851 64.2169 86.0851 63.9067 86.1159 63.5988C86.1073 63.4385 86.1073 63.2778 86.1159 63.1176C86.1159 62.9323 86.1992 62.7379 86.2547 62.5529C86.3104 62.3675 86.366 62.1731 86.4307 61.9969L86.5233 61.7475L86.5881 61.6269L86.838 61.1269L87.0325 60.8674V60.8678Z" fill="#895C2F"/>
<path d="M88.7541 61.7931C80.1807 75.042 90.4388 126.073 144.35 119.195C150.063 118.473 169.023 108.362 181.8 122.565C188.799 130.342 179.356 150.099 181.8 146.025C184.522 141.489 195.021 123.991 179.337 97.0305C174.273 88.4295 182.606 46.7391 128.583 46.267C107.826 46.054 94.457 53.0071 88.7537 61.7931H88.7541Z" fill="#BA8449"/>
<g style="mix-blend-mode:multiply" opacity="0.15">
<g style="mix-blend-mode:multiply">
<path d="M87.2447 65.0151C102.799 54.9975 149.803 55.6829 164.829 79.7082C174.828 95.6696 156.497 134.998 149.803 140.017C143.109 145.035 133.675 149.377 109.02 143.471C88.1706 138.452 119.649 119 95.0589 116.168C72.5984 113.575 70.3857 75.9122 87.245 65.0151H87.2447Z" fill="#C7893E"/>
</g>
</g>
<g style="mix-blend-mode:multiply" opacity="0.25">
<g style="mix-blend-mode:multiply">
<path d="M130.759 103.724C130.759 104.919 128.481 105.881 125.666 105.881C122.852 105.881 120.564 104.956 120.564 103.724C120.564 102.493 122.824 101.604 125.648 101.604C128.471 101.604 130.759 102.53 130.759 103.724Z" fill="#C7893E"/>
</g>
</g>
<path d="M121.797 97.3268C122.964 96.549 129.204 96.8082 129.963 97.5862C130.722 98.3636 132.49 101.669 130.481 103.03C129.796 103.502 129.741 101.548 128.213 101.863C126.361 102.252 127.287 104.696 125.88 104.641C123.612 104.576 125.797 102.011 123.806 101.66C122.315 101.4 121.954 102.808 121.343 102.696C119.14 102.317 120.167 98.4191 121.797 97.3268Z" fill="#F38089"/>
<path d="M125.204 97.3825C126.708 97.2908 128.216 97.4856 129.647 97.9563C130.464 98.9123 130.92 100.125 130.935 101.382C130.924 101.6 130.866 101.813 130.767 102.008C130.668 102.202 130.53 102.374 130.361 102.512L130.24 102.363C130.078 102.061 129.84 101.805 129.549 101.622C129.259 101.439 128.926 101.334 128.583 101.317C128.442 101.299 128.299 101.299 128.157 101.317C127.681 101.454 127.258 101.733 126.945 102.117C126.632 102.501 126.445 102.971 126.407 103.465C126.222 104.178 126.157 104.336 125.944 104.336C125.306 104.336 125.287 104.067 125.306 103.289C125.324 102.512 125.306 101.438 123.944 101.178C123.798 101.141 123.65 101.116 123.5 101.104C122.826 101.121 122.189 101.416 121.741 101.919L121.481 102.16C121.276 102.129 121.087 102.031 120.944 101.879C120.801 101.728 120.713 101.534 120.695 101.327C120.624 100.653 120.717 99.973 120.967 99.344C121.216 98.715 121.615 98.1562 122.13 97.7157C123.12 97.3889 124.164 97.2599 125.204 97.3359V97.3825ZM125.204 96.8177C124.063 96.7334 122.918 96.8912 121.843 97.2807C120.213 98.3731 119.186 102.271 121.389 102.659H121.463C122.009 102.659 122.389 101.586 123.5 101.586C123.611 101.586 123.731 101.456 123.852 101.484C125.843 101.827 123.657 104.326 125.926 104.326C127.324 104.326 126.361 102.058 128.222 101.678C128.329 101.664 128.438 101.664 128.546 101.678C129.62 101.678 129.824 102.984 130.286 102.984C130.353 103.004 130.423 103.004 130.49 102.984C132.5 101.623 130.749 98.3545 129.972 97.549C129.518 97.0954 127.194 96.8269 125.167 96.8269L125.204 96.8177Z" fill="#F38089"/>
<g style="mix-blend-mode:multiply" opacity="0.25">
<g style="mix-blend-mode:multiply">
<path d="M173.819 117.834C176.115 132.823 157.404 151.701 132.212 155.561C107.021 159.422 88.3741 136.86 86.0687 121.871C83.7633 106.882 99.2806 112.603 124.436 108.733C149.59 104.864 171.495 102.845 173.819 117.834Z" fill="#F6E8D0"/>
</g>
</g>
<path opacity="0.5" d="M108.076 140.6C108.536 141.229 109.152 141.727 109.863 142.045C110.559 142.381 111.288 142.645 112.039 142.832C113.558 143.207 115.107 143.451 116.668 143.563C119.749 143.802 122.843 143.821 125.926 143.618C129.028 143.433 132.111 143.1 135.184 142.637C136.712 142.397 138.24 142.137 139.749 141.795C141.249 141.494 142.716 141.048 144.128 140.462C144.424 140.323 144.804 140.063 144.785 139.97L145.072 138.851C145.295 138.101 145.554 137.332 145.813 136.592C146.359 135.129 146.943 133.685 147.544 132.24C148.748 129.361 150.063 126.537 151.414 123.722C152.081 122.314 152.785 120.945 153.488 119.519C154.192 118.094 154.924 116.741 155.655 115.362C156.394 113.969 157.175 112.597 157.997 111.251C158.423 110.576 158.83 109.9 159.303 109.214L160.043 108.206C160.339 107.854 160.672 107.502 160.969 107.159L162.469 109.826C159.617 110.751 156.766 111.677 153.886 112.474C152.451 112.89 150.998 113.252 149.554 113.63C148.109 114.011 146.647 114.335 145.193 114.686C143.739 115.038 142.276 115.316 140.814 115.612C139.351 115.908 137.869 116.168 136.406 116.445C134.944 116.723 133.453 116.918 131.972 117.167C130.491 117.417 129.01 117.584 127.528 117.76C126.046 117.936 124.556 118.121 123.056 118.232C121.556 118.343 120.075 118.519 118.575 118.565L114.094 118.751H109.585C108.085 118.751 106.576 118.612 105.076 118.538L102.827 118.399L100.577 118.13L98.3551 117.834L97.2348 117.695L96.1144 117.389L91.6613 116.464L92.4945 113.566L94.3741 114.566L94.837 114.844L95.272 115.158L96.1424 115.788C96.4318 115.985 96.7099 116.198 96.9757 116.426L97.7439 117.14L98.5031 117.853C98.744 118.112 98.9478 118.389 99.1699 118.649C99.6262 119.16 100.047 119.701 100.429 120.269C100.816 120.818 101.174 121.386 101.503 121.973C101.799 122.584 102.16 123.149 102.429 123.759C102.697 124.37 102.985 124.973 103.234 125.611L103.919 127.463L104.53 129.314C104.909 130.572 105.261 131.837 105.586 133.11C105.911 134.382 106.26 135.647 106.632 136.907C106.836 137.536 107.002 138.165 107.252 138.758C107.476 139.394 107.752 140.01 108.076 140.6ZM108.076 140.6C107.736 140.037 107.445 139.445 107.206 138.832C106.938 138.23 106.762 137.591 106.549 136.98L105.41 133.212C105.019 131.968 104.599 130.733 104.151 129.509L103.438 127.658L102.605 125.898C102.299 125.315 101.975 124.759 101.679 124.194C101.382 123.629 100.966 123.111 100.605 122.584C100.237 122.064 99.8352 121.569 99.4014 121.103C98.9961 120.617 98.5466 120.171 98.0586 119.769C97.818 119.565 97.596 119.343 97.355 119.149L96.5033 118.649L95.735 118.139C95.4721 117.979 95.1962 117.839 94.9108 117.723L94.0775 117.344L93.7257 117.158L93.2813 117.029L91.5315 116.566C91.1435 116.461 90.8119 116.209 90.6077 115.862C90.4035 115.516 90.343 115.104 90.4392 114.714C90.535 114.372 90.7478 114.074 91.0406 113.873C91.3333 113.671 91.6872 113.579 92.0409 113.612L92.3742 113.668L96.6424 114.473L97.7071 114.659L98.7901 114.788L100.957 115.057L103.123 115.316L105.298 115.445C106.762 115.51 108.206 115.677 109.669 115.649H114.057L118.436 115.464C119.899 115.464 121.362 115.241 122.825 115.14C124.288 115.038 125.741 114.862 127.195 114.677C128.648 114.491 130.102 114.344 131.555 114.094C133.009 113.843 134.463 113.677 135.898 113.39C137.332 113.103 138.796 112.871 140.23 112.575C141.666 112.279 143.11 111.974 144.535 111.65C145.961 111.326 147.396 110.993 148.822 110.612C150.247 110.233 151.674 109.891 153.081 109.483C155.906 108.696 158.71 107.832 161.488 106.891C161.815 106.775 162.172 106.775 162.501 106.887C162.829 107 163.11 107.22 163.298 107.512C163.487 107.804 163.571 108.151 163.538 108.496C163.505 108.842 163.357 109.167 163.117 109.418L162.987 109.557L162.312 110.168L161.599 110.983C161.127 111.529 160.672 112.14 160.21 112.733C159.284 113.964 158.46 115.241 157.618 116.529C156.775 117.815 155.97 119.13 155.182 120.464C154.396 121.796 153.609 123.121 152.859 124.472C151.35 127.176 149.905 129.916 148.563 132.703C147.893 134.087 147.275 135.494 146.711 136.925C146.427 137.633 146.161 138.349 145.915 139.073L145.582 140.183C145.489 140.454 145.302 140.68 145.054 140.822C144.875 140.94 144.686 141.042 144.489 141.128C143.009 141.682 141.476 142.088 139.915 142.341C138.38 142.627 136.836 142.871 135.286 143.072C132.213 143.465 129.124 143.721 126.028 143.84C122.921 143.991 119.806 143.941 116.705 143.693C115.142 143.566 113.594 143.305 112.076 142.915C111.322 142.722 110.59 142.451 109.891 142.109C109.155 141.79 108.519 141.278 108.049 140.628L108.076 140.6Z" fill="#D7CAB2"/>
<path opacity="0.5" d="M108.067 140.609C108.532 141.233 109.147 141.73 109.854 142.054C110.552 142.394 111.284 142.658 112.038 142.841C113.559 143.215 115.107 143.463 116.668 143.582C119.749 143.809 122.842 143.83 125.926 143.646C129.025 143.48 132.114 143.172 135.184 142.721C136.712 142.498 138.249 142.248 139.758 141.924C141.269 141.63 142.749 141.19 144.174 140.609C144.489 140.452 144.887 140.239 144.942 140.017L145.239 138.887C145.461 138.147 145.73 137.397 145.989 136.665C146.543 135.207 147.132 133.762 147.757 132.332C149.007 129.481 150.359 126.685 151.757 123.898C152.442 122.5 153.155 121.121 153.877 119.741C154.598 118.36 155.345 116.993 156.117 115.639C156.876 114.316 157.691 112.937 158.534 111.612C158.969 110.955 159.386 110.288 159.858 109.649L160.589 108.724C160.874 108.393 161.184 108.083 161.515 107.798L162.265 109.131C159.441 110.056 156.599 110.983 153.729 111.761C152.303 112.178 150.849 112.538 149.415 112.918C147.979 113.297 146.526 113.612 145.072 113.964C143.619 114.316 142.165 114.593 140.712 114.889C139.258 115.187 137.786 115.436 136.323 115.714C134.86 115.991 133.389 116.185 131.916 116.426C130.444 116.668 128.972 116.843 127.491 117.029C126.009 117.214 124.537 117.389 123.047 117.491C121.556 117.593 120.075 117.779 118.584 117.825L114.094 117.973H109.613C108.123 117.973 106.632 117.834 105.141 117.76L102.901 117.621L100.669 117.343L98.438 117.075L97.3271 116.936L96.2253 116.547L91.8183 115.492L92.2442 114.167L94.0957 115.14L94.5587 115.4L94.9846 115.695L95.8459 116.27C96.1235 116.464 96.4288 116.621 96.6883 116.843L97.4474 117.519L98.2157 118.186C98.4472 118.427 98.6604 118.695 98.8825 118.945C99.3645 119.424 99.8073 119.941 100.207 120.491C100.608 121.022 100.978 121.576 101.317 122.148C101.632 122.74 101.993 123.296 102.243 123.889C102.493 124.481 102.817 125.084 103.077 125.741L103.799 127.592L104.438 129.444C104.832 130.698 105.199 131.961 105.54 133.23C105.882 134.499 106.233 135.767 106.613 137.017C106.817 137.637 106.983 138.276 107.243 138.868C107.47 139.47 107.746 140.053 108.067 140.609ZM108.067 140.609C107.73 140.045 107.442 139.454 107.205 138.841C106.947 138.239 106.77 137.6 106.557 136.989L105.438 133.212C105.071 131.967 104.67 130.732 104.234 129.509L103.548 127.657L102.752 125.87C102.465 125.278 102.141 124.713 101.826 124.13C101.512 123.546 101.141 123.028 100.799 122.482C100.433 121.947 100.041 121.431 99.6231 120.935C99.2395 120.427 98.8153 119.95 98.3548 119.509C98.1233 119.288 97.9009 119.056 97.6604 118.853L96.8365 118.269L96.068 117.704C95.8038 117.529 95.5288 117.371 95.2441 117.233L94.4017 116.788L93.9849 116.566L93.5401 116.417L91.7536 115.816C91.5587 115.75 91.3976 115.61 91.3056 115.426C91.2137 115.242 91.1984 115.029 91.263 114.834C91.3291 114.675 91.4513 114.545 91.6066 114.47C91.762 114.395 91.9395 114.379 92.1054 114.427L92.1701 114.557L96.4844 115.288L97.5677 115.436L98.6601 115.538L100.845 115.797L103.03 116.057L105.234 116.186C106.696 116.251 108.159 116.417 109.641 116.39L114.094 116.417L118.51 116.232C119.982 116.232 121.445 116.01 122.917 115.908C124.389 115.806 125.852 115.631 127.314 115.445C128.778 115.26 130.24 115.102 131.694 114.853C133.148 114.603 134.619 114.437 136.064 114.149C137.508 113.862 138.971 113.63 140.415 113.325C141.86 113.02 143.304 112.724 144.739 112.4C146.179 112.076 147.615 111.73 149.044 111.362C150.479 110.992 151.905 110.631 153.321 110.214C156.164 109.436 158.979 108.557 161.765 107.613C161.861 107.579 161.964 107.565 162.066 107.571C162.168 107.577 162.268 107.603 162.36 107.648C162.452 107.693 162.535 107.755 162.603 107.831C162.67 107.908 162.722 107.997 162.756 108.094C162.8 108.231 162.808 108.377 162.777 108.516C162.747 108.657 162.678 108.786 162.579 108.89L162.515 108.946L161.765 109.668L161.043 110.529C160.571 111.113 160.117 111.743 159.672 112.381C158.802 113.64 157.969 114.936 157.155 116.251C156.341 117.567 155.551 118.897 154.784 120.242C154.016 121.583 153.247 122.935 152.516 124.296C151.053 127.073 149.646 129.796 148.341 132.628C147.718 134.043 147.1 135.459 146.489 136.878C146.211 137.6 145.943 138.314 145.701 139.045L145.378 140.164C145.303 140.396 145.14 140.59 144.924 140.702C144.755 140.819 144.575 140.918 144.387 140.999C142.922 141.56 141.406 141.975 139.86 142.238C138.332 142.535 136.795 142.794 135.231 142.997C132.159 143.422 129.069 143.703 125.972 143.84C122.868 144.005 119.756 143.962 116.658 143.71C115.096 143.583 113.547 143.324 112.029 142.933C111.275 142.739 110.543 142.47 109.844 142.127C109.126 141.791 108.509 141.27 108.057 140.618L108.066 140.609H108.067Z" fill="#D7CAB2"/>
<path d="M108.057 140.619C112.076 146.84 144.572 142.553 145.091 140.1C146.517 133.749 158.182 111.455 161.941 108.344C155.201 110.678 120.334 121.824 91.957 115.085C104.835 119.195 104.937 135.786 108.057 140.618V140.619Z" fill="#333333"/>
<path d="M157.682 111.362C152.803 118.723 145.313 133.082 143.721 139.341C141.795 140.396 131.685 142.276 121.75 142.276C113.826 142.276 110.16 140.989 109.381 139.776C108.457 137.914 107.76 135.945 107.308 133.916C105.966 129.12 104.132 122.602 99.651 118.037C103.718 118.541 107.811 118.788 111.91 118.778C130.611 118.778 148.85 114.047 157.692 111.371L157.682 111.362ZM161.987 108.353C156.775 110.205 134.749 117.233 111.91 117.233C105.214 117.291 98.534 116.574 92.0039 115.094C104.836 119.195 104.938 135.786 108.058 140.619C109.594 142.989 115.279 143.831 121.741 143.831C132.232 143.831 144.785 141.619 145.128 140.128C146.554 133.777 158.219 111.483 161.978 108.372L161.987 108.353Z" fill="#333333"/>
<g style="mix-blend-mode:multiply">
<g style="mix-blend-mode:multiply">
<path d="M106.122 135.175C108.279 137.027 115.62 128.777 114.843 125.583C112.853 117.464 103.872 118.584 100.585 118.066C97.2985 117.547 90.9473 114.742 93.586 115.566C101.196 117.899 115.704 116.862 117.435 117.417C119.621 118.066 121.139 126.917 118.991 128.907C116.843 130.898 109.242 142.47 108.103 140.489C106.965 138.508 106.686 136.388 106.122 135.175ZM140.507 125.583C142.248 127.277 146.812 129.287 149.664 128.259C149.149 129.86 148.454 131.398 147.59 132.842C127.888 131.111 133.248 117.288 134.712 115.991C136.174 114.695 154.413 112.103 157.959 111.362C152.598 112.538 134.462 119.714 140.507 125.583Z" fill="#818181"/>
</g>
</g>
<path d="M121.501 143.877C114.798 143.877 110.391 142.952 108.706 141.1C108.576 140.943 108.55 140.007 109.317 138.257C111.169 133.98 116.955 126.583 126.908 125.981C127.575 125.981 128.241 125.916 128.889 125.916C140.601 125.916 147.656 131.861 147.675 132.925L147.1 134.304C146.471 135.823 145.508 138.119 144.657 140.674C143.824 141.508 132.028 143.878 121.501 143.878V143.877Z" fill="#F8B1AB"/>
<path d="M128.907 125.676V126.426C139.091 126.426 146.359 131.453 147.118 132.907C146.989 133.231 146.812 133.629 146.618 134.101C145.998 135.583 145.063 137.804 144.229 140.285C142.572 141.212 131.62 143.36 121.454 143.36C115.093 143.36 110.724 142.433 109.113 140.822C109.039 140.276 109.575 138.119 111.52 135.341C113.26 132.86 118.26 127.009 126.916 126.5C127.564 126.5 128.24 126.435 128.888 126.435V125.398L128.907 125.676ZM128.888 125.398C128.231 125.398 127.555 125.398 126.87 125.463C113.167 126.277 106.835 139.86 108.28 141.415C110.279 143.609 115.528 144.368 121.454 144.368C132.017 144.368 144.748 141.943 145.127 140.813C146.294 137.314 147.637 134.333 148.155 133.037C148.673 131.741 140.748 125.371 128.869 125.371L128.888 125.398Z" fill="#F38089"/>
<g style="mix-blend-mode:multiply">
<g style="mix-blend-mode:multiply">
<path d="M108.539 140.656C107.613 144.905 133.462 124.204 147.424 134.175C150.201 130.305 134.805 123.824 125.815 125.323C118.233 126.602 110.436 131.462 108.539 140.656Z" fill="#F8B1AB"/>
</g>
</g>
<path d="M113.761 118.454C115.02 120.788 117.52 132.157 118.557 132.453C119.593 132.749 125.963 134.527 126.89 134.138C127.815 133.749 127.732 131.546 128.741 132.194C129.518 132.712 129.908 133.749 130.685 133.36C132.074 132.666 136.24 130.12 136.907 128.953C137.573 127.787 137.426 121.306 136.907 116.121C134.11 117.288 118.427 118.973 113.761 118.454Z" fill="#FEF6E4"/>
<path d="M136.379 116.825C136.869 122.149 136.878 127.805 136.379 128.703C135.878 129.602 132.074 132.046 130.379 132.897C130.345 132.902 130.31 132.902 130.277 132.897C130.156 132.897 129.926 132.647 129.731 132.434C129.498 132.172 129.237 131.937 128.953 131.731C128.773 131.606 128.561 131.536 128.342 131.528C127.675 131.528 127.416 132.203 127.176 132.749C127.036 133.082 126.851 133.546 126.657 133.675C126.589 133.685 126.521 133.685 126.453 133.675C124.091 133.35 121.757 132.842 119.473 132.157L118.759 131.971C118.269 131.416 117.233 127.768 116.473 125.084C115.788 122.695 115.14 120.455 114.621 119.038H116.065C122.019 119.038 132.943 117.797 136.434 116.788L136.379 116.825ZM136.887 116.084C134.518 117.103 122.278 118.519 116.093 118.519C115.332 118.525 114.573 118.491 113.815 118.418C115.019 120.787 117.519 132.157 118.556 132.453C119.593 132.749 124.777 134.194 126.453 134.194C126.588 134.2 126.723 134.181 126.851 134.137C127.648 133.795 127.694 132.074 128.342 132.074C128.46 132.08 128.572 132.122 128.666 132.193C129.323 132.628 129.704 133.444 130.277 133.444C130.393 133.441 130.507 133.412 130.61 133.361C131.998 132.666 136.166 130.12 136.832 128.954C137.498 127.786 137.351 121.306 136.832 116.121L136.888 116.084H136.887Z" fill="#FFD085"/>
<g style="mix-blend-mode:multiply">
<g style="mix-blend-mode:multiply">
<path d="M115.576 123.899C115.15 119.705 134.583 118.343 137.009 118.667C137.009 117.677 136.833 116.991 136.879 115.89C133.676 117.5 116.224 119.195 113.808 118.501C114.53 120.253 115.121 122.058 115.576 123.899Z" fill="#EADCBE"/>
</g>
</g>
<g style="mix-blend-mode:multiply">
<g style="mix-blend-mode:multiply">
<path d="M125.278 120.732C125.548 121.287 125.789 121.856 126.001 122.435C126.408 123.473 126.926 124.871 127.343 126.269C127.759 127.667 128.269 129.046 128.556 130.13L129.083 131.87L127.741 132.259L127.333 130.407C127.093 129.333 126.769 127.907 126.408 126.482C126.046 125.056 125.686 123.648 125.371 122.602C125.056 121.556 124.797 120.89 124.797 120.89L125.278 120.732Z" fill="#FFD085"/>
</g>
</g>
<g style="mix-blend-mode:multiply" opacity="0.4">
<g style="mix-blend-mode:multiply">
<path d="M59.4701 54.6088C69.7932 57.2384 68.1081 75.0789 74.2835 76.4678C80.4588 77.8564 88.4951 61.7936 89.2728 58.2566C77.376 53.2016 71.8672 47.2301 63.3494 48.9985C60.5352 49.5352 56.5817 53.859 59.4704 54.6088H59.4701Z" fill="#F8B1AB"/>
</g>
</g>
<g style="mix-blend-mode:multiply" opacity="0.5">
<g style="mix-blend-mode:multiply">
<path d="M88.0588 106.752C101.02 107.788 111.732 108.307 115.537 104.326C119.343 100.345 120.722 82.7263 127.027 83.1617C132.314 83.5225 134.11 106.492 137.563 107.178C141.017 107.863 165.338 114.529 171.347 108.307C177.355 102.085 180.161 98.1971 178.753 94.4196C177.346 90.6423 141.868 78.4581 134.628 77.8011C127.388 77.1436 78.3003 83.2449 77.0597 86.3556C75.819 89.4663 74.5231 89.0219 74.7546 92.3456C75.2082 98.5395 75.0969 105.715 88.0588 106.752Z" fill="#C7893E"/>
</g>
</g>
<path d="M124.39 80.6159C125.316 80.6159 129.019 80.3564 129.834 81.0048C134.537 84.7078 134.334 99.7157 139.296 104.456C143.675 108.641 167.552 111.714 171.7 106.919C175.848 102.123 181.93 87.6147 183.356 86.5503C184.782 85.4855 187.893 84.6987 188.8 83.3098C189.708 81.9212 188.93 75.533 186.726 75.7924C184.523 76.0515 180.375 77.4772 177.783 76.718C175.191 75.9589 162.627 68.0338 131 72.8296C128.27 73.1756 125.499 72.9996 122.835 72.311C120.761 71.7925 108.836 64.9045 77.0892 69.4594C73.9134 69.9129 69.5714 68.5335 68.0161 68.6818C66.4607 68.83 65.9512 73.7462 66.5901 75.0424C67.229 76.3383 70.4785 77.3754 70.8674 78.9308C71.2562 80.4862 74.1078 95.7716 81.6255 102.123C89.5416 108.816 109.892 104.187 111.687 102.901C119.853 97.068 121.667 80.6159 124.39 80.6159Z" fill="#333333"/>
<path d="M97.0675 69.4776C111.196 69.4776 118.418 72.3012 121.139 73.3569C121.558 73.5394 121.989 73.6971 122.426 73.8289C124.368 74.3156 126.36 74.5674 128.361 74.579C129.309 74.5834 130.256 74.515 131.194 74.3751C137.388 73.4169 143.646 72.9248 149.914 72.903C164.774 72.903 172.505 76.227 175.838 77.6526C176.504 77.9397 176.985 78.1433 177.374 78.2636C178.109 78.4704 178.87 78.5702 179.633 78.5601C181.38 78.4903 183.114 78.2389 184.808 77.81C185.531 77.6618 186.216 77.5134 186.753 77.4306C187.475 78.2174 187.91 81.7169 187.531 82.5411C186.747 83.1915 185.849 83.6906 184.883 84.013C184.03 84.3585 183.213 84.7897 182.447 85.3001C181.614 85.9019 180.726 87.5685 178.199 92.5678C175.791 97.3266 172.8 103.252 170.523 105.881C169.727 106.807 166.903 107.733 161.357 107.733C153.127 107.733 142.73 105.52 140.369 103.27C138.221 101.215 137.073 96.4748 135.971 91.9013C134.74 86.7905 133.536 81.967 130.759 79.7822C130.055 79.2266 128.907 79.0045 126.74 79.0045H124.352C122.167 79.0045 121.195 81.7169 119.584 86.2257C117.797 91.4199 115.279 98.4284 110.807 101.604C109.817 102.206 102.474 104.085 95.068 104.085C89.4018 104.085 85.106 102.993 82.6523 100.919C79.6804 98.4099 75.5143 92.586 72.5516 79.1895C72.4869 78.8839 72.4403 78.6618 72.4033 78.5324C72.0424 77.088 70.6538 76.1805 69.4223 75.3843C68.9169 75.0878 68.4451 74.7367 68.0151 74.3381C67.7877 72.9529 67.9414 71.5319 68.4596 70.2272C69.1802 70.2928 69.8971 70.3948 70.6073 70.5329C72.2835 70.8588 73.9834 71.0477 75.6903 71.098C76.2307 71.1205 76.7719 71.1047 77.3103 71.0514C83.8511 70.0657 90.453 69.5398 97.0675 69.4779V69.4776ZM97.0675 67.9221C90.3701 67.9618 83.6842 68.4785 77.0602 69.4684C76.5879 69.5324 76.1114 69.5635 75.6346 69.5608C72.8571 69.5608 69.6814 68.6352 68.2281 68.6352H67.9966C66.4413 68.7645 65.9227 73.6901 66.5706 74.9863C67.2189 76.2823 70.459 77.3194 70.8483 78.8748C71.2371 80.4302 74.0884 95.7156 81.6061 102.067C84.7633 104.733 89.8834 105.604 95.0215 105.604C102.789 105.604 110.594 103.622 111.686 102.826C119.852 96.9933 121.667 80.5413 124.389 80.5413C124.805 80.5413 125.768 80.4858 126.778 80.4858C128.036 80.4858 129.379 80.569 129.833 80.9302C134.536 84.6333 134.333 99.6411 139.295 104.381C142.073 107.057 152.867 109.279 161.357 109.279C166.144 109.279 170.199 108.575 171.699 106.844C175.847 102.048 181.929 87.5405 183.355 86.4758C184.781 85.411 187.892 84.6242 188.799 83.2353C189.707 81.8467 188.966 75.7084 186.854 75.7084H186.725C184.985 75.9119 182.04 76.8473 179.597 76.8473C178.971 76.8574 178.347 76.7799 177.745 76.6158C175.754 76.014 167.838 71.1902 149.877 71.1902C143.542 71.2286 137.22 71.7424 130.962 72.7271C130.101 72.8526 129.231 72.9146 128.361 72.9124C126.488 72.9008 124.623 72.6646 122.806 72.2088C121.268 71.9774 114.094 67.9221 97.0675 67.9221Z" fill="#1A1A1A"/>
<g style="mix-blend-mode:multiply" opacity="0.5">
<g style="mix-blend-mode:multiply">
<path fill-rule="evenodd" clip-rule="evenodd" d="M79.6816 79.0602C78.9595 79.9861 78.5152 93.8275 84.311 97.577C88.1344 100.049 104.401 99.5213 107.641 97.7065C112.789 94.8551 117.799 81.708 116.354 79.8379C114.021 76.7272 97.1799 72.5796 84.468 75.8201C82.623 76.4754 80.9755 77.5906 79.6816 79.0602Z" stroke="#333333" stroke-width="1.06243"/>
</g>
</g>
<path d="M79.6806 79.0602C78.9585 79.9861 78.5142 93.8275 84.3101 97.577C88.1334 100.049 104.4 99.5213 107.64 97.7065C112.788 94.8551 117.798 81.708 116.353 79.8379C114.02 76.7272 97.1789 72.5796 84.467 75.8201C82.622 76.4754 80.9745 77.5906 79.6806 79.0602Z" fill="white"/>
<g style="mix-blend-mode:multiply" opacity="0.5">
<g style="mix-blend-mode:multiply">
<path fill-rule="evenodd" clip-rule="evenodd" d="M175.116 85.115C175.709 86.1241 174.357 99.9284 168.088 102.891C163.978 104.835 147.915 102.215 144.943 99.9931C140.239 96.4935 137.008 82.8099 138.647 81.1339C141.36 78.3563 158.609 76.4216 170.773 81.2821C172.526 82.1665 174.021 83.4864 175.116 85.115Z" stroke="#333333" stroke-width="1.06243"/>
</g>
</g>
<path d="M175.115 85.115C175.708 86.1241 174.356 99.9284 168.087 102.891C163.977 104.835 147.914 102.215 144.942 99.9931C140.238 96.4935 137.007 82.8099 138.646 81.1339C141.359 78.3563 158.608 76.4216 170.772 81.2821C172.525 82.1665 174.02 83.4864 175.115 85.115Z" fill="white"/>
<path d="M98.1792 87.4577C97.7536 90.4666 96.2259 92.7441 94.7726 92.5311C93.3187 92.3182 92.4948 89.7536 92.9207 86.7076C93.3466 83.6616 94.874 81.4211 96.3276 81.6341C97.7812 81.847 98.6055 84.4486 98.1795 87.4577H98.1792ZM160.386 90.9572C160.71 93.9848 159.775 96.5122 158.321 96.7067C156.868 96.901 155.423 94.5309 155.109 91.5034C154.794 88.4759 155.72 85.9022 157.182 85.754C158.645 85.6057 160.08 87.9297 160.386 90.9572Z" fill="#010101"/>
<g style="mix-blend-mode:multiply" opacity="0.3">
<g style="mix-blend-mode:multiply">
<path d="M68.2104 73.0978C69.9787 74.2738 71.6453 73.5517 72.0341 75.8753C72.423 78.1993 77.8021 98.5488 84.5417 100.873C95.578 104.715 109.466 100.956 111.317 99.7527C113.168 98.5491 122.01 78.829 123.501 78.051C124.991 77.2733 129.686 78.1346 130.694 78.5699C133.741 79.8658 139.323 101.262 140.879 102.345C147.683 107.141 169.459 106.752 170.505 105.455C171.551 104.159 179.764 85.4575 181.19 84.3375C183.328 82.7175 188.253 81.6156 188.383 82.3286C188.513 83.0413 184.43 83.6895 183.198 85.2449C181.968 86.8003 173.746 104.687 171.163 106.234C168.58 107.78 149.489 110.354 139.86 103.576C135.231 100.336 133.444 80.8379 129.815 79.8012C127.929 79.1803 125.905 79.1128 123.983 79.6067C121.714 81.097 118.538 97.6141 111.734 101.827C109.04 103.502 87.8472 107.577 81.5422 100.984C69.7472 88.6798 73.3115 77.6622 69.5063 76.0421C66.8771 74.9312 66.3309 73.5793 66.3956 72.6072C66.4606 71.6351 67.2379 72.4498 68.2104 73.0978ZM68.4048 68.9503C67.1732 68.4967 73.7189 71.2186 76.1355 71.0518C78.5518 70.8854 82.6161 69.2003 83.9124 68.7835C85.2086 68.367 77.8202 69.7094 76.0058 69.6258C74.1912 69.5426 69.1175 69.2003 68.4048 68.9503ZM119.075 72.5795C121.343 73.6164 122.381 76.1439 124.631 76.4033C126.88 76.6625 129.492 77.0513 130.723 76.3383C132.384 75.3583 134.124 74.519 135.926 73.8293C136.851 73.6349 129.121 74.8665 126.27 74.607C123.242 74.3105 119.918 72.709 119.075 72.5795ZM174.486 75.6256C173.561 75.2368 177.912 78.8011 179.208 78.6066C180.504 78.4122 182.912 76.931 183.837 76.5978C184.615 76.3383 180.727 77.3754 179.56 77.1807C177.833 76.7864 176.137 76.2667 174.486 75.6256Z" fill="#333333"/>
</g>
</g>
<g style="mix-blend-mode:multiply" opacity="0.3">
<g style="mix-blend-mode:multiply">
<path d="M77.2188 77.0512C82.9868 71.348 96.7169 73.2922 99.2167 73.8108C82.7277 75.0052 82.4315 76.2369 79.5523 79.1528C78.7446 84.6275 79.2946 90.2167 81.1538 95.4289C78.3207 93.7995 75.2932 78.9588 77.2188 77.0512ZM178.255 83.1804C173.293 76.7736 159.424 76.8939 156.877 77.0789C173.07 80.4306 173.191 81.7083 175.672 84.9578C175.755 90.4885 174.483 95.9555 171.969 100.882C174.968 99.6415 179.921 85.3285 178.255 83.1804Z" fill="#333333"/>
</g>
</g>
<g style="mix-blend-mode:multiply">
<g style="mix-blend-mode:multiply">
<path d="M79.8388 88.5871C80.4126 81.819 81.005 76.4308 94.3277 76.0144C104.993 75.6808 113.502 78.181 114.761 80.7452C115.548 82.3561 114.928 89.5592 109.586 96.1324C113.048 93.0493 118.511 81.0047 116.132 79.4675C107.447 73.9125 90.2078 73.7645 83.792 76.0696C82.1435 76.7865 80.6735 77.8583 79.4867 79.2084C79.3203 80.9025 79.2923 87.6426 79.8385 88.5871H79.8388Z" fill="#D0DDDC"/>
</g>
</g>
<g style="mix-blend-mode:multiply">
<g style="mix-blend-mode:multiply">
<path d="M80.2452 89.0404C82.273 102.123 106.252 98.1506 107.678 97.6324C107.585 98.3635 95.1048 101.826 84.606 97.8083C80.384 96.1879 80.0046 87.5407 80.2452 89.0408V89.0404ZM174.005 94.438C174.263 87.6518 174.338 82.2357 161.172 80.1802C150.627 78.5416 141.869 79.9858 140.313 82.3654C139.331 83.8743 139.063 91.0958 143.563 98.2803C140.498 94.7993 136.554 82.1706 139.109 80.9489C148.368 76.4863 165.56 78.4675 171.615 81.5412C173.167 82.4527 174.495 83.6989 175.504 85.189C175.457 86.8738 174.671 93.5677 174.005 94.4384V94.438Z" fill="#D0DDDC"/>
</g>
</g>
<g style="mix-blend-mode:multiply">
<g style="mix-blend-mode:multiply">
<path d="M173.551 94.8364C169.931 107.576 146.628 100.697 145.276 100.003C145.276 100.743 157.238 105.706 168.145 103.002C172.533 101.919 173.968 93.3734 173.551 94.8364Z" fill="#D0DDDC"/>
</g>
</g>
<g style="mix-blend-mode:screen" opacity="0.25">
<g style="mix-blend-mode:screen">
<path d="M97.0551 84.5174C97.5241 84.5174 97.9042 84.1372 97.9042 83.6683C97.9042 83.1993 97.5241 82.8191 97.0551 82.8191C96.5862 82.8191 96.2061 83.1993 96.2061 83.6683C96.2061 84.1372 96.5862 84.5174 97.0551 84.5174Z" fill="white"/>
</g>
</g>
<g style="mix-blend-mode:screen" opacity="0.25">
<g style="mix-blend-mode:screen">
<path d="M158.744 88.1468C159.213 88.1468 159.593 87.7666 159.593 87.2976C159.593 86.8287 159.213 86.4485 158.744 86.4485C158.275 86.4485 157.895 86.8287 157.895 87.2976C157.895 87.7666 158.275 88.1468 158.744 88.1468Z" fill="white"/>
</g>
</g>
<g style="mix-blend-mode:screen" opacity="0.1">
<g style="mix-blend-mode:screen">
<path d="M68.5986 72.2552C70.4501 74.3938 71.6076 74.5977 74.1536 74.2644C98.4748 71.0516 111.881 71.2184 118.491 77.4399C119.927 78.7917 119.14 73.4864 116.418 72.8108C95.9477 67.3946 81.1066 72.2552 77.9864 72.644C74.8663 73.0329 72.5518 72.3198 68.5986 72.2552ZM135.731 75.3659C135.184 75.9306 135.416 81.5598 138.063 79.4487C145.711 73.3567 161.718 74.8198 172.866 78.5231C171.014 75.0236 158.052 72.5608 150.701 72.6905C147.258 72.7647 137.24 73.8294 135.731 75.3659Z" fill="#D0DDDC"/>
</g>
</g>
<path d="M179.272 81.147C180.775 81.147 181.994 80.7668 181.994 80.2978C181.994 79.8289 180.775 79.4487 179.272 79.4487C177.769 79.4487 176.55 79.8289 176.55 80.2978C176.55 80.7668 177.769 81.147 179.272 81.147Z" fill="#D0DDDC"/>
<path d="M76.727 73.0701C76.727 73.2924 75.4493 73.2739 73.9494 73.0701C72.4496 72.8665 71.3017 72.4312 71.3388 72.1997C71.3758 71.9682 72.6165 71.9867 74.1162 72.1997C75.616 72.4126 76.764 72.8385 76.727 73.0701Z" fill="#D0DDDC"/>
<path d="M227.907 198.242C227.434 193.484 223.953 191.354 220.713 191.354C219.64 191.358 218.578 191.566 217.584 191.965L216.945 192.243L216.408 192.641C215.399 193.386 214.293 193.99 213.121 194.437C213.062 193.349 213.099 192.259 213.232 191.178V191.003C214.112 182.624 212.361 177.735 208.02 176.467C207.289 176.255 206.531 176.149 205.77 176.152C203.418 176.259 201.155 177.087 199.289 178.522C198.536 177.669 197.598 176.998 196.548 176.563C195.497 176.126 194.36 175.935 193.224 176.004C189.253 176.004 186.059 177.856 184.892 180.846C184.781 181.133 184.623 181.605 184.429 182.207C183.43 180.007 181.801 178.154 179.746 176.882C177.693 175.609 175.308 174.975 172.893 175.06C169.431 175.057 166.036 176.019 163.09 177.837L162.848 178.013C158.943 180.765 155.766 184.425 153.59 188.678C152.389 184.571 149.672 181.072 145.989 178.892L145.914 178.847L145.591 178.651C149.692 171.356 153.321 161.681 151.146 152.478C148.831 142.655 143.054 141.184 139.823 141.184C138.424 141.197 137.037 141.448 135.721 141.924H135.546C129.453 144.322 126.768 147.923 126.185 148.784C121.298 156.641 118.259 165.505 117.297 174.708C117.118 176.384 116.933 178.06 116.742 179.735C115.51 178.103 113.76 176.938 111.78 176.429C111.017 176.197 110.224 176.078 109.428 176.078C106.067 176.078 103.309 178.142 101.855 179.512C101.235 178.597 100.41 177.839 99.4457 177.299C98.4812 176.759 97.4039 176.452 96.2995 176.402H95.7533C92.5911 176.461 89.555 177.654 87.1985 179.763C86.5259 178.588 85.5496 177.615 84.372 176.947C83.1942 176.28 81.8585 175.941 80.5049 175.967H79.3569C75.3664 175.967 72.228 177.818 70.95 180.976C70.8343 181.282 70.7264 181.59 70.6265 181.901C67.4969 178.013 63.5067 176.189 58.1553 176.189H57.6182C54.2853 176.254 45.962 177.652 40.8423 189.151C40.0744 190.863 39.4549 192.638 38.9904 194.455C38.0686 194.037 37.0681 193.819 36.0556 193.817C34.9459 193.823 33.8539 194.095 32.8712 194.61C31.8884 195.126 31.0438 195.87 30.4083 196.78C29.6117 197.946 27.1028 202.048 28.3343 206.038C28.6647 207.094 29.2329 208.06 29.9952 208.863C30.7576 209.666 31.6938 210.283 32.7319 210.667C34.6485 211.417 37.0651 212.149 38.898 212.676C40.3744 215.966 42.6773 218.818 45.5826 220.953C48.351 222.934 51.6984 223.94 55.1001 223.813C59.6658 223.657 64.1568 222.61 68.3207 220.731L68.5707 220.619L68.6358 220.574C69.9411 221.92 71.6394 222.817 73.4869 223.138C74.2443 223.277 75.0129 223.349 75.7832 223.351C79.2363 223.351 81.662 221.638 83.8842 218.333C84.8785 219.8 86.2315 220.989 87.8146 221.786C89.3978 222.584 91.1584 222.963 92.9293 222.888C93.1423 222.888 93.3647 222.999 93.5962 222.999C95.6515 222.999 98.2252 222.24 100.392 218.786C101.286 220.365 102.596 221.669 104.179 222.555C105.763 223.441 107.559 223.877 109.372 223.813C111.811 223.758 114.209 223.174 116.4 222.101L116.511 222.046C117.677 221.426 118.631 220.898 119.409 220.444C122.893 222.339 126.793 223.344 130.759 223.37C131.582 223.372 132.404 223.329 133.221 223.24H133.656C143.842 221.24 150.451 218.795 154.404 216.953C157.847 220.781 162.654 223.108 167.792 223.434C168.505 223.49 169.218 223.517 169.922 223.517C174.231 223.531 178.475 222.471 182.272 220.435C183.319 221.567 184.603 222.455 186.031 223.036C186.952 223.421 187.94 223.619 188.938 223.619C195.271 223.619 198.196 216.102 199.039 213.537L200.576 209.454C201.969 210.993 203.759 212.118 205.751 212.704C206.977 213.053 208.245 213.227 209.52 213.222C216.463 213.222 223.176 208.297 224.231 207.482C225.589 206.39 226.64 204.965 227.285 203.346C227.928 201.727 228.143 199.969 227.907 198.242Z" fill="white"/>
<path d="M199.882 219.988C202.846 219.988 205.249 217.585 205.249 214.622C205.249 211.658 202.846 209.255 199.882 209.255C196.919 209.255 194.516 211.658 194.516 214.622C194.516 217.585 196.919 219.988 199.882 219.988Z" fill="white"/>
<path d="M199.896 211.467C200.31 211.467 200.719 211.549 201.101 211.708C201.483 211.866 201.83 212.099 202.121 212.392C202.413 212.685 202.645 213.033 202.802 213.415C202.959 213.798 203.039 214.208 203.037 214.622C203.037 215.246 202.852 215.857 202.504 216.376C202.157 216.895 201.663 217.299 201.086 217.538C200.509 217.776 199.874 217.837 199.262 217.715C198.65 217.591 198.088 217.29 197.646 216.848C197.206 216.405 196.907 215.842 196.786 215.229C196.666 214.615 196.731 213.981 196.972 213.405C197.213 212.828 197.62 212.337 198.14 211.992C198.66 211.647 199.272 211.464 199.896 211.467ZM199.896 211.986C199.197 211.986 198.527 212.263 198.032 212.758C197.538 213.252 197.261 213.923 197.261 214.622C197.261 215.321 197.538 215.991 198.032 216.485C198.527 216.98 199.197 217.258 199.896 217.258C200.595 217.254 201.262 216.975 201.756 216.482C202.249 215.987 202.529 215.32 202.532 214.622C202.532 213.923 202.254 213.252 201.76 212.758C201.266 212.263 200.595 211.986 199.896 211.986ZM199.992 212.887C200.251 212.873 200.51 212.905 200.757 212.983C200.915 213.044 201.049 213.154 201.139 213.297C201.235 213.452 201.283 213.633 201.276 213.816C201.28 213.925 201.263 214.035 201.226 214.138C201.189 214.241 201.132 214.336 201.057 214.417C200.885 214.592 200.659 214.703 200.415 214.731C200.547 214.803 200.667 214.895 200.77 215.004C200.912 215.161 201.039 215.33 201.152 215.51L201.562 216.151H200.77L200.279 215.427C200.115 215.181 199.937 215.017 199.937 214.949C199.879 214.89 199.81 214.844 199.733 214.812C199.624 214.794 199.513 214.794 199.404 214.812H199.268V216.178H198.626V212.887H199.992ZM200.265 213.447H199.268V214.281H199.746C199.947 214.288 200.15 214.269 200.347 214.225C200.425 214.206 200.493 214.156 200.538 214.089C200.583 214.015 200.606 213.93 200.606 213.843C200.61 213.746 200.581 213.65 200.524 213.57C200.455 213.5 200.363 213.456 200.265 213.447Z" fill="#E24C32"/>
<path d="M222.749 198.761C222.434 195.576 219.564 196.761 219.564 196.761C219.564 196.761 214.935 200.335 210.889 199.937C206.843 199.538 208.111 190.457 208.111 190.457C208.111 190.457 209.038 182.123 206.602 181.439C204.168 180.753 201.26 183.614 201.26 183.614C198.915 186.35 197.084 189.487 195.853 192.872L195.372 193.03C195.372 193.03 195.928 183.957 195.289 181.92C194.817 180.893 190.438 180.995 189.733 182.799C189.03 184.605 185.521 197.372 185.281 202.705C185.281 202.705 178.429 208.519 172.458 209.473C166.486 210.426 165.052 206.696 165.052 206.696C165.052 206.696 181.3 202.159 180.79 189.179C180.281 176.198 167.689 180.994 166.273 182.068C164.857 183.142 157.57 187.521 155.431 199.761C155.358 200.177 155.228 201.992 155.228 201.992C155.228 201.992 148.942 206.214 145.433 207.334C145.433 207.334 155.228 190.854 143.285 183.365C137.794 180.022 133.536 186.873 133.536 186.873C133.536 186.873 149.701 168.884 146.118 153.673C144.405 146.433 140.794 145.655 137.471 146.822C132.425 148.822 130.508 151.766 130.508 151.766C126.065 158.907 123.301 166.964 122.426 175.328C120.916 189.419 118.723 206.464 118.723 206.464C118.723 206.464 115.621 209.482 112.76 209.648C109.9 209.816 111.168 201.122 111.168 201.122C111.168 201.122 113.39 187.91 113.233 185.679C113.075 183.448 112.918 182.253 110.288 181.457C107.659 180.661 104.761 184.004 104.761 184.004C104.761 184.004 97.1969 195.474 96.558 197.224L96.1601 197.937L95.7618 197.465C95.7618 197.465 101.095 181.856 96.0028 181.624C90.9104 181.392 87.5587 187.179 87.5587 187.179C87.5587 187.179 81.745 196.891 81.504 198.002L81.1061 197.52C81.1061 197.52 83.5409 186.234 83.0223 183.448C82.9843 183.088 82.8705 182.742 82.6885 182.429C82.5064 182.117 82.2604 181.848 81.9664 181.637C81.6725 181.428 81.3374 181.282 80.9831 181.211C80.629 181.141 80.2637 181.145 79.9116 181.226C79.9116 181.226 76.5694 180.827 75.699 182.975C74.8287 185.123 71.6347 199.372 71.2368 203.918C71.2368 203.918 62.9039 209.88 57.3493 209.963C51.7943 210.047 52.4143 206.483 52.4143 206.483C52.4143 206.483 72.5512 199.585 67.0612 185.966C64.589 182.466 61.7283 181.337 57.6636 181.448C53.5993 181.559 48.5168 184.004 45.2578 191.327C43.8316 194.248 42.9978 197.423 42.8044 200.669C42.8044 200.669 39.323 201.381 37.4064 199.789C35.4902 198.196 34.5366 199.789 34.5366 199.789C34.5366 199.789 31.2682 204.464 34.5366 205.733C37.2599 206.699 40.0433 207.488 42.8691 208.094C43.7714 211.522 45.8199 214.537 48.6741 216.638C54.6456 221.175 66.1073 215.981 66.1073 215.981L70.8014 213.204C70.8014 213.204 70.9588 217.454 74.3846 218.083C77.8101 218.713 79.2451 218.037 85.2166 203.548C88.7161 196.141 88.92 196.529 88.92 196.529L89.318 196.437C89.318 196.437 86.6055 210.602 87.6422 214.426C88.6795 218.249 93.1973 217.851 93.1973 217.851C93.1973 217.851 95.6692 218.509 97.6599 211.51C99.2271 206.508 101.203 201.643 103.567 196.965H104.039C104.039 196.965 102.372 211.269 104.965 215.888C107.557 220.508 114.094 217.333 114.094 217.333C115.934 216.415 117.715 215.383 119.426 214.241C123.195 217.125 127.913 218.48 132.638 218.037C149.923 214.639 156.061 210.028 156.061 210.028C157.151 212.372 158.856 214.375 160.996 215.825C163.135 217.275 165.628 218.116 168.208 218.259C171.179 218.548 174.176 218.177 176.986 217.17C179.795 216.163 182.347 214.546 184.456 212.435C184.456 212.435 184.373 216.731 188.04 218.249C191.706 219.768 194.169 211.639 194.169 211.639L200.298 195.113H200.853C200.853 195.113 201.177 205.723 207.223 207.473C213.268 209.223 221.11 203.186 221.11 203.186C221.11 203.186 223.073 201.946 222.749 198.761ZM51.4698 200.326C51.7107 190.854 57.9511 186.716 60.0712 188.789C62.1913 190.864 61.4227 195.317 57.3675 198.104C53.3126 200.891 51.4886 200.326 51.4886 200.326H51.4701H51.4698ZM132.304 163.635C132.304 163.635 137.962 148.905 139.313 156.071C140.665 163.237 127.444 184.577 127.444 184.577C127.611 179.791 132.304 163.635 132.304 163.635ZM139.091 204.631C135.388 214.426 126.268 210.445 126.268 210.445C126.268 210.445 125.24 206.936 128.185 197.141C131.128 187.346 138.054 191.178 138.054 191.178C138.054 191.178 142.795 194.835 139.091 204.631ZM164.172 200.326C164.172 200.326 163.292 197.224 166.561 191.252C169.828 185.281 172.375 188.549 172.375 188.549C172.375 188.549 175.152 191.576 171.976 196.113C171.122 197.408 169.961 198.471 168.596 199.205C167.23 199.941 165.704 200.326 164.153 200.326H164.172Z" fill="#E24C32"/>
</svg>
