<svg width="256" height="256" viewBox="0 0 256 256" fill="none" xmlns="http://www.w3.org/2000/svg">
<path d="M217.993 177.643C215.373 178.636 212.48 178.633 209.861 177.638C207.243 176.642 205.079 174.721 203.781 172.239C195.624 160.029 186.617 148.369 177.96 136.459L174.206 131.455C163.897 145.267 153.588 158.527 144.181 172.289C142.955 174.662 140.909 176.508 138.423 177.483C135.938 178.46 133.182 178.498 130.67 177.594L169.352 125.701L133.372 78.8112C135.962 77.876 138.795 77.8632 141.393 78.7749C143.992 79.6866 146.196 81.467 147.634 83.8154C155.991 96.0256 165.249 107.685 174.456 120.046C183.714 107.785 192.872 96.0756 201.429 83.9655C202.661 81.6317 204.709 79.8322 207.182 78.9095C209.654 77.9868 212.38 78.0053 214.84 78.9614L200.878 97.4768C194.623 105.733 188.468 114.04 181.963 122.097C181.438 122.567 181.019 123.141 180.732 123.784C180.444 124.426 180.296 125.122 180.296 125.826C180.296 126.529 180.444 127.224 180.732 127.867C181.019 128.51 181.438 129.084 181.963 129.554C193.923 145.417 205.782 161.33 217.993 177.643Z" fill="#0F0F0F"/>
<path d="M37.9922 125.05C39.043 120.046 39.6936 114.591 41.1448 109.487C49.802 78.7116 85.0815 65.9009 109.351 84.9669C123.563 96.1262 127.117 111.94 126.416 129.754H46.3491C45.0481 161.581 68.0172 180.797 97.3917 170.989C102.157 169.284 106.422 166.42 109.803 162.655C113.185 158.889 115.574 154.341 116.758 149.42C118.309 144.416 120.811 143.566 125.565 145.017C124.782 151.109 122.628 156.944 119.265 162.084C115.903 167.224 111.418 171.534 106.149 174.691C97.4438 179.452 87.4563 181.338 77.6145 180.08C67.7727 178.822 58.5809 174.484 51.3533 167.686C44.2032 159.646 39.8798 149.489 39.043 138.762C39.043 137.061 38.3925 135.359 38.0422 133.758C38.0088 130.789 37.9922 127.886 37.9922 125.05ZM46.4492 122.898H118.86C118.409 99.8293 103.847 83.4656 84.431 83.3155C62.8129 83.0153 47.35 99.0286 46.3992 122.798L46.4492 122.898Z" fill="#0F0F0F"/>
</svg>
