<svg width="256" height="256" viewBox="0 0 256 256" fill="none" xmlns="http://www.w3.org/2000/svg">
<path d="M0 56C0 25.0721 25.0721 0 56 0H200C230.928 0 256 25.0721 256 56V200C256 230.928 230.928 256 200 256H56C25.0721 256 0 230.928 0 200V56Z" fill="#0F172A"/>
<path d="M27.8164 124.5C28.984 118.94 29.7069 112.879 31.3193 107.208C40.9384 73.0129 80.1378 58.7788 107.104 79.9632C122.895 92.3624 126.843 109.933 126.065 129.727H37.1019C35.6563 165.09 61.1775 186.441 93.8158 175.543C99.1102 173.649 103.849 170.467 107.606 166.283C111.363 162.099 114.018 157.045 115.333 151.578C117.057 146.018 119.837 145.073 125.119 146.685C124.249 153.454 121.856 159.938 118.119 165.649C114.383 171.36 109.4 176.149 103.546 179.657C93.8737 184.947 82.7764 187.042 71.8411 185.644C60.9058 184.246 50.6927 179.426 42.6621 171.873C34.7175 162.94 29.9137 151.654 28.984 139.735C28.984 137.845 28.2612 135.954 27.872 134.175C27.8349 130.876 27.8164 127.651 27.8164 124.5ZM37.2131 122.109H117.669C117.168 96.4769 100.988 78.2951 79.415 78.1283C55.3949 77.7947 38.214 95.5873 37.1575 121.998L37.2131 122.109Z" fill="white"/>
<path d="M228.183 182.922C225.272 184.025 222.058 184.022 219.148 182.916C216.239 181.809 213.835 179.675 212.392 176.917C203.329 163.35 193.321 150.395 183.702 137.162L179.531 131.602C168.077 146.948 156.623 161.682 146.17 176.973C144.808 179.609 142.535 181.66 139.773 182.744C137.011 183.829 133.949 183.872 131.158 182.867L174.138 125.208L134.16 73.1086C137.038 72.0695 140.186 72.0552 143.073 73.0682C145.96 74.0812 148.409 76.0594 150.007 78.6688C159.292 92.2356 169.579 105.191 179.809 118.925C190.096 105.302 200.271 92.2912 209.779 78.8356C211.148 76.2424 213.423 74.243 216.171 73.2178C218.918 72.1926 221.947 72.2131 224.68 73.2754L209.167 93.8481C202.217 103.022 195.378 112.252 188.15 121.204C187.567 121.726 187.101 122.364 186.782 123.078C186.463 123.792 186.298 124.565 186.298 125.347C186.298 126.128 186.463 126.901 186.782 127.615C187.101 128.329 187.567 128.967 188.15 129.489C201.439 147.115 214.616 164.796 228.183 182.922Z" fill="white"/>
</svg>
