<svg width="256" height="256" viewBox="0 0 256 256" fill="none" xmlns="http://www.w3.org/2000/svg">
<g clip-path="url(#clip0_30_672)">
<path d="M196 0H60C26.8629 0 0 26.8629 0 60V196C0 229.137 26.8629 256 60 256H196C229.137 256 256 229.137 256 196V60C256 26.8629 229.137 0 196 0Z" fill="#049789"/>
<path d="M128 38C78.3106 38 38 78.3106 38 128C38 177.689 78.3106 218 128 218C177.689 218 218 177.689 218 128C218 78.3106 177.689 38 128 38ZM123.311 200.145V143.691H91.9278L137.018 55.8559V112.309H167.229L123.311 200.145Z" fill="white"/>
</g>
<defs>
<clipPath id="clip0_30_672">
<rect width="256" height="256" fill="white"/>
</clipPath>
</defs>
</svg>
