<svg width="256" height="256" viewBox="0 0 256 256" fill="none" xmlns="http://www.w3.org/2000/svg">
<path d="M196 0H60C26.8629 0 0 26.8629 0 60V196C0 229.137 26.8629 256 60 256H196C229.137 256 256 229.137 256 196V60C256 26.8629 229.137 0 196 0Z" fill="#049789"/>
<path d="M128 28C72.7896 28 28 72.7896 28 128C28 183.21 72.7896 228 128 228C183.21 228 228 183.21 228 128C228 72.7896 183.21 28 128 28ZM122.79 208.161V145.435H87.9198L138.02 47.8399V110.565H171.587L122.79 208.161Z" fill="white"/>
</svg>
