<svg width="256" height="256" viewBox="0 0 256 256" fill="none" xmlns="http://www.w3.org/2000/svg">
<path d="M0.000976562 56C0.000976562 25.0721 25.073 0 56.001 0H200.001C230.929 0 256.001 25.0721 256.001 56V200C256.001 230.928 230.929 256 200.001 256H56.001C25.073 256 0.000976562 230.928 0.000976562 200V56Z" fill="#22272E"/>
<path d="M65.7299 102.588C63.7263 106.43 60.5867 109.557 56.7402 111.545L106.092 161.134L117.99 155.099L65.7299 102.588ZM130.826 167.997L118.928 174.032L143.935 199.16C145.939 195.318 149.079 192.189 152.926 190.202L130.826 167.997Z" fill="#A730B8"/>
<path d="M187.926 122.21L159.986 136.383L162.046 149.572L193.659 133.536C190.628 130.441 188.626 126.486 187.926 122.21ZM143.766 144.61L77.7051 178.121C80.7364 181.215 82.739 185.17 83.4393 189.447L145.826 157.799L143.766 144.61Z" fill="#5496BE"/>
<path d="M122.522 62.0652L90.6449 124.354L100.056 133.81L133.807 67.8614C129.539 67.1387 125.598 65.1144 122.522 62.0652ZM82.3543 140.554L66.208 172.104C70.476 172.827 74.4169 174.85 77.4925 177.9L91.7652 150.01L82.3543 140.554Z" fill="#CE3D1A"/>
<path d="M56.4657 111.683C53.2144 113.312 49.5965 114.069 45.9655 113.88C45.2861 113.843 44.609 113.772 43.9365 113.669L53.3647 174.029C56.616 172.401 60.2338 171.644 63.8649 171.833C64.5439 171.87 65.2206 171.941 65.8927 172.045L56.4657 111.683Z" fill="#D0188F"/>
<path d="M83.4896 189.745C83.7054 191.148 83.7791 192.567 83.7094 193.984C83.5486 196.873 82.7939 199.699 81.4922 202.283L141.788 211.968C141.572 210.567 141.498 209.146 141.568 207.73C141.729 204.84 142.484 202.014 143.786 199.43L83.4896 189.745Z" fill="#5B36E9"/>
<path d="M193.871 133.756L166.041 188.138C170.309 188.861 174.251 190.886 177.327 193.935L205.158 139.553C200.889 138.831 196.947 136.806 193.871 133.756Z" fill="#30B873"/>
<path d="M155.914 56.8411C153.91 60.6825 150.77 63.8108 146.923 65.7985L190.022 109.104C192.026 105.262 195.166 102.134 199.013 100.147L155.914 56.8411Z" fill="#EBE305"/>
<path d="M116.576 50.5199L62.0928 78.1559C65.1236 81.2499 67.126 85.2052 67.8264 89.4812L122.309 61.8439C119.279 58.7502 117.276 54.7954 116.576 50.5199Z" fill="#F47601"/>
<path d="M146.823 65.8485C143.528 67.5375 139.846 68.3258 136.15 68.1334C135.534 68.0961 134.92 68.0316 134.31 67.9402L139.136 98.8722L152.305 100.987L146.823 65.8485ZM141.941 116.855L153.351 189.987C156.565 188.411 160.126 187.681 163.699 187.867C164.435 187.909 165.169 187.99 165.897 188.108L155.11 118.969L141.941 116.855Z" fill="#57C115"/>
<path d="M67.8655 89.7133C68.0896 91.1364 68.1671 92.5788 68.0967 94.0178C67.938 96.8848 67.1945 99.689 65.9121 102.258L96.8395 107.23L102.918 95.3478L67.8655 89.7133ZM120.872 98.2335L114.793 110.116L187.867 121.863C187.658 120.477 187.586 119.074 187.656 117.674C187.818 114.767 188.581 111.926 189.897 109.329L120.872 98.2335Z" fill="#DBB210"/>
<path d="M136.254 66.2235C146.791 66.798 155.798 58.7135 156.373 48.1663C156.946 37.6192 148.87 28.6033 138.331 28.0288C127.794 27.4543 118.787 35.5387 118.212 46.0859C117.639 56.6331 125.716 65.6489 136.254 66.2235Z" fill="#FFCA00" fill-opacity="0.995968"/>
<path d="M207.603 137.915C218.141 138.49 227.148 130.406 227.722 119.858C228.297 109.311 220.219 100.295 209.682 99.721C199.145 99.1464 190.137 107.231 189.563 117.778C188.989 128.325 197.066 137.341 207.603 137.915Z" fill="#64FF00" fill-opacity="0.995968"/>
<path d="M161.516 227.971C172.054 228.546 181.062 220.461 181.635 209.914C182.209 199.367 174.133 190.351 163.595 189.776C153.058 189.202 144.05 197.287 143.476 207.833C142.901 218.381 150.979 227.397 161.516 227.971Z" fill="#00A3FF" fill-opacity="0.995968"/>
<path d="M61.6826 211.937C72.22 212.511 81.2276 204.426 81.8015 193.88C82.3756 183.332 74.2986 174.317 63.7611 173.742C53.2236 173.167 44.216 181.251 43.6421 191.799C43.068 202.346 51.145 211.362 61.6826 211.937Z" fill="#9500FF" fill-opacity="0.995968"/>
<path d="M46.0692 111.971C56.6067 112.545 65.6143 104.461 66.1882 93.9138C66.7623 83.3667 58.6853 74.3508 48.1477 73.7763C37.6103 73.2017 28.6027 81.2861 28.0288 91.8333C27.4548 102.38 35.5318 111.397 46.0692 111.971Z" fill="#FF0000" fill-opacity="0.995968"/>
</svg>
