<svg width="256" height="256" viewBox="0 0 256 256" fill="none" xmlns="http://www.w3.org/2000/svg">
<path d="M71.9501 105.13C70.1468 108.587 67.3212 111.401 63.8594 113.19L108.276 157.821L118.984 152.389L71.9501 105.13ZM130.537 163.997L119.829 169.429L142.335 192.044C144.138 188.587 146.964 185.771 150.427 183.982L130.537 163.997Z" fill="#A730B8"/>
<path d="M181.925 122.789L156.779 135.545L158.633 147.415L187.085 132.982C184.357 130.197 182.555 126.637 181.925 122.789ZM142.181 142.949L82.7266 173.109C85.4547 175.893 87.2571 179.453 87.8874 183.302L144.036 154.819L142.181 142.949Z" fill="#5496BE"/>
<path d="M123.062 68.6587L94.3721 124.718L102.843 133.229L133.218 73.8753C129.377 73.2249 125.83 71.403 123.062 68.6587ZM86.9106 139.298L72.3789 167.694C76.2201 168.344 79.7669 170.165 82.5349 172.91L95.3804 147.809L86.9106 139.298Z" fill="#CE3D1A"/>
<path d="M63.6103 113.315C60.6841 114.781 57.428 115.462 54.16 115.292C53.5486 115.258 52.9392 115.194 52.334 115.102L60.8194 169.426C63.7455 167.961 67.0016 167.279 70.2695 167.449C70.8806 167.483 71.4896 167.547 72.0946 167.641L63.6103 113.315Z" fill="#D0188F"/>
<path d="M87.9324 183.571C88.1267 184.833 88.193 186.11 88.1303 187.385C87.9856 189.986 87.3063 192.529 86.1348 194.855L140.401 203.571C140.207 202.31 140.14 201.031 140.203 199.756C140.347 197.156 141.027 194.613 142.199 192.287L87.9324 183.571Z" fill="#5B36E9"/>
<path d="M187.275 133.18L162.229 182.125C166.07 182.775 169.618 184.597 172.386 187.342L197.434 138.398C193.591 137.748 190.044 135.926 187.275 133.18Z" fill="#30B873"/>
<path d="M153.113 63.957C151.31 67.4144 148.484 70.2298 145.021 72.0187L183.811 110.993C185.614 107.536 188.441 104.721 191.903 102.932L153.113 63.957Z" fill="#EBE305"/>
<path d="M117.71 58.2678L68.6758 83.1403C71.4035 85.9249 73.2057 89.4846 73.8361 93.333L122.87 68.4595C120.143 65.6751 118.341 62.1158 117.71 58.2678Z" fill="#F47601"/>
<path d="M144.932 72.0635C141.967 73.5836 138.653 74.293 135.326 74.1199C134.772 74.0863 134.219 74.0283 133.67 73.946L138.014 101.785L149.866 103.688L144.932 72.0635ZM140.538 117.969L150.807 183.788C153.699 182.37 156.905 181.712 160.12 181.88C160.783 181.918 161.443 181.99 162.099 182.097L152.39 119.872L140.538 117.969Z" fill="#57C115"/>
<path d="M73.8713 93.5417C74.073 94.8226 74.1428 96.1207 74.0794 97.4158C73.9365 99.9961 73.2674 102.52 72.1133 104.832L99.948 109.307L105.419 98.6128L73.8713 93.5417ZM121.577 101.21L116.106 111.905L181.873 122.477C181.684 121.229 181.62 119.966 181.683 118.706C181.828 116.09 182.516 113.533 183.7 111.196L121.577 101.21Z" fill="#DBB210"/>
<path d="M135.421 72.4011C144.905 72.9182 153.011 65.6421 153.528 56.1497C154.045 46.6573 146.776 38.543 137.291 38.0259C127.808 37.5089 119.701 44.7848 119.184 54.2773C118.668 63.7697 125.938 71.8841 135.421 72.4011Z" fill="#FFCA00" fill-opacity="0.995968"/>
<path d="M199.633 136.924C209.118 137.441 217.224 130.165 217.74 120.672C218.258 111.18 210.988 103.066 201.504 102.549C192.021 102.032 183.913 109.308 183.397 118.801C182.881 128.293 190.15 136.407 199.633 136.924Z" fill="#64FF00" fill-opacity="0.995968"/>
<path d="M158.157 217.974C167.64 218.491 175.747 211.215 176.264 201.723C176.78 192.23 169.511 184.116 160.028 183.599C150.544 183.081 142.437 190.358 141.921 199.85C141.403 209.343 148.673 217.457 158.157 217.974Z" fill="#00A3FF" fill-opacity="0.995968"/>
<path d="M68.3073 203.543C77.791 204.06 85.8978 196.784 86.4143 187.292C86.931 177.799 79.6617 169.685 70.178 169.168C60.6942 168.651 52.5874 175.926 52.0708 185.419C51.5542 194.911 58.8235 203.026 68.3073 203.543Z" fill="#9500FF" fill-opacity="0.995968"/>
<path d="M54.2545 113.574C63.7382 114.091 71.845 106.815 72.3616 97.3226C72.8782 87.8302 65.6089 79.7158 56.1252 79.1988C46.6415 78.6817 38.5347 85.9577 38.0181 95.4501C37.5015 104.943 44.7708 113.057 54.2545 113.574Z" fill="#FF0000" fill-opacity="0.995968"/>
</svg>
