<svg width="256" height="256" viewBox="0 0 256 256" fill="none" xmlns="http://www.w3.org/2000/svg">
<path d="M0.000976562 56C0.000976562 25.0721 25.073 0 56.001 0H200.001C230.929 0 256.001 25.0721 256.001 56V200C256.001 230.928 230.929 256 200.001 256H56.001C25.073 256 0.000976562 230.928 0.000976562 200V56Z" fill="#F8FAFC"/>
<path d="M94.3334 228C112.734 228 127.667 213.067 127.667 194.667V161.333H94.3334C75.9334 161.333 61 176.267 61 194.667C61 213.067 75.9334 228 94.3334 228Z" fill="#0ACF83"/>
<path d="M61 128C61 109.6 75.9334 94.6667 94.3334 94.6667H127.667V161.333H94.3334C75.9334 161.333 61 146.4 61 128Z" fill="#A259FF"/>
<path d="M61 61.3333C61 42.9333 75.9334 28 94.3334 28H127.667V94.6667H94.3334C75.9334 94.6667 61 79.7333 61 61.3333Z" fill="#F24E1E"/>
<path d="M127.666 28H160.999C179.399 28 194.333 42.9333 194.333 61.3333C194.333 79.7333 179.399 94.6667 160.999 94.6667H127.666V28Z" fill="#FF7262"/>
<path d="M194.333 128C194.333 146.4 179.399 161.333 160.999 161.333C142.599 161.333 127.666 146.4 127.666 128C127.666 109.6 142.599 94.6667 160.999 94.6667C179.399 94.6667 194.333 109.6 194.333 128Z" fill="#1ABCFE"/>
</svg>
