<svg width="256" height="256" viewBox="0 0 256 256" fill="none" xmlns="http://www.w3.org/2000/svg">
<path d="M97.9922 218C114.553 218 127.992 204.56 127.992 188V158H97.9922C81.4322 158 67.9922 171.44 67.9922 188C67.9922 204.56 81.4322 218 97.9922 218Z" fill="#0ACF83"/>
<path d="M67.9922 128C67.9922 111.44 81.4322 98 97.9922 98H127.992V158H97.9922C81.4322 158 67.9922 144.56 67.9922 128Z" fill="#A259FF"/>
<path d="M67.9922 68C67.9922 51.44 81.4322 38 97.9922 38H127.992V98H97.9922C81.4322 98 67.9922 84.56 67.9922 68Z" fill="#F24E1E"/>
<path d="M127.992 38H157.992C174.552 38 187.992 51.44 187.992 68C187.992 84.56 174.552 98 157.992 98H127.992V38Z" fill="#FF7262"/>
<path d="M187.992 128C187.992 144.56 174.552 158 157.992 158C141.432 158 127.992 144.56 127.992 128C127.992 111.44 141.432 98 157.992 98C174.552 98 187.992 111.44 187.992 128Z" fill="#1ABCFE"/>
</svg>
