<svg width="256" height="256" viewBox="0 0 256 256" fill="none" xmlns="http://www.w3.org/2000/svg">
<path d="M91.7817 190.983C84.9245 185.589 77.6099 180.419 72.6115 173.137C62.0941 160.296 53.9961 145.429 48.46 129.807C45.1138 119.648 43.9678 108.757 39.6541 98.9902C35.1416 91.8968 40.4274 84.1427 48.1972 81.888C51.6565 81.2241 57.739 77.9611 50.3968 80.2933C43.8143 85.1228 43.1773 75.9095 49.9271 75.326C54.5336 74.7137 56.2293 70.9427 54.654 67.548C49.7092 64.3235 66.6445 60.7796 58.1234 55.9681C49.2466 46.3911 70.54 44.5475 65.2865 55.4241C64.0291 63.7876 80.1653 53.8911 76.4213 63.5493C80.2267 68.1874 90.6715 64.6049 90.4124 71.1118C95.9558 71.4929 97.8583 76.1571 103.062 76.5152C108.456 78.9507 118.232 80.87 120.067 86.9476C114.717 91.1837 102.327 78.1974 101.731 89.9235C103.347 107.246 102.936 125.09 109.274 141.586C112.272 151.574 119.539 159.437 126.101 167.216C132.381 174.835 140.887 180.199 149.556 184.715C157.162 188.302 165.36 190.68 173.649 192.173C177.01 189.601 182.945 180.042 188.19 184.073C188.438 188.603 177.781 193.541 187.688 193.04C193.506 191.286 197.54 197.54 202.331 191.899C206.745 197.126 220.676 188.558 217.536 199.245C213.289 201.984 207.096 200.328 202.843 204.097C195.829 200.595 190.247 207.232 182.483 206.393C173.861 207.937 165.089 208.56 156.348 208.573C142.008 207.44 127.363 206.963 113.721 201.97C106.036 199.737 98.5361 195.36 91.7817 190.983ZM103.893 196.23C111.397 199.476 118.735 202.896 126.96 203.927C140.008 205.743 153.482 208.534 166.577 205.988C160.65 203.312 154.523 207.03 148.618 204.074C141.538 205.598 133.938 203.686 126.74 202.744C118.553 199.098 109.718 196.591 102.052 191.857C92.4729 188.358 107.006 196.345 109.593 196.991C115.582 200.39 103.008 195.249 101.236 193.836C96.22 191.022 95.5808 191.611 100.739 194.468C101.778 195.075 102.805 195.713 103.893 196.23ZM89.6134 186.139C96.8853 188.833 89.5813 181.026 86.2491 181.479C84.7727 178.918 80.6084 177.3 83.5459 175.923C78.262 177.758 78.0107 168.948 75.527 170.207C69.9371 168.442 73.3514 162.188 66.6928 158.349C66.085 154.302 60.0771 150.793 58.1609 144.69C57.3146 141.566 51.3734 132.592 55.023 140.944C58.1306 148.983 63.598 155.867 68.1481 162.743C71.6811 169.291 75.8529 176.134 82.2872 180.219C84.4562 182.299 86.5504 185.487 89.6134 186.139ZM68.6645 163.138C68.9183 162.04 69.9944 165.515 68.6645 163.138V163.138ZM98.3222 189.368C99.9326 188.647 96.0067 188.46 98.3222 189.368V189.368ZM102.27 190.808C101.861 188.82 100.468 191.92 102.27 190.808V190.808ZM107.211 192.869C109.563 190.629 103.585 191.457 107.211 192.869V192.869ZM115.68 197.59C117.11 195.476 111.104 196.792 115.68 197.59V197.59ZM99.4173 186.252C103.071 183.889 94.698 186.22 99.4173 186.252V186.252ZM103.124 188.101C103.021 186.851 101.803 188.661 103.124 188.101V188.101ZM121.651 199.664C124.628 201.544 139.041 203.783 130.017 200.434C128.507 200.753 113.281 196.129 121.651 199.664ZM92.2394 176.758C91.9497 175.504 87.6166 175.375 92.2394 176.758V176.758ZM100.864 181.785C103.109 180.22 96.2052 180.577 100.864 181.785V181.785ZM108.118 186.232C111.339 185.018 102.894 185.012 108.118 186.232V186.232ZM88.7298 172.936C92.2246 175.616 102.823 173.279 94.0818 171.336C90.103 169.215 81.1355 167.764 87.248 172.615L88.7298 172.936ZM113.032 187.768C114.487 185.288 106.927 186.352 113.032 187.768V187.768ZM105.648 181.899C114.193 184.317 98.4614 176.495 103.539 181.01L104.664 181.519L105.648 181.899ZM120.453 190.457C128.546 190.535 113.143 189.341 120.453 190.457V190.457ZM85.6159 168.253C85.2999 166.746 83.6188 168.38 85.6159 168.253V168.253ZM134.143 198.136C134.359 195.413 131.502 200.162 134.143 198.136V198.136ZM99.4269 176.711C98.9374 175.278 96.8982 176.653 99.4269 176.711V176.711ZM86.3835 167.308C91.0297 167.028 80.0225 165.261 86.3835 167.308V167.308ZM70.9317 157.32C70.3534 155.092 65.8759 153.316 70.9317 157.32V157.32ZM111.497 183.064C110.645 182.092 111.096 183.276 111.497 183.064V183.064ZM136.745 198.558C136.664 197.074 135.37 199.119 136.745 198.558V198.558ZM109.262 180.756C109.717 178.845 105.3 180.177 109.262 180.756V180.756ZM90.4518 168.835C93.9083 168.465 84.9146 166.498 90.4518 168.835V168.835ZM122.27 188.607C127.657 186.472 117.021 187.564 122.27 188.607V188.607ZM105.72 177.372C111.928 178.172 98.3333 173.149 104.357 176.922L105.72 177.372ZM127.295 190.638C133.091 187.172 131.18 198.751 137.129 191.615C142.996 187.331 132.061 196.912 139.292 192.38C144.522 188.882 152.246 194.038 157.126 195.719C160.635 195.547 164.045 198.754 167.643 196.803C174.568 194.938 154.102 194.037 159.467 190.728C153.13 192.571 148.449 188.529 145.331 184.47C138.223 182.829 130.005 179.195 126.458 172.906C125.012 170.544 128.547 173.238 125.21 169.378C120.927 165.568 118.789 161.245 115.913 156.614C112.478 154.782 112.078 149.388 111.732 156.433C111.758 151.987 107.584 148.994 106.566 150.238C106.548 145.957 111.032 148.103 107.893 144.935C107.217 140.497 104.992 135.872 104.323 130.862C103.284 128.447 104.176 123.274 100.776 128.741C99.5373 134.52 100.365 121.641 102.291 125.888C104.821 121.554 101.384 122.063 101.243 122.665C102.89 119.009 102.285 113.822 100.813 115.8C101.69 111.925 102.2 101.537 99.4994 103.378C101.136 99.3254 102.604 84.8337 95.4979 90.359C92.6181 90.3994 87.6311 91.4043 85.2737 92.5767C92.665 96.651 84.5302 94.0481 81.5215 93.4005C81.1295 97.1705 78.1493 95.5399 74.4263 95.5769C80.3729 96.3126 71.5305 101.659 68.1192 99.5822C63.6887 101.7 71.9427 106.985 68.208 108.619C68.667 111.083 61.4206 107.73 61.9897 113.42C57.6886 111.61 61.3975 120.169 63.5492 117.274C70.8646 119.254 68.6991 123.768 68.8854 128.056C67.6935 130.555 63.0007 122.183 67.8403 122.571C64.0223 116.369 63.6169 120.329 60.4442 123.211C59.7062 123.419 68.5369 127.31 62.9951 129.234C67.8708 129.986 68.0095 134.252 69.002 136.952C71.9325 140.005 71.3327 133.582 74.8392 137.25C72.6203 133.982 63.086 128.042 70.7624 129.947C70.7214 126.658 69.3741 124.006 71.7259 124.071C74.0549 119.853 69.2867 134.47 74.5364 129.11C75.9895 128.475 76.3495 124.887 78.9616 129.448C82.7554 133.181 80.332 135.886 74.9802 132.467C75.9377 135.716 82.1395 136.876 80.974 141.956C82.2095 146.423 83.9381 144.778 85.4448 144.52C86.6268 148.861 87.298 145.669 87.3541 143.603C92.7659 144.761 91.4982 147.961 93.1916 150.196C96.9208 151.879 87.8538 138.785 94.2562 146.258C100.992 152.34 96.7825 154.879 90.7375 153.904C94.5634 153.596 95.7973 159.077 100.583 158.885C104.947 160.96 107.901 168.934 100.379 165.615C97.7704 163.263 88.5377 160.361 96.0787 164.835C103.043 168.06 108.575 169.99 115.293 174.038C120.1 177.47 122.176 181.401 123.999 182.179C119.959 184.108 111.823 180.638 117.864 179.574C114.096 178.889 109.858 176.982 113.467 181.678C116.536 184.24 124.34 183.968 125.739 184.258C124.553 186.872 122.518 187.079 125.788 187.282C122.14 189.226 126.957 189.526 127.295 190.638ZM119.836 169.574C117.617 167.253 117.043 162.905 119.442 166.688C120.672 167.182 123.383 173.792 119.836 169.574ZM144.128 185.004C145.512 184.914 144.168 186.055 144.128 185.004V185.004ZM116.332 163.883C116.247 160.374 117.134 166.589 116.332 163.883V163.883ZM113.918 160.635C111.126 155.241 117.437 162.162 113.918 160.635V160.635ZM84.6608 140.441C86.3008 140.004 85.4677 143.247 84.6608 140.441V140.441ZM107.946 153.062C108.953 149.28 109.129 156.236 107.946 153.062V153.062ZM91.4956 141.625C90.336 139.538 93.9212 143.582 91.4956 141.625V141.625ZM105.613 146.15C102.968 140.224 107.485 142.913 106.198 147.121L105.613 146.15ZM81.2673 129.913C80.085 127.97 78.1292 122.266 78.7589 120.525C79.3284 123.36 84.789 132.728 81.4374 124.405C77.7336 117.429 85.8647 126.67 86.7011 128.41C87.0906 130.142 84.416 127.937 86.2282 131.997C82.9233 127.375 84.2772 134.549 81.2673 129.913ZM73.7431 124.729C74.0528 120.209 75.4655 127.828 73.7431 124.729V124.729ZM77.1276 125.894C78.7426 122.483 79.8661 130.649 77.1276 125.894V125.894ZM68.9861 119.596C66.1848 116.812 64.1576 114.247 69.1172 117.868C71.0282 117.943 64.8714 112.033 69.5774 115.992C74.5259 116.894 72.021 124.105 68.9861 119.596ZM73.2627 119.484C74.8895 117.872 74.1263 121.072 73.2627 119.484V119.484ZM75.8941 120.328C73.4278 115.705 78.8874 122.266 75.8941 120.328V120.328ZM70.663 115.329C62.5195 108.081 80.8959 119.118 71.9934 116.672L70.6629 115.329H70.663ZM93.9956 128.885C90.4716 126.773 93.0617 114.01 94.2635 122.739C97.6894 121.63 94.0743 127.246 96.6296 127.194C96.2269 130.738 95.0837 132.012 93.9956 128.885ZM102.625 133.986C102.971 130.14 103.353 136.616 102.625 133.986V133.986ZM101.127 132.504C101.515 130.862 101.167 134.44 101.127 132.504V132.504ZM72.2605 112.947C67.0288 105.729 87.4652 120.248 75.6113 114.778C74.3726 114.454 72.8823 114.339 72.2605 112.947ZM88.8793 121.758C88.3842 115.681 89.985 122.765 88.8791 121.758H88.8793ZM101.497 129.853C102.473 126.39 101.57 132.142 101.497 129.853V129.853ZM73.062 110.192C76.1713 109.527 85.9478 115.654 76.9699 111.942C75.9724 110.838 73.8457 111.339 73.062 110.192ZM99.7634 123.501C100.096 117.286 101.619 119.788 99.7748 124.39L99.7635 123.501H99.7634ZM75.3766 108.03C76.6435 106.171 72.0134 99.6275 76.0439 105.682C77.7855 107.067 81.0865 108.001 78.1721 108.583C82.7556 112.627 77.0541 109.678 75.3766 108.03ZM98.4426 121.559C99.3179 114.48 99.2145 125.707 98.4426 121.559V121.559ZM72.7306 101.491C73.6982 101.077 73.2416 102.781 72.7306 101.491V101.491ZM78.7472 105.072C80.2956 101.823 81.6036 108.696 78.7472 105.072V105.072ZM95.7186 114.513C95.7022 113.265 96.0388 116.328 95.7186 114.513V114.513ZM94.7355 112.337C92.3799 106.526 96.9266 115.414 94.7355 112.337V112.337ZM93.2891 108.526C92.8938 106.125 94.633 111.543 93.2891 108.526V108.526ZM95.643 104.7C94.0266 101.851 97.6843 92.1472 98.0924 98.1658C96.3863 102.856 97.6002 105.479 98.7904 99.1887C100.988 94.2384 98.3156 108.958 95.643 104.7ZM98.062 90.2681C98.7665 89.4029 98.2183 91.3106 98.062 90.2681V90.2681ZM94.0223 169.868C93.0642 169.031 94.1427 170.4 94.0223 169.868V169.868ZM102.344 174.078C106.973 175.265 106.949 173.357 102.766 172.79C100.516 170.697 93.415 168.477 99.7704 172.531C100.191 173.596 101.521 173.572 102.344 174.078ZM85.9088 163.161C88.4591 165.063 95.5146 168.551 89.5418 163.885C91.5555 161.545 85.6874 160.3 87.634 158.735C82.6828 155.705 83.7282 155.974 87.197 156.07C81.2466 153.41 88.056 153.609 87.7353 152.247C85.4408 151.793 76.3387 148.2 81.6934 152.541C76.25 149.766 80.3963 153.576 78.751 153.173C73.1847 151.654 83.7081 157.412 77.867 155.983C81.0603 158.513 86.4624 162.465 79.2171 158.661C78.2624 160.035 84.4019 162.118 85.9088 163.161ZM94.6125 168.161C105.196 171.571 89.4242 163.995 94.6125 168.161V168.161ZM139.166 195.152C139.303 193.053 137.721 196.943 139.166 195.152V195.152ZM143.746 197.08C146.187 194.713 143.845 200.848 147.792 196.5C147.835 193.388 147.67 191.549 143.257 195.33C142.041 196.005 141.498 198.873 143.746 197.08ZM71.0541 151.428C70.3043 148.48 65.798 148.495 71.0541 151.428V151.428ZM75.944 154.632C74.1281 151.621 69.4651 151.906 75.944 154.632V154.632ZM103.762 171.409C106.478 173.821 116.237 173.179 107.062 171.706C105.703 169.696 98.4324 170.18 103.762 171.409ZM142.005 195.026C146.185 191.519 137.954 196.591 142.005 195.026V195.026ZM150.698 201C150.724 199.875 148.897 201.494 150.698 201V201ZM150.712 199.425C155.341 194.52 146.226 199.715 150.712 199.425V199.425ZM59.0272 141.358C55.0818 135.729 56.5746 133.199 52.7699 128.603C52.0496 125.088 46.2429 117.112 49.7666 125.562C52.9939 130.504 53.9531 138.155 59.0272 141.358ZM149.26 197.865C157.776 192.361 145.764 195.467 149.26 197.865V197.865ZM155.761 200.413C160.026 196.75 153.063 199.646 155.761 200.413V200.413ZM69.6046 145.206C70.8252 143.39 66.4525 144.973 69.6046 145.206V145.206ZM154.403 198.673C158.533 196.011 153.452 196.42 153.655 198.919L154.403 198.673ZM98.3635 163.352C98.2216 161.554 96.183 163.504 98.3635 163.352V163.352ZM101.827 165.344C100.726 163.119 100.135 165.694 101.827 165.344V165.344ZM161.029 200.472C166.319 196.656 157.822 199.742 159.919 201.195L161.029 200.472ZM159.003 199.494C163.313 195.882 154.453 201.094 159.003 199.494V199.494ZM169.353 206.386C172.247 204.449 165.838 205.759 169.353 206.386V206.386ZM72.2583 143.896C76.1368 144.765 87.7578 153.448 80.9019 144.496C77.3906 143.457 79.4965 134.874 75.9149 136.393C78.3188 140.409 77.8927 142.118 72.8455 139.587C66.502 136.49 69.2806 141.121 70.5204 142.398C68.8309 142.781 72.7551 143.863 72.2583 143.896ZM54.5879 129.941C55.2822 127.069 48.1945 114.142 51.2409 123.464C52.3406 125.416 52.2289 129.117 54.5879 129.941ZM87.0207 149.936C85.0235 148.266 86.9258 149.7 87.0207 149.936V149.936ZM91.9389 151.081C91.9363 148.038 86.5026 149.846 91.9389 151.081V151.081ZM134.558 177.949C133.746 175.87 131.345 177.9 134.558 177.949V177.949ZM136.605 179.444C136.303 178.28 135.424 179.668 136.605 179.444V179.444ZM153.497 190.084C155.122 188.883 151.47 189.931 153.497 190.084V190.084ZM63.4144 132.195C68.0616 130.395 58.4353 130.911 63.4144 132.195V132.195ZM130.806 174.652C130.755 171.643 127.843 175.397 130.806 174.652V174.652ZM61.5783 127.915C64.5634 126.907 58.8169 127.251 61.5783 127.915V127.915ZM70.2427 132.113C70.1886 131.124 69.3262 132.487 70.2427 132.113V132.113ZM175.922 196.917C179.761 196.139 188.508 198.87 189.923 195.899C185.261 195.786 173.795 192.61 173.252 196.657L174.273 196.817L175.922 196.917ZM72.9965 132.807C73.0632 129.758 70.6192 132.693 72.9965 132.807V132.807ZM50.2156 117.004C49.181 111.195 46.2807 116.125 50.2156 117.004V117.004ZM55.648 118.37C55.7147 116.504 50.6757 116.691 55.648 118.37V118.37ZM58.7524 119.894C57.8551 119.167 58.0501 120.813 58.7524 119.894V119.894ZM78.2862 132.425C79.2058 131.581 76.1091 131.8 78.2862 132.425V132.425ZM56.6847 116.456C56.1597 112.069 50.3929 115.798 56.6847 116.456V116.456ZM45.5474 109.229C45.389 107.204 44.4621 109.993 45.5474 109.229V109.229ZM47.2041 107.978C46.9338 105.577 45.7817 108.283 47.2041 107.978V107.978ZM56.3574 113.441C60.228 111.921 49.3073 110.297 55.5665 113.154L56.3574 113.441ZM178.86 189.11C181.338 186.839 175.712 188.408 178.86 189.11V189.11ZM193.66 196.781C194.653 193.845 191.16 197.168 193.66 196.781V196.781ZM57.2928 108.644C57.7006 105.804 54.2243 109.208 57.2928 108.644V108.644ZM44.2699 99.9188C43.5703 95.9083 43.666 88.8688 50.3576 91.2477C41.4253 93.0211 56.5397 102.35 54.631 94.9844C58.3868 95.1683 61.9782 92.7647 60.0072 96.4123C67.4072 95.595 72.5376 89.1782 79.6855 90.0773C85.2534 89.3405 91.3411 88.7817 97.3411 86.5405C102.274 86.1851 107.023 80.8737 104.319 77.7255C97.5917 77.1563 90.5495 77.9981 83.1137 79.4761C74.874 81.1889 67.3896 84.4434 59.0759 85.8403C50.9724 86.9289 60.7058 88.8396 58.3846 89.2652C54.1561 90.7324 63.4275 91.7218 57.8364 93.2685C54.3835 92.612 50.7894 91.4255 52.2644 87.7868C44.5019 88.7941 37.681 92.0157 43.8138 99.9151L44.2699 99.9186V99.9183V99.9188ZM62.9746 90.3925C64.7946 83.6877 72.7254 95.9098 65.9577 91.283C65.1494 90.6781 63.8199 90.1846 62.9746 90.3925ZM63.3287 87.1418C65.9555 85.1849 64.725 88.2389 63.3287 87.1418V87.1418ZM66.6641 87.1948C66.9012 84.1096 74.2995 88.8281 67.884 88.3055L66.6641 87.1948ZM71.2267 85.3603C72.8929 83.4134 71.7056 87.092 71.2267 85.3603V85.3603ZM72.3939 84.5787C75.1682 81.2452 88.1054 82.4512 78.6359 84.2536C76.0977 82.3428 74.1521 85.3804 72.3939 84.5787ZM89.2772 81.9762C88.8552 72.8704 97.665 85.212 89.2772 81.9762V81.9762ZM94.0678 81.9499C95.8193 77.3606 100.864 80.1083 94.8783 81.0278C95.0082 81.5161 94.7027 83.397 94.0678 81.9499ZM55.4038 106.289C60.6369 103.084 49.8483 103.508 55.4038 106.289V106.289ZM59.2731 107.363C61.1079 105.412 55.2864 106.572 59.2731 107.363V107.363ZM47.8723 99.2723C50.8625 96.9752 44.3338 98.3989 47.8723 99.2723V99.2723ZM202.395 195.942C202.482 193.277 200.11 197.142 202.395 195.942V195.942ZM186.694 185.226C187.14 182.159 184.676 185.495 186.694 185.226V185.226ZM206.713 196.975C210.894 196.989 219.38 195.677 210.283 195.681C208.856 195.903 201.967 195.856 206.713 196.975ZM62.6767 105.483C66.0602 105.25 67.9703 101.751 62.0223 101.952C52.8038 100.997 70.1556 105.108 60.8398 103.933C59.5879 104.762 62.604 105.712 62.6767 105.483ZM65.6566 106.991C65.3033 104.818 64.6103 108.146 65.6566 106.991V106.991ZM69.1913 97.5656C70.6596 95.7445 67.1596 97.0787 69.1913 97.5656V97.5656ZM57.9388 78.7564C63.9774 76.7022 72.2349 74.3938 75.0861 79.7679C72.1844 76.2755 73.9151 72.8374 76.6557 77.9436C80.5311 83.11 82.4711 75.5937 79.9506 73.8609C82.823 77.4298 86.09 79.1163 81.8737 74.0865C86.4554 68.5752 72.6998 74.8082 69.5733 74.7454C68.069 75.4206 54.0425 78.3226 57.9388 78.7564ZM61.4777 71.9788C64.9215 69.3795 73.3883 73.5249 67.9553 69.3956C67.4241 68.9264 56.0568 72.5269 61.4777 71.9788ZM74.0328 72.4971C78.0634 72.6 72.2943 67.0825 77.0972 69.5826C76.3084 67.0058 71.5053 66.5234 69.1571 65.4938C67.829 67.8498 71.8605 72.5287 74.0328 72.4971ZM63.6792 61.1001C65.0736 59.21 61.2355 62.0585 63.6792 61.1001V61.1001ZM68.8106 62.3284C75.3059 61.4669 67.155 59.5313 67.5019 62.2592L68.8106 62.3284ZM59.2292 54.8311C54.6558 48.861 67.8299 55.8347 63.1835 49.5837C59.2726 46.4695 55.5146 53.0882 59.2292 54.8311ZM117.921 86.4441C120.018 82.7256 109.261 81.4318 116.507 85.1262C117.175 85.3492 117.024 86.7013 117.921 86.4441Z" fill="#111827"/>
</svg>
