<svg width="256" height="256" viewBox="0 0 256 256" fill="none" xmlns="http://www.w3.org/2000/svg">
<path d="M0.000976562 56C0.000976562 25.0721 25.073 0 56.001 0H200.001C230.929 0 256.001 25.0721 256.001 56V200C256.001 230.928 230.929 256 200.001 256H56.001C25.073 256 0.000976562 230.928 0.000976562 200V56Z" fill="#F8FAFC"/>
<path d="M87.7661 197.87C80.1471 191.877 72.0197 186.132 66.4659 178.041C54.7799 163.774 45.7821 147.255 39.6309 129.897C35.9129 118.608 34.6396 106.507 29.8466 95.6557C24.8327 87.7743 30.7058 79.1586 39.3389 76.6533C43.1826 75.9156 49.9409 72.2901 41.7829 74.8814C34.469 80.2475 33.7613 70.0106 41.261 69.3622C46.3794 68.6819 48.2635 64.4919 46.5132 60.72C41.0189 57.1372 59.8359 53.1995 50.368 47.8534C40.5049 37.2123 64.1642 35.1639 58.327 47.249C56.9299 56.5418 74.8591 45.5457 70.6991 56.277C74.9273 61.4305 86.5325 57.4499 86.2446 64.6798C92.404 65.1032 94.5179 70.2857 100.3 70.6835C106.293 73.3897 117.156 75.5222 119.195 82.2751C113.249 86.9819 99.4832 72.5527 98.8211 85.5816C100.617 104.828 100.16 124.656 107.202 142.984C110.533 154.082 118.607 162.819 125.899 171.462C132.877 179.927 142.327 185.887 151.96 190.905C160.411 194.891 169.52 197.534 178.729 199.192C182.464 196.335 189.059 185.714 194.886 190.193C195.162 195.225 183.321 200.713 194.328 200.156C200.793 198.206 205.276 205.156 210.599 198.887C215.503 204.696 230.982 195.176 227.493 207.05C222.775 210.094 215.893 208.254 211.167 212.441C203.375 208.55 197.172 215.924 188.545 214.992C178.965 216.707 169.219 217.4 159.506 217.415C143.573 216.156 127.301 215.625 112.143 210.078C103.604 207.597 95.2711 202.734 87.7661 197.87ZM101.223 203.7C109.561 207.306 117.715 211.106 126.853 212.253C141.351 214.27 156.322 217.371 170.872 214.542C164.286 211.568 157.479 215.7 150.918 212.416C143.051 214.108 134.606 211.984 126.608 210.938C117.512 206.886 107.696 204.101 99.1779 198.841C88.5341 194.954 104.682 203.827 107.557 204.545C114.211 208.322 100.24 202.61 98.2704 201.04C92.6976 197.914 91.9874 198.567 97.7186 201.742C98.8726 202.417 100.014 203.125 101.223 203.7ZM85.3569 192.487C93.4368 195.481 85.3213 186.806 81.6187 187.31C79.9783 184.464 75.3514 182.666 78.6153 181.137C72.7442 183.176 72.4651 173.386 69.7054 174.785C63.4943 172.824 67.288 165.876 59.8896 161.61C59.2142 157.114 52.5388 153.215 50.4097 146.434C49.4694 142.962 42.868 132.992 46.9232 142.271C50.376 151.203 56.4509 158.853 61.5065 166.493C65.4321 173.767 70.0675 181.371 77.2167 185.91C79.6267 188.221 81.9536 191.763 85.3569 192.487ZM62.0803 166.932C62.3623 165.712 63.558 169.573 62.0803 166.932V166.932ZM95.0334 196.076C96.8226 195.275 92.4605 195.066 95.0334 196.076V196.076ZM99.42 197.676C98.9653 195.466 97.4173 198.911 99.42 197.676V197.676ZM104.909 199.965C107.523 197.477 100.881 198.397 104.909 199.965V199.965ZM114.32 205.211C115.908 202.862 109.236 204.324 114.32 205.211V205.211ZM96.2501 192.614C100.309 189.987 91.0064 192.578 96.2501 192.614V192.614ZM100.368 194.667C100.254 193.279 98.9011 195.29 100.368 194.667V194.667ZM120.954 207.516C124.262 209.604 140.277 212.093 130.249 208.372C128.572 208.725 111.655 203.587 120.954 207.516ZM88.2746 182.064C87.9528 180.672 83.1382 180.527 88.2746 182.064V182.064ZM97.8575 187.65C100.352 185.911 92.6812 186.307 97.8575 187.65V187.65ZM105.918 192.592C109.497 191.242 100.113 191.236 105.918 192.592V192.592ZM84.3752 177.818C88.2582 180.796 100.035 178.199 90.3218 176.04C85.9008 173.683 75.9371 172.071 82.7286 177.461L84.3752 177.818ZM111.378 194.298C112.995 191.542 104.595 192.724 111.378 194.298V194.298ZM103.173 187.777C112.667 190.463 95.188 181.773 100.829 186.788L102.08 187.355L103.173 187.777ZM119.623 197.285C128.616 197.372 111.501 196.045 119.623 197.285V197.285ZM80.9153 172.615C80.5641 170.94 78.6962 172.756 80.9153 172.615V172.615ZM134.834 205.818C135.074 202.793 131.9 208.069 134.834 205.818V205.818ZM96.2608 182.013C95.717 180.42 93.4512 181.947 96.2608 182.013V182.013ZM81.7681 171.564C86.9305 171.254 74.7003 169.29 81.7681 171.564V171.564ZM64.5995 160.466C63.9569 157.992 58.9819 156.018 64.5995 160.466V160.466ZM109.672 189.071C108.725 187.992 109.226 189.306 109.672 189.071V189.071ZM137.725 206.286C137.636 204.638 136.198 206.91 137.725 206.286V206.286ZM107.188 186.506C107.694 184.383 102.786 185.863 107.188 186.506V186.506ZM86.2884 173.261C90.1291 172.85 80.136 170.664 86.2884 173.261V173.261ZM121.642 195.23C127.627 192.858 115.809 194.072 121.642 195.23V195.23ZM103.253 182.746C110.151 183.636 95.0457 178.055 101.739 182.246L103.253 182.746ZM127.225 197.486C133.665 193.636 131.542 206.501 138.152 198.573C144.671 193.813 132.521 204.458 140.556 199.422C146.366 195.536 154.948 201.264 160.371 203.133C164.269 202.941 168.059 206.504 172.057 204.337C179.751 202.264 157.011 201.263 162.972 197.586C155.931 199.635 150.729 195.143 147.265 190.634C139.367 188.81 130.237 184.773 126.296 177.784C124.688 175.16 128.617 178.154 124.908 173.864C120.149 169.632 117.774 164.827 114.579 159.682C110.762 157.646 110.318 151.654 109.933 159.481C109.962 154.541 105.324 151.216 104.193 152.598C104.173 147.841 109.156 150.225 105.667 146.705C104.917 141.775 102.444 136.636 101.701 131.068C100.546 128.385 101.538 122.638 97.7599 128.713C96.3835 135.134 97.3031 120.823 99.4432 125.542C102.254 120.726 98.435 121.293 98.2785 121.961C100.108 117.899 99.4368 112.136 97.8011 114.334C98.7758 110.027 99.3421 98.4859 96.3414 100.532C98.1601 96.0283 99.7905 79.9264 91.8953 86.0655C88.6955 86.1105 83.1543 87.227 80.5351 88.5296C88.7476 93.0567 79.7089 90.1646 76.3659 89.445C75.9303 93.6338 72.619 91.8221 68.4823 91.8632C75.0897 92.6807 65.2648 98.6209 61.4744 96.3135C56.5517 98.6663 65.7228 104.539 61.5732 106.355C62.0832 109.093 54.0316 105.366 54.6639 111.688C49.8849 109.678 54.0059 119.187 56.3967 115.972C64.5249 118.172 62.1188 123.186 62.3258 127.951C61.0015 130.727 55.7873 121.425 61.1645 121.857C56.9223 114.965 56.4719 119.365 52.9467 122.567C52.1266 122.799 61.9386 127.122 55.781 129.26C61.1984 130.096 61.3525 134.836 62.4554 137.836C65.7115 141.227 65.045 134.092 68.9412 138.166C66.4757 134.536 55.882 127.936 64.4114 130.053C64.3658 126.398 62.8687 123.452 65.4819 123.523C68.0697 118.837 62.7717 135.078 68.6046 129.122C70.2193 128.417 70.6193 124.43 73.5216 129.498C77.7369 133.645 75.0442 136.651 69.0978 132.853C70.1617 136.462 77.0525 137.752 75.7576 143.396C77.1303 148.359 79.051 146.532 80.7252 146.244C82.0384 151.067 82.7842 147.521 82.8465 145.225C88.8597 146.513 87.4512 150.067 89.3326 152.551C93.4762 154.421 83.4018 139.873 90.5156 148.176C98 154.934 93.3225 157.755 86.6059 156.672C90.8569 156.328 92.2279 162.419 97.5452 162.205C102.394 164.512 105.677 173.372 97.3191 169.683C94.4202 167.07 84.1617 163.845 92.5405 168.817C100.279 172.4 106.425 174.544 113.889 179.042C119.231 182.856 121.538 187.223 123.563 188.087C119.074 190.232 110.034 186.376 116.746 185.194C112.56 184.432 107.851 182.314 111.861 187.531C115.271 190.378 123.942 190.076 125.497 190.398C124.179 193.302 121.918 193.533 125.551 193.758C121.498 195.918 126.849 196.252 127.225 197.486ZM118.938 174.082C116.472 171.503 115.835 166.673 118.5 170.876C119.866 171.424 122.879 178.768 118.938 174.082ZM145.928 191.226C147.466 191.126 145.973 192.395 145.928 191.226V191.226ZM115.044 167.759C114.949 163.86 115.936 170.765 115.044 167.759V167.759ZM112.362 164.15C109.26 158.157 116.272 165.846 112.362 164.15V164.15ZM79.854 141.713C81.6762 141.226 80.7505 144.83 79.854 141.713V141.713ZM105.726 155.736C106.845 151.534 107.041 159.262 105.726 155.736V155.736ZM87.4482 143.027C86.1598 140.708 90.1434 145.202 87.4482 143.027V143.027ZM103.135 148.056C100.196 141.472 105.215 144.459 103.784 149.135L103.135 148.056ZM76.0835 130.015C74.7698 127.856 72.5967 121.518 73.2963 119.583C73.9292 122.734 79.9964 133.142 76.2724 123.895C72.1572 116.143 81.1917 126.412 82.1211 128.344C82.5538 130.268 79.582 127.819 81.5956 132.33C77.9235 127.195 79.4278 135.165 76.0835 130.015ZM67.7233 124.255C68.0674 119.233 69.637 127.698 67.7233 124.255V124.255ZM71.4838 125.548C73.2782 121.759 74.5265 130.833 71.4838 125.548V125.548ZM62.4377 118.551C59.3252 115.458 57.0727 112.607 62.5834 116.632C64.7066 116.715 57.8658 110.147 63.0947 114.546C68.593 115.548 65.8098 123.561 62.4377 118.551ZM67.1895 118.426C68.9971 116.636 68.1491 120.191 67.1895 118.426V118.426ZM70.1133 119.364C67.3729 114.227 73.4392 121.518 70.1133 119.364V119.364ZM64.3009 113.81C55.2525 105.757 75.6708 118.02 65.7792 115.302L64.3008 113.81H64.3009ZM90.226 128.873C86.3104 126.525 89.1883 112.344 90.5237 122.043C94.3302 120.812 90.3135 127.052 93.1526 126.994C92.7053 130.931 91.4351 132.346 90.226 128.873ZM99.8147 134.54C100.199 130.266 100.623 137.462 99.8147 134.54V134.54ZM98.1495 132.894C98.5811 131.068 98.1941 135.044 98.1495 132.894V132.894ZM66.0759 111.163C60.2629 103.143 82.97 119.276 69.799 113.198C68.4227 112.838 66.7668 112.71 66.0759 111.163ZM84.5413 120.954C83.9912 114.201 85.7698 122.073 84.541 120.954H84.5413ZM98.5611 129.947C99.6453 126.1 98.6421 132.492 98.5611 129.947V129.947ZM66.9664 108.102C70.4213 107.363 81.284 114.171 71.3085 110.046C70.2002 108.82 67.8373 109.377 66.9664 108.102ZM96.6346 122.89C97.0039 115.984 98.6968 118.764 96.6474 123.878L96.6347 122.89H96.6346ZM69.5382 105.7C70.9459 103.635 65.8014 96.3639 70.2797 103.092C72.2148 104.63 75.8825 105.667 72.6443 106.315C77.7372 110.807 71.4021 107.532 69.5382 105.7ZM95.1672 120.733C96.1397 112.866 96.0248 125.341 95.1672 120.733V120.733ZM66.5982 98.4344C67.6734 97.9749 67.166 99.8674 66.5982 98.4344V98.4344ZM73.2834 102.414C75.0038 98.8032 76.4572 106.44 73.2834 102.414V102.414ZM92.1404 112.903C92.1222 111.517 92.4962 114.92 92.1404 112.903V112.903ZM91.0481 110.485C88.4308 104.028 93.4826 113.904 91.0481 110.485V110.485ZM89.4411 106.252C89.0018 103.583 90.9342 109.603 89.4411 106.252V106.252ZM92.0564 102C90.2604 98.835 94.3245 88.0525 94.778 94.7397C92.8823 99.9506 94.2312 102.865 95.5536 95.8764C97.9957 90.376 95.026 106.731 92.0564 102ZM94.7442 85.9646C95.5271 85.0032 94.9179 87.1229 94.7442 85.9646V85.9646ZM90.2557 174.408C89.1912 173.479 90.3895 175 90.2557 174.408V174.408ZM99.5021 179.086C104.645 180.405 104.619 178.285 99.9705 177.656C97.4704 175.33 89.5809 172.863 96.6424 177.367C97.1101 178.552 98.5874 178.524 99.5021 179.086ZM81.2407 166.957C84.0743 169.07 91.9138 172.945 85.2774 167.761C87.5148 165.161 80.9947 163.778 83.1576 162.039C77.6562 158.673 78.8178 158.972 82.672 159.078C76.0604 156.122 83.6264 156.343 83.2701 154.83C80.7207 154.325 70.6073 150.334 76.5569 155.157C70.5087 152.074 75.1157 156.306 73.2876 155.859C67.1028 154.172 78.7955 160.568 72.3054 158.981C75.8535 161.793 81.8558 166.183 73.8055 161.957C72.7447 163.483 79.5663 165.798 81.2407 166.957ZM90.9115 172.513C102.671 176.301 85.1466 167.883 90.9115 172.513V172.513ZM140.416 202.502C140.567 200.17 138.809 204.493 140.416 202.502V202.502ZM145.504 204.644C148.217 202.015 145.615 208.832 150 204C150.047 200.542 149.864 198.499 144.961 202.7C143.609 203.45 143.006 206.637 145.504 204.644ZM64.7355 153.92C63.9023 150.644 58.8954 150.661 64.7355 153.92V153.92ZM70.1686 157.48C68.1511 154.135 62.9699 154.452 70.1686 157.48V157.48ZM101.078 176.121C104.096 178.801 114.939 178.087 104.744 176.451C103.234 174.218 95.1558 174.756 101.078 176.121ZM143.569 202.362C148.214 198.465 139.068 204.101 143.569 202.362V202.362ZM153.228 209C153.258 207.75 151.227 209.548 153.228 209V209ZM153.244 207.25C158.387 201.8 148.26 207.572 153.244 207.25V207.25ZM51.3722 142.732C46.9884 136.477 48.6472 133.665 44.4197 128.559C43.6194 124.654 37.1675 115.791 41.0826 125.18C44.6686 130.671 45.7343 139.173 51.3722 142.732ZM151.631 205.517C161.093 199.401 147.746 202.853 151.631 205.517V205.517ZM158.854 208.347C163.593 204.278 155.857 207.496 158.854 208.347V208.347ZM63.1249 147.006C64.4812 144.988 59.6225 146.747 63.1249 147.006V147.006ZM157.345 206.415C161.934 203.457 156.288 203.911 156.514 206.687L157.345 206.415ZM95.0793 167.168C94.9216 165.171 92.6564 167.338 95.0793 167.168V167.168ZM98.9274 169.382C97.7043 166.91 97.0471 169.771 98.9274 169.382V169.382ZM164.707 208.414C170.585 204.174 161.144 207.602 163.474 209.217L164.707 208.414ZM162.457 207.326C167.245 203.314 157.401 209.104 162.457 207.326V207.326ZM173.957 214.984C177.172 212.832 170.051 214.287 173.957 214.984V214.984ZM66.0735 145.551C70.3829 146.517 83.2952 156.164 75.6775 146.218C71.776 145.063 74.1159 135.526 70.1363 137.215C72.8074 141.677 72.3339 143.576 66.7259 140.763C59.6776 137.322 62.7649 142.467 64.1424 143.886C62.2653 144.313 66.6255 145.515 66.0735 145.551ZM46.4397 130.045C47.2112 126.855 39.3359 112.491 42.7208 122.848C43.9427 125.018 43.8185 129.13 46.4397 130.045ZM82.4761 152.262C80.257 150.406 82.3706 152 82.4761 152.262V152.262ZM87.9407 153.535C87.9379 150.154 81.9004 152.162 87.9407 153.535V153.535ZM135.296 183.387C134.393 181.078 131.725 183.334 135.296 183.387V183.387ZM137.569 185.048C137.234 183.756 136.258 185.298 137.569 185.048V185.048ZM156.339 196.871C158.144 195.537 154.086 196.701 156.339 196.871V196.871ZM56.2469 132.55C61.4104 130.55 50.7146 131.123 56.2469 132.55V132.55ZM131.126 179.724C131.069 176.381 127.835 180.553 131.126 179.724V179.724ZM54.2068 127.795C57.5236 126.675 51.1385 127.057 54.2068 127.795V127.795ZM63.8339 132.459C63.7738 131.36 62.8156 132.875 63.8339 132.459V132.459ZM181.256 204.463C185.521 203.599 195.24 206.634 196.812 203.333C191.632 203.206 178.892 199.678 178.288 204.175L179.423 204.353L181.256 204.463ZM66.8937 133.23C66.9678 129.842 64.2522 133.103 66.8937 133.23V133.23ZM41.5816 115.672C40.432 109.217 37.2095 114.695 41.5816 115.672V115.672ZM47.6176 117.188C47.6917 115.116 42.0928 115.323 47.6176 117.188V117.188ZM51.0669 118.882C50.0699 118.075 50.2865 119.903 51.0669 118.882V118.882ZM72.7712 132.805C73.7929 131.867 70.3521 132.111 72.7712 132.805V132.805ZM48.7695 115.062C48.1861 110.187 41.7785 114.332 48.7695 115.062V115.062ZM36.3947 107.033C36.2187 104.782 35.1888 107.881 36.3947 107.033V107.033ZM38.2355 105.642C37.9352 102.975 36.655 105.981 38.2355 105.642V105.642ZM48.4058 111.713C52.7064 110.023 40.5723 108.219 47.527 111.394L48.4058 111.713ZM184.52 195.788C187.273 193.265 181.022 195.008 184.52 195.788V195.788ZM200.964 204.313C202.067 201.05 198.186 204.742 200.964 204.313V204.313ZM49.4451 106.382C49.8982 103.226 46.0357 107.008 49.4451 106.382V106.382ZM34.9753 96.6875C34.1979 92.2314 34.3042 84.4097 41.7394 87.053C31.8146 89.0234 48.6083 99.3885 46.4876 91.2049C50.6607 91.4092 54.6511 88.7386 52.4611 92.7914C60.6834 91.8833 66.3838 84.7535 74.3259 85.7526C80.5124 84.9339 87.2765 84.313 93.9433 81.8228C99.4242 81.4278 104.701 75.5264 101.697 72.0284C94.2217 71.3959 86.3971 72.3312 78.1351 73.9734C68.9798 75.8766 60.6638 79.4927 51.4263 81.0448C42.4224 82.2544 53.2374 84.3773 50.6582 84.8503C45.9599 86.4805 56.2615 87.5797 50.0492 89.2984C46.2125 88.5689 42.2192 87.2506 43.858 83.2075C35.233 84.3268 27.6542 87.9064 34.4684 96.6834L34.9753 96.6873V96.687V96.6875ZM55.7582 86.1028C57.7804 78.653 66.5924 92.2331 59.0728 87.0923C58.1746 86.4201 56.6975 85.8717 55.7582 86.1028ZM56.1517 82.4909C59.0703 80.3166 57.7032 83.7099 56.1517 82.4909V82.4909ZM59.8577 82.5497C60.1212 79.1217 68.3415 84.3646 61.2132 83.7838L59.8577 82.5497ZM64.9273 80.5114C66.7785 78.3482 65.4594 82.4355 64.9273 80.5114V80.5114ZM66.2241 79.643C69.3067 75.9391 83.6814 77.2791 73.1597 79.2818C70.3395 77.1587 68.1777 80.5337 66.2241 79.643ZM84.9834 76.7513C84.5144 66.6338 94.3032 80.3467 84.9834 76.7513V76.7513ZM90.3062 76.7221C92.2523 71.6229 97.8581 74.6759 91.2067 75.6975C91.3512 76.2401 91.0117 78.33 90.3062 76.7221ZM47.3462 103.765C53.1608 100.204 41.1735 100.676 47.3462 103.765V103.765ZM51.6455 104.959C53.6841 102.792 47.2158 104.08 51.6455 104.959V104.959ZM38.9779 95.9692C42.3003 93.4169 35.0462 94.9988 38.9779 95.9692V95.9692ZM210.669 203.38C210.766 200.419 208.131 204.714 210.669 203.38V203.38ZM193.224 191.474C193.72 188.065 190.982 191.772 193.224 191.474V191.474ZM215.467 204.527C220.113 204.543 229.542 203.085 219.435 203.09C217.848 203.337 210.194 203.284 215.467 204.527ZM55.4273 102.87C59.1866 102.612 61.309 98.723 54.7001 98.9465C44.4574 97.886 63.7372 102.454 53.3862 101.147C51.9953 102.068 55.3464 103.124 55.4273 102.87ZM58.7382 104.545C58.3457 102.132 57.5757 105.828 58.7382 104.545V104.545ZM62.6657 94.0729C64.2972 92.0494 60.4082 93.5319 62.6657 94.0729V94.0729ZM50.1629 73.1738C56.8724 70.8913 66.0475 68.3265 69.2155 74.2976C65.9914 70.4172 67.9143 66.5971 70.9595 72.2707C75.2655 78.0111 77.4211 69.6597 74.6204 67.7343C77.812 71.6998 81.442 73.5737 76.7573 67.985C81.848 61.8613 66.564 68.7869 63.0901 68.7171C61.4186 69.4673 45.8337 72.6917 50.1629 73.1738ZM54.095 65.6431C57.9215 62.755 67.329 67.361 61.2923 62.7729C60.7021 62.2515 48.0718 66.2521 54.095 65.6431ZM68.0452 66.219C72.5236 66.3333 66.1135 60.2028 71.45 62.9807C70.5736 60.1175 65.2368 59.5815 62.6277 58.4375C61.152 61.0553 65.6315 66.2541 68.0452 66.219ZM56.5412 53.5557C58.0904 51.4555 53.8259 54.6206 56.5412 53.5557V53.5557ZM62.2427 54.9205C69.4597 53.9632 60.4032 51.8126 60.7885 54.8435L62.2427 54.9205ZM51.5966 46.5901C46.5152 39.9567 61.153 47.7052 55.9903 40.7597C51.6449 37.2995 47.4694 44.6536 51.5966 46.5901ZM116.809 81.7156C119.14 77.584 107.187 76.1465 115.239 80.2513C115.981 80.4991 115.813 82.0014 116.809 81.7156Z" fill="#111827"/>
</svg>
