<svg width="256" height="256" viewBox="0 0 256 256" fill="none" xmlns="http://www.w3.org/2000/svg">
<path d="M0.000976562 56C0.000976562 25.0721 25.073 0 56.001 0H200.001C230.929 0 256.001 25.0721 256.001 56V200C256.001 230.928 230.929 256 200.001 256H56.001C25.073 256 0.000976562 230.928 0.000976562 200V56Z" fill="#22272E"/>
<path d="M146.927 28.0683L208.899 28L104.927 131.918L77.8302 158.863L47 127.996L146.927 28.0683ZM146.35 120.855C147.154 119.792 148.634 120.317 149.758 120.18L208.846 120.195L154.993 173.995L124.003 143.195L146.35 120.855Z" fill="#44D1FD"/>
<path d="M93.1133 174.047L124.004 143.195L154.994 173.995L155.123 174.131L124.012 204.954L93.1133 174.047Z" fill="#1FBCFD"/>
<path d="M124.011 204.954L155.122 174.131L208.867 227.93C188.623 227.976 168.385 227.915 148.149 227.96C146.995 228.218 146.282 227.164 145.545 226.511L124.011 204.954Z" fill="#08589C"/>
</svg>
