<svg width="256" height="256" viewBox="0 0 256 256" fill="none" xmlns="http://www.w3.org/2000/svg">
<path d="M144.926 38.0615L200.701 38L107.126 131.526L82.7394 155.777L54.9922 127.996L144.926 38.0615ZM144.407 121.569C145.131 120.613 146.463 121.085 147.474 120.962L200.653 120.975L152.186 169.395L124.295 141.675L144.407 121.569Z" fill="#44D1FD"/>
<path d="M96.4941 169.442L124.296 141.675L152.187 169.395L152.303 169.518L124.303 197.258L96.4941 169.442Z" fill="#1FBCFD"/>
<path d="M124.303 197.258L152.303 169.518L200.674 217.937C182.454 217.978 164.24 217.923 146.027 217.964C144.989 218.196 144.347 217.247 143.684 216.66L124.303 197.258Z" fill="#08589C"/>
</svg>
