<svg width="256" height="256" viewBox="0 0 256 256" fill="none" xmlns="http://www.w3.org/2000/svg">
<g clip-path="url(#clip0_30_309)">
<path d="M196 0H60C26.8629 0 0 26.8629 0 60V196C0 229.137 26.8629 256 60 256H196C229.137 256 256 229.137 256 196V60C256 26.8629 229.137 0 196 0Z" fill="#EE524F"/>
<path d="M70.7374 97.7957H45.4746V78.8487V59.9016H70.7374H96.0002V78.8487V97.7957H70.7374Z" fill="#B61B1B"/>
<path d="M70.9112 183.838H45.6484V164.891V145.944H70.9112H96.174V164.891V183.838H70.9112Z" fill="#B61B1B"/>
<path d="M185.076 97.7957H159.812V78.8487V59.9016H185.076H210.338V78.8487V97.7957H185.076Z" fill="#B61B1B"/>
<path d="M169.709 211.185H154.666V205.543V199.903H162.188H169.709V190.5L170.582 180.242H163.06H155.539L154.666 158.534V135.97H184.752H214.838V158.534L215.711 180.242H208.189H200.668L199.795 188.62V196.142H192.274H184.752V203.663V211.185H169.709Z" fill="#B61B1B"/>
<path d="M168.909 207.636H152.545V201.5V195.364H160.727H168.909V185.136V174.909H160.727H152.545V150.364V125.818H185.272H218V150.364V174.909H209.818H201.636V183.09V191.272H193.455H185.272V199.455V207.636H168.909ZM70.7272 179H38V152.409V125.818H70.7272H103.454V152.409V179H70.7272ZM70.7272 93.0908H38V68.5454V44H70.7272H103.454V68.5454V93.0908H70.7272ZM185.272 93.0908H152.545V68.5454V44H185.272H218V68.5454V93.0908H185.272Z" fill="#414141"/>
</g>
<defs>
<clipPath id="clip0_30_309">
<rect width="256" height="256" fill="white"/>
</clipPath>
</defs>
</svg>
