<svg width="256" height="256" viewBox="0 0 256 256" fill="none" xmlns="http://www.w3.org/2000/svg">
<g clip-path="url(#clip0_30_277)">
<path d="M196 0H60C26.8629 0 0 26.8629 0 60V196C0 229.137 26.8629 256 60 256H196C229.137 256 256 229.137 256 196V60C256 26.8629 229.137 0 196 0Z" fill="#734F96"/>
<path d="M44 198.38L52.82 197.84C70.73 196.67 70.55 196.76 71.45 182.72C72.26 169.4 71.2397 65.1111 70.64 63.02C69.6522 59.5757 65.946 57.5947 54.89 57.5975L44 57.53V38H211.4V112.79L191.69 112.497C191.51 112.317 190.97 107.03 190.61 102.17C188.54 79.31 183.41 66.1572 173.51 61.0272C168.29 58.3272 160.139 57.5314 134.032 57.5235L109.7 57.53V113.6H114.02C121.31 113.51 130.58 111.8 133.64 109.91C137.6 107.48 140.93 100.46 142.1 92C142.982 85.8257 143.662 81.206 143.662 81.206L162.8 81.2V170.3H143V166.79C143 161.03 140.3 147.62 138.41 143.57C135.44 137.36 130.4 135.2 116.09 133.85L109.52 133.22L109.88 162.11C110.15 189.56 110.33 191.09 112.04 193.43C114.2 196.31 116.54 196.85 130.85 197.93L140.456 198.387L140.39 218H44V198.38Z" fill="white"/>
</g>
<defs>
<clipPath id="clip0_30_277">
<rect width="256" height="256" fill="white"/>
</clipPath>
</defs>
</svg>
