<svg width="256" height="256" viewBox="0 0 256 256" fill="none" xmlns="http://www.w3.org/2000/svg">
<g clip-path="url(#clip0_30_370)">
<path d="M196 0H60C26.8629 0 0 26.8629 0 60V196C0 229.137 26.8629 256 60 256H196C229.137 256 256 229.137 256 196V60C256 26.8629 229.137 0 196 0Z" fill="#7026B9"/>
<path d="M128 218C78.2944 218 38 177.706 38 128C38 78.2944 78.2944 38 128 38C177.706 38 218 78.2944 218 128C218 177.706 177.706 218 128 218ZM203 128.691H154.613V142.448H187.788C182.95 163.091 167.738 180.289 147.697 187.174L68.2026 108.048C76.498 83.9651 99.999 66.7636 126.963 66.7636C147.7 66.7636 166.368 77.0894 178.114 92.9121L188.487 83.9712C174.654 65.3818 152.538 53 126.963 53C91.0171 53 60.6028 78.4591 53 112.176L144.24 203C177.415 194.742 203 164.467 203 128.685V128.691ZM53 128C53 147.446 60.6386 166.193 75.2229 180.777C89.8072 195.361 109.253 203 128 203L53 128Z" fill="white"/>
</g>
<defs>
<clipPath id="clip0_30_370">
<rect width="256" height="256" fill="white"/>
</clipPath>
</defs>
</svg>
