<svg width="256" height="256" viewBox="0 0 256 256" fill="none" xmlns="http://www.w3.org/2000/svg">
<g clip-path="url(#clip0_30_370)">
<path d="M196 0H60C26.8629 0 0 26.8629 0 60V196C0 229.137 26.8629 256 60 256H196C229.137 256 256 229.137 256 196V60C256 26.8629 229.137 0 196 0Z" fill="#663399"/>
<path d="M218 128H160.728V144.364H200C194.272 168.91 176.272 189.364 152.546 197.546L58.4546 103.454C68.2728 74.8182 96.091 54.3636 128 54.3636C152.546 54.3636 174.636 66.6364 188.546 85.4546L200.818 74.8182C184.454 52.7272 158.272 38 128 38C85.4546 38 49.4546 68.2728 40.4546 108.364L148.454 216.364C187.728 206.546 218 170.546 218 128ZM38 128.818C38 151.728 47 173.818 64.1818 191C81.3636 208.182 104.272 217.182 126.364 217.182L38 128.818Z" fill="white"/>
</g>
<defs>
<clipPath id="clip0_30_370">
<rect width="256" height="256" fill="white"/>
</clipPath>
</defs>
</svg>
