<svg width="256" height="256" viewBox="0 0 256 256" fill="none" xmlns="http://www.w3.org/2000/svg">
<path d="M157.701 95.9506L173.348 80.3039L174.391 73.7156C145.879 47.7893 100.554 50.729 74.8514 79.8498C67.7119 87.9378 62.4152 98.0213 59.5908 108.434L65.1947 107.644L96.4874 102.484L98.9032 100.013C112.823 84.7259 136.359 82.6693 152.431 95.6764L157.701 95.9506Z" fill="#EA4335"/>
<path d="M195.636 107.974C192.039 94.7297 184.656 82.8236 174.389 73.7161L152.429 95.6761C161.702 103.253 166.985 114.667 166.758 126.64V130.538C177.552 130.538 186.303 139.288 186.303 150.082C186.303 160.876 177.552 169.407 166.758 169.407H127.614L123.771 173.58V197.022L127.614 200.7H166.758C194.834 200.919 217.771 178.556 217.99 150.48C218.122 133.462 209.732 117.508 195.636 107.974Z" fill="#4285F4"/>
<path d="M88.5253 200.7H127.614V169.407H88.5253C85.7402 169.407 83.043 168.808 80.5103 167.651L74.9648 169.353L59.2084 184.999L57.8359 190.324C66.6721 196.996 77.4531 200.748 88.5253 200.7Z" fill="#34A853"/>
<path d="M88.5261 99.1898C60.4496 99.3572 37.8258 122.254 37.9931 150.33C38.0866 166.008 45.409 180.766 57.8368 190.324L80.5111 167.651C70.6738 163.206 66.3024 151.629 70.7468 141.793C75.1906 131.956 86.7683 127.584 96.6043 132.028C100.939 133.986 104.41 137.458 106.369 141.793L129.043 119.119C119.396 106.506 104.405 99.1329 88.5261 99.1898Z" fill="#FBBC05"/>
</svg>
