<svg width="256" height="256" viewBox="0 0 256 256" fill="none" xmlns="http://www.w3.org/2000/svg">
<path d="M0.000976562 56C0.000976562 25.0721 25.073 0 56.001 0H200.001C230.929 0 256.001 25.0721 256.001 56V200C256.001 230.928 230.929 256 200.001 256H56.001C25.073 256 0.000976562 230.928 0.000976562 200V56Z" fill="#F8FAFC"/>
<path d="M161.009 92.3896L178.394 75.0043L179.553 67.684C147.873 38.877 97.5119 42.1434 68.9533 74.4997C61.0205 83.4864 55.1353 94.6904 51.9971 106.26L58.2236 105.382L92.9932 99.649L95.6775 96.9037C111.144 79.9176 137.295 77.6325 155.153 92.0848L161.009 92.3896Z" fill="#EA4335"/>
<path d="M203.161 105.749C199.165 91.033 190.961 77.8041 179.554 67.6846L155.154 92.0846C165.457 100.503 171.327 113.186 171.075 126.489V130.82C183.068 130.82 192.791 140.542 192.791 152.535C192.791 164.529 183.068 174.008 171.075 174.008H127.582L123.312 178.644V204.691L127.582 208.778H171.075C202.27 209.021 227.756 184.173 227.999 152.978C228.146 134.069 218.824 116.342 203.161 105.749Z" fill="#4285F4"/>
<path d="M84.1491 208.778H127.581V174.008H84.1491C81.0545 174.007 78.0576 173.342 75.2435 172.056L69.0818 173.947L51.5748 191.332L50.0498 197.249C59.8677 204.662 71.8466 208.831 84.1491 208.778Z" fill="#34A853"/>
<path d="M84.1488 95.9886C52.9527 96.1746 27.8151 121.615 28.001 152.811C28.1049 170.231 36.2409 186.629 50.0496 197.249L75.2433 172.056C64.3129 167.118 59.4558 154.254 64.3941 143.325C69.3316 132.395 82.1957 127.538 93.1246 132.475C97.941 134.651 101.798 138.509 103.974 143.325L129.167 118.132C118.448 104.118 101.792 95.9254 84.1488 95.9886Z" fill="#FBBC05"/>
</svg>
