<svg width="256" height="256" viewBox="0 0 256 256" fill="none" xmlns="http://www.w3.org/2000/svg">
<path fill-rule="evenodd" clip-rule="evenodd" d="M166.991 52.1476C165.597 51.3277 164.172 50.5594 162.714 49.8429C161.225 49.128 159.691 48.4305 158.136 47.8256C157.644 47.6232 157.16 47.4383 156.664 47.2508C155.306 46.7509 153.936 46.2085 152.533 45.806C142.502 42.5978 131.905 41.4301 121.395 42.3748C110.885 43.3196 100.683 46.3568 91.4208 51.2992C82.1581 56.2418 74.03 62.9847 67.5378 71.1125C61.0454 79.2403 56.3262 88.5808 53.6714 98.5579C51.0166 108.535 50.4822 118.937 52.1012 129.124C53.7202 139.311 57.4585 149.065 63.0852 157.788C68.7118 166.509 76.108 174.013 84.8175 179.836C93.5271 185.66 103.366 189.679 113.726 191.646V213.265C159.998 206.449 200.973 170.577 204.027 123.479C205.867 95.1412 191.397 66.2104 166.991 52.1476Z" fill="#23D96C"/>
<path d="M109.56 218V194.934C90.145 190.414 73.1043 179.09 61.6733 163.109C50.2423 147.129 45.2169 127.606 47.5514 108.246C49.886 88.886 59.4175 71.0373 74.3368 58.088C89.2562 45.1387 108.525 37.9902 128.484 38.0001C137.096 37.9861 145.654 39.3185 153.835 41.947C154.927 42.2569 156.063 42.6795 157.161 43.0893L158.116 43.4418C158.769 43.6917 159.26 43.8794 159.762 44.0869C161.139 44.6217 162.687 45.3016 164.551 46.1965C166.124 46.9697 167.647 47.7904 169.121 48.6586C194.459 63.2589 210.152 93.4291 208.184 123.742C205.156 170.387 165.7 209.729 114.343 217.292L109.56 218ZM128.589 46.1364H128.49C110.306 46.1307 92.7737 52.7418 79.3118 64.6797C65.8499 76.6175 57.4246 93.0257 55.6805 110.702C53.9364 128.379 58.9979 146.057 69.878 160.286C80.7581 174.515 96.676 184.274 114.525 187.659L117.891 188.302V208.437C163.035 199.793 197.187 164.623 199.871 123.227C201.644 95.8914 187.587 68.7356 164.876 55.6576L164.839 55.6326C163.544 54.8827 162.198 54.1452 160.841 53.4778C159.211 52.6979 157.855 52.0956 156.601 51.6107C156.089 51.3983 155.667 51.2383 155.237 51.0758L154.195 50.6907C153.207 50.3233 152.27 49.9733 151.367 49.7159C144.018 47.3458 136.329 46.1367 128.589 46.134V46.1364Z" fill="#173647"/>
<path fill-rule="evenodd" clip-rule="evenodd" d="M113.047 79.2615C114.211 79.1213 115.391 79.2628 116.485 79.6735C117.579 80.0841 118.552 80.7512 119.32 81.6162C120.509 82.8849 121.483 84.3312 122.204 85.9006C124.764 91.3997 126.274 99.296 123.113 103.723C119.786 102.892 116.669 101.404 113.956 99.3488C111.242 97.2939 108.99 94.7168 107.338 91.777C106.501 90.166 106.031 88.3977 105.96 86.5929C106.015 84.7343 106.766 82.9602 108.073 81.6083C109.381 80.2563 111.151 79.421 113.047 79.2615Z" fill="#173647"/>
<path fill-rule="evenodd" clip-rule="evenodd" d="M94.4665 98.0411C94.8924 98.0071 95.3204 98.0071 95.7463 98.0411C97.7175 98.0744 99.661 98.4997 101.459 99.2908C107.145 101.67 113.487 107.487 114.716 112.646C109.838 115.821 101.051 115.561 95.3619 113.181C93.6675 112.377 92.0526 111.423 90.5376 110.329C89.3858 109.48 88.5309 108.305 88.0896 106.963C87.6481 105.622 87.6419 104.179 88.072 102.834C88.502 101.489 89.3474 100.306 90.492 99.4483C91.6366 98.5903 93.0249 98.0989 94.4665 98.0411Z" fill="#173647"/>
<path fill-rule="evenodd" clip-rule="evenodd" d="M101.445 137.724C99.6619 138.557 97.7092 138.984 95.7328 138.974C94.2073 139.148 92.6647 138.842 91.3303 138.099C89.9958 137.357 88.9394 136.216 88.3155 134.845C87.6915 133.475 87.5325 131.945 87.8618 130.48C88.1911 129.014 88.9911 127.691 90.1456 126.701C91.5375 125.436 93.1803 124.464 94.9724 123.844C97.0621 122.976 99.305 122.513 101.576 122.482C105.274 122.417 111.623 121.611 114.702 123.614C113.888 128.763 107.132 135.345 101.445 137.724Z" fill="#173647"/>
<path fill-rule="evenodd" clip-rule="evenodd" d="M124.886 150.498C124.111 152.152 123.177 153.731 122.097 155.212C118.033 160.371 108.611 156.749 109.016 150C109.052 148.235 109.489 146.5 110.295 144.919C112.732 139.362 119.36 132.538 125.049 131.348C128.295 136.11 127.325 145.341 124.886 150.498Z" fill="#173647"/>
<path fill-rule="evenodd" clip-rule="evenodd" d="M134.838 85.7677C135.615 84.1133 136.552 82.5348 137.635 81.0535C138.403 80.1632 139.384 79.4711 140.491 79.0387C141.598 78.6063 142.797 78.4465 143.982 78.5737C145.938 78.6945 147.77 79.5494 149.095 80.9592C150.42 82.3689 151.135 84.2243 151.092 86.1375C151.055 87.9446 150.618 89.7226 149.812 91.3494C148.394 94.2846 146.356 96.8935 143.832 99.0045C141.309 101.115 138.356 102.681 135.168 103.598C131.521 99.2407 132.401 91.3218 134.838 85.7677Z" fill="#173647"/>
<path fill-rule="evenodd" clip-rule="evenodd" d="M138.395 155.215C137.232 153.923 136.29 152.457 135.603 150.872C133.167 145.319 133.251 137.005 136.499 132.638C142.185 133.83 148.146 139.737 150.575 145.293C151.381 146.919 151.817 148.695 151.855 150.5C152.261 156.451 142.862 159.976 138.395 155.215Z" fill="#173647"/>
<path fill-rule="evenodd" clip-rule="evenodd" d="M163.284 138.595C161.313 138.561 159.369 138.135 157.571 137.345C151.885 134.965 145.65 129.401 144.432 124.241C147.556 122.242 153.325 122.024 157.064 122.092C159.335 122.126 161.577 122.59 163.668 123.459C165.359 124.217 166.973 125.129 168.489 126.184C174.177 130.163 170.599 138.989 163.284 138.595Z" fill="#173647"/>
</svg>
