<svg width="256" height="256" viewBox="0 0 256 256" fill="none" xmlns="http://www.w3.org/2000/svg">
<path d="M0.000976562 56C0.000976562 25.0721 25.073 0 56.001 0H200.001C230.929 0 256.001 25.0721 256.001 56V200C256.001 230.928 230.929 256 200.001 256H56.001C25.073 256 0.000976562 230.928 0.000976562 200V56Z" fill="#22272E"/>
<path fill-rule="evenodd" clip-rule="evenodd" d="M171.333 43.7196C169.783 42.8087 168.2 41.955 166.581 41.1589C164.926 40.3646 163.222 39.5896 161.494 38.9175C160.947 38.6925 160.41 38.4871 159.859 38.2788C158.349 37.7234 156.828 37.1206 155.269 36.6735C144.123 33.1088 132.349 31.8113 120.67 32.861C108.992 33.9108 97.6577 37.2855 87.3658 42.7771C77.0741 48.2688 68.0428 55.7609 60.8292 64.7918C53.6155 73.8227 48.3719 84.201 45.4221 95.2867C42.4723 106.373 41.8786 117.93 43.6774 129.249C45.4763 140.568 49.63 151.406 55.8819 161.098C62.1337 170.788 70.3516 179.126 80.0289 185.596C89.7062 192.066 100.638 196.532 112.15 198.718V222.739C163.563 215.166 209.091 175.308 212.483 122.977C214.528 91.4903 198.45 59.345 171.333 43.7196Z" fill="#23D96C"/>
<path d="M107.52 228V202.371C85.9476 197.349 67.0135 184.766 54.3123 167.01C41.6113 149.255 36.0275 127.562 38.6214 106.051C41.2153 84.54 51.8059 64.7081 68.3829 50.32C84.96 35.9319 106.37 27.9891 128.547 28.0001C138.115 27.9845 147.625 29.465 156.714 32.3855C157.928 32.7299 159.19 33.1994 160.41 33.6548L161.471 34.0465C162.196 34.3241 162.742 34.5326 163.299 34.7632C164.829 35.3575 166.55 36.1129 168.621 37.1072C170.368 37.9664 172.061 38.8782 173.699 39.8429C201.852 56.0654 219.288 89.5879 217.102 123.269C213.738 175.097 169.897 218.809 112.835 227.214L107.52 228ZM128.663 37.0405H128.553C108.349 37.0341 88.8683 44.3798 73.9106 57.6441C58.9531 70.9084 49.5916 89.1396 47.6537 108.78C45.7158 128.422 51.3397 148.064 63.4287 163.873C75.5177 179.683 93.2042 190.527 113.037 194.288L116.776 195.002V217.374C166.936 207.77 204.883 168.693 207.866 122.697C209.836 92.3238 194.216 62.1507 168.982 47.6195L168.941 47.5918C167.502 46.7586 166.007 45.9391 164.499 45.1976C162.687 44.331 161.181 43.6618 159.787 43.123C159.219 42.887 158.75 42.7092 158.272 42.5287L157.115 42.1008C156.016 41.6926 154.976 41.3037 153.972 41.0177C145.807 38.3842 137.263 37.0407 128.663 37.0378V37.0405Z" fill="#173647"/>
<path fill-rule="evenodd" clip-rule="evenodd" d="M111.393 73.8463C112.686 73.6905 113.997 73.8478 115.213 74.3041C116.429 74.7603 117.51 75.5016 118.363 76.4626C119.685 77.8723 120.767 79.4794 121.567 81.223C124.411 87.3332 126.09 96.1068 122.578 101.026C118.881 100.103 115.417 98.4486 112.403 96.1655C109.388 93.8824 106.885 91.0188 105.05 87.7524C104.12 85.9624 103.598 83.9976 103.519 81.9923C103.579 79.9272 104.415 77.956 105.867 76.4539C107.319 74.9516 109.286 74.0235 111.393 73.8463Z" fill="#173647"/>
<path fill-rule="evenodd" clip-rule="evenodd" d="M90.7485 94.7123C91.2217 94.6747 91.6973 94.6747 92.1704 94.7123C94.3607 94.7494 96.5201 95.2219 98.5174 96.101C104.836 98.745 111.883 105.208 113.248 110.94C107.827 114.468 98.0649 114.179 91.7434 111.535C89.8607 110.642 88.0663 109.581 86.383 108.366C85.1033 107.423 84.1534 106.116 83.663 104.626C83.1725 103.135 83.1656 101.532 83.6435 100.038C84.1213 98.5432 85.0606 97.2293 86.3324 96.276C87.6042 95.3226 89.1467 94.7766 90.7485 94.7123Z" fill="#173647"/>
<path fill-rule="evenodd" clip-rule="evenodd" d="M98.5022 138.805C96.521 139.73 94.3512 140.205 92.1553 140.193C90.4603 140.387 88.7462 140.047 87.2636 139.221C85.7808 138.396 84.6071 137.129 83.9138 135.606C83.2204 134.083 83.0438 132.383 83.4097 130.755C83.7756 129.127 84.6645 127.656 85.9473 126.557C87.4938 125.151 89.3191 124.071 91.3104 123.383C93.6323 122.418 96.1244 121.904 98.6473 121.869C102.757 121.797 109.811 120.902 113.232 123.126C112.328 128.848 104.821 136.161 98.5022 138.805Z" fill="#173647"/>
<path fill-rule="evenodd" clip-rule="evenodd" d="M124.548 152.998C123.687 154.836 122.65 156.59 121.449 158.236C116.934 163.968 106.465 159.943 106.914 152.445C106.955 150.483 107.44 148.555 108.336 146.799C111.044 140.625 118.409 133.042 124.73 131.72C128.336 137.011 127.258 147.268 124.548 152.998Z" fill="#173647"/>
<path fill-rule="evenodd" clip-rule="evenodd" d="M135.607 81.0752C136.471 79.2369 137.512 77.483 138.716 75.8371C139.569 74.8479 140.659 74.079 141.889 73.5985C143.119 73.118 144.451 72.9405 145.768 73.0818C147.941 73.2161 149.977 74.166 151.449 75.7324C152.921 77.2987 153.716 79.3602 153.668 81.486C153.627 83.4939 153.142 85.4695 152.246 87.2771C150.67 90.5384 148.406 93.4372 145.602 95.7827C142.798 98.1282 139.516 99.8676 135.975 100.886C131.922 96.0452 132.9 87.2464 135.607 81.0752Z" fill="#173647"/>
<path fill-rule="evenodd" clip-rule="evenodd" d="M139.56 158.239C138.268 156.803 137.221 155.174 136.458 153.414C133.751 147.243 133.844 138.005 137.453 133.153C143.772 134.478 150.395 141.041 153.093 147.215C153.989 149.021 154.474 150.994 154.515 153C154.967 159.613 144.523 163.529 139.56 158.239Z" fill="#173647"/>
<path fill-rule="evenodd" clip-rule="evenodd" d="M167.211 139.772C165.021 139.734 162.861 139.261 160.864 138.383C154.546 135.739 147.618 129.556 146.265 123.824C149.736 121.602 156.146 121.36 160.3 121.435C162.824 121.474 165.315 121.989 167.638 122.955C169.517 123.797 171.311 124.81 172.995 125.982C179.315 130.403 175.339 140.21 167.211 139.772Z" fill="#173647"/>
</svg>
