<svg width="256" height="256" viewBox="0 0 256 256" fill="none" xmlns="http://www.w3.org/2000/svg">
<path d="M196 0H60C26.8629 0 0 26.8629 0 60V196C0 229.137 26.8629 256 60 256H196C229.137 256 256 229.137 256 196V60C256 26.8629 229.137 0 196 0Z" fill="#F03C2E"/>
<path d="M224.224 119.088L136.909 31.7731C135.714 30.5769 134.294 29.628 132.732 28.9807C131.169 28.3332 129.494 28 127.803 28C126.112 28 124.437 28.3332 122.875 28.9807C121.313 29.628 119.893 30.5769 118.698 31.7731L100.573 49.8974L123.572 72.8964C128.922 71.0214 135.047 72.3026 139.309 76.5649C141.338 78.5975 142.755 81.1598 143.397 83.9591C144.039 86.7584 143.881 89.6818 142.94 92.3955L165.108 114.564C170.47 112.714 176.657 113.907 180.938 118.2C182.362 119.624 183.491 121.314 184.261 123.174C185.031 125.034 185.427 127.027 185.427 129.04C185.426 131.053 185.03 133.046 184.259 134.906C183.488 136.765 182.359 138.455 180.935 139.877C179.512 141.301 177.822 142.429 175.962 143.199C174.102 143.97 172.109 144.366 170.096 144.365C168.084 144.365 166.09 143.968 164.231 143.198C162.371 142.427 160.681 141.298 159.258 139.874C154.758 135.375 153.646 128.75 155.921 123.206L135.247 102.532V156.937C136.748 157.679 138.119 158.659 139.309 159.837C140.732 161.26 141.861 162.948 142.632 164.808C143.402 166.667 143.798 168.66 143.798 170.673C143.798 172.686 143.402 174.679 142.632 176.538C141.861 178.398 140.732 180.088 139.309 181.511C137.886 182.934 136.196 184.063 134.337 184.833C132.477 185.602 130.484 185.999 128.472 185.999C126.459 185.999 124.466 185.602 122.608 184.833C120.748 184.063 119.058 182.934 117.635 181.511C116.21 180.088 115.08 178.399 114.309 176.54C113.537 174.68 113.14 172.686 113.14 170.673C113.14 168.66 113.537 166.667 114.309 164.807C115.08 162.947 116.21 161.259 117.635 159.837C119.116 158.362 120.76 157.243 122.654 156.493V101.582C120.829 100.832 119.116 99.7264 117.635 98.239C115.483 96.0897 114.02 93.3481 113.432 90.364C112.845 87.3798 113.159 84.2883 114.335 81.4835L91.6486 58.8095L31.7761 118.619C30.5791 119.815 29.6294 121.235 28.9815 122.798C28.3335 124.361 28 126.036 28 127.728C28 129.42 28.3335 131.096 28.9815 132.659C29.6294 134.222 30.5791 135.642 31.7761 136.838L119.098 224.146C120.293 225.342 121.713 226.291 123.275 226.939C124.837 227.586 126.512 227.919 128.203 227.919C129.894 227.919 131.569 227.586 133.132 226.939C134.694 226.291 136.114 225.342 137.309 224.146L224.224 137.369C225.421 136.173 226.371 134.753 227.019 133.19C227.667 131.627 228 129.952 228 128.26C228 126.568 227.667 124.892 227.019 123.329C226.371 121.766 225.421 120.346 224.224 119.15" fill="white"/>
</svg>
