<svg width="256" height="256" viewBox="0 0 256 256" fill="none" xmlns="http://www.w3.org/2000/svg">
<g clip-path="url(#clip0_196_150)">
<rect width="256" height="256" rx="56" fill="#F03C2E"/>
<path d="M214.602 119.98L136.018 41.3958C134.943 40.3192 133.665 39.4652 132.259 38.8826C130.852 38.2999 129.345 38 127.823 38C126.301 38 124.794 38.2999 123.387 38.8826C121.981 39.4652 120.703 40.3192 119.628 41.3958L103.316 57.7076L124.015 78.4067C128.83 76.7193 134.342 77.8723 138.178 81.7084C140.004 83.5378 141.279 85.8438 141.857 88.3632C142.435 90.8825 142.293 93.5137 141.446 95.956L161.397 115.907C166.223 114.242 171.791 115.316 175.644 119.18C176.926 120.462 177.942 121.983 178.635 123.657C179.328 125.331 179.684 127.124 179.684 128.936C179.683 130.748 179.327 132.541 178.633 134.215C177.939 135.888 176.923 137.409 175.642 138.69C174.361 139.971 172.84 140.986 171.166 141.679C169.492 142.373 167.698 142.73 165.887 142.729C164.075 142.729 162.281 142.371 160.608 141.678C158.934 140.985 157.413 139.969 156.132 138.687C152.082 134.637 151.082 128.675 153.129 123.686L134.522 105.079V154.043C135.873 154.711 137.107 155.593 138.178 156.653C139.459 157.934 140.475 159.454 141.169 161.128C141.861 162.801 142.218 164.594 142.218 166.406C142.218 168.217 141.861 170.011 141.169 171.684C140.475 173.358 139.459 174.879 138.178 176.16C136.897 177.44 135.376 178.456 133.703 179.149C132.029 179.842 130.236 180.2 128.425 180.2C126.613 180.2 124.82 179.842 123.147 179.149C121.473 178.456 119.952 177.44 118.671 176.16C117.389 174.879 116.372 173.359 115.678 171.686C114.983 170.012 114.626 168.217 114.626 166.406C114.626 164.594 114.983 162.801 115.678 161.127C116.372 159.453 117.389 157.933 118.671 156.653C120.004 155.326 121.484 154.318 123.188 153.643V104.224C121.546 103.549 120.004 102.554 118.671 101.215C116.735 99.2807 115.418 96.8133 114.889 94.1276C114.36 91.4418 114.643 88.6594 115.701 86.1351L95.2837 65.7285L41.3985 119.557C40.3212 120.634 39.4665 121.912 38.8833 123.318C38.3001 124.725 38 126.232 38 127.755C38 129.278 38.3001 130.786 38.8833 132.193C39.4665 133.6 40.3212 134.877 41.3985 135.954L119.988 214.531C121.063 215.608 122.341 216.462 123.747 217.045C125.154 217.627 126.661 217.927 128.183 217.927C129.705 217.927 131.212 217.627 132.619 217.045C134.025 216.462 135.303 215.608 136.378 214.531L214.602 136.432C215.679 135.355 216.534 134.077 217.117 132.671C217.7 131.264 218 129.757 218 128.234C218 126.711 217.7 125.203 217.117 123.796C216.534 122.39 215.679 121.112 214.602 120.035" fill="white"/>
</g>
<defs>
<clipPath id="clip0_196_150">
<rect width="256" height="256" fill="white"/>
</clipPath>
</defs>
</svg>
