<svg width="256" height="256" viewBox="0 0 256 256" fill="none" xmlns="http://www.w3.org/2000/svg">
<path d="M127.993 40C78.2934 40 37.9922 80.2937 37.9922 130.001C37.9922 169.766 63.7802 203.501 99.5402 215.402C104.038 216.235 105.689 213.45 105.689 211.073C105.689 208.926 105.606 201.837 105.567 194.317C80.529 199.761 75.2456 183.698 75.2456 183.698C71.1515 173.295 65.2526 170.529 65.2526 170.529C57.0869 164.943 65.8682 165.058 65.8682 165.058C74.9058 165.692 79.6645 174.332 79.6645 174.332C87.6917 188.091 100.719 184.113 105.855 181.814C106.663 175.996 108.995 172.026 111.569 169.779C91.5786 167.503 70.5644 159.786 70.5644 125.3C70.5644 115.474 74.0801 107.445 79.8374 101.143C78.9029 98.8758 75.8223 89.7219 80.7093 77.325C80.7093 77.325 88.267 74.9061 105.466 86.5504C112.645 84.5562 120.344 83.5562 127.993 83.5219C135.641 83.5562 143.347 84.5562 150.539 86.5504C167.717 74.9061 175.265 77.325 175.265 77.325C180.163 89.7219 177.082 98.8758 176.147 101.143C181.917 107.445 185.409 115.474 185.409 125.3C185.409 159.868 164.355 167.48 144.314 169.707C147.542 172.501 150.418 177.977 150.418 186.374C150.418 198.416 150.314 208.108 150.314 211.073C150.314 213.468 151.934 216.274 156.496 215.39C192.237 203.476 217.992 169.752 217.992 130.001C217.992 80.2937 177.696 40 127.993 40ZM71.7004 168.208C71.5022 168.655 70.7987 168.789 70.1578 168.482C69.5051 168.189 69.1384 167.579 69.3501 167.13C69.5438 166.67 70.2487 166.542 70.9001 166.851C71.5544 167.144 71.927 167.76 71.7004 168.208ZM76.1274 172.158C75.6982 172.557 74.8592 172.371 74.2898 171.742C73.7011 171.115 73.5908 170.276 74.026 169.872C74.4686 169.474 75.2824 169.66 75.8726 170.288C76.4612 170.923 76.576 171.756 76.1274 172.158ZM79.1646 177.212C78.6131 177.596 77.7114 177.237 77.1541 176.436C76.6025 175.635 76.6025 174.676 77.1659 174.291C77.7248 173.907 78.6131 174.252 79.178 175.047C79.7279 175.86 79.7279 176.821 79.1646 177.212ZM84.301 183.066C83.8077 183.609 82.7569 183.464 81.9879 182.721C81.201 181.996 80.9819 180.966 81.4767 180.422C81.976 179.876 83.0327 180.03 83.8077 180.766C84.5886 181.49 84.827 182.528 84.301 183.066ZM90.9393 185.041C90.7217 185.747 89.7097 186.067 88.6903 185.768C87.6724 185.459 87.0062 184.634 87.2118 183.921C87.4235 183.212 88.4399 182.878 89.4668 183.198C90.4832 183.505 91.1509 184.325 90.9393 185.041ZM98.494 185.88C98.5193 186.622 97.6549 187.237 96.5848 187.251C95.5088 187.275 94.6384 186.674 94.6264 185.944C94.6264 185.194 95.4715 184.585 96.5475 184.567C97.6176 184.546 98.494 185.142 98.494 185.88ZM105.915 185.596C106.044 186.319 105.3 187.064 104.238 187.262C103.193 187.452 102.225 187.005 102.093 186.287C101.963 185.544 102.72 184.801 103.763 184.608C104.828 184.424 105.78 184.86 105.915 185.596Z" fill="#111827"/>
</svg>
