<svg width="256" height="256" viewBox="0 0 256 256" fill="none" xmlns="http://www.w3.org/2000/svg">
<path d="M127.992 209.354L161.135 109.479H94.8525L127.992 209.35V209.354Z" fill="#E24329"/>
<path d="M127.99 209.354L94.8512 109.479H48.4033L127.99 209.35V209.354Z" fill="#FC6D26"/>
<path d="M48.4046 109.476L38.3299 139.829C37.4096 142.596 38.4128 145.629 40.8199 147.34L127.992 209.354L48.4046 109.478V109.476Z" fill="#FCA326"/>
<path d="M48.4033 109.475H94.8512L74.8889 49.3201C73.8618 46.2266 69.3874 46.2266 68.3621 49.3201L48.4033 109.478V109.475Z" fill="#E24329"/>
<path d="M127.992 209.354L161.135 109.479H207.585L127.992 209.35V209.354Z" fill="#FC6D26"/>
<path d="M207.583 109.476L217.656 139.829C218.575 142.596 217.568 145.629 215.164 147.34L127.992 209.354L207.583 109.478V109.476Z" fill="#FCA326"/>
<path d="M207.583 109.475H161.136L181.096 49.3211C182.124 46.2276 186.598 46.2276 187.623 49.3211L207.585 109.478L207.583 109.475Z" fill="#E24329"/>
</svg>
