<svg width="256" height="256" viewBox="0 0 256 256" fill="none" xmlns="http://www.w3.org/2000/svg">
<path d="M0.000976562 56C0.000976562 25.0721 25.073 0 56.001 0H200.001C230.929 0 256.001 25.0721 256.001 56V200C256.001 230.928 230.929 256 200.001 256H56.001C25.073 256 0.000976562 230.928 0.000976562 200V56Z" fill="#22272E"/>
<path d="M127.999 218.393L164.824 107.421H91.1777L127.999 218.389V218.393Z" fill="#E24329"/>
<path d="M127.999 218.393L91.1781 107.421H39.5693L127.999 218.389V218.393Z" fill="#FC6D26"/>
<path d="M39.5694 107.418L28.3752 141.143C27.3527 144.218 28.4674 147.588 31.1419 149.489L128 218.393L39.5694 107.421V107.418Z" fill="#FCA326"/>
<path d="M39.5693 107.417H91.1781L68.9978 40.5779C67.8566 37.1407 62.885 37.1407 61.7458 40.5779L39.5693 107.42V107.417Z" fill="#E24329"/>
<path d="M128 218.393L164.825 107.421H216.436L128 218.389V218.393Z" fill="#FC6D26"/>
<path d="M216.434 107.418L227.626 141.143C228.647 144.218 227.528 147.588 224.858 149.489L128 218.393L216.434 107.421V107.418Z" fill="#FCA326"/>
<path d="M216.433 107.417H164.825L187.004 40.5789C188.146 37.1417 193.116 37.1417 194.256 40.5789L216.436 107.42L216.433 107.417Z" fill="#E24329"/>
</svg>
