<svg width="256" height="256" viewBox="0 0 256 256" fill="none" xmlns="http://www.w3.org/2000/svg">
<path d="M206.982 158.064C206.982 158.064 206.72 156.476 206.566 156.49L177.353 159.27C175.028 159.492 173.223 161.32 173.06 163.617L172.257 174.962L149.656 176.552L148.119 166.27C147.777 163.983 145.752 162.26 143.408 162.26H112.575C110.232 162.26 108.207 163.983 107.865 166.27L106.326 176.552L83.7257 174.962L82.9232 163.617C82.7601 161.319 80.9547 159.491 78.6302 159.27L49.4023 156.49C49.2513 156.476 49.1407 158.066 48.9897 158.066L48.9502 164.3L73.7034 168.237L74.5141 179.683C74.678 182 76.5738 183.874 78.9249 184.04L110.051 186.23C110.169 186.238 110.285 186.243 110.402 186.243C112.741 186.243 114.762 184.518 115.105 182.231L116.686 171.652H139.298L140.879 182.231C141.221 184.517 143.245 186.242 145.588 186.242C145.702 186.242 145.816 186.238 145.929 186.23L177.059 184.04C179.409 183.874 181.305 182 181.469 179.683L182.28 168.237L207.023 164.283L206.982 158.064Z" fill="white"/>
<path d="M48.9898 111.051V148.885V153.691V158.064C49.077 158.065 49.1642 158.068 49.2506 158.076L78.4753 160.855C80.0061 161 81.2059 162.215 81.3125 163.728L82.2135 176.451L107.706 178.245L109.462 166.503C109.69 164.98 111.014 163.852 112.576 163.852H143.409C144.969 163.852 146.294 164.98 146.521 166.503L148.277 178.245L173.771 176.451L174.671 163.728C174.779 162.215 175.978 161.001 177.509 160.855L206.722 158.076C206.809 158.068 206.895 158.065 206.982 158.064V154.313L206.994 154.309V111.051H207.102C210.974 106.177 214.556 101.042 217.992 95.5639C213.429 87.9037 207.838 81.0581 201.863 74.7157C196.321 77.4669 190.938 80.5835 185.854 83.9C183.31 81.406 180.444 79.366 177.63 77.2335C174.865 75.043 171.748 73.4369 168.792 71.5657C169.672 65.1022 170.107 58.7392 170.282 52.0982C162.655 48.3127 154.523 45.8028 146.296 44C143.011 49.4442 140.008 55.3398 137.392 61.1033C134.29 60.5921 131.174 60.4026 128.053 60.366V60.3612C128.031 60.3612 128.011 60.366 127.993 60.366C127.973 60.366 127.953 60.3612 127.934 60.3612V60.366C124.807 60.4026 121.693 60.5921 118.59 61.1033C115.976 55.3398 112.974 49.4442 109.684 44C101.462 45.8028 93.3283 48.3127 85.7023 52.0982C85.8768 58.7392 86.3119 65.1022 87.1944 71.5657C84.2329 73.4369 81.1203 75.043 78.3542 77.2335C75.5436 79.366 72.6733 81.406 70.1283 83.9C65.0442 80.5835 59.6628 77.4669 54.1192 74.7157C48.1436 81.0581 42.5564 87.9037 37.9922 95.5639C41.4261 101.042 45.0109 106.177 48.8816 111.051H48.9898Z" fill="#478CBF"/>
<path d="M180.764 166.781L179.859 179.572C179.751 181.114 178.506 182.34 176.943 182.451L145.814 184.642C145.738 184.647 145.663 184.65 145.587 184.65C144.04 184.65 142.706 183.53 142.477 181.998L140.692 170.059H115.292L113.507 181.998C113.267 183.605 111.81 184.761 110.17 184.642L79.0405 182.451C77.4774 182.34 76.234 181.114 76.125 179.572L75.2199 166.781L48.9414 164.283C48.9535 167.068 48.9899 170.12 48.9899 170.727C48.9899 198.098 84.1966 211.255 127.939 211.406H127.992H128.045C171.788 211.255 206.982 198.098 206.982 170.727C206.982 170.109 207.02 167.07 207.033 164.283L180.764 166.781Z" fill="#478CBF"/>
<path d="M104.175 130.135C104.175 139.731 96.2911 147.506 86.5635 147.506C76.8408 147.506 68.9541 139.731 68.9541 130.135C68.9541 120.545 76.8408 112.774 86.5635 112.774C96.2911 112.774 104.175 120.545 104.175 130.135Z" fill="white"/>
<path d="M99.9374 131.165C99.9374 137.53 94.7062 142.69 88.247 142.69C81.791 142.69 76.5566 137.53 76.5566 131.165C76.5566 124.799 81.791 119.636 88.247 119.636C94.7062 119.636 99.9374 124.799 99.9374 131.165Z" fill="#414042"/>
<path d="M127.992 149.085C124.86 149.085 122.323 146.81 122.323 144.004V128.015C122.323 125.212 124.86 122.934 127.992 122.934C131.123 122.934 133.666 125.212 133.666 128.015V144.004C133.666 146.81 131.123 149.085 127.992 149.085Z" fill="white"/>
<path d="M151.809 130.135C151.809 139.731 159.693 147.506 169.422 147.506C179.144 147.506 187.03 139.731 187.03 130.135C187.03 120.545 179.144 112.774 169.422 112.774C159.693 112.774 151.809 120.545 151.809 130.135Z" fill="white"/>
<path d="M156.047 131.165C156.047 137.53 161.277 142.69 167.731 142.69C174.192 142.69 179.422 137.53 179.422 131.165C179.422 124.799 174.192 119.636 167.731 119.636C161.277 119.636 156.047 124.799 156.047 131.165Z" fill="#414042"/>
</svg>
