<svg width="256" height="256" viewBox="0 0 256 256" fill="none" xmlns="http://www.w3.org/2000/svg">
<g clip-path="url(#clip0_30_427)">
<path d="M196 0H60C26.8629 0 0 26.8629 0 60V196C0 229.137 26.8629 256 60 256H196C229.137 256 256 229.137 256 196V60C256 26.8629 229.137 0 196 0Z" fill="#007D9D"/>
<path d="M51.5849 114.362C51.2344 114.362 51.1467 114.187 51.322 113.924L53.1624 111.558C53.3377 111.295 53.7759 111.119 54.1265 111.119H85.4136C85.7642 111.119 85.8518 111.382 85.6765 111.645L84.1867 113.924C84.0114 114.187 83.5732 114.45 83.3103 114.45L51.5849 114.362Z" fill="white"/>
<path d="M38.3506 122.425C38 122.425 37.9124 122.249 38.0876 121.987L39.9281 119.62C40.1033 119.357 40.5415 119.182 40.8921 119.182H80.8555C81.2061 119.182 81.3814 119.445 81.2937 119.708L80.5926 121.811C80.505 122.162 80.1544 122.337 79.8039 122.337L38.3506 122.425Z" fill="white"/>
<path d="M59.5595 130.488C59.209 130.488 59.1213 130.225 59.2966 129.962L60.5236 127.771C60.6989 127.508 61.0494 127.245 61.4 127.245H78.9278C79.2783 127.245 79.4536 127.508 79.4536 127.859L79.2783 129.962C79.2783 130.312 78.9278 130.575 78.6649 130.575L59.5595 130.488Z" fill="white"/>
<path d="M150.53 112.785C145.008 114.187 141.24 115.238 135.806 116.641C134.492 116.991 134.404 117.079 133.265 115.764C131.95 114.274 130.986 113.31 129.146 112.434C123.624 109.717 118.278 110.506 113.283 113.749C107.323 117.605 104.256 123.301 104.344 130.4C104.431 137.411 109.252 143.195 116.175 144.159C122.134 144.948 127.13 142.845 131.074 138.375C131.862 137.411 132.564 136.36 133.44 135.133C130.285 135.133 126.341 135.133 116.526 135.133C114.685 135.133 114.247 133.993 114.86 132.503C116 129.787 118.103 125.229 119.33 122.951C119.593 122.425 120.206 121.549 121.521 121.549C125.991 121.549 142.467 121.549 153.422 121.549C153.246 123.915 153.246 126.281 152.896 128.647C151.932 134.957 149.566 140.741 145.709 145.825C139.399 154.15 131.161 159.321 120.732 160.723C112.144 161.862 104.168 160.197 97.1573 154.939C90.672 150.031 86.9912 143.546 86.0272 135.483C84.8879 125.93 87.6923 117.342 93.4765 109.805C99.6989 101.655 107.937 96.484 118.015 94.6436C126.254 93.1537 134.141 94.1177 141.24 98.9379C145.885 102.005 149.215 106.212 151.406 111.295C151.932 112.083 151.581 112.522 150.53 112.785Z" fill="white"/>
<path d="M179.536 161.249C171.561 161.074 164.287 158.795 158.152 153.537C152.982 149.067 149.739 143.371 148.687 136.623C147.11 126.719 149.827 117.956 155.786 110.156C162.184 101.743 169.896 97.3606 180.325 95.5202C189.264 93.9427 197.678 94.8191 205.302 99.9898C212.226 104.722 216.52 111.12 217.659 119.533C219.149 131.364 215.731 141.005 207.581 149.243C201.797 155.115 194.698 158.795 186.548 160.461C184.181 160.899 181.815 160.986 179.536 161.249ZM200.395 125.843C200.307 124.704 200.307 123.827 200.132 122.951C198.554 114.275 190.579 109.367 182.253 111.295C174.103 113.135 168.844 118.306 166.916 126.544C165.339 133.38 168.669 140.304 174.979 143.108C179.799 145.211 184.619 144.948 189.264 142.582C196.188 138.989 199.956 133.38 200.395 125.843Z" fill="white"/>
</g>
<defs>
<clipPath id="clip0_30_427">
<rect width="256" height="256" fill="white"/>
</clipPath>
</defs>
</svg>
