<svg width="256" height="256" viewBox="0 0 256 256" fill="none" xmlns="http://www.w3.org/2000/svg">
<path d="M196 0H60C26.8629 0 0 26.8629 0 60V196C0 229.137 26.8629 256 60 256H196C229.137 256 256 229.137 256 196V60C256 26.8629 229.137 0 196 0Z" fill="#00B4E0"/>
<path d="M43.0936 113.624C42.7041 113.624 42.6067 113.43 42.8015 113.138L44.8464 110.508C45.0411 110.216 45.528 110.021 45.9175 110.021H80.681C81.0706 110.021 81.1679 110.314 80.9732 110.606L79.3178 113.138C79.123 113.43 78.6361 113.722 78.344 113.722L43.0936 113.624Z" fill="white"/>
<path d="M28.3895 122.583C28 122.583 27.9026 122.388 28.0974 122.096L30.1423 119.467C30.337 119.175 30.8239 118.98 31.2134 118.98H75.6173C76.0068 118.98 76.2015 119.272 76.1041 119.564L75.3251 121.902C75.2277 122.291 74.8382 122.486 74.4487 122.486L28.3895 122.583Z" fill="white"/>
<path d="M51.9549 131.542C51.5654 131.542 51.4681 131.25 51.6628 130.958L53.0261 128.523C53.2208 128.231 53.6103 127.939 53.9999 127.939H73.4752C73.8647 127.939 74.0595 128.231 74.0595 128.621L73.8647 130.958C73.8647 131.347 73.4752 131.639 73.1831 131.639L51.9549 131.542Z" fill="white"/>
<path d="M153.032 111.872C146.897 113.43 142.71 114.598 136.673 116.156C135.212 116.546 135.115 116.643 133.849 115.183C132.388 113.527 131.317 112.456 129.272 111.482C123.137 108.464 117.197 109.34 111.647 112.943C105.025 117.227 101.617 123.557 101.714 131.444C101.812 139.235 107.167 145.662 114.86 146.733C121.482 147.609 127.032 145.272 131.414 140.306C132.291 139.235 133.07 138.066 134.043 136.703C130.538 136.703 126.156 136.703 115.25 136.703C113.205 136.703 112.718 135.437 113.4 133.782C114.665 130.763 117.002 125.699 118.366 123.167C118.658 122.583 119.34 121.609 120.8 121.609C125.766 121.609 144.073 121.609 156.245 121.609C156.051 124.239 156.051 126.868 155.661 129.497C154.59 136.508 151.961 142.935 147.676 148.583C140.665 157.834 131.512 163.579 119.924 165.137C110.381 166.403 101.52 164.553 93.7294 158.71C86.5235 153.257 82.4337 146.051 81.3626 137.092C80.0967 126.478 83.2127 116.935 89.6396 108.561C96.5533 99.5052 105.707 93.76 116.905 91.7151C126.059 90.0597 134.822 91.1308 142.71 96.4865C147.871 99.8947 151.571 104.569 154.006 110.216C154.59 111.093 154.2 111.58 153.032 111.872Z" fill="white"/>
<path d="M185.263 165.721C176.402 165.527 168.32 162.995 161.503 157.152C155.758 152.186 152.155 145.856 150.987 138.358C149.234 127.355 152.252 117.617 158.874 108.951C165.983 99.6027 174.552 94.7339 186.14 92.689C196.072 90.9362 205.42 91.91 213.892 97.6552C221.585 102.913 226.356 110.022 227.622 119.37C229.277 132.516 225.48 143.227 216.424 152.381C209.997 158.905 202.109 162.995 193.053 164.845C190.424 165.332 187.795 165.429 185.263 165.721ZM208.439 126.381C208.341 125.115 208.341 124.141 208.147 123.168C206.394 113.527 197.533 108.074 188.282 110.217C179.226 112.261 173.383 118.007 171.241 127.16C169.488 134.755 173.188 142.448 180.2 145.564C185.555 147.901 190.911 147.609 196.072 144.98C203.765 140.988 207.952 134.755 208.439 126.381Z" fill="white"/>
</svg>
