<svg width="256" height="256" viewBox="0 0 256 256" fill="none" xmlns="http://www.w3.org/2000/svg">
<path d="M0.000976562 56C0.000976562 25.0721 25.073 0 56.001 0H200.001C230.929 0 256.001 25.0721 256.001 56V200C256.001 230.928 230.929 256 200.001 256H56.001C25.073 256 0.000976562 230.928 0.000976562 200V56Z" fill="#F8FAFC"/>
<path d="M217.13 64.2578C211.305 58.451 203.454 55.1332 195.229 55.0039C187.005 54.8747 179.053 57.9441 173.047 63.5651C172.75 63.8386 172.513 64.1704 172.349 64.54C172.186 64.9096 172.102 65.3088 172.101 65.7127C172.089 66.1189 172.162 66.523 172.313 66.9002C172.463 67.2775 172.689 67.6199 172.978 67.9064L176.973 71.9014C177.488 72.4143 178.17 72.7247 178.896 72.7755C179.621 72.8264 180.34 72.6146 180.922 72.1786C184.601 69.4113 189.193 68.1433 193.77 68.6308C198.348 69.1181 202.57 71.3247 205.584 74.8047C208.598 78.2845 210.179 82.7785 210.007 87.379C209.836 91.9794 207.925 96.3433 204.661 99.5895C179.49 124.76 145.867 54.2126 69.6391 90.4909C68.3395 91.0945 67.1795 91.9616 66.2327 93.0371C65.2857 94.1126 64.5726 95.3731 64.1384 96.7386C63.7042 98.1042 63.5584 99.5453 63.7103 100.969C63.8622 102.395 64.3084 103.773 65.0207 105.016L78.1141 127.646C79.4732 129.998 81.7044 131.719 84.3239 132.437C86.9435 133.155 89.7404 132.811 92.1082 131.48L92.4314 131.226L92.1774 131.411L97.9736 128.178C104.437 124.161 110.547 119.603 116.24 114.554C116.801 114.036 117.529 113.738 118.293 113.713C119.055 113.687 119.802 113.936 120.397 114.415C120.744 114.686 121.028 115.031 121.227 115.424C121.427 115.818 121.537 116.251 121.55 116.692C121.563 117.133 121.479 117.571 121.304 117.976C121.128 118.38 120.866 118.741 120.535 119.034C114.565 124.427 108.127 129.28 101.299 133.535H101.092L95.2949 136.792C91.4953 138.892 87.0251 139.422 82.8394 138.269C78.6538 137.118 75.0849 134.375 72.8952 130.625L60.5176 109.288C36.7786 126.168 22.392 158.475 30.0818 199.325C30.2064 200.019 30.5707 200.646 31.111 201.098C31.6513 201.549 32.3333 201.797 33.0376 201.797H47.1009C47.8378 201.792 48.5479 201.52 49.0998 201.032C49.6517 200.543 50.0081 199.872 50.1029 199.141C50.7306 194.158 53.1555 189.575 56.9227 186.252C60.6898 182.929 65.54 181.097 70.5629 181.097C75.5857 181.097 80.4359 182.929 84.203 186.252C87.9702 189.575 90.3951 194.158 91.0228 199.141C91.1125 199.869 91.4641 200.541 92.0123 201.029C92.5604 201.518 93.2674 201.79 94.0017 201.797H107.719C108.456 201.792 109.165 201.52 109.718 201.032C110.269 200.543 110.626 199.872 110.721 199.141C111.348 194.158 113.774 189.575 117.54 186.252C121.307 182.929 126.158 181.097 131.181 181.097C136.203 181.097 141.054 182.929 144.821 186.252C148.588 189.575 151.013 194.158 151.641 199.141C151.733 199.898 152.107 200.593 152.69 201.084C153.273 201.577 154.019 201.832 154.781 201.797H168.337C169.129 201.79 169.888 201.477 170.453 200.92C171.018 200.364 171.343 199.61 171.362 198.818C171.662 179.697 176.811 157.759 191.521 146.744C242.279 108.687 228.885 76.0812 217.13 64.2578ZM165.219 121.781L155.52 116.908C155.516 115.865 155.78 114.839 156.286 113.927C156.793 113.015 157.524 112.248 158.411 111.7C159.299 111.152 160.313 110.84 161.355 110.796C162.396 110.751 163.433 110.974 164.363 111.444C165.295 111.914 166.089 112.615 166.673 113.48C167.256 114.345 167.606 115.345 167.693 116.384C167.778 117.424 167.596 118.468 167.163 119.417C166.729 120.366 166.06 121.188 165.219 121.804V121.781Z" fill="#02303A"/>
</svg>
