<svg width="256" height="256" viewBox="0 0 256 256" fill="none" xmlns="http://www.w3.org/2000/svg">
<path d="M208.21 70.332C202.967 65.1059 195.9 62.1199 188.499 62.0035C181.097 61.8872 173.939 64.6497 168.535 69.7086C168.268 69.9547 168.053 70.2534 167.907 70.586C167.76 70.9186 167.684 71.2779 167.683 71.6414C167.673 72.007 167.738 72.3707 167.873 72.7102C168.009 73.0497 168.213 73.3579 168.472 73.6158L172.067 77.2112C172.532 77.6729 173.146 77.9522 173.798 77.9979C174.451 78.0438 175.098 77.8531 175.622 77.4607C178.933 74.9702 183.065 73.829 187.186 74.2677C191.306 74.7063 195.106 76.6922 197.818 79.8242C200.53 82.9561 201.953 87.0007 201.799 91.1411C201.644 95.2814 199.925 99.2089 196.987 102.131C174.334 124.784 144.073 61.2913 75.4674 93.9418C74.2978 94.4851 73.2538 95.2654 72.4016 96.2334C71.5494 97.2014 70.9075 98.3358 70.5167 99.5648C70.1259 100.794 69.9947 102.091 70.1314 103.373C70.2681 104.655 70.6697 105.895 71.3108 107.014L83.0948 127.382C84.3181 129.498 86.3261 131.047 88.6837 131.693C91.0414 132.339 93.5585 132.029 95.6895 130.832L95.9805 130.604L95.7519 130.769L100.968 127.86C106.785 124.245 112.285 120.143 117.408 115.598C117.913 115.132 118.569 114.864 119.255 114.841C119.941 114.819 120.614 115.042 121.149 115.473C121.462 115.718 121.718 116.027 121.897 116.382C122.077 116.736 122.175 117.125 122.188 117.522C122.199 117.919 122.123 118.313 121.966 118.678C121.808 119.042 121.572 119.367 121.273 119.63C115.901 124.485 110.107 128.852 103.961 132.681H103.775L98.5576 135.612C95.138 137.502 91.1148 137.98 87.3477 136.943C83.5806 135.906 80.3686 133.437 78.3979 130.063L67.2581 110.86C45.8929 126.052 32.945 155.127 39.8658 191.893C39.9779 192.517 40.3058 193.082 40.7921 193.488C41.2784 193.894 41.8922 194.117 42.526 194.117H55.183C55.8462 194.112 56.4853 193.868 56.982 193.428C57.4787 192.989 57.7995 192.384 57.8848 191.727C58.4497 187.242 60.6322 183.117 64.0226 180.126C67.413 177.136 71.7781 175.487 76.2988 175.487C80.8194 175.487 85.1845 177.136 88.5749 180.126C91.9653 183.117 94.1478 187.242 94.7127 191.727C94.7934 192.383 95.1099 192.987 95.6032 193.426C96.0965 193.866 96.7329 194.111 97.3937 194.117H109.739C110.402 194.112 111.041 193.868 111.538 193.428C112.035 192.989 112.356 192.384 112.441 191.727C113.006 187.242 115.188 183.117 118.578 180.126C121.969 177.136 126.334 175.487 130.855 175.487C135.375 175.487 139.74 177.136 143.131 180.126C146.522 183.117 148.703 187.242 149.269 191.727C149.351 192.408 149.689 193.033 150.214 193.476C150.737 193.919 151.409 194.148 152.095 194.117H164.295C165.009 194.111 165.692 193.829 166.199 193.328C166.708 192.828 167.001 192.149 167.018 191.436C167.288 174.227 171.923 154.483 185.161 144.57C230.843 110.319 218.789 80.9731 208.21 70.332ZM161.489 122.103L152.76 117.718C152.756 116.779 152.994 115.855 153.45 115.035C153.905 114.213 154.564 113.524 155.363 113.03C156.161 112.536 157.073 112.256 158.011 112.216C158.948 112.175 159.881 112.376 160.719 112.8C161.557 113.222 162.273 113.853 162.797 114.632C163.322 115.411 163.638 116.311 163.715 117.246C163.792 118.182 163.628 119.122 163.239 119.975C162.849 120.83 162.246 121.57 161.489 122.124V122.103Z" fill="#02303A"/>
</svg>
