<svg width="256" height="256" viewBox="0 0 256 256" fill="none" xmlns="http://www.w3.org/2000/svg">
<path d="M211.244 117.609C210.925 114.732 210.605 111.215 209.326 107.378C208.366 103.542 206.768 99.3854 204.531 94.9094C202.292 90.4334 199.415 85.9573 195.898 81.4812C194.619 79.8828 193.021 77.9644 191.103 76.3659C193.66 66.135 187.906 57.5026 187.906 57.5026C178.314 56.8632 171.919 60.38 169.681 62.2984C169.361 62.2984 169.042 61.9787 168.402 61.6589C166.804 61.0196 165.205 60.38 163.287 59.7407C161.369 59.1012 159.77 58.7815 157.852 58.1421C155.933 57.8223 154.015 57.5026 152.417 57.1829C152.097 57.1829 151.777 57.1829 151.458 57.1829C147.301 43.7549 135.151 38 135.151 38C121.724 46.6324 119.167 58.4619 119.167 58.4619C119.167 58.4619 119.167 58.7815 119.167 59.1012C118.527 59.4209 117.567 59.4209 116.928 59.7407C115.969 60.0603 115.009 60.38 113.731 60.6998C112.772 61.0196 111.813 61.3393 110.534 61.9787C108.616 62.9378 106.378 63.897 104.46 64.8561C102.541 65.8152 100.623 67.0941 98.7044 68.373C98.3847 68.373 98.3847 68.0533 98.3847 68.0533C79.5215 61.0196 62.8962 69.6518 62.8962 69.6518C61.2977 89.4742 70.2497 102.263 72.168 104.501C71.8483 105.78 71.2089 107.059 70.8891 108.338C69.6103 112.813 68.3314 117.609 67.692 122.406C67.692 123.045 67.3722 123.684 67.3722 124.323C50.1076 132.955 44.9922 150.54 44.9922 150.54C59.3794 167.165 76.3243 168.124 76.3243 168.124C78.5624 171.961 80.8004 175.478 83.6778 178.994C84.9566 180.273 86.2355 181.872 87.1947 183.151C82.0792 198.178 87.8341 210.647 87.8341 210.647C103.82 211.286 114.37 203.613 116.609 201.695C118.207 202.334 119.806 202.653 121.404 203.293C126.2 204.572 131.316 205.212 136.43 205.53C137.709 205.53 138.989 205.53 140.268 205.53H140.907H141.226H141.865H142.505C150.179 216.401 163.287 218 163.287 218C172.879 208.088 173.198 198.178 173.198 195.939C173.198 195.62 173.198 195.62 173.198 195.62V195.3C175.116 194.021 177.034 192.423 178.954 190.824C182.789 187.307 185.986 183.471 188.864 179.314C189.184 178.994 189.503 178.675 189.503 178.035C200.374 178.675 207.727 171.321 207.727 171.321C205.809 160.131 199.414 154.696 198.135 153.737C198.135 153.737 198.135 153.737 197.817 153.737C197.817 153.097 197.817 152.457 197.817 151.818C197.817 150.54 197.817 149.261 197.817 148.302V146.704V146.383V146.064C197.817 145.743 197.817 145.743 197.817 145.743V145.105V144.146C197.817 143.826 197.817 143.506 197.817 143.187C197.817 142.867 197.817 142.547 197.817 142.227V141.268V140.308C197.496 139.03 197.496 137.751 197.177 136.792C195.898 131.997 194.299 127.52 191.742 123.364C189.184 119.208 186.307 115.691 182.789 112.494C179.272 109.296 175.436 107.059 171.28 105.14C167.123 103.222 162.967 102.263 158.491 101.623C156.253 101.304 154.335 101.304 152.097 101.304H151.458H151.138H150.818H150.498H149.859C149.539 101.304 149.219 101.304 148.9 101.304C147.94 101.304 146.662 101.623 145.703 101.623C141.547 102.263 137.39 103.861 133.873 106.099C130.356 108.338 127.159 110.895 124.602 113.773C122.044 116.65 120.125 120.167 118.846 123.684C117.567 127.201 116.928 130.717 116.609 134.234C116.609 135.194 116.609 135.833 116.609 136.792C116.609 137.112 116.609 137.112 116.609 137.432V138.071C116.609 138.39 116.609 139.03 116.609 139.35C116.928 140.948 117.248 142.867 117.567 144.465C118.527 147.662 120.125 150.54 121.724 153.097C123.642 155.655 125.881 157.574 128.119 159.171C130.356 160.771 132.914 162.05 135.472 162.689C138.03 163.329 140.268 163.648 142.825 163.648C143.144 163.648 143.465 163.648 143.784 163.648H144.104H144.424C144.744 163.648 145.063 163.648 145.063 163.648C145.063 163.648 145.063 163.648 145.383 163.648H145.703H146.023C146.342 163.648 146.662 163.648 146.982 163.648C147.301 163.648 147.621 163.648 147.94 163.329C148.579 163.329 148.9 163.009 149.539 163.009C150.498 162.689 151.458 162.369 152.417 161.73C153.376 161.41 154.015 160.771 154.974 160.131C155.293 160.131 155.294 159.812 155.614 159.492C156.573 158.853 156.573 157.574 155.933 156.934C155.294 156.295 154.335 155.975 153.696 156.615C153.376 156.615 153.376 156.934 153.056 156.934C152.417 157.254 151.777 157.574 150.818 157.893C150.179 158.213 149.219 158.213 148.579 158.532C148.26 158.532 147.621 158.532 147.301 158.532C146.982 158.532 146.982 158.532 146.662 158.532C146.342 158.532 146.342 158.532 146.023 158.532C145.703 158.532 145.703 158.532 145.383 158.532C145.063 158.532 144.744 158.532 144.744 158.532H144.424H144.104C143.784 158.532 143.784 158.532 143.465 158.532C141.547 158.213 139.948 157.893 138.03 156.934C136.111 156.295 134.512 155.016 132.913 153.737C131.316 152.457 130.037 150.54 129.077 148.941C128.119 147.343 127.159 145.104 126.839 142.867C126.52 141.908 126.52 140.629 126.52 139.669C126.52 139.35 126.52 139.03 126.52 138.711V138.39V138.071C126.52 137.432 126.52 136.792 126.839 136.152C127.798 131.357 130.037 126.881 133.873 123.045C134.833 122.085 135.791 121.445 136.751 120.486C137.709 119.847 138.989 119.208 139.948 118.568C141.226 117.929 142.505 117.609 143.465 117.289C144.744 116.97 146.023 116.65 147.301 116.65C147.94 116.65 148.579 116.65 149.219 116.65C149.539 116.65 149.539 116.65 149.539 116.65H150.179H150.498H151.138C152.417 116.65 154.015 116.97 155.293 117.289C158.172 117.929 160.729 118.888 163.287 120.486C168.402 123.364 172.558 127.841 175.436 132.955C176.715 135.513 177.675 138.391 178.314 141.268C178.314 141.908 178.633 142.867 178.633 143.506V144.146V144.785C178.633 145.104 178.633 145.104 178.633 145.425C178.633 145.743 178.633 145.743 178.633 146.064V146.704V147.343C178.633 147.662 178.633 148.301 178.633 148.622C178.633 149.581 178.633 150.22 178.314 151.18C178.314 151.819 177.994 152.778 177.994 153.417C177.994 154.057 177.674 155.016 177.354 155.655C177.034 157.254 176.395 158.853 175.756 160.131C174.477 163.009 172.879 165.886 170.96 168.764C167.123 173.879 162.008 178.355 155.933 180.913C153.056 182.192 149.859 183.151 146.662 183.79C145.063 184.11 143.465 184.111 141.865 184.429H141.547H141.226H140.587H139.948H139.628C139.948 184.429 139.628 184.429 139.628 184.429C138.669 184.429 138.03 184.429 137.07 184.429C133.554 184.111 130.037 183.471 126.839 182.511C123.642 181.553 120.125 180.273 117.248 178.675C111.174 175.478 105.738 171.002 101.262 165.566C99.0241 163.009 97.1058 160.131 95.827 156.934C94.2283 153.737 92.9496 150.54 91.9904 147.343C91.0312 144.146 90.3919 140.629 90.3919 137.432V136.792V136.473V135.833V133.915V133.594V132.955V132.636C90.3919 132.316 90.3919 131.676 90.3919 131.357C90.3919 129.759 90.7116 127.841 90.7116 126.241C91.0312 124.643 91.3509 122.724 91.6707 121.127C91.9904 119.527 92.3101 117.609 92.9495 116.01C93.9086 112.813 95.1875 109.617 96.4664 106.419C99.3438 100.345 102.86 94.9094 107.337 90.7531C108.295 89.7939 109.574 88.5151 110.853 87.5559C112.132 86.5968 113.411 85.6376 114.69 84.9982C115.969 84.039 117.248 83.3996 118.527 82.7602C119.167 82.4405 119.806 82.1207 120.445 81.801C120.765 81.801 121.084 81.4812 121.404 81.4812C121.723 81.4812 122.044 81.1616 122.363 81.1616C123.642 80.5222 125.241 80.2024 126.52 79.5631C126.839 79.5631 127.159 79.2433 127.479 79.2433C127.798 79.2433 128.119 78.9235 128.437 78.9235C129.077 78.6039 130.037 78.6039 130.676 78.2842C130.995 78.2842 131.316 77.9644 131.955 77.9644C132.274 77.9644 132.595 77.9644 133.234 77.6447C133.554 77.6447 133.873 77.6447 134.512 77.3251H135.151H135.791C136.111 77.3251 136.43 77.3251 137.07 77.0053C137.39 77.0053 138.03 77.0053 138.349 76.6856C138.669 76.6856 139.309 76.6856 139.628 76.6856C139.948 76.6856 140.268 76.6856 140.587 76.6856H141.226H141.547H141.865C142.186 76.6856 142.825 76.6856 143.144 76.6856H143.784C143.784 76.6856 144.104 76.6856 143.784 76.6856H144.104C144.424 76.6856 144.744 76.6856 145.063 76.6856C146.662 76.6856 147.94 76.6856 149.539 76.6856C152.417 76.6856 155.293 77.0053 158.172 77.6447C163.607 78.6039 168.722 80.5222 173.518 82.7602C178.314 84.9982 182.47 87.8756 185.986 91.0727C186.307 91.3925 186.307 91.3925 186.626 91.7123C186.946 92.0319 186.946 92.0319 187.265 92.3516C187.585 92.6714 188.224 92.9911 188.544 93.6304C188.864 94.2699 189.503 94.2699 189.824 94.9094C190.143 95.5488 190.782 95.8686 191.103 96.1882C192.7 97.7868 193.979 99.3854 195.259 101.304C197.817 104.501 200.055 108.017 201.652 111.215C201.652 111.534 201.973 111.534 201.973 111.854C201.973 112.174 202.292 112.174 202.292 112.494C202.612 112.813 202.612 113.133 202.931 113.773C203.252 114.092 203.252 114.412 203.57 115.052C203.891 115.371 203.891 115.691 204.21 116.331C204.85 117.929 205.49 119.208 205.809 120.486C206.449 122.724 207.088 124.643 207.408 126.241C207.727 126.881 208.366 127.52 209.006 127.201C209.645 127.201 210.285 126.562 210.285 125.921C211.564 122.085 211.564 119.847 211.244 117.609Z" fill="url(#paint0_linear_36_1403)"/>
<defs>
<linearGradient id="paint0_linear_36_1403" x1="128.727" y1="266.643" x2="128.727" y2="58.4147" gradientUnits="userSpaceOnUse">
<stop stop-color="#FFF100"/>
<stop offset="1" stop-color="#F05A28"/>
</linearGradient>
</defs>
</svg>
