<svg width="256" height="256" viewBox="0 0 256 256" fill="none" xmlns="http://www.w3.org/2000/svg">
<path d="M0.000976562 56C0.000976562 25.0721 25.073 0 56.001 0H200.001C230.929 0 256.001 25.0721 256.001 56V200C256.001 230.928 230.929 256 200.001 256H56.001C25.073 256 0.000976562 230.928 0.000976562 200V56Z" fill="#22272E"/>
<path d="M47.8623 176.192L55.2043 180.431L136.997 38.7663L129.655 34.5273L47.8623 176.192Z" fill="#E535AB"/>
<path d="M209.766 164.875H46.1807V173.353H209.766V164.875Z" fill="#E535AB"/>
<path d="M49.418 169.637L131.241 216.879L135.48 209.537L53.657 162.295L49.418 169.637Z" fill="#E535AB"/>
<path d="M120.498 46.5122L202.321 93.7542L206.56 86.4122L124.737 39.1702L120.498 46.5122Z" fill="#E535AB"/>
<path d="M49.4404 86.3798L53.6794 93.7218L135.503 46.4797L131.264 39.1377L49.4404 86.3798Z" fill="#E535AB"/>
<path d="M119.02 38.7676L200.812 180.432L208.154 176.193L126.362 34.5286L119.02 38.7676Z" fill="#E535AB"/>
<path d="M61.145 80.7578H52.667V175.242H61.145V80.7578Z" fill="#E535AB"/>
<path d="M203.332 80.7578H194.854V175.242H203.332V80.7578Z" fill="#E535AB"/>
<path d="M126.095 206.877L129.798 213.291L200.962 172.203L197.259 165.79L126.095 206.877Z" fill="#E535AB"/>
<path d="M214.566 178C209.663 186.529 198.733 189.44 190.204 184.537C181.675 179.634 178.764 168.705 183.667 160.176C188.57 151.646 199.5 148.735 208.029 153.638C216.609 158.592 219.52 169.471 214.566 178Z" fill="#E535AB"/>
<path d="M72.2789 95.8244C67.3759 104.353 56.4464 107.265 47.9173 102.362C39.3882 97.4587 36.4771 86.5292 41.38 78.0001C46.283 69.4709 57.2125 66.5598 65.7416 71.4628C74.2707 76.4168 77.1819 87.2953 72.2789 95.8244Z" fill="#E535AB"/>
<path d="M41.4308 178C36.5279 169.471 39.439 158.592 47.9681 153.638C56.4972 148.735 67.3756 151.646 72.3296 160.176C77.2326 168.705 74.3214 179.583 65.7923 184.537C57.2122 189.44 46.3338 186.529 41.4308 178Z" fill="#E535AB"/>
<path d="M183.719 95.8244C178.816 87.2953 181.727 76.4168 190.256 71.4628C198.785 66.5598 209.664 69.4709 214.618 78.0001C219.521 86.5292 216.61 97.4076 208.08 102.362C199.551 107.265 188.622 104.353 183.719 95.8244Z" fill="#E535AB"/>
<path d="M128 228C118.143 228 110.176 220.033 110.176 210.176C110.176 200.319 118.143 192.351 128 192.351C137.857 192.351 145.824 200.319 145.824 210.176C145.824 219.982 137.857 228 128 228Z" fill="#E535AB"/>
<path d="M128 63.6486C118.143 63.6486 110.176 55.6813 110.176 45.8243C110.176 35.9673 118.143 28 128 28C137.857 28 145.824 35.9673 145.824 45.8243C145.824 55.6813 137.857 63.6486 128 63.6486Z" fill="#E535AB"/>
</svg>
