<svg width="256" height="256" viewBox="0 0 256 256" fill="none" xmlns="http://www.w3.org/2000/svg">
<path d="M55.9678 171.373L62.5756 175.188L136.189 47.6896L129.581 43.8745L55.9678 171.373Z" fill="#E535AB"/>
<path d="M201.683 161.188H54.4561V168.818H201.683V161.188Z" fill="#E535AB"/>
<path d="M57.3682 165.473L131.009 207.991L134.824 201.383L61.1833 158.865L57.3682 165.473Z" fill="#E535AB"/>
<path d="M121.341 54.661L194.981 97.1789L198.797 90.5711L125.156 48.0532L121.341 54.661Z" fill="#E535AB"/>
<path d="M57.3877 90.5418L61.2028 97.1496L134.844 54.6317L131.029 48.0239L57.3877 90.5418Z" fill="#E535AB"/>
<path d="M120.01 47.6908L193.623 175.189L200.231 171.374L126.618 43.8757L120.01 47.6908Z" fill="#E535AB"/>
<path d="M67.9232 85.4819H60.293V170.518H67.9232V85.4819Z" fill="#E535AB"/>
<path d="M195.891 85.4819H188.261V170.518H195.891V85.4819Z" fill="#E535AB"/>
<path d="M126.378 198.989L129.711 204.762L193.758 167.783L190.425 162.011L126.378 198.989Z" fill="#E535AB"/>
<path d="M206.002 173C201.589 180.676 191.752 183.296 184.076 178.883C176.4 174.471 173.78 164.634 178.193 156.958C182.606 149.281 192.443 146.661 200.119 151.074C207.841 155.533 210.461 165.324 206.002 173Z" fill="#E535AB"/>
<path d="M77.9432 99.0418C73.5305 106.718 63.6939 109.338 56.0177 104.926C48.3415 100.513 45.7216 90.6762 50.1342 83C54.5469 75.3237 64.3834 72.7037 72.0596 77.1164C79.7358 81.575 82.3559 91.3657 77.9432 99.0418Z" fill="#E535AB"/>
<path d="M50.1801 173C45.7675 165.324 48.3874 155.533 56.0636 151.074C63.7398 146.661 73.5305 149.281 77.9891 156.958C82.4018 164.634 79.7817 174.425 72.1055 178.883C64.3833 183.296 54.5928 180.676 50.1801 173Z" fill="#E535AB"/>
<path d="M178.239 99.0418C173.826 91.3657 176.446 81.575 184.122 77.1164C191.798 72.7037 201.589 75.3237 206.048 83C210.461 90.6762 207.841 100.467 200.164 104.926C192.488 109.338 182.651 106.718 178.239 99.0418Z" fill="#E535AB"/>
<path d="M128.092 218C119.221 218 112.051 210.83 112.051 201.959C112.051 193.087 119.221 185.916 128.092 185.916C136.964 185.916 144.134 193.087 144.134 201.959C144.134 210.784 136.964 218 128.092 218Z" fill="#E535AB"/>
<path d="M128.092 70.0837C119.221 70.0837 112.051 62.9132 112.051 54.0419C112.051 45.1706 119.221 38 128.092 38C136.964 38 144.134 45.1706 144.134 54.0419C144.134 62.9132 136.964 70.0837 128.092 70.0837Z" fill="#E535AB"/>
</svg>
