<svg width="256" height="256" viewBox="0 0 256 256" fill="none" xmlns="http://www.w3.org/2000/svg">
<path d="M0.000976562 56C0.000976562 25.0721 25.073 0 56.001 0H200.001C230.929 0 256.001 25.0721 256.001 56V200C256.001 230.928 230.929 256 200.001 256H56.001C25.073 256 0.000976562 230.928 0.000976562 200V56Z" fill="#F8FAFC"/>
<path d="M36.5602 166.606L32 57.0579L104.897 109.639V227.958L36.5602 166.606Z" fill="#E40000" stroke="white" stroke-width="4.919"/>
<path d="M104.919 227.978L214.275 184.168L223.396 74.6204L104.919 109.682V228V227.978Z" fill="#7FE719" stroke="white" stroke-width="4.919"/>
<path d="M32 57.0581L104.897 109.639L223.373 74.5781L142.02 28L32 57.0581Z" fill="#729FCF" stroke="white" stroke-width="4.919"/>
<path d="M141.665 134.951V28.511M141.665 134.951L36.958 164.754L141.665 134.951ZM141.665 134.951L214.717 183.913L141.665 134.951Z" stroke="white" stroke-width="2.901"/>
</svg>
