<svg width="256" height="256" viewBox="0 0 256 256" fill="none" xmlns="http://www.w3.org/2000/svg">
<path d="M0.000976562 56C0.000976562 25.0721 25.073 0 56.001 0H200.001C230.929 0 256.001 25.0721 256.001 56V200C256.001 230.928 230.929 256 200.001 256H56.001C25.073 256 0.000976562 230.928 0.000976562 200V56Z" fill="#22272E"/>
<path d="M28 198.176L75.0593 127.588L28 57H63.2944L110.354 127.588L63.2944 198.176H28Z" fill="#352950"/>
<path d="M75.059 198.176L122.119 127.588L75.059 57H110.354L204.471 198.176H169.176L139.766 154.059L110.353 198.176H75.0586H75.059Z" fill="#4A3A74"/>
<path d="M188.785 157L173.099 133.468L228 133.466V156.997H188.784L188.785 157ZM165.256 121.706L149.569 98.1735L228 98.1719V121.702H165.251L165.256 121.706Z" fill="#7C3679"/>
</svg>
