<svg width="256" height="256" viewBox="0 0 256 256" fill="none" xmlns="http://www.w3.org/2000/svg">
<path d="M127.997 60.5004L76.7376 54.8233L37.999 38H82.9966L127.997 60.5034" fill="#FBC707"/>
<path d="M127.997 60.5004L180.431 55.9972L217.996 38H172.994L127.997 60.5034" fill="#FBC707"/>
<path d="M127.997 195.499L176.909 197.26L217.996 218H172.994L127.997 195.495" fill="#F68712"/>
<path d="M127.997 195.499H78.694L37.999 218H82.9966L127.997 195.495" fill="#F25C19"/>
<path d="M60.4978 128.001V175.347L37.999 218V173.001L60.4978 128" fill="#FFF200"/>
<path d="M60.4978 128L56.7812 81.0411L37.999 38V82.9987L60.4978 127.999" fill="#FFF200"/>
<path d="M195.494 128L200.388 78.6932L217.997 38V82.9987L195.494 127.999" fill="#F1471D"/>
<path d="M195.494 128.001L199.606 180.826L217.997 218V173.001L195.494 128" fill="#F1471D"/>
<path d="M37.999 38L127.997 60.5004L113.52 117.825L60.4978 128L37.999 38.0048" fill="#FAB20B"/>
<path d="M217.996 38L195.493 128L135.04 117.039L127.997 60.4976L217.996 38.0048" fill="#F47216"/>
<path d="M217.996 218L127.997 195.499L138.171 135.829L195.493 128.005L217.996 217.994" fill="#F25C19"/>
<path d="M37.999 218L60.4978 128L114.694 140.129L127.997 195.499L37.999 217.994" fill="#F89C0E"/>
<path d="M127.998 60.5002L60.498 128L127.998 195.499L195.493 128L127.998 60.5032" fill="#F68712"/>
</svg>
