<svg width="256" height="256" viewBox="0 0 256 256" fill="none" xmlns="http://www.w3.org/2000/svg">
<path d="M0.000976562 56C0.000976562 25.0721 25.073 0 56.001 0H200.001C230.929 0 256.001 25.0721 256.001 56V200C256.001 230.928 230.929 256 200.001 256H56.001C25.073 256 0.000976562 230.928 0.000976562 200V56Z" fill="#22272E"/>
<path d="M127.998 60.5004L76.7385 54.8233L38 38H82.9976L127.998 60.5034" fill="#FBC707"/>
<path d="M127.998 60.5004L180.432 55.9972L217.996 38H172.995L127.998 60.5034" fill="#FBC707"/>
<path d="M127.998 195.499L176.91 197.26L217.996 218H172.995L127.998 195.495" fill="#F68712"/>
<path d="M127.998 195.499H78.695L38 218H82.9976L127.998 195.495" fill="#F25C19"/>
<path d="M60.4988 128.001V175.347L38 218V173.001L60.4988 128" fill="#FFF200"/>
<path d="M60.4988 128L56.7822 81.0411L38 38V82.9987L60.4988 127.999" fill="#FFF200"/>
<path d="M195.495 128L200.389 78.6932L217.998 38V82.9987L195.495 127.999" fill="#F1471D"/>
<path d="M195.495 128.001L199.607 180.826L217.998 218V173.001L195.495 128" fill="#F1471D"/>
<path d="M38 38L127.998 60.5004L113.521 117.825L60.4988 128L38 38.0048" fill="#FAB20B"/>
<path d="M217.996 38L195.494 128L135.041 117.039L127.998 60.4976L217.996 38.0048" fill="#F47216"/>
<path d="M217.996 218L127.998 195.499L138.172 135.829L195.494 128.005L217.996 217.994" fill="#F25C19"/>
<path d="M38 218L60.4988 128L114.695 140.129L127.998 195.499L38 217.994" fill="#F89C0E"/>
<path d="M127.999 60.5004L60.499 128L127.999 195.499L195.494 128L127.999 60.5034" fill="#F68712"/>
</svg>
