<svg width="256" height="256" viewBox="0 0 256 256" fill="none" xmlns="http://www.w3.org/2000/svg">
<path d="M0.000976562 56C0.000976562 25.0721 25.073 0 56.001 0H200.001C230.929 0 256.001 25.0721 256.001 56V200C256.001 230.928 230.929 256 200.001 256H56.001C25.073 256 0.000976562 230.928 0.000976562 200V56Z" fill="#0F172A"/>
<path d="M61.3389 60.5001H195.369V195.5H61.3389V60.5001Z" fill="#00CC33"/>
<path d="M39 38H83.6766L128.353 60.5L61.3383 128L39 83.0001V38Z" fill="#FFCC33"/>
<path d="M128.354 60.5L173.03 38H217.706V83.0001L195.368 128L128.354 60.5Z" fill="#FF3366"/>
<path d="M61.3383 128L128.353 195.5L83.6766 218H39V173L61.3383 128Z" fill="#3333FF"/>
<path d="M195.368 128L217.706 173V218H173.03L128.354 195.5L195.368 128Z" fill="#00CCFF"/>
</svg>
