<svg width="256" height="256" viewBox="0 0 256 256" fill="none" xmlns="http://www.w3.org/2000/svg">
<path d="M196 0H60C26.8629 0 0 26.8629 0 60V196C0 229.137 26.8629 256 60 256H196C229.137 256 256 229.137 256 196V60C256 26.8629 229.137 0 196 0Z" fill="#430098"/>
<path d="M64 228V170.857L96.1429 199.429L64 228ZM164 228V142.679C163.861 136.011 160.65 128 146.143 128C117.093 128 84.5071 142.611 84.1821 142.757L64 151.9V28H92.5714V109.111C106.836 104.468 126.774 99.4289 146.143 99.4289C163.803 99.4289 174.374 106.371 180.132 112.197C192.421 124.624 192.589 140.457 192.572 142.286V228H164ZM171.143 74.4286H142.571C153.8 59.6964 160.85 44.1929 164 28H192.571C190.643 44.2286 184.064 59.7857 171.143 74.4286Z" fill="white"/>
</svg>
