<svg width="256" height="256" viewBox="0 0 256 256" fill="none" xmlns="http://www.w3.org/2000/svg">
<path d="M0.000976562 56C0.000976562 25.0721 25.073 0 56.001 0H200.001C230.929 0 256.001 25.0721 256.001 56V200C256.001 230.928 230.929 256 200.001 256H56.001C25.073 256 0.000976562 230.928 0.000976562 200V56Z" fill="#F8FAFC"/>
<path d="M70.4624 28L108.931 94.6249L70.4437 161.343L32 94.6249L70.4624 28Z" fill="#59666C"/>
<path d="M147.412 28.0032H70.4844L108.954 94.6282H185.902L147.412 28.0032Z" fill="#BCAE79"/>
<path d="M185.861 228L147.393 161.375L185.88 94.6562L224.324 161.375L185.861 228Z" fill="#59666C"/>
<path d="M108.912 227.994H185.85L147.412 161.37H70.4219L108.912 227.994Z" fill="#BCAE79"/>
</svg>
