<svg width="256" height="256" viewBox="0 0 256 256" fill="none" xmlns="http://www.w3.org/2000/svg">
<g clip-path="url(#clip0_30_380)">
<path d="M196 0H60C26.8629 0 0 26.8629 0 60V196C0 229.137 26.8629 256 60 256H196C229.137 256 256 229.137 256 196V60C256 26.8629 229.137 0 196 0Z" fill="#E14E1D"/>
<path d="M48 38L56.5675 134.119H166.734L163.037 175.345L127.566 184.936L92.1621 175.359L89.795 148.888H57.8901L62.4523 199.917L127.558 218L192.747 199.917L201.487 102.338H85.6384L82.7297 69.788H204.27H204.368L207.214 38H48Z" fill="white"/>
<path d="M127.607 38H48L56.5675 134.119H127.607V102.338H85.6384L82.7297 69.788H127.607V38Z" fill="#EBEBEB"/>
<path d="M127.607 184.922L127.566 184.936L92.1618 175.359L89.7946 148.888H57.8896L62.4519 199.917L127.558 218L127.607 217.986V184.922Z" fill="#EBEBEB"/>
</g>
<defs>
<clipPath id="clip0_30_380">
<rect width="256" height="256" fill="white"/>
</clipPath>
</defs>
</svg>
