<svg width="256" height="256" viewBox="0 0 256 256" fill="none" xmlns="http://www.w3.org/2000/svg">
<path d="M48.0375 48.3617L60.5468 190.121C61.0658 196.011 65.1657 200.978 70.8513 202.602L121.531 217.082C125.807 218.306 130.336 218.306 134.612 217.082L185.292 202.602C190.978 200.978 195.077 196.016 195.596 190.121L208.106 48.3617C208.601 42.7904 204.215 38 198.625 38H57.523C51.9326 38 47.547 42.7904 48.0375 48.3617Z" fill="url(#paint0_linear_170_37)"/>
<path d="M128.074 52.2854V204.187L175.102 190.749C178.897 189.664 181.63 186.349 181.973 182.421L192.859 57.4615C193.101 54.6758 190.911 52.2854 188.116 52.2854H128.074Z" fill="#F09601"/>
<path d="M128.074 133.236V114.189H169.026L165.693 168.95L128.074 181.33V161.331L147.598 154.664L149.026 133.236H128.074ZM170.454 95.1417L171.883 76.0945H128.074V95.1417H170.454Z" fill="white"/>
<path d="M128.074 161.331V181.33L90.4554 168.95L88.5507 142.76H107.598L108.55 154.664L128.074 161.331ZM104.741 95.1417H128.074V76.0945H84.7412L88.0745 133.236H128.074V114.189H106.169L104.741 95.1417Z" fill="#D6E0E9"/>
<path opacity="0.05" d="M171.883 76.0946L170.454 95.1418H128.074H104.741L106.17 114.189H128.074H169.026L165.693 168.95L128.074 181.331L90.456 168.95L88.5513 142.76H107.599L108.551 154.664L128.074 161.331L147.598 154.664L149.026 133.236H128.074H88.0751L84.7419 76.0946H128.074H171.883ZM177.016 71.3328H171.883H128.074H84.7419H79.6943L79.9896 76.3708L83.3228 133.512L83.5847 137.998H83.4324L83.8038 143.108L85.7085 169.297L85.9418 172.478L88.9703 173.474L126.589 185.854L128.074 186.345L129.565 185.854L167.183 173.474L170.25 172.464L170.445 169.24L173.778 114.48L174.088 109.427H169.026H128.074H110.589L109.875 99.9036H128.074H170.454H174.873L175.202 95.499L176.631 76.4517L177.016 71.3328ZM111.994 137.998H128.074H143.936L143.055 151.184L128.074 156.298L113.046 151.169L112.341 142.379L111.994 137.998Z" fill="black"/>
<path opacity="0.07" d="M171.882 76.0945L170.453 95.1418H128.073H104.74L106.169 114.189H128.073H169.025L165.691 168.95L128.073 181.331L90.4547 168.95L88.55 142.76H107.597L108.55 154.664L128.073 161.331L147.596 154.664L149.025 133.236H128.073H88.0738L84.7406 76.0945H128.073H171.882ZM174.448 73.7136H171.882H128.073H84.7406H82.2168L82.3644 76.2326L85.6977 133.374L85.8263 135.617H88.0738H128.073H146.482L145.33 152.922L128.073 158.817L110.797 152.917L109.969 142.569L109.792 140.379H107.597H88.55H85.9882L86.1739 142.931L88.0786 169.121L88.1929 170.712L89.7071 171.212L127.325 183.592L128.073 183.835L128.816 183.592L166.434 171.212L167.967 170.707L168.067 169.093L171.401 114.332L171.553 111.808H169.025H128.073H108.378L107.307 97.5227H128.073H170.453H172.663L172.829 95.318L174.258 76.2707L174.448 73.7136Z" fill="black"/>
<defs>
<linearGradient id="paint0_linear_170_37" x1="100.494" y1="25.6812" x2="176.449" y2="234.358" gradientUnits="userSpaceOnUse">
<stop stop-color="#F09701"/>
<stop offset="1" stop-color="#E36001"/>
</linearGradient>
</defs>
</svg>
