<svg width="256" height="256" viewBox="0 0 256 256" fill="none" xmlns="http://www.w3.org/2000/svg">
<path d="M196 0H60C26.8629 0 0 26.8629 0 60V196C0 229.137 26.8629 256 60 256H196C229.137 256 256 229.137 256 196V60C256 26.8629 229.137 0 196 0Z" fill="#E14E1D"/>
<path d="M48 38L56.6098 134.593H167.32L163.605 176.023L127.959 185.661L92.38 176.037L90.0012 149.435H57.9389L62.5236 200.716L127.951 218.888L193.461 200.716L202.244 102.655H85.8241L82.901 69.9448H205.041H205.139L208 38H48Z" fill="white"/>
<path d="M128 38H48L56.6098 134.593H128V102.655H85.8241L82.901 69.9448H128V38Z" fill="#EBEBEB"/>
<path d="M128 185.647L127.959 185.661L92.3797 176.037L90.0009 149.435H57.9385L62.5233 200.716L127.951 218.888L128 218.874V185.647Z" fill="#EBEBEB"/>
</svg>
