<svg width="256" height="256" viewBox="0 0 256 256" fill="none" xmlns="http://www.w3.org/2000/svg">
<g clip-path="url(#clip0_30_457)">
<path d="M196 0H60C26.8629 0 0 26.8629 0 60V196C0 229.137 26.8629 256 60 256H196C229.137 256 256 229.137 256 196V60C256 26.8629 229.137 0 196 0Z" fill="#330000"/>
<path d="M128.07 169.95H77.8432L67.5819 201.68C67.3118 202.895 66.2317 203.705 65.0166 203.57H39.6332C38.1479 203.57 37.7429 202.76 38.1479 201.14L81.6238 75.9785C82.0288 74.6283 82.4339 73.1431 82.974 71.5229C83.514 68.6875 83.7841 65.7171 83.7841 62.7466C83.6491 62.0716 84.1892 61.3965 84.8642 61.2615H85.2693H119.833C120.914 61.2615 121.454 61.6665 121.589 62.3416L170.87 201.411C171.275 202.895 170.87 203.57 169.521 203.57H141.301C140.357 203.705 139.411 203.031 139.142 202.085L128.07 169.95ZM85.6743 142.542H119.969C119.159 139.707 118.079 136.331 116.864 132.821C115.649 129.175 114.434 125.26 113.218 121.21C111.868 117.024 110.653 112.973 109.302 108.787C107.953 104.603 106.738 100.687 105.657 96.7712C104.577 92.9908 103.631 89.4802 102.687 86.2398H102.416C101.201 92.0456 99.7162 97.8514 97.826 103.657C95.8007 110.138 93.7754 116.888 91.6151 123.64C89.7249 130.526 87.6996 136.871 85.6743 142.542Z" fill="#FF9A00"/>
<path d="M200.98 84.8895C196.525 85.0246 192.204 83.2693 188.964 80.1639C185.859 76.7884 184.239 72.3328 184.373 67.7423C184.239 63.1516 185.993 58.8311 189.234 55.7256C192.474 52.6202 196.795 51 201.251 51C206.517 51 210.567 52.6202 213.537 55.7256C216.508 58.966 218.128 63.2867 217.992 67.7423C218.128 72.3328 216.508 76.7884 213.267 80.1639C210.162 83.4043 205.571 85.1596 200.98 84.8895ZM185.859 202.085V98.1214C185.859 96.7711 186.398 96.231 187.613 96.231H214.347C215.562 96.231 216.103 96.9062 216.103 98.1214V202.085C216.103 203.57 215.562 204.246 214.347 204.246H187.884C186.534 204.246 185.859 203.436 185.859 202.085Z" fill="#FF9A00"/>
</g>
<defs>
<clipPath id="clip0_30_457">
<rect width="256" height="256" fill="white"/>
</clipPath>
</defs>
</svg>
