<svg width="256" height="256" viewBox="0 0 256 256" fill="none" xmlns="http://www.w3.org/2000/svg">
<g clip-path="url(#clip0_30_399)">
<path d="M196 0H60C26.8629 0 0 26.8629 0 60V196C0 229.137 26.8629 256 60 256H196C229.137 256 256 229.137 256 196V60C256 26.8629 229.137 0 196 0Z" fill="url(#paint0_radial_30_399)"/>
<path d="M196 0H60C26.8629 0 0 26.8629 0 60V196C0 229.137 26.8629 256 60 256H196C229.137 256 256 229.137 256 196V60C256 26.8629 229.137 0 196 0Z" fill="url(#paint1_radial_30_399)"/>
<path d="M128.008 38C103.566 38 100.498 38.1069 90.898 38.5438C81.3167 38.9825 74.7766 40.4994 69.0541 42.7251C63.1347 45.0238 58.1133 48.0989 53.1108 53.1033C48.1045 58.1058 45.0295 63.1271 42.7232 69.0447C40.4919 74.7691 38.9732 81.3111 38.5419 90.8887C38.1125 100.489 38 103.558 38 128.001C38 152.444 38.1087 155.502 38.5438 165.102C38.9844 174.683 40.5013 181.223 42.7251 186.945C45.0257 192.866 48.1007 197.887 53.1052 202.889C58.1058 207.896 63.1271 210.978 69.0428 213.277C74.7691 215.503 81.3111 217.019 90.8906 217.458C100.491 217.895 103.556 218.002 127.997 218.002C152.442 218.002 155.5 217.895 165.1 217.458C174.681 217.019 181.229 215.503 186.955 213.277C192.873 210.978 197.887 207.896 202.887 202.889C207.894 197.887 210.968 192.866 213.275 186.948C215.487 181.223 217.006 174.681 217.456 165.103C217.887 155.504 218 152.444 218 128.001C218 103.558 217.887 100.491 217.456 90.8906C217.006 81.3092 215.487 74.7691 213.275 69.0466C210.968 63.1271 207.894 58.1058 202.887 53.1033C197.881 48.097 192.875 45.022 186.95 42.7251C181.212 40.4994 174.669 38.9825 165.087 38.5438C155.487 38.1069 152.43 38 127.98 38H128.008ZM119.934 54.2189C122.331 54.2152 125.005 54.2189 128.008 54.2189C152.039 54.2189 154.887 54.3052 164.376 54.7364C173.151 55.1377 177.914 56.6039 181.087 57.8358C185.287 59.4671 188.281 61.4171 191.429 64.5672C194.579 67.7172 196.529 70.7173 198.164 74.9173C199.396 78.086 200.864 82.8486 201.264 91.6237C201.695 101.111 201.788 103.961 201.788 127.98C201.788 151.999 201.695 154.85 201.264 164.337C200.862 173.112 199.396 177.874 198.164 181.043C196.533 185.244 194.579 188.234 191.429 191.383C188.279 194.533 185.289 196.482 181.087 198.114C177.918 199.351 173.151 200.814 164.376 201.215C154.888 201.646 152.039 201.74 128.008 201.74C103.976 201.74 101.128 201.646 91.6405 201.215C82.8654 200.81 78.1029 199.344 74.9285 198.112C70.7285 196.48 67.7284 194.531 64.5784 191.381C61.4284 188.231 59.4783 185.238 57.8433 181.036C56.6115 177.867 55.1433 173.104 54.744 164.329C54.3127 154.842 54.2265 151.992 54.2265 127.958C54.2265 103.924 54.3127 101.089 54.744 91.6012C55.1452 82.8261 56.6115 78.0635 57.8433 74.891C59.4746 70.691 61.4284 67.6909 64.5784 64.5409C67.7284 61.3909 70.7285 59.4409 74.9285 57.8059C78.101 56.5684 82.8654 55.1058 91.6405 54.7027C99.9431 54.3277 103.161 54.2152 119.934 54.1964V54.2189ZM176.05 69.1629C170.088 69.1629 165.25 73.9948 165.25 79.9592C165.25 85.9218 170.088 90.7593 176.05 90.7593C182.013 90.7593 186.85 85.9218 186.85 79.9592C186.85 73.9966 182.013 69.1591 176.05 69.1591V69.1629ZM128.008 81.7817C102.484 81.7817 81.7892 102.476 81.7892 128.001C81.7892 153.526 102.484 174.211 128.008 174.211C153.533 174.211 174.22 153.526 174.22 128.001C174.22 102.476 153.531 81.7817 128.006 81.7817H128.008ZM128.008 98.0007C144.576 98.0007 158.009 111.431 158.009 128.001C158.009 144.569 144.576 158.002 128.008 158.002C111.439 158.002 98.0081 144.569 98.0081 128.001C98.0081 111.431 111.439 98.0007 128.008 98.0007Z" fill="white"/>
</g>
<defs>
<radialGradient id="paint0_radial_30_399" cx="0" cy="0" r="1" gradientUnits="userSpaceOnUse" gradientTransform="translate(68.0003 275.717) rotate(-90) scale(253.715 235.975)">
<stop stop-color="#FFDD55"/>
<stop offset="0.1" stop-color="#FFDD55"/>
<stop offset="0.5" stop-color="#FF543E"/>
<stop offset="1" stop-color="#C837AB"/>
</radialGradient>
<radialGradient id="paint1_radial_30_399" cx="0" cy="0" r="1" gradientUnits="userSpaceOnUse" gradientTransform="translate(-42.8814 18.4418) rotate(78.6806) scale(113.412 467.488)">
<stop stop-color="#3771C8"/>
<stop offset="0.128" stop-color="#3771C8"/>
<stop offset="1" stop-color="#6600FF" stop-opacity="0"/>
</radialGradient>
<clipPath id="clip0_30_399">
<rect width="256" height="256" fill="white"/>
</clipPath>
</defs>
</svg>
