<svg width="256" height="256" viewBox="0 0 256 256" fill="none" xmlns="http://www.w3.org/2000/svg">
<path d="M0.000976562 56C0.000976562 25.0721 25.073 0 56.001 0H200.001C230.929 0 256.001 25.0721 256.001 56V200C256.001 230.928 230.929 256 200.001 256H56.001C25.073 256 0.000976562 230.928 0.000976562 200V56Z" fill="#0F172A"/>
<path d="M101.634 182.618C101.634 182.618 93.9548 187.292 106.979 188.629C122.707 190.633 131.023 190.298 148.386 186.961C148.386 186.961 153.06 189.97 159.406 192.305C120.331 209.001 70.9089 191.303 101.634 182.618ZM96.6252 160.913C96.6252 160.913 88.2753 167.259 101.299 168.592C118.327 170.261 131.69 170.596 154.732 165.925C154.732 165.925 157.741 169.266 162.747 170.935C115.664 184.96 62.8975 172.268 96.6252 160.916V160.913ZM188.795 198.983C188.795 198.983 194.471 203.657 182.449 207.333C160.073 214.011 88.6104 216.018 68.5735 207.333C61.564 204.324 74.9197 199.981 79.2587 199.318C83.6012 198.316 85.9366 198.316 85.9366 198.316C78.2569 192.972 34.8424 209.336 63.8959 214.045C143.709 227.072 209.499 208.369 188.792 199.017L188.795 198.983ZM105.307 138.203C105.307 138.203 68.9052 146.887 92.2793 149.889C102.298 151.222 122 150.891 140.368 149.554C155.396 148.22 170.458 145.547 170.458 145.547C170.458 145.547 165.113 147.885 161.441 150.221C124.342 159.914 53.2107 155.572 73.5827 145.553C90.9526 137.204 105.307 138.203 105.307 138.203ZM170.423 174.603C207.83 155.233 190.46 136.534 178.438 138.873C175.429 139.54 174.096 140.207 174.096 140.207C174.096 140.207 175.097 138.202 177.436 137.539C201.145 129.19 219.849 162.585 169.757 175.609C169.757 175.609 170.092 175.274 170.423 174.607V174.603ZM108.979 227.363C145.046 229.702 200.147 226.029 201.484 208.994C201.484 208.994 198.817 215.672 171.764 220.682C141.042 226.358 102.968 225.691 80.5957 222.015C80.5957 222.015 85.2698 226.022 108.982 227.359L108.979 227.363Z" fill="#4E7896"/>
<path d="M147.689 28C147.689 28 168.393 49.0388 127.987 80.7593C95.5927 106.472 120.636 121.168 127.987 137.861C108.952 120.833 95.2645 105.802 104.61 91.7761C118.335 71.0828 156.066 61.0644 147.689 28ZM137.004 123.842C146.687 134.862 134.337 144.881 134.337 144.881C134.337 144.881 159.048 132.195 147.696 116.494C137.342 101.466 129.328 94.1183 172.742 69.0689C172.742 69.0689 104.281 86.0967 137.011 123.835L137.004 123.842Z" fill="#F58219"/>
</svg>
