<svg width="256" height="256" viewBox="0 0 256 256" fill="none" xmlns="http://www.w3.org/2000/svg">
<g clip-path="url(#clip0_196_169)">
<rect width="256" height="256" rx="56" fill="#F0DB4F"/>
<path d="M96.0003 214.221L111.673 204.736C114.696 210.097 117.446 214.633 124.044 214.633C130.367 214.633 134.354 212.159 134.354 202.537V137.101H153.6V202.809C153.6 222.742 141.916 231.815 124.868 231.815C109.473 231.815 100.536 223.842 96 214.219" fill="#323330"/>
<path d="M164.055 212.158L179.725 203.086C183.85 209.822 189.211 214.771 198.696 214.771C206.671 214.771 211.755 210.784 211.755 205.285C211.755 198.687 206.532 196.349 197.734 192.501L192.923 190.438C179.038 184.528 169.827 177.104 169.827 161.433C169.827 146.998 180.825 136 198.01 136C210.244 136 219.042 140.262 225.365 151.397L210.381 161.02C207.081 155.109 203.509 152.772 198.01 152.772C192.373 152.772 188.799 156.347 188.799 161.02C188.799 166.793 192.373 169.131 200.621 172.706L205.432 174.767C221.79 181.779 231.001 188.926 231.001 205.01C231.001 222.332 217.392 231.817 199.109 231.817C181.238 231.817 169.69 223.294 164.055 212.158Z" fill="#323330"/>
</g>
<defs>
<clipPath id="clip0_196_169">
<rect width="256" height="256" fill="white"/>
</clipPath>
</defs>
</svg>
