<svg width="256" height="256" viewBox="0 0 256 256" fill="none" xmlns="http://www.w3.org/2000/svg">
<path d="M104.863 177.157C104.863 177.157 97.9515 181.363 109.673 182.567C123.829 184.37 131.313 184.069 146.94 181.066C146.94 181.066 151.146 183.774 156.858 185.875C121.69 200.902 77.2102 184.973 104.863 177.157ZM100.355 157.622C100.355 157.622 92.84 163.334 104.561 164.533C119.887 166.035 131.913 166.337 152.651 162.133C152.651 162.133 155.359 165.14 159.865 166.642C117.49 179.265 70 167.842 100.355 157.625V157.622ZM183.308 191.885C183.308 191.885 188.416 196.092 177.596 199.4C157.458 205.411 93.1416 207.217 75.1084 199.4C68.7998 196.692 80.8199 192.784 84.725 192.187C88.6333 191.285 90.7352 191.285 90.7352 191.285C83.8234 186.475 44.7504 201.203 70.8985 205.441C142.73 217.165 201.941 200.333 183.305 191.916L183.308 191.885ZM108.169 137.182C108.169 137.182 75.4069 144.999 96.4436 147.701C105.46 148.9 123.192 148.602 139.723 147.399C153.249 146.199 166.804 143.793 166.804 143.793C166.804 143.793 161.994 145.897 158.689 147.999C125.3 156.723 61.2818 152.815 79.6166 143.798C95.2496 136.283 108.169 137.182 108.169 137.182ZM166.773 169.943C200.439 152.51 184.806 135.68 173.986 137.785C171.278 138.386 170.079 138.986 170.079 138.986C170.079 138.986 170.98 137.182 173.085 136.586C194.423 129.071 211.256 159.127 166.174 170.849C166.174 170.849 166.475 170.547 166.773 169.947V169.943ZM111.473 217.427C143.934 219.532 193.525 216.227 194.728 200.895C194.728 200.895 192.328 206.905 167.98 211.414C140.33 216.523 106.063 215.923 85.9283 212.614C85.9283 212.614 90.135 216.22 111.476 217.424L111.473 217.427Z" fill="#4E7896"/>
<path d="M146.312 38C146.312 38 164.946 56.9349 128.58 85.4835C99.4256 108.625 121.964 121.851 128.58 136.875C111.449 121.55 99.1303 108.022 107.541 95.3986C119.893 76.7745 153.851 67.758 146.312 38ZM136.695 124.258C145.41 134.176 134.295 143.193 134.295 143.193C134.295 143.193 156.535 131.776 146.318 117.645C137 104.119 129.787 97.5066 168.86 74.962C168.86 74.962 107.245 90.2872 136.702 124.252L136.695 124.258Z" fill="#F58219"/>
</svg>
