<svg width="256" height="256" viewBox="0 0 256 256" fill="none" xmlns="http://www.w3.org/2000/svg">
<path d="M126.923 132.043C122.432 124.803 119.174 118.8 114.661 107.496C107.029 88.4034 161.077 71.1508 139.163 38C148.662 60.9 105.067 75.0567 101.017 94.1273C97.3136 111.668 126.9 132.043 126.923 132.043Z" fill="#D43A02"/>
<path d="M127.95 97.7183C127.086 109.04 137.98 115.074 138.295 123.345C138.547 130.077 131.784 135.688 131.784 135.688C131.784 135.688 144.06 133.276 147.889 123.008C152.142 111.605 139.636 103.798 140.923 94.6673C142.125 85.9465 168.062 69.7244 168.062 69.7244C168.062 69.7244 129.899 72.2533 127.95 97.7183Z" fill="#D43A02"/>
<path d="M164.876 132.75C172.769 130.977 179.424 136.003 179.424 141.795C179.424 154.849 161.33 167.188 161.33 167.188C161.33 167.188 189.342 163.849 189.342 142.416C189.342 128.241 175.586 124.699 164.876 132.75ZM151.579 143.28C151.579 143.28 160.313 137.056 162.639 134.721C141.206 139.27 92.2698 139.882 92.2698 135.931C92.2698 132.291 108.051 128.56 108.051 128.56C108.051 128.56 73.0732 128.056 73.0732 138.375C73.0732 149.129 118.86 149.899 151.579 143.28Z" fill="url(#paint0_linear_36_1333)"/>
<path d="M146.206 153.071C125.916 159.817 88.5444 157.661 99.6141 148.603C94.2233 148.603 86.2314 152.936 86.2314 157.103C86.2314 165.46 126.65 171.913 156.565 159.677L146.206 153.071Z" fill="url(#paint1_linear_36_1333)"/>
<path d="M104.586 167.327C97.2244 167.327 92.459 172.07 92.459 175.526C92.459 186.285 136.378 187.369 153.779 176.448L142.718 169.104C129.718 174.819 97.0624 175.607 104.586 167.327Z" fill="url(#paint2_linear_36_1333)"/>
<path d="M183.762 184.845C183.762 180.633 179.014 178.649 177.313 177.699C187.339 201.877 76.8892 200.001 76.8892 185.727C76.8892 182.483 85.0205 179.306 92.5353 180.809L86.1455 177.033C71.1698 174.684 61 181.268 61 186.578C61 211.341 183.762 210.148 183.762 184.845Z" fill="url(#paint3_linear_36_1333)"/>
<path d="M195.997 193.719C177.34 212.146 130.033 218.86 82.46 207.475C130.033 227.738 195.772 216.327 195.997 193.719Z" fill="url(#paint4_linear_36_1333)"/>
<defs>
<linearGradient id="paint0_linear_36_1333" x1="122.545" y1="115.286" x2="158.814" y2="214.931" gradientUnits="userSpaceOnUse">
<stop stop-color="#5C65D6"/>
<stop offset="0.999" stop-color="#464EB0"/>
</linearGradient>
<linearGradient id="paint1_linear_36_1333" x1="108.24" y1="122.468" x2="143.331" y2="218.882" gradientUnits="userSpaceOnUse">
<stop stop-color="#5C65D6"/>
<stop offset="0.999" stop-color="#464EB0"/>
</linearGradient>
<linearGradient id="paint2_linear_36_1333" x1="104.64" y1="125.55" x2="140.153" y2="223.13" gradientUnits="userSpaceOnUse">
<stop stop-color="#5C65D6"/>
<stop offset="0.999" stop-color="#464EB0"/>
</linearGradient>
<linearGradient id="paint3_linear_36_1333" x1="101.634" y1="128.893" x2="136.873" y2="225.704" gradientUnits="userSpaceOnUse">
<stop stop-color="#5C65D6"/>
<stop offset="0.999" stop-color="#464EB0"/>
</linearGradient>
<linearGradient id="paint4_linear_36_1333" x1="113.761" y1="130.621" x2="147.524" y2="223.387" gradientUnits="userSpaceOnUse">
<stop stop-color="#5C65D6"/>
<stop offset="0.999" stop-color="#464EB0"/>
</linearGradient>
</defs>
</svg>
