<svg width="256" height="256" viewBox="0 0 256 256" fill="none" xmlns="http://www.w3.org/2000/svg">
<path d="M0.000976562 56C0.000976562 25.0721 25.073 0 56.001 0H200.001C230.929 0 256.001 25.0721 256.001 56V200C256.001 230.928 230.929 256 200.001 256H56.001C25.073 256 0.000976562 230.928 0.000976562 200V56Z" fill="#F8FAFC"/>
<path fill-rule="evenodd" clip-rule="evenodd" d="M198.468 124.375C198.468 163.999 167.063 196.122 128.324 196.122C89.5844 196.122 58.1797 163.999 58.1797 124.375C58.1797 84.749 89.5844 52.626 128.324 52.626C167.063 52.626 198.468 84.749 198.468 124.375Z" fill="#D33833"/>
<path d="M61.0373 142.144C61.0373 142.144 55.9594 67.3234 124.902 65.1854L120.092 57.1689L82.682 69.7284L71.9931 82.0201L62.6407 99.9242L57.2959 120.767L58.8992 134.662" fill="#EF3D3A"/>
<path d="M80.2807 75.4299C67.9737 88.0222 60.358 105.409 60.358 124.643C60.358 143.873 67.9737 161.261 80.2807 173.852C92.5936 186.441 109.563 194.21 128.322 194.21C147.083 194.21 164.053 186.441 176.365 173.852C188.671 161.261 196.289 143.873 196.289 124.643C196.289 105.409 188.671 88.0222 176.365 75.4299C164.053 62.8424 147.083 55.0735 128.322 55.0719C109.563 55.0735 92.5936 62.8424 80.2807 75.4299ZM77.1655 176.897C64.086 163.521 56 145.034 56 124.643C56 104.247 64.086 85.7632 77.1655 72.386C90.2418 59.0064 108.343 50.7134 128.322 50.7158C148.303 50.7134 166.405 59.0064 179.479 72.386C192.56 85.7632 200.647 104.249 200.646 124.643C200.647 145.034 192.56 163.521 179.479 176.897C166.405 190.275 148.303 198.568 128.322 198.568C108.343 198.568 90.2418 190.275 77.1655 176.897Z" fill="#231F20"/>
<path fill-rule="evenodd" clip-rule="evenodd" d="M157.851 124.773L147.161 126.376L132.731 127.98L123.378 128.246L114.294 127.98L107.346 125.842L101.199 119.161L96.3893 105.533L95.3206 102.593L88.9074 100.456L85.1663 94.3098L82.4941 85.4916L85.434 77.742L92.3811 75.3371L97.9927 78.0097L100.666 83.8883L103.872 83.3536L104.941 82.0181L103.872 75.8718L103.604 68.1222L105.208 57.4338L105.145 51.3284L110.018 43.5387L118.569 37.3925L133.533 30.9792L150.1 33.3843L164.53 43.8057L171.211 54.4941L175.486 62.2437L176.555 81.4833L173.348 98.0511L167.469 112.747L161.858 120.497" fill="#F0D6B7"/>
<path fill-rule="evenodd" clip-rule="evenodd" d="M148.765 171L110.552 172.604V179.017L113.758 201.463L112.156 203.334L85.4339 194.248L83.5629 191.042L80.8908 160.847L74.7457 142.676L73.4092 138.4L94.786 123.703L101.467 121.031L107.345 128.246L112.423 132.789L118.301 134.66L120.974 135.461L124.18 149.356L126.585 152.296L132.731 150.158L128.455 158.442L151.704 169.398L148.765 171Z" fill="#335061"/>
<path fill-rule="evenodd" clip-rule="evenodd" d="M85.4337 77.7419L92.3808 75.3369L97.9923 78.0096L100.665 83.8881L103.872 83.3534L104.673 80.1468L103.07 74.0014L104.673 59.3039L103.336 51.2873L108.147 45.6758L118.568 37.3923L115.629 33.384L100.931 40.5989L94.7857 45.4088L91.312 52.8906L85.9675 60.1055L84.3643 68.6567L85.4337 77.7419Z" fill="#6D6B6D"/>
<path fill-rule="evenodd" clip-rule="evenodd" d="M96.3896 52.6236C96.3896 52.6236 100.398 42.7368 116.431 37.9269C132.464 33.117 117.232 34.4525 117.232 34.4525L99.864 41.1335L93.183 47.8136L90.2441 53.1583L96.3896 52.6236Z" fill="#DCD9D8"/>
<path fill-rule="evenodd" clip-rule="evenodd" d="M88.3725 75.8714C88.3725 75.8714 82.7609 57.1656 104.139 54.4938L103.336 51.2871L88.6402 54.7615L84.3643 68.6565L85.4337 77.7416L88.3725 75.8714Z" fill="#DCD9D8"/>
<path fill-rule="evenodd" clip-rule="evenodd" d="M96.9238 100.723L100.422 97.3325C100.422 97.3325 102.002 97.5161 102.268 99.3864C102.535 101.258 103.337 118.092 114.827 127.178C115.876 128.007 106.277 125.841 106.277 125.841L97.7255 112.48" fill="#F7E4CD"/>
<path fill-rule="evenodd" clip-rule="evenodd" d="M146.093 95.6459C146.093 95.6459 146.717 87.546 148.898 88.1689C151.079 88.7918 151.079 90.973 151.079 90.973C151.079 90.973 145.781 94.4001 146.093 95.6459Z" fill="#F7E4CD"/>
<path d="M168.271 65.9849C168.271 65.9849 163.866 66.9147 163.461 70.7948C163.055 74.6756 168.271 71.5964 169.073 71.3294" fill="#F7E4CD"/>
<path d="M135.938 66.2524C135.938 66.2524 130.06 67.0541 130.06 70.7946C130.06 74.5359 136.741 74.2689 138.611 72.6657" fill="#F7E4CD"/>
<path fill-rule="evenodd" clip-rule="evenodd" d="M99.5961 83.6212C99.5961 83.6212 89.4415 77.4748 88.3731 83.3542C87.3043 89.2327 84.8987 93.5087 89.9763 99.6542L86.5026 98.5856L83.296 90.3021L82.2275 82.2855L88.3731 75.8716L95.3208 76.4062L99.329 79.6129L99.5961 83.6212Z" fill="#F7E4CD"/>
<path fill-rule="evenodd" clip-rule="evenodd" d="M104.406 66.7867C104.406 66.7867 108.948 43.2718 131.93 38.7288C150.85 34.9891 160.788 39.5305 164.53 43.8057C164.53 43.8057 147.695 23.7652 131.662 29.9107C115.63 36.0569 103.872 47.2801 104.139 54.4941C104.594 66.7819 104.406 66.7867 104.406 66.7867Z" fill="#F7E4CD"/>
<path fill-rule="evenodd" clip-rule="evenodd" d="M166.4 46.4774C166.4 46.4774 158.652 46.2105 158.384 53.1584C158.384 53.1584 158.384 54.227 158.918 55.2956C158.918 55.2956 165.065 48.3477 168.806 52.089" fill="#F7E4CD"/>
<path fill-rule="evenodd" clip-rule="evenodd" d="M132.468 56.0196C132.468 56.0196 131.134 45.3552 122.042 51.5552C116.163 55.5634 116.699 61.175 117.766 62.2436C118.836 63.313 118.544 65.4655 119.359 63.988C120.171 62.5105 119.904 57.7006 122.843 56.3651C125.783 55.0288 130.602 53.5361 132.468 56.0196Z" fill="#F7E4CD"/>
<path fill-rule="evenodd" clip-rule="evenodd" d="M107.345 128.245L82.2273 139.469C82.2273 139.469 92.6488 180.888 87.304 193.715L83.5629 192.379L83.2957 176.613L76.3489 146.685L73.4092 138.4L99.5959 120.765L107.345 128.245Z" fill="#49728B"/>
<path fill-rule="evenodd" clip-rule="evenodd" d="M109.928 151.155L113.492 155.503V171.535H109.216C109.216 171.535 108.683 160.313 108.683 158.977C108.683 157.64 109.216 152.83 109.216 152.83" fill="#49728B"/>
<path fill-rule="evenodd" clip-rule="evenodd" d="M110.018 173.941L97.9932 174.475L101.467 176.88L110.018 178.216" fill="#49728B"/>
<path fill-rule="evenodd" clip-rule="evenodd" d="M151.17 171.268L161.056 171.001L163.462 195.585L153.307 196.921L151.17 171.268Z" fill="#335061"/>
<path fill-rule="evenodd" clip-rule="evenodd" d="M153.841 171.268L168.806 170.467C168.806 170.467 174.952 154.968 174.952 154.166C174.952 153.365 180.296 131.72 180.296 131.72L168.27 119.161L165.866 117.023L159.452 123.437V148.288L153.841 171.268Z" fill="#335061"/>
<path fill-rule="evenodd" clip-rule="evenodd" d="M160.521 169.397L151.17 171.268L152.506 178.751C155.979 180.355 161.858 176.079 161.858 176.079" fill="#49728B"/>
<path fill-rule="evenodd" clip-rule="evenodd" d="M160.789 122.635L179.495 136.53L180.029 130.117L165.866 117.023L160.789 122.635Z" fill="#49728B"/>
<path fill-rule="evenodd" clip-rule="evenodd" d="M119.292 223.913L113.759 201.463L111.008 184.899L110.553 172.604L135.592 171.27L151.17 171.268L149.754 199.328L152.159 220.973L151.892 224.981L131.583 226.585L119.292 223.913Z" fill="white"/>
<path fill-rule="evenodd" clip-rule="evenodd" d="M147.696 171.001C147.696 171.001 146.36 198.792 150.369 218.565C150.369 218.565 142.352 223.643 130.594 224.979L153.04 224.177L155.712 222.574L152.506 178.751L151.704 169.397" fill="#DCD9D8"/>
<path fill-rule="evenodd" clip-rule="evenodd" d="M163.917 193.45L174.339 190.51L194.112 189.442L197.051 180.356L191.707 164.59L185.562 163.789L177.01 166.461L168.806 170.467L164.451 169.668L161.057 171.001" fill="white"/>
<path fill-rule="evenodd" clip-rule="evenodd" d="M163.729 188.103C163.729 188.103 170.676 184.897 171.745 185.164L168.806 170.467L172.279 169.131C172.279 169.131 174.685 183.026 174.685 184.629C174.685 184.629 189.648 185.431 190.984 185.431C190.984 185.431 194.191 179.285 193.389 172.871L196.329 181.423L196.596 186.232L192.321 192.646L187.51 193.715L179.495 193.448L176.823 189.974L167.469 191.31L164.53 192.379" fill="#DCD9D8"/>
<path d="M153.228 169.133L147.349 154.169L141.203 145.35C141.203 145.35 142.539 141.61 144.41 141.61C146.28 141.61 150.555 141.61 150.555 141.61L156.434 143.748L155.9 153.634L153.228 169.133Z" fill="white"/>
<path fill-rule="evenodd" clip-rule="evenodd" d="M154.376 164.053C154.376 164.053 146.894 149.624 146.894 147.486C146.894 147.486 148.23 144.28 150.1 145.081C151.971 145.883 155.98 148.021 155.98 148.021V142.943L146.894 141.073L140.748 141.874L151.17 166.458L153.307 166.726" fill="#DCD9D8"/>
<path d="M121.696 128.784L114.294 127.979L107.346 125.841V128.245L110.74 131.989L121.429 136.799" fill="white"/>
<path fill-rule="evenodd" clip-rule="evenodd" d="M109.752 129.585C109.752 129.585 118.035 133.059 120.708 132.257L120.974 135.461L113.492 133.861L108.949 130.654L109.752 129.585Z" fill="#DCD9D8"/>
<path fill-rule="evenodd" clip-rule="evenodd" d="M163.887 142.519C159.353 142.386 155.256 141.848 151.67 140.836C151.913 139.365 151.457 137.923 151.823 136.863C152.824 136.144 154.499 136.155 156.01 135.986C154.704 135.344 152.868 135.089 151.359 135.461C151.324 134.44 150.867 133.808 150.589 133.009C153.138 132.099 159.157 126.134 162.541 128.109C164.155 129.049 164.84 134.415 164.965 137.024C165.07 139.189 164.768 141.372 163.887 142.519Z" fill="#D33833"/>
<path d="M163.887 142.519C159.353 142.386 155.256 141.848 151.67 140.836C151.913 139.365 151.457 137.923 151.823 136.863C152.824 136.144 154.499 136.155 156.01 135.986C154.704 135.344 152.868 135.089 151.359 135.461C151.324 134.44 150.867 133.808 150.589 133.009C153.138 132.099 159.157 126.134 162.541 128.109C164.155 129.049 164.84 134.415 164.965 137.024C165.07 139.189 164.768 141.372 163.887 142.519Z" stroke="#D33833" stroke-width="2.5"/>
<path fill-rule="evenodd" clip-rule="evenodd" d="M142.206 135.108C142.194 135.451 142.179 135.796 142.166 136.142C140.75 137.073 138.464 137.061 136.91 137.843C139.201 137.943 141.004 138.494 142.564 139.272C142.53 140.136 142.497 140.999 142.463 141.864C139.868 143.64 137.498 146.286 134.442 147.952C132.997 148.739 127.928 150.767 126.391 150.409C125.521 150.207 125.443 149.127 125.096 148.111C124.354 145.932 122.65 142.465 122.501 139.186C122.312 135.045 121.893 128.104 126.356 128.957C129.957 129.644 134.145 131.303 136.932 132.826C138.636 133.757 139.622 134.909 142.206 135.108Z" fill="#D33833"/>
<path d="M142.206 135.108C142.194 135.451 142.179 135.796 142.166 136.142C140.75 137.073 138.464 137.061 136.91 137.843C139.201 137.943 141.004 138.494 142.564 139.272C142.53 140.136 142.497 140.999 142.463 141.864C139.868 143.64 137.498 146.286 134.442 147.952C132.997 148.739 127.928 150.767 126.391 150.409C125.521 150.207 125.443 149.127 125.096 148.111C124.354 145.932 122.65 142.465 122.501 139.186C122.312 135.045 121.893 128.104 126.356 128.957C129.957 129.644 134.145 131.303 136.932 132.826C138.636 133.757 139.622 134.909 142.206 135.108Z" stroke="#D33833" stroke-width="2.5"/>
<path fill-rule="evenodd" clip-rule="evenodd" d="M144.783 140.049C144.387 137.793 143.93 137.15 144.107 135.181C150.122 131.17 151.252 142.071 144.783 140.049Z" fill="#D33833"/>
<path d="M144.783 140.049C144.387 137.793 143.93 137.15 144.107 135.181C150.122 131.17 151.252 142.071 144.783 140.049Z" stroke="#D33833" stroke-width="2.5"/>
<path fill-rule="evenodd" clip-rule="evenodd" d="M153.495 141.877C153.495 141.877 151.623 139.204 152.959 138.403C154.296 137.601 155.633 138.404 156.434 137.067C157.235 135.731 156.434 134.929 156.701 133.326C156.967 131.723 158.305 131.455 159.64 131.188C160.976 130.921 164.718 130.386 165.252 131.723L163.648 126.913L160.442 125.844L150.287 131.723L149.753 134.662V140.541" fill="#EF3D3A"/>
<path fill-rule="evenodd" clip-rule="evenodd" d="M125.437 150.696C125.116 146.525 124.777 142.361 124.398 138.194C123.832 131.973 125.892 133.059 131.285 133.059C132.108 133.059 136.356 134.041 136.66 134.662C138.117 137.639 134.223 136.977 138.339 139.222C141.812 141.116 147.95 138.072 146.547 133.861C145.761 132.925 142.454 133.569 141.267 132.954C139.18 131.872 137.092 130.79 135.005 129.707C132.349 128.329 126.21 126.32 123.379 128.245C116.204 133.126 123.831 145.318 126.391 150.409" fill="#EF3D3A"/>
<path fill-rule="evenodd" clip-rule="evenodd" d="M132.468 56.0194C125.185 54.3231 121.566 59.0673 119.358 63.9879C117.387 63.51 118.172 60.8293 118.67 59.4634C119.974 55.8783 125.227 51.1061 129.52 51.753C131.367 52.0312 133.867 53.7203 132.468 56.0194Z" fill="#231F20"/>
<path fill-rule="evenodd" clip-rule="evenodd" d="M167.955 64.3132C168.07 64.318 168.186 64.322 168.3 64.3268C169.947 67.7459 171.37 71.3678 173.447 74.386C172.055 77.6255 162.914 80.4922 163.055 74.6754C165.032 73.8112 168.446 74.499 170.198 73.3952C169.184 70.6142 167.722 68.2469 167.955 64.3132Z" fill="#231F20"/>
<path fill-rule="evenodd" clip-rule="evenodd" d="M136.197 64.4023C137.759 67.2651 138.267 70.2728 140.487 72.4365C141.486 73.4105 143.43 74.5977 142.467 77.3066C142.242 77.9455 140.596 79.37 139.645 79.6498C136.176 80.6743 128.089 79.8614 130.827 75.5349C133.698 75.6687 137.556 77.3987 139.701 75.3153C138.053 72.6819 135.116 67.4719 136.197 64.4023Z" fill="#231F20"/>
<path fill-rule="evenodd" clip-rule="evenodd" d="M166.652 93.4975C161.427 96.8539 155.601 100.504 147.039 99.6573C145.21 98.0669 144.512 94.5276 146.29 92.19C147.215 93.7804 146.633 96.7057 149.211 97.1458C154.07 97.9772 159.724 94.1741 163.218 92.8449C165.385 89.1918 163.032 87.8482 161.08 85.497C157.083 80.6799 151.723 74.7091 151.918 67.4975C153.532 66.3262 153.673 69.2852 153.904 69.8239C155.991 74.7075 161.242 80.9532 165.075 85.133C166.016 86.1624 167.566 87.15 167.738 87.8306C168.235 89.8099 166.444 92.1812 166.652 93.4975Z" fill="#231F20"/>
<path fill-rule="evenodd" clip-rule="evenodd" d="M97.7669 89.9637C96.1292 89.029 95.7393 84.9118 93.8165 84.7947C91.0688 84.628 91.5698 90.1361 91.5808 93.3572C89.6893 91.64 89.3568 86.3532 90.7462 83.6379C89.1627 82.8604 88.4556 84.4957 87.5771 85.0721C88.7061 76.8712 99.5738 81.2682 97.7669 89.9637Z" fill="#231F20"/>
<path fill-rule="evenodd" clip-rule="evenodd" d="M169.979 96.9124C167.547 101.542 164.106 106.64 156.969 106.788C156.824 105.294 156.713 103.019 156.977 102.118C162.434 101.594 165.802 98.8171 169.979 96.9124Z" fill="#231F20"/>
<path fill-rule="evenodd" clip-rule="evenodd" d="M135.786 99.9141C140.338 102.308 148.704 102.565 154.891 102.384C155.223 103.739 155.215 105.414 155.228 107.067C147.274 107.464 137.871 105.496 135.786 99.9141Z" fill="#231F20"/>
<path fill-rule="evenodd" clip-rule="evenodd" d="M134.92 104.377C138.069 112.281 148.888 111.371 158.011 111.154C157.61 112.179 156.738 113.392 155.657 113.83C152.732 115.019 144.669 115.922 140.61 113.767C138.037 112.398 136.382 109.306 134.972 107.494C134.291 106.618 130.899 104.382 134.92 104.377Z" fill="#231F20"/>
<path fill-rule="evenodd" clip-rule="evenodd" d="M166.271 147.974C162.578 154.301 159.043 160.799 154.66 166.379C156.498 160.977 157.284 151.934 157.561 145.041C161.405 143.242 164.698 145.446 166.271 147.974Z" fill="#81B0C4"/>
<path fill-rule="evenodd" clip-rule="evenodd" d="M186.15 170.713C182.014 171.541 179.108 175.56 175.074 175.302C177.291 172.177 181.177 170.858 186.15 170.713Z" fill="#231F20"/>
<path fill-rule="evenodd" clip-rule="evenodd" d="M187.974 177.185C184.603 177.541 180.643 178.087 177.225 177.805C178.843 175.333 185.079 176.186 187.974 177.185Z" fill="#231F20"/>
<path fill-rule="evenodd" clip-rule="evenodd" d="M189.143 182.766C185.354 182.848 180.645 182.772 177.044 182.47C179.174 180.182 186.685 181.621 189.143 182.766Z" fill="#231F20"/>
<path fill-rule="evenodd" clip-rule="evenodd" d="M159.144 198.036C159.687 202.794 161.574 207.615 161.337 212.826C159.243 213.532 158.039 214.15 155.233 214.146C155.035 209.718 154.442 202.948 154.62 198.726C155.999 198.818 158.035 197.741 159.144 198.036Z" fill="#DCD9D8"/>
<path fill-rule="evenodd" clip-rule="evenodd" d="M153.036 127.914C151.134 129.156 149.513 130.707 147.687 132.032C143.636 132.232 141.425 131.751 138.447 129.425C138.496 129.238 138.795 129.322 138.806 129.093C143.143 131.026 148.657 128.305 153.036 127.914Z" fill="#F0D6B7"/>
<path fill-rule="evenodd" clip-rule="evenodd" d="M130.269 157.477C131.46 152.313 136.129 149.639 140.369 146.796C144.745 152.35 147.407 159.493 150.338 166.385C143.414 164.298 136.337 160.91 130.269 157.477Z" fill="#81B0C4"/>
<path fill-rule="evenodd" clip-rule="evenodd" d="M154.62 198.726C154.443 202.948 155.035 209.718 155.233 214.146C158.039 214.15 159.243 213.532 161.337 212.825C161.574 207.615 159.687 202.794 159.144 198.036C158.035 197.74 156 198.818 154.62 198.726ZM110.918 174.718C112.769 191.732 115.45 206.033 120.366 221.099C131.277 224.412 144.431 224.701 154.076 221.712C152.305 213.208 153.079 202.856 152.044 193.782C151.263 186.962 151.662 180.099 150.592 173.141C138.906 170.71 122.387 172.573 110.918 174.718ZM153.355 173.247C153.256 180.555 153.682 187.762 154.241 195.078C157.046 194.657 158.95 194.376 161.557 193.805C160.711 186.761 160.815 178.836 159.09 172.605C157.097 172.624 155.342 172.582 153.355 173.247ZM167.589 172.07C166.257 171.765 164.707 172.058 163.435 172.083C164.032 178.039 165.484 184.611 165.994 190.864C167.996 190.926 169.066 189.982 170.712 189.665C170.8 184.176 170.232 176.615 167.589 172.07ZM189.14 191.761C193.313 190.747 195.937 185.637 194.769 180.388C193.986 176.861 192.591 170.22 191.099 167.963C189.995 166.294 187.005 164.109 184.617 165.638C180.732 168.126 173.888 168.848 171.055 171.859C172.475 176.589 172.916 183.086 173.503 189.078C178.356 189.381 184.328 187.743 188.363 189.481C185.545 190.394 181.889 190.401 179.454 191.732C181.444 192.692 186.102 192.498 189.14 191.761ZM150.338 166.385C147.408 159.493 144.745 152.351 140.369 146.796C136.129 149.639 131.46 152.314 130.269 157.477C136.337 160.91 143.414 164.298 150.338 166.385ZM157.562 145.041C157.285 151.934 156.499 160.977 154.661 166.379C159.044 160.798 162.579 154.3 166.272 147.974C164.698 145.446 161.406 143.242 157.562 145.041ZM149.372 142.131C147.713 141.953 146.303 144.04 144.144 143.137C143.65 143.685 143.2 144.277 142.695 144.81C147.464 150.557 149.631 158.709 153.313 165.463C155.29 158.976 155.062 151.868 155.497 144.789C152.782 144.961 151.275 142.333 149.372 142.131ZM144.107 135.181C143.93 137.149 144.387 137.793 144.783 140.049C151.252 142.071 150.123 131.17 144.107 135.181ZM136.933 132.826C134.145 131.303 129.957 129.644 126.357 128.957C121.894 128.103 122.312 135.045 122.501 139.186C122.65 142.465 124.355 145.932 125.096 148.111C125.443 149.127 125.521 150.207 126.391 150.409C127.929 150.767 132.998 148.739 134.443 147.952C137.498 146.286 139.868 143.64 142.463 141.864C142.497 140.999 142.53 140.136 142.564 139.272C141.005 138.494 139.202 137.943 136.911 137.843C138.464 137.06 140.75 137.072 142.166 136.142C142.179 135.796 142.194 135.451 142.206 135.108C139.621 134.908 138.636 133.757 136.933 132.826ZM110.306 127.989C107.993 130.338 116.795 133.54 119.599 133.712C119.583 132.226 120.445 130.825 120.272 129.758C116.943 129.174 112.568 129.56 110.306 127.989ZM138.807 129.093C138.796 129.322 138.496 129.238 138.447 129.425C141.425 131.751 143.635 132.232 147.687 132.032C149.514 130.707 151.134 129.156 153.036 127.914C148.657 128.305 143.144 131.026 138.807 129.093ZM164.967 137.024C164.842 134.415 164.156 129.049 162.544 128.109C159.158 126.133 153.139 132.099 150.59 133.01C150.868 133.808 151.325 134.44 151.36 135.461C152.869 135.09 154.705 135.344 156.011 135.986C154.5 136.155 152.825 136.144 151.825 136.863C151.458 137.923 151.915 139.366 151.671 140.836C155.257 141.848 159.354 142.386 163.888 142.519C164.77 141.372 165.071 139.189 164.967 137.024ZM106.412 130.261C105.685 129.743 100.771 123.348 100.098 123.614C91.2041 127.121 82.8885 133.186 75.4575 138.921C82.5425 154.124 85.4024 172.75 85.9079 190.701C94.0239 194.498 101.152 199.97 112.166 200.541C110.892 191.525 109.728 183.48 109.005 174.99C106.238 173.823 102.268 175.043 99.6778 174.629C99.6558 171.507 103.632 173.262 103.964 171.163C104.214 169.576 101.775 169.455 102.57 166.956C104.594 167.692 105.657 169.317 107.816 169.928C109.789 165.612 107.789 157.975 108.073 154.367C108.127 153.69 108.412 150.616 109.928 151.155C111.272 151.632 109.852 159.333 109.999 162.747C110.133 165.893 109.619 168.937 110.893 170.911C121.536 169.462 132.35 168.527 143.865 168.211C141.332 167.123 138.322 166.095 135.023 164.235C133.234 163.227 127.595 161.129 127.079 159.43C126.256 156.723 129.24 155.281 129.75 152.96C124.379 155.89 123.33 150.152 122.06 146.087C120.908 142.405 120.253 139.655 119.971 137.531C115.343 135.325 110.395 133.091 106.412 130.261ZM160.266 124.388C167.676 120.795 169.011 137.816 166.107 143.299C166.556 144.935 168.1 145.56 168.73 147.031C164.595 154.439 160.002 161.353 155.783 168.672C158.922 166.719 163.405 168.323 167.098 166.86C168.448 166.327 169.426 163.237 170.447 160.764C173.258 153.962 176.211 145.386 177.523 138.895C177.821 137.417 178.628 134.194 178.447 132.878C178.124 130.52 174.926 128.774 173.299 127.316C170.303 124.624 168.416 122.255 165.29 119.737C164.023 121.609 161.303 122.866 160.266 124.388ZM89.4661 58.6777C85.9354 62.5625 86.6744 69.8416 87.1019 75.0202C93.4838 71.0055 101.955 75.3376 101.875 82.1662C104.921 82.0851 103.013 78.3607 102.462 75.9613C100.66 68.1244 105.496 59.6101 102.681 52.4433C97.2149 52.8577 92.7243 55.0904 89.4661 58.6777ZM114.729 36.1304C106.736 38.396 96.4922 44.204 93.2076 51.3843C95.7509 51.0147 97.5164 49.7321 100.026 49.5733C100.973 49.5116 102.216 49.971 103.305 49.7C105.477 49.1613 107.31 44.2921 108.949 42.4804C110.546 40.7111 112.465 39.9552 113.779 38.3422C114.622 37.935 115.871 37.9631 115.918 36.6956C115.553 36.3044 115.168 36.0062 114.729 36.1304ZM156.338 38.2612C148.041 33.5805 133.998 30.0595 125.173 34.4591C118.053 38.0095 108.427 43.884 105.145 51.3281C108.211 58.5118 104.238 65.0942 103.984 72.3876C103.848 76.2683 105.81 79.6562 105.961 83.8809C104.912 85.6117 101.706 85.8249 99.4883 85.7062C98.7415 81.9689 97.4341 77.7682 93.5856 77.3466C88.14 76.751 84.1583 81.2578 83.9109 85.9675C83.6181 91.5062 88.165 100.686 94.6095 100.048C97.099 99.8025 97.7106 97.307 100.423 97.3326C101.894 100.266 98.1553 101.187 97.7707 103.285C97.6706 103.827 98.0808 105.945 98.3193 106.938C99.4899 111.775 102.1 118.034 104.668 121.715C107.927 126.386 114.332 127.09 121.222 127.548C122.453 124.897 126.986 125.115 129.94 125.808C126.4 124.406 123.109 121.007 120.381 117.999C117.249 114.546 114.075 110.843 113.914 106.332C119.835 114.546 124.726 121.718 135.492 125.332C143.639 128.064 153.152 124.08 159.412 119.684C162.009 117.858 163.56 114.958 165.406 112.305C172.314 102.368 175.537 88.1857 174.828 74.439C174.536 68.7697 174.549 63.1197 172.647 59.3054C170.659 55.3172 163.935 51.749 159.998 55.3565C159.269 51.4781 163.272 49.0796 167.973 50.4752C164.62 46.1488 161.103 40.95 156.338 38.2612ZM171.794 166.179C178.277 162.955 190.39 157.504 194.454 166.191C195.954 169.392 197.714 174.805 198.491 178.11C199.589 182.774 197.301 192.574 192.508 194.14C188.274 195.521 183.335 195.437 178.236 194.413C177.634 193.914 176.966 193.042 176.499 192.135C172.858 191.994 169.449 192.331 166.572 193.828C166.844 196.52 165.024 196.952 163.316 197.507C162.05 202.526 165.848 209.081 164.94 213.657C164.29 216.917 160.279 217.422 157.331 218.032C157.234 219.844 157.46 221.356 157.661 222.889C156.987 225.373 153.963 226.787 151.098 227.134C141.671 228.268 127.358 228.777 118.291 225.516C115.761 219.309 113.768 211.761 111.66 204.675C102.817 205.619 95.6648 200.859 88.9222 197.74C86.5877 196.658 83.3583 196.062 82.4862 194.204C81.6406 192.404 81.9867 188.956 81.7769 185.7C81.2429 177.381 80.7858 169.357 78.589 160.839C77.6026 157.018 75.8834 153.644 74.6841 149.961C73.5756 146.549 71.6388 142.33 71.1337 138.926C70.3846 133.881 75.135 133.601 78.1725 131.415C82.8682 128.034 86.5539 126.164 91.6393 123.114C93.1455 122.211 97.6878 119.924 98.2044 118.87C99.2315 116.781 96.4414 113.837 95.6955 112.2C94.5155 109.612 93.9003 107.413 93.7312 104.859C89.4652 104.184 86.2313 101.645 84.2779 98.7827C81.0466 94.045 78.8057 85.2797 81.6015 78.6124C81.8207 78.0873 82.9142 77.0548 83.0755 76.2483C83.3936 74.6603 82.4767 72.5487 82.4197 70.8597C82.1259 62.1938 83.8859 54.7272 89.7197 52.1138C92.0881 42.6791 100.565 39.5423 108.551 34.8534C111.536 33.101 114.827 31.9811 118.225 30.7305C130.417 26.2437 149.122 27.0887 159.241 34.7412C163.531 37.9863 170.389 44.838 172.842 49.7986C179.321 62.8952 178.861 84.7827 174.33 100.714C173.721 102.853 172.837 105.997 171.604 108.566C170.743 110.36 168.07 113.95 168.394 115.535C168.728 117.172 174.49 121.546 175.726 122.738C177.95 124.884 182.177 127.732 182.519 130.44C182.887 133.322 181.249 137.265 180.419 140.046C177.645 149.326 174.939 157.905 171.794 166.179Z" fill="#231F20"/>
<path fill-rule="evenodd" clip-rule="evenodd" d="M128.543 101.935C128.894 101.467 130.828 100.756 133.533 102.059C133.533 102.059 130.327 102.593 130.594 107.94L129.257 107.672C129.257 107.672 127.877 102.824 128.543 101.935Z" fill="#F7E4CD"/>
<path fill-rule="evenodd" clip-rule="evenodd" d="M151.972 147.888C151.972 148.699 151.313 149.356 150.502 149.356C149.691 149.356 149.032 148.699 149.032 147.888C149.032 147.076 149.691 146.417 150.502 146.417C151.313 146.417 151.972 147.076 151.972 147.888Z" fill="#1D1919"/>
<path fill-rule="evenodd" clip-rule="evenodd" d="M153.441 154.702C153.441 155.513 152.783 156.17 151.971 156.17C151.159 156.17 150.502 155.513 150.502 154.702C150.502 153.89 151.159 153.231 151.971 153.231C152.783 153.231 153.441 153.89 153.441 154.702Z" fill="#1D1919"/>
</svg>
