<svg width="256" height="256" viewBox="0 0 256 256" fill="none" xmlns="http://www.w3.org/2000/svg">
<path fill-rule="evenodd" clip-rule="evenodd" d="M191.213 124.737C191.213 160.399 162.949 189.309 128.084 189.309C93.2183 189.309 64.9541 160.399 64.9541 124.737C64.9541 89.0741 93.2183 60.1633 128.084 60.1633C162.949 60.1633 191.213 89.0741 191.213 124.737Z" fill="#D33833"/>
<path d="M67.5255 140.729C67.5255 140.729 62.9553 73.391 125.004 71.4668L120.675 64.252L87.0057 75.5555L77.3857 86.618L68.9685 102.732L64.1582 121.49L65.6012 133.996" fill="#EF3D3A"/>
<path d="M84.8448 80.687C73.7685 92.0201 66.9144 107.668 66.9144 124.979C66.9144 142.286 73.7685 157.935 84.8448 169.266C95.9264 180.597 111.199 187.589 128.082 187.589C144.967 187.589 160.24 180.597 171.32 169.266C182.396 157.935 189.252 142.286 189.252 124.979C189.252 107.668 182.396 92.0201 171.32 80.687C160.24 69.3583 144.967 62.3663 128.082 62.3648C111.199 62.3663 95.9264 69.3583 84.8448 80.687ZM82.0411 172.007C70.2696 159.969 62.9922 143.331 62.9922 124.979C62.9922 106.623 70.2696 89.987 82.0411 77.9475C93.8098 65.9059 110.101 58.4422 128.082 58.4443C146.065 58.4422 162.357 65.9059 174.123 77.9475C185.896 89.987 193.174 106.625 193.173 124.979C193.174 143.331 185.896 159.969 174.123 172.007C162.357 184.048 146.065 191.511 128.082 191.511C110.101 191.511 93.8098 184.048 82.0411 172.007Z" fill="#231F20"/>
<path fill-rule="evenodd" clip-rule="evenodd" d="M154.658 125.096L145.037 126.538L132.05 127.982L123.632 128.221L115.457 127.982L109.203 126.057L103.671 120.045L99.3426 107.78L98.3807 105.134L92.6088 103.21L89.2418 97.6789L86.8369 89.7425L89.4828 82.7679L95.7352 80.6035L100.786 83.0088L103.191 88.2995L106.077 87.8183L107.039 86.6164L106.077 81.0847L105.836 74.11L107.279 64.4905L107.222 58.9957L111.608 51.9849L119.304 46.4533L132.772 40.6814L147.683 42.8459L160.669 52.2252L166.682 61.8448L170.53 68.8194L171.491 86.1351L168.606 101.046L163.315 114.273L158.264 121.247" fill="#F0D6B7"/>
<path fill-rule="evenodd" clip-rule="evenodd" d="M146.48 166.7L112.089 168.144V173.915L114.974 194.117L113.532 195.801L89.4824 187.623L87.7985 184.737L85.3936 157.562L79.863 141.209L78.6602 137.36L97.8993 124.133L103.912 121.728L109.203 128.221L113.772 132.31L119.063 133.993L121.468 134.715L124.354 147.221L126.519 149.866L132.05 147.942L128.202 155.397L149.125 165.258L146.48 166.7Z" fill="#335061"/>
<path fill-rule="evenodd" clip-rule="evenodd" d="M89.482 82.7678L95.7344 80.6033L100.785 83.0087L103.19 88.2994L106.076 87.8181L106.797 84.9322L105.355 79.4013L106.797 66.1736L105.594 58.9586L109.924 53.9083L119.303 46.4531L116.658 42.8457L103.43 49.339L97.8988 53.668L94.7725 60.4016L89.9624 66.895L88.5195 74.5911L89.482 82.7678Z" fill="#6D6B6D"/>
<path fill-rule="evenodd" clip-rule="evenodd" d="M99.3424 60.1613C99.3424 60.1613 102.95 51.2632 117.38 46.9342C131.81 42.6053 118.101 43.8073 118.101 43.8073L102.469 49.8202L96.4565 55.8323L93.8115 60.6425L99.3424 60.1613Z" fill="#DCD9D8"/>
<path fill-rule="evenodd" clip-rule="evenodd" d="M92.127 81.0843C92.127 81.0843 87.0765 64.2492 106.317 61.8445L105.594 58.9585L92.3679 62.0855L88.5195 74.591L89.482 82.7676L92.127 81.0843Z" fill="#DCD9D8"/>
<path fill-rule="evenodd" clip-rule="evenodd" d="M99.8232 103.45L102.972 100.399C102.972 100.399 104.394 100.564 104.633 102.248C104.874 103.932 105.595 119.082 115.936 127.26C116.88 128.006 108.241 126.057 108.241 126.057L100.545 114.032" fill="#F7E4CD"/>
<path fill-rule="evenodd" clip-rule="evenodd" d="M144.076 98.8813C144.076 98.8813 144.637 91.5915 146.6 92.1521C148.563 92.7127 148.563 94.6758 148.563 94.6758C148.563 94.6758 143.795 97.7601 144.076 98.8813Z" fill="#F7E4CD"/>
<path d="M164.036 72.1863C164.036 72.1863 160.071 73.0231 159.707 76.5152C159.341 80.0079 164.036 77.2366 164.757 76.9964" fill="#F7E4CD"/>
<path d="M134.936 72.4272C134.936 72.4272 129.646 73.1487 129.646 76.5152C129.646 79.8823 135.658 79.6421 137.341 78.1992" fill="#F7E4CD"/>
<path fill-rule="evenodd" clip-rule="evenodd" d="M102.228 88.0591C102.228 88.0591 93.0892 82.5274 92.1277 87.8189C91.1657 93.1095 89.0007 96.9579 93.5706 102.489L90.4442 101.527L87.5583 94.072L86.5967 86.857L92.1277 81.0845L98.3806 81.5657L101.988 84.4517L102.228 88.0591Z" fill="#F7E4CD"/>
<path fill-rule="evenodd" clip-rule="evenodd" d="M106.558 72.908C106.558 72.908 110.646 51.7446 131.329 47.6559C148.357 44.2902 157.302 48.3774 160.669 52.2251C160.669 52.2251 145.518 34.1887 131.088 39.7196C116.659 45.2512 106.077 55.3521 106.317 61.8447C106.727 72.9037 106.558 72.908 106.558 72.908Z" fill="#F7E4CD"/>
<path fill-rule="evenodd" clip-rule="evenodd" d="M162.353 54.6296C162.353 54.6296 155.379 54.3894 155.138 60.6425C155.138 60.6425 155.138 61.6043 155.619 62.566C155.619 62.566 161.151 56.3129 164.517 59.6801" fill="#F7E4CD"/>
<path fill-rule="evenodd" clip-rule="evenodd" d="M131.813 63.2176C131.813 63.2176 130.613 53.6196 122.43 59.1996C117.139 62.807 117.621 67.8574 118.582 68.8192C119.544 69.7816 119.282 71.7189 120.015 70.3891C120.746 69.0594 120.506 64.7305 123.151 63.5285C125.797 62.3258 130.134 60.9824 131.813 63.2176Z" fill="#F7E4CD"/>
<path fill-rule="evenodd" clip-rule="evenodd" d="M109.203 128.221L86.5965 138.322C86.5965 138.322 95.9758 175.599 91.1655 187.143L87.7985 185.941L87.5581 171.751L81.3059 144.816L78.6602 137.36L102.228 121.488L109.203 128.221Z" fill="#49728B"/>
<path fill-rule="evenodd" clip-rule="evenodd" d="M111.527 148.84L114.735 152.753V167.182H110.886C110.886 167.182 110.406 157.082 110.406 155.879C110.406 154.676 110.886 150.347 110.886 150.347" fill="#49728B"/>
<path fill-rule="evenodd" clip-rule="evenodd" d="M111.609 169.347L100.786 169.827L103.913 171.992L111.609 173.194" fill="#49728B"/>
<path fill-rule="evenodd" clip-rule="evenodd" d="M148.646 166.941L157.543 166.701L159.708 188.827L150.569 190.029L148.646 166.941Z" fill="#335061"/>
<path fill-rule="evenodd" clip-rule="evenodd" d="M151.049 166.941L164.517 166.22C164.517 166.22 170.048 152.271 170.048 151.55C170.048 150.828 174.859 131.348 174.859 131.348L164.036 120.045L161.872 118.121L156.099 123.893V146.259L151.049 166.941Z" fill="#335061"/>
<path fill-rule="evenodd" clip-rule="evenodd" d="M157.062 165.258L148.646 166.942L149.848 173.676C152.974 175.119 158.265 171.271 158.265 171.271" fill="#49728B"/>
<path fill-rule="evenodd" clip-rule="evenodd" d="M157.303 123.171L174.138 135.677L174.619 129.905L161.872 118.121L157.303 123.171Z" fill="#49728B"/>
<path fill-rule="evenodd" clip-rule="evenodd" d="M119.955 214.321L114.976 194.117L112.5 179.209L112.09 168.143L134.625 166.943L148.646 166.941L147.371 192.195L149.535 211.676L149.295 215.283L131.017 216.726L119.955 214.321Z" fill="white"/>
<path fill-rule="evenodd" clip-rule="evenodd" d="M145.519 166.701C145.519 166.701 144.317 191.713 147.925 209.509C147.925 209.509 140.71 214.079 130.127 215.281L150.329 214.559L152.734 213.117L149.848 173.676L149.127 165.258" fill="#DCD9D8"/>
<path fill-rule="evenodd" clip-rule="evenodd" d="M160.117 186.905L169.497 184.259L187.293 183.298L189.938 175.121L185.128 160.931L179.598 160.21L171.901 162.615L164.518 166.22L160.598 165.501L157.543 166.701" fill="white"/>
<path fill-rule="evenodd" clip-rule="evenodd" d="M159.948 182.093C159.948 182.093 166.201 179.207 167.163 179.447L164.518 166.22L167.644 165.018C167.644 165.018 169.809 177.523 169.809 178.967C169.809 178.967 183.276 179.688 184.478 179.688C184.478 179.688 187.364 174.157 186.643 168.384L189.288 176.081L189.529 180.409L185.681 186.182L181.352 187.143L174.138 186.903L171.733 183.777L163.315 184.979L160.669 185.941" fill="#DCD9D8"/>
<path d="M150.497 165.02L145.206 151.552L139.675 143.615C139.675 143.615 140.877 140.249 142.561 140.249C144.244 140.249 148.092 140.249 148.092 140.249L153.383 142.173L152.902 151.071L150.497 165.02Z" fill="white"/>
<path fill-rule="evenodd" clip-rule="evenodd" d="M151.531 160.448C151.531 160.448 144.797 147.462 144.797 145.538C144.797 145.538 145.999 142.652 147.683 143.373C149.366 144.094 152.974 146.019 152.974 146.019V141.449L144.797 139.765L139.266 140.486L148.645 162.612L150.569 162.854" fill="#DCD9D8"/>
<path d="M122.119 128.705L115.457 127.981L109.203 126.057V128.221L112.258 131.59L121.878 135.919" fill="white"/>
<path fill-rule="evenodd" clip-rule="evenodd" d="M111.369 129.427C111.369 129.427 118.824 132.553 121.229 131.832L121.469 134.715L114.735 133.275L110.646 130.389L111.369 129.427Z" fill="#DCD9D8"/>
<path fill-rule="evenodd" clip-rule="evenodd" d="M160.09 141.067C156.01 140.947 152.323 140.463 149.095 139.552C149.314 138.229 148.904 136.93 149.233 135.977C150.134 135.329 151.641 135.339 153.001 135.187C151.825 134.609 150.173 134.38 148.815 134.714C148.784 133.796 148.372 133.227 148.122 132.508C150.416 131.689 155.833 126.321 158.879 128.098C160.332 128.944 160.948 133.774 161.061 136.122C161.155 138.07 160.884 140.035 160.09 141.067Z" fill="#D33833"/>
<path d="M160.09 141.067C156.01 140.947 152.323 140.463 149.095 139.552C149.314 138.229 148.904 136.93 149.233 135.977C150.134 135.329 151.641 135.339 153.001 135.187C151.825 134.609 150.173 134.38 148.815 134.714C148.784 133.796 148.372 133.227 148.122 132.508C150.416 131.689 155.833 126.321 158.879 128.098C160.332 128.944 160.948 133.774 161.061 136.122C161.155 138.07 160.884 140.035 160.09 141.067Z" stroke="#D33833" stroke-width="2.5"/>
<path fill-rule="evenodd" clip-rule="evenodd" d="M140.577 134.397C140.566 134.706 140.553 135.016 140.541 135.328C139.267 136.165 137.21 136.154 135.811 136.858C137.873 136.948 139.496 137.445 140.9 138.144C140.869 138.922 140.839 139.699 140.809 140.477C138.473 142.075 136.34 144.457 133.59 145.956C132.29 146.665 127.727 148.49 126.344 148.168C125.561 147.986 125.491 147.014 125.178 146.099C124.511 144.138 122.977 141.018 122.843 138.068C122.672 134.34 122.296 128.094 126.313 128.861C129.553 129.48 133.323 130.972 135.831 132.343C137.365 133.181 138.251 134.218 140.577 134.397Z" fill="#D33833"/>
<path d="M140.577 134.397C140.566 134.706 140.553 135.016 140.541 135.328C139.267 136.165 137.21 136.154 135.811 136.858C137.873 136.948 139.496 137.445 140.9 138.144C140.869 138.922 140.839 139.699 140.809 140.477C138.473 142.075 136.34 144.457 133.59 145.956C132.29 146.665 127.727 148.49 126.344 148.168C125.561 147.986 125.491 147.014 125.178 146.099C124.511 144.138 122.977 141.018 122.843 138.068C122.672 134.34 122.296 128.094 126.313 128.861C129.553 129.48 133.323 130.972 135.831 132.343C137.365 133.181 138.251 134.218 140.577 134.397Z" stroke="#D33833" stroke-width="2.5"/>
<path fill-rule="evenodd" clip-rule="evenodd" d="M142.897 138.844C142.54 136.814 142.129 136.235 142.288 134.463C147.702 130.853 148.719 140.664 142.897 138.844Z" fill="#D33833"/>
<path d="M142.897 138.844C142.54 136.814 142.129 136.235 142.288 134.463C147.702 130.853 148.719 140.664 142.897 138.844Z" stroke="#D33833" stroke-width="2.5"/>
<path fill-rule="evenodd" clip-rule="evenodd" d="M150.738 140.489C150.738 140.489 149.053 138.084 150.256 137.363C151.459 136.641 152.662 137.364 153.383 136.161C154.104 134.958 153.383 134.236 153.623 132.793C153.863 131.351 155.067 131.109 156.269 130.869C157.471 130.629 160.839 130.148 161.319 131.351L159.876 127.021L156.99 126.06L147.851 131.351L147.37 133.996V139.287" fill="#EF3D3A"/>
<path fill-rule="evenodd" clip-rule="evenodd" d="M125.485 148.426C125.196 144.672 124.891 140.925 124.55 137.175C124.041 131.576 125.895 132.553 130.748 132.553C131.489 132.553 135.312 133.437 135.586 133.996C136.897 136.675 133.392 136.08 137.097 138.1C140.223 139.805 145.747 137.065 144.484 133.275C143.777 132.432 140.8 133.012 139.732 132.458C137.854 131.485 135.975 130.511 134.097 129.536C131.706 128.297 126.181 126.489 123.633 128.221C117.175 132.613 124.04 143.587 126.344 148.168" fill="#EF3D3A"/>
<path fill-rule="evenodd" clip-rule="evenodd" d="M131.814 63.2174C125.258 61.6908 122.002 65.9605 120.014 70.389C118.241 69.959 118.947 67.5463 119.395 66.317C120.568 63.0905 125.296 58.7955 129.16 59.3777C130.822 59.6281 133.072 61.1483 131.814 63.2174Z" fill="#231F20"/>
<path fill-rule="evenodd" clip-rule="evenodd" d="M163.752 70.6819C163.855 70.6862 163.96 70.6898 164.062 70.6941C165.544 73.7713 166.826 77.031 168.695 79.7474C167.442 82.6629 159.215 85.243 159.342 80.0079C161.121 79.2301 164.194 79.8491 165.77 78.8557C164.858 76.3528 163.543 74.2222 163.752 70.6819Z" fill="#231F20"/>
<path fill-rule="evenodd" clip-rule="evenodd" d="M135.17 70.7622C136.575 73.3387 137.033 76.0457 139.031 77.993C139.93 78.8695 141.68 79.9381 140.813 82.376C140.61 82.951 139.129 84.2331 138.274 84.4849C135.151 85.407 127.873 84.6753 130.337 80.7815C132.921 80.902 136.393 82.459 138.323 80.5838C136.84 78.2138 134.197 73.5248 135.17 70.7622Z" fill="#231F20"/>
<path fill-rule="evenodd" clip-rule="evenodd" d="M162.58 96.9477C157.877 99.9685 152.634 103.253 144.928 102.492C143.281 101.06 142.653 97.8747 144.253 95.7709C145.085 97.2023 144.562 99.835 146.883 100.231C151.255 100.979 156.344 97.5566 159.488 96.3603C161.439 93.0726 159.321 91.8633 157.564 89.7472C153.967 85.4118 149.143 80.0382 149.318 73.5477C150.771 72.4936 150.898 75.1566 151.106 75.6414C152.984 80.0367 157.71 85.6578 161.16 89.4197C162.007 90.3461 163.402 91.2349 163.556 91.8475C164.004 93.6288 162.392 95.763 162.58 96.9477Z" fill="#231F20"/>
<path fill-rule="evenodd" clip-rule="evenodd" d="M100.583 93.7674C99.1089 92.9262 98.7581 89.2207 97.0275 89.1153C94.5546 88.9652 95.0055 93.9226 95.0154 96.8215C93.3131 95.2761 93.0138 90.5179 94.2643 88.0742C92.8391 87.3744 92.2027 88.8462 91.4121 89.3649C92.4281 81.9841 102.209 85.9415 100.583 93.7674Z" fill="#231F20"/>
<path fill-rule="evenodd" clip-rule="evenodd" d="M165.573 100.021C163.384 104.188 160.288 108.776 153.864 108.909C153.734 107.564 153.634 105.517 153.871 104.706C158.782 104.234 161.814 101.735 165.573 100.021Z" fill="#231F20"/>
<path fill-rule="evenodd" clip-rule="evenodd" d="M134.8 102.723C138.897 104.877 146.426 105.108 151.994 104.945C152.293 106.165 152.286 107.673 152.298 109.16C145.139 109.518 136.676 107.746 134.8 102.723Z" fill="#231F20"/>
<path fill-rule="evenodd" clip-rule="evenodd" d="M134.021 106.74C136.854 113.853 146.592 113.034 154.802 112.838C154.441 113.761 153.657 114.852 152.684 115.247C150.052 116.317 142.794 117.13 139.141 115.19C136.826 113.958 135.336 111.175 134.068 109.545C133.454 108.757 130.402 106.744 134.021 106.74Z" fill="#231F20"/>
<path fill-rule="evenodd" clip-rule="evenodd" d="M162.236 145.976C158.912 151.671 155.731 157.519 151.786 162.541C153.44 157.679 154.148 149.541 154.397 143.337C157.857 141.718 160.82 143.702 162.236 145.976Z" fill="#81B0C4"/>
<path fill-rule="evenodd" clip-rule="evenodd" d="M180.128 166.442C176.405 167.187 173.79 170.804 170.159 170.572C172.154 167.759 175.652 166.572 180.128 166.442Z" fill="#231F20"/>
<path fill-rule="evenodd" clip-rule="evenodd" d="M181.769 172.267C178.735 172.587 175.171 173.079 172.095 172.825C173.552 170.6 179.164 171.368 181.769 172.267Z" fill="#231F20"/>
<path fill-rule="evenodd" clip-rule="evenodd" d="M182.82 177.289C179.41 177.363 175.172 177.295 171.932 177.023C173.849 174.963 180.609 176.259 182.82 177.289Z" fill="#231F20"/>
<path fill-rule="evenodd" clip-rule="evenodd" d="M155.822 191.032C156.311 195.314 158.009 199.654 157.795 204.343C155.911 204.979 154.828 205.535 152.302 205.531C152.124 201.546 151.591 195.453 151.75 191.653C152.992 191.736 154.824 190.766 155.822 191.032Z" fill="#DCD9D8"/>
<path fill-rule="evenodd" clip-rule="evenodd" d="M150.324 127.923C148.613 129.04 147.154 130.436 145.51 131.629C141.864 131.809 139.874 131.376 137.194 129.282C137.238 129.114 137.508 129.19 137.518 128.984C141.421 130.723 146.383 128.275 150.324 127.923Z" fill="#F0D6B7"/>
<path fill-rule="evenodd" clip-rule="evenodd" d="M129.834 154.529C130.906 149.882 135.109 147.475 138.925 144.916C142.863 149.915 145.259 156.343 147.896 162.546C141.665 160.668 135.296 157.619 129.834 154.529Z" fill="#81B0C4"/>
<path fill-rule="evenodd" clip-rule="evenodd" d="M151.75 191.653C151.59 195.453 152.123 201.546 152.302 205.531C154.827 205.535 155.91 204.979 157.795 204.343C158.008 199.654 156.31 195.314 155.821 191.032C154.824 190.766 152.991 191.736 151.75 191.653ZM112.418 170.046C114.083 185.359 116.497 198.23 120.921 211.789C130.741 214.771 142.58 215.031 151.26 212.34C149.666 204.687 150.363 195.37 149.431 187.204C148.729 181.065 149.087 174.889 148.125 168.627C137.607 166.439 122.74 168.116 112.418 170.046ZM150.612 168.722C150.522 175.299 150.906 181.786 151.408 188.37C153.933 187.991 155.647 187.738 157.993 187.224C157.231 180.885 157.325 173.752 155.773 168.144C153.979 168.162 152.4 168.124 150.612 168.722ZM163.422 167.663C162.223 167.388 160.828 167.652 159.683 167.674C160.221 173.035 161.527 178.95 161.986 184.578C163.788 184.634 164.751 183.784 166.233 183.498C166.312 178.559 165.801 171.753 163.422 167.663ZM182.818 185.385C186.573 184.473 188.935 179.873 187.884 175.15C187.179 171.975 185.924 165.998 184.581 163.966C183.587 162.465 180.896 160.498 178.747 161.874C175.251 164.113 169.091 164.763 166.542 167.473C167.819 171.73 168.216 177.577 168.744 182.971C173.112 183.243 178.487 181.769 182.119 183.333C179.582 184.155 176.292 184.161 174.101 185.359C175.892 186.223 180.084 186.048 182.818 185.385ZM147.896 162.547C145.259 156.344 142.863 149.915 138.924 144.916C135.108 147.475 130.906 149.882 129.834 154.529C135.295 157.619 141.664 160.668 147.896 162.547ZM154.398 143.337C154.148 149.541 153.441 157.679 151.787 162.541C155.731 157.519 158.912 151.67 162.237 145.976C160.82 143.702 157.857 141.718 154.398 143.337ZM147.027 140.718C145.533 140.557 144.265 142.436 142.321 141.624C141.877 142.116 141.471 142.649 141.018 143.129C145.309 148.301 147.259 155.639 150.574 161.716C152.353 155.878 152.148 149.481 152.539 143.11C150.096 143.265 148.74 140.9 147.027 140.718ZM142.288 134.463C142.129 136.234 142.54 136.814 142.897 138.844C148.719 140.664 147.702 130.853 142.288 134.463ZM135.831 132.343C133.323 130.973 129.554 129.48 126.313 128.861C122.296 128.093 122.673 134.34 122.843 138.068C122.977 141.018 124.511 144.138 125.178 146.1C125.491 147.014 125.561 147.986 126.344 148.168C127.727 148.49 132.29 146.665 133.59 145.956C136.34 144.457 138.473 142.076 140.809 140.477C140.839 139.699 140.869 138.922 140.9 138.144C139.496 137.445 137.873 136.949 135.811 136.859C137.21 136.154 139.267 136.165 140.541 135.328C140.553 135.016 140.567 134.706 140.577 134.397C138.251 134.218 137.365 133.181 135.831 132.343ZM111.868 127.99C109.786 130.105 117.708 132.986 120.231 133.141C120.216 131.804 120.992 130.542 120.837 129.582C117.841 129.056 113.903 129.404 111.868 127.99ZM137.518 128.984C137.508 129.19 137.239 129.114 137.194 129.282C139.874 131.376 141.863 131.809 145.51 131.629C147.154 130.436 148.613 129.04 150.324 127.923C146.383 128.275 141.421 130.723 137.518 128.984ZM161.062 136.122C160.949 133.774 160.332 128.944 158.881 128.098C155.834 126.32 150.417 131.689 148.123 132.509C148.373 133.227 148.785 133.796 148.816 134.715C150.174 134.381 151.826 134.609 153.002 135.187C151.642 135.34 150.134 135.33 149.234 135.977C148.904 136.931 149.315 138.229 149.096 139.553C152.323 140.463 156.01 140.947 160.091 141.067C160.884 140.035 161.155 138.071 161.062 136.122ZM108.362 130.035C107.709 129.569 103.286 123.813 102.68 124.053C94.6755 127.209 87.1914 132.667 80.5036 137.829C86.8801 151.512 89.454 168.275 89.9089 184.431C97.2133 187.848 103.629 192.773 113.541 193.287C112.394 185.172 111.347 177.932 110.696 170.291C108.206 169.241 104.633 170.339 102.302 169.966C102.282 167.157 105.861 168.736 106.16 166.847C106.384 165.418 104.19 165.31 104.905 163.061C106.726 163.722 107.683 165.186 109.626 165.735C111.402 161.851 109.602 154.978 109.858 151.731C109.906 151.121 110.162 148.354 111.527 148.839C112.736 149.269 111.459 156.199 111.591 159.273C111.712 162.104 111.249 164.843 112.395 166.62C121.974 165.316 131.706 164.474 142.07 164.19C139.79 163.211 137.082 162.285 134.112 160.612C132.502 159.704 127.428 157.816 126.963 156.287C126.222 153.85 128.908 152.553 129.367 150.464C124.533 153.101 123.589 147.936 122.446 144.278C121.409 140.964 120.82 138.489 120.566 136.578C116.4 134.592 111.948 132.582 108.362 130.035ZM156.832 124.749C163.5 121.515 164.702 136.834 162.088 141.769C162.493 143.242 163.882 143.804 164.449 145.128C160.728 151.795 156.594 158.017 152.797 164.605C155.621 162.847 159.656 164.291 162.98 162.974C164.195 162.494 165.075 159.713 165.994 157.488C168.524 151.366 171.182 143.648 172.363 137.806C172.63 136.475 173.357 133.575 173.194 132.39C172.903 130.268 170.025 128.696 168.561 127.384C165.865 124.961 164.166 122.829 161.353 120.564C160.213 122.248 157.764 123.379 156.832 124.749ZM93.1113 65.61C89.9336 69.1063 90.5988 75.6574 90.9835 80.3182C96.7272 76.705 104.351 80.6039 104.279 86.7496C107.021 86.6766 105.304 83.3246 104.807 81.1652C103.186 74.1119 107.538 66.4491 105.005 59.9989C100.085 60.372 96.0437 62.3813 93.1113 65.61ZM115.848 45.3174C108.654 47.3564 99.4347 52.5836 96.4787 59.0458C98.7676 58.7132 100.357 57.5589 102.615 57.416C103.468 57.3604 104.586 57.7739 105.566 57.53C107.521 57.0452 109.171 52.6629 110.646 51.0323C112.083 49.44 113.811 48.7597 114.993 47.308C115.752 46.9415 116.876 46.9668 116.918 45.826C116.589 45.474 116.243 45.2056 115.848 45.3174ZM153.296 47.2351C145.829 43.0224 133.19 39.8536 125.248 43.8132C118.839 47.0085 110.176 52.2956 107.222 58.9953C109.982 65.4606 106.406 71.3848 106.177 77.9488C106.055 81.4415 107.821 84.4906 107.957 88.2928C107.013 89.8505 104.128 90.0424 102.131 89.9356C101.459 86.572 100.282 82.7914 96.8188 82.412C91.9178 81.8759 88.3342 85.9321 88.1116 90.1708C87.8481 95.1556 91.9403 103.417 97.7403 102.844C99.9809 102.622 100.531 100.376 102.972 100.399C104.296 103.039 100.932 103.868 100.585 105.756C100.495 106.244 100.864 108.151 101.079 109.044C102.133 113.397 104.481 119.03 106.793 122.344C109.726 126.547 115.491 127.181 121.692 127.593C122.8 125.207 126.879 125.403 129.538 126.027C126.352 124.765 123.39 121.706 120.935 118.999C118.116 115.891 115.259 112.559 115.114 108.499C120.443 115.891 124.845 122.347 134.535 125.599C141.867 128.058 150.429 124.472 156.063 120.516C158.4 118.872 159.796 116.262 161.457 113.875C167.674 104.932 170.575 92.1672 169.937 79.7951C169.674 74.6927 169.686 69.6077 167.974 66.1749C166.185 62.5855 160.133 59.3741 156.59 62.6208C155.934 59.1303 159.536 56.9716 163.768 58.2277C160.75 54.3339 157.584 49.655 153.296 47.2351ZM167.206 162.361C173.041 159.46 183.943 154.554 187.601 162.372C188.95 165.253 190.534 170.124 191.234 173.099C192.222 177.296 190.162 186.117 185.849 187.526C182.039 188.769 177.593 188.694 173.004 187.772C172.463 187.322 171.861 186.538 171.441 185.721C168.164 185.594 165.096 185.898 162.507 187.245C162.752 189.668 161.113 190.057 159.576 190.557C158.437 195.073 161.855 200.973 161.037 205.091C160.453 208.026 156.843 208.479 154.19 209.029C154.102 210.659 154.306 212.021 154.487 213.4C153.88 215.636 151.158 216.908 148.58 217.221C140.096 218.241 127.214 218.699 119.054 215.765C116.777 210.179 114.983 203.385 113.086 197.007C105.127 197.857 98.6901 193.573 92.6217 190.766C90.5207 189.792 87.6143 189.256 86.8294 187.583C86.0683 185.964 86.3798 182.861 86.191 179.93C85.7104 172.443 85.299 165.222 83.3219 157.556C82.4342 154.116 80.8869 151.08 79.8075 147.765C78.8098 144.694 77.0667 140.897 76.6121 137.834C75.9379 133.293 80.2133 133.041 82.947 131.073C87.1731 128.031 90.4903 126.348 95.0672 123.603C96.4227 122.79 100.511 120.731 100.976 119.783C101.9 117.903 99.3891 115.253 98.7177 113.78C97.6558 111.451 97.102 109.472 96.9499 107.173C93.1105 106.566 90.2 104.281 88.4419 101.704C85.5338 97.4405 83.5169 89.5517 86.0331 83.5512C86.2304 83.0786 87.2146 82.1493 87.3597 81.4235C87.646 79.9943 86.8208 78.0939 86.7695 76.5737C86.5051 68.7744 88.0891 62.0545 93.3395 59.7024C95.4711 51.2112 103.1 48.3881 110.287 44.1681C112.974 42.5909 115.936 41.583 118.994 40.4575C129.967 36.4193 146.802 37.1798 155.909 44.0671C159.77 46.9877 165.942 53.1542 168.15 57.6188C173.981 69.4057 173.567 89.1044 169.489 103.442C168.94 105.367 168.145 108.197 167.035 110.51C166.261 112.124 163.855 115.355 164.147 116.781C164.447 118.255 169.633 122.192 170.745 123.264C172.746 125.195 176.551 127.759 176.859 130.196C177.19 132.79 175.716 136.338 174.969 138.841C172.473 147.194 170.037 154.915 167.206 162.361Z" fill="#231F20"/>
<path fill-rule="evenodd" clip-rule="evenodd" d="M128.281 104.542C128.597 104.12 130.337 103.481 132.772 104.653C132.772 104.653 129.886 105.134 130.127 109.946L128.924 109.705C128.924 109.705 127.681 105.342 128.281 104.542Z" fill="#F7E4CD"/>
<path fill-rule="evenodd" clip-rule="evenodd" d="M149.366 145.899C149.366 146.629 148.774 147.221 148.043 147.221C147.313 147.221 146.721 146.629 146.721 145.899C146.721 145.169 147.313 144.575 148.043 144.575C148.774 144.575 149.366 145.169 149.366 145.899Z" fill="#1D1919"/>
<path fill-rule="evenodd" clip-rule="evenodd" d="M150.689 152.031C150.689 152.762 150.097 153.353 149.366 153.353C148.636 153.353 148.044 152.762 148.044 152.031C148.044 151.301 148.636 150.708 149.366 150.708C150.097 150.708 150.689 151.301 150.689 152.031Z" fill="#1D1919"/>
</svg>
