<svg width="256" height="256" viewBox="0 0 256 256" fill="none" xmlns="http://www.w3.org/2000/svg">
<g clip-path="url(#clip0_196_174)">
<rect width="256" height="256" rx="56" fill="#99424F"/>
<path d="M204.718 126.646C204.718 115.805 197.266 106.685 187.26 104.08L209.669 38H98.6149L121.076 104.289C111.382 107.103 104.244 116.066 104.244 126.697C104.244 134.514 108.151 141.445 114.092 145.718C111.748 149.054 109.038 152.129 105.963 155.047C100.178 160.467 93.7684 164.635 86.8372 167.397C80.5837 163.176 77.8738 155.725 80.3231 149.054C89.8599 146.136 96.791 137.224 96.791 126.749C96.791 113.877 86.3161 103.454 73.4963 103.454C60.6242 103.454 50.1494 113.929 50.1494 126.801C50.1494 133.159 52.755 138.996 56.9241 143.165C56.5593 143.895 56.1946 144.624 55.8297 145.406C52.3382 152.598 48.3775 160.728 46.8663 169.847C43.8436 188.087 48.7944 202.731 60.7284 211.017C67.4511 215.655 74.8512 218 82.8245 218C96.5304 218 110.445 211.121 123.89 204.451C133.479 199.708 143.38 194.757 153.125 192.36C156.722 191.474 160.474 190.953 164.435 190.38C172.46 189.233 180.746 188.035 188.198 183.709C196.901 178.655 202.842 170.212 204.562 160.519C205.864 153.067 204.562 145.563 201.227 138.996C203.468 135.4 204.718 131.179 204.718 126.646ZM194.556 126.646C194.556 133.889 188.667 139.777 181.423 139.777C174.18 139.777 168.291 133.889 168.291 126.646C168.291 124.3 168.916 122.059 170.01 120.131C170.428 119.401 170.949 118.672 171.47 118.046C171.991 117.421 172.616 116.848 173.293 116.327L173.345 116.275C173.762 115.962 174.232 115.649 174.701 115.336C174.701 115.336 174.753 115.336 174.753 115.284C174.961 115.18 175.17 115.024 175.378 114.919C175.43 114.919 175.482 114.867 175.534 114.867C175.743 114.763 176.003 114.659 176.264 114.555C176.524 114.45 176.785 114.346 176.993 114.242C177.045 114.242 177.098 114.189 177.15 114.189C177.359 114.138 177.566 114.034 177.775 113.982C177.827 113.982 177.932 113.929 177.984 113.929C178.244 113.877 178.453 113.825 178.713 113.773H178.765L179.547 113.617C179.6 113.617 179.703 113.617 179.755 113.565C179.964 113.565 180.173 113.513 180.381 113.513H180.642C180.902 113.513 181.163 113.461 181.475 113.461H182.153C182.362 113.461 182.517 113.46 182.726 113.513H182.831C183.247 113.565 183.664 113.617 184.081 113.721C190.022 114.972 194.556 120.287 194.556 126.646ZM113.154 48.4227H195.129L176.316 103.923C175.534 104.08 174.753 104.341 173.971 104.601L154.168 64.2131L134.313 104.341C133.531 104.08 132.697 103.923 131.864 103.767L113.154 48.4227ZM150.415 122.111C149.425 117.213 146.924 112.835 143.38 109.604L154.168 87.8205L165.059 110.073C161.828 113.304 159.484 117.421 158.545 122.111H150.415ZM124.307 113.877C124.567 113.825 124.776 113.773 125.036 113.721H125.193C125.402 113.668 125.61 113.668 125.818 113.617H126.026C126.235 113.617 126.392 113.565 126.6 113.565H128.633C128.84 113.565 128.997 113.617 129.154 113.617C129.258 113.617 129.309 113.617 129.414 113.668C129.623 113.721 129.779 113.721 129.987 113.773C130.039 113.773 130.091 113.773 130.196 113.825C130.456 113.877 130.717 113.929 130.925 113.982H130.977C131.186 114.034 131.395 114.086 131.603 114.189C131.655 114.189 131.707 114.242 131.811 114.242C131.968 114.294 132.176 114.346 132.333 114.451C132.385 114.451 132.437 114.503 132.489 114.503C132.697 114.607 132.906 114.659 133.114 114.763H133.166C133.427 114.867 133.635 114.972 133.844 115.128H133.896C134.105 115.233 134.312 115.388 134.521 115.493C134.574 115.493 134.574 115.545 134.626 115.545C134.834 115.649 134.99 115.805 135.199 115.909L135.25 115.962C135.876 116.43 136.449 116.952 137.022 117.473L137.075 117.525C137.596 118.098 138.117 118.724 138.534 119.401C139.889 121.486 140.67 123.935 140.67 126.593C140.67 133.836 134.781 139.725 127.538 139.725C120.294 139.725 114.405 133.836 114.405 126.593C114.353 120.496 118.574 115.336 124.307 113.877ZM73.0272 113.513C80.271 113.513 86.1598 119.401 86.1598 126.646C86.1598 133.889 80.271 139.777 73.0272 139.777C65.7834 139.777 59.8946 133.889 59.8946 126.646C59.8946 119.401 65.7834 113.513 73.0272 113.513ZM194.243 158.694C193.097 165.365 188.979 171.202 182.934 174.694C177.254 177.977 170.271 179.019 162.923 180.061C158.91 180.635 154.689 181.26 150.624 182.25C139.785 184.908 129.362 190.119 119.252 195.122C106.328 201.532 94.1332 207.577 82.8245 207.577C76.9357 207.577 71.6722 205.909 66.6693 202.418C55.2044 194.496 55.7776 179.645 57.1326 171.515C58.3833 163.906 61.8749 156.767 65.2101 149.94C65.4187 149.523 65.575 149.158 65.7834 148.741C66.93 149.158 68.1286 149.47 69.3793 149.679C67.3989 160.728 73.0272 172.141 83.971 177.768L85.9514 178.81L88.088 178.029C97.2078 174.798 105.65 169.534 113.102 162.499C117.324 158.539 120.92 154.266 123.942 149.627C125.141 149.836 126.339 149.888 127.538 149.888C138.378 149.888 147.498 142.435 150.103 132.43H158.858C161.464 142.487 170.583 149.888 181.423 149.888C185.748 149.888 189.762 148.689 193.201 146.657C194.556 150.565 194.972 154.63 194.243 158.694Z" fill="white"/>
</g>
<defs>
<clipPath id="clip0_196_174">
<rect width="256" height="256" fill="white"/>
</clipPath>
</defs>
</svg>
