<svg width="256" height="256" viewBox="0 0 256 256" fill="none" xmlns="http://www.w3.org/2000/svg">
<path d="M196 0H60C26.8629 0 0 26.8629 0 60V196C0 229.137 26.8629 256 60 256H196C229.137 256 256 229.137 256 196V60C256 26.8629 229.137 0 196 0Z" fill="url(#paint0_linear_30_386)"/>
<path d="M71.8406 60.7663C60.4038 77.5069 61.8283 99.2852 70.5417 117.052L71.1825 118.318L71.6154 119.119C71.6956 119.275 71.7886 119.429 71.871 119.58C72.0225 119.862 72.174 120.132 72.3039 120.409L73.1373 121.866L73.6136 122.668L74.5813 124.209L75.0142 124.858C75.4473 125.551 75.9364 126.24 76.4171 126.919C76.4279 126.936 76.443 126.955 76.456 126.973C76.5317 127.081 76.6163 127.189 76.6725 127.298C77.0881 127.882 77.5385 128.458 77.9714 129.03L78.4519 129.653L79.6318 131.13L80.0822 131.68C80.6187 132.327 81.1672 132.966 81.7274 133.594L81.762 133.628C81.7836 133.655 81.8053 133.672 81.8269 133.699C82.3697 134.312 82.9268 134.911 83.4982 135.496L84.035 136.046L85.3708 137.38L85.9163 137.908C86.5165 138.483 87.1264 139.048 87.7456 139.603L88.0919 139.905L89.7523 141.335L90.4408 141.894L91.8262 142.976L92.5667 143.55L94.6839 145.097C94.7379 145.134 94.7856 145.173 94.8397 145.209C95.3376 145.556 95.8422 145.892 96.3484 146.227L97.0024 146.671L99.3663 148.143L100.02 148.518L101.795 149.53C102.12 149.708 102.452 149.877 102.776 150.046L104.045 150.695L104.337 150.838L104.857 151.094L106.869 152.042L107.296 152.259C108.073 152.603 108.855 152.934 109.643 153.251L110.215 153.482L112.428 154.317L112.706 154.416C113.523 154.705 114.347 154.98 115.174 155.24L115.769 155.421C116.635 155.681 117.447 155.991 118.318 156.157C173.624 166.453 189.693 122.33 189.693 122.33C176.201 140.233 152.25 144.952 129.56 139.698C128.7 139.482 127.866 139.228 127.026 138.975L126.394 138.759C125.576 138.504 124.762 138.232 123.957 137.951L123.621 137.828C122.901 137.568 122.184 137.298 121.472 137.016L120.866 136.773C120.086 136.46 119.312 136.133 118.544 135.79L118.082 135.583L116.124 134.652L115.562 134.375C115.053 134.119 114.548 133.857 114.046 133.589L113.035 133.047C112.424 132.713 111.819 132.367 111.221 132.011L110.609 131.664C109.811 131.189 109.023 130.69 108.245 130.192C108.028 130.051 107.82 129.902 107.606 129.759L105.923 128.621L105.383 128.231L103.792 127.062L103.085 126.52L101.65 125.377L101.01 124.858L99.2231 123.343C99.1624 123.288 99.0937 123.234 99.0067 123.176C98.371 122.607 97.7446 122.023 97.1284 121.435L96.5993 120.916L95.2488 119.569L94.7206 119.028C94.158 118.444 93.6059 117.849 93.0645 117.245C93.0385 117.214 93.0083 117.186 92.9823 117.157C92.4101 116.52 91.8501 115.869 91.3024 115.209L90.8629 114.677L89.6506 113.155L89.2068 112.592L87.8105 110.698C75.2112 93.1954 70.7084 69.0576 80.7532 49.2322L71.8406 60.7663ZM107.343 46.6604C99.0742 58.7834 99.5221 75.0066 105.974 87.8267C107.052 89.9793 108.274 92.0572 109.632 94.0462C110.871 95.8539 112.245 98.0082 113.89 99.4581C114.485 100.107 115.108 100.757 115.745 101.42C115.906 101.586 116.07 101.744 116.234 101.911C116.853 102.524 117.485 103.123 118.131 103.706C118.157 103.728 118.181 103.753 118.209 103.775C118.937 104.422 119.68 105.049 120.441 105.659L120.944 106.056C121.7 106.652 122.473 107.225 123.259 107.78C123.28 107.797 123.302 107.814 123.325 107.83C123.671 108.074 124.028 108.306 124.381 108.539C124.55 108.653 124.709 108.772 124.879 108.877C125.444 109.247 126.016 109.604 126.596 109.949L126.839 110.092L128.354 110.958C128.531 111.06 128.712 111.148 128.894 111.243L129.977 111.802C130.032 111.831 130.085 111.851 130.137 111.878C130.867 112.245 131.601 112.592 132.352 112.928C132.512 112.999 132.676 113.064 132.841 113.133C133.441 113.393 134.047 113.645 134.66 113.884L135.439 114.175C135.992 114.38 136.547 114.577 137.106 114.766L137.859 115.01C138.653 115.263 139.439 115.579 140.268 115.72C182.969 122.925 192.83 89.4395 192.83 89.4395C183.944 102.471 166.736 108.694 148.369 103.84C147.557 103.624 146.751 103.385 145.951 103.125C145.706 103.05 145.467 102.97 145.224 102.909C144.657 102.722 144.094 102.524 143.533 102.316L142.768 102.026C142.156 101.809 141.55 101.539 140.951 101.279C140.786 101.207 140.621 101.143 140.459 101.067C139.706 100.737 138.963 100.386 138.23 100.012C137.853 99.8246 137.483 99.6276 137.112 99.4318L136.467 99.095C135.991 98.8328 135.52 98.5625 135.054 98.283L134.716 98.0666C134.14 97.7218 133.569 97.3668 133.006 97.0014C132.832 96.8881 132.663 96.785 132.491 96.651L131.382 95.9037C130.599 95.3493 129.83 94.7762 129.074 94.1847L128.554 93.7691C120.516 87.3049 114.143 78.4725 111.115 68.4559C107.939 58.0647 108.625 46.4071 114.145 36.9447L107.343 46.6604ZM137.197 36.122C132.321 43.4305 131.843 52.5054 135.248 60.5759C138.816 69.1421 146.126 75.8639 154.658 79.0484C155.009 79.1825 155.362 79.3016 155.74 79.4229L156.208 79.5744C156.71 79.7345 157.211 79.9207 157.728 80.0203C181.308 84.6595 187.702 67.6981 189.404 65.2021C183.801 73.4176 174.387 75.3897 162.835 72.5344C161.926 72.307 160.919 71.9715 160.02 71.6555C158.89 71.2464 157.782 70.7775 156.702 70.2504C154.646 69.2423 152.697 68.0305 150.883 66.633C140.524 58.6448 134.101 43.4088 140.847 31" fill="white"/>
<path d="M85.1245 191.261L83.527 196.925L85.1245 191.264V191.261ZM93.3423 203.554L91.5823 203.542L93.3423 203.554ZM92.9093 212.01L82.3623 212.048L92.9093 212.01ZM95.1173 203.566L93.3552 203.556L95.1173 203.566ZM93.8575 211.29L95.6974 204.283L93.8575 211.29ZM132.673 179.019L129.252 195.111L132.673 179.019ZM123.873 179.019L121.275 191.041L123.873 179.019Z" fill="white"/>
<path d="M132.066 178.294H124.748C124.342 178.294 123.939 178.62 123.853 179.017L118.656 203.062C118.571 203.459 118.167 203.783 117.763 203.783H112.583C107.457 203.783 108.05 200.239 109.118 195.383L109.152 195.237L109.772 191.924L110.04 190.56L112.405 179.017C112.487 178.62 112.221 178.292 111.814 178.292H104.302C104.095 178.299 103.896 178.373 103.734 178.504C103.574 178.634 103.46 178.814 103.41 179.015L100.026 195.065C98.1648 203.56 98.6584 211.661 108.773 211.914L109.065 211.92H124.937C125.344 211.92 125.745 211.596 125.832 211.197L132.676 179.015C132.763 178.617 132.496 178.292 132.092 178.292L132.066 178.294ZM161.263 203.868C161.67 203.868 161.912 204.192 161.854 204.59L161.143 208.065L161.263 203.868ZM160.433 211.542L161.143 208.065L160.433 211.542ZM159.542 212.273L146.055 212.338L159.542 212.273Z" fill="white"/>
<path d="M141.686 199.395C141.681 199.014 142.114 198.36 142.52 198.36L141.606 198.345C141.173 202.489 141.686 199.395 141.686 199.395ZM146.722 212.336H146.581H146.722ZM161.263 203.868C161.671 203.868 161.912 204.192 161.854 204.591L161.027 208.63L161.263 203.868ZM150.186 212.348H150.156H150.186ZM148.389 212.334H148.286H148.389ZM147.841 212.336H147.668H147.841ZM147.306 212.336H147.155H147.306ZM148.306 212.334H147.863H148.306Z" fill="white"/>
<path d="M150.158 212.347L148.391 212.353L150.158 212.347ZM159.546 212.292L150.184 212.35L159.546 212.292ZM160.412 211.542L161.008 208.632L160.412 211.543V211.542ZM147.649 212.336H147.307H147.692H147.649ZM146.577 212.336H146.058H146.577ZM147.134 212.336H146.701H147.134ZM40.0614 199.481L41.198 194.442L39.8991 200.2L39.7476 200.923L40.0636 199.478L40.0614 199.481ZM53.6696 178.212H45.6315C45.4238 178.22 45.2242 178.294 45.0618 178.425C44.8994 178.554 44.7827 178.732 44.7288 178.933L43.2048 185.644C43.1791 185.731 43.1749 185.822 43.1923 185.912C43.2097 186 43.2483 186.084 43.3049 186.155C43.3613 186.226 43.4342 186.282 43.517 186.318C43.5998 186.355 43.6903 186.371 43.7806 186.365H51.8814C52.2883 186.365 52.691 186.04 52.7776 185.644L54.2497 178.917C54.3363 178.522 54.0765 178.197 53.6652 178.197L53.6696 178.212ZM51.9204 189.4L49.5391 200.307L51.9204 189.4ZM28.5705 225.541L35.1993 225.594C33.2422 225.594 30.0102 225.557 28.5684 225.54L28.5705 225.541Z" fill="white"/>
<path d="M42.3126 189.4L41.1739 194.44L42.3126 189.4ZM51.3399 188.679H43.237C43.0293 188.687 42.8297 188.761 42.6672 188.892C42.5048 189.021 42.3882 189.199 42.3342 189.4L40.0612 199.479L39.7451 200.926L37.5803 211.215C37.473 211.695 37.343 212.17 37.1906 212.637C37.1906 212.637 35.6753 217.141 33.1337 217.09L30.6117 217.043C30.4048 217.049 30.2052 217.12 30.0418 217.247C29.8782 217.374 29.7595 217.55 29.7025 217.749L28.0248 224.812C27.9982 224.899 27.993 224.991 28.0092 225.079C28.0255 225.168 28.0629 225.252 28.1184 225.323C28.1737 225.394 28.2455 225.451 28.3276 225.489C28.4096 225.527 28.4995 225.544 28.5898 225.54L35.2206 225.594C41.5765 225.594 44.9256 222.071 47.0752 211.94L51.946 189.426C52.0326 189.031 51.7685 188.705 51.3616 188.705L51.3399 188.679ZM166.426 211.925C166.019 211.925 165.776 211.601 165.842 211.202L171.936 182.657L166.426 211.925ZM174.895 211.2L177.363 199.016L174.895 211.2Z" fill="white"/>
<path d="M165.93 211.564C165.881 211.365 165.91 210.877 165.996 210.481L168.887 196.93L165.84 211.202C165.753 211.601 166.017 211.925 166.424 211.925H167.165C166.758 211.925 165.978 211.762 165.93 211.564ZM174.417 211.762C174.196 211.849 173.681 211.925 173.274 211.925H174.014C174.221 211.917 174.419 211.841 174.58 211.711C174.74 211.58 174.852 211.4 174.901 211.2L175.049 210.477C174.969 210.875 174.616 211.674 174.4 211.762H174.417ZM176.127 205.108L177.216 199.731L176.127 205.108ZM200.173 184.568L200.509 185.954C200.603 186.35 200.345 186.672 199.94 186.675" fill="white"/>
<path d="M175.042 210.477L176.124 205.108L175.042 210.477ZM199.842 183.122L200.173 184.542L199.842 183.122ZM177.216 199.731L177.515 198.294L178.677 192.849L177.361 199.014L177.216 199.729V199.731ZM172.036 182.188L171.783 183.377L168.89 196.93L171.938 182.657L172.036 182.19V182.188Z" fill="white"/>
<path d="M200.511 185.954L200.175 184.568L199.678 182.404C199.02 179.849 197.089 178.37 192.894 178.37L173.583 178.357C173.375 178.364 173.177 178.439 173.016 178.569C172.856 178.7 172.741 178.88 172.692 179.08L172.393 180.495L171.96 182.63L166.019 210.455C165.932 210.854 165.905 211.321 165.954 211.538C166.004 211.754 166.783 211.9 167.189 211.9H173.293C173.7 211.9 174.213 211.825 174.436 211.737C174.659 211.648 174.986 210.871 175.085 210.451L177.402 198.99L179.881 187.378C179.967 186.981 180.368 186.66 180.773 186.657L199.981 186.648C200.386 186.648 200.644 186.324 200.55 185.928L200.511 185.954ZM225.24 173.413L223.762 173.419H217.614C217.388 173.433 217.169 173.494 216.969 173.6C216.77 173.705 216.595 173.852 216.457 174.029L202.862 193.946C202.633 194.282 202.371 194.232 202.278 193.838L201.277 189.45C201.223 189.249 201.108 189.07 200.945 188.941C200.782 188.812 200.583 188.737 200.375 188.729H191.636C191.228 188.729 190.987 189.048 191.099 189.439L194.995 203.16C195.107 203.549 195.114 204.192 195.017 204.588L193.285 211.229C193.256 211.313 193.247 211.404 193.262 211.493C193.277 211.582 193.314 211.666 193.369 211.737C193.424 211.808 193.496 211.864 193.578 211.901C193.661 211.937 193.751 211.952 193.842 211.944H202.5C202.908 211.944 203.324 211.62 203.423 211.23L205.155 204.59C205.29 204.123 205.503 203.681 205.783 203.284L227.877 173.987C228.122 173.662 227.99 173.398 227.582 173.402L225.267 173.418L225.24 173.413ZM155.801 190.595C155.749 191.028 155.343 191.353 154.935 191.353H143.851C143.468 191.353 143.274 191.093 143.332 190.768L143.34 190.709L143.39 190.522C144.473 187.708 146.605 185.86 150.655 185.86C155.217 185.86 156.107 188.09 155.797 190.595H155.801ZM152.549 177.805C138.327 177.805 134.957 186.439 133.067 195.152C131.175 204.034 131.339 212.341 146.056 212.341H148.389L150.186 212.334L159.551 212.278C159.757 212.268 159.953 212.193 160.112 212.062C160.271 211.932 160.383 211.753 160.431 211.553L161.854 204.6C161.936 204.201 161.671 203.876 161.263 203.876H148.031C142.771 203.876 141.206 202.477 141.781 198.367H162.933C163.279 198.36 163.592 198.15 163.716 197.822C163.738 197.763 163.76 197.7 163.768 197.637C166.907 185.796 166.007 177.815 152.554 177.815L152.549 177.805ZM85.3232 190.548L85.124 191.256C85.124 191.258 83.5265 196.918 83.5265 196.918L81.9288 202.577C81.8625 202.777 81.7371 202.951 81.5694 203.079C81.4016 203.205 81.1993 203.278 80.9893 203.287H72.5335C66.1213 203.287 64.5604 198.272 66.1213 190.874C67.6799 183.308 70.7431 178.604 77.0536 178.128C85.6783 177.479 87.4015 183.544 85.3232 190.546V190.548ZM91.1207 202.854C91.1207 202.854 95.1039 193.178 96.0131 187.586C97.2465 180.102 93.502 169.25 79.0302 169.25C64.6405 169.25 58.3928 179.61 56.0094 190.898C53.6281 202.241 56.7497 212.192 71.0549 212.114L92.8893 212.034C93.0986 212.023 93.2997 211.949 93.4652 211.821C93.6307 211.691 93.7523 211.515 93.8136 211.314L95.6534 204.305C95.6832 204.22 95.6912 204.129 95.6775 204.041C95.6637 203.951 95.6271 203.868 95.5722 203.797C95.5175 203.725 95.4458 203.668 95.3636 203.632C95.2814 203.595 95.1914 203.579 95.1017 203.586L91.5796 203.564C91.2332 203.562 91.0383 203.34 91.0774 203.045C91.086 202.99 91.0991 202.937 91.1207 202.88V202.854Z" fill="white"/>
<path d="M162.352 196.38C162.352 196.648 162.135 196.864 161.867 196.864C161.598 196.864 161.382 196.648 161.382 196.38C161.382 196.111 161.598 195.894 161.867 195.894C162.135 195.894 162.352 196.111 162.352 196.38Z" fill="white"/>
<defs>
<linearGradient id="paint0_linear_30_386" x1="0" y1="0" x2="256" y2="256" gradientUnits="userSpaceOnUse">
<stop stop-color="#FF5C00"/>
<stop offset="1" stop-color="#FF0F00"/>
</linearGradient>
</defs>
</svg>
