<svg width="256" height="256" viewBox="0 0 256 256" fill="none" xmlns="http://www.w3.org/2000/svg">
<g clip-path="url(#clip0_30_386)">
<path d="M196 0H60C26.8629 0 0 26.8629 0 60V196C0 229.137 26.8629 256 60 256H196C229.137 256 256 229.137 256 196V60C256 26.8629 229.137 0 196 0Z" fill="url(#paint0_linear_30_386)"/>
<path d="M77.4565 66.7897C67.1634 81.8562 68.4455 101.457 76.2876 117.447L76.8643 118.586L77.2539 119.307C77.3261 119.448 77.4098 119.586 77.4839 119.722C77.6202 119.975 77.7566 120.219 77.8735 120.468L78.6236 121.779L79.0523 122.501L79.9232 123.888L80.3128 124.473C80.7025 125.096 81.1428 125.716 81.5754 126.327C81.5851 126.342 81.5987 126.36 81.6104 126.375C81.6786 126.473 81.7546 126.57 81.8052 126.668C82.1793 127.194 82.5846 127.712 82.9742 128.227L83.4068 128.787L84.4686 130.117L84.8739 130.612C85.3569 131.194 85.8505 131.769 86.3546 132.334L86.3858 132.365C86.4052 132.39 86.4247 132.404 86.4442 132.429C86.9327 132.981 87.4342 133.52 87.9484 134.046L88.4315 134.541L89.6337 135.742L90.1247 136.217C90.6649 136.735 91.2138 137.243 91.771 137.743L92.0827 138.015L93.5771 139.301L94.1967 139.804L95.4436 140.778L96.11 141.295L98.0155 142.687C98.0641 142.72 98.107 142.755 98.1558 142.788C98.6038 143.101 99.058 143.403 99.5136 143.705L100.102 144.104L102.23 145.429L102.818 145.766L104.416 146.677C104.708 146.837 105.007 146.99 105.298 147.141L106.44 147.726L106.703 147.855L107.171 148.084L108.982 148.938L109.367 149.133C110.066 149.443 110.77 149.741 111.479 150.026L111.993 150.234L113.986 150.985L114.235 151.075C114.971 151.334 115.712 151.582 116.456 151.816L116.992 151.979C117.772 152.213 118.502 152.492 119.286 152.641C169.061 161.908 183.524 122.197 183.524 122.197C171.381 138.31 149.825 142.556 129.404 137.828C128.63 137.633 127.879 137.406 127.124 137.178L126.555 136.983C125.819 136.753 125.086 136.509 124.361 136.256L124.059 136.145C123.411 135.911 122.766 135.668 122.124 135.414L121.579 135.196C120.877 134.914 120.18 134.619 119.49 134.311L119.073 134.125L117.312 133.287L116.806 133.037C116.348 132.807 115.894 132.571 115.441 132.33L114.532 131.843C113.981 131.542 113.437 131.23 112.899 130.91L112.348 130.597C111.63 130.17 110.921 129.721 110.22 129.273C110.025 129.146 109.838 129.012 109.645 128.883L108.131 127.859L107.644 127.508L106.213 126.456L105.577 125.968L104.285 124.94L103.709 124.473L102.101 123.109C102.046 123.059 101.984 123.011 101.906 122.958C101.334 122.446 100.77 121.92 100.216 121.392L99.7393 120.925L98.524 119.713L98.0486 119.225C97.5422 118.699 97.0453 118.164 96.5581 117.62C96.5347 117.592 96.5075 117.568 96.4841 117.542C95.9691 116.968 95.4651 116.382 94.9722 115.788L94.5766 115.309L93.4856 113.939L93.0862 113.433L91.8294 111.728C80.4901 95.9758 76.4375 74.2518 85.4779 56.409L77.4565 66.7897ZM109.409 54.0944C101.967 65.005 102.37 79.6059 108.176 91.144C109.147 93.0814 110.247 94.9515 111.468 96.7416C112.584 98.3685 113.821 100.307 115.301 101.612C115.837 102.197 116.398 102.781 116.971 103.378C117.115 103.527 117.263 103.67 117.411 103.82C117.967 104.372 118.536 104.911 119.118 105.435C119.141 105.455 119.163 105.478 119.188 105.497C119.843 106.08 120.512 106.644 121.197 107.193L121.649 107.551C122.33 108.087 123.025 108.603 123.734 109.102C123.752 109.117 123.772 109.133 123.792 109.147C124.104 109.367 124.425 109.575 124.743 109.785C124.895 109.887 125.038 109.994 125.191 110.089C125.699 110.422 126.215 110.744 126.736 111.054L126.955 111.183L128.318 111.962C128.478 112.054 128.641 112.133 128.805 112.219L129.779 112.722C129.828 112.748 129.877 112.766 129.923 112.79C130.58 113.121 131.241 113.433 131.917 113.735C132.061 113.799 132.208 113.858 132.357 113.92C132.897 114.154 133.442 114.38 133.994 114.596L134.695 114.858C135.193 115.042 135.692 115.219 136.195 115.39L136.873 115.609C137.588 115.837 138.295 116.121 139.041 116.248C177.472 122.733 186.347 92.5956 186.347 92.5956C178.35 104.324 162.862 109.924 146.332 105.556C145.601 105.361 144.876 105.147 144.156 104.913C143.936 104.845 143.72 104.773 143.502 104.718C142.991 104.55 142.484 104.372 141.98 104.184L141.292 103.923C140.74 103.728 140.195 103.485 139.656 103.251C139.507 103.186 139.359 103.129 139.214 103.061C138.535 102.764 137.866 102.447 137.207 102.111C136.868 101.942 136.535 101.765 136.201 101.589L135.62 101.286C135.192 101.049 134.768 100.806 134.348 100.555L134.044 100.36C133.526 100.05 133.012 99.7301 132.505 99.4013C132.349 99.2992 132.197 99.2065 132.041 99.0859L131.044 98.4133C130.339 97.9144 129.647 97.3986 128.967 96.8662L128.499 96.4922C121.265 90.6744 115.529 82.7253 112.803 73.7103C109.945 64.3582 110.562 53.8664 115.531 45.3502L109.409 54.0944ZM136.277 44.6098C131.889 51.1874 131.459 59.3549 134.524 66.6183C137.734 74.3279 144.314 80.3775 151.992 83.2435C152.308 83.3642 152.626 83.4714 152.966 83.5806L153.388 83.717C153.839 83.8611 154.29 84.0287 154.755 84.1182C175.977 88.2936 181.732 73.0283 183.263 70.7819C178.221 78.1759 169.748 79.9507 159.352 77.3809C158.533 77.1763 157.627 76.8743 156.818 76.5899C155.801 76.2217 154.804 75.7997 153.832 75.3254C151.982 74.4181 150.227 73.3274 148.595 72.0697C139.271 64.8803 133.491 51.1679 139.562 40" fill="white"/>
<path d="M89.4118 184.235L87.974 189.332L89.4118 184.237V184.235ZM96.8077 195.298L95.2238 195.288L96.8077 195.298ZM96.4181 202.908L86.9258 202.944L96.4181 202.908ZM98.4053 195.31L96.8194 195.3L98.4053 195.31ZM97.2715 202.261L98.9274 195.955L97.2715 202.261ZM132.206 173.217L129.127 187.7L132.206 173.217ZM124.285 173.217L121.948 184.037L124.285 173.217Z" fill="white"/>
<path d="M131.659 172.565H125.074C124.708 172.565 124.345 172.858 124.268 173.215L119.591 194.856C119.514 195.213 119.151 195.505 118.787 195.505H114.125C109.511 195.505 110.045 192.315 111.007 187.945L111.037 187.813L111.596 184.832L111.837 183.604L113.965 173.215C114.038 172.858 113.799 172.563 113.433 172.563H106.673C106.486 172.569 106.307 172.636 106.161 172.753C106.017 172.871 105.914 173.033 105.87 173.213L102.824 187.658C101.149 195.304 101.593 202.595 110.696 202.823L110.959 202.828H125.244C125.61 202.828 125.971 202.536 126.049 202.178L132.209 173.213C132.287 172.855 132.047 172.563 131.683 172.563L131.659 172.565ZM157.937 195.581C158.304 195.581 158.521 195.872 158.469 196.231L157.83 199.359L157.937 195.581ZM157.19 202.488L157.83 199.359L157.19 202.488ZM156.388 203.146L144.25 203.204L156.388 203.146Z" fill="white"/>
<path d="M140.318 191.556C140.313 191.213 140.703 190.624 141.069 190.624L140.246 190.611C139.856 194.34 140.318 191.556 140.318 191.556ZM144.851 203.202H144.724H144.851ZM157.937 195.581C158.304 195.581 158.522 195.873 158.469 196.231L157.725 199.867L157.937 195.581ZM147.968 203.213H147.941H147.968ZM146.35 203.2H146.258H146.35ZM145.858 203.202H145.702H145.858ZM145.376 203.202H145.24H145.376ZM146.276 203.2H145.877H146.276Z" fill="white"/>
<path d="M147.943 203.213L146.352 203.218L147.943 203.213ZM156.392 203.163L147.965 203.215L156.392 203.163ZM157.171 202.488L157.707 199.869L157.171 202.489V202.488ZM145.684 203.202H145.376H145.723H145.684ZM144.719 203.202H144.253H144.719ZM145.22 203.202H144.831H145.22ZM48.8555 191.633L49.8784 187.098L48.7094 192.28L48.573 192.931L48.8574 191.63L48.8555 191.633ZM61.1028 172.491H53.8686C53.6816 172.498 53.5019 172.565 53.3558 172.682C53.2096 172.799 53.1046 172.959 53.0561 173.14L51.6845 179.179C51.6614 179.258 51.6576 179.34 51.6733 179.421C51.6889 179.5 51.7237 179.575 51.7746 179.639C51.8254 179.703 51.891 179.753 51.9655 179.786C52.04 179.819 52.1214 179.834 52.2028 179.829H59.4935C59.8597 179.829 60.2221 179.536 60.3001 179.179L61.6249 173.126C61.7028 172.77 61.469 172.477 61.0989 172.477L61.1028 172.491ZM59.5285 182.56L57.3854 192.376L59.5285 182.56ZM38.5137 215.087L44.4795 215.135C42.7182 215.135 39.8094 215.102 38.5117 215.086L38.5137 215.087Z" fill="white"/>
<path d="M50.8813 182.56L49.8565 187.096L50.8813 182.56ZM59.0059 181.911H51.7133C51.5264 181.918 51.3467 181.985 51.2005 182.103C51.0543 182.219 50.9494 182.379 50.9008 182.56L48.8551 191.631L48.5706 192.933L46.6223 202.193C46.5257 202.625 46.4087 203.053 46.2715 203.474C46.2715 203.474 44.9077 207.527 42.6204 207.481L40.3505 207.439C40.1644 207.444 39.9847 207.508 39.8376 207.622C39.6904 207.737 39.5835 207.895 39.5323 208.074L38.0223 214.431C37.9984 214.509 37.9937 214.591 38.0083 214.671C38.0229 214.751 38.0566 214.826 38.1065 214.89C38.1563 214.954 38.2209 215.006 38.2949 215.04C38.3687 215.074 38.4496 215.089 38.5308 215.086L44.4985 215.135C50.2189 215.135 53.233 211.964 55.1677 202.846L59.5514 182.583C59.6293 182.227 59.3916 181.935 59.0254 181.935L59.0059 181.911ZM162.583 202.832C162.217 202.832 161.999 202.541 162.058 202.182L167.542 176.491L162.583 202.832ZM170.206 202.18L172.427 191.215L170.206 202.18Z" fill="white"/>
<path d="M162.137 202.508C162.093 202.328 162.119 201.889 162.196 201.533L164.799 189.336L162.056 202.182C161.978 202.541 162.216 202.832 162.582 202.832H163.249C162.883 202.832 162.181 202.686 162.137 202.508ZM169.775 202.686C169.576 202.764 169.113 202.832 168.747 202.832H169.413C169.599 202.825 169.777 202.757 169.922 202.64C170.066 202.522 170.167 202.36 170.211 202.18L170.344 201.529C170.272 201.887 169.955 202.607 169.76 202.686H169.775ZM171.314 196.697L172.295 191.858L171.314 196.697ZM192.956 178.211L193.258 179.459C193.343 179.815 193.111 180.105 192.746 180.107" fill="white"/>
<path d="M170.338 201.53L171.312 196.698L170.338 201.53ZM192.658 176.91L192.956 178.188L192.658 176.91ZM172.294 191.858L172.563 190.565L173.61 185.664L172.425 191.213L172.294 191.856V191.858ZM167.632 176.069L167.404 177.14L164.801 189.337L167.545 176.491L167.632 176.071V176.069Z" fill="white"/>
<path d="M193.26 179.459L192.958 178.212L192.511 176.263C191.918 173.964 190.18 172.633 186.404 172.633L169.025 172.622C168.838 172.628 168.66 172.695 168.514 172.812C168.37 172.93 168.267 173.092 168.223 173.272L167.954 174.545L167.564 176.467L162.217 201.51C162.139 201.869 162.114 202.289 162.159 202.484C162.204 202.679 162.905 202.81 163.27 202.81H168.764C169.13 202.81 169.592 202.743 169.793 202.663C169.994 202.583 170.287 201.884 170.377 201.506L172.462 191.191L174.693 180.74C174.77 180.383 175.131 180.094 175.496 180.092L192.783 180.083C193.148 180.083 193.38 179.792 193.295 179.435L193.26 179.459ZM215.516 168.172L214.186 168.177H208.652C208.449 168.189 208.252 168.245 208.072 168.34C207.893 168.435 207.736 168.567 207.611 168.726L195.376 186.651C195.17 186.953 194.934 186.909 194.85 186.555L193.95 182.605C193.901 182.424 193.797 182.263 193.651 182.147C193.504 182.031 193.325 181.964 193.137 181.956H185.273C184.906 181.956 184.688 182.243 184.789 182.595L188.296 194.944C188.397 195.294 188.403 195.873 188.315 196.229L186.757 202.206C186.73 202.282 186.723 202.363 186.736 202.444C186.75 202.524 186.783 202.599 186.832 202.663C186.882 202.727 186.947 202.778 187.021 202.811C187.095 202.844 187.176 202.857 187.258 202.85H195.05C195.417 202.85 195.792 202.558 195.881 202.207L197.44 196.231C197.561 195.811 197.753 195.413 198.005 195.055L217.889 168.688C218.11 168.396 217.991 168.158 217.624 168.162L215.54 168.176L215.516 168.172ZM153.021 183.635C152.975 184.025 152.609 184.318 152.242 184.318H142.266C141.922 184.318 141.746 184.084 141.799 183.791L141.806 183.739L141.852 183.569C142.826 181.037 144.745 179.374 148.39 179.374C152.495 179.374 153.296 181.381 153.018 183.635H153.021ZM150.095 172.125C137.295 172.125 134.261 179.895 132.56 187.737C130.857 195.73 131.005 203.207 144.25 203.207H146.35L147.967 203.2L156.396 203.15C156.581 203.142 156.757 203.074 156.901 202.956C157.044 202.839 157.145 202.678 157.188 202.497L158.469 196.24C158.543 195.881 158.304 195.588 157.937 195.588H146.028C141.294 195.588 139.886 194.33 140.403 190.63H159.44C159.751 190.624 160.033 190.435 160.145 190.14C160.164 190.087 160.184 190.03 160.191 189.974C163.016 179.317 162.206 172.133 150.099 172.133L150.095 172.125ZM89.591 183.593L89.4117 184.23C89.4117 184.232 87.9739 189.326 87.9739 189.326L86.536 194.419C86.4763 194.6 86.3634 194.756 86.2125 194.871C86.0615 194.984 85.8795 195.05 85.6905 195.058H78.0802C72.3093 195.058 70.9044 190.545 72.3093 183.887C73.712 177.078 76.4689 172.843 82.1483 172.416C89.9105 171.831 91.4614 177.29 89.591 183.591V183.593ZM94.8087 194.669C94.8087 194.669 98.3936 185.96 99.2118 180.928C100.322 174.192 96.9519 164.425 83.9272 164.425C70.9766 164.425 65.3537 173.749 63.2085 183.909C61.0654 194.117 63.8748 203.073 76.7495 203.002L96.4004 202.93C96.5889 202.921 96.7699 202.854 96.9188 202.739C97.0677 202.622 97.1772 202.463 97.2324 202.283L98.8882 195.975C98.915 195.898 98.9222 195.816 98.9098 195.737C98.8975 195.656 98.8645 195.581 98.8151 195.517C98.7658 195.452 98.7013 195.402 98.6273 195.369C98.5534 195.336 98.4724 195.321 98.3917 195.327L95.2218 195.308C94.9099 195.306 94.7346 195.106 94.7698 194.841C94.7775 194.791 94.7892 194.743 94.8087 194.692V194.669Z" fill="white"/>
<path d="M158.917 188.842C158.917 189.083 158.722 189.278 158.481 189.278C158.239 189.278 158.044 189.083 158.044 188.842C158.044 188.6 158.239 188.405 158.481 188.405C158.722 188.405 158.917 188.6 158.917 188.842Z" fill="white"/>
</g>
<defs>
<linearGradient id="paint0_linear_30_386" x1="0" y1="0" x2="256" y2="256" gradientUnits="userSpaceOnUse">
<stop stop-color="#FF5C00"/>
<stop offset="1" stop-color="#FF0F00"/>
</linearGradient>
<clipPath id="clip0_30_386">
<rect width="256" height="256" fill="white"/>
</clipPath>
</defs>
</svg>
