<svg width="256" height="256" viewBox="0 0 256 256" fill="none" xmlns="http://www.w3.org/2000/svg">
<g clip-path="url(#clip0_30_386)">
<path d="M196 0H60C26.8629 0 0 26.8629 0 60V196C0 229.137 26.8629 256 60 256H196C229.137 256 256 229.137 256 196V60C256 26.8629 229.137 0 196 0Z" fill="url(#paint0_linear_30_386)"/>
<path d="M77.4556 66.7897C67.1624 81.8562 68.4445 101.457 76.2866 117.447L76.8633 118.586L77.2529 119.307C77.3251 119.448 77.4088 119.586 77.4829 119.722C77.6193 119.975 77.7556 120.219 77.8725 120.468L78.6226 121.779L79.0513 122.501L79.9222 123.888L80.3118 124.473C80.7016 125.096 81.1418 125.716 81.5744 126.327C81.5841 126.342 81.5977 126.36 81.6095 126.375C81.6776 126.473 81.7537 126.57 81.8043 126.668C82.1783 127.194 82.5836 127.712 82.9733 128.227L83.4058 128.787L84.4677 130.117L84.873 130.612C85.3559 131.194 85.8495 131.769 86.3537 132.334L86.3848 132.365C86.4043 132.39 86.4238 132.404 86.4432 132.429C86.9317 132.981 87.4332 133.52 87.9474 134.046L88.4305 134.541L89.6327 135.742L90.1237 136.217C90.6639 136.735 91.2128 137.243 91.77 137.743L92.0817 138.015L93.5761 139.301L94.1957 139.804L95.4426 140.778L96.109 141.295L98.0145 142.687C98.0632 142.72 98.106 142.755 98.1548 142.788C98.6029 143.101 99.057 143.403 99.5126 143.705L100.101 144.104L102.229 145.429L102.817 145.766L104.415 146.677C104.707 146.837 105.006 146.99 105.297 147.141L106.439 147.726L106.702 147.855L107.17 148.084L108.981 148.938L109.366 149.133C110.065 149.443 110.769 149.741 111.478 150.026L111.992 150.234L113.985 150.985L114.234 151.075C114.97 151.334 115.711 151.582 116.455 151.816L116.991 151.979C117.771 152.213 118.501 152.492 119.285 152.641C169.06 161.908 183.523 122.197 183.523 122.197C171.38 138.31 149.824 142.556 129.403 137.828C128.629 137.633 127.878 137.406 127.123 137.178L126.554 136.983C125.818 136.753 125.085 136.509 124.36 136.256L124.058 136.145C123.41 135.911 122.765 135.668 122.124 135.414L121.578 135.196C120.876 134.914 120.179 134.619 119.489 134.311L119.072 134.125L117.311 133.287L116.805 133.037C116.347 132.807 115.893 132.571 115.44 132.33L114.531 131.843C113.98 131.542 113.436 131.23 112.898 130.91L112.347 130.597C111.629 130.17 110.92 129.721 110.219 129.273C110.024 129.146 109.837 129.012 109.644 128.883L108.13 127.859L107.643 127.508L106.212 126.456L105.576 125.968L104.284 124.94L103.708 124.473L102.1 123.109C102.045 123.059 101.983 123.011 101.905 122.958C101.333 122.446 100.769 121.92 100.215 121.392L99.7384 120.925L98.523 119.713L98.0476 119.225C97.5412 118.699 97.0444 118.164 96.5571 117.62C96.5337 117.592 96.5065 117.568 96.4831 117.542C95.9681 116.968 95.4641 116.382 94.9712 115.788L94.5757 115.309L93.4846 113.939L93.0852 113.433L91.8285 111.728C80.4891 95.9758 76.4366 74.2518 85.4769 56.409L77.4556 66.7897ZM109.408 54.0944C101.966 65.005 102.369 79.6059 108.175 91.144C109.146 93.0814 110.246 94.9515 111.467 96.7416C112.583 98.3685 113.82 100.307 115.3 101.612C115.836 102.197 116.397 102.781 116.97 103.378C117.114 103.527 117.262 103.67 117.41 103.82C117.966 104.372 118.535 104.911 119.117 105.435C119.14 105.455 119.162 105.478 119.187 105.497C119.842 106.08 120.511 106.644 121.196 107.193L121.648 107.551C122.329 108.087 123.024 108.603 123.733 109.102C123.751 109.117 123.771 109.133 123.791 109.147C124.103 109.367 124.424 109.575 124.742 109.785C124.894 109.887 125.037 109.994 125.19 110.089C125.698 110.422 126.214 110.744 126.735 111.054L126.954 111.183L128.317 111.962C128.477 112.054 128.64 112.133 128.804 112.219L129.778 112.722C129.827 112.748 129.876 112.766 129.922 112.79C130.579 113.121 131.24 113.433 131.916 113.735C132.06 113.799 132.207 113.858 132.356 113.92C132.896 114.154 133.441 114.38 133.993 114.596L134.694 114.858C135.192 115.042 135.691 115.219 136.194 115.39L136.872 115.609C137.587 115.837 138.294 116.121 139.04 116.248C177.472 122.733 186.346 92.5956 186.346 92.5956C178.349 104.324 162.861 109.924 146.331 105.556C145.6 105.361 144.875 105.147 144.155 104.913C143.935 104.845 143.719 104.773 143.501 104.718C142.99 104.55 142.483 104.372 141.979 104.184L141.291 103.923C140.739 103.728 140.194 103.485 139.655 103.251C139.506 103.186 139.358 103.129 139.213 103.061C138.534 102.764 137.865 102.447 137.206 102.111C136.867 101.942 136.534 101.765 136.2 101.589L135.619 101.286C135.191 101.049 134.767 100.806 134.347 100.555L134.043 100.36C133.525 100.05 133.011 99.7301 132.504 99.4013C132.348 99.2992 132.196 99.2065 132.041 99.0859L131.043 98.4133C130.338 97.9144 129.646 97.3986 128.966 96.8662L128.498 96.4922C121.264 90.6744 115.528 82.7253 112.802 73.7103C109.944 64.3582 110.561 53.8664 115.53 45.3502L109.408 54.0944ZM136.276 44.6098C131.888 51.1874 131.458 59.3549 134.523 66.6183C137.733 74.3279 144.313 80.3775 151.991 83.2435C152.307 83.3642 152.625 83.4714 152.965 83.5806L153.387 83.717C153.838 83.8611 154.289 84.0287 154.754 84.1182C175.976 88.2936 181.731 73.0283 183.262 70.7819C178.22 78.1759 169.747 79.9507 159.351 77.3809C158.532 77.1763 157.626 76.8743 156.817 76.5899C155.8 76.2217 154.803 75.7997 153.831 75.3254C151.981 74.4181 150.226 73.3274 148.594 72.0697C139.27 64.8803 133.49 51.1679 139.561 40" fill="white"/>
<path d="M89.4118 184.235L87.974 189.332L89.4118 184.237V184.235ZM96.8077 195.298L95.2238 195.288L96.8077 195.298ZM96.4181 202.908L86.9258 202.944L96.4181 202.908ZM98.4053 195.31L96.8194 195.3L98.4053 195.31ZM97.2715 202.261L98.9274 195.955L97.2715 202.261ZM132.206 173.217L129.127 187.7L132.206 173.217ZM124.285 173.217L121.948 184.037L124.285 173.217Z" fill="white"/>
<path d="M131.659 172.565H125.074C124.708 172.565 124.345 172.858 124.268 173.215L119.591 194.856C119.514 195.213 119.151 195.505 118.787 195.505H114.125C109.511 195.505 110.045 192.315 111.007 187.945L111.037 187.813L111.596 184.832L111.837 183.604L113.965 173.215C114.038 172.858 113.799 172.563 113.433 172.563H106.673C106.486 172.569 106.307 172.636 106.161 172.753C106.017 172.871 105.914 173.033 105.87 173.213L102.824 187.658C101.149 195.304 101.593 202.595 110.696 202.823L110.959 202.828H125.244C125.61 202.828 125.971 202.536 126.049 202.178L132.209 173.213C132.287 172.855 132.047 172.563 131.683 172.563L131.659 172.565ZM157.937 195.581C158.304 195.581 158.521 195.872 158.469 196.231L157.83 199.359L157.937 195.581ZM157.19 202.488L157.83 199.359L157.19 202.488ZM156.388 203.146L144.25 203.204L156.388 203.146Z" fill="white"/>
<path d="M140.318 191.556C140.313 191.213 140.703 190.624 141.069 190.624L140.246 190.611C139.856 194.34 140.318 191.556 140.318 191.556ZM144.851 203.202H144.724H144.851ZM157.937 195.581C158.304 195.581 158.522 195.873 158.469 196.231L157.725 199.867L157.937 195.581ZM147.968 203.213H147.941H147.968ZM146.35 203.2H146.258H146.35ZM145.858 203.202H145.702H145.858ZM145.376 203.202H145.24H145.376ZM146.276 203.2H145.877H146.276Z" fill="white"/>
<path d="M147.943 203.213L146.352 203.218L147.943 203.213ZM156.392 203.163L147.965 203.215L156.392 203.163ZM157.171 202.488L157.707 199.869L157.171 202.489V202.488ZM145.684 203.202H145.376H145.723H145.684ZM144.719 203.202H144.253H144.719ZM145.22 203.202H144.831H145.22ZM48.8555 191.633L49.8784 187.098L48.7094 192.28L48.573 192.931L48.8574 191.63L48.8555 191.633ZM61.1028 172.491H53.8686C53.6816 172.498 53.5019 172.565 53.3558 172.682C53.2096 172.799 53.1046 172.959 53.0561 173.14L51.6845 179.179C51.6614 179.258 51.6576 179.34 51.6733 179.421C51.6889 179.5 51.7237 179.575 51.7746 179.639C51.8254 179.703 51.891 179.753 51.9655 179.786C52.04 179.819 52.1214 179.834 52.2028 179.829H59.4935C59.8597 179.829 60.2221 179.536 60.3001 179.179L61.6249 173.126C61.7028 172.77 61.469 172.477 61.0989 172.477L61.1028 172.491ZM59.5285 182.56L57.3854 192.376L59.5285 182.56ZM38.5137 215.087L44.4795 215.135C42.7182 215.135 39.8094 215.102 38.5117 215.086L38.5137 215.087Z" fill="white"/>
<path d="M50.8813 182.56L49.8565 187.096L50.8813 182.56ZM59.0059 181.911H51.7133C51.5264 181.918 51.3467 181.985 51.2005 182.103C51.0543 182.219 50.9494 182.379 50.9008 182.56L48.8551 191.631L48.5706 192.933L46.6223 202.193C46.5257 202.625 46.4087 203.053 46.2715 203.474C46.2715 203.474 44.9077 207.527 42.6204 207.481L40.3505 207.439C40.1644 207.444 39.9847 207.508 39.8376 207.622C39.6904 207.737 39.5835 207.895 39.5323 208.074L38.0223 214.431C37.9984 214.509 37.9937 214.591 38.0083 214.671C38.0229 214.751 38.0566 214.826 38.1065 214.89C38.1563 214.954 38.2209 215.006 38.2949 215.04C38.3687 215.074 38.4496 215.089 38.5308 215.086L44.4985 215.135C50.2189 215.135 53.233 211.964 55.1677 202.846L59.5514 182.583C59.6293 182.227 59.3916 181.935 59.0254 181.935L59.0059 181.911ZM162.583 202.832C162.217 202.832 161.999 202.541 162.058 202.182L167.542 176.491L162.583 202.832ZM170.206 202.18L172.427 191.215L170.206 202.18Z" fill="white"/>
<path d="M162.137 202.508C162.093 202.328 162.119 201.889 162.196 201.533L164.799 189.336L162.056 202.182C161.978 202.541 162.216 202.832 162.582 202.832H163.249C162.883 202.832 162.181 202.686 162.137 202.508ZM169.775 202.686C169.576 202.764 169.113 202.832 168.747 202.832H169.413C169.599 202.825 169.777 202.757 169.922 202.64C170.066 202.522 170.167 202.36 170.211 202.18L170.344 201.529C170.272 201.887 169.955 202.607 169.76 202.686H169.775ZM171.314 196.697L172.295 191.858L171.314 196.697ZM192.956 178.211L193.258 179.459C193.343 179.815 193.111 180.105 192.746 180.107" fill="white"/>
<path d="M170.338 201.53L171.312 196.698L170.338 201.53ZM192.658 176.91L192.956 178.188L192.658 176.91ZM172.294 191.858L172.563 190.565L173.61 185.664L172.425 191.213L172.294 191.856V191.858ZM167.632 176.069L167.404 177.14L164.801 189.337L167.545 176.491L167.632 176.071V176.069Z" fill="white"/>
<path d="M193.259 179.459L192.957 178.212L192.51 176.263C191.917 173.964 190.179 172.633 186.403 172.633L169.024 172.622C168.837 172.628 168.659 172.695 168.513 172.812C168.369 172.93 168.266 173.092 168.222 173.272L167.953 174.545L167.563 176.467L162.216 201.51C162.138 201.869 162.113 202.289 162.158 202.484C162.203 202.679 162.904 202.81 163.269 202.81H168.763C169.129 202.81 169.591 202.743 169.792 202.663C169.993 202.583 170.286 201.884 170.376 201.506L172.461 191.191L174.692 180.74C174.769 180.383 175.13 180.094 175.495 180.092L192.782 180.083C193.147 180.083 193.379 179.792 193.294 179.435L193.259 179.459ZM215.515 168.172L214.185 168.177H208.651C208.448 168.189 208.251 168.245 208.071 168.34C207.892 168.435 207.735 168.567 207.61 168.726L195.375 186.651C195.169 186.953 194.933 186.909 194.849 186.555L193.949 182.605C193.9 182.424 193.796 182.263 193.65 182.147C193.503 182.031 193.324 181.964 193.136 181.956H185.272C184.905 181.956 184.687 182.243 184.788 182.595L188.295 194.944C188.396 195.294 188.402 195.873 188.314 196.229L186.756 202.206C186.729 202.282 186.722 202.363 186.735 202.444C186.749 202.524 186.782 202.599 186.831 202.663C186.881 202.727 186.946 202.778 187.02 202.811C187.094 202.844 187.175 202.857 187.257 202.85H195.049C195.416 202.85 195.791 202.558 195.88 202.207L197.439 196.231C197.56 195.811 197.752 195.413 198.004 195.055L217.888 168.688C218.109 168.396 217.99 168.158 217.623 168.162L215.539 168.176L215.515 168.172ZM153.02 183.635C152.974 184.025 152.608 184.318 152.241 184.318H142.265C141.921 184.318 141.745 184.084 141.798 183.791L141.805 183.739L141.851 183.569C142.825 181.037 144.744 179.374 148.389 179.374C152.494 179.374 153.295 181.381 153.017 183.635H153.02ZM150.094 172.125C137.294 172.125 134.26 179.895 132.559 187.737C130.856 195.73 131.004 203.207 144.249 203.207H146.349L147.966 203.2L156.395 203.15C156.58 203.142 156.756 203.074 156.9 202.956C157.043 202.839 157.144 202.678 157.187 202.497L158.468 196.24C158.542 195.881 158.303 195.588 157.936 195.588H146.027C141.293 195.588 139.885 194.33 140.402 190.63H159.439C159.75 190.624 160.032 190.435 160.144 190.14C160.163 190.087 160.183 190.03 160.19 189.974C163.015 179.317 162.205 172.133 150.098 172.133L150.094 172.125ZM89.59 183.593L89.4108 184.23C89.4108 184.232 87.9729 189.326 87.9729 189.326L86.535 194.419C86.4753 194.6 86.3625 194.756 86.2116 194.871C86.0606 194.984 85.8785 195.05 85.6895 195.058H78.0792C72.3083 195.058 70.9035 190.545 72.3083 183.887C73.7111 177.078 76.4679 172.843 82.1474 172.416C89.9095 171.831 91.4604 177.29 89.59 183.591V183.593ZM94.8078 194.669C94.8078 194.669 98.3926 185.96 99.2109 180.928C100.321 174.192 96.9509 164.425 83.9263 164.425C70.9756 164.425 65.3527 173.749 63.2076 183.909C61.0644 194.117 63.8738 203.073 76.7485 203.002L96.3995 202.93C96.5879 202.921 96.7689 202.854 96.9178 202.739C97.0668 202.622 97.1762 202.463 97.2314 202.283L98.8872 195.975C98.914 195.898 98.9212 195.816 98.9089 195.737C98.8965 195.656 98.8635 195.581 98.8141 195.517C98.7649 195.452 98.7003 195.402 98.6263 195.369C98.5524 195.336 98.4714 195.321 98.3907 195.327L95.2208 195.308C94.909 195.306 94.7336 195.106 94.7688 194.841C94.7765 194.791 94.7883 194.743 94.8078 194.692V194.669Z" fill="white"/>
<path d="M158.916 188.842C158.916 189.083 158.721 189.278 158.48 189.278C158.238 189.278 158.043 189.083 158.043 188.842C158.043 188.6 158.238 188.405 158.48 188.405C158.721 188.405 158.916 188.6 158.916 188.842Z" fill="white"/>
</g>
<defs>
<linearGradient id="paint0_linear_30_386" x1="0" y1="0" x2="256" y2="256" gradientUnits="userSpaceOnUse">
<stop stop-color="#FF5C00"/>
<stop offset="1" stop-color="#FF0F00"/>
</linearGradient>
<clipPath id="clip0_30_386">
<rect width="256" height="256" fill="white"/>
</clipPath>
</defs>
</svg>
