<svg width="256" height="256" viewBox="0 0 256 256" fill="none" xmlns="http://www.w3.org/2000/svg">
<path d="M0.000976562 56C0.000976562 25.0721 25.073 0 56.001 0H200.001C230.929 0 256.001 25.0721 256.001 56V200C256.001 230.928 230.929 256 200.001 256H56.001C25.073 256 0.000976562 230.928 0.000976562 200V56Z" fill="#0F172A"/>
<path d="M119.769 171.556C119.769 194.428 101.462 212.957 78.8842 212.957C56.2974 212.957 38 194.428 38 171.556C38 148.694 56.2974 130.156 78.8842 130.156C101.462 130.156 119.769 148.694 119.769 171.556Z" fill="#CB3C33"/>
<path d="M218 171.556C218 194.428 199.693 212.957 177.115 212.957C154.538 212.957 136.231 194.428 136.231 171.556C136.231 148.694 154.538 130.156 177.115 130.156C199.693 130.156 218 148.694 218 171.556Z" fill="#9558B2"/>
<path d="M168.893 85.4004C168.893 108.263 150.587 126.801 128.009 126.801C105.422 126.801 87.125 108.263 87.125 85.4004C87.125 62.5378 105.422 44 128.009 44C150.587 44 168.893 62.5378 168.893 85.4004Z" fill="#389826"/>
</svg>
