<svg width="256" height="256" viewBox="0 0 256 256" fill="none" xmlns="http://www.w3.org/2000/svg">
<path d="M119.768 171.556C119.768 194.428 101.461 212.957 78.8832 212.957C56.2965 212.957 37.999 194.428 37.999 171.556C37.999 148.694 56.2965 130.156 78.8832 130.156C101.461 130.156 119.768 148.694 119.768 171.556Z" fill="#CB3C33"/>
<path d="M217.999 171.556C217.999 194.428 199.692 212.957 177.114 212.957C154.537 212.957 136.23 194.428 136.23 171.556C136.23 148.694 154.537 130.156 177.114 130.156C199.692 130.156 217.999 148.694 217.999 171.556Z" fill="#9558B2"/>
<path d="M168.892 85.4004C168.892 108.263 150.586 126.801 128.008 126.801C105.421 126.801 87.124 108.263 87.124 85.4004C87.124 62.5378 105.421 44 128.008 44C150.586 44 168.892 62.5378 168.892 85.4004Z" fill="#389826"/>
</svg>
