<svg width="256" height="256" viewBox="0 0 256 256" fill="none" xmlns="http://www.w3.org/2000/svg">
<path d="M153.081 171.852C154.03 171.854 154.97 171.669 155.847 171.307C156.724 170.946 157.522 170.415 158.194 169.746C158.867 169.076 159.4 168.281 159.765 167.405C160.13 166.529 160.319 165.59 160.321 164.641C160.321 160.659 157.081 157.43 153.081 157.43C152.132 157.428 151.192 157.612 150.314 157.974C149.436 158.335 148.638 158.865 147.966 159.535C147.293 160.205 146.759 161 146.394 161.876C146.029 162.752 145.84 163.692 145.838 164.641C145.838 168.623 149.078 171.852 153.081 171.852Z" fill="#7D64FF"/>
<path d="M180.462 47L135.747 107.779L98.2166 80.516L37.9922 209H217.992L180.462 47ZM123.179 180.812L112.487 166.153V180.812H102.583V126.337L112.483 133.497V161.073L125.656 143.023L133.165 148.459L122.11 163.615L134.659 180.808H123.179V180.812V180.812ZM153.077 181.424C143.767 181.424 136.225 173.907 136.225 164.641C136.225 160.951 137.421 157.542 139.451 154.766L156.353 131.6L163.863 137.036L155.802 148.088C159.739 148.723 163.322 150.737 165.91 153.771C168.498 156.805 169.922 160.66 169.929 164.648C169.929 173.907 162.387 181.424 153.077 181.424Z" fill="#7D64FF"/>
</svg>
