<svg width="256" height="256" viewBox="0 0 256 256" fill="none" xmlns="http://www.w3.org/2000/svg">
<path d="M110.669 54.0127C109.67 52.9869 108.474 52.1724 107.154 51.6179C105.834 51.0633 104.415 50.7799 102.983 50.7845C101.559 50.7786 100.148 51.0616 98.8368 51.6165C97.5252 52.1714 96.3399 52.9866 95.3524 54.0127H95.2965C94.2773 55.0422 93.4713 56.2626 92.9245 57.6041C92.3777 58.9456 92.101 60.3818 92.1102 61.8304C92.0893 64.7435 93.2229 67.5463 95.263 69.6258L95.3161 69.6817C96.308 70.6997 97.4949 71.5073 98.8059 72.0562C100.117 72.6051 101.525 72.8841 102.947 72.8764C105.968 72.8764 108.676 71.6634 110.633 69.6789L110.655 69.623C112.612 67.6581 113.766 64.9078 113.766 61.8304C113.786 58.9124 112.654 56.1043 110.616 54.0155H110.669V54.0127ZM102.983 205.213C106.002 205.213 108.713 203.961 110.669 201.993L110.689 201.937C112.645 199.98 113.8 197.211 113.8 194.167C113.824 191.251 112.707 188.442 110.689 186.338H110.669C109.673 185.307 108.479 184.488 107.158 183.931C105.837 183.373 104.417 183.089 102.983 183.096C101.557 183.087 100.145 183.371 98.8326 183.928C97.5204 184.486 96.3361 185.306 95.3524 186.338H95.2965C93.2606 188.434 92.1285 191.245 92.1438 194.167C92.1299 197.072 93.2641 199.864 95.2993 201.937L95.3496 201.993C96.3432 203.01 97.5299 203.819 98.8401 204.372C100.15 204.925 101.558 205.211 102.98 205.213H102.983ZM162.034 171.751C163.422 171.382 164.722 170.738 165.856 169.856C166.99 168.974 167.936 167.874 168.635 166.619L168.834 166.233C170.114 163.769 170.42 160.913 169.692 158.234C169.344 156.832 168.717 155.515 167.849 154.361C166.981 153.207 165.889 152.24 164.638 151.517L164.488 151.414C162.035 150.028 159.133 149.672 156.418 150.425C153.724 151.109 151.303 152.94 149.822 155.57C148.384 158.122 147.993 161.132 148.732 163.966C149.477 166.779 151.289 169.19 153.783 170.689H153.799C155.031 171.41 156.395 171.874 157.811 172.052C159.227 172.231 160.665 172.119 162.036 171.725L162.034 171.751ZM114.068 116.711C112.621 115.226 110.893 114.044 108.983 113.236C107.074 112.428 105.023 112.009 102.949 112.004C100.879 112.007 98.8309 112.425 96.925 113.233C95.0192 114.041 93.2946 115.222 91.8531 116.708C88.9002 119.727 87.2563 123.788 87.2776 128.011C87.2665 132.246 88.9093 136.318 91.8559 139.359C93.2967 140.834 95.0167 142.006 96.9156 142.809C98.8145 143.612 100.854 144.029 102.916 144.035C107.223 144.035 111.189 142.235 114.032 139.362C116.982 136.319 118.627 132.244 118.615 128.006C118.635 123.782 116.988 119.722 114.032 116.705L114.068 116.711ZM107.846 97.8891C114.054 98.9433 119.764 101.949 124.147 106.47H124.18C124.879 107.183 125.539 107.929 126.162 108.709L136.979 102.33C135.555 97.9387 135.433 93.2287 136.627 88.7689C137.404 85.7633 138.767 82.9405 140.636 80.4619C142.506 77.9834 144.845 75.8977 147.522 74.3242L147.706 74.2068C150.333 72.6797 153.237 71.6906 156.249 71.2972C159.262 70.9037 162.323 71.1137 165.253 71.9149C168.231 72.7307 171.017 74.1296 173.449 76.0306C175.882 77.9316 177.913 80.2967 179.424 82.9888V83.0056C182.525 88.49 183.365 94.9674 181.766 101.061C180.993 104.071 179.633 106.899 177.763 109.381C175.893 111.864 173.551 113.952 170.871 115.526L169.39 116.415H169.242C164.228 118.845 158.504 119.38 153.126 117.921C148.741 116.715 144.804 114.255 141.797 110.844L130.995 117.206C133.564 124.174 133.564 131.831 130.995 138.8L141.797 145.145C144.798 141.726 148.738 139.264 153.126 138.065C156.091 137.24 159.194 137.027 162.245 137.438C165.295 137.85 168.231 138.878 170.871 140.46L171.229 140.634V140.65C176.458 143.872 180.235 148.996 181.766 154.944C183.366 161.033 182.525 167.505 179.424 172.983L179.231 173.38H179.209C176.121 178.644 171.113 182.505 165.237 184.152C162.268 184.954 159.17 185.157 156.123 184.748C153.075 184.339 150.14 183.327 147.488 181.771V181.726C142.086 178.542 138.168 173.345 136.593 167.276C135.398 162.824 135.52 158.12 136.945 153.737L126.129 147.372C125.502 148.141 124.843 148.876 124.144 149.58L124.111 149.614C119.726 154.123 114.014 157.112 107.81 158.144V170.884C112.251 171.844 116.311 174.092 119.482 177.346L119.502 177.383C123.905 181.873 126.364 187.917 126.344 194.206C126.356 200.483 123.898 206.513 119.502 210.993L119.482 211.063C115.233 215.334 109.392 218 102.949 218C96.5431 218 90.6875 215.334 86.4419 211.024H86.4251V210.954C82.0239 206.475 79.5621 200.444 79.5717 194.164C79.5717 187.596 82.199 181.625 86.4251 177.338V177.304H86.4419C89.5966 174.033 93.6592 171.782 98.1055 170.842V158.105C91.9114 157.087 86.2124 154.094 81.858 149.572L81.8133 149.536C76.1622 143.785 72.9946 136.046 72.9922 127.983C72.9853 119.93 76.1386 112.195 81.7742 106.442H81.8189C86.1938 101.921 91.8977 98.9148 98.1 97.8612V85.1717C93.6694 84.1821 89.6197 81.9321 86.4391 78.6929H86.4223V78.6593C82.0177 74.1675 79.5552 68.1243 79.5661 61.8332C79.5591 55.5429 82.021 49.5011 86.4223 45.0071L86.4726 44.9904C88.6119 42.7824 91.1724 41.0261 94.0026 39.8254C96.8327 38.6247 99.875 38.004 102.949 38C109.395 38 115.231 40.6637 119.488 44.9904V45.0099H119.504C123.899 49.5058 126.356 55.546 126.347 61.8332C126.353 68.119 123.896 74.157 119.504 78.6537L119.488 78.6901C116.304 81.9328 112.249 84.1832 107.813 85.1689V97.8584L107.846 97.8919V97.8891ZM168.627 89.423L168.538 89.2832C167.104 86.8282 164.768 85.0307 162.028 84.2745C160.649 83.895 159.207 83.7966 157.789 83.9853C156.372 84.174 155.006 84.6459 153.774 85.373H153.791C152.545 86.1017 151.455 87.0703 150.585 88.2226C149.716 89.375 149.083 90.6883 148.724 92.0866C147.979 94.9199 148.371 97.9319 149.816 100.48L149.867 100.55C150.568 101.783 151.508 102.864 152.63 103.73C153.753 104.597 155.037 105.232 156.407 105.598C157.778 105.989 159.215 106.094 160.629 105.909C162.043 105.723 163.403 105.25 164.627 104.519L164.767 104.449C167.202 102.958 168.964 100.58 169.681 97.8165C170.434 94.988 170.056 91.9775 168.627 89.423Z" fill="#262626"/>
</svg>
