<svg width="256" height="256" viewBox="0 0 256 256" fill="none" xmlns="http://www.w3.org/2000/svg">
<path d="M0.000976562 56C0.000976562 25.0721 25.073 0 56.001 0H200.001C230.929 0 256.001 25.0721 256.001 56V200C256.001 230.928 230.929 256 200.001 256H56.001C25.073 256 0.000976562 230.928 0.000976562 200V56Z" fill="#0F172A"/>
<path d="M38 218L128.3 127.7L218 218H38Z" fill="url(#paint0_linear_24_447)"/>
<path d="M38 38H128.3L38 135.5V38Z" fill="url(#paint1_linear_24_447)"/>
<path d="M128.3 38L38 133.1V218L128.3 127.7L218 38H128.3Z" fill="url(#paint2_linear_24_447)"/>
<defs>
<linearGradient id="paint0_linear_24_447" x1="85.8782" y1="260.043" x2="170.92" y2="175" gradientUnits="userSpaceOnUse">
<stop offset="0.09677" stop-color="#0095D5"/>
<stop offset="0.3007" stop-color="#238AD9"/>
<stop offset="0.6211" stop-color="#557BDE"/>
<stop offset="0.8643" stop-color="#7472E2"/>
<stop offset="1" stop-color="#806EE3"/>
</linearGradient>
<linearGradient id="paint1_linear_24_447" x1="50.6276" y1="74.1773" x2="100.02" y2="24.785" gradientUnits="userSpaceOnUse">
<stop offset="0.1183" stop-color="#0095D5"/>
<stop offset="0.4178" stop-color="#3C83DC"/>
<stop offset="0.6962" stop-color="#6D74E1"/>
<stop offset="0.8333" stop-color="#806EE3"/>
</linearGradient>
<linearGradient id="paint2_linear_24_447" x1="7.6949" y1="203.491" x2="175.195" y2="35.9918" gradientUnits="userSpaceOnUse">
<stop offset="0.1075" stop-color="#C757BC"/>
<stop offset="0.2138" stop-color="#D0609A"/>
<stop offset="0.4254" stop-color="#E1725C"/>
<stop offset="0.6048" stop-color="#EE7E2F"/>
<stop offset="0.743" stop-color="#F58613"/>
<stop offset="0.8232" stop-color="#F88909"/>
</linearGradient>
</defs>
</svg>
