<svg width="256" height="256" viewBox="0 0 256 256" fill="none" xmlns="http://www.w3.org/2000/svg">
<path d="M95.4698 212.486C91.2798 212.486 87.3227 210.624 84.6458 207.248L43.9103 156.62C41.2334 153.245 40.1859 148.939 41.2334 144.749L55.7818 81.5505C56.7129 77.3605 59.5062 73.9853 63.347 72.1231L122.239 43.9574C124.101 43.0263 126.196 42.5608 128.291 42.5608C130.386 42.5608 132.481 43.0263 134.343 43.9574L193.235 72.0067C197.076 73.8689 199.869 77.2441 200.8 81.4341L215.348 144.632C216.28 148.822 215.348 153.128 212.672 156.504L171.936 207.132C169.259 210.391 165.302 212.37 161.112 212.37L95.4698 212.486Z" fill="#326DE6"/>
<path d="M128.175 45.4702C129.804 45.4702 131.433 45.8194 132.946 46.5177L191.838 74.567C194.864 76.08 197.192 78.8733 197.89 82.1321L212.439 145.33C213.254 148.706 212.439 152.197 210.227 154.874L169.492 205.502C167.397 208.179 164.138 209.692 160.763 209.692H95.4698C92.0946 209.692 88.8358 208.179 86.7408 205.502L46.0053 154.874C43.9104 152.197 43.0956 148.706 43.794 145.33L58.3423 82.1321C59.1571 78.7569 61.3684 75.9636 64.3945 74.567L123.286 46.4013C124.799 45.8194 126.545 45.4702 128.175 45.4702ZM128.175 40C125.73 40 123.286 40.5819 120.959 41.6294L62.0667 69.7951C57.4112 72.0064 54.1524 76.08 52.9885 81.0846L38.4402 144.283C37.2763 149.287 38.4402 154.408 41.699 158.482L82.4345 209.11C85.5769 213.068 90.3488 215.279 95.3534 215.279H160.647C165.651 215.279 170.423 213.068 173.566 209.11L214.301 158.482C217.56 154.525 218.724 149.287 217.56 144.283L203.011 81.0846C201.848 76.08 198.589 72.0064 193.933 69.7951L135.274 41.6294C133.063 40.5819 130.619 40 128.175 40Z" fill="white"/>
<path d="M187.183 140.326C187.067 140.326 187.067 140.326 187.183 140.326H187.067C186.95 140.326 186.834 140.326 186.834 140.209C186.601 140.209 186.368 140.093 186.135 140.093C185.321 139.977 184.622 139.86 183.924 139.86C183.575 139.86 183.226 139.86 182.76 139.744H182.644C180.2 139.511 178.221 139.278 176.359 138.696C175.544 138.347 175.311 137.882 175.079 137.416C175.079 137.3 174.962 137.3 174.962 137.183L173.449 136.718C174.148 131.364 173.915 125.777 172.635 120.307C171.354 114.837 169.143 109.716 166.117 105.06L167.281 104.013V103.78C167.281 103.198 167.397 102.616 167.863 102.034C169.259 100.754 171.005 99.7066 173.1 98.4264C173.449 98.1936 173.798 98.0772 174.148 97.8445C174.846 97.4953 175.428 97.1461 176.126 96.6806C176.243 96.5642 176.475 96.4478 176.708 96.215C176.825 96.0986 176.941 96.0986 176.941 95.9823C178.57 94.5856 178.919 92.2579 177.756 90.7448C177.174 89.9301 176.126 89.4646 175.079 89.4646C174.148 89.4646 173.333 89.8137 172.518 90.3957C172.402 90.5121 172.402 90.5121 172.285 90.6285C172.053 90.7448 171.936 90.9776 171.703 91.094C171.122 91.6759 170.656 92.1415 170.19 92.7234C169.958 92.9562 169.725 93.3054 169.376 93.5381C167.746 95.2839 166.233 96.6806 164.72 97.7281C164.371 97.9608 164.022 98.0772 163.673 98.0772C163.44 98.0772 163.207 98.0772 162.974 97.9608H162.742L161.345 98.8919C159.832 97.2625 158.203 95.8659 156.573 94.4692C149.59 88.999 141.094 85.6238 132.248 84.8091L132.132 83.2961C132.016 83.1797 132.016 83.1797 131.899 83.0633C131.55 82.7141 131.084 82.365 130.968 81.5503C130.852 79.6881 131.084 77.5931 131.317 75.2654V75.149C131.317 74.7998 131.434 74.3343 131.55 73.9851C131.666 73.2868 131.783 72.5885 131.899 71.7738V71.0754V70.7263C131.899 68.6313 130.27 66.8855 128.291 66.8855C127.36 66.8855 126.429 67.351 125.731 68.0494C125.032 68.7477 124.683 69.6788 124.683 70.7263V70.959V71.6574C124.683 72.4721 124.8 73.1704 125.032 73.8687C125.149 74.2179 125.149 74.567 125.265 75.0326V75.149C125.498 77.4767 125.847 79.5717 125.614 81.4339C125.498 82.2486 125.032 82.5977 124.683 82.9469C124.567 83.0633 124.567 83.0633 124.45 83.1797L124.334 84.6927C122.239 84.9255 120.144 85.1583 118.049 85.6238C109.087 87.6024 101.173 92.1415 95.0044 98.6592L93.8406 97.8445H93.6078C93.375 97.8445 93.1422 97.9608 92.9095 97.9608C92.5603 97.9608 92.2111 97.8445 91.862 97.6117C90.3489 96.5642 88.8359 95.0512 87.2065 93.3054C86.9737 93.0726 86.741 92.7234 86.3918 92.4906C85.9262 91.9087 85.4607 91.4432 84.8788 90.8612C84.7624 90.7448 84.5296 90.6285 84.2968 90.3957C84.1804 90.2793 84.064 90.2793 84.064 90.1629C83.3657 89.581 82.4346 89.2318 81.5035 89.2318C80.456 89.2318 79.4086 89.6974 78.8266 90.5121C77.6628 92.0251 78.0119 94.3528 79.6413 95.7495C79.7577 95.7495 79.7577 95.8659 79.8741 95.8659C80.1069 95.9823 80.2233 96.215 80.456 96.3314C81.1544 96.797 81.7363 97.1461 82.4346 97.4953C82.7838 97.6117 83.1329 97.8445 83.4821 98.0772C85.5771 99.3575 87.3229 100.405 88.7195 101.685C89.3015 102.267 89.3015 102.849 89.3015 103.431V103.664L90.4653 104.711C90.2326 105.06 89.9998 105.293 89.8834 105.642C84.064 114.837 81.8527 125.661 83.3657 136.369L81.8527 136.834C81.8527 136.951 81.7363 136.951 81.7363 137.067C81.5035 137.532 81.1544 137.998 80.456 138.347C78.7102 138.929 76.6153 139.162 74.1711 139.395H74.0548C73.7056 139.395 73.2401 139.395 72.8909 139.511C72.1926 139.511 71.4942 139.627 70.6795 139.744C70.4468 139.744 70.214 139.86 69.9812 139.86C69.8648 139.86 69.7484 139.86 69.6321 139.977C67.5371 140.442 66.2568 142.421 66.606 144.283C66.9551 145.912 68.4682 146.96 70.3304 146.96C70.6795 146.96 70.9123 146.96 71.2615 146.843C71.3779 146.843 71.4942 146.843 71.4942 146.727C71.727 146.727 71.9598 146.611 72.1926 146.611C73.0073 146.378 73.5892 146.145 74.2875 145.796C74.6367 145.68 74.9859 145.447 75.335 145.33H75.4514C77.6628 144.516 79.6413 143.817 81.5035 143.585H81.7363C82.4346 143.585 82.9002 143.934 83.2493 144.166C83.3657 144.166 83.3657 144.283 83.4821 144.283L85.1115 144.05C87.9048 152.663 93.2586 160.344 100.358 165.931C101.988 167.211 103.617 168.259 105.363 169.306L104.665 170.819C104.665 170.936 104.781 170.936 104.781 171.052C105.014 171.517 105.246 172.099 105.014 172.914C104.315 174.66 103.268 176.406 101.988 178.384V178.501C101.755 178.85 101.522 179.083 101.289 179.432C100.824 180.014 100.475 180.596 100.009 181.294C99.8927 181.41 99.7763 181.643 99.6599 181.876C99.6599 181.992 99.5435 182.109 99.5435 182.109C98.6124 184.087 99.3107 186.299 101.057 187.113C101.522 187.346 101.988 187.462 102.453 187.462C103.85 187.462 105.246 186.531 105.945 185.251C105.945 185.135 106.061 185.018 106.061 185.018C106.178 184.786 106.294 184.553 106.41 184.436C106.76 183.622 106.876 183.04 107.109 182.341C107.225 181.992 107.341 181.643 107.458 181.294C108.273 178.966 108.854 177.104 109.902 175.475C110.368 174.776 110.949 174.66 111.415 174.427C111.531 174.427 111.531 174.427 111.648 174.311L112.462 172.798C117.584 174.776 123.17 175.824 128.757 175.824C132.132 175.824 135.624 175.475 138.882 174.66C140.977 174.194 142.956 173.612 144.934 172.914L145.633 174.194C145.749 174.194 145.749 174.194 145.866 174.311C146.448 174.427 146.913 174.66 147.379 175.358C148.31 176.988 149.008 178.966 149.823 181.178V181.294C149.939 181.643 150.056 181.992 150.172 182.341C150.405 183.04 150.521 183.738 150.87 184.436C150.987 184.669 151.103 184.786 151.219 185.018C151.219 185.135 151.336 185.251 151.336 185.251C152.034 186.648 153.431 187.462 154.827 187.462C155.293 187.462 155.758 187.346 156.224 187.113C157.039 186.648 157.737 185.949 157.97 185.018C158.203 184.087 158.203 183.04 157.737 182.109C157.737 181.992 157.621 181.992 157.621 181.876C157.504 181.643 157.388 181.41 157.272 181.294C156.922 180.596 156.457 180.014 155.991 179.432C155.758 179.083 155.526 178.85 155.293 178.501V178.384C154.013 176.406 152.849 174.66 152.267 172.914C152.034 172.099 152.267 171.634 152.383 171.052C152.383 170.936 152.5 170.936 152.5 170.819L151.918 169.422C158.086 165.814 163.324 160.693 167.281 154.409C169.376 151.15 171.005 147.542 172.169 143.934L173.566 144.166C173.682 144.166 173.682 144.05 173.798 144.05C174.264 143.817 174.613 143.468 175.311 143.468H175.544C177.406 143.701 179.385 144.399 181.596 145.214H181.713C182.062 145.33 182.411 145.563 182.76 145.68C183.459 146.029 184.041 146.261 184.855 146.494C185.088 146.494 185.321 146.611 185.554 146.611C185.67 146.611 185.786 146.611 185.903 146.727C186.252 146.843 186.485 146.843 186.834 146.843C188.58 146.843 190.093 145.68 190.558 144.166C190.558 142.77 189.278 140.908 187.183 140.326ZM133.296 134.623L128.175 137.067L123.054 134.623L121.773 129.153L125.265 124.73H130.968L134.46 129.153L133.296 134.623ZM163.673 122.519C164.604 126.476 164.837 130.433 164.487 134.274L146.68 129.153C145.051 128.687 144.12 127.058 144.469 125.428C144.585 124.963 144.818 124.497 145.167 124.148L159.25 111.462C161.229 114.721 162.742 118.445 163.673 122.519ZM153.664 104.479L138.417 115.303C137.137 116.117 135.391 115.884 134.343 114.604C133.994 114.255 133.878 113.789 133.761 113.324L132.714 94.3528C140.745 95.2839 148.077 98.8919 153.664 104.479ZM119.911 94.9348C121.192 94.702 122.355 94.4692 123.636 94.2365L122.588 112.858C122.472 114.488 121.192 115.884 119.446 115.884C118.98 115.884 118.398 115.768 118.049 115.535L102.57 104.479C107.341 99.7066 113.277 96.4478 119.911 94.9348ZM96.983 111.462L110.833 123.799C112.113 124.846 112.23 126.825 111.182 128.105C110.833 128.571 110.368 128.92 109.786 129.036L91.7456 134.274C91.0473 126.359 92.7931 118.329 96.983 111.462ZM93.8406 143.003L112.346 139.86C113.859 139.744 115.256 140.791 115.605 142.304C115.721 143.003 115.721 143.585 115.489 144.166L108.389 161.275C101.871 157.085 96.6338 150.684 93.8406 143.003ZM136.322 166.164C133.645 166.746 130.968 167.095 128.175 167.095C124.101 167.095 120.144 166.396 116.42 165.233L125.614 148.589C126.545 147.542 128.058 147.076 129.339 147.775C129.921 148.124 130.386 148.589 130.735 149.055L139.697 165.233C138.65 165.582 137.486 165.814 136.322 166.164ZM159.017 149.986C156.108 154.641 152.267 158.366 147.844 161.275L140.512 143.701C140.163 142.304 140.745 140.791 142.141 140.093C142.607 139.86 143.189 139.744 143.771 139.744L162.393 142.886C161.694 145.447 160.53 147.774 159.017 149.986Z" fill="white"/>
</svg>
