<svg width="256" height="256" viewBox="0 0 256 256" fill="none" xmlns="http://www.w3.org/2000/svg">
<g clip-path="url(#clip0_30_678)">
<path d="M196 0H60C26.8629 0 0 26.8629 0 60V196C0 229.137 26.8629 256 60 256H196C229.137 256 256 229.137 256 196V60C256 26.8629 229.137 0 196 0Z" fill="#326CE5"/>
<path d="M128.066 40C125.116 40.2074 122.882 42.7339 123.036 45.6829V47.1267C123.173 48.7624 123.419 50.3828 123.742 51.9878C124.213 55.0614 124.382 58.1735 124.249 61.2802C123.956 62.3015 123.373 63.2231 122.575 63.9296L122.46 66.0953C119.349 66.3563 116.262 66.8324 113.221 67.5236C100.427 70.4111 88.7766 77.0463 79.7838 86.6073L77.9407 85.3018C76.927 85.6091 75.8365 85.4939 74.9073 84.9946C72.4146 83.1497 70.1075 81.0664 68.0187 78.7742C66.9695 77.5205 65.8489 76.3282 64.6627 75.2032L63.5262 74.2971C62.5124 73.483 61.2683 73.0145 59.9705 72.9531C59.196 72.912 58.4227 73.0548 57.7141 73.3698C57.0053 73.6848 56.3812 74.163 55.8926 74.7655C54.1571 77.1999 54.7253 80.5712 57.1521 82.3145L58.2119 83.1593C59.5761 84.0669 60.9914 84.8951 62.451 85.6398C65.1696 87.1527 67.7346 88.9267 70.1153 91.0155C70.7242 91.8839 71.078 92.9054 71.1366 93.9644L72.8108 95.5003C63.7719 109.062 60.0626 125.489 62.3819 141.624L60.2316 142.238C59.671 143.129 58.9261 143.89 58.0353 144.45C55.0352 145.251 51.9642 145.758 48.8658 145.962C47.2215 145.997 45.5804 146.124 43.9509 146.347L42.5916 146.654H42.438C41.4947 146.785 40.6062 147.175 39.8715 147.781C39.1369 148.387 38.5847 149.184 38.2767 150.086C37.9686 150.987 37.9167 151.956 38.1266 152.885C38.3366 153.814 38.8003 154.666 39.466 155.348C40.1379 156.024 40.9851 156.502 41.9127 156.726C42.8403 156.95 43.8119 156.911 44.7189 156.614H44.8187L46.201 156.461C47.76 156 49.2959 155.431 50.7934 154.787C53.6732 153.635 56.6606 152.751 59.7171 152.176C60.7769 152.237 61.7905 152.598 62.6507 153.212L64.9546 152.829C69.9462 168.319 80.4366 181.442 94.4442 189.713L93.5072 191.672C93.9373 192.57 94.0986 193.569 93.968 194.559C92.7009 197.493 91.1496 200.304 89.3372 202.945C88.343 204.256 87.4251 205.623 86.5879 207.038L85.9351 208.421C85.4615 209.242 85.2242 210.179 85.2493 211.127C85.2744 212.075 85.5611 212.997 86.0775 213.793C86.5939 214.588 87.3201 215.226 88.1759 215.634C89.0317 216.043 89.9837 216.207 90.9269 216.109C91.8722 216.001 92.7696 215.635 93.5193 215.05C94.269 214.464 94.8417 213.682 95.1737 212.79L95.8111 211.485C96.3947 209.949 96.8862 208.382 97.2856 206.801C98.6448 203.445 99.3821 199.843 101.241 197.615C101.848 197.045 102.613 196.67 103.437 196.541L104.589 194.444C119.773 200.28 136.575 200.322 151.788 194.559L152.809 196.517C153.853 196.671 154.79 197.247 155.42 198.091C156.864 200.841 158.031 203.721 158.922 206.693C159.328 208.284 159.826 209.851 160.412 211.385L161.049 212.69C161.385 213.579 161.959 214.357 162.709 214.939C163.458 215.521 164.355 215.884 165.299 215.988C166.242 216.092 167.196 215.933 168.055 215.529C168.914 215.125 169.644 214.49 170.165 213.697C170.681 212.898 170.965 211.973 170.987 211.023C171.008 210.072 170.766 209.134 170.288 208.314L169.62 206.931C168.783 205.52 167.865 204.158 166.87 202.853C165.104 200.304 163.583 197.585 162.262 194.736C162.139 194.215 162.122 193.674 162.212 193.147C162.302 192.619 162.496 192.115 162.785 191.664C162.457 190.994 162.172 190.305 161.932 189.598C175.909 181.266 186.353 168.095 191.292 152.583L193.472 152.966C194.255 152.253 195.285 151.876 196.337 151.907C199.385 152.49 202.373 153.442 205.261 154.518C206.758 155.209 208.294 155.792 209.852 156.285C210.221 156.384 210.759 156.468 211.174 156.568H211.274C212.18 156.862 213.15 156.897 214.075 156.671C215 156.445 215.845 155.966 216.514 155.289C217.184 154.611 217.653 153.761 217.868 152.833C218.082 151.905 218.035 150.936 217.732 150.033C217.421 149.131 216.867 148.333 216.129 147.728C215.391 147.123 214.5 146.736 213.554 146.608L212.065 146.255C210.435 146.033 208.794 145.904 207.15 145.871C204.047 145.671 200.976 145.164 197.981 144.358C197.059 143.843 196.29 143.075 195.768 142.146L193.695 141.532C195.906 125.405 192.118 109.027 183.051 95.508L184.864 93.8339C184.787 92.7818 185.132 91.7374 185.816 90.931C188.173 88.9036 190.731 87.1142 193.418 85.586C194.878 84.841 196.293 84.0128 197.657 83.1054L198.779 82.1993C199.604 81.687 200.268 80.9513 200.693 80.0775C201.118 79.2037 201.286 78.2274 201.18 77.2617C201.073 76.296 200.695 75.3803 200.089 74.6205C199.484 73.8607 198.675 73.288 197.757 72.9685C196.841 72.6493 195.852 72.596 194.906 72.8148C193.961 73.0336 193.096 73.5155 192.412 74.2049L191.276 75.111C190.09 76.2363 188.97 77.4286 187.92 78.682C185.893 81.0012 183.65 83.1132 181.215 85.0024C180.233 85.4023 179.159 85.5193 178.113 85.3402L176.17 86.7225C164.958 74.9729 149.852 67.6772 133.664 66.2181C133.664 65.4501 133.564 64.2982 133.549 63.9372C132.681 63.3383 132.074 62.4244 131.875 61.3876C131.767 58.2863 131.964 55.1819 132.458 52.1184C132.788 50.5057 133.018 48.893 133.164 47.2572V45.7213C133.318 42.7724 131.091 40.2458 128.134 40.0384L128.066 40ZM121.66 79.6728L120.125 106.497H120.01C119.932 108.156 118.958 109.569 117.46 110.368C115.963 111.167 114.189 110.929 112.852 109.953L90.8501 94.3637C97.8531 87.4854 106.639 82.7003 116.215 80.5482C118.013 80.1642 119.825 79.8724 121.645 79.6728H121.66ZM134.47 79.6728C146.028 81.1088 156.787 86.3002 165.112 94.4482L143.317 109.938C141.973 111.013 140.13 111.228 138.571 110.491C137.012 109.754 136.014 108.187 135.99 106.467L134.47 79.6728ZM82.8633 104.454L102.984 122.409V122.525C104.236 123.615 104.781 125.313 104.412 126.933C104.044 128.553 102.8 129.835 101.21 130.274V130.35L75.3911 137.776C74.1135 126.144 76.7452 114.417 82.871 104.447L82.8633 104.454ZM173.122 104.454C179.234 114.399 181.938 126.065 180.817 137.684L154.96 130.235V130.135C153.347 129.698 152.117 128.415 151.756 126.794C151.396 125.174 151.934 123.492 153.186 122.387L173.152 104.517L173.122 104.454ZM123.941 123.807H132.174L137.204 130.196L135.376 138.184L127.981 141.739L120.57 138.184L118.826 130.196L123.941 123.807ZM150.313 145.602C150.658 145.564 151.081 145.564 151.35 145.602L177.975 150.094C174.135 161.153 166.555 170.599 156.664 176.919L146.374 152.007C146.09 151.338 145.972 150.612 146.029 149.888C146.085 149.165 146.314 148.465 146.698 147.849C147.081 147.232 147.607 146.717 148.23 146.346C148.854 145.975 149.558 145.759 150.282 145.717L150.313 145.602ZM105.595 145.717C107.1 145.74 108.49 146.516 109.312 147.775C110.133 149.035 110.264 150.616 109.672 151.999V152.099L99.4436 176.812C89.6521 170.538 82.2182 161.207 78.2632 150.264L104.658 145.786C104.95 145.755 105.249 145.755 105.549 145.786L105.595 145.717ZM127.897 156.468C128.735 156.442 129.565 156.649 130.293 157.067C131.021 157.484 131.62 158.096 132.02 158.833H132.12L145.13 182.31L139.93 183.846C130.362 186.035 120.371 185.52 111.07 182.357L124.126 158.88C124.917 157.498 126.376 156.653 127.966 156.614L127.897 156.468Z" fill="white" stroke="white" stroke-width="0.11"/>
</g>
<defs>
<clipPath id="clip0_30_678">
<rect width="256" height="256" fill="white"/>
</clipPath>
</defs>
</svg>
