<svg width="256" height="256" viewBox="0 0 256 256" fill="none" xmlns="http://www.w3.org/2000/svg">
<path d="M0.000976562 56C0.000976562 25.0721 25.073 0 56.001 0H200.001C230.929 0 256.001 25.0721 256.001 56V200C256.001 230.928 230.929 256 200.001 256H56.001C25.073 256 0.000976562 230.928 0.000976562 200V56Z" fill="#F8FAFC"/>
<path fill-rule="evenodd" clip-rule="evenodd" d="M223.485 73.2453C223.555 73.5118 223.592 73.7868 223.592 74.063V116.993C223.592 117.544 223.448 118.085 223.177 118.561C222.904 119.039 222.512 119.434 222.041 119.708L186.508 140.452V181.57C186.508 182.689 185.922 183.722 184.964 184.286L110.791 227.583C110.622 227.681 110.437 227.743 110.251 227.81C110.181 227.834 110.117 227.877 110.043 227.897C109.524 228.034 108.98 228.034 108.461 227.897C108.377 227.872 108.299 227.825 108.218 227.795C108.048 227.732 107.871 227.677 107.708 227.583L33.5512 184.286C33.08 184.011 32.6886 183.616 32.4163 183.139C32.1439 182.663 32.0003 182.121 32 181.57V52.7822C32 52.5004 32.0385 52.2265 32.108 51.9605C32.1312 51.8705 32.1852 51.7883 32.2161 51.6983C32.2739 51.534 32.328 51.3658 32.4129 51.2131C32.4707 51.1114 32.5556 51.0293 32.6251 50.9354C32.7138 50.8101 32.7949 50.681 32.899 50.5715C32.9877 50.4815 33.1035 50.415 33.2039 50.3368C33.3157 50.2428 33.416 50.1411 33.5434 50.0667H33.5472L70.6279 28.4181C71.0974 28.1442 71.6296 28 72.1713 28C72.7129 28 73.2452 28.1442 73.7147 28.4181L110.796 50.0667H110.803C110.926 50.145 111.031 50.2428 111.143 50.3329C111.243 50.4111 111.354 50.4815 111.443 50.5676C111.551 50.681 111.629 50.8101 111.721 50.9354C111.787 51.0293 111.876 51.1114 111.929 51.2131C112.018 51.3696 112.068 51.534 112.131 51.6983C112.161 51.7883 112.215 51.8705 112.238 51.9644C112.309 52.231 112.345 52.506 112.346 52.7822V133.222L143.245 115.181V74.0591C143.245 73.7852 143.284 73.5073 143.354 73.2453C143.381 73.1513 143.43 73.0692 143.462 72.9792C143.524 72.8149 143.577 72.6467 143.663 72.494C143.721 72.3923 143.805 72.3101 143.871 72.2163C143.964 72.091 144.04 71.9619 144.149 71.8523C144.238 71.7623 144.349 71.6958 144.45 71.6175C144.565 71.5237 144.666 71.4219 144.79 71.3476H144.794L181.878 49.699C182.347 49.4246 182.879 49.2802 183.421 49.2802C183.963 49.2802 184.496 49.4246 184.964 49.699L222.046 71.3476C222.177 71.4259 222.277 71.5237 222.393 71.6137C222.489 71.6919 222.601 71.7623 222.689 71.8484C222.798 71.9619 222.875 72.091 222.968 72.2163C223.037 72.3101 223.122 72.3923 223.176 72.494C223.264 72.6467 223.315 72.8149 223.376 72.9792C223.411 73.0692 223.462 73.1513 223.485 73.2453ZM217.411 115.181V79.482L204.434 87.0569L186.508 97.523V133.222L217.414 115.181H217.411ZM180.33 179.759V144.037L162.697 154.249L112.342 183.39V219.448L180.33 179.759ZM38.1814 58.2012V179.759L106.161 219.445V183.394L70.6471 163.013L70.6355 163.005L70.6201 162.997C70.5005 162.927 70.4002 162.825 70.2883 162.739C70.1918 162.661 70.08 162.599 69.9951 162.512L69.9874 162.501C69.8871 162.403 69.8176 162.282 69.7327 162.171C69.6555 162.066 69.5629 161.977 69.5012 161.867L69.4968 161.855C69.4274 161.738 69.3849 161.597 69.3347 161.464C69.2845 161.347 69.2189 161.237 69.1882 161.111V161.107C69.1496 160.959 69.1418 160.803 69.1264 160.649C69.111 160.532 69.0801 160.415 69.0801 160.298V160.29V76.2424L51.1577 65.7721L38.1814 58.2051V58.2012ZM72.1751 34.7488L41.2798 52.7822L72.1674 70.8154L103.058 52.7782L72.1674 34.7488H72.1751ZM88.2421 147.292L106.165 136.829V58.2012L93.1887 65.7761L75.262 76.2423V154.871L88.2421 147.292ZM183.421 56.0297L152.529 74.063L183.421 92.0963L214.308 74.0591L183.421 56.0297ZM180.33 97.523L162.403 87.0569L149.428 79.482V115.181L167.35 125.643L180.33 133.222V97.523ZM109.248 177.971L154.558 151.74L177.209 138.633L146.34 120.611L110.799 141.36L78.4067 160.27L109.248 177.971Z" fill="#FF2D20"/>
</svg>
