<svg width="256" height="256" viewBox="0 0 256 256" fill="none" xmlns="http://www.w3.org/2000/svg">
<path fill-rule="evenodd" clip-rule="evenodd" d="M214.328 78.7207C214.391 78.9607 214.425 79.2082 214.425 79.4567V118.094C214.425 118.589 214.296 119.076 214.051 119.505C213.806 119.935 213.453 120.291 213.029 120.537L181.049 139.207V176.213C181.049 177.22 180.522 178.15 179.66 178.657L112.904 217.625C112.752 217.713 112.585 217.769 112.418 217.829C112.355 217.851 112.297 217.889 112.231 217.907C111.764 218.031 111.274 218.031 110.807 217.907C110.731 217.885 110.661 217.843 110.588 217.815C110.435 217.759 110.276 217.71 110.13 217.625L43.3883 178.657C42.9642 178.41 42.612 178.054 42.3668 177.626C42.1217 177.197 41.9925 176.709 41.9922 176.213V60.304C41.9922 60.0504 42.0269 59.8039 42.0894 59.5644C42.1103 59.4834 42.1589 59.4095 42.1867 59.3285C42.2387 59.1806 42.2874 59.0292 42.3638 58.8918C42.4158 58.8003 42.4922 58.7263 42.5548 58.6419C42.6346 58.5291 42.7076 58.4129 42.8013 58.3143C42.8811 58.2333 42.9853 58.1735 43.0757 58.1031C43.1763 58.0186 43.2666 57.927 43.3813 57.8601H43.3847L76.7573 38.3763C77.1798 38.1298 77.6588 38 78.1463 38C78.6338 38 79.1129 38.1298 79.5354 38.3763L112.908 57.8601H112.915C113.026 57.9305 113.12 58.0186 113.221 58.0996C113.311 58.1699 113.411 58.2333 113.491 58.3108C113.588 58.4129 113.658 58.5291 113.741 58.6419C113.8 58.7263 113.88 58.8003 113.929 58.8918C114.008 59.0327 114.054 59.1806 114.11 59.3285C114.137 59.4095 114.186 59.4834 114.206 59.568C114.271 59.8079 114.303 60.0554 114.304 60.304V132.7L142.113 116.463V79.4532C142.113 79.2067 142.148 78.9566 142.211 78.7207C142.235 78.6362 142.28 78.5623 142.308 78.4812C142.363 78.3334 142.412 78.182 142.489 78.0446C142.541 77.953 142.617 77.8791 142.676 77.7946C142.76 77.6819 142.829 77.5657 142.926 77.4671C143.006 77.3861 143.107 77.3263 143.197 77.2558C143.301 77.1713 143.391 77.0798 143.503 77.0128H143.507L176.883 57.5291C177.304 57.2822 177.784 57.1522 178.271 57.1522C178.759 57.1522 179.238 57.2822 179.66 57.5291L213.033 77.0128C213.151 77.0833 213.241 77.1713 213.346 77.2523C213.432 77.3227 213.533 77.3861 213.613 77.4636C213.71 77.5657 213.779 77.6819 213.863 77.7946C213.925 77.8791 214.002 77.953 214.05 78.0446C214.13 78.182 214.175 78.3334 214.231 78.4812C214.262 78.5623 214.308 78.6362 214.328 78.7207ZM208.862 116.463V84.3338L197.183 91.1512L181.049 100.571V132.7L208.865 116.463H208.862ZM175.489 174.583V142.433L159.619 151.624L114.3 177.851V210.304L175.489 174.583ZM47.5555 65.181V174.583L108.737 210.301V177.854L76.7746 159.511L76.7642 159.504L76.7503 159.498C76.6426 159.434 76.5524 159.343 76.4516 159.265C76.3648 159.195 76.2642 159.139 76.1878 159.061L76.1809 159.051C76.0906 158.962 76.028 158.854 75.9516 158.754C75.8821 158.66 75.7988 158.579 75.7432 158.48L75.7393 158.47C75.6768 158.364 75.6386 158.237 75.5934 158.118C75.5483 158.012 75.4892 157.914 75.4615 157.8V157.796C75.4268 157.663 75.4198 157.522 75.4059 157.384C75.392 157.279 75.3643 157.173 75.3643 157.068V157.061V81.4182L59.2341 71.9949L47.5555 65.1846V65.181ZM78.1498 44.0739L50.344 60.304L78.1429 76.5339L105.945 60.3004L78.1429 44.0739H78.1498ZM92.6101 145.362L108.741 135.947V65.181L97.062 71.9985L80.928 81.4181V152.184L92.6101 145.362ZM178.271 63.2267L150.468 79.4567L178.271 95.6867L206.07 79.4532L178.271 63.2267ZM175.489 100.571L159.355 91.1512L147.677 84.3338V116.463L163.807 125.879L175.489 132.7V100.571ZM111.516 172.974L152.295 149.366L172.68 137.57L144.898 121.35L112.911 140.024L83.7582 157.043L111.516 172.974Z" fill="#FF2D20"/>
</svg>
