<svg width="256" height="256" viewBox="0 0 256 256" fill="none" xmlns="http://www.w3.org/2000/svg">
<path d="M78.1596 183.061H76.3663C75.649 190.455 74.6446 199.443 62.0192 199.443H56.2086C52.8371 199.443 52.6936 198.936 52.6936 196.544V158.053C52.6936 155.588 52.6936 154.573 59.4368 154.573H61.804V152.398C59.2215 152.616 52.7654 152.616 49.8242 152.616C47.0266 152.616 41.4312 152.616 38.9922 152.398V154.573H40.6421C46.1657 154.573 46.3092 155.37 46.3092 157.98V196.036C46.3092 198.646 46.1657 199.443 40.6421 199.443H38.9922V201.691H76.2228L78.1596 183.061Z" fill="#9F393D"/>
<path d="M76.9408 152.326C76.6539 151.456 76.5104 151.167 75.5778 151.167C74.6453 151.167 74.4301 151.456 74.1432 152.326L62.5937 181.901C62.0916 183.134 61.2307 185.38 56.7832 185.38V187.193H67.9021V185.38C65.6784 185.38 64.3154 184.366 64.3154 182.916C64.3154 182.553 64.3871 182.409 64.5306 181.901L66.9696 175.667H81.1732L84.0426 183.061C84.1861 183.351 84.3296 183.713 84.3296 183.931C84.3296 185.38 81.6036 185.38 80.2407 185.38V187.193H94.3725V185.38H93.3682C89.9966 185.38 89.638 184.873 89.1358 183.424L76.9408 152.326ZM74.0714 157.472L80.4558 173.855H67.687L74.0714 157.472Z" fill="#9F393D"/>
<path d="M134.4 152.834H90.713L89.4219 169.071H91.1435C92.1478 157.4 93.2238 155.008 104.056 155.008C105.347 155.008 107.212 155.008 107.929 155.153C109.436 155.443 109.436 156.241 109.436 157.908V195.964C109.436 198.428 109.436 199.443 101.904 199.443H99.0343V201.691C101.975 201.473 109.221 201.473 112.521 201.473C115.82 201.473 123.209 201.473 126.15 201.691V199.443H123.281C115.749 199.443 115.749 198.428 115.749 195.964V157.908C115.749 156.458 115.749 155.443 117.04 155.153C117.829 155.008 119.766 155.008 121.129 155.008C131.889 155.008 132.965 157.4 133.97 169.071H135.763L134.4 152.834Z" fill="#9F393D"/>
<path d="M172.85 199.37H171.057C169.263 210.461 167.613 215.753 155.346 215.753H145.878C142.506 215.753 142.362 215.245 142.362 212.853V193.571H148.746C155.706 193.571 156.494 195.892 156.494 202.053H158.288V182.916H156.494C156.494 189.077 155.706 191.325 148.746 191.325H142.362V174C142.362 171.608 142.506 171.101 145.878 171.101H155.06C166.035 171.101 167.901 175.087 169.048 185.163H170.841L168.833 168.926H128.661V171.101H130.311C135.835 171.101 135.978 171.897 135.978 174.508V212.346C135.978 214.956 135.835 215.753 130.311 215.753H128.661V218H169.837L172.85 199.37Z" fill="#9F393D"/>
<path d="M194.442 173.783L204.27 159.285C205.777 156.965 208.216 154.646 214.6 154.573V152.398H197.527V154.573C200.397 154.646 201.975 156.24 201.975 157.908C201.975 158.633 201.832 158.778 201.33 159.575L193.151 171.753L183.969 157.835C183.826 157.618 183.467 157.038 183.467 156.747C183.467 155.878 185.045 154.646 188.058 154.573V152.398C185.619 152.616 180.382 152.616 177.657 152.616C175.433 152.616 170.985 152.544 168.331 152.398V154.573H169.694C173.64 154.573 175.003 155.08 176.366 157.11L189.493 177.189L177.8 194.659C176.796 196.109 174.643 199.443 167.47 199.443V201.691H184.543V199.443C181.243 199.371 180.024 197.413 180.024 196.109C180.024 195.457 180.239 195.167 180.741 194.369L190.856 179.219L202.19 196.471C202.333 196.761 202.549 197.051 202.549 197.269C202.549 198.138 200.97 199.371 197.886 199.443V201.691C200.397 201.473 205.633 201.473 208.288 201.473C211.3 201.473 214.6 201.545 217.613 201.691V199.443H216.25C212.52 199.443 211.013 199.081 209.507 196.834L194.442 173.783Z" fill="#9F393D"/>
<path d="M77.4403 38.8977C78.6924 41.1537 79.995 43.0959 81.3536 44.7676L81.3701 44.7841C81.3747 44.79 81.3818 44.7947 81.3865 44.8005C80.7606 44.7092 80.116 44.6454 79.4463 44.6525C78.1236 44.6664 76.7031 44.8937 75.1713 45.376C77.8021 47.579 80.0421 49.1895 82.0111 50.4403C81.963 50.4244 81.9111 50.4065 81.8631 50.3909L82.0111 50.4732C78.9606 49.5184 75.6696 49.4016 71.8171 51.2295C74.5834 52.9606 76.9049 54.2236 78.9533 55.1757C78.8934 55.1668 78.8323 55.1512 78.7725 55.1428L78.9205 55.225C75.7282 54.6753 72.4153 54.9843 68.8082 57.3625C71.16 58.4105 73.2032 59.2016 75.0234 59.8124H75.0399L75.155 59.8783C72.111 59.9965 69.0942 60.9443 66.1446 63.7421C68.7213 64.3813 70.9274 64.8081 72.8695 65.0904C72.815 65.1015 72.7596 65.1117 72.7052 65.1233C72.6293 65.122 72.5504 65.1246 72.4749 65.1233L72.5572 65.1562C70.288 65.6715 68.0754 66.8092 65.9148 68.9873C67.6655 69.3656 69.2408 69.6594 70.683 69.8752C68.9074 70.7334 67.221 72.0634 65.6846 74.1009C67.702 74.2576 69.4892 74.3245 71.0941 74.3311C69.1525 75.2295 67.3229 76.64 65.7009 78.9186C68.5824 79.0626 70.9911 79.0564 73.0669 78.935C73.0282 78.9509 72.9906 78.9681 72.9519 78.9843C72.8257 78.9956 72.6991 79.0036 72.5736 79.0171L72.7545 79.083C70.5962 80.0305 68.5986 81.5661 66.8846 84.1636C70.4657 84.2159 73.3023 84.0468 75.6811 83.7526C75.6086 83.7722 75.5396 83.7976 75.4673 83.8183C75.3755 83.8236 75.2785 83.828 75.1879 83.8348L75.303 83.8676C72.4975 84.7034 69.9069 86.3133 67.7561 89.5732C70.6489 89.6153 73.0642 89.5058 75.1386 89.3101C75.0936 89.3346 75.0518 89.3673 75.007 89.3922C72.5286 90.7749 70.398 92.8516 68.989 96.3642C71.5332 95.8822 73.6657 95.3738 75.5167 94.8349C75.486 94.8593 75.4485 94.876 75.4181 94.9007L75.5331 94.8842C73.6278 96.3062 72.0259 98.2985 70.9458 101.248C72.6973 100.86 74.2623 100.453 75.6647 100.047C74.4058 101.569 73.4334 103.469 72.886 105.967C74.788 105.266 76.4378 104.592 77.9009 103.928C77.8832 103.948 77.8692 103.972 77.8515 103.993C77.8216 104.017 77.782 104.035 77.7529 104.059L77.8023 104.043C76.4601 105.651 75.436 107.674 74.9249 110.357C77.6027 109.286 79.781 108.258 81.6168 107.282C81.5649 107.332 81.5012 107.379 81.4524 107.43L81.5017 107.413C79.878 109.194 78.6658 111.482 78.1804 114.631C81.3413 113.236 83.7768 111.939 85.7767 110.718C85.7556 110.74 85.7318 110.763 85.711 110.784L85.8425 110.718C83.5719 112.663 81.8299 115.243 81.2222 119.186C85.4824 117.305 88.4621 115.602 90.7753 114.023C89.7819 116.032 89.257 118.373 89.5092 121.307C93.6266 118.148 96.2336 115.601 98.1744 113.349C98.1711 113.382 98.177 113.415 98.1744 113.448C98.0567 114.875 98.1456 116.423 98.569 118.133C101.01 113.94 103.451 112.202 105.935 110.768C102.829 112.781 103.386 114.412 103.386 116.276C107.08 112.386 112.219 108.254 113.794 105.67C111.688 108.834 110.847 111.838 110.292 114.483C99.5139 120.184 92.9361 121.676 85.5794 123.954C88.4333 125.001 91.4965 126.018 90.2326 127.473L86.8619 130.844C89.0171 130.174 91.2184 129.207 93.1265 130.515C92.9392 132.283 90.7095 133.183 88.802 134.214C92.1602 133.004 92.8847 133.289 93.7677 133.573C94.2088 135.691 92.6768 136.827 91.6795 138.226C100.138 131.795 111.168 126.717 118.941 124.595C129.874 120.914 143.98 117.075 147.814 107.742L151.646 92.3515C156.14 87.4871 160.273 82.4512 162.234 76.3204C174.749 73.8991 184.874 74.767 195.431 75.0379C194.469 74.8775 163.204 69.5791 163.204 69.5791C154.064 57.0745 140.43 65.579 135.943 77.9319C134.809 81.0497 128.345 81.0429 126.472 77.9155C119.066 61.9716 96.5787 45.1107 77.4403 38.898V38.8979V38.8977Z" fill="black"/>
<path d="M77.2221 38.0002C78.4832 40.272 79.7942 42.2103 81.1631 43.8901C80.5373 43.7988 79.8925 43.7451 79.2228 43.7521C77.9001 43.766 76.486 43.9856 74.9542 44.4679C77.6273 46.7064 79.8864 48.34 81.8791 49.599C78.8007 48.6157 75.4855 48.4757 71.5913 50.3234C74.4358 52.1034 76.8234 53.3898 78.9131 54.3507C75.6553 53.7502 72.2772 54.0238 68.5903 56.4548C71.0245 57.5395 73.1296 58.354 74.9977 58.9729C71.9313 59.0801 68.8963 60.0272 65.9258 62.8449C68.5025 63.4842 70.7102 63.908 72.6521 64.1902C70.2753 64.6705 67.9438 65.8106 65.6842 68.0881C67.4349 68.4664 69.0108 68.7519 70.4531 68.9678C68.6776 69.826 66.9964 71.156 65.46 73.1933C67.4774 73.35 69.2622 73.4196 70.867 73.4262C68.9253 74.3246 67.1077 75.7442 65.4859 78.0226C68.3673 78.1666 70.7742 78.1526 72.8505 78.0312C70.5687 78.964 68.4657 80.5402 66.6673 83.2658C70.2484 83.3181 73.0845 83.1461 75.4631 82.8519C72.5108 83.6534 69.778 85.2652 67.5295 88.6729C70.4222 88.715 72.8368 88.6098 74.9113 88.4141C72.3752 89.7961 70.197 91.8925 68.7627 95.4685C71.3736 94.974 73.5618 94.4446 75.4461 93.8904C73.4834 95.3187 71.8337 97.3248 70.7289 100.341C72.4805 99.9537 74.035 99.5483 75.4374 99.1422C74.1785 100.664 73.208 102.569 72.6606 105.066C74.5627 104.366 76.2079 103.687 77.671 103.023C76.281 104.649 75.2193 106.709 74.6958 109.456C77.3737 108.386 79.5519 107.362 81.3878 106.386C79.7048 108.185 78.4526 110.5 77.9556 113.725C81.216 112.285 83.7174 110.952 85.7513 109.698C83.4154 111.656 81.6193 114.258 80.9996 118.278C85.2598 116.398 88.233 114.692 90.5461 113.113C89.5527 115.122 89.0262 117.474 89.2784 120.408C93.3958 117.249 96.004 114.692 97.9449 112.44C97.8139 113.895 97.9173 115.477 98.3502 117.226C101.306 112.147 104.244 110.665 107.283 108.97C102.441 111.408 103.159 113.243 103.159 115.372C106.853 111.483 112.004 107.357 113.58 104.774C111.473 107.937 110.616 110.933 110.061 113.578C99.2831 119.279 92.7205 120.768 85.3632 123.046C88.2169 124.094 91.2753 125.118 90.0113 126.573L86.6395 129.937C88.7947 129.267 90.9922 128.311 92.9003 129.618C92.713 131.386 90.4785 132.278 88.5711 133.309C91.9292 132.098 92.6554 132.378 93.5383 132.662C93.9794 134.78 92.4487 135.919 91.4514 137.318C99.9099 130.887 110.947 125.807 118.719 123.684C129.652 120.003 143.749 116.176 147.583 106.843L151.429 91.4495C155.923 86.5851 160.058 81.5406 162.019 75.4097C174.534 72.9884 184.654 73.8626 195.211 74.1334C194.249 73.9731 162.977 68.6746 162.977 68.6746C153.837 56.17 140.214 64.6697 135.725 77.0222C134.593 80.14 128.13 80.141 126.257 77.0137C118.851 61.0697 96.3612 44.2127 77.2227 38.0001V38L77.2221 38.0002Z" fill="#008080"/>
<path d="M151.06 70.6315L150.978 70.763C150.654 71.3672 150.105 71.7797 149.333 72.0291C148.562 72.2785 147.574 72.3585 146.423 72.3086L145.7 72.2757L146.226 72.7855C146.493 73.0424 146.568 73.2475 146.571 73.4267C146.575 73.606 146.498 73.7996 146.325 74.0186C145.978 74.457 145.29 74.9328 144.648 75.4163L144.434 75.5642L144.582 75.778C145.117 76.5999 145.362 77.2326 145.42 77.7182C145.478 78.2038 145.365 78.5522 145.14 78.8526C144.692 79.4538 143.708 79.8612 142.822 80.3654L142.658 80.4476L142.691 80.6449C142.767 81.1071 142.642 81.4849 142.312 81.8616C141.982 82.2382 141.428 82.5974 140.684 82.914L140.487 82.9962L140.52 83.21C140.669 84.1998 140.966 85.0612 141.589 85.6105C142.159 86.1131 143.021 86.2456 144.121 86.0215C144.313 87.0767 144.587 88.0363 145.223 88.6688C145.866 89.3098 146.886 89.4994 148.248 89.1456C148.555 89.8846 149.003 90.4112 149.514 90.7569C150.076 91.1365 150.81 91.2896 151.413 91.4771L151.77 91.0925C151.171 90.9065 150.287 90.619 149.81 90.2966C149.333 89.9743 148.946 89.532 148.676 88.7675L148.593 88.5044L148.33 88.5866C146.929 89.0172 146.153 88.8233 145.617 88.2906C145.083 87.758 144.782 86.7951 144.598 85.6763L144.549 85.3803L144.252 85.4625C143.098 85.7638 142.416 85.6097 141.951 85.1994C141.516 84.8162 141.259 84.1367 141.112 83.2921C141.781 82.9828 142.355 82.6444 142.723 82.2234C143.084 81.812 143.239 81.3042 143.217 80.7765C144.033 80.3275 145.018 79.9417 145.585 79.1815C145.881 78.7841 146.035 78.2618 145.963 77.6524C145.897 77.098 145.626 76.4575 145.157 75.6958C145.732 75.2721 146.356 74.8475 146.752 74.3475C146.972 74.0695 147.137 73.7618 147.13 73.4103C147.126 73.2165 146.94 73.0398 146.834 72.8512C147.835 72.8644 148.746 72.7985 149.498 72.5552C150.29 72.2991 150.913 71.8322 151.323 71.1906C152.507 71.1965 153.733 71.4569 154.973 71.618C156.247 71.7837 157.543 71.8281 158.771 71.2892L158.541 70.7796C157.455 71.2563 156.295 71.2365 155.055 71.0755C153.816 70.9145 152.524 70.6221 151.224 70.6316H151.06V70.6315Z" fill="white"/>
<path d="M155.661 70.4267C155.661 71.717 154.615 72.763 153.324 72.763C152.034 72.763 150.988 71.717 150.988 70.4267C150.988 69.1364 152.034 68.0903 153.324 68.0903C154.615 68.0903 155.661 69.1364 155.661 70.4267Z" fill="white" stroke="white" stroke-width="0.661"/>
<path d="M162.638 68.2351C160.54 70.9638 160.013 70.259 158.736 70.7165L158.522 70.7986L158.556 71.0288C159.047 73.7695 160.671 74.6403 161.939 75.6365L162.009 75.4148L162.347 75.3506C161.077 74.3519 159.686 73.5061 159.181 71.1768C160.11 70.9568 160.998 71.2381 162.978 68.6612L162.638 68.2352V68.2351Z" fill="white"/>
<path d="M81.876 49.5921C85.8394 52.0497 92.3625 54.5839 96.5519 57.2314C98.8565 58.6988 100.927 60.161 102.537 61.4241C104.147 62.6874 105.338 63.9924 105.776 64.4167C106.214 64.841 106.511 64.6404 106.22 64.0878C105.928 63.5352 104.494 62.2576 102.866 60.9802C101.237 59.7029 99.1661 58.2471 96.8478 56.7709C92.2111 53.8187 86.7693 51.179 81.8762 49.5918L81.876 49.5921Z" fill="white"/>
<path d="M81.1625 43.8887C82.824 44.2724 85.2762 45.6894 88.0031 47.2055C90.73 48.7216 93.7019 50.5873 96.4213 52.4014C99.1409 54.2154 101.238 55.803 102.914 57.082C104.506 58.4442 105.292 59.3262 105.596 59.3236C105.638 59.3319 105.679 59.3326 105.744 59.3236C105.809 59.3145 105.919 59.2644 105.974 59.1591C106.03 59.054 106.008 58.9657 105.991 58.9126C105.973 58.8594 105.964 58.8312 105.941 58.7974C105.851 58.6623 105.714 58.5359 105.514 58.3535C105.114 57.9887 104.451 57.4523 103.607 56.8079C101.917 55.5189 99.4624 53.761 96.7338 51.9409C94.0051 50.1208 91.0122 48.239 88.2661 46.7123C87.2899 46.3505 82.5026 43.8188 81.1622 43.8886H81.1621L81.1625 43.8887Z" fill="white"/>
<path d="M78.8916 54.3519C83.9786 56.4282 91.2153 58.8673 96.0457 61.9034C98.641 63.5515 100.902 65.1932 102.59 66.5402C103.434 67.2136 104.139 67.819 104.661 68.2995C105.185 68.7801 105.479 69.2163 105.648 69.3354C106.001 69.5846 106.273 69.419 106.108 69.0229C105.985 68.7239 105.575 68.3808 105.039 67.8884C104.504 67.396 103.787 66.7926 102.935 66.1126C101.231 64.7528 98.9552 63.0861 96.3416 61.4265C91.1145 58.1072 84.8655 55.189 78.8919 54.3516L78.8916 54.3519Z" fill="white"/>
<path d="M74.9777 58.9667C78.9422 58.9692 87.1317 62.5981 90.5837 64.4168C96.1807 67.4017 101.27 71.2388 104.083 73.9203C104.395 74.2177 104.851 73.9553 104.494 73.5422C101.881 70.5146 96.4853 66.9468 90.8469 63.9396C85.2085 60.9325 79.3701 58.9619 74.9775 58.9663L74.9777 58.9667Z" fill="white"/>
<path d="M72.6865 64.1883C78.6467 65.0605 85.7912 67.4662 90.9965 70.073C93.9013 71.5479 96.4916 73.1277 98.478 74.5289C100.464 75.9302 101.931 77.5078 102.293 77.916C102.655 78.3242 103.086 78.3413 102.753 77.6201C102.42 76.8989 100.803 75.4883 98.7904 74.0685C96.7781 72.6488 94.171 71.0661 91.2435 69.5797C85.3884 66.6068 78.7205 64.268 72.6867 64.1882L72.6865 64.1883Z" fill="white"/>
<path d="M74.6537 68.6246C73.1731 68.4955 71.8403 68.7991 70.4824 68.9688C75.7783 68.4725 83.1838 70.9045 88.1203 73.1792C93.9355 75.9054 98.764 79.6482 101.077 82.0253C101.439 82.3974 101.695 81.9233 101.505 81.68C99.3509 78.9302 94.2219 75.422 88.3505 72.6696C83.9472 70.6053 79.0959 69.0124 74.6537 68.6248V68.6246Z" fill="white"/>
<path d="M70.8908 73.3972C76.1023 73.7835 83.0798 75.0314 87.9675 77.2751C92.8832 79.5743 96.6135 82.5554 98.4904 84.2469C98.7792 84.5072 99.2899 84.3228 98.885 83.8523C97.1721 81.8621 93.1893 79.1092 88.2137 76.782C83.2383 74.455 77.1944 72.9645 70.8906 73.3975L70.8908 73.3972Z" fill="white"/>
<path d="M75.5716 77.7347C74.4721 77.6975 73.9563 77.9032 72.8955 78.0178C76.4327 78.1736 82.0538 79.1144 85.1578 80.1681C89.186 81.5656 92.498 83.6708 94.3821 85.3147C94.7458 85.6321 95.017 85.2063 94.7768 84.9365C93.0123 82.9564 89.4262 81.0602 85.3385 79.642C82.273 78.5784 78.8703 77.8462 75.5716 77.7347Z" fill="white"/>
<path d="M75.4191 82.8639C82.9804 83.3742 87.5527 84.7064 91.0574 87.846C91.32 88.0812 91.7346 87.7574 91.4521 87.4514C87.8555 83.5547 80.7741 82.4689 75.4189 82.864L75.4191 82.8639Z" fill="white"/>
<path d="M81.2425 87.4057C78.9503 87.2213 77.0323 87.7222 74.9434 88.4178C81.0567 87.4434 83.5986 87.9107 88.2302 90.0857C88.7582 90.3337 88.7272 89.7496 88.4933 89.6089C86.0328 88.13 83.5343 87.5899 81.2422 87.4057H81.2425Z" fill="white"/>
<path d="M81.0237 91.664C78.8564 91.8561 77.0162 92.6003 75.499 93.8343C81.5529 91.5008 83.2261 91.9651 87.8563 93.2778C88.4653 93.4504 88.276 92.8638 88.0372 92.768C85.2647 91.6564 83.1911 91.4718 81.0238 91.6639L81.0237 91.664Z" fill="white"/>
<path d="M93.0193 95.4135C89.7892 95.0643 86.1504 95.456 82.9566 96.0384C79.7629 96.6208 77.0162 97.8039 75.4658 99.065C80.7758 96.8225 81.7435 96.8272 83.0556 96.581C86.202 96.0072 89.3208 95.7835 92.9869 95.9562C93.3194 95.9719 93.3023 95.4441 93.0198 95.4135H93.0193Z" fill="white"/>
<path d="M94.8933 98.0278C91.3929 97.8956 87.7775 98.7618 84.6497 99.6557C81.5222 100.55 79.2008 101.769 77.6699 103.014C80.7674 101.524 83.6498 100.516 84.7976 100.182C87.8814 99.3004 90.9924 98.5374 94.9263 98.5868C95.2319 98.5908 95.4294 98.048 94.8934 98.0278H94.8933Z" fill="white"/>
<path d="M97.753 100.18C94.4562 100.667 90.9997 101.64 87.9861 102.663C84.9728 103.685 82.828 104.9 81.4287 106.353C85.0129 104.295 86.9841 103.574 88.1504 103.172C91.1267 102.163 93.9058 101.46 97.8513 100.722C98.3249 100.634 97.9446 100.152 97.7527 100.18H97.753Z" fill="white"/>
<path d="M99.4285 102.926C92.8171 103.979 88.5327 106.831 85.8096 109.66C90.0299 106.48 92.9656 104.772 99.5434 103.468C99.9597 103.386 99.834 102.861 99.4283 102.926L99.4285 102.926Z" fill="white"/>
<path d="M102.652 105.342C96.0021 106.366 92.1673 110.409 90.5703 113.077C94.7776 108.874 98.0519 106.587 102.767 105.885C103.244 105.814 103.122 105.269 102.652 105.342H102.652Z" fill="white"/>
<path d="M104.658 107.448C103.621 107.577 102.209 108.312 100.876 109.158C99.5425 110.004 98.5365 111.033 97.9365 112.36C99.5427 110.702 100.186 110.253 101.172 109.618C102.452 108.806 103.742 108.295 104.789 107.991C105.28 107.848 104.909 107.417 104.658 107.448Z" fill="white"/>
<path d="M155.661 70.4267C155.661 71.717 154.615 72.763 153.324 72.763C152.034 72.763 150.988 71.717 150.988 70.4267C150.988 69.1364 152.034 68.0903 153.324 68.0903C154.615 68.0903 155.661 69.1364 155.661 70.4267Z" fill="white" stroke="white" stroke-width="0.661"/>
<path d="M155.661 70.4267C155.661 71.717 154.615 72.763 153.324 72.763C152.034 72.763 150.988 71.717 150.988 70.4267C150.988 69.1364 152.034 68.0903 153.324 68.0903C154.615 68.0903 155.661 69.1364 155.661 70.4267Z" fill="#37C871" stroke="white" stroke-width="0.661"/>
</svg>
