<svg width="256" height="256" viewBox="0 0 256 256" fill="none" xmlns="http://www.w3.org/2000/svg">
<path d="M0.000976562 56C0.000976562 25.0721 25.073 0 56.001 0H200.001C230.929 0 256.001 25.0721 256.001 56V200C256.001 230.928 230.929 256 200.001 256H56.001C25.073 256 0.000976562 230.928 0.000976562 200V56Z" fill="#0F172A"/>
<path d="M72.5194 189.179H70.5268C69.7298 197.395 68.6138 207.381 54.5856 207.381H48.1294C44.3833 207.381 44.2238 206.818 44.2238 204.16V161.392C44.2238 158.653 44.2238 157.526 51.7162 157.526H54.3465V155.109C51.4771 155.352 44.3035 155.352 41.0356 155.352C37.9271 155.352 31.71 155.352 29 155.109V157.526H30.8332C36.9706 157.526 37.13 158.411 37.13 161.311V203.596C37.13 206.496 36.9706 207.381 30.8332 207.381H29V209.878H70.3674L72.5194 189.179Z" fill="#9F393D"/>
<path d="M71.1649 155.029C70.8461 154.063 70.6867 153.74 69.6505 153.74C68.6143 153.74 68.3752 154.063 68.0564 155.029L55.2237 187.89C54.6658 189.26 53.7093 191.756 48.7676 191.756V193.77H61.122V191.756C58.6511 191.756 57.1367 190.628 57.1367 189.017C57.1367 188.615 57.2164 188.454 57.3758 187.89L60.0858 180.963H75.8676L79.0558 189.179C79.2152 189.501 79.3747 189.904 79.3747 190.145C79.3747 191.756 76.3458 191.756 74.8314 191.756V193.77H90.5335V191.756H89.4176C85.6714 191.756 85.2729 191.193 84.715 189.582L71.1649 155.029ZM67.9767 160.747L75.0705 178.95H60.8829L67.9767 160.747Z" fill="#9F393D"/>
<path d="M135.009 155.593H86.4678L85.0332 173.635H86.9461C88.062 160.666 89.2576 158.009 101.293 158.009C102.728 158.009 104.8 158.009 105.597 158.17C107.271 158.492 107.271 159.378 107.271 161.231V203.515C107.271 206.254 107.271 207.381 98.902 207.381H95.7137V209.878C98.9816 209.636 107.032 209.636 110.698 209.636C114.365 209.636 122.574 209.636 125.843 209.878V207.381H122.654C114.285 207.381 114.285 206.254 114.285 203.515V161.231C114.285 159.62 114.285 158.492 115.72 158.17C116.597 158.009 118.749 158.009 120.264 158.009C132.219 158.009 133.415 160.666 134.531 173.635H136.523L135.009 155.593Z" fill="#9F393D"/>
<path d="M177.731 207.3H175.739C173.745 219.624 171.912 225.504 158.283 225.504H147.762C144.015 225.504 143.856 224.939 143.856 222.282V200.857H150.949C158.682 200.857 159.558 203.435 159.558 210.281H161.551V189.018H159.558C159.558 195.864 158.682 198.361 150.949 198.361H143.856V179.111C143.856 176.453 144.015 175.89 147.762 175.89H157.964C170.159 175.89 172.232 180.319 173.507 191.515H175.499L173.267 173.473H128.632V175.89H130.465C136.603 175.89 136.762 176.775 136.762 179.675V221.718C136.762 224.617 136.603 225.504 130.465 225.504H128.632V228H174.384L177.731 207.3Z" fill="#9F393D"/>
<path d="M201.722 178.87L212.643 162.761C214.317 160.184 217.026 157.607 224.12 157.526V155.109H205.15V157.526C208.338 157.607 210.092 159.378 210.092 161.231C210.092 162.036 209.933 162.198 209.375 163.083L200.288 176.614L190.086 161.15C189.926 160.909 189.527 160.265 189.527 159.942C189.527 158.976 191.281 157.607 194.629 157.526V155.109C191.919 155.352 186.1 155.352 183.072 155.352C180.601 155.352 175.659 155.271 172.71 155.109V157.526H174.224C178.608 157.526 180.123 158.089 181.637 160.344L196.223 182.655L183.231 202.065C182.115 203.676 179.724 207.381 171.753 207.381V209.878H190.724V207.381C187.057 207.301 185.702 205.126 185.702 203.676C185.702 202.952 185.941 202.63 186.499 201.743L197.738 184.91L210.331 204.079C210.49 204.401 210.73 204.723 210.73 204.965C210.73 205.932 208.976 207.301 205.549 207.381V209.878C208.338 209.636 214.157 209.636 217.106 209.636C220.454 209.636 224.12 209.717 227.468 209.878V207.381H225.953C221.809 207.381 220.134 206.978 218.461 204.482L201.722 178.87Z" fill="#9F393D"/>
<path d="M71.7196 28.9977C73.1109 31.5044 74.5582 33.6624 76.0678 35.5198L76.0861 35.5381C76.0912 35.5447 76.099 35.5499 76.1043 35.5564C75.4089 35.4549 74.6926 35.384 73.9485 35.3918C72.4788 35.4073 70.9006 35.6599 69.1986 36.1958C72.1216 38.6435 74.6105 40.433 76.7983 41.8228C76.7449 41.8051 76.6872 41.7853 76.6339 41.7679L76.7983 41.8593C73.4088 40.7984 69.7522 40.6687 65.4716 42.6996C68.5453 44.6232 71.1248 46.0265 73.4007 47.0844C73.3342 47.0744 73.2663 47.0571 73.1998 47.0478L73.3643 47.1391C69.8173 46.5283 66.1363 46.8717 62.1284 49.5141C64.7415 50.6786 67.0118 51.5575 69.0342 52.2363H69.0525L69.1805 52.3094C65.7982 52.4408 62.4462 53.4939 59.1689 56.6026C62.0318 57.3128 64.4831 57.7871 66.641 58.1007C66.5804 58.113 66.5189 58.1243 66.4584 58.1372C66.3741 58.1358 66.2864 58.1387 66.2025 58.1372L66.2939 58.1738C63.7727 58.7464 61.3142 60.0104 58.9135 62.4306C60.8587 62.8509 62.609 63.1774 64.2116 63.4172C62.2387 64.3707 60.3648 65.8485 58.6577 68.1123C60.8993 68.2864 62.8851 68.3608 64.6683 68.3682C62.511 69.3664 60.478 70.9336 58.6759 73.4653C61.8776 73.6253 64.5538 73.6185 66.8603 73.4836C66.8173 73.5013 66.7755 73.5204 66.7325 73.5384C66.5923 73.5509 66.4516 73.5598 66.3122 73.5748L66.5132 73.648C64.1151 74.7008 61.8956 76.407 59.9911 79.2931C63.9701 79.3512 67.1218 79.1634 69.765 78.8365C69.6845 78.8583 69.6077 78.8865 69.5274 78.9095C69.4255 78.9153 69.3176 78.9203 69.2169 78.9278L69.3448 78.9642C66.2276 79.8929 63.3491 81.6817 60.9594 85.3038C64.1736 85.3506 66.8573 85.229 69.1622 85.0114C69.1122 85.0387 69.0658 85.075 69.016 85.1027C66.2622 86.639 63.8949 88.9464 62.3293 92.8493C65.1562 92.3138 67.5256 91.7489 69.5823 91.1502C69.5482 91.1773 69.5066 91.1958 69.4727 91.2232L69.6006 91.205C67.4835 92.7849 65.7036 94.9986 64.5035 98.2753C66.4497 97.845 68.1885 97.3929 69.7467 96.9415C68.3479 98.6328 67.2675 100.744 66.6593 103.519C68.7727 102.74 70.6057 101.991 72.2314 101.253C72.2117 101.276 72.1962 101.303 72.1766 101.326C72.1434 101.352 72.0993 101.373 72.067 101.399L72.1218 101.381C70.6305 103.168 69.4927 105.416 68.9247 108.396C71.9001 107.207 74.3204 106.064 76.3602 104.98C76.3026 105.036 76.2318 105.088 76.1776 105.145L76.2323 105.126C74.4282 107.105 73.0813 109.647 72.5419 113.146C76.054 111.595 78.7602 110.155 80.9823 108.798C80.9588 108.822 80.9325 108.847 80.9093 108.872L81.0554 108.798C78.5325 110.959 76.5969 113.825 75.9218 118.207C80.6553 116.117 83.9661 114.224 86.5363 112.47C85.4325 114.702 84.8493 117.304 85.1295 120.564C89.7044 117.054 92.601 114.224 94.7575 111.722C94.7539 111.758 94.7605 111.795 94.7575 111.831C94.6267 113.417 94.7256 115.137 95.196 117.037C97.9082 112.378 100.621 110.446 103.38 108.853C99.929 111.091 100.549 112.903 100.549 114.973C104.653 110.652 110.363 106.061 112.113 103.189C109.772 106.705 108.838 110.043 108.222 112.982C96.2458 119.316 88.9372 120.974 80.7631 123.505C83.9341 124.667 87.3377 125.798 85.9333 127.414L82.1881 131.16C84.5828 130.416 87.0286 129.342 89.1487 130.794C88.9406 132.759 86.4632 133.759 84.3438 134.904C88.0751 133.561 88.88 133.877 89.8612 134.193C90.3513 136.546 88.6491 137.808 87.541 139.363C96.9394 132.217 109.195 126.575 117.831 124.217C129.979 120.127 145.653 115.861 149.913 105.491L154.17 88.3908C159.164 82.9859 163.756 77.3905 165.935 70.5785C179.841 67.8881 191.09 68.8524 202.821 69.1535C201.751 68.9753 167.013 63.0881 167.013 63.0881C156.857 49.1941 141.708 58.6436 136.722 72.3691C135.463 75.8333 128.28 75.8257 126.199 72.3508C117.971 54.6353 92.9845 35.901 71.7196 28.998V28.9979V28.9977Z" fill="black"/>
<path d="M71.4773 28.0002C72.8785 30.5244 74.3352 32.6781 75.8561 34.5445C75.1608 34.4431 74.4443 34.3834 73.7002 34.3912C72.2305 34.4067 70.6594 34.6507 68.9573 35.1866C71.9274 37.6738 74.4376 39.4889 76.6517 40.8878C73.2312 39.7953 69.5477 39.6396 65.2208 41.6927C68.3814 43.6704 71.0342 45.0997 73.3561 46.1674C69.7364 45.5003 65.9829 45.8042 61.8863 48.5054C64.5911 49.7106 66.93 50.6155 69.0057 51.3033C65.5986 51.4223 62.2264 52.4746 58.9259 55.6055C61.7888 56.3158 64.2417 56.7867 66.3995 57.1003C63.7586 57.6339 61.168 58.9006 58.6574 61.4313C60.6026 61.8516 62.3536 62.1688 63.9561 62.4086C61.9833 63.3622 60.1154 64.84 58.4082 67.1037C60.6497 67.2778 62.6329 67.3551 64.416 67.3624C62.2586 68.3607 60.239 69.938 58.437 72.4696C61.6386 72.6296 64.3129 72.614 66.6199 72.4791C64.0846 73.5156 61.748 75.2669 59.7497 78.2954C63.7286 78.3535 66.8799 78.1624 69.5228 77.8354C66.2425 78.7261 63.206 80.5169 60.7077 84.3032C63.9219 84.3501 66.6047 84.2331 68.9097 84.0157C66.0918 85.5513 63.6716 87.8805 62.0779 91.8539C64.979 91.3045 67.4103 90.7163 69.5039 90.1005C67.3232 91.6875 65.4901 93.9165 64.2625 97.2677C66.2088 96.8374 67.936 96.387 69.4943 95.9358C68.0955 97.627 67.0172 99.7438 66.409 102.518C68.5223 101.74 70.3504 100.986 71.976 100.248C70.4316 102.055 69.252 104.343 68.6703 107.396C71.6457 106.206 74.0659 105.069 76.1058 103.985C74.2358 105.984 72.8445 108.555 72.2922 112.139C75.9149 110.539 78.6942 109.058 80.9541 107.664C78.3587 109.839 76.363 112.731 75.6745 117.198C80.4081 115.109 83.7116 113.213 86.2817 111.459C85.1779 113.691 84.5929 116.305 84.8732 119.564C89.448 116.054 92.3461 113.214 94.5026 110.711C94.3571 112.328 94.4719 114.085 94.953 116.029C98.2372 110.386 101.501 108.739 104.879 106.856C99.4988 109.565 100.296 111.604 100.296 113.969C104.401 109.647 110.124 105.064 111.875 102.193C109.534 105.708 108.582 109.037 107.965 111.976C95.9895 118.31 88.6977 119.964 80.5229 122.496C83.6937 123.66 87.0919 124.798 85.6875 126.415L81.941 130.152C84.3357 129.408 86.7774 128.345 88.8974 129.798C88.6894 131.762 86.2066 132.753 84.0872 133.898C87.8184 132.554 88.6253 132.865 89.6063 133.18C90.0965 135.534 88.3957 136.799 87.2876 138.354C96.686 131.208 108.949 125.563 117.585 123.205C129.733 119.114 145.396 114.862 149.656 104.492L153.929 87.3883C158.923 81.9834 163.517 76.3784 165.696 69.5664C179.602 66.8761 190.846 67.8473 202.576 68.1483C201.507 67.9701 166.76 62.0829 166.76 62.0829C156.605 48.1889 141.468 57.633 136.481 71.358C135.222 74.8222 128.041 74.8234 125.961 71.3486C117.732 53.633 92.7429 34.903 71.4779 28.0001V28L71.4773 28.0002Z" fill="#008080"/>
<path d="M153.519 64.2571L153.428 64.4033C153.068 65.0746 152.459 65.5329 151.601 65.8101C150.745 66.0872 149.647 66.176 148.368 66.1206L147.564 66.084L148.149 66.6505C148.445 66.9359 148.528 67.1638 148.532 67.3629C148.537 67.5621 148.451 67.7772 148.258 68.0206C147.873 68.5076 147.109 69.0363 146.395 69.5736L146.157 69.7379L146.322 69.9755C146.916 70.8887 147.189 71.5916 147.253 72.1312C147.317 72.6708 147.192 73.0579 146.942 73.3917C146.444 74.0597 145.351 74.5123 144.366 75.0726L144.184 75.1639L144.221 75.3832C144.305 75.8967 144.167 76.3165 143.8 76.735C143.434 77.1535 142.817 77.5526 141.991 77.9043L141.772 77.9956L141.809 78.2332C141.974 79.333 142.304 80.2901 142.997 80.9004C143.629 81.4589 144.588 81.6061 145.81 81.3571C146.023 82.5296 146.328 83.5958 147.034 84.2986C147.749 85.0108 148.882 85.2215 150.396 84.8284C150.736 85.6495 151.235 86.2346 151.803 86.6187C152.426 87.0405 153.242 87.2106 153.912 87.419L154.309 86.9916C153.644 86.7849 152.661 86.4654 152.131 86.1072C151.601 85.7491 151.171 85.2577 150.871 84.4083L150.779 84.1159L150.487 84.2073C148.93 84.6857 148.067 84.4703 147.472 83.8784C146.878 83.2866 146.544 82.2167 146.34 80.9736L146.285 80.6447L145.956 80.736C144.673 81.0708 143.915 80.8996 143.398 80.4437C142.916 80.0179 142.63 79.263 142.467 78.3244C143.21 77.9808 143.848 77.6049 144.257 77.137C144.658 76.6799 144.83 76.1157 144.805 75.5293C145.712 75.0304 146.806 74.6018 147.436 73.7572C147.766 73.3156 147.936 72.7352 147.857 72.0582C147.783 71.4421 147.482 70.7304 146.961 69.8841C147.6 69.4134 148.294 68.9416 148.734 68.386C148.978 68.0771 149.161 67.7352 149.153 67.3447C149.149 67.1293 148.942 66.9331 148.824 66.7235C149.936 66.7381 150.949 66.6649 151.784 66.3946C152.665 66.11 153.356 65.5912 153.812 64.8783C155.128 64.8849 156.49 65.1743 157.868 65.3533C159.283 65.5373 160.724 65.5867 162.088 64.9879L161.833 64.4216C160.625 64.9514 159.336 64.9294 157.959 64.7504C156.582 64.5715 155.147 64.2467 153.702 64.2572H153.519V64.2571Z" fill="white"/>
<path d="M158.632 64.0298C158.632 65.4635 157.47 66.6257 156.036 66.6257C154.602 66.6257 153.44 65.4635 153.44 64.0298C153.44 62.5962 154.602 61.4338 156.036 61.4338C157.47 61.4338 158.632 62.5961 158.632 64.0298Z" fill="white" stroke="white" stroke-width="0.661"/>
<path d="M166.385 61.5944C164.054 64.6262 163.468 63.8431 162.049 64.3514L161.812 64.4427L161.849 64.6985C162.394 67.7437 164.199 68.7113 165.608 69.8181L165.686 69.5718L166.061 69.5005C164.649 68.3908 163.104 67.451 162.543 64.8629C163.576 64.6185 164.562 64.9311 166.763 62.0677L166.385 61.5945V61.5944Z" fill="white"/>
<path d="M76.6484 40.8803C81.0523 43.6109 88.3001 46.4267 92.955 49.3683C95.5157 50.9988 97.8157 52.6234 99.605 54.0269C101.394 55.4305 102.717 56.8806 103.205 57.352C103.691 57.8234 104.021 57.6006 103.697 56.9865C103.373 56.3726 101.78 54.953 99.9705 53.5336C98.1612 52.1144 95.8597 50.4969 93.2838 48.8567C88.132 45.5764 82.0854 42.6434 76.6487 40.8799L76.6484 40.8803Z" fill="white"/>
<path d="M75.8564 34.5431C77.7025 34.9694 80.4272 36.5439 83.457 38.2284C86.4869 39.913 89.7891 41.986 92.8106 44.0015C95.8324 46.0171 98.1622 47.7812 100.025 49.2023C101.793 50.7158 102.667 51.6959 103.005 51.6929C103.052 51.7022 103.097 51.7029 103.169 51.6929C103.242 51.6829 103.363 51.6271 103.425 51.5102C103.487 51.3934 103.463 51.2952 103.443 51.2362C103.424 51.1771 103.414 51.1458 103.389 51.1082C103.288 50.9582 103.136 50.8177 102.913 50.615C102.469 50.2097 101.733 49.6138 100.794 48.8977C98.9172 47.4655 96.1896 45.5123 93.1578 43.4899C90.126 41.4676 86.8005 39.3767 83.7492 37.6803C82.6646 37.2784 77.3454 34.4654 75.856 34.543H75.856L75.8564 34.5431Z" fill="white"/>
<path d="M73.333 46.1689C78.9852 48.476 87.0261 51.186 92.3931 54.5595C95.2768 56.3907 97.7885 58.2149 99.6642 59.7115C100.602 60.4597 101.385 61.1324 101.966 61.6663C102.547 62.2003 102.874 62.685 103.062 62.8173C103.455 63.0942 103.757 62.9102 103.574 62.4701C103.436 62.1378 102.982 61.7567 102.386 61.2095C101.791 60.6624 100.995 59.9919 100.048 59.2364C98.1542 57.7255 95.626 55.8736 92.7219 54.0296C86.914 50.3415 79.9707 47.099 73.3333 46.1686L73.333 46.1689Z" fill="white"/>
<path d="M68.9836 51.2962C73.3886 51.299 82.4881 55.3311 86.3236 57.3519C92.5424 60.6684 98.1975 64.9319 101.323 67.9113C101.669 68.2417 102.176 67.9502 101.78 67.4912C98.8767 64.1273 92.8809 60.1629 86.616 56.8217C80.3511 53.4804 73.8641 51.2909 68.9834 51.2958L68.9836 51.2962Z" fill="white"/>
<path d="M66.438 57.0982C73.0604 58.0673 80.9987 60.7404 86.7825 63.6368C90.01 65.2756 92.8881 67.0309 95.0952 68.5878C97.3021 70.1447 98.9316 71.8977 99.3337 72.3512C99.7358 72.8048 100.215 72.8238 99.8452 72.0224C99.4757 71.2211 97.6783 69.6537 95.4423 68.0763C93.2064 66.4987 90.3096 64.7402 87.0569 63.0886C80.5512 59.7854 73.1424 57.1868 66.4382 57.0981L66.438 57.0982Z" fill="white"/>
<path d="M68.624 62.0273C66.9789 61.8838 65.498 62.2211 63.9893 62.4097C69.8736 61.8583 78.1019 64.5605 83.587 67.0879C90.0482 70.117 95.4132 74.2757 97.9834 76.9169C98.3857 77.3303 98.6701 76.8035 98.4584 76.5332C96.0653 73.4779 90.3664 69.5799 83.8427 66.5217C78.9502 64.228 73.5598 62.4581 68.624 62.0274V62.0273Z" fill="white"/>
<path d="M64.4431 67.3303C70.2336 67.7595 77.9864 69.1461 83.4172 71.639C88.8791 74.1937 93.0239 77.5061 95.1093 79.3855C95.4302 79.6747 95.9977 79.4699 95.5478 78.947C93.6446 76.7357 89.2192 73.677 83.6907 71.0912C78.1625 68.5056 71.4471 66.8495 64.4429 67.3306L64.4431 67.3303Z" fill="white"/>
<path d="M69.6434 72.1497C68.4217 72.1084 67.8486 72.337 66.6699 72.4643C70.6001 72.6375 76.8458 73.6827 80.2947 74.8536C84.7704 76.4063 88.4505 78.7454 90.5439 80.572C90.9481 80.9246 91.2494 80.4515 90.9824 80.1518C89.0219 77.9517 85.0373 75.8447 80.4955 74.2689C77.0894 73.0872 73.3086 72.2737 69.6434 72.1497Z" fill="white"/>
<path d="M69.4748 77.8488C77.8763 78.4158 82.9565 79.896 86.8507 83.3845C87.1425 83.6458 87.6032 83.286 87.2892 82.946C83.293 78.6163 75.4248 77.4099 69.4746 77.8489L69.4748 77.8488Z" fill="white"/>
<path d="M75.9444 82.8953C73.3975 82.6904 71.2664 83.247 68.9453 84.0199C75.7379 82.9373 78.5622 83.4564 83.7085 85.8732C84.2952 86.1487 84.2607 85.4996 84.0008 85.3434C81.2669 83.7001 78.4908 83.1 75.944 82.8953H75.9444Z" fill="white"/>
<path d="M75.7025 87.6267C73.2944 87.8401 71.2497 88.6671 69.564 90.0381C76.2905 87.4454 78.1496 87.9613 83.2943 89.4198C83.971 89.6116 83.7607 88.9598 83.4952 88.8534C80.4148 87.6183 78.1108 87.4131 75.7026 87.6266L75.7025 87.6267Z" fill="white"/>
<path d="M89.0302 91.7928C85.4413 91.4048 81.3981 91.84 77.8494 92.4871C74.3009 93.1342 71.2491 94.4488 69.5264 95.85C75.4264 93.3583 76.5016 93.3636 77.9595 93.09C81.4554 92.4524 84.9208 92.2039 88.9942 92.3957C89.3637 92.4132 89.3447 91.8268 89.0308 91.7928H89.0302Z" fill="white"/>
<path d="M91.1132 94.6974C87.2238 94.5505 83.2067 95.513 79.7314 96.5061C76.2564 97.4993 73.677 98.8545 71.9761 100.238C75.4177 98.5824 78.6204 97.4618 79.8957 97.0907C83.3222 96.1114 86.7789 95.2636 91.1498 95.3185C91.4894 95.3229 91.7089 94.7199 91.1133 94.6974H91.1132Z" fill="white"/>
<path d="M94.2895 97.0886C90.6264 97.6294 86.7858 98.7113 83.4374 99.8472C80.0892 100.983 77.7061 102.333 76.1514 103.947C80.1338 101.661 82.324 100.86 83.6199 100.414C86.9269 99.2916 90.0148 98.5108 94.3987 97.6915C94.9249 97.5931 94.5024 97.0571 94.2891 97.0886H94.2895Z" fill="white"/>
<path d="M96.1522 100.14C88.8062 101.31 84.0457 104.479 81.02 107.623C85.7092 104.09 88.9712 102.191 96.2799 100.743C96.7424 100.651 96.6027 100.068 96.152 100.14L96.1522 100.14Z" fill="white"/>
<path d="M99.7319 102.825C92.3434 103.962 88.0825 108.454 86.3081 111.419C90.9828 106.749 94.621 104.207 99.8595 103.428C100.39 103.349 100.254 102.744 99.7317 102.825H99.7319Z" fill="white"/>
<path d="M101.962 105.164C100.809 105.308 99.2411 106.125 97.7596 107.065C96.278 108.005 95.1603 109.148 94.4937 110.622C96.2782 108.78 96.9926 108.281 98.0884 107.576C99.5108 106.673 100.944 106.105 102.108 105.767C102.653 105.609 102.241 105.13 101.962 105.164Z" fill="white"/>
<path d="M158.632 64.0298C158.632 65.4635 157.47 66.6257 156.036 66.6257C154.602 66.6257 153.44 65.4635 153.44 64.0298C153.44 62.5962 154.602 61.4338 156.036 61.4338C157.47 61.4338 158.632 62.5961 158.632 64.0298Z" fill="white" stroke="white" stroke-width="0.661"/>
<path d="M158.632 64.0298C158.632 65.4635 157.47 66.6257 156.036 66.6257C154.602 66.6257 153.44 65.4635 153.44 64.0298C153.44 62.5962 154.602 61.4338 156.036 61.4338C157.47 61.4338 158.632 62.5961 158.632 64.0298Z" fill="#37C871" stroke="white" stroke-width="0.661"/>
</svg>
