<svg width="256" height="256" viewBox="0 0 256 256" fill="none" xmlns="http://www.w3.org/2000/svg">
<path d="M0.000976562 56C0.000976562 25.0721 25.073 0 56.001 0H200.001C230.929 0 256.001 25.0721 256.001 56V200C256.001 230.928 230.929 256 200.001 256H56.001C25.073 256 0.000976562 230.928 0.000976562 200V56Z" fill="#22272E"/>
<path d="M88.3935 195.37L111.212 208.039H145.72L178 183.803L192.47 145.795L159.077 105.585L149.615 83.0006L103.421 84.653L103.977 97.3222L95.0723 113.847L81.1583 140.838L78.3755 163.422L88.3935 195.37Z" fill="#ECEFF1"/>
<path d="M182.452 116.05C173.547 103.381 166.312 95.6697 162.416 79.6956C158.521 63.7215 163.53 68.1282 160.19 54.3574C158.521 47.1966 155.737 42.2391 152.955 38.3832C149.616 34.5274 145.72 32.3241 143.493 31.7732C138.485 29.0191 126.797 24.6124 112.326 32.3241C97.2988 40.0358 98.9684 56.5607 101.751 90.1614C101.751 92.3647 101.195 95.1189 100.082 97.3222C97.8553 102.28 93.9594 106.686 90.62 110.543C86.7241 116.05 82.8282 121.559 80.0454 127.618C73.3667 140.287 67.2446 156.261 68.9142 162.32C71.697 161.77 106.761 214.65 106.761 215.751C108.987 215.2 118.448 215.2 126.797 215.2C138.485 214.65 145.163 214.099 154.625 216.302C154.625 214.65 154.068 212.997 154.068 211.344C154.068 208.039 154.625 205.285 155.181 201.429C155.737 198.675 156.295 195.922 156.851 192.616C151.285 197.574 141.267 203.082 131.806 204.734C123.457 206.386 109.543 203.633 102.864 195.37C103.421 195.37 104.534 195.37 105.091 194.819C106.761 194.269 108.43 193.718 108.987 192.616C110.656 189.862 109.543 187.108 108.43 185.456C107.317 183.803 98.9685 177.743 95.0726 174.439C91.1767 171.134 88.9504 169.481 86.7242 167.278C86.7242 167.278 83.3848 163.973 82.2716 162.871C81.1585 161.77 80.602 160.668 80.0454 160.117C78.9323 157.363 78.3757 154.058 78.9323 149.652C79.4889 143.592 81.7151 138.634 84.4979 133.126C85.611 130.923 88.3938 126.516 88.3938 126.516C88.3938 126.516 78.9323 149.652 83.9414 156.812C83.9414 156.812 84.4979 149.652 86.7242 142.491C88.3938 137.533 91.1767 130.372 94.5159 126.516C97.8553 122.661 106.203 108.339 106.761 99.5255C106.761 95.6697 107.317 91.8139 107.317 89.0598C105.091 86.8564 144.05 81.3481 146.276 87.4073C146.832 89.6106 154.625 109.44 159.077 119.906C161.303 124.864 164.086 129.271 165.756 134.778C167.426 140.838 168.538 149.1 168.538 157.363C168.538 159.015 168.538 161.77 167.982 164.524C169.095 164.524 190.801 141.389 165.2 122.11C165.2 122.11 180.783 129.271 181.34 143.592C181.896 155.159 176.887 164.524 175.774 166.176C176.33 166.176 187.461 171.134 188.018 171.134C190.245 171.134 194.697 169.481 194.697 169.481C195.254 167.829 196.923 163.422 196.923 161.77C200.819 149.1 191.357 128.72 182.452 116.05Z" fill="#263238"/>
<path d="M111.769 79.6957C115.765 79.6957 119.004 74.7634 119.004 68.6791C119.004 62.5948 115.765 57.6625 111.769 57.6625C107.774 57.6625 104.534 62.5948 104.534 68.6791C104.534 74.7634 107.774 79.6957 111.769 79.6957Z" fill="#ECEFF1"/>
<path d="M136.814 80.7973C142.04 80.7973 146.276 75.1252 146.276 68.1283C146.276 61.1313 142.04 55.4591 136.814 55.4591C131.589 55.4591 127.353 61.1313 127.353 68.1283C127.353 75.1252 131.589 80.7973 136.814 80.7973Z" fill="#ECEFF1"/>
<path d="M115.812 69.4328C115.349 65.8111 113.243 63.0916 111.108 63.3585C108.974 63.6256 107.618 66.7781 108.081 70.3999C108.544 74.0216 110.649 76.7412 112.784 76.4741C114.919 76.2071 116.274 73.0545 115.812 69.4328Z" fill="#212121"/>
<path d="M136.259 77.4922C139.332 77.4922 141.824 74.2862 141.824 70.3314C141.824 66.3766 139.332 63.1705 136.259 63.1705C133.184 63.1705 130.692 66.3766 130.692 70.3314C130.692 74.2862 133.184 77.4922 136.259 77.4922Z" fill="#212121"/>
<path d="M210.281 191.514C208.055 190.413 204.158 188.76 200.818 183.803C199.15 181.048 199.706 173.337 196.923 170.032C195.253 167.829 193.027 168.93 192.471 168.93C187.461 170.032 175.773 177.743 167.982 168.93C166.868 167.829 165.199 166.176 162.416 166.176C159.633 166.176 158.521 167.277 157.407 169.481C156.294 171.685 156.294 173.337 156.294 178.846C156.294 183.252 156.294 188.209 155.737 192.065C154.624 201.429 152.955 206.938 152.955 212.446C152.955 218.505 154.624 222.361 156.851 224.013C158.521 225.666 161.303 226.767 167.426 226.767C173.547 226.767 177.443 224.565 181.34 220.708C184.122 217.955 186.348 216.852 194.14 211.344C200.262 207.489 209.724 202.531 211.393 200.879C212.507 199.777 214.176 199.226 214.176 195.921C214.176 193.167 211.95 192.065 210.281 191.514Z" fill="#FFC107"/>
<path d="M98.4118 193.167C92.8462 184.353 92.2896 182.701 88.3937 177.192C85.0543 171.685 77.8191 161.219 73.3666 161.219C70.0273 161.219 68.3575 162.871 66.1313 165.074C63.9051 167.277 61.6789 172.235 57.7829 174.99C54.4436 177.743 44.9821 177.192 42.7558 180.497C40.5295 183.803 44.9821 188.761 44.9821 197.023C44.9821 200.328 42.1992 202.531 41.6427 204.734C41.0861 207.489 40.5295 209.141 41.6427 211.344C43.8689 214.649 46.6517 215.751 65.5748 219.607C75.5928 221.81 85.0543 227.318 91.1765 227.87C97.2987 228.42 107.873 227.87 107.873 212.996C108.43 204.184 103.421 201.98 98.4118 193.167Z" fill="#FFC107"/>
<path d="M108.986 93.4664C105.647 91.2631 102.864 89.0597 102.864 85.7547C102.864 82.4498 105.091 81.3481 108.43 78.5939C108.986 78.0431 115.108 72.5348 121.231 72.5348C127.353 72.5348 134.588 76.3906 137.371 77.4923C142.38 78.5939 147.389 79.6956 146.832 83.5514C146.276 89.0597 145.72 90.1614 140.153 92.9155C136.258 94.0172 129.022 100.076 124.013 100.076C121.787 100.076 118.448 100.076 116.222 99.5255C114.552 98.9747 111.769 96.2206 108.986 93.4664Z" fill="#FFC107"/>
<path d="M107.873 89.0599C108.987 90.1616 110.656 91.2632 112.326 91.814C113.439 92.3649 115.108 92.9158 115.108 92.9158C117.335 92.9158 119.005 92.9158 120.117 92.9158C122.901 92.9158 126.796 91.8141 130.692 89.6107C134.588 87.9583 135.145 86.8565 137.927 85.7549C140.711 84.1024 143.493 82.4499 142.38 81.8991C141.267 81.3483 140.153 81.8991 136.258 84.1024C132.918 86.3057 130.136 87.4074 126.796 89.0599C125.127 89.6107 122.901 90.7124 121.231 90.7124C119.561 90.7124 117.891 90.7124 116.222 90.7124C114.552 90.7124 113.439 90.1616 111.769 89.6107C110.656 89.0599 110.099 88.5091 109.543 88.5091C108.43 87.9583 106.203 85.7549 105.091 85.2041C105.091 85.2041 103.977 85.2041 104.534 85.7549C106.203 87.4074 106.761 87.9583 107.873 89.0599Z" fill="#634703"/>
<path d="M124.57 76.9415C125.127 78.0431 126.24 78.0431 126.796 78.594C127.353 79.1448 127.91 79.1448 127.91 79.1448C128.466 78.594 127.91 77.4924 127.353 77.4924C127.353 76.3907 124.57 76.3907 124.57 76.9415Z" fill="#634703"/>
<path d="M115.666 78.0432C115.666 78.5941 116.779 79.1448 116.779 78.5941C117.336 78.0432 117.892 77.4924 118.448 77.4924C119.562 76.9415 119.005 76.3907 117.336 76.3907C116.222 76.9415 116.222 77.4924 115.666 78.0432Z" fill="#634703"/>
<path d="M169.652 175.541C169.652 176.091 169.652 176.642 169.652 177.193C170.765 179.396 173.548 179.947 175.774 179.947C179.113 179.947 182.452 177.743 184.122 175.541C184.122 174.99 184.678 174.438 185.236 173.888C186.348 172.236 186.905 171.134 187.462 170.583C187.462 170.583 186.905 170.032 186.905 169.481C186.348 168.38 184.678 167.278 182.452 166.727C180.783 166.176 178 165.625 176.887 165.625C171.878 165.075 169.096 166.727 167.426 168.38C167.426 168.38 167.982 168.38 167.982 168.931C169.096 170.032 169.652 171.134 169.652 172.786C170.208 173.888 169.652 174.438 169.652 175.541Z" fill="#455A64"/>
</svg>
