<svg width="256" height="256" viewBox="0 0 256 256" fill="none" xmlns="http://www.w3.org/2000/svg">
<path d="M92.6471 188.633L113.184 200.035H144.241L173.293 178.222L186.316 144.015L156.262 107.826L147.747 87.5005L106.172 88.9877L106.672 100.39L98.658 115.262L86.1354 139.554L83.6309 159.879L92.6471 188.633Z" fill="#ECEFF1"/>
<path d="M177.3 117.245C169.285 105.843 162.773 98.9027 159.267 84.526C155.761 70.1493 160.269 74.1154 157.264 61.7216C155.761 55.2769 153.256 50.8152 150.752 47.3449C147.747 43.8747 144.241 41.8917 142.236 41.3959C137.729 38.9172 127.21 34.9512 114.186 41.8917C100.662 48.8322 102.164 63.7046 104.669 93.9453C104.669 95.9283 104.168 98.407 103.166 100.39C101.162 104.852 97.6561 108.817 94.6506 112.288C91.1443 117.245 87.638 122.203 85.1335 127.656C79.1226 139.058 73.6127 153.435 75.1154 158.888C77.62 158.393 109.177 205.985 109.177 206.976C111.181 206.48 119.696 206.48 127.21 206.48C137.729 205.985 143.739 205.489 152.255 207.471C152.255 205.985 151.754 204.497 151.754 203.01C151.754 200.035 152.255 197.557 152.756 194.086C153.256 191.607 153.758 189.129 154.258 186.155C149.249 190.616 140.233 195.574 131.718 197.061C124.204 198.548 111.681 196.07 105.67 188.633C106.172 188.633 107.173 188.633 107.674 188.137C109.177 187.642 110.68 187.146 111.181 186.155C112.683 183.676 111.681 181.197 110.68 179.71C109.678 178.222 102.164 172.769 98.658 169.795C95.1516 166.821 93.148 165.333 91.1444 163.351C91.1444 163.351 88.139 160.376 87.1371 159.384C86.1353 158.393 85.6344 157.401 85.1335 156.905C84.1317 154.427 83.6308 151.452 84.1317 147.487C84.6326 142.033 86.6362 137.571 89.1407 132.614C90.1425 130.63 92.6471 126.665 92.6471 126.665C92.6471 126.665 84.1317 147.487 88.6399 153.931C88.6399 153.931 89.1407 147.487 91.1444 141.042C92.6471 136.58 95.1516 130.135 98.157 126.665C101.162 123.194 108.676 110.305 109.177 102.373C109.177 98.9027 109.678 95.4325 109.678 92.9538C107.674 90.9708 142.738 86.0133 144.741 91.4665C145.242 93.4495 152.255 111.296 156.262 120.716C158.265 125.178 160.77 129.144 162.273 134.101C163.776 139.554 164.777 146.99 164.777 154.427C164.777 155.914 164.777 158.393 164.276 160.872C165.278 160.872 184.813 140.05 161.772 122.699C161.772 122.699 175.797 129.144 176.298 142.033C176.799 152.444 172.291 160.872 171.289 162.358C171.79 162.358 181.808 166.821 182.309 166.821C184.313 166.821 188.32 165.333 188.32 165.333C188.821 163.846 190.323 159.879 190.323 158.393C193.83 146.99 185.314 128.648 177.3 117.245Z" fill="#263238"/>
<path d="M113.685 84.526C117.281 84.526 120.196 80.0868 120.196 74.611C120.196 69.1351 117.281 64.696 113.685 64.696C110.089 64.696 107.173 69.1351 107.173 74.611C107.173 80.0868 110.089 84.526 113.685 84.526Z" fill="#ECEFF1"/>
<path d="M136.224 85.5175C140.927 85.5175 144.74 80.4126 144.74 74.1154C144.74 67.8181 140.927 62.7131 136.224 62.7131C131.522 62.7131 127.709 67.8181 127.709 74.1154C127.709 80.4126 131.522 85.5175 136.224 85.5175Z" fill="#ECEFF1"/>
<path d="M117.322 75.2898C116.906 72.0302 115.01 69.5826 113.089 69.8229C111.169 70.0633 109.948 72.9005 110.365 76.1601C110.781 79.4197 112.676 81.8673 114.597 81.6269C116.518 81.3866 117.738 78.5493 117.322 75.2898Z" fill="#212121"/>
<path d="M135.725 82.5431C138.491 82.5431 140.734 79.6577 140.734 76.0984C140.734 72.539 138.491 69.6536 135.725 69.6536C132.958 69.6536 130.715 72.539 130.715 76.0984C130.715 79.6577 132.958 82.5431 135.725 82.5431Z" fill="#212121"/>
<path d="M202.345 185.163C200.341 184.171 196.834 182.684 193.829 178.222C192.327 175.743 192.828 168.803 190.323 165.829C188.82 163.846 186.817 164.837 186.316 164.837C181.808 165.829 171.288 172.769 164.276 164.837C163.274 163.846 161.771 162.358 159.267 162.358C156.762 162.358 155.761 163.35 154.759 165.333C153.757 167.316 153.757 168.803 153.757 173.761C153.757 177.727 153.757 182.188 153.256 185.658C152.254 194.086 150.752 199.044 150.752 204.001C150.752 209.455 152.254 212.925 154.258 214.412C155.761 215.899 158.265 216.891 163.775 216.891C169.285 216.891 172.791 214.908 176.298 211.437C178.802 208.959 180.806 207.967 187.819 203.01C193.328 199.54 201.844 195.078 203.346 193.591C204.348 192.6 205.851 192.103 205.851 189.129C205.851 186.65 203.848 185.658 202.345 185.163Z" fill="#FFC107"/>
<path d="M101.663 186.65C96.6538 178.718 96.1529 177.231 92.6465 172.273C89.6411 167.316 83.1294 157.897 79.1222 157.897C76.1167 157.897 74.614 159.384 72.6104 161.367C70.6067 163.35 68.6032 167.812 65.0968 170.291C62.0914 172.769 53.576 172.273 51.5724 175.248C49.5687 178.222 53.576 182.685 53.576 190.121C53.576 193.095 51.0715 195.078 50.5706 197.061C50.0697 199.54 49.5687 201.027 50.5706 203.01C52.5742 205.985 55.0787 206.976 72.1095 210.446C81.1257 212.429 89.6411 217.386 95.1511 217.883C100.661 218.378 110.178 217.883 110.178 204.497C110.68 196.565 106.171 194.582 101.663 186.65Z" fill="#FFC107"/>
<path d="M111.179 96.9197C108.174 94.9368 105.669 92.9537 105.669 89.9792C105.669 87.0048 107.673 86.0133 110.679 83.5345C111.179 83.0387 116.689 78.0813 122.199 78.0813C127.709 78.0813 134.221 81.5515 136.725 82.543C141.234 83.5345 145.741 84.526 145.241 87.9963C144.74 92.9537 144.239 93.9453 139.23 96.424C135.723 97.4154 129.212 102.869 124.703 102.869C122.7 102.869 119.694 102.869 117.691 102.373C116.188 101.877 113.683 99.3985 111.179 96.9197Z" fill="#FFC107"/>
<path d="M110.178 92.9539C111.18 93.9454 112.683 94.9368 114.185 95.4325C115.187 95.9283 116.69 96.4241 116.69 96.4241C118.694 96.4241 120.197 96.4241 121.198 96.4241C123.703 96.4241 127.209 95.4326 130.715 93.4496C134.221 91.9624 134.723 90.9708 137.227 89.9793C139.732 88.4921 142.236 87.0048 141.234 86.5091C140.232 86.0134 139.23 86.5091 135.724 88.4921C132.718 90.4751 130.214 91.4666 127.209 92.9539C125.706 93.4496 123.703 94.4411 122.2 94.4411C120.697 94.4411 119.194 94.4411 117.692 94.4411C116.189 94.4411 115.187 93.9454 113.684 93.4496C112.683 92.9539 112.181 92.4581 111.681 92.4581C110.679 91.9624 108.675 89.9793 107.674 89.4836C107.674 89.4836 106.672 89.4836 107.172 89.9793C108.675 91.4666 109.177 91.9624 110.178 92.9539Z" fill="#634703"/>
<path d="M125.205 82.0473C125.706 83.0388 126.708 83.0388 127.208 83.5346C127.709 84.0303 128.211 84.0303 128.211 84.0303C128.711 83.5346 128.211 82.5431 127.709 82.5431C127.709 81.5516 125.205 81.5516 125.205 82.0473Z" fill="#634703"/>
<path d="M117.191 83.039C117.191 83.5347 118.193 84.0304 118.193 83.5347C118.694 83.039 119.195 82.5432 119.695 82.5432C120.698 82.0475 120.196 81.5518 118.694 81.5518C117.692 82.0475 117.692 82.5433 117.191 83.039Z" fill="#634703"/>
<path d="M165.779 170.787C165.779 171.282 165.779 171.778 165.779 172.274C166.781 174.257 169.285 174.753 171.288 174.753C174.294 174.753 177.299 172.769 178.802 170.787C178.802 170.291 179.303 169.795 179.804 169.299C180.806 167.812 181.307 166.821 181.808 166.324C181.808 166.324 181.307 165.829 181.307 165.333C180.806 164.342 179.303 163.35 177.299 162.854C175.797 162.359 173.293 161.863 172.29 161.863C167.782 161.367 165.278 162.854 163.775 164.342C163.775 164.342 164.276 164.342 164.276 164.838C165.278 165.829 165.779 166.821 165.779 168.308C166.279 169.299 165.779 169.795 165.779 170.787Z" fill="#455A64"/>
</svg>
