<svg width="256" height="256" viewBox="0 0 256 256" fill="none" xmlns="http://www.w3.org/2000/svg">
<path d="M59.5922 128C59.5922 90.2237 90.2159 59.6 127.992 59.6C143.199 59.6 157.239 64.5543 168.6 72.9513C171.579 65.938 177.584 60.5201 184.976 58.3351C169.463 45.6338 149.614 38 127.992 38C78.2866 38 37.9922 78.2944 37.9922 128C37.9922 177.705 78.2866 218 127.992 218C177.698 218 217.992 177.705 217.992 128C217.992 117.597 216.223 107.59 212.964 98.274C208.531 104.268 201.554 108.268 193.628 108.678C195.426 114.797 196.392 121.279 196.392 128C196.392 165.776 165.769 196.4 127.992 196.4C90.2159 196.4 59.5922 165.776 59.5922 128Z" fill="#3880FF"/>
<path d="M127.992 167.375C149.687 167.375 167.367 149.729 167.367 128C167.367 106.305 149.721 88.625 127.992 88.625C106.264 88.625 88.6172 106.305 88.6172 128C88.6172 149.695 106.297 167.375 127.992 167.375Z" fill="#3880FF"/>
<path d="M187.055 94.25C197.928 94.25 206.742 85.4356 206.742 74.5625C206.742 63.6893 197.928 54.875 187.055 54.875C176.181 54.875 167.367 63.6893 167.367 74.5625C167.367 85.4356 176.181 94.25 187.055 94.25Z" fill="#3880FF"/>
</svg>
