<svg width="256" height="256" viewBox="0 0 256 256" fill="none" xmlns="http://www.w3.org/2000/svg">
<path d="M0.000976562 56C0.000976562 25.0721 25.073 0 56.001 0H200.001C230.929 0 256.001 25.0721 256.001 56V200C256.001 230.928 230.929 256 200.001 256H56.001C25.073 256 0.000976562 230.928 0.000976562 200V56Z" fill="#0F172A"/>
<path d="M205.335 128.02C205.335 85.3377 170.682 50.6885 128 50.6885C85.3177 50.6885 50.6646 85.3377 50.6646 128.02C50.6646 170.706 85.3177 205.356 128 205.356C170.682 205.356 205.335 170.706 205.335 128.02Z" fill="#000080"/>
<path d="M182.69 95.9788C182.69 83.4807 172.543 73.3336 160.046 73.3336C147.547 73.3336 137.4 83.4807 137.4 95.9788C137.4 108.472 147.547 118.623 160.046 118.623C172.543 118.623 182.69 108.472 182.69 95.9788Z" fill="white"/>
<path d="M227.981 50.6648C227.981 38.1667 217.834 28.0198 205.335 28.0198C192.838 28.0198 182.69 38.1667 182.69 50.6648C182.69 63.1628 192.838 73.3098 205.335 73.3098C217.834 73.3098 227.981 63.1866 227.981 50.6648Z" fill="#000080"/>
<path d="M81.983 160.962H107.042V166.668H75.5107V115.928H81.983V160.962Z" fill="white"/>
<path d="M136.973 166.668V161.582C133.555 166.391 130.158 168.269 124.795 168.269C117.702 168.269 113.175 164.38 113.175 158.315V130.201H118.944V156.027C118.944 160.409 121.867 163.207 126.462 163.207C132.508 163.207 136.416 158.334 136.416 150.878V130.201H142.185V166.668H136.973Z" fill="white"/>
<path d="M184.591 167.652C182.71 168.142 181.813 168.269 180.616 168.269C176.858 168.269 175.041 166.605 174.634 162.906C170.532 166.668 166.838 168.269 162.246 168.269C154.873 168.269 150.281 164.103 150.281 157.482C150.281 152.739 152.439 149.472 156.69 147.741C158.912 146.844 160.172 146.564 168.375 145.516C172.97 144.964 174.421 143.916 174.421 141.482V139.941C174.421 136.46 171.496 134.516 166.285 134.516C160.855 134.516 158.208 136.523 157.718 140.988H151.862C152.012 137.377 152.696 135.286 154.363 133.406C156.798 130.691 161.176 129.154 166.474 129.154C175.447 129.154 180.189 132.635 180.189 139.107V160.56C180.189 162.372 181.299 163.42 183.33 163.42C183.67 163.42 183.951 163.42 184.591 163.27V167.652ZM174.421 148.638C172.476 149.535 171.216 149.811 165.087 150.646C158.891 151.542 156.307 153.506 156.307 157.331C156.307 161.029 158.955 163.187 163.483 163.187C166.901 163.187 169.742 162.073 172.116 159.915C173.843 158.315 174.421 157.142 174.421 155.173V148.638Z" fill="white"/>
<path d="M217.107 82.6033C224.262 96.6622 228 112.214 228 128C228 183.204 183.204 228 128 228C72.7961 228 28 183.204 28 128C28 72.7961 72.7961 28 128 28C145.754 28 163.163 32.7219 178.459 41.6518" stroke="#808080" stroke-width="2.294" stroke-miterlimit="10" stroke-dasharray="8.63 8.63"/>
</svg>
