<svg width="256" height="256" viewBox="0 0 256 256" fill="none" xmlns="http://www.w3.org/2000/svg">
<path d="M197.594 128.018C197.594 89.604 166.406 58.4197 127.992 58.4197C89.5784 58.4197 58.3906 89.604 58.3906 128.018C58.3906 166.436 89.5784 197.62 127.992 197.62C166.406 197.62 197.594 166.436 197.594 128.018Z" fill="#000080"/>
<path d="M177.213 99.1807C177.213 87.9324 168.081 78.8 156.833 78.8C145.585 78.8 136.453 87.9324 136.453 99.1807C136.453 110.425 145.585 119.561 156.833 119.561C168.081 119.561 177.213 110.425 177.213 99.1807Z" fill="white"/>
<path d="M217.975 58.3984C217.975 47.1501 208.842 38.0178 197.594 38.0178C186.346 38.0178 177.213 47.1501 177.213 58.3984C177.213 69.6465 186.346 78.7789 197.594 78.7789C208.842 78.7789 217.975 69.6679 217.975 58.3984Z" fill="#000080"/>
<path d="M86.577 157.666H109.13V162.802H80.752V117.136H86.577V157.666Z" fill="white"/>
<path d="M136.068 162.801V158.224C132.992 162.552 129.934 164.242 125.108 164.242C118.724 164.242 114.649 160.742 114.649 155.283V129.981H119.841V153.224C119.841 157.168 122.472 159.686 126.608 159.686C132.05 159.686 135.566 155.301 135.566 148.59V129.981H140.758V162.801H136.068Z" fill="white"/>
<path d="M178.924 163.686C177.231 164.128 176.424 164.242 175.347 164.242C171.965 164.242 170.329 162.744 169.963 159.416C166.271 162.801 162.947 164.242 158.813 164.242C152.178 164.242 148.045 160.493 148.045 154.533C148.045 150.265 149.987 147.325 153.814 145.767C155.813 144.96 156.947 144.707 164.329 143.764C168.465 143.267 169.771 142.324 169.771 140.134V138.747C169.771 135.614 167.139 133.864 162.449 133.864C157.562 133.864 155.179 135.671 154.739 139.689H149.468C149.603 136.439 150.219 134.558 151.719 132.865C153.91 130.422 157.85 129.039 162.619 129.039C170.695 129.039 174.963 132.171 174.963 137.996V157.304C174.963 158.935 175.961 159.878 177.79 159.878C178.095 159.878 178.349 159.878 178.924 159.742V163.686ZM169.771 146.574C168.021 147.381 166.887 147.63 161.371 148.381C155.795 149.187 153.469 150.955 153.469 154.398C153.469 157.726 155.852 159.668 159.927 159.668C163.003 159.668 165.56 158.665 167.697 156.724C169.251 155.283 169.771 154.227 169.771 152.456V146.574Z" fill="white"/>
<path d="M208.188 87.143C214.628 99.796 217.992 113.793 217.992 128C217.992 177.684 177.676 218 127.992 218C78.3087 218 37.9922 177.684 37.9922 128C37.9922 78.3165 78.3087 38 127.992 38C143.971 38 159.639 42.2497 173.405 50.2867" stroke="#808080" stroke-width="2.294" stroke-miterlimit="10" stroke-dasharray="8.63 8.63"/>
</svg>
