<svg width="257" height="256" viewBox="0 0 257 256" fill="none" xmlns="http://www.w3.org/2000/svg">
<path d="M0.00195312 56C0.00195312 25.0721 25.074 0 56.002 0H200.002C230.93 0 256.002 25.0721 256.002 56V200C256.002 230.928 230.93 256 200.002 256H56.002C25.074 256 0.00195312 230.928 0.00195312 200V56Z" fill="#22272E"/>
<path d="M217.899 68H38.101C32.5224 68 28 72.5224 28 78.101V177.091C28 182.67 32.5224 187.192 38.101 187.192H217.899C223.478 187.192 228 182.67 228 177.091V78.101C228 72.5224 223.478 68 217.899 68Z" stroke="white" stroke-width="10"/>
<path d="M53.2524 161.939V93.2526H73.4545L93.6565 118.505L113.859 93.2526H134.061V161.939H113.859V122.545L93.6565 147.798L73.4545 122.545V161.939H53.2524ZM179.515 161.939L149.212 128.606H169.414V93.2526H189.616V128.606H209.818L179.515 161.939Z" fill="white"/>
</svg>
