<svg width="256" height="256" viewBox="0 0 256 256" fill="none" xmlns="http://www.w3.org/2000/svg">
<path d="M208.901 74H47.0831C42.0624 74 37.9922 78.0702 37.9922 83.0909V172.182C37.9922 177.203 42.0624 181.273 47.0831 181.273H208.901C213.922 181.273 217.992 177.203 217.992 172.182V83.0909C217.992 78.0702 213.922 74 208.901 74Z" stroke="#111827" stroke-width="10"/>
<path d="M60.7197 158.545V96.7273H78.9015L97.0834 119.455L115.265 96.7273H133.447V158.545H115.265V123.091L97.0834 145.818L78.9015 123.091V158.545H60.7197ZM174.356 158.545L147.083 128.545H165.265V96.7273H183.447V128.545H201.629L174.356 158.545Z" fill="#111827"/>
</svg>
