<svg width="256" height="256" viewBox="0 0 256 256" fill="none" xmlns="http://www.w3.org/2000/svg">
<path d="M210.087 145.908C207.577 158.606 187.609 172.502 164.676 175.195C152.717 176.598 140.942 177.888 128.387 177.321C107.854 176.397 91.6523 172.502 91.6523 172.502C91.6523 174.467 91.7756 176.339 92.0221 178.09C94.6915 198.018 112.116 199.212 128.62 199.769C145.278 200.329 160.112 195.729 160.112 195.729L160.796 210.54C160.796 210.54 149.145 216.693 128.387 217.825C116.941 218.443 102.729 217.542 86.1763 213.233C50.2756 203.888 44.1014 166.253 43.1567 128.067C42.8688 116.729 43.0463 106.038 43.0463 97.0969C43.0463 58.0494 69.0612 46.6039 69.0612 46.6039C82.1786 40.6795 104.687 38.1881 128.087 38H128.662C152.061 38.1881 174.584 40.6795 187.701 46.6039C187.701 46.6039 213.715 58.0494 213.715 97.0969C213.715 97.0969 214.041 125.907 210.087 145.908Z" fill="#2B90D9"/>
<path d="M182.022 99.679V146.618H163.112V101.059C163.112 91.4547 159.003 86.58 150.784 86.58C141.697 86.58 137.143 92.3626 137.143 103.797V128.735H118.344V103.797C118.344 92.3626 113.789 86.58 104.701 86.58C96.4826 86.58 92.3737 91.4547 92.3737 101.059V146.618H73.4639V99.679C73.4639 90.0856 75.9477 82.4621 80.9367 76.822C86.0815 71.1819 92.8192 68.2905 101.183 68.2905C110.86 68.2905 118.188 71.9482 123.033 79.2646L127.743 87.0296L132.454 79.2646C137.298 71.9482 144.626 68.2905 154.304 68.2905C162.667 68.2905 169.404 71.1819 174.55 76.822C179.538 82.4621 182.022 90.0856 182.022 99.679Z" fill="white"/>
</svg>
