<svg width="257" height="256" viewBox="0 0 257 256" fill="none" xmlns="http://www.w3.org/2000/svg">
<path d="M0.00195312 56C0.00195312 25.0721 25.074 0 56.002 0H200.002C230.93 0 256.002 25.0721 256.002 56V200C256.002 230.928 230.93 256 200.002 256H56.002C25.074 256 0.00195312 230.928 0.00195312 200V56Z" fill="#0F172A"/>
<path d="M218.66 147.898C215.872 162.007 193.686 177.447 168.204 180.438C154.917 181.998 141.833 183.431 127.883 182.801C105.069 181.774 87.0668 177.447 87.0668 177.447C87.0668 179.631 87.2038 181.711 87.4777 183.656C90.4437 205.798 109.804 207.124 128.142 207.743C146.651 208.365 163.133 203.255 163.133 203.255L163.893 219.711C163.893 219.711 150.947 226.548 127.883 227.805C115.165 228.492 99.3747 227.491 80.9824 222.704C41.0927 212.32 34.2325 170.504 33.1828 128.074C32.8629 115.477 33.0601 103.598 33.0601 93.6632C33.0601 50.2771 61.9656 37.5599 61.9656 37.5599C76.5404 30.9772 101.549 28.209 127.55 28H128.188C154.187 28.209 179.214 30.9772 193.787 37.5599C193.787 37.5599 222.691 50.2771 222.691 93.6632C222.691 93.6632 223.054 125.674 218.66 147.898Z" fill="#2B90D9"/>
<path d="M187.477 96.5321V148.687H166.466V98.0651C166.466 87.394 161.9 81.9776 152.768 81.9776C142.671 81.9776 137.611 88.4028 137.611 101.108V128.816H116.724V101.108C116.724 88.4028 111.662 81.9776 101.565 81.9776C92.4333 81.9776 87.8678 87.394 87.8678 98.0651V148.687H66.8569V96.5321C66.8569 85.8727 69.6167 77.4022 75.1601 71.1354C80.8765 64.8686 88.3628 61.656 97.6559 61.656C108.408 61.656 116.55 65.7201 121.933 73.8494L127.167 82.4772L132.401 73.8494C137.784 65.7201 145.926 61.656 156.679 61.656C165.971 61.656 173.457 64.8686 179.175 71.1354C184.717 77.4022 187.477 85.8727 187.477 96.5321Z" fill="white"/>
</svg>
