<svg width="256" height="256" viewBox="0 0 256 256" fill="none" xmlns="http://www.w3.org/2000/svg">
<path fill-rule="evenodd" clip-rule="evenodd" d="M189.706 156.247C190.466 155.81 191.099 155.181 191.54 154.423C191.98 153.665 192.214 152.803 192.216 151.927L192.307 122.991C192.309 122.114 192.543 121.253 192.984 120.495C193.423 119.736 194.056 119.107 194.816 118.671L210.502 109.661C211.262 109.224 212.124 108.996 213 108.996C213.877 108.998 214.738 109.23 215.496 109.669C216.256 110.108 216.885 110.739 217.323 111.498C217.761 112.258 217.992 113.119 217.992 113.996V166.602C217.992 167.482 217.76 168.345 217.319 169.107C216.879 169.868 216.245 170.5 215.482 170.937L156.286 204.939C155.529 205.373 154.673 205.601 153.801 205.602C152.929 205.603 152.072 205.375 151.316 204.943L104.859 178.373C104.094 177.935 103.457 177.304 103.015 176.542C102.572 175.78 102.339 174.914 102.339 174.032V147.507C102.339 147.477 102.374 147.457 102.404 147.471C102.429 147.487 102.464 147.471 102.464 147.437V147.407C102.464 147.387 102.474 147.367 102.494 147.357L140.755 125.376C140.79 125.356 140.774 125.302 140.735 125.302C140.725 125.302 140.714 125.297 140.706 125.289C140.7 125.282 140.695 125.272 140.695 125.261L140.77 99.2555C140.774 98.3761 140.545 97.5113 140.107 96.7484C139.67 95.9855 139.039 95.3515 138.278 94.9103C137.518 94.4691 136.654 94.2363 135.775 94.2354C134.895 94.2345 134.031 94.4656 133.27 94.9053L104.834 111.291C104.075 111.728 103.214 111.958 102.339 111.958C101.463 111.958 100.603 111.728 99.8439 111.291L71.318 94.8654C70.5581 94.4277 69.6964 94.1977 68.8195 94.1983C67.9425 94.1989 67.0811 94.4302 66.3218 94.8689C65.5624 95.3076 64.9318 95.9383 64.4932 96.6977C64.0546 97.4571 63.8234 98.3185 63.8229 99.1955V146.197C63.8235 147.073 63.5939 147.933 63.1572 148.693C62.7203 149.452 62.0918 150.084 61.3343 150.523C60.5768 150.964 59.7169 151.197 58.8409 151.2C57.9649 151.203 57.1033 150.976 56.3427 150.542L40.5123 141.491C39.7455 141.054 39.1084 140.42 38.6657 139.656C38.2231 138.893 37.9908 138.025 37.9922 137.142L38.1322 54.9893C38.1341 54.1134 38.366 53.2535 38.8048 52.4955C39.2434 51.7375 39.8736 51.108 40.632 50.6701C41.3904 50.2321 42.2506 50.0011 43.1264 50C44.0022 49.999 44.8629 50.228 45.6224 50.6642L99.8489 81.81C100.607 82.2452 101.465 82.4741 102.339 82.4741C103.212 82.4741 104.072 82.2452 104.829 81.81L159.041 50.6642C159.801 50.2273 160.663 49.9983 161.54 50C162.417 50.0017 163.278 50.2341 164.038 50.6739C164.796 51.1135 165.426 51.7451 165.864 52.5053C166.302 53.2653 166.531 54.1272 166.531 55.0042V137.176C166.531 138.055 166.3 138.92 165.86 139.68C165.42 140.441 164.788 141.073 164.025 141.512L135.634 157.862C134.872 158.301 134.24 158.935 133.8 159.697C133.36 160.46 133.13 161.326 133.132 162.206C133.134 163.085 133.368 163.949 133.811 164.711C134.254 165.471 134.89 166.101 135.655 166.538L151.316 175.452C152.072 175.883 152.928 176.109 153.799 176.107C154.67 176.105 155.525 175.877 156.281 175.443L189.706 156.247ZM192.991 82.535C192.992 83.4193 193.227 84.2875 193.673 85.0512C194.118 85.8149 194.759 86.4468 195.529 86.8825C196.298 87.318 197.169 87.5417 198.053 87.5308C198.938 87.5198 199.803 87.2746 200.562 86.8201L215.562 77.8198C216.303 77.3762 216.915 76.7483 217.341 75.9973C217.768 75.2464 217.991 74.398 217.992 73.5348V55.1942C217.99 54.3104 217.754 53.4429 217.309 52.6798C216.862 51.9168 216.222 51.2856 215.453 50.8506C214.683 50.4156 213.812 50.1923 212.929 50.2034C212.045 50.2147 211.18 50.4599 210.421 50.9141L195.421 59.9144C194.681 60.3581 194.067 60.986 193.642 61.7369C193.216 62.4878 192.992 63.3362 192.991 64.1996V82.54V82.535Z" fill="#007FFF"/>
</svg>
