<svg width="257" height="256" viewBox="0 0 257 256" fill="none" xmlns="http://www.w3.org/2000/svg">
<path d="M0.00195312 56C0.00195312 25.0721 25.074 0 56.002 0H200.002C230.93 0 256.002 25.0721 256.002 56V200C256.002 230.928 230.93 256 200.002 256H56.002C25.074 256 0.00195312 230.928 0.00195312 200V56Z" fill="#F8FAFC"/>
<path fill-rule="evenodd" clip-rule="evenodd" d="M196.571 160.052C197.416 159.567 198.119 158.868 198.608 158.026C199.098 157.183 199.357 156.226 199.36 155.252L199.461 123.101C199.463 122.127 199.723 121.17 200.213 120.327C200.701 119.485 201.404 118.786 202.249 118.301L219.678 108.29C220.522 107.804 221.479 107.551 222.453 107.552C223.427 107.554 224.384 107.811 225.227 108.299C226.07 108.787 226.77 109.488 227.257 110.331C227.743 111.175 228 112.132 228 113.107V171.558C228 172.536 227.742 173.495 227.252 174.341C226.763 175.187 226.059 175.888 225.211 176.375L159.437 214.154C158.597 214.636 157.645 214.89 156.677 214.891C155.708 214.892 154.755 214.639 153.915 214.159L102.296 184.636C101.446 184.15 100.739 183.449 100.247 182.602C99.7555 181.755 99.4963 180.793 99.4963 179.814V150.341C99.4963 150.308 99.5358 150.286 99.5689 150.302C99.5966 150.319 99.635 150.302 99.635 150.263V150.23C99.635 150.208 99.6467 150.185 99.6691 150.175L142.181 125.752C142.22 125.729 142.203 125.668 142.159 125.668C142.147 125.668 142.135 125.663 142.127 125.655C142.119 125.647 142.114 125.635 142.114 125.624L142.197 96.7283C142.201 95.7512 141.948 94.7903 141.461 93.9426C140.976 93.095 140.274 92.3906 139.429 91.9003C138.584 91.4101 137.624 91.1514 136.647 91.1505C135.67 91.1495 134.71 91.4062 133.864 91.8948L102.269 110.101C101.425 110.586 100.469 110.842 99.4963 110.842C98.5235 110.842 97.5673 110.586 96.7241 110.101L65.0287 91.8504C64.1843 91.3641 63.2269 91.1085 62.2525 91.1093C61.2781 91.1099 60.321 91.3669 59.4773 91.8544C58.6336 92.3417 57.9329 93.0426 57.4456 93.8863C56.9582 94.7301 56.7014 95.6872 56.7008 96.6616V148.885C56.7015 149.859 56.4463 150.815 55.9611 151.658C55.4757 152.502 54.7774 153.204 53.9356 153.693C53.094 154.182 52.1386 154.441 51.1652 154.445C50.1919 154.448 49.2346 154.196 48.3895 153.713L30.8001 143.657C29.9481 143.171 29.2403 142.467 28.7484 141.618C28.2565 140.77 27.9984 139.805 28 138.824L28.1555 47.5436C28.1577 46.5705 28.4154 45.615 28.9029 44.7728C29.3902 43.9305 30.0904 43.2311 30.9331 42.7446C31.7758 42.2579 32.7315 42.0012 33.7047 42C34.6778 41.9988 35.6341 42.2534 36.478 42.7379L96.7296 77.3444C97.5716 77.828 98.5256 78.0824 99.4963 78.0824C100.467 78.0824 101.422 77.828 102.263 77.3444L162.499 42.7379C163.343 42.2526 164.301 41.9981 165.275 42C166.25 42.0019 167.207 42.2601 168.051 42.7487C168.893 43.2373 169.593 43.939 170.08 44.7837C170.566 45.6282 170.821 46.5857 170.821 47.5603V138.862C170.821 139.839 170.564 140.799 170.075 141.644C169.587 142.49 168.884 143.192 168.037 143.68L136.491 161.846C135.644 162.335 134.942 163.039 134.453 163.886C133.964 164.733 133.708 165.695 133.711 166.673C133.713 167.65 133.973 168.61 134.466 169.456C134.958 170.301 135.665 171.001 136.514 171.486L153.915 181.391C154.755 181.87 155.707 182.121 156.674 182.119C157.642 182.117 158.592 181.863 159.432 181.381L196.571 160.052ZM200.221 78.15C200.222 79.1325 200.484 80.0972 200.978 80.9458C201.473 81.7944 202.185 82.4965 203.04 82.9805C203.895 83.4645 204.863 83.713 205.846 83.7009C206.828 83.6887 207.789 83.4163 208.633 82.9112L225.3 72.9109C226.123 72.418 226.803 71.7203 227.277 70.8859C227.75 70.0515 227.999 69.1089 228 68.1497V47.7714C227.998 46.7894 227.735 45.8254 227.241 44.9776C226.745 44.1298 226.033 43.4284 225.179 42.9451C224.323 42.4618 223.356 42.2137 222.374 42.226C221.392 42.2385 220.431 42.511 219.588 43.0157L202.921 53.016C202.098 53.509 201.417 54.2066 200.944 55.041C200.471 55.8754 200.222 56.818 200.221 57.7773V78.1555V78.15Z" fill="#007FFF"/>
</svg>
