<svg width="256" height="256" viewBox="0 0 256 256" fill="none" xmlns="http://www.w3.org/2000/svg">
<path d="M37.9922 137.607L89.2281 116.907C94.4288 110.035 100.285 103.683 106.714 97.9429C110.956 95.693 118.928 96.9144 133.521 78.7858C147.664 61.1072 152.164 46 158.785 46C169.264 46 176.979 68.6286 188.679 102.893C197.021 129.065 206.806 154.755 217.992 179.844C205.779 168.464 195.364 156.186 183.471 156.507C172.414 156.764 160.136 169.879 146.699 186.722C136.028 200.222 121.885 209.479 116.356 209.287C116.356 209.287 102.085 168.915 90.128 162.358C87.6473 161.344 84.962 160.932 82.2915 161.156C79.6211 161.379 77.0415 162.231 74.7637 163.643L37.9922 137.543V137.607Z" fill="#4499DD"/>
<path d="M152.42 50.6299C148.114 56.4156 142.906 67.0228 133.52 78.7871C118.928 96.9157 111.02 95.6943 106.714 97.9443C100.254 103.653 94.3946 110.008 89.2275 116.909L110.442 132.401C128.442 107.844 138.085 81.2299 145.606 64.0014C147.49 59.3569 149.77 54.8831 152.42 50.6299Z" fill="url(#paint0_linear_115_231)"/>
<path d="M158.849 46C144.834 46 135.256 119.8 83.5059 161.007C98.0345 158.629 110.634 194.693 116.42 209.287C142.134 204.915 162.706 155.736 183.471 156.507C195.363 156.958 205.777 168.464 217.992 179.844C190.092 121.215 177.042 46 158.849 46Z" fill="url(#paint1_linear_115_231)"/>
<defs>
<linearGradient id="paint0_linear_115_231" x1="133.154" y1="123.588" x2="121.647" y2="86.4307" gradientUnits="userSpaceOnUse">
<stop stop-color="#551122"/>
<stop offset="0.23" stop-color="#552233"/>
<stop offset="0.36" stop-color="#553344"/>
<stop offset="0.51" stop-color="#664455"/>
<stop offset="0.66" stop-color="#556688"/>
<stop offset="0.84" stop-color="#2299DD"/>
</linearGradient>
<linearGradient id="paint1_linear_115_231" x1="216.128" y1="146.82" x2="100.413" y2="118.405" gradientUnits="userSpaceOnUse">
<stop offset="0.081" stop-color="#CC3333"/>
<stop offset="0.189" stop-color="#DE5239"/>
<stop offset="0.313" stop-color="#F06E3E"/>
<stop offset="0.421" stop-color="#FA8042"/>
<stop offset="0.5" stop-color="#FE8643"/>
<stop offset="0.58" stop-color="#FA7F42"/>
<stop offset="0.696" stop-color="#EF6C3E"/>
<stop offset="0.833" stop-color="#DC4C37"/>
<stop offset="0.916" stop-color="#CF3633"/>
</linearGradient>
</defs>
</svg>
