<svg width="257" height="256" viewBox="0 0 257 256" fill="none" xmlns="http://www.w3.org/2000/svg">
<path d="M0.00195312 56C0.00195312 25.0721 25.074 0 56.002 0H200.002C230.93 0 256.002 25.0721 256.002 56V200C256.002 230.928 230.93 256 200.002 256H56.002C25.074 256 0.00195312 230.928 0.00195312 200V56Z" fill="#0F172A"/>
<path d="M56.1703 31.809C55.8401 32.5883 55.5274 33.5966 55.2368 34.8121L55.0229 35.7625C54.9531 36.0919 54.8846 36.434 54.8178 36.7885L54.6218 37.8883L54.4352 39.0599L54.2585 40.3013L54.0921 41.6103L53.9366 42.9851L53.7922 44.4237C53.7691 44.6687 53.7464 44.9162 53.7243 45.1662L53.5973 46.6967L53.4827 48.2859L53.3807 49.9318C53.3647 50.2108 53.3493 50.4919 53.3345 50.7754L63.5294 55.7096C63.3751 49.7576 63.5668 44.1294 64.103 38.9584L64.2081 38.0368L64.1355 38.8812L64.0448 40.2773L64.0116 40.9433L63.9557 42.4629L63.9349 43.3175L63.9121 45.219L63.9153 46.8155L63.9393 48.5599L63.9685 49.8061L64.0343 51.8013L64.0943 53.2162L64.1683 54.6996C64.1819 54.9526 64.196 55.2085 64.2109 55.4672C66.1098 53.9188 68.3842 51.8861 70.7494 49.6641L72.3364 48.1579C72.6021 47.9032 72.8682 47.6471 73.1342 47.3899L74.7264 45.836L76.2988 44.2746L77.8324 42.7251L79.3085 41.2069C77.6774 37.8744 75.9184 35.4259 74.2821 33.6375L73.7415 33.0655C73.3847 32.7 73.0353 32.3659 72.6961 32.0608L72.1952 31.6244L71.7117 31.2295C71.5536 31.1045 71.3988 30.9862 71.2476 30.8742L70.805 30.5569L70.3859 30.2754L69.8061 29.9169L69.2907 29.6288L68.7161 29.3438L68.2853 29.1584L67.4989 28.8742L66.9263 28.6905L66.3671 28.5326L65.9414 28.4255L65.4788 28.3219C65.3988 28.3052 65.3176 28.2887 65.235 28.2727L64.7259 28.1821L64.1914 28.1053C61.3729 27.7521 57.7316 28.1225 56.1703 31.809Z" fill="url(#paint0_linear_24_433)"/>
<path d="M66.1933 85.8032C65.7227 82.4106 65.293 79.0739 64.9045 75.7931C64.589 73.0686 64.3308 70.3846 64.1194 67.7269L63.938 65.3443C63.9349 65.2814 63.9332 65.2206 63.9337 65.1629C63.7109 61.9322 63.5495 58.7853 63.4775 55.7018L53.303 50.7955L53.2752 51.419L53.207 52.7135C53.1055 55.151 53.0302 57.7412 53.0089 60.4636C52.9841 63.5323 53.0133 66.7332 53.0687 70.0868C53.1406 73.1704 53.2667 76.3862 53.4337 79.6577C53.5574 81.7581 53.6927 83.8742 53.8481 86.0178L54.0349 88.4968L67.6458 95.3923L67.1659 92.1801L66.1933 85.8032Z" fill="url(#paint1_linear_24_433)"/>
<path d="M85.8804 164.844L86.0911 165.569L87.4429 170.163C87.6371 170.815 87.8338 171.471 88.034 172.13L88.6792 174.217L88.8997 174.969C88.9387 175.092 88.9806 175.214 89.0278 175.337L91.2204 182.364C93.1623 181.962 95.5294 182.686 98.0298 183.777L99.0363 184.231C97.1957 182.017 94.6477 180.535 91.6031 180.192C99.9393 174.632 105.424 167.47 104.654 158.927C104.571 158.171 104.469 157.387 104.318 156.597C104.192 159.745 102.935 162.057 99.2911 164.527L98.8424 164.825C102.611 158.193 103.648 153.694 103.202 147.876C103.092 146.497 102.92 145.033 102.666 143.458C101.461 152.119 96.8098 157.724 90.0071 161.041L85.8804 164.844Z" fill="url(#paint2_linear_24_433)"/>
<path d="M81.0037 154.68L80.138 151.434L78.3966 144.864C77.5704 141.689 76.7722 138.495 75.9813 135.251C75.1905 132.008 74.4276 128.744 73.6647 125.48C72.8888 122.14 72.1612 118.806 71.4617 115.454L70.7709 112.138L69.4447 105.505C69.2078 104.304 68.9914 103.131 68.7823 101.909C68.4016 99.8688 68.0489 97.8076 67.6961 95.7464L67.6233 95.4132L54.0889 88.5046L54.1332 88.9335C54.1383 89.0077 54.1406 89.0825 54.1375 89.1563C54.4106 92.2212 54.6762 95.3345 55.0387 98.4626C55.3938 101.64 55.7973 104.824 56.2696 108.043C56.6711 110.755 57.1004 113.448 57.5503 116.168L57.8451 117.799C58.4684 121.165 59.1345 124.415 59.8582 127.449C60.6677 130.894 61.5348 134.125 62.4113 137.134C63.0004 139.107 63.5766 141.004 64.1676 142.804L64.692 144.322L65.7764 147.338C67.07 150.857 68.5034 154.274 70.0484 157.608L83.7282 164.539C82.9991 162.023 82.3258 159.467 81.5837 156.875L81.2046 155.422L81.0037 154.68Z" fill="url(#paint3_linear_24_433)"/>
<path d="M70.2455 158.063C71.8942 161.59 73.6925 165.007 75.6779 168.287L76.7788 170.067C75.4826 169.545 73.8432 169.286 72.2504 169.17L71.4597 169.123C71.3291 169.117 71.1994 169.112 71.0706 169.108L70.3117 169.091L69.2421 169.095L68.2873 169.123L67.484 169.165L66.3592 169.257C66.3498 169.258 66.3457 169.259 66.3469 169.259C73.2639 171.658 79.3299 174.596 83.1563 179.049C81.6357 180.723 78.7891 181.997 75.2105 183.033C77.8747 183.322 79.9044 183.204 81.3679 182.965L81.9606 182.857C82.0538 182.838 82.144 182.818 82.2314 182.799L82.7225 182.677L83.1472 182.552L83.6625 182.373L83.9266 182.264C81.7289 184.097 80.3537 187.219 79.2105 190.718L78.8157 191.968C78.7513 192.178 78.6874 192.389 78.6238 192.601C81.5343 187.844 84.4211 184.694 87.2323 183.49C90.372 193.901 94.003 204.981 97.988 216.543L99.8518 221.913C100.481 223.714 101.119 225.526 101.762 227.348C102.69 226.152 102.794 224.829 102.405 223.482L101.131 219.882L99.6796 215.676L97.4309 209.004L95.5882 203.409L93.5521 197.098L91.6079 190.939L89.8233 185.168L88.5106 180.846L87.4421 177.279C87.2992 176.81 87.1686 176.334 87.0279 175.851L86.6254 174.526L85.4717 170.54L84.2983 166.439L83.7706 164.548L83.7501 164.521L70.0704 157.59C70.1014 157.71 70.1358 157.809 70.1773 157.909L70.2455 158.063Z" fill="url(#paint4_linear_24_433)"/>
<path d="M69.2361 95.6839L69.4787 97.0096C69.6542 97.912 69.8171 98.8235 69.9903 99.7403L71.4701 107.333L72.0138 109.977L72.8055 113.714C72.9406 114.345 73.0769 114.981 73.214 115.621C73.6226 117.513 74.0533 119.434 74.5045 121.397L75.4338 125.378L76.3587 129.262C76.5169 129.918 76.6771 130.578 76.8391 131.242L77.8324 135.261L78.8255 139.167C79.3297 141.142 79.8484 143.147 80.3967 145.194C80.7967 146.705 81.2121 148.237 81.6368 149.789L83.0596 154.969L84.1346 158.776L85.2447 162.665C85.4328 163.319 85.6225 163.975 85.8138 164.634C85.8269 164.71 85.84 164.787 85.8809 164.843L90.0077 161.041L89.9077 161.082L89.6874 161.189C94.5848 156.564 98.7819 147.296 99.7413 138.944C100.183 135.098 100.142 131.003 99.6134 126.536C99.2322 123.206 98.5549 119.708 97.6242 115.922C96.8129 112.652 95.8097 109.177 94.5868 105.521C93.8295 107.065 92.7538 108.584 91.436 110.067L90.7213 110.85L90.4768 111.104L89.9582 111.624C93.5702 106.009 93.9998 99.9792 92.9285 93.7193C92.2719 95.576 90.9826 98.3268 88.844 100.799C88.5705 101.128 88.2485 101.45 87.9264 101.773C87.8705 101.814 87.8239 101.867 87.7658 101.923L87.6677 102.005C88.8661 100.009 89.7517 98.1132 90.3188 96.1931C90.4093 95.9262 90.4784 95.6559 90.5402 95.3847L90.6293 94.9771C90.7743 94.3551 90.8709 93.7257 90.9674 93.0963L91.1048 91.8784C91.159 91.1619 91.1744 90.4256 91.1393 89.678L91.0451 88.3021C91.0358 88.2006 91.0238 88.0997 91.0064 87.9979L90.8626 87.1168C90.8384 86.9754 90.8129 86.8366 90.7843 86.7001C90.5044 85.0642 90.1971 83.6062 89.8802 82.3131L89.5832 81.1524L89.3147 80.172L88.9657 79.0122L88.5122 77.6534C88.4642 77.5167 88.4162 77.3855 88.3673 77.2603L88.0934 76.5749C88.0055 76.3641 87.9213 76.1713 87.8415 75.9976L87.6161 75.5344C87.5728 75.7095 87.517 75.8936 87.4427 76.0786L87.3167 76.3557C86.4647 78.3559 84.4827 81.0995 82.6753 83.0275C82.6474 83.048 82.6194 83.0685 82.612 83.117L82.2392 83.4893C82.1757 83.5566 82.1126 83.6267 82.0518 83.7L82.1225 83.5622L69.1206 95.4679C69.2305 95.5592 69.2436 95.6355 69.2361 95.6839Z" fill="url(#paint5_linear_24_433)"/>
<path d="M64.2124 55.4705C64.2649 56.4201 64.3277 57.4099 64.4002 58.4388L64.5578 60.5484C64.5861 60.9085 64.6154 61.273 64.6458 61.6417L64.8391 63.9042C64.8733 64.2897 64.9083 64.6793 64.9442 65.073L64.9747 65.4485C64.9821 65.5083 64.9923 65.5676 65.0078 65.6279C65.1179 66.7877 65.2403 67.9807 65.3757 69.211L65.6641 71.7226C65.7662 72.5772 65.8742 73.4494 65.9884 74.3407L66.5295 78.4259C66.7824 80.2804 67.0563 82.2018 67.3626 84.2057L67.5986 85.7243C67.8319 87.2716 68.0909 88.8538 68.3651 90.4786L69.2224 95.4885L82.2243 83.5827C84.9355 78.6713 85.5282 75.6153 85.4913 71.8186C85.4785 71.0546 85.4425 70.2594 85.3922 69.4444L85.3374 68.6233C85.1293 65.2958 84.7295 61.7655 84.162 58.3581C83.6282 55.055 82.9752 51.8822 82.2273 49.1658C81.7537 47.4082 81.2503 45.8442 80.7378 44.5019C80.2717 43.3401 79.7909 42.2752 79.3026 41.2587L77.8285 42.7637C77.5774 43.0179 77.324 43.2735 77.0685 43.5302L75.5146 45.0788L73.9311 46.6317L72.3367 48.1692C72.0711 48.4231 71.8058 48.6756 71.5412 48.9261L69.9657 50.4037C67.885 52.3351 65.9004 54.0941 64.2124 55.4705Z" fill="url(#paint6_linear_24_433)"/>
<path d="M189.384 34.3586C188.968 34.5304 188.513 34.7461 188.025 35.0042L187.266 35.4231C186.743 35.7233 186.186 36.0652 185.597 36.4475L184.69 37.051L183.738 37.7139L182.741 38.435L181.701 39.2134C181.524 39.3479 181.346 39.4847 181.165 39.6238L180.064 40.4861L178.924 41.403L177.746 42.3734L176.534 43.3962L175.287 44.4705L174.008 45.595L172.697 46.7688C172.477 46.9684 172.255 47.1701 172.032 47.3737L176.319 59.446C180.956 54.4976 185.614 50.0922 190.185 46.3385L191.793 45.0338L191.909 44.9449L190.803 45.8446L189.719 46.7822L188.543 47.8454L187.428 48.8905L186.491 49.7922L185.818 50.4514L184.361 51.9125L183.169 53.137L181.452 54.9465L180.539 55.9291L179.589 56.9649L178.099 58.62L177.06 59.7923C178.126 59.8937 179.295 59.9814 180.54 60.056L182.46 60.1582L184.474 60.2415L186.563 60.3062L188.704 60.3527L190.879 60.3818C191.243 60.3851 191.608 60.3879 191.973 60.3898L194.16 60.3934C194.524 60.3926 194.888 60.3911 195.25 60.389L197.404 60.3683C197.761 60.3635 198.115 60.3581 198.466 60.352L200.544 60.308C202.249 55.2241 202.64 51.1361 202.507 48.0837L202.462 47.3109L202.395 46.5852C202.383 46.4682 202.369 46.3531 202.355 46.2401L202.264 45.5854L202.16 44.9783C202.142 44.881 202.123 44.7858 202.104 44.6926L201.986 44.157L201.865 43.6693L201.74 43.2297L201.617 42.8384L201.387 42.2009L201.202 41.7581L200.759 40.845L200.501 40.3575L200.284 39.9745L200.034 39.5538L199.75 39.103L199.433 38.6294L199.083 38.1405C197.126 35.5064 193.786 32.5422 189.384 34.3586Z" fill="url(#paint7_linear_24_433)"/>
<path d="M154.558 85.7959C156.874 82.691 159.18 79.6636 161.474 76.7137C163.862 73.6589 166.272 70.7261 168.71 67.8765C168.855 67.6997 169 67.523 169.139 67.385C171.526 64.6072 173.896 61.9457 176.288 59.4062L171.995 47.3727L171.478 47.8525L170.394 48.8404C168.376 50.722 166.258 52.7473 164.078 54.922C162.848 56.1473 161.604 57.4099 160.339 58.7092L157.781 61.3565C157.35 61.8057 156.916 62.259 156.479 62.7163C154.088 65.2558 151.634 67.9447 149.169 70.7111C147.6 72.5002 146.027 74.3112 144.45 76.1603L142.63 78.3044L148.108 94.6694L150.274 91.7022L154.558 85.7959Z" fill="url(#paint8_linear_24_433)"/>
<path d="M107.601 165.066L106.786 166.569L104.633 170.59C104.271 171.269 103.908 171.953 103.545 172.642L102.406 174.835C102.188 175.239 101.977 175.604 101.798 176.014L100.599 178.326L97.98 183.412C100.113 184.794 101.537 187.775 102.787 191.126C103.065 187.881 102.191 184.664 100.013 181.968C111.141 184.116 121.247 182.708 127.414 175.218C127.948 174.545 128.488 173.833 128.996 173.075C126.385 175.517 123.527 176.377 118.606 175.458L118.05 175.35C126.353 173.004 130.763 170.207 135.026 165.169C136.034 163.971 137.057 162.657 138.105 161.186C130.253 167.202 122.056 168.018 113.944 165.284L107.601 165.066Z" fill="url(#paint9_linear_24_433)"/>
<path d="M111.322 153.763L113.631 149.706L117.45 143.033C119.307 139.821 121.202 136.615 123.143 133.375C125.083 130.136 127.062 126.903 129.042 123.668C131.071 120.363 133.133 117.102 135.234 113.847C137.291 110.625 139.425 107.413 141.515 104.236C142.278 103.081 143.036 101.964 143.839 100.815C145.153 98.8699 146.506 96.9303 147.861 94.9908L148.066 94.6647L142.66 78.3497L142.355 78.7303C142.3 78.7941 142.242 78.856 142.181 78.9131C139.966 81.5973 137.707 84.3147 135.513 87.1209C133.275 89.9602 131.07 92.8439 128.892 95.8108C127.06 98.3137 125.266 100.822 123.467 103.369L122.409 104.917C120.235 108.122 118.191 111.267 116.362 114.285C114.277 117.701 112.408 120.99 110.724 124.109C109.629 126.166 108.586 128.15 107.631 130.07C106.839 131.695 106.079 133.366 105.324 134.997C103.57 138.859 102.01 142.747 100.604 146.659L106.11 163.107L107.182 161.155L109.372 157.227C109.74 156.567 110.106 155.903 110.472 155.235L111.322 153.763Z" fill="url(#paint10_linear_24_433)"/>
<path d="M100.413 147.183C98.9377 151.332 97.6705 155.512 96.6629 159.729L96.1345 162.037C95.6386 160.894 94.8418 159.713 93.9437 158.599L93.3943 157.939C93.3012 157.83 93.2075 157.722 93.1134 157.617L92.5454 156.99L91.977 156.392L91.4177 155.828L90.6171 155.057L89.8909 154.388L89.0946 153.689L88.3785 153.099C92.0403 160.526 94.5893 167.711 94.132 174.335C91.5774 174.475 88.2744 173.238 84.5699 171.23C86.1645 173.185 87.6287 174.565 88.8637 175.532L89.417 175.95C89.5064 176.015 89.5944 176.078 89.6808 176.138L90.1813 176.475L90.6438 176.761L91.0661 177.002L91.4463 177.201L91.782 177.361L92.071 177.485C92.1152 177.503 92.1573 177.52 92.1973 177.536C89.0932 177.275 85.653 178.581 82.0993 180.382L80.9108 180.999L79.7158 181.644C85.8382 180.126 90.6648 179.884 93.8846 181.149C92.3033 184.143 90.7116 187.208 89.1103 190.336L86.7015 195.079C83.0778 202.264 79.4077 209.763 75.7005 217.517L73.2236 222.723C72.3962 224.47 71.567 226.229 70.7363 228C72.4325 227.773 73.5665 226.791 74.3253 225.398L77.1301 219.451L79.7113 214.104L83.0099 207.39L85.9233 201.552L88.8099 195.848L91.5523 190.498L95.3581 183.182L98.0603 178.061L98.989 176.315L99.7896 174.837L100.518 173.451L101.628 171.401L103.904 167.221C104.29 166.515 104.678 165.806 105.071 165.09L106.147 163.15L106.153 163.111L100.648 146.663C100.577 146.785 100.526 146.891 100.48 147.005L100.413 147.183Z" fill="url(#paint11_linear_24_433)"/>
<path d="M149.156 96.1727L148.299 97.4327C147.723 98.2986 147.129 99.1618 146.541 100.037L143.716 104.297L141.7 107.326L141.188 108.109C140.422 109.284 139.653 110.478 138.877 111.691L136.518 115.383C134.953 117.846 133.377 120.383 131.767 123.012L130.553 125.001C128.625 128.163 126.634 131.474 124.632 134.863L122.327 138.797C121.165 140.786 119.989 142.813 118.804 144.897C118.101 146.124 117.395 147.369 116.685 148.631L113.181 154.881L112.108 156.828L109.928 160.796C109.195 162.133 108.458 163.485 107.72 164.85C107.669 164.922 107.619 164.993 107.607 165.071L113.951 165.289C113.84 165.233 113.724 165.216 113.574 165.155C121.192 165.322 131.934 161.197 139.342 155.236C142.754 152.489 145.975 149.16 149.098 145.145C151.436 142.162 153.671 138.807 155.929 135.02C157.876 131.742 159.828 128.149 161.749 124.233C159.913 124.874 157.838 125.243 155.6 125.389L154.403 125.451C154.137 125.466 153.873 125.462 153.598 125.463L153.173 125.469C160.542 123.819 165.679 119.306 169.79 113.415C167.786 114.388 164.562 115.578 160.878 115.869C160.395 115.917 159.879 115.92 159.364 115.924C159.287 115.913 159.207 115.918 159.117 115.917L158.971 115.906C161.522 115.251 163.741 114.429 165.723 113.334C166.008 113.191 166.279 113.028 166.544 112.858L166.94 112.601C167.551 112.215 168.128 111.786 168.706 111.355L169.785 110.484C170.602 109.772 171.391 108.978 172.115 108.094L172.578 107.558C172.651 107.469 172.722 107.378 172.789 107.282L173.372 106.459C173.466 106.326 173.555 106.194 173.641 106.061C174.737 104.489 175.664 103.044 176.447 101.73L176.774 101.175C177.197 100.446 177.571 99.7876 177.9 99.1628L178.285 98.4273L178.869 97.2444C178.989 96.9991 179.099 96.765 179.196 96.5415L179.366 96.1444L179.656 95.4261C179.741 95.2044 179.815 95.0008 179.877 94.8167L179.962 94.5554C179.788 94.6619 179.597 94.7658 179.39 94.8557L179.068 94.9786C176.793 95.9119 173.017 96.5458 170.031 96.6619C169.992 96.6562 169.953 96.6505 169.908 96.6836L169.313 96.687C169.208 96.6908 169.102 96.6971 168.995 96.7078L169.161 96.653L149.235 95.9071C149.251 96.0678 149.201 96.1397 149.156 96.1727Z" fill="url(#paint12_linear_24_433)"/>
<path d="M177.06 59.7924C176.349 60.5985 175.612 61.4453 174.853 62.3311L173.304 64.1546L171.693 66.0797L169.746 68.4305C169.705 68.4845 169.666 68.5403 169.63 68.6012C168.52 69.9626 167.381 71.3891 166.205 72.8896L164.415 75.1969C164.111 75.5911 163.805 75.9902 163.498 76.3943L160.925 79.7959L159.243 82.0492C158.392 83.1976 157.524 84.3797 156.639 85.6018L155.75 86.8374C154.856 88.0641 153.959 89.3262 153.047 90.6227L151.2 93.2608L149.299 95.988L169.225 96.7339C175.31 94.9342 178.214 92.9451 181.201 89.8593C181.798 89.2341 182.401 88.5653 183.008 87.8693L183.617 87.1648C186.093 84.3208 188.576 81.1611 190.826 77.9673C193.021 74.884 195.016 71.8111 196.572 69.0302C197.588 67.2389 198.425 65.58 199.078 64.0921C199.627 62.7866 200.085 61.5473 200.5 60.3411L198.434 60.3771L196.308 60.3992L194.144 60.4068L191.962 60.3991C191.597 60.3964 191.233 60.3931 190.87 60.3892L188.699 60.3574L186.56 60.3089C186.207 60.2993 185.857 60.2891 185.509 60.2781L183.457 60.2031C183.12 60.1891 182.789 60.1744 182.46 60.1589L180.54 60.0562C179.295 59.9814 178.127 59.8937 177.06 59.7924Z" fill="url(#paint13_linear_24_433)"/>
<defs>
<linearGradient id="paint0_linear_24_433" x1="58.7065" y1="45.6117" x2="91.7509" y2="34.8361" gradientUnits="userSpaceOnUse">
<stop stop-color="#F69923"/>
<stop offset="0.3123" stop-color="#F79A23"/>
<stop offset="0.8383" stop-color="#E97826"/>
</linearGradient>
<linearGradient id="paint1_linear_24_433" x1="56.0989" y1="226.94" x2="96.6434" y2="65.9746" gradientUnits="userSpaceOnUse">
<stop offset="0.3233" stop-color="#9E2064"/>
<stop offset="0.6302" stop-color="#C92037"/>
<stop offset="0.7514" stop-color="#CD2335"/>
<stop offset="1" stop-color="#E97826"/>
</linearGradient>
<linearGradient id="paint2_linear_24_433" x1="92.4601" y1="221.87" x2="119.094" y2="92.1526" gradientUnits="userSpaceOnUse">
<stop stop-color="#282662"/>
<stop offset="0.0954839" stop-color="#662E8D"/>
<stop offset="0.7882" stop-color="#9F2064"/>
<stop offset="0.9487" stop-color="#CD2032"/>
</linearGradient>
<linearGradient id="paint3_linear_24_433" x1="63.051" y1="218.14" x2="122.003" y2="74.7875" gradientUnits="userSpaceOnUse">
<stop offset="0.3233" stop-color="#9E2064"/>
<stop offset="0.6302" stop-color="#C92037"/>
<stop offset="0.7514" stop-color="#CD2335"/>
<stop offset="1" stop-color="#E97826"/>
</linearGradient>
<linearGradient id="paint4_linear_24_433" x1="77.7826" y1="211.516" x2="125.253" y2="152.372" gradientUnits="userSpaceOnUse">
<stop stop-color="#282662"/>
<stop offset="0.0954839" stop-color="#662E8D"/>
<stop offset="0.7882" stop-color="#9F2064"/>
<stop offset="0.9487" stop-color="#CD2032"/>
</linearGradient>
<linearGradient id="paint5_linear_24_433" x1="81.4403" y1="243.147" x2="124.783" y2="37.9778" gradientUnits="userSpaceOnUse">
<stop offset="0.3233" stop-color="#9E2064"/>
<stop offset="0.6302" stop-color="#C92037"/>
<stop offset="0.7514" stop-color="#CD2335"/>
<stop offset="1" stop-color="#E97826"/>
</linearGradient>
<linearGradient id="paint6_linear_24_433" x1="68.9585" y1="293.862" x2="109.748" y2="56.4201" gradientUnits="userSpaceOnUse">
<stop offset="0.3233" stop-color="#9E2064"/>
<stop offset="0.6302" stop-color="#C92037"/>
<stop offset="0.7514" stop-color="#CD2335"/>
<stop offset="1" stop-color="#E97826"/>
</linearGradient>
<linearGradient id="paint7_linear_24_433" x1="177.105" y1="49.8378" x2="219.993" y2="38.4066" gradientUnits="userSpaceOnUse">
<stop stop-color="#F69923"/>
<stop offset="0.3123" stop-color="#F79A23"/>
<stop offset="0.8383" stop-color="#E97826"/>
</linearGradient>
<linearGradient id="paint8_linear_24_433" x1="113.879" y1="234.181" x2="201.143" y2="74.3014" gradientUnits="userSpaceOnUse">
<stop offset="0.3233" stop-color="#9E2064"/>
<stop offset="0.6302" stop-color="#C92037"/>
<stop offset="0.7514" stop-color="#CD2335"/>
<stop offset="1" stop-color="#E97826"/>
</linearGradient>
<linearGradient id="paint9_linear_24_433" x1="89.7067" y1="199.878" x2="129.113" y2="133.693" gradientUnits="userSpaceOnUse">
<stop stop-color="#282662"/>
<stop offset="0.0954839" stop-color="#662E8D"/>
<stop offset="0.7882" stop-color="#9F2064"/>
<stop offset="0.9487" stop-color="#CD2032"/>
</linearGradient>
<linearGradient id="paint10_linear_24_433" x1="104.98" y1="222.859" x2="193.473" y2="73.0601" gradientUnits="userSpaceOnUse">
<stop offset="0.3233" stop-color="#9E2064"/>
<stop offset="0.6302" stop-color="#C92037"/>
<stop offset="0.7514" stop-color="#CD2335"/>
<stop offset="1" stop-color="#E97826"/>
</linearGradient>
<linearGradient id="paint11_linear_24_433" x1="83.8569" y1="209.54" x2="132.396" y2="137.325" gradientUnits="userSpaceOnUse">
<stop stop-color="#282662"/>
<stop offset="0.0954839" stop-color="#662E8D"/>
<stop offset="0.7882" stop-color="#9F2064"/>
<stop offset="0.9487" stop-color="#CD2032"/>
</linearGradient>
<linearGradient id="paint12_linear_24_433" x1="82.4682" y1="222.996" x2="184.484" y2="59.53" gradientUnits="userSpaceOnUse">
<stop offset="0.3233" stop-color="#9E2064"/>
<stop offset="0.6302" stop-color="#C92037"/>
<stop offset="0.7514" stop-color="#CD2335"/>
<stop offset="1" stop-color="#E97826"/>
</linearGradient>
<linearGradient id="paint13_linear_24_433" x1="82.8065" y1="158.222" x2="148.141" y2="50.5454" gradientUnits="userSpaceOnUse">
<stop offset="0.3233" stop-color="#9E2064"/>
<stop offset="0.6302" stop-color="#C92037"/>
<stop offset="0.7514" stop-color="#CD2335"/>
<stop offset="1" stop-color="#E97826"/>
</linearGradient>
</defs>
</svg>
