<svg width="256" height="256" viewBox="0 0 256 256" fill="none" xmlns="http://www.w3.org/2000/svg">
<path d="M63.8452 41.4281C63.548 42.1295 63.2666 43.0369 63.005 44.1309L62.8126 44.9862C62.7498 45.2827 62.6881 45.5906 62.6279 45.9097L62.4515 46.8995L62.2836 47.9539L62.1246 49.0711L61.9749 50.2492L61.8349 51.4866L61.7049 52.7814C61.6841 53.0018 61.6637 53.2246 61.6438 53.4496L61.5296 54.827L61.4263 56.2573L61.3345 57.7386C61.3201 57.9897 61.3063 58.2427 61.293 58.4978L70.4684 62.9386C70.3296 57.5818 70.502 52.5165 70.9846 47.8626L71.0793 47.0331L71.0139 47.7931L70.9323 49.0495L70.9024 49.649L70.8521 51.0166L70.8333 51.7857L70.8128 53.4971L70.8157 54.9339L70.8373 56.5039L70.8636 57.6255L70.9228 59.4212L70.9768 60.6946L71.0434 62.0297C71.0557 62.2574 71.0684 62.4877 71.0817 62.7205C72.7908 61.3269 74.8377 59.4975 76.9664 57.4977L78.3947 56.1421C78.6339 55.9129 78.8733 55.6824 79.1127 55.4509L80.5457 54.0524L81.9609 52.6471L83.3411 51.2526L84.6696 49.8862C83.2016 46.8869 81.6185 44.6833 80.1459 43.0738L79.6593 42.5589C79.3382 42.23 79.0237 41.9293 78.7184 41.6547L78.2676 41.2619L77.8325 40.9065C77.6902 40.7941 77.5509 40.6876 77.4148 40.5868L77.0164 40.3012L76.6393 40.0479L76.1174 39.7252L75.6536 39.4659L75.1365 39.2094L74.7487 39.0426L74.041 38.7868L73.5256 38.6215L73.0223 38.4793L72.6392 38.3829L72.2228 38.2897C72.1509 38.2746 72.0778 38.2598 72.0035 38.2454L71.5452 38.1639L71.0642 38.0948C68.5275 37.7769 65.2504 38.1102 63.8452 41.4281Z" fill="url(#paint0_linear_36_1175)"/>
<path d="M72.8661 90.0228C72.4426 86.9695 72.0559 83.9664 71.7062 81.0137C71.4223 78.5616 71.1899 76.1461 70.9996 73.7541L70.8364 71.6098C70.8336 71.5531 70.832 71.4984 70.8326 71.4465C70.632 68.5389 70.4868 65.7067 70.422 62.9315L61.2649 58.5159L61.2399 59.077L61.1784 60.2421C61.0872 62.4358 61.0193 64.767 61.0002 67.2171C60.9779 69.979 61.0042 72.8598 61.054 75.878C61.1187 78.6533 61.2322 81.5474 61.3825 84.4919C61.4939 86.3822 61.6156 88.2867 61.7555 90.2159L61.9236 92.447L74.1734 98.653L73.7415 95.7619L72.8661 90.0228Z" fill="url(#paint1_linear_36_1175)"/>
<path d="M90.5845 161.159L90.7742 161.812L91.9908 165.947C92.1655 166.534 92.3426 167.124 92.5227 167.717L93.1034 169.596L93.3019 170.272C93.337 170.383 93.3747 170.492 93.4171 170.603L95.3905 176.927C97.1382 176.565 99.2686 177.218 101.519 178.199L102.425 178.608C100.768 176.615 98.4751 175.281 95.7349 174.973C103.238 169.969 108.174 163.523 107.48 155.834C107.406 155.154 107.314 154.448 107.178 153.737C107.065 156.571 105.933 158.651 102.654 160.875L102.25 161.142C105.642 155.174 106.575 151.124 106.174 145.889C106.075 144.647 105.92 143.33 105.692 141.912C104.607 149.707 100.421 154.752 94.2986 157.737L90.5845 161.159Z" fill="url(#paint2_linear_36_1175)"/>
<path d="M86.1955 152.012L85.4164 149.091L83.8491 143.177C83.1056 140.32 82.3872 137.445 81.6754 134.526C80.9637 131.607 80.2771 128.669 79.5905 125.732C78.8921 122.726 78.2373 119.725 77.6077 116.708L76.986 113.724L75.7924 107.754C75.5792 106.673 75.3844 105.618 75.1963 104.518C74.8537 102.682 74.5362 100.827 74.2187 98.9717L74.1532 98.6718L61.9722 92.4541L62.012 92.8401C62.0167 92.9069 62.0187 92.9742 62.016 93.0406C62.2617 95.799 62.5008 98.601 62.827 101.416C63.1466 104.276 63.5098 107.141 63.9349 110.038C64.2962 112.48 64.6826 114.903 65.0874 117.351L65.3528 118.819C65.9138 121.849 66.5133 124.773 67.1646 127.504C67.8932 130.605 68.6735 133.512 69.4623 136.22C69.9926 137.996 70.5111 139.704 71.0431 141.324L71.515 142.689L72.4909 145.404C73.6552 148.571 74.9452 151.646 76.3357 154.647L88.6475 160.885C87.9914 158.621 87.3854 156.32 86.7175 153.987L86.3763 152.68L86.1955 152.012Z" fill="url(#paint3_linear_36_1175)"/>
<path d="M76.5134 155.057C77.9971 158.231 79.6157 161.306 81.4025 164.258L82.3933 165.86C81.2268 165.39 79.7513 165.157 78.3177 165.052L77.6061 165.01C77.4886 165.005 77.3718 165.001 77.2559 164.997L76.5729 164.982L75.6103 164.986L74.751 165.01L74.028 165.048L73.0157 165.131C73.0072 165.132 73.0035 165.133 73.0046 165.133C79.2299 167.292 84.6893 169.937 88.1331 173.944C86.7645 175.451 84.2026 176.597 80.9819 177.53C83.3797 177.789 85.2063 177.684 86.5235 177.469L87.057 177.371C87.1408 177.354 87.222 177.336 87.3007 177.319L87.7426 177.209L88.1248 177.097L88.5887 176.936L88.8264 176.838C86.8484 178.487 85.6107 181.297 84.5819 184.446L84.2266 185.571C84.1685 185.76 84.111 185.95 84.0538 186.141C86.6732 181.859 89.2713 179.025 91.8015 177.941C94.6272 187.311 97.8951 197.283 101.482 207.689L103.159 212.522C103.725 214.143 104.299 215.773 104.879 217.413C105.713 216.337 105.807 215.146 105.457 213.933L104.31 210.694L103.004 206.908L100.98 200.903L99.3218 195.868L97.4892 190.188L95.7395 184.645L94.1334 179.451L92.9519 175.562L91.9903 172.351C91.8617 171.929 91.7441 171.5 91.6175 171.066L91.2553 169.873L90.2169 166.286L89.1608 162.595L88.686 160.893L88.6674 160.869L76.3557 154.631C76.3837 154.739 76.4146 154.828 76.452 154.918L76.5134 155.057Z" fill="url(#paint4_linear_36_1175)"/>
<path d="M75.605 98.9156L75.8233 100.109C75.9812 100.921 76.1278 101.741 76.2837 102.566L77.6156 109.4L78.1048 111.78L78.8174 115.142C78.939 115.711 79.0616 116.283 79.1851 116.859C79.5528 118.562 79.9404 120.291 80.3465 122.057L81.1828 125.64L82.0152 129.136C82.1576 129.726 82.3018 130.32 82.4476 130.918L83.3415 134.535L84.2354 138.051C84.6891 139.827 85.156 141.633 85.6494 143.475C86.0094 144.834 86.3833 146.213 86.7656 147.61L88.0461 152.272L89.0136 155.698L90.0127 159.198C90.182 159.787 90.3527 160.378 90.5248 160.971C90.5367 161.039 90.5484 161.108 90.5853 161.158L94.2993 157.737L94.2093 157.773L94.0111 157.87C98.4187 153.708 102.196 145.367 103.06 137.85C103.457 134.388 103.42 130.703 102.944 126.683C102.601 123.686 101.992 120.537 101.154 117.13C100.424 114.187 99.5211 111.06 98.4205 107.769C97.739 109.158 96.7709 110.526 95.5849 111.86L94.9416 112.565L94.7215 112.794L94.2548 113.262C97.5056 108.208 97.8922 102.781 96.9281 97.1474C96.3371 98.8185 95.1768 101.294 93.252 103.519C93.0059 103.816 92.716 104.105 92.4262 104.396C92.3759 104.433 92.3339 104.481 92.2816 104.53L92.1933 104.605C93.2719 102.808 94.0689 101.102 94.5794 99.3738C94.6608 99.1336 94.723 98.8904 94.7786 98.6463L94.8588 98.2794C94.9893 97.7196 95.0762 97.1531 95.1631 96.5867L95.2867 95.4906C95.3355 94.8458 95.3494 94.1831 95.3178 93.5103L95.233 92.2719C95.2247 92.1806 95.2139 92.0897 95.1982 91.9981L95.0688 91.2051C95.047 91.0779 95.024 90.9529 94.9983 90.8301C94.7464 89.3578 94.4698 88.0456 94.1846 86.8818L93.9173 85.8372L93.6757 84.9548L93.3616 83.911L92.9534 82.6881C92.9102 82.5651 92.867 82.4469 92.823 82.3343L92.5765 81.7175C92.4974 81.5277 92.4216 81.3542 92.3498 81.1979L92.147 80.781C92.108 80.9386 92.0577 81.1043 91.9909 81.2708L91.8775 81.5202C91.1106 83.3203 89.3268 85.7896 87.7002 87.5248C87.6751 87.5432 87.6499 87.5617 87.6432 87.6053L87.3077 87.9404C87.2506 88.001 87.1937 88.0641 87.139 88.1301L87.2026 88.006L75.501 98.7212C75.5999 98.8033 75.6116 98.8719 75.605 98.9156Z" fill="url(#paint5_linear_36_1175)"/>
<path d="M71.0835 62.7233C71.1307 63.5779 71.1873 64.4687 71.2525 65.3947L71.3943 67.2934C71.4199 67.6175 71.4462 67.9456 71.4735 68.2774L71.6475 70.3136C71.6783 70.6605 71.7098 71.0112 71.7422 71.3655L71.7696 71.7034C71.7762 71.7573 71.7854 71.8107 71.7993 71.8649C71.8984 72.9087 72.0086 73.9824 72.1305 75.0897L72.39 77.3501C72.4819 78.1193 72.5791 78.9043 72.6819 79.7065L73.1689 83.3831C73.3965 85.0522 73.643 86.7815 73.9186 88.585L74.131 89.9517C74.341 91.3443 74.5741 92.7682 74.8209 94.2306L75.5925 98.7394L87.2942 88.0242C89.7343 83.604 90.2677 80.8536 90.2345 77.4365C90.2229 76.749 90.1906 76.0333 90.1453 75.2998L90.096 74.5608C89.9087 71.566 89.5488 68.3888 89.0381 65.3221C88.5577 62.3493 87.97 59.4938 87.2969 57.049C86.8707 55.4672 86.4176 54.0596 85.9563 52.8515C85.5369 51.8059 85.1041 50.8475 84.6647 49.9326L83.338 51.2871C83.112 51.5159 82.8839 51.746 82.654 51.977L81.2555 53.3707L79.8303 54.7683L78.3954 56.1521C78.1563 56.3806 77.9176 56.6078 77.6794 56.8333L76.2615 58.1631C74.3888 59.9014 72.6027 61.4845 71.0835 62.7233Z" fill="url(#paint6_linear_36_1175)"/>
<path d="M183.738 43.723C183.363 43.8775 182.954 44.0717 182.514 44.304L181.831 44.681C181.361 44.9512 180.859 45.2589 180.329 45.603L179.513 46.1461L178.656 46.7427L177.759 47.3917L176.823 48.0923C176.663 48.2133 176.503 48.3364 176.341 48.4616L175.35 49.2377L174.324 50.0629L173.264 50.9363L172.173 51.8568L171.05 52.8236L169.899 53.8357L168.72 54.8921C168.522 55.0718 168.321 55.2533 168.121 55.4366L171.979 66.3016C176.152 61.848 180.345 57.8832 184.459 54.5048L185.905 53.3306L186.01 53.2506L185.015 54.0604L184.039 54.9042L182.981 55.861L181.977 56.8016L181.134 57.6132L180.528 58.2065L179.217 59.5215L178.145 60.6235L176.599 62.252L175.777 63.1364L174.922 64.0686L173.581 65.5582L172.646 66.6133C173.606 66.7045 174.657 66.7834 175.778 66.8506L177.506 66.9426L179.319 67.0175L181.199 67.0757L183.126 67.1177L185.083 67.1438C185.411 67.1468 185.739 67.1493 186.067 67.151L188.036 67.1543C188.364 67.1536 188.691 67.1522 189.017 67.1503L190.956 67.1316C191.277 67.1273 191.595 67.1225 191.912 67.117L193.781 67.0774C195.316 62.5019 195.668 58.8227 195.549 56.0755L195.508 55.38L195.448 54.7269C195.436 54.6216 195.424 54.518 195.412 54.4163L195.329 53.827L195.236 53.2807C195.22 53.1932 195.202 53.1074 195.185 53.0235L195.08 52.5415L194.97 52.1026L194.858 51.707L194.747 51.3548L194.541 50.781L194.374 50.3825L193.975 49.5607L193.743 49.122L193.548 48.7773L193.323 48.3987L193.067 47.9929L192.782 47.5667L192.466 47.1267C190.706 44.756 187.7 42.0882 183.738 43.723Z" fill="url(#paint7_linear_36_1175)"/>
<path d="M152.395 90.0162C154.479 87.2218 156.554 84.4972 158.619 81.8422C160.768 79.0929 162.937 76.4534 165.131 73.8887C165.262 73.7297 165.392 73.5706 165.517 73.4464C167.665 70.9464 169.799 68.5511 171.951 66.2655L168.088 55.4353L167.622 55.8672L166.647 56.7562C164.831 58.4497 162.924 60.2725 160.962 62.2297C159.855 63.3324 158.736 64.4688 157.598 65.6382L155.295 68.0207C154.907 68.4251 154.517 68.833 154.123 69.2445C151.971 71.5301 149.763 73.9501 147.545 76.4399C146.132 78.0501 144.717 79.68 143.297 81.3442L141.659 83.2739L146.59 98.0023L148.539 95.3319L152.395 90.0162Z" fill="url(#paint8_linear_36_1175)"/>
<path d="M110.133 161.359L109.4 162.712L107.462 166.331C107.136 166.942 106.81 167.557 106.483 168.178L105.458 170.152C105.261 170.515 105.071 170.844 104.91 171.212L103.832 173.294L101.474 177.871C103.394 179.115 104.675 181.798 105.801 184.813C106.051 181.893 105.264 178.997 103.304 176.571C113.319 178.504 122.415 177.237 127.965 170.497C128.446 169.891 128.932 169.249 129.389 168.568C127.038 170.766 124.467 171.54 120.038 170.713L119.537 170.615C127.01 168.504 130.979 165.986 134.815 161.452C135.722 160.374 136.644 159.191 137.587 157.868C130.52 163.282 123.142 164.016 115.842 161.555L110.133 161.359Z" fill="url(#paint9_linear_36_1175)"/>
<path d="M113.482 151.187L115.561 147.535L118.997 141.53C120.669 138.638 122.374 135.753 124.121 132.838C125.867 129.923 127.649 127.012 129.43 124.101C131.256 121.127 133.112 118.192 135.003 115.262C136.854 112.362 138.775 109.472 140.655 106.612C141.343 105.573 142.024 104.568 142.747 103.534C143.93 101.783 145.148 100.037 146.367 98.2917L146.552 97.9982L141.687 83.3147L141.411 83.6572C141.363 83.7147 141.31 83.7704 141.255 83.8217C139.262 86.2375 137.228 88.6831 135.254 91.2088C133.24 93.7641 131.256 96.3595 129.295 99.0297C127.646 101.282 126.032 103.54 124.413 105.832L123.46 107.225C121.504 110.11 119.664 112.94 118.018 115.656C116.142 118.731 114.46 121.691 112.944 124.498C111.959 126.349 111.02 128.135 110.16 129.863C109.447 131.326 108.763 132.829 108.084 134.298C106.505 137.773 105.101 141.273 103.836 144.793L108.791 159.597L109.756 157.839L111.727 154.304C112.058 153.71 112.388 153.113 112.717 152.511L113.482 151.187Z" fill="url(#paint10_linear_36_1175)"/>
<path d="M103.664 145.265C102.336 148.999 101.196 152.761 100.289 156.556L99.8134 158.633C99.3672 157.605 98.65 156.542 97.8417 155.539L97.3472 154.945C97.2635 154.847 97.1791 154.75 97.0944 154.655L96.5832 154.091L96.0716 153.553L95.5683 153.045L94.8478 152.351L94.1942 151.749L93.4775 151.12L92.833 150.589C96.1286 157.274 98.4227 163.74 98.0112 169.701C95.712 169.827 92.7393 168.715 89.4053 166.907C90.8404 168.667 92.1583 169.909 93.2697 170.779L93.7677 171.155C93.8482 171.213 93.9273 171.27 94.0051 171.324L94.4556 171.627L94.8718 171.885L95.2519 172.102L95.594 172.281L95.8962 172.425L96.1562 172.537C96.196 172.553 96.234 172.569 96.27 172.582C93.4763 172.347 90.3801 173.523 87.1818 175.143L86.1121 175.699L85.0366 176.279C90.5467 174.914 94.8907 174.696 97.7885 175.834C96.3653 178.529 94.9328 181.287 93.4917 184.103L91.3237 188.372C88.0624 194.837 84.7593 201.587 81.4228 208.565L79.1936 213.25C78.449 214.823 77.7027 216.407 76.9551 218C78.4816 217.796 79.5022 216.912 80.1851 215.658L82.7094 210.306L85.0326 205.494L88.0013 199.451L90.6234 194.197L93.2213 189.063L95.6894 184.248L99.1146 177.664L101.547 173.055L102.382 171.483L103.103 170.153L103.759 168.906L104.757 167.061L106.806 163.299C107.153 162.664 107.503 162.025 107.856 161.381L108.825 159.635L108.83 159.6L103.875 144.797C103.811 144.906 103.766 145.002 103.724 145.104L103.664 145.265Z" fill="url(#paint11_linear_36_1175)"/>
<path d="M147.532 99.3555L146.761 100.489C146.242 101.269 145.708 102.046 145.179 102.834L142.636 106.667L140.822 109.393L140.361 110.099C139.672 111.155 138.979 112.23 138.281 113.322L136.158 116.645C134.749 118.862 133.331 121.145 131.882 123.511L130.79 125.301C129.054 128.147 127.263 131.127 125.461 134.177L123.386 137.717C122.341 139.508 121.282 141.332 120.216 143.207C119.583 144.311 118.948 145.433 118.308 146.568L115.155 152.193L114.189 153.945L112.227 157.516C111.568 158.72 110.904 159.937 110.24 161.165C110.194 161.23 110.149 161.294 110.139 161.364L115.848 161.56C115.748 161.51 115.644 161.494 115.509 161.44C122.365 161.59 132.033 157.877 138.7 152.512C141.77 150.04 144.669 147.044 147.48 143.43C149.585 140.745 151.595 137.726 153.628 134.318C155.38 131.368 157.137 128.134 158.866 124.61C157.213 125.187 155.347 125.518 153.332 125.65L152.255 125.706C152.016 125.719 151.778 125.716 151.53 125.716L151.148 125.722C157.78 124.237 162.403 120.176 166.103 114.874C164.3 115.749 161.398 116.821 158.082 117.082C157.647 117.126 157.183 117.128 156.72 117.132C156.65 117.121 156.578 117.127 156.497 117.126L156.366 117.115C158.662 116.526 160.659 115.786 162.443 114.8C162.699 114.672 162.943 114.525 163.182 114.372L163.538 114.141C164.088 113.794 164.608 113.407 165.128 113.02L166.098 112.236C166.834 111.595 167.544 110.88 168.196 110.085L168.612 109.602C168.678 109.522 168.742 109.44 168.802 109.354L169.327 108.613C169.411 108.493 169.492 108.375 169.569 108.255C170.556 106.84 171.39 105.54 172.094 104.357L172.388 103.858C172.77 103.201 173.106 102.609 173.402 102.047L173.749 101.385L174.274 100.32C174.382 100.099 174.481 99.8885 174.568 99.6874L174.721 99.3299L174.982 98.6835C175.059 98.484 175.125 98.3007 175.182 98.135L175.258 97.8999C175.101 97.9957 174.929 98.0893 174.743 98.1702L174.453 98.2808C172.405 99.1207 169.007 99.6912 166.32 99.7957C166.285 99.7906 166.25 99.7855 166.21 99.8153L165.674 99.8184C165.58 99.8217 165.484 99.8275 165.388 99.8371L165.537 99.7878L147.604 99.1164C147.618 99.261 147.573 99.3257 147.532 99.3555Z" fill="url(#paint12_linear_36_1175)"/>
<path d="M172.646 66.613C172.006 67.3386 171.343 68.1007 170.66 68.8979L169.266 70.539L167.816 72.2716L166.064 74.3873C166.026 74.4359 165.992 74.4862 165.959 74.541C164.96 75.7663 163.935 77.0501 162.877 78.4006L161.265 80.4771C160.992 80.8319 160.717 81.1911 160.44 81.5548L158.125 84.6162L156.611 86.6442C155.845 87.6777 155.064 88.7416 154.267 89.8415L153.467 90.9536C152.663 92.0576 151.855 93.1935 151.034 94.3603L149.372 96.7346L147.661 99.1891L165.594 99.8604C171.071 98.2407 173.685 96.4505 176.373 93.6733C176.911 93.1106 177.453 92.5087 177.999 91.8823L178.547 91.2482C180.776 88.6887 183.011 85.8449 185.036 82.9705C187.011 80.1955 188.807 77.4299 190.207 74.9271C191.121 73.3149 191.875 71.8219 192.463 70.4828C192.956 69.3078 193.369 68.1925 193.742 67.1069L191.882 67.1393L189.969 67.1592L188.022 67.166L186.058 67.1591C185.73 67.1567 185.402 67.1537 185.075 67.1502L183.121 67.1216L181.196 67.0779C180.879 67.0693 180.563 67.0601 180.25 67.0502L178.403 66.9827C178.101 66.9701 177.802 66.9569 177.507 66.9429L175.778 66.8505C174.658 66.7832 173.606 66.7042 172.646 66.613Z" fill="url(#paint13_linear_36_1175)"/>
<defs>
<linearGradient id="paint0_linear_36_1175" x1="66.1278" y1="53.8505" x2="95.8678" y2="44.1524" gradientUnits="userSpaceOnUse">
<stop stop-color="#F69923"/>
<stop offset="0.3123" stop-color="#F79A23"/>
<stop offset="0.8383" stop-color="#E97826"/>
</linearGradient>
<linearGradient id="paint1_linear_36_1175" x1="63.7812" y1="217.046" x2="100.271" y2="72.1771" gradientUnits="userSpaceOnUse">
<stop offset="0.3233" stop-color="#9E2064"/>
<stop offset="0.6302" stop-color="#C92037"/>
<stop offset="0.7514" stop-color="#CD2335"/>
<stop offset="1" stop-color="#E97826"/>
</linearGradient>
<linearGradient id="paint2_linear_36_1175" x1="96.5062" y1="212.483" x2="120.477" y2="95.7374" gradientUnits="userSpaceOnUse">
<stop stop-color="#282662"/>
<stop offset="0.0954839" stop-color="#662E8D"/>
<stop offset="0.7882" stop-color="#9F2064"/>
<stop offset="0.9487" stop-color="#CD2032"/>
</linearGradient>
<linearGradient id="paint3_linear_36_1175" x1="70.0381" y1="209.126" x2="123.095" y2="80.1087" gradientUnits="userSpaceOnUse">
<stop offset="0.3233" stop-color="#9E2064"/>
<stop offset="0.6302" stop-color="#C92037"/>
<stop offset="0.7514" stop-color="#CD2335"/>
<stop offset="1" stop-color="#E97826"/>
</linearGradient>
<linearGradient id="paint4_linear_36_1175" x1="83.2968" y1="203.165" x2="126.02" y2="149.934" gradientUnits="userSpaceOnUse">
<stop stop-color="#282662"/>
<stop offset="0.0954839" stop-color="#662E8D"/>
<stop offset="0.7882" stop-color="#9F2064"/>
<stop offset="0.9487" stop-color="#CD2032"/>
</linearGradient>
<linearGradient id="paint5_linear_36_1175" x1="86.5887" y1="231.633" x2="125.598" y2="46.98" gradientUnits="userSpaceOnUse">
<stop offset="0.3233" stop-color="#9E2064"/>
<stop offset="0.6302" stop-color="#C92037"/>
<stop offset="0.7514" stop-color="#CD2335"/>
<stop offset="1" stop-color="#E97826"/>
</linearGradient>
<linearGradient id="paint6_linear_36_1175" x1="75.355" y1="277.276" x2="112.066" y2="63.5779" gradientUnits="userSpaceOnUse">
<stop offset="0.3233" stop-color="#9E2064"/>
<stop offset="0.6302" stop-color="#C92037"/>
<stop offset="0.7514" stop-color="#CD2335"/>
<stop offset="1" stop-color="#E97826"/>
</linearGradient>
<linearGradient id="paint7_linear_36_1175" x1="172.687" y1="57.6542" x2="211.286" y2="47.3661" gradientUnits="userSpaceOnUse">
<stop stop-color="#F69923"/>
<stop offset="0.3123" stop-color="#F79A23"/>
<stop offset="0.8383" stop-color="#E97826"/>
</linearGradient>
<linearGradient id="paint8_linear_36_1175" x1="115.783" y1="223.563" x2="194.321" y2="79.6711" gradientUnits="userSpaceOnUse">
<stop offset="0.3233" stop-color="#9E2064"/>
<stop offset="0.6302" stop-color="#C92037"/>
<stop offset="0.7514" stop-color="#CD2335"/>
<stop offset="1" stop-color="#E97826"/>
</linearGradient>
<linearGradient id="paint9_linear_36_1175" x1="94.0282" y1="192.69" x2="129.494" y2="133.123" gradientUnits="userSpaceOnUse">
<stop stop-color="#282662"/>
<stop offset="0.0954839" stop-color="#662E8D"/>
<stop offset="0.7882" stop-color="#9F2064"/>
<stop offset="0.9487" stop-color="#CD2032"/>
</linearGradient>
<linearGradient id="paint10_linear_36_1175" x1="107.774" y1="213.373" x2="187.418" y2="78.554" gradientUnits="userSpaceOnUse">
<stop offset="0.3233" stop-color="#9E2064"/>
<stop offset="0.6302" stop-color="#C92037"/>
<stop offset="0.7514" stop-color="#CD2335"/>
<stop offset="1" stop-color="#E97826"/>
</linearGradient>
<linearGradient id="paint11_linear_36_1175" x1="88.7636" y1="201.386" x2="132.449" y2="136.393" gradientUnits="userSpaceOnUse">
<stop stop-color="#282662"/>
<stop offset="0.0954839" stop-color="#662E8D"/>
<stop offset="0.7882" stop-color="#9F2064"/>
<stop offset="0.9487" stop-color="#CD2032"/>
</linearGradient>
<linearGradient id="paint12_linear_36_1175" x1="87.5134" y1="213.496" x2="179.328" y2="66.377" gradientUnits="userSpaceOnUse">
<stop offset="0.3233" stop-color="#9E2064"/>
<stop offset="0.6302" stop-color="#C92037"/>
<stop offset="0.7514" stop-color="#CD2335"/>
<stop offset="1" stop-color="#E97826"/>
</linearGradient>
<linearGradient id="paint13_linear_36_1175" x1="87.818" y1="155.2" x2="146.619" y2="58.2908" gradientUnits="userSpaceOnUse">
<stop offset="0.3233" stop-color="#9E2064"/>
<stop offset="0.6302" stop-color="#C92037"/>
<stop offset="0.7514" stop-color="#CD2335"/>
<stop offset="1" stop-color="#E97826"/>
</linearGradient>
</defs>
</svg>
