<svg width="257" height="256" viewBox="0 0 257 256" fill="none" xmlns="http://www.w3.org/2000/svg">
<path d="M0.00195312 56C0.00195312 25.0721 25.074 0 56.002 0H200.002C230.93 0 256.002 25.0721 256.002 56V200C256.002 230.928 230.93 256 200.002 256H56.002C25.074 256 0.00195312 230.928 0.00195312 200V56Z" fill="#0F172A"/>
<path d="M52.4039 57C49.4838 57 46.7023 57.4964 44.0605 58.4887C39.3328 60.1899 35.4391 63.2382 32.38 67.6327C29.4599 71.8856 28 76.6346 28 81.8798V175.021C28 181.825 30.3636 187.708 35.0915 192.67C39.9582 197.49 45.7293 199.9 52.4039 199.9C59.2176 199.9 64.9879 197.49 69.7156 192.67C74.5824 187.708 77.016 181.825 77.016 175.021V158.083C77.0685 154.415 80.7748 155.377 82.648 158.083C86.1563 164.277 93.5941 169.597 102.254 169.567C110.914 169.536 118.107 165.171 121.86 158.083C123.282 156.373 127.29 153.46 127.701 158.083V175.021C127.701 181.825 130.064 187.708 134.793 192.67C139.659 197.49 145.43 199.9 152.104 199.9C158.918 199.9 164.689 197.49 169.416 192.67C174.283 187.708 176.717 181.825 176.717 175.021V81.8798C176.717 76.6346 175.187 71.8856 172.128 67.6327C169.208 63.2382 165.384 60.19 160.656 58.4887C157.876 57.4964 155.094 57 152.313 57C144.804 57 138.478 59.9775 133.332 65.9317L108.566 95.4808C108.01 95.9061 106.168 99.1575 102.253 99.1575C98.3399 99.1575 96.7063 95.9061 96.15 95.4808L71.175 65.9317C66.1691 59.9776 59.9118 57 52.4028 57H52.4039ZM206.725 57C200.884 57 195.879 59.1267 191.707 63.3798C187.674 67.4909 185.658 72.5238 185.658 78.478C185.658 84.432 187.674 89.5355 191.707 93.7883C195.879 97.8993 200.884 99.9555 206.725 99.9555C212.565 99.9555 217.571 97.8993 221.742 93.7883C225.914 89.5355 228 84.432 228 78.478C228 72.5238 225.914 67.4909 221.742 63.3798C217.571 59.1271 212.565 57 206.725 57ZM206.933 104.208C201.093 104.208 196.087 106.335 191.915 110.587C187.744 114.84 185.658 119.944 185.658 125.898V178.421C185.658 184.375 187.744 189.479 191.915 193.732C196.087 197.843 201.093 199.899 206.933 199.899C212.773 199.899 217.709 197.843 221.742 193.732C225.914 189.479 228 184.375 228 178.421V125.898C228 119.944 225.914 114.84 221.742 110.587C217.709 106.335 212.773 104.208 206.933 104.208Z" fill="#86B300"/>
</svg>
