<svg width="256" height="256" viewBox="0 0 256 256" fill="none" xmlns="http://www.w3.org/2000/svg">
<path d="M59.9557 64C57.3276 64 54.8243 64.4467 52.4467 65.3398C48.1917 66.8709 44.6873 69.6144 41.9342 73.5695C39.3061 77.397 37.9922 81.6711 37.9922 86.3918V170.219C37.9922 176.342 40.1195 181.638 44.3745 186.103C48.7545 190.441 53.9486 192.61 59.9557 192.61C66.088 192.61 71.2813 190.441 75.5362 186.103C79.9164 181.638 82.1066 176.342 82.1066 170.219V154.975C82.1538 151.673 85.4895 152.539 87.1754 154.975C90.3329 160.549 97.0269 165.337 104.821 165.31C112.614 165.282 119.088 161.354 122.466 154.975C123.746 153.436 127.353 150.814 127.723 154.975V170.219C127.723 176.342 129.85 181.638 134.106 186.103C138.485 190.441 143.679 192.61 149.686 192.61C155.819 192.61 161.012 190.441 165.267 186.103C169.647 181.638 171.837 176.342 171.837 170.219V86.3918C171.837 81.6711 170.461 77.397 167.708 73.5695C165.08 69.6144 161.638 66.871 157.383 65.3398C154.88 64.4467 152.377 64 149.874 64C143.116 64 137.422 66.6798 132.791 72.0386L110.502 98.6328C110.001 99.0155 108.343 101.942 104.82 101.942C101.298 101.942 99.8278 99.0155 99.3271 98.6328L76.8497 72.0386C72.3444 66.6798 66.7128 64 59.9547 64H59.9557ZM198.844 64C193.588 64 189.083 65.914 185.329 69.7418C181.699 73.4418 179.885 77.9714 179.885 83.3302C179.885 88.6888 181.699 93.282 185.329 97.1094C189.083 100.809 193.588 102.66 198.844 102.66C204.1 102.66 208.606 100.809 212.36 97.1094C216.115 93.282 217.992 88.6888 217.992 83.3302C217.992 77.9714 216.115 73.4418 212.36 69.7418C208.606 65.9143 204.1 64 198.844 64ZM199.032 106.487C193.776 106.487 189.27 108.401 185.516 112.229C181.761 116.056 179.885 120.65 179.885 126.008V173.279C179.885 178.638 181.761 183.231 185.516 187.059C189.27 190.758 193.776 192.609 199.032 192.609C204.287 192.609 208.73 190.758 212.36 187.059C216.115 183.231 217.992 178.638 217.992 173.279V126.008C217.992 120.65 216.115 116.056 212.36 112.229C208.73 108.401 204.287 106.487 199.032 106.487Z" fill="#86B300"/>
</svg>
