<svg width="256" height="256" viewBox="0 0 256 256" fill="none" xmlns="http://www.w3.org/2000/svg">
<g clip-path="url(#clip0_30_266)">
<path d="M196 0H60C26.8629 0 0 26.8629 0 60V196C0 229.137 26.8629 256 60 256H196C229.137 256 256 229.137 256 196V60C256 26.8629 229.137 0 196 0Z" fill="#023430"/>
<path d="M167.356 109.632C157.872 67.7987 138.108 56.6621 133.067 48.7897C130.988 45.3218 129.145 41.7169 127.554 38C127.288 41.7163 126.798 44.0576 123.639 46.8758C117.297 52.5309 90.3596 74.4818 88.0926 122.013C85.9804 166.331 120.673 193.658 125.256 196.483C128.78 198.217 133.072 196.52 135.166 194.928C151.889 183.451 174.738 152.853 167.374 109.632" fill="#10AA50"/>
<path d="M128.991 172.884C128.118 183.853 127.492 190.227 125.274 196.496C125.274 196.496 126.73 206.938 127.752 218H131.369C132.232 210.211 133.549 202.478 135.315 194.841C130.632 192.537 129.171 182.51 128.991 172.884Z" fill="#B8C4C2"/>
<path d="M135.308 194.847C130.576 192.661 129.207 182.422 128.997 172.884C130.167 157.149 130.508 141.364 130.019 125.593C129.771 117.319 130.136 48.9508 127.98 38.9414C129.456 42.3315 131.154 45.6195 133.066 48.7835C138.108 56.6621 157.878 67.7986 167.355 109.632C174.738 152.779 152.013 183.296 135.308 194.847Z" fill="#12924F"/>
</g>
<defs>
<clipPath id="clip0_30_266">
<rect width="256" height="256" fill="white"/>
</clipPath>
</defs>
</svg>
