<svg width="256" height="256" viewBox="0 0 256 256" fill="none" xmlns="http://www.w3.org/2000/svg">
<g clip-path="url(#clip0_196_190)">
<rect width="256" height="256" rx="56" fill="#14AA51"/>
<path d="M171.191 107.621C160.657 61.1298 135.762 45.8434 133.081 40.0031C130.149 35.8826 127.179 28.5537 127.179 28.5537C127.13 28.43 127.052 28.2117 126.961 28C126.658 32.1205 126.501 33.71 122.606 37.8663C116.573 42.5828 85.6224 68.5531 83.1046 121.373C80.7561 170.636 118.69 199.991 123.821 203.733L124.404 204.147V204.111C124.436 204.359 126.032 215.837 127.153 228H131.172C132.115 219.403 133.529 210.863 135.407 202.421L135.732 202.209C138.027 200.563 140.215 198.774 142.283 196.851L142.517 196.639C153.423 186.564 173.028 163.262 172.836 126.109C172.795 119.912 172.245 113.728 171.191 107.621ZM126.726 175.919C126.726 175.919 126.726 106.826 129.006 106.839C130.785 106.839 133.087 195.961 133.087 195.961C129.921 195.58 126.726 181.294 126.726 175.919Z" fill="white"/>
</g>
<defs>
<clipPath id="clip0_196_190">
<rect width="256" height="256" fill="white"/>
</clipPath>
</defs>
</svg>
