<svg width="257" height="256" viewBox="0 0 257 256" fill="none" xmlns="http://www.w3.org/2000/svg">
<path d="M0.00195312 56C0.00195312 25.0721 25.074 0 56.002 0H200.002C230.93 0 256.002 25.0721 256.002 56V200C256.002 230.928 230.93 256 200.002 256H56.002C25.074 256 0.00195312 230.928 0.00195312 200V56Z" fill="#0F172A"/>
<path fill-rule="evenodd" clip-rule="evenodd" d="M212.221 180.96C201.341 180.658 192.901 181.772 185.827 184.748C183.79 185.566 180.522 185.566 180.253 188.13C181.342 189.206 181.473 190.966 182.428 192.457C184.058 195.163 186.919 198.808 189.501 200.7L198.207 206.921C203.513 210.163 209.498 212.057 214.667 215.302C217.66 217.196 220.652 219.63 223.646 221.66C225.171 222.741 226.094 224.503 228 225.175V224.766C227.049 223.554 226.774 221.797 225.826 220.439L221.74 216.52C217.798 211.248 212.897 206.647 207.592 202.866C203.238 199.891 193.719 195.836 191.949 190.836L191.682 190.533C194.67 190.23 198.207 189.178 201.067 188.367C205.695 187.154 209.909 187.421 214.667 186.205L221.201 184.311V183.099C218.752 180.666 216.984 177.42 214.401 175.124C207.464 169.176 199.841 163.36 191.949 158.494C187.733 155.791 182.29 154.03 177.802 151.736C176.165 150.924 173.447 150.518 172.496 149.167C170.041 146.197 168.684 142.272 166.916 138.755L155.762 115.231C153.314 109.958 151.814 104.685 148.826 99.8184C134.811 76.8339 119.572 62.9097 96.1723 49.2523C91.1411 46.4129 85.1556 45.1917 78.7919 43.7069L68.5894 43.1615C66.4093 42.216 64.2351 39.6464 62.3295 38.4282C54.5754 33.5616 34.5758 23.0162 28.8586 36.913C25.1844 45.7008 34.3014 54.3523 37.3963 58.8159C39.7137 61.9249 42.7019 65.44 44.3394 68.9552C45.2541 71.2521 45.559 73.6884 46.5134 76.1218C48.6874 82.0702 50.7304 88.6974 53.5875 94.243C55.1121 97.0824 56.7129 100.061 58.6186 102.628C59.7072 104.142 61.6129 104.791 62.0184 107.224C60.1127 109.93 59.9817 113.982 58.893 117.367C53.993 132.645 55.8987 151.573 62.8356 162.821C65.0158 166.2 70.1537 173.639 77.1241 170.797C83.2468 168.363 81.8808 160.658 83.6493 153.896C84.0609 152.276 83.7865 151.194 84.6007 150.109V150.412L90.1806 161.633C94.3977 168.258 101.747 175.154 107.865 179.754C111.128 182.188 113.714 186.382 117.794 187.867V187.458H117.526C116.708 186.245 115.482 185.7 114.394 184.754C111.946 182.321 109.226 179.345 107.32 176.642C101.609 169.072 96.5778 160.688 92.0864 152.036C89.9062 147.845 88.0005 143.248 86.2381 139.057C85.4148 137.434 85.4148 134.997 84.0579 134.191C82.0149 137.16 79.0267 139.736 77.5235 143.385C74.9378 149.197 74.6695 156.363 73.7182 163.8C73.1693 163.936 73.4132 163.8 73.1693 164.103C68.8211 163.025 67.321 158.557 65.6897 154.775C61.6098 145.176 60.9268 129.763 64.4639 118.676C65.4152 115.837 69.5011 106.913 67.8699 104.209C67.0465 101.64 64.3327 100.155 62.8326 98.1248C61.0641 95.5554 59.1644 92.3126 57.9386 89.4732C54.676 81.8975 53.0447 73.5187 49.5047 65.9461C47.8672 62.431 45.0132 58.7795 42.6989 55.5372C40.1132 51.8857 37.2622 49.316 35.2193 44.9917C34.5393 43.4766 33.5879 41.0706 34.6765 39.4463C34.9448 38.3646 35.4936 37.9312 36.5762 37.6888C38.3447 36.1737 43.3819 38.0949 45.1504 38.9009C50.1816 40.9311 54.3985 42.8221 58.6155 45.6584C60.5213 47.0099 62.5643 49.5796 65.0127 50.2584H67.8729C72.227 51.2039 77.121 50.5614 81.1978 51.7735C88.4091 54.0766 94.9373 57.4522 100.792 61.1068C118.612 72.3279 133.309 88.2823 143.236 107.349C144.867 110.458 145.547 113.297 147.048 116.542C149.908 123.17 153.445 129.928 156.296 136.421C159.156 142.776 161.876 149.27 165.956 154.542C167.999 157.381 176.158 158.866 179.83 160.354C182.552 161.567 186.766 162.658 189.221 164.143C193.843 166.982 198.469 170.227 202.82 173.336C204.994 174.954 211.801 178.336 212.205 181.033L212.221 180.96ZM73.4834 63.4704C71.6037 63.4538 69.73 63.6811 67.9094 64.1462V64.4492H68.1778C69.2663 66.6128 71.1721 68.1006 72.532 69.9946L75.6635 76.4855L75.9318 76.1824C77.8375 74.8308 78.7919 72.6673 78.7919 69.4248C77.9748 68.4794 77.8407 67.5309 77.1607 66.5855C76.3435 65.234 74.575 64.5552 73.4834 63.4765V63.4704Z" fill="white"/>
</svg>
