<svg width="256" height="256" viewBox="0 0 256 256" fill="none" xmlns="http://www.w3.org/2000/svg">
<path fill-rule="evenodd" clip-rule="evenodd" d="M203.791 175.864C193.999 175.592 186.403 176.595 180.037 179.273C178.203 180.01 175.262 180.01 175.02 182.317C176 183.285 176.118 184.869 176.977 186.212C178.445 188.647 181.019 191.928 183.343 193.63L191.179 199.229C195.953 202.146 201.34 203.852 205.992 206.772C208.687 208.476 211.379 210.667 214.074 212.494C215.446 213.467 216.277 215.052 217.992 215.658V215.289C217.136 214.198 216.889 212.617 216.036 211.395L212.358 207.868C208.811 203.123 204.4 198.983 199.625 195.579C195.706 192.902 187.139 189.252 185.547 184.752L185.306 184.479C187.995 184.207 191.179 183.26 193.752 182.53C197.918 181.439 201.71 181.679 205.992 180.585L211.873 178.88V177.789C209.669 175.6 208.078 172.678 205.753 170.612C199.51 165.258 192.649 160.024 185.547 155.644C181.752 153.212 176.853 151.627 172.814 149.562C171.34 148.831 168.895 148.466 168.039 147.25C165.829 144.578 164.608 141.045 163.017 137.879L152.978 116.708C150.775 111.962 149.425 107.216 146.735 102.837C134.122 82.1505 120.407 69.6188 99.3472 57.3271C94.8192 54.7717 89.4322 53.6726 83.7049 52.3362L74.5227 51.8454C72.5605 50.9944 70.6038 48.6817 68.8887 47.5853C61.9101 43.2054 43.9104 33.7146 38.765 46.2217C35.4581 54.1307 43.6635 61.9171 46.4489 65.9343C48.5345 68.7324 51.2239 71.896 52.6976 75.0597C53.5208 77.1269 53.7953 79.3196 54.6542 81.5097C56.6109 86.8632 58.4496 92.8277 61.0209 97.8187C62.393 100.374 63.8338 103.055 65.549 105.365C66.5286 106.728 68.2438 107.312 68.6088 109.502C66.8936 111.937 66.7757 115.584 65.7959 118.63C61.3859 132.381 63.1011 149.415 69.3442 159.539C71.3064 162.58 75.9305 169.275 82.2039 166.717C87.7143 164.527 86.4849 157.592 88.0766 151.507C88.447 150.048 88.2001 149.074 88.9328 148.098V148.371L93.9547 158.47C97.7501 164.432 104.364 170.639 109.871 174.779C112.808 176.969 115.135 180.744 118.807 182.08V181.712H118.565C117.829 180.621 116.726 180.13 115.747 179.278C113.544 177.089 111.095 174.411 109.38 171.978C104.24 165.165 99.7122 157.619 95.6699 149.832C93.7078 146.061 91.9926 141.923 90.4064 138.151C89.6655 136.69 89.6655 134.497 88.4443 133.772C86.6056 136.444 83.9163 138.763 82.5633 142.046C80.2362 147.277 79.9947 153.727 79.1386 160.42C78.6446 160.542 78.8641 160.42 78.6446 160.692C74.7312 159.722 73.3811 155.701 71.9129 152.298C68.241 143.658 67.6263 129.787 70.8097 119.808C71.6659 117.253 75.3432 109.222 73.8751 106.788C73.134 104.476 70.6916 103.14 69.3415 101.312C67.7498 98.9999 66.0401 96.0813 64.937 93.5259C62.0006 86.7077 60.5324 79.1669 57.3464 72.3515C55.8726 69.1879 53.3041 65.9015 51.2212 62.9834C48.8941 59.6971 46.3281 57.3844 44.4895 53.4925C43.8775 52.1289 43.0213 49.9635 44.001 48.5017C44.2425 47.5281 44.7365 47.1381 45.7107 46.9199C47.3024 45.5563 51.8359 47.2854 53.4275 48.0108C57.9556 49.838 61.7508 51.5399 65.5462 54.0925C67.2614 55.3089 69.1001 57.6216 71.3036 58.2325H73.8778C77.7965 59.0835 82.2011 58.5053 85.8702 59.5962C92.3604 61.6689 98.2358 64.707 103.505 67.9961C119.543 78.0951 132.77 92.4541 141.704 109.614C143.173 112.412 143.785 114.968 145.135 117.888C147.709 123.853 150.893 129.935 153.458 135.779C156.033 141.498 158.48 147.343 162.153 152.088C163.991 154.643 171.334 155.979 174.639 157.319C177.089 158.41 180.882 159.392 183.091 160.728C187.251 163.284 191.415 166.204 195.33 169.003C197.287 170.459 203.413 173.502 203.777 175.93L203.791 175.864ZM78.9272 70.1233C77.2355 70.1084 75.5492 70.313 73.9107 70.7315V71.0043H74.1522C75.1319 72.9515 76.8471 74.2905 78.071 75.9951L80.8893 81.8369L81.1308 81.5642C82.846 80.3478 83.7049 78.4005 83.7049 75.4823C82.9695 74.6315 82.8488 73.7779 82.2368 72.9269C81.5014 71.7106 79.9097 71.0997 78.9272 70.1288V70.1233Z" fill="#02778F"/>
</svg>
