<svg width="257" height="256" viewBox="0 0 257 256" fill="none" xmlns="http://www.w3.org/2000/svg">
<path d="M0.00195312 56C0.00195312 25.0721 25.074 0 56.002 0H200.002C230.93 0 256.002 25.0721 256.002 56V200C256.002 230.928 230.93 256 200.002 256H56.002C25.074 256 0.00195312 230.928 0.00195312 200V56Z" fill="#F8FAFC"/>
<path d="M128.793 56.0002C128.793 56.0002 121.13 62.4026 113.318 68.7617C105.281 68.4918 89.5174 70.3942 80.9762 73.6781C73.108 68.4083 66.1945 62.59 66.1945 62.59C66.1945 62.59 60.2865 73.335 56.5713 79.6405C51.0615 82.7385 45.5296 86.223 40.5991 90.8331C34.8646 88.4258 28.217 85.4907 28 85.3937C35.5942 101.588 40.6995 117.803 54.5872 127.549C76.6973 90.6329 179.44 94.0353 202.008 127.34C216.592 119.297 222.265 101.995 228 86.0213C227.371 86.2403 219.567 89.0024 214.508 91.0422C211.488 87.5658 204.368 82.2206 200.321 79.6404C196.484 72.2099 190.897 62.1717 190.897 62.1717C190.897 62.1717 184.28 67.3742 176.611 73.0503C166.25 71.0284 153.718 68.5717 143.179 69.18C136.004 62.9453 128.793 56 128.793 56V56.0002Z" fill="#F3D400"/>
<path d="M35.8516 119.808C35.8516 119.808 46.6153 147.361 54.0909 166.507C85.7678 210.689 166.658 213.76 201.922 167.363C210.267 147.481 221.525 119.54 221.525 119.54C212.478 133.709 197.754 143.49 188.687 148.758C182.243 152.49 167.376 154.746 167.376 154.746L128.343 133.362L89.0859 154.318C89.0859 154.318 74.4161 151.826 67.7748 148.545C54.371 140.98 45.3559 132.043 35.8516 119.808Z" fill="#FFE953"/>
</svg>
