<svg width="256" height="256" viewBox="0 0 256 256" fill="none" xmlns="http://www.w3.org/2000/svg">
<path d="M200.389 119.693C200.389 161.503 166.5 195.391 124.69 195.391C82.8808 195.391 48.9922 161.503 48.9922 119.693C48.9922 77.8837 82.8808 43.9951 124.69 43.9951C166.5 43.9584 200.388 77.8831 200.388 119.693" fill="#008CC1"/>
<path d="M82.5487 94.8635C82.5487 98.2014 79.8349 100.915 76.4976 100.915C73.1596 100.915 70.4458 98.2021 70.4458 94.8635C70.4458 91.5261 73.159 88.8123 76.4976 88.8123C77.2928 88.81 78.0807 88.965 78.8159 89.2683C79.5511 89.5716 80.2191 90.0172 80.7815 90.5796C81.3438 91.1419 81.7895 91.8099 82.0928 92.5451C82.396 93.2803 82.551 94.0682 82.5487 94.8635ZM83.5755 111.478C83.5755 114.815 80.8617 117.53 77.5243 117.53C74.187 117.53 71.4726 114.815 71.4726 111.478C71.4726 108.14 74.187 105.427 77.5243 105.427C78.3196 105.425 79.1075 105.579 79.8427 105.883C80.5779 106.186 81.2459 106.632 81.8083 107.194C82.3706 107.756 82.8163 108.424 83.1195 109.16C83.4228 109.895 83.5778 110.683 83.5755 111.478ZM87.28 129.083C87.28 132.42 84.5655 135.134 81.2282 135.134C77.8909 135.134 75.1764 132.42 75.1764 129.083C75.1764 125.744 77.8909 123.031 81.2282 123.031C84.5655 122.994 87.2793 125.708 87.2793 129.083M95.5688 144.853C95.5688 148.19 92.8538 150.904 89.5165 150.904C86.1791 150.904 83.4653 148.19 83.4653 144.853C83.4653 141.515 86.1791 138.801 89.5165 138.801C92.8538 138.764 95.5682 141.479 95.5682 144.853M160.374 166.895C160.374 170.232 157.66 172.946 154.322 172.946C150.985 172.946 148.271 170.232 148.271 166.895C148.271 163.557 150.984 160.843 154.322 160.843C157.66 160.843 160.374 163.557 160.374 166.895ZM171.376 153.874C171.376 157.212 168.663 159.926 165.324 159.926C161.987 159.926 159.273 157.212 159.273 153.874C159.273 150.537 161.987 147.823 165.324 147.823C168.663 147.823 171.377 150.537 171.377 153.874M139.469 61.8193C139.469 65.1567 136.754 67.8705 133.417 67.8705C130.08 67.8705 127.366 65.1573 127.366 61.8193C127.366 58.482 130.08 55.7682 133.417 55.7682C136.754 55.7682 139.469 58.4814 139.469 61.8193ZM123.552 56.2449C123.552 59.5822 120.837 62.296 117.5 62.296C114.163 62.296 111.449 59.5828 111.449 56.2449C111.449 52.9075 114.162 50.1931 117.5 50.1931C120.837 50.1931 123.552 52.9075 123.552 56.2449Z" fill="white"/>
<path d="M166.463 61.3059C188.744 61.3059 206.806 79.3685 206.806 101.649C206.806 123.929 188.744 141.992 166.463 141.992C144.182 141.992 126.12 123.929 126.12 101.649C126.12 79.3685 144.182 61.3059 166.463 61.3059Z" fill="#66B245"/>
<path d="M166.463 143.072C143.622 143.072 125.039 124.489 125.039 101.649C125.039 78.8077 143.622 60.2256 166.463 60.2256C189.303 60.2256 207.886 78.8071 207.886 101.649C207.886 124.489 189.303 143.072 166.463 143.072ZM166.463 62.3862C144.814 62.3862 127.2 80 127.2 101.649C127.2 123.298 144.814 140.911 166.463 140.911C188.112 140.911 205.725 123.298 205.725 101.649C205.725 79.9994 188.112 62.3868 166.463 62.3868V62.3862Z" fill="white"/>
<path d="M111.193 150.904C129.422 150.904 144.201 165.682 144.201 183.912C144.201 202.141 129.422 216.92 111.193 216.92C92.9627 216.92 78.1846 202.141 78.1846 183.912C78.1846 165.682 92.9627 150.904 111.193 150.904Z" fill="#66B245"/>
<path d="M111.192 218C92.395 218 77.1035 202.708 77.1035 183.912C77.1035 165.115 92.395 149.823 111.192 149.823C129.989 149.823 145.28 165.115 145.28 183.912C145.28 202.708 129.989 218 111.192 218ZM111.192 151.984C93.5873 151.984 79.2647 166.306 79.2647 183.912C79.2647 201.516 93.5873 215.839 111.192 215.839C128.796 215.839 143.119 201.516 143.119 183.912C143.119 166.307 128.796 151.984 111.192 151.984Z" fill="white"/>
<path d="M84.0189 39.0803C96.1722 39.0803 106.024 48.933 106.024 61.0857C106.024 73.239 96.1722 83.0911 84.0189 83.0911C71.8656 83.0911 62.0142 73.239 62.0142 61.0857C62.0142 48.9324 71.8662 39.0803 84.0189 39.0803Z" fill="#66B245"/>
<path d="M84.0188 84.1713C71.2892 84.1713 60.9331 73.8152 60.9331 61.0857C60.9331 48.3561 71.2892 38 84.0188 38C96.7483 38 107.104 48.3561 107.104 61.0857C107.104 73.8152 96.7483 84.1713 84.0188 84.1713ZM84.0188 40.1612C72.4815 40.1612 63.0943 49.5478 63.0943 61.0857C63.0943 72.6235 72.4809 82.0107 84.0188 82.0107C95.5566 82.0107 104.944 72.6235 104.944 61.0857C104.944 49.5484 95.5566 40.1612 84.0188 40.1612Z" fill="white"/>
</svg>
