<svg width="257" height="256" viewBox="0 0 257 256" fill="none" xmlns="http://www.w3.org/2000/svg">
<path d="M0.00195312 56C0.00195312 25.0721 25.074 0 56.002 0H200.002C230.93 0 256.002 25.0721 256.002 56V200C256.002 230.928 230.93 256 200.002 256H56.002C25.074 256 0.00195312 230.928 0.00195312 200V56Z" fill="#22272E"/>
<path fill-rule="evenodd" clip-rule="evenodd" d="M54 76.7057L92.3359 38V217.961L54 179.705V76.7057Z" fill="url(#paint0_linear_23_194)"/>
<path fill-rule="evenodd" clip-rule="evenodd" d="M202.126 77.0694L163.266 38.0203L164.054 217.962L202.39 179.705L202.126 77.0694Z" fill="url(#paint1_linear_23_194)"/>
<path fill-rule="evenodd" clip-rule="evenodd" d="M92.3106 38.0299L191.978 190.111L164.088 218L64.3677 66.2553L92.3106 38.0299Z" fill="url(#paint2_linear_23_194)"/>
<path fill-rule="evenodd" clip-rule="evenodd" d="M92.3438 108.574L92.2912 114.565L61.5171 69.1335L64.367 66.231L92.3438 108.574Z" fill="black" fill-opacity="0.13"/>
<defs>
<linearGradient id="paint0_linear_23_194" x1="73.1675" y1="38" x2="73.1675" y2="217.962" gradientUnits="userSpaceOnUse">
<stop stop-color="#16B0ED" stop-opacity="0.8"/>
<stop offset="1" stop-color="#0F59B2" stop-opacity="0.837"/>
</linearGradient>
<linearGradient id="paint1_linear_23_194" x1="182.826" y1="38.0203" x2="182.826" y2="217.961" gradientUnits="userSpaceOnUse">
<stop stop-color="#7DB643"/>
<stop offset="1" stop-color="#367533"/>
</linearGradient>
<linearGradient id="paint2_linear_23_194" x1="128.173" y1="38.0299" x2="128.173" y2="218.009" gradientUnits="userSpaceOnUse">
<stop stop-color="#88C649" stop-opacity="0.8"/>
<stop offset="1" stop-color="#439240" stop-opacity="0.84"/>
</linearGradient>
</defs>
</svg>
