<svg width="256" height="256" viewBox="0 0 256 256" fill="none" xmlns="http://www.w3.org/2000/svg">
<path d="M143.679 38C142.406 38 141.223 38.28 140.132 38.6533C142.451 40.2401 143.725 42.3401 144.361 44.7202C144.407 45.0469 144.498 45.2803 144.543 45.6069C144.589 45.8869 144.634 46.1669 144.634 46.447C144.816 50.5538 143.588 51.0671 142.724 53.4938C141.405 56.6207 141.769 59.9808 143.36 62.6875C143.497 63.0142 143.679 63.3875 143.906 63.7142C142.178 51.9071 151.774 50.1337 153.548 46.447C153.683 43.2269 151.091 41.0801 149.045 39.5867C147.09 38.3733 145.316 38 143.679 38ZM158.141 40.6601C157.958 41.7334 158.095 41.4535 158.05 42.0135C158.004 42.3868 158.004 42.8535 157.958 43.2269C157.868 43.6002 157.777 43.9735 157.64 44.3469C157.549 44.7202 157.413 45.0936 157.277 45.4669C157.094 45.8403 156.959 46.1669 156.776 46.5403C156.64 46.7271 156.549 46.9136 156.413 47.1003C156.322 47.2403 156.23 47.3803 156.14 47.5204C155.912 47.8471 155.685 48.1737 155.457 48.4537C155.185 48.7337 154.957 49.0603 154.639 49.2938C154.639 49.3405 154.639 49.3405 154.639 49.3405C154.366 49.5738 154.093 49.8538 153.775 50.0872C152.82 50.8338 151.729 51.3939 150.728 52.0939C150.41 52.3272 150.092 52.5139 149.818 52.7939C149.5 53.0272 149.228 53.2606 148.954 53.5406C148.636 53.8206 148.409 54.1006 148.136 54.4273C147.909 54.7074 147.635 55.034 147.454 55.3607C147.226 55.6874 146.999 56.014 146.817 56.3407C146.635 56.714 146.499 57.0407 146.317 57.4141C146.181 57.7874 146.044 58.1141 145.953 58.4874C145.817 58.9074 145.726 59.2808 145.635 59.6542C145.589 59.8409 145.589 60.0741 145.543 60.2608C145.498 60.4476 145.498 60.6342 145.453 60.8209C145.453 61.1942 145.408 61.6142 145.408 61.9875C145.408 62.2676 145.408 62.5476 145.453 62.8276C145.453 63.2009 145.498 63.5742 145.589 63.9943C145.635 64.3676 145.726 64.741 145.817 65.1143C145.953 65.4876 146.044 65.8611 146.181 66.2344C146.272 66.4677 146.408 66.7011 146.499 66.8877L136.039 62.7342C134.266 62.2209 132.538 61.7542 130.764 61.3342C129.809 61.1009 128.854 60.8675 127.898 60.6342C125.17 60.0741 122.396 59.6542 119.622 59.3742C119.531 59.3742 119.486 59.3274 119.394 59.3274C116.666 59.0474 113.983 58.9074 111.254 58.9074C109.253 58.9074 107.252 59.0007 105.297 59.1408C102.523 59.3275 99.7487 59.7007 96.9745 60.1674C96.2924 60.2607 95.6102 60.4008 94.9281 60.5408C93.5183 60.8208 92.154 61.1475 90.8351 61.4741C90.153 61.6609 89.4709 61.8475 88.7887 62.0342C88.1066 62.3142 87.4699 62.6409 86.8332 62.9208C86.3329 63.1542 85.8327 63.3875 85.3325 63.6209C85.2416 63.6676 85.1505 63.6676 85.1051 63.7141C84.6503 63.9475 84.241 64.1341 83.8318 64.3675C83.6954 64.4143 83.6044 64.4607 83.5134 64.5075C83.0132 64.7409 82.5129 65.0209 82.1037 65.2542C81.7853 65.3942 81.467 65.5809 81.1941 65.7209C81.0577 65.8142 80.8757 65.9076 80.7848 65.9542C80.3755 66.1876 79.9663 66.4209 79.6024 66.6543C79.1932 66.8876 78.8293 67.1209 78.511 67.3542C78.1926 67.5877 77.8743 67.7743 77.6015 68.0076C77.5559 68.0544 77.5106 68.0544 77.465 68.1009C77.1921 68.2876 76.8738 68.5209 76.6009 68.7542C76.6009 68.7542 76.5554 68.8009 76.5101 68.8475C76.2827 69.0343 76.0553 69.2208 75.8279 69.4075C75.737 69.4543 75.6459 69.5475 75.555 69.5943C75.3277 69.781 75.1003 70.0143 74.8729 70.2009C74.8273 70.2942 74.7364 70.341 74.6909 70.3877C74.4181 70.6677 74.1452 70.9011 73.8724 71.1811C73.8268 71.1811 73.8268 71.2278 73.7815 71.2743C73.5086 71.5077 73.2357 71.7877 72.9629 72.0677C72.9173 72.1144 72.9173 72.161 72.872 72.161C72.6446 72.3943 72.4172 72.6277 72.1898 72.9076C72.0989 73.0009 71.9625 73.0944 71.8715 73.1876C71.6441 73.4677 71.3713 73.7477 71.0984 74.0277C71.0528 74.1209 70.962 74.1677 70.9164 74.261C70.5526 74.6344 70.2342 75.0078 69.8705 75.3811C69.8249 75.4278 69.7796 75.4744 69.734 75.5211C69.0064 76.3145 68.2333 77.1078 67.4147 77.8078C66.5961 78.5545 65.7321 79.2545 64.868 79.8612C63.9584 80.5146 63.0944 81.0746 62.1394 81.6346C61.2298 82.1479 60.2748 82.6146 59.2744 83.0347C58.3193 83.4547 57.3188 83.8281 56.3183 84.1547C54.4083 84.5748 52.4528 85.3681 50.7702 85.5081C50.4063 85.5081 49.9971 85.6013 49.6332 85.648C49.224 85.7413 48.8601 85.8348 48.4964 85.9281C48.1325 86.0681 47.7687 86.2081 47.4049 86.3481C47.0411 86.4882 46.6773 86.6748 46.3135 86.8615C45.9951 87.0948 45.6313 87.2815 45.313 87.5148C44.9946 87.7481 44.6763 88.0281 44.4034 88.3082C44.0851 88.5415 43.7668 88.8682 43.4939 89.1482C43.2211 89.4749 42.9482 89.7549 42.7208 90.0816C42.4934 90.4549 42.2206 90.7816 42.0386 91.155C41.8113 91.4817 41.5839 91.8549 41.402 92.2283C41.22 92.6483 41.0382 93.0217 40.9017 93.4417C40.7653 93.8151 40.6288 94.235 40.4924 94.6551C40.4015 95.0284 40.3105 95.4018 40.2651 95.7751C40.2651 95.8219 40.2195 95.8684 40.2195 95.9151C40.1286 96.3351 40.1286 96.8952 40.0831 97.1752C40.0375 97.5019 39.9922 97.7818 39.9922 98.1085C39.9922 98.2953 39.9922 98.5285 40.0378 98.7152C40.0833 99.0419 40.1286 99.3219 40.2197 99.602C40.3106 99.882 40.4017 100.162 40.538 100.442C40.538 100.489 40.538 100.489 40.538 100.489C40.6745 100.769 40.8564 101.049 41.0383 101.329C41.2203 101.609 41.4021 101.889 41.6295 102.169C41.8569 102.402 42.1298 102.682 42.4026 102.915C42.6754 103.195 42.9484 103.429 43.2666 103.662C44.3581 104.642 44.631 104.969 46.0408 105.715C46.2681 105.856 46.4955 105.949 46.7684 106.089C46.8139 106.089 46.8593 106.136 46.9048 106.136C46.9048 106.229 46.9048 106.276 46.9503 106.369C46.9959 106.742 47.0868 107.116 47.1777 107.489C47.2686 107.909 47.4052 108.283 47.5415 108.609C47.678 108.889 47.7689 109.169 47.9054 109.449C47.951 109.543 47.9963 109.636 48.0418 109.683C48.2238 110.056 48.4056 110.382 48.5875 110.709C48.8149 111.036 49.0423 111.362 49.2697 111.69C49.4971 111.969 49.7699 112.296 50.0428 112.576C50.3157 112.856 50.5885 113.089 50.9068 113.369C50.9068 113.369 50.9524 113.416 50.9977 113.416C51.2706 113.649 51.5434 113.883 51.8163 114.07C52.1347 114.303 52.453 114.489 52.8168 114.676C53.1351 114.862 53.499 115.049 53.8627 115.19C54.1356 115.33 54.454 115.423 54.7723 115.516C54.8179 115.563 54.8632 115.563 54.9543 115.609C55.1362 115.656 55.3635 115.703 55.5455 115.749C55.409 118.269 55.3635 120.649 55.7275 121.49C56.1367 122.423 58.1377 119.576 60.1387 116.309C59.8658 119.529 59.6839 123.309 60.1387 124.429C60.6389 125.596 63.3676 121.956 65.7323 117.943C97.9754 110.289 127.399 133.157 130.491 165.451C129.9 160.411 123.852 157.611 121.077 158.311C119.713 161.764 117.394 166.198 113.665 168.951C113.984 165.871 113.847 162.697 113.21 159.618C112.21 163.911 110.254 167.925 107.571 171.378C103.251 171.705 98.9304 169.558 96.6566 166.338C96.4745 166.198 96.4292 165.918 96.2927 165.731C96.1563 165.404 96.0199 165.078 95.9289 164.751C95.7925 164.425 95.7015 164.097 95.656 163.771C95.6105 163.444 95.6105 163.118 95.6105 162.744C95.6105 162.511 95.6105 162.278 95.6105 162.045C95.656 161.717 95.7469 161.391 95.8379 161.064C95.9287 160.738 96.0199 160.411 96.1563 160.084C96.3382 159.758 96.4745 159.431 96.702 159.104C97.4751 156.864 97.4751 155.044 96.0653 153.971C95.7924 153.784 95.5196 153.644 95.2012 153.504C95.0192 153.457 94.792 153.364 94.61 153.317C94.4736 153.27 94.3826 153.224 94.2462 153.177C93.9279 153.084 93.6095 152.991 93.2912 152.944C92.9729 152.851 92.6545 152.804 92.3362 152.804C92.0178 152.757 91.6541 152.711 91.3357 152.711C91.1083 152.711 90.8809 152.757 90.6535 152.757C90.2897 152.757 89.9714 152.804 89.653 152.897C89.3347 152.944 89.0164 152.991 88.6981 153.084C88.3797 153.177 88.0613 153.271 87.743 153.411C87.4247 153.551 87.1519 153.691 86.8335 153.831C86.5606 153.971 86.2878 154.157 85.9694 154.297C75.3733 161.391 81.6946 178.005 88.9254 182.812C86.1968 183.325 83.4227 183.932 82.6496 184.539C82.6041 184.585 82.5587 184.632 82.5587 184.632C84.5143 185.845 86.5607 186.872 88.6981 187.758C91.6087 188.739 94.701 189.625 96.0654 189.999V190.045C99.8399 190.839 103.66 191.119 107.526 190.885C127.672 189.439 144.179 173.712 147.181 152.991C147.272 153.411 147.363 153.784 147.454 154.204C147.59 155.044 147.772 155.931 147.864 156.817C147.864 156.817 147.864 156.817 147.864 156.865C147.955 157.284 148 157.704 148.045 158.078C148.045 158.171 148.045 158.218 148.045 158.265C148.091 158.684 148.136 159.105 148.136 159.478C148.182 159.991 148.227 160.505 148.227 161.018C148.227 161.251 148.227 161.485 148.227 161.765C148.227 161.998 148.273 162.278 148.273 162.511C148.273 162.792 148.227 163.071 148.227 163.351C148.227 163.584 148.227 163.818 148.227 164.005C148.227 164.331 148.182 164.611 148.182 164.938C148.182 165.125 148.182 165.312 148.136 165.545C148.136 165.871 148.09 166.198 148.09 166.572C148.045 166.711 148.045 166.851 148.045 166.991C148 167.365 147.954 167.692 147.909 168.065C147.909 168.205 147.909 168.345 147.863 168.485C147.817 168.952 147.726 169.371 147.681 169.839V169.885V169.932C147.59 170.352 147.499 170.819 147.408 171.238C147.408 171.285 147.408 171.332 147.408 171.378C147.317 171.798 147.226 172.219 147.136 172.638C147.136 172.685 147.09 172.778 147.09 172.825C146.999 173.245 146.908 173.665 146.771 174.086C146.771 174.132 146.771 174.178 146.771 174.226C146.635 174.692 146.498 175.112 146.407 175.532C146.362 175.579 146.362 175.626 146.362 175.626C146.226 176.092 146.089 176.558 145.952 177.025C145.771 177.492 145.634 177.912 145.453 178.379C145.271 178.845 145.134 179.312 144.953 179.732C144.77 180.199 144.589 180.619 144.407 181.085H144.361C144.179 181.506 143.997 181.972 143.77 182.392C143.724 182.532 143.679 182.626 143.633 182.719C143.588 182.766 143.588 182.812 143.542 182.859C140.586 188.973 136.221 194.339 130.764 198.54C130.4 198.773 130.036 199.053 129.672 199.333C129.581 199.426 129.445 199.473 129.354 199.566C129.035 199.8 128.717 200.033 128.353 200.266L128.489 200.547H128.535C129.172 200.453 129.808 200.359 130.445 200.266H130.49C131.673 200.079 132.856 199.846 134.038 199.613C134.356 199.566 134.72 199.473 135.039 199.38C135.265 199.332 135.448 199.287 135.675 199.239C135.994 199.192 136.312 199.099 136.63 199.053C136.903 198.959 137.176 198.913 137.448 198.819C141.997 197.699 146.407 196.159 150.637 194.339C143.406 204.466 133.72 212.634 122.396 218C127.626 217.627 132.856 216.74 137.903 215.247C156.23 209.693 171.647 197.046 180.879 180.012C179.014 190.792 174.83 201.06 168.646 210.019C173.057 207.033 177.105 203.58 180.788 199.66C190.975 188.739 197.66 174.879 199.934 159.992C201.48 167.365 201.935 174.972 201.253 182.485C234.087 135.49 203.981 86.7688 191.384 73.935C191.339 73.8418 191.294 73.795 191.294 73.7017C191.248 73.7484 191.248 73.7484 191.248 73.795C191.248 73.7482 191.248 73.7482 191.202 73.7017C191.202 74.2617 191.156 74.8217 191.111 75.3817C190.975 76.4551 190.839 77.4818 190.656 78.5085C190.429 79.5352 190.156 80.5619 189.883 81.5886C189.565 82.5687 189.202 83.5953 188.792 84.5754C188.383 85.5087 187.928 86.4888 187.428 87.4222C186.927 88.3089 186.381 89.2422 185.791 90.0823C185.199 90.9689 184.562 91.809 183.926 92.6023C183.244 93.4424 182.516 94.189 181.789 94.9357C181.334 95.3558 180.924 95.7291 180.47 96.1024C180.106 96.4291 179.788 96.7091 179.423 97.0358C178.605 97.6891 177.786 98.2958 176.877 98.8559C176.013 99.4159 175.103 99.9759 174.194 100.443C173.239 100.909 172.284 101.329 171.329 101.749C170.374 102.123 169.373 102.449 168.373 102.729C167.372 103.009 166.326 103.243 165.326 103.429C164.28 103.616 163.234 103.709 162.233 103.803C161.506 103.849 160.778 103.896 160.051 103.896C159.005 103.896 157.958 103.803 156.958 103.709C155.912 103.616 154.867 103.476 153.866 103.243C152.819 103.056 151.82 102.776 150.819 102.449H150.773C151.774 102.356 152.774 102.262 153.775 102.076C154.821 101.889 155.821 101.656 156.822 101.376C157.822 101.096 158.822 100.769 159.777 100.396C160.778 100.022 161.733 99.5557 162.643 99.0891C163.597 98.6224 164.461 98.109 165.371 97.549C166.235 96.9423 167.099 96.3356 167.918 95.6823C168.736 95.0289 169.51 94.329 170.237 93.5822C171.01 92.8822 171.692 92.0889 172.375 91.2955C173.057 90.4554 173.694 89.6154 174.284 88.7754C174.375 88.6354 174.467 88.4487 174.558 88.3087C175.013 87.562 175.467 86.8153 175.877 86.0686C176.377 85.1352 176.831 84.2019 177.241 83.2219C177.65 82.2418 178.014 81.2618 178.332 80.2351C178.65 79.255 178.878 78.2284 179.105 77.2016C179.288 76.1283 179.469 75.1016 179.56 74.0749C179.651 73.0015 179.742 71.9281 179.742 70.9015C179.742 70.1547 179.697 69.408 179.651 68.6614C179.56 67.588 179.423 66.5613 179.288 65.5346C179.105 64.4612 178.878 63.4345 178.605 62.4078C178.287 61.4278 177.969 60.4011 177.605 59.4211C177.241 58.441 176.786 57.4609 176.332 56.5276C175.831 55.5943 175.331 54.6609 174.785 53.7742C174.194 52.8875 173.603 52.0474 172.966 51.2074C172.284 50.414 171.602 49.6207 170.874 48.8273C170.51 48.454 170.101 48.034 169.692 47.6607C167.645 46.0273 165.508 44.4872 163.371 43.0871C163.052 42.9004 162.779 42.7605 162.461 42.6204C160.96 41.6404 159.551 41.1268 158.141 40.6601Z" fill="#E0234E"/>
</svg>
