<svg width="257" height="256" viewBox="0 0 257 256" fill="none" xmlns="http://www.w3.org/2000/svg">
<path d="M0.00195312 56C0.00195312 25.0721 25.074 0 56.002 0H200.002C230.93 0 256.002 25.0721 256.002 56V200C256.002 230.928 230.93 256 200.002 256H56.002C25.074 256 0.00195312 230.928 0.00195312 200V56Z" fill="#F8FAFC"/>
<path d="M145.207 28C143.793 28 142.479 28.3111 141.266 28.7259C143.844 30.489 145.258 32.8224 145.965 35.4669C146.016 35.8299 146.117 36.0892 146.167 36.4521C146.218 36.7633 146.269 37.0744 146.269 37.3855C146.471 41.9486 145.106 42.519 144.146 45.2154C142.681 48.6896 143.085 52.4231 144.854 55.4305C145.005 55.7935 145.207 56.2084 145.46 56.5714C143.54 43.4524 154.202 41.4819 156.173 37.3855C156.324 33.8076 153.444 31.4224 151.17 29.763C148.997 28.4148 147.026 28 145.207 28ZM161.276 30.9556C161.074 32.1483 161.225 31.8372 161.175 32.4595C161.125 32.8743 161.125 33.3928 161.074 33.8076C160.973 34.2225 160.872 34.6373 160.72 35.0521C160.619 35.4669 160.467 35.8817 160.316 36.2965C160.114 36.7115 159.963 37.0744 159.76 37.4892C159.609 37.6967 159.507 37.904 159.356 38.1115C159.255 38.267 159.154 38.4225 159.053 38.5782C158.8 38.9412 158.547 39.3041 158.295 39.6152C157.992 39.9264 157.739 40.2893 157.385 40.5486C157.385 40.6005 157.385 40.6005 157.385 40.6005C157.082 40.8598 156.779 41.1709 156.425 41.4302C155.365 42.2598 154.152 42.8821 153.04 43.6599C152.686 43.9191 152.333 44.1265 152.029 44.4376C151.675 44.6969 151.373 44.9562 151.069 45.2674C150.715 45.5785 150.463 45.8895 150.16 46.2525C149.907 46.5637 149.604 46.9266 149.402 47.2896C149.149 47.6526 148.896 48.0155 148.695 48.3785C148.492 48.7934 148.341 49.1564 148.138 49.5712C147.987 49.986 147.835 50.349 147.735 50.7638C147.583 51.2305 147.482 51.6454 147.381 52.0602C147.33 52.2676 147.33 52.5268 147.279 52.7343C147.229 52.9417 147.229 53.1491 147.178 53.3565C147.178 53.7714 147.128 54.238 147.128 54.6528C147.128 54.964 147.128 55.2751 147.178 55.5862C147.178 56.001 147.229 56.4158 147.33 56.8825C147.381 57.2974 147.482 57.7122 147.583 58.127C147.735 58.5418 147.835 58.9567 147.987 59.3715C148.088 59.6308 148.24 59.8901 148.341 60.0975L136.719 55.4825C134.748 54.9121 132.828 54.3935 130.857 53.9269C129.796 53.6676 128.735 53.4084 127.674 53.1491C124.642 52.5268 121.56 52.0602 118.477 51.7491C118.376 51.7491 118.326 51.6971 118.225 51.6971C115.193 51.386 112.212 51.2305 109.18 51.2305C106.956 51.2305 104.734 51.3341 102.561 51.4897C99.4784 51.6972 96.3961 52.1119 93.3137 52.6305C92.5558 52.7341 91.7978 52.8897 91.0399 53.0454C89.4734 53.3565 87.9575 53.7195 86.4922 54.0824C85.7343 54.2899 84.9764 54.4972 84.2184 54.7046C83.4604 55.0157 82.753 55.3787 82.0455 55.6898C81.4897 55.9491 80.9339 56.2084 80.3781 56.4676C80.2771 56.5195 80.1759 56.5195 80.1254 56.5713C79.6202 56.8305 79.1654 57.0379 78.7106 57.2973C78.5591 57.3492 78.458 57.4008 78.3569 57.4528C77.8011 57.7121 77.2453 58.0232 76.7905 58.2825C76.4368 58.438 76.0831 58.6455 75.7799 58.801C75.6284 58.9046 75.4262 59.0085 75.3252 59.0603C74.8704 59.3195 74.4156 59.5788 74.0114 59.8381C73.5566 60.0974 73.1524 60.3565 72.7986 60.6158C72.4449 60.8752 72.0913 61.0825 71.7881 61.3418C71.7375 61.3937 71.6871 61.3937 71.6364 61.4455C71.3333 61.6529 70.9795 61.9121 70.6764 62.1714C70.6764 62.1714 70.6258 62.2233 70.5755 62.275C70.3228 62.4825 70.0701 62.6898 69.8174 62.8973C69.7164 62.9492 69.6153 63.0528 69.5143 63.1047C69.2616 63.3123 69.009 63.5715 68.7564 63.7788C68.7057 63.8825 68.6047 63.9345 68.5542 63.9864C68.251 64.2975 67.9478 64.5567 67.6446 64.8679C67.594 64.8679 67.594 64.9198 67.5436 64.9715C67.2404 65.2307 66.9373 65.5419 66.6341 65.853C66.5834 65.9049 66.5834 65.9566 66.5331 65.9566C66.2804 66.2159 66.0278 66.4752 65.7752 66.7863C65.6742 66.8899 65.5225 66.9938 65.4214 67.0974C65.1688 67.4085 64.8656 67.7196 64.5624 68.0308C64.5118 68.1344 64.4109 68.1864 64.3603 68.29C63.956 68.7049 63.6023 69.1197 63.1981 69.5345C63.1474 69.5865 63.0971 69.6382 63.0464 69.6901C62.238 70.5716 61.379 71.4531 60.4694 72.2309C59.5599 73.0605 58.5999 73.8384 57.6398 74.5125C56.6292 75.2385 55.6691 75.8606 54.608 76.4829C53.5974 77.0533 52.5363 77.5718 51.4246 78.0385C50.3635 78.5052 49.2518 78.9201 48.1402 79.283C46.0179 79.7497 43.8452 80.6312 41.9755 80.7867C41.5713 80.7867 41.1165 80.8904 40.7123 80.9423C40.2575 81.0459 39.8533 81.1498 39.4491 81.2535C39.0448 81.409 38.6405 81.5645 38.2364 81.7201C37.8321 81.8757 37.4279 82.0831 37.0236 82.2905C36.6699 82.5498 36.2657 82.7572 35.912 83.0165C35.5583 83.2757 35.2045 83.5868 34.9014 83.898C34.5477 84.1573 34.194 84.5203 33.8908 84.8314C33.5876 85.1944 33.2845 85.5055 33.0318 85.8685C32.7792 86.2833 32.476 86.6463 32.2738 87.0611C32.0212 87.4241 31.7685 87.8388 31.5665 88.2536C31.3642 88.7204 31.1622 89.1352 31.0105 89.6019C30.859 90.0167 30.7074 90.4834 30.5558 90.9501C30.4548 91.3649 30.3536 91.7797 30.3032 92.1945C30.3032 92.2465 30.2525 92.2982 30.2525 92.3501C30.1515 92.8168 30.1515 93.4391 30.101 93.7502C30.0504 94.1132 30 94.4243 30 94.7873C30 94.9948 30 95.2539 30.0506 95.4614C30.1012 95.8244 30.1515 96.1355 30.2528 96.4466C30.3538 96.7577 30.455 97.0688 30.6065 97.38C30.6065 97.4319 30.6065 97.4319 30.6065 97.4319C30.7581 97.743 30.9602 98.0541 31.1624 98.3653C31.3645 98.6764 31.5665 98.9875 31.8192 99.2986C32.0719 99.5579 32.3751 99.869 32.6783 100.128C32.9814 100.439 33.2846 100.699 33.6383 100.958C34.851 102.047 35.1542 102.41 36.7206 103.239C36.9733 103.395 37.2259 103.499 37.5291 103.655C37.5797 103.655 37.6301 103.706 37.6807 103.706C37.6807 103.81 37.6807 103.862 37.7313 103.965C37.7819 104.38 37.8829 104.795 37.9839 105.21C38.0849 105.676 38.2366 106.092 38.3882 106.455C38.5398 106.765 38.6408 107.076 38.7925 107.388C38.8431 107.492 38.8935 107.595 38.944 107.647C39.1463 108.062 39.3483 108.425 39.5504 108.788C39.803 109.151 40.0556 109.514 40.3084 109.877C40.561 110.188 40.8642 110.551 41.1674 110.862C41.4705 111.174 41.7737 111.433 42.1274 111.744C42.1274 111.744 42.178 111.795 42.2284 111.795C42.5315 112.055 42.8347 112.315 43.1379 112.522C43.4916 112.781 43.8454 112.988 44.2495 113.195C44.6033 113.403 45.0075 113.61 45.4117 113.766C45.7149 113.922 46.0686 114.025 46.4224 114.129C46.473 114.181 46.5234 114.181 46.6245 114.233C46.8267 114.285 47.0793 114.336 47.2815 114.388C47.1298 117.188 47.0793 119.833 47.4836 120.766C47.9384 121.804 50.1617 118.64 52.385 115.01C52.0818 118.588 51.8797 122.788 52.385 124.033C52.9408 125.329 55.9726 121.285 58.6002 116.825C94.4258 108.321 127.118 133.73 130.555 169.613C129.897 164.012 123.177 160.901 120.095 161.679C118.579 165.515 116.002 170.442 111.858 173.501C112.213 170.079 112.061 166.553 111.354 163.131C110.242 167.901 108.069 172.361 105.087 176.197C100.287 176.561 95.4869 174.175 92.9604 170.597C92.7582 170.442 92.7078 170.131 92.5562 169.924C92.4046 169.56 92.253 169.197 92.1519 168.835C92.0004 168.472 91.8993 168.108 91.8487 167.745C91.7982 167.383 91.7982 167.02 91.7982 166.605C91.7982 166.345 91.7982 166.086 91.7982 165.827C91.8487 165.464 91.9497 165.101 92.0508 164.738C92.1517 164.375 92.253 164.012 92.4045 163.649C92.6067 163.286 92.7582 162.924 93.0109 162.56C93.8699 160.071 93.8699 158.049 92.3034 156.856C92.0003 156.649 91.6971 156.494 91.3434 156.338C91.1412 156.285 90.8886 156.182 90.6864 156.13C90.5349 156.078 90.4338 156.026 90.2823 155.975C89.9285 155.871 89.5748 155.767 89.2211 155.715C88.8674 155.612 88.5137 155.56 88.16 155.56C87.8063 155.508 87.4021 155.456 87.0484 155.456C86.7957 155.456 86.543 155.508 86.2904 155.508C85.8862 155.508 85.5324 155.56 85.1787 155.664C84.825 155.715 84.4714 155.767 84.1176 155.871C83.7639 155.975 83.4102 156.079 83.0564 156.235C82.7028 156.39 82.3996 156.545 82.0459 156.701C81.7427 156.856 81.4395 157.064 81.0858 157.219C69.3124 165.101 76.336 183.561 84.3703 188.902C81.3384 189.473 78.2562 190.146 77.3972 190.821C77.3465 190.873 77.2962 190.925 77.2962 190.925C79.469 192.273 81.7428 193.414 84.1177 194.398C87.3516 195.487 90.7876 196.473 92.3035 196.887V196.939C96.4974 197.821 100.742 198.132 105.037 197.873C127.422 196.265 145.764 178.791 149.099 155.767C149.2 156.235 149.301 156.649 149.402 157.115C149.554 158.049 149.755 159.035 149.857 160.019C149.857 160.019 149.857 160.019 149.857 160.072C149.958 160.538 150.008 161.005 150.059 161.42C150.059 161.524 150.059 161.575 150.059 161.627C150.11 162.094 150.16 162.561 150.16 162.975C150.211 163.545 150.261 164.116 150.261 164.686C150.261 164.945 150.261 165.205 150.261 165.516C150.261 165.775 150.312 166.086 150.312 166.345C150.312 166.657 150.261 166.968 150.261 167.279C150.261 167.538 150.261 167.798 150.261 168.005C150.261 168.368 150.211 168.679 150.211 169.043C150.211 169.25 150.211 169.457 150.16 169.716C150.16 170.079 150.109 170.443 150.109 170.857C150.058 171.013 150.058 171.168 150.058 171.324C150.008 171.739 149.957 172.102 149.907 172.516C149.907 172.672 149.907 172.827 149.856 172.984C149.805 173.502 149.705 173.968 149.655 174.487V174.539V174.591C149.554 175.057 149.452 175.576 149.351 176.043C149.351 176.095 149.351 176.146 149.351 176.198C149.25 176.665 149.149 177.132 149.048 177.598C149.048 177.65 148.997 177.754 148.997 177.805C148.896 178.273 148.795 178.739 148.644 179.206C148.644 179.258 148.644 179.309 148.644 179.362C148.492 179.88 148.34 180.346 148.239 180.814C148.189 180.865 148.189 180.917 148.189 180.917C148.037 181.435 147.885 181.954 147.734 182.473C147.532 182.991 147.38 183.458 147.178 183.976C146.976 184.495 146.825 185.014 146.623 185.48C146.42 185.999 146.218 186.465 146.016 186.984H145.965C145.763 187.451 145.561 187.969 145.308 188.435C145.257 188.591 145.207 188.695 145.156 188.799C145.106 188.851 145.106 188.903 145.055 188.955C141.771 195.747 136.921 201.71 130.857 206.377C130.453 206.636 130.048 206.947 129.645 207.259C129.544 207.362 129.392 207.415 129.291 207.518C128.936 207.777 128.583 208.036 128.179 208.295L128.33 208.607H128.381C129.088 208.504 129.795 208.399 130.504 208.295H130.554C131.867 208.088 133.182 207.829 134.495 207.57C134.849 207.518 135.253 207.415 135.607 207.311C135.859 207.258 136.062 207.207 136.315 207.155C136.668 207.103 137.022 206.999 137.375 206.947C137.678 206.844 137.982 206.792 138.285 206.688C143.338 205.444 148.239 203.733 152.938 201.71C144.905 212.963 134.142 222.037 121.56 228C127.371 227.585 133.182 226.6 138.79 224.941C159.154 218.77 176.284 204.717 186.541 185.791C184.469 197.769 179.82 209.177 172.948 219.133C177.85 215.815 182.347 211.977 186.44 207.622C197.758 195.488 205.186 180.087 207.713 163.546C209.431 171.739 209.936 180.191 209.178 188.539C245.661 136.323 212.21 82.1875 198.214 67.9278C198.163 67.8242 198.113 67.7723 198.113 67.6685C198.062 67.7205 198.062 67.7205 198.062 67.7722C198.062 67.7203 198.062 67.7203 198.011 67.6685C198.011 68.2908 197.96 68.913 197.91 69.5353C197.758 70.7279 197.607 71.8686 197.405 73.0095C197.152 74.1503 196.849 75.291 196.545 76.4318C196.192 77.5207 195.788 78.6615 195.333 79.7505C194.878 80.7875 194.373 81.8765 193.817 82.9135C193.261 83.8987 192.655 84.9358 191.998 85.8692C191.341 86.8544 190.634 87.7877 189.926 88.6693C189.168 89.6026 188.36 90.4323 187.552 91.2619C187.046 91.7286 186.591 92.1435 186.086 92.5583C185.682 92.9213 185.328 93.2324 184.924 93.5954C184.015 94.3213 183.105 94.9954 182.095 95.6176C181.135 96.2399 180.124 96.8621 179.113 97.3806C178.052 97.8992 176.991 98.3659 175.93 98.8325C174.868 99.2474 173.756 99.6104 172.645 99.9215C171.534 100.233 170.371 100.492 169.26 100.699C168.097 100.907 166.935 101.01 165.824 101.114C165.015 101.166 164.206 101.218 163.398 101.218C162.236 101.218 161.074 101.114 159.962 101.01C158.8 100.907 157.638 100.751 156.526 100.492C155.364 100.284 154.253 99.9732 153.141 99.6102H153.09C154.202 99.5066 155.314 99.4027 156.425 99.1954C157.587 98.9879 158.699 98.7287 159.811 98.4175C160.922 98.1065 162.034 97.7435 163.095 97.3286C164.206 96.9138 165.267 96.3953 166.278 95.8767C167.339 95.3582 168.299 94.7878 169.31 94.1655C170.27 93.4915 171.23 92.8174 172.14 92.0915C173.049 91.3655 173.908 90.5877 174.716 89.758C175.575 88.9802 176.334 88.0987 177.092 87.2172C177.85 86.2838 178.557 85.3505 179.214 84.4171C179.315 84.2615 179.416 84.0541 179.517 83.8986C180.023 83.0689 180.527 82.2393 180.983 81.4096C181.538 80.3725 182.044 79.3355 182.498 78.2465C182.953 77.1575 183.357 76.0686 183.711 74.9279C184.065 73.8389 184.317 72.6982 184.57 71.5574C184.773 70.3647 184.975 69.224 185.075 68.0832C185.176 66.8905 185.277 65.6979 185.277 64.5572C185.277 63.7275 185.227 62.8978 185.176 62.0682C185.075 60.8755 184.924 59.7347 184.773 58.594C184.57 57.4014 184.317 56.2605 184.015 55.1198C183.661 54.0309 183.307 52.8901 182.903 51.8012C182.498 50.7123 181.994 49.6233 181.488 48.5862C180.932 47.5492 180.376 46.5121 179.77 45.5269C179.113 44.5416 178.456 43.6083 177.749 42.6749C176.991 41.7934 176.233 40.9119 175.425 40.0304C175.02 39.6155 174.565 39.1489 174.111 38.7341C171.836 36.9192 169.462 35.208 167.087 33.6524C166.734 33.4449 166.43 33.2895 166.076 33.1338C164.409 32.0449 162.843 31.4742 161.276 30.9556Z" fill="#E0234E"/>
</svg>
