<svg width="256" height="256" viewBox="0 0 256 256" fill="none" xmlns="http://www.w3.org/2000/svg">
<path d="M168.3 100.465L168.235 100.436C168.198 100.422 168.16 100.408 168.127 100.375C168.073 100.318 168.033 100.248 168.011 100.172C167.988 100.097 167.983 100.017 167.995 99.9388L171.624 77.7529L188.642 94.775L170.944 102.305C170.894 102.325 170.842 102.334 170.789 102.333H170.719C170.695 102.319 170.671 102.3 170.624 102.253C169.965 101.52 169.178 100.914 168.3 100.465ZM192.984 99.1126L211.18 117.308C214.959 121.092 216.851 122.979 217.541 125.167C217.644 125.491 217.728 125.815 217.794 126.148L174.31 107.732C174.286 107.722 174.263 107.713 174.239 107.703C174.066 107.633 173.863 107.553 173.863 107.375C173.863 107.196 174.07 107.112 174.244 107.042L174.3 107.018L192.984 99.1126ZM217.052 131.988C216.114 133.753 214.283 135.584 211.184 138.686L190.67 159.197L164.137 153.671L163.996 153.644C163.761 153.606 163.512 153.563 163.512 153.352C163.412 152.258 163.087 151.196 162.557 150.232C162.028 149.269 161.306 148.424 160.437 147.752C160.329 147.644 160.358 147.475 160.39 147.32C160.39 147.297 160.39 147.273 160.4 147.254L165.39 116.618L165.409 116.515C165.437 116.28 165.479 116.008 165.69 116.008C166.76 115.875 167.792 115.53 168.727 114.994C169.662 114.459 170.481 113.742 171.136 112.886C171.179 112.839 171.206 112.787 171.263 112.759C171.413 112.689 171.592 112.759 171.746 112.825L217.048 131.988H217.052ZM185.952 163.914L152.217 197.649L157.992 162.159L158.001 162.112C158.006 162.065 158.015 162.018 158.03 161.976C158.076 161.863 158.198 161.816 158.316 161.77L158.372 161.746C159.636 161.206 160.755 160.375 161.635 159.319C161.747 159.188 161.883 159.061 162.057 159.037C162.102 159.03 162.148 159.03 162.193 159.037L185.947 163.92L185.952 163.914ZM145.077 204.79L141.274 208.592L99.2359 147.836C99.2207 147.814 99.2051 147.792 99.189 147.77C99.1233 147.681 99.0529 147.592 99.0669 147.488C99.0716 147.414 99.1186 147.348 99.1702 147.291L99.2171 147.231C99.3439 147.043 99.4518 146.855 99.5692 146.653L99.6632 146.489L99.6772 146.475C99.7429 146.363 99.8039 146.255 99.9166 146.193C100.015 146.147 100.151 146.165 100.259 146.189L146.833 155.794C146.963 155.813 147.086 155.867 147.19 155.948C147.251 156.01 147.265 156.075 147.279 156.15C147.604 157.379 148.209 158.517 149.046 159.474C149.883 160.43 150.929 161.181 152.105 161.666C152.236 161.732 152.18 161.878 152.119 162.032C152.089 162.1 152.065 162.171 152.048 162.244C151.461 165.812 146.429 196.503 145.077 204.79ZM137.134 212.728C134.332 215.502 132.679 216.971 130.811 217.563C128.969 218.146 126.991 218.146 125.149 217.563C122.962 216.868 121.07 214.981 117.291 211.198L75.0736 168.98L86.1009 151.878C86.1525 151.794 86.2041 151.718 86.2886 151.657C86.406 151.573 86.575 151.61 86.7159 151.657C89.2469 152.421 91.9644 152.284 94.4054 151.268C94.5321 151.221 94.6588 151.188 94.7575 151.277C94.8067 151.322 94.8508 151.373 94.8888 151.428L137.134 212.732V212.728ZM71.0035 164.91L61.3189 155.226L80.444 147.066C80.4929 147.045 80.5457 147.034 80.5989 147.034C80.7586 147.034 80.8525 147.193 80.937 147.339C81.1292 147.634 81.3328 147.922 81.5473 148.202L81.6083 148.278C81.6646 148.357 81.6271 148.437 81.5708 148.513L71.0082 164.91H71.0035ZM57.0328 150.939L44.7803 138.686C42.696 136.602 41.1844 135.091 40.1328 133.79L77.388 141.518C77.4348 141.526 77.4817 141.534 77.5288 141.541C77.7588 141.578 78.0123 141.62 78.0123 141.836C78.0123 142.071 77.7353 142.179 77.5006 142.268L77.3927 142.315L57.0328 150.939ZM37.9922 127.49C38.0347 126.701 38.1766 125.921 38.4146 125.167C39.1094 122.979 40.9967 121.092 44.7803 117.308L60.4598 101.629C67.6791 112.106 74.918 122.57 82.1763 133.021C82.3031 133.189 82.4438 133.377 82.2984 133.518C81.613 134.274 80.9276 135.1 80.444 135.997C80.3916 136.112 80.3108 136.212 80.2093 136.288C80.1483 136.326 80.0826 136.311 80.0121 136.297H80.0028L37.9922 127.486V127.49ZM64.6566 97.432L85.7394 76.3492C87.7204 77.2177 94.9312 80.2644 101.381 82.9872C106.263 85.0528 110.714 86.9305 112.112 87.5408C112.254 87.5971 112.381 87.6535 112.441 87.7943C112.479 87.8788 112.46 87.9867 112.441 88.0759C112.108 89.5978 112.157 91.1787 112.586 92.6766C113.014 94.1745 113.808 95.5424 114.896 96.6574C115.037 96.7983 114.896 97.0001 114.775 97.1739L114.709 97.2724L93.3022 130.429C93.2458 130.523 93.1942 130.603 93.1003 130.664C92.9876 130.734 92.828 130.702 92.6965 130.668C91.864 130.451 91.0081 130.334 90.1475 130.321C89.3776 130.321 88.542 130.462 87.697 130.617H87.6923C87.5984 130.631 87.5139 130.649 87.4387 130.594C87.3559 130.526 87.2845 130.445 87.2275 130.354L64.6566 97.432ZM89.9973 72.0914L117.291 44.7979C121.07 41.0189 122.962 39.127 125.149 38.4369C126.991 37.8544 128.969 37.8544 130.811 38.4369C132.999 39.127 134.891 41.0189 138.67 44.7979L144.584 50.7128L125.172 80.7761C125.125 80.8636 125.059 80.9403 124.981 81.0014C124.863 81.0812 124.699 81.0484 124.558 81.0014C123.028 80.537 121.407 80.4524 119.836 80.7551C118.266 81.0577 116.792 81.7384 115.544 82.7384C115.417 82.8698 115.23 82.7947 115.07 82.7243C112.535 81.6212 92.8186 73.2885 89.9973 72.0914ZM148.706 54.8346L166.629 72.758L162.311 99.5069V99.5774C162.306 99.6383 162.294 99.6984 162.273 99.7558C162.226 99.8496 162.132 99.8684 162.038 99.8966C161.115 100.176 160.245 100.61 159.466 101.178C159.432 101.202 159.401 101.229 159.371 101.258C159.32 101.314 159.269 101.366 159.184 101.375C159.115 101.377 159.047 101.366 158.982 101.342L131.669 89.7378L131.618 89.7143C131.444 89.6439 131.238 89.5594 131.238 89.381C131.077 87.859 130.58 86.3918 129.783 85.0856C129.652 84.8697 129.506 84.6443 129.618 84.4237L148.706 54.8346ZM130.247 95.235L155.851 106.08C155.992 106.145 156.147 106.206 156.208 106.351C156.232 106.439 156.232 106.531 156.208 106.619C156.132 106.995 156.067 107.421 156.067 107.853V108.572C156.067 108.751 155.884 108.825 155.715 108.896L155.663 108.915C151.607 110.647 98.7195 133.199 98.6397 133.199C98.5599 133.199 98.4754 133.199 98.3956 133.119C98.2548 132.979 98.3956 132.782 98.5223 132.602C98.5447 132.572 98.5667 132.54 98.5881 132.509L119.628 99.9295L119.666 99.8731C119.789 99.6759 119.929 99.4553 120.154 99.4553L120.365 99.4882C120.844 99.5539 121.267 99.6149 121.694 99.6149C124.886 99.6149 127.844 98.0611 129.627 95.404C129.671 95.3331 129.725 95.2696 129.788 95.2163C129.914 95.1223 130.102 95.1693 130.247 95.235ZM100.926 138.353L158.574 113.769C158.574 113.769 158.659 113.769 158.738 113.848C159.053 114.163 159.32 114.374 159.578 114.571L159.705 114.651C159.822 114.717 159.94 114.792 159.949 114.914C159.949 114.961 159.949 114.99 159.94 115.032L155.001 145.367L154.982 145.489C154.95 145.724 154.916 145.992 154.696 145.992C153.379 146.08 152.104 146.489 150.982 147.182C149.858 147.875 148.921 148.83 148.251 149.968L148.227 150.005C148.161 150.113 148.101 150.216 147.993 150.273C147.894 150.32 147.767 150.301 147.664 150.278L101.691 140.794C101.644 140.785 100.978 138.358 100.926 138.353Z" fill="url(#paint0_radial_36_1157)"/>
<defs>
<radialGradient id="paint0_radial_36_1157" cx="0" cy="0" r="1" gradientUnits="userSpaceOnUse" gradientTransform="translate(31.9555 125.46) rotate(90) scale(179.802 207.587)">
<stop stop-color="#20C6B7"/>
<stop offset="1" stop-color="#4D9ABF"/>
</radialGradient>
</defs>
</svg>
