<svg width="257" height="256" viewBox="0 0 257 256" fill="none" xmlns="http://www.w3.org/2000/svg">
<path d="M0.00195312 56C0.00195312 25.0721 25.074 0 56.002 0H200.002C230.93 0 256.002 25.0721 256.002 56V200C256.002 230.928 230.93 256 200.002 256H56.002C25.074 256 0.00195312 230.928 0.00195312 200V56Z" fill="#22272E"/>
<path d="M172.787 97.4051L172.714 97.3738C172.673 97.3582 172.631 97.3425 172.594 97.306C172.534 97.2417 172.49 97.1646 172.465 97.0805C172.44 96.9964 172.434 96.9076 172.448 96.8209L176.48 72.1698L195.389 91.0833L175.724 99.4498C175.669 99.4718 175.611 99.4825 175.552 99.4811H175.474C175.448 99.4655 175.421 99.4446 175.369 99.3924C174.637 98.5776 173.762 97.904 172.787 97.4051ZM200.213 95.9029L220.431 116.12C224.63 120.325 226.732 122.421 227.499 124.852C227.613 125.212 227.707 125.572 227.78 125.942L179.464 105.48C179.438 105.469 179.412 105.459 179.386 105.448C179.193 105.37 178.968 105.281 178.968 105.083C178.968 104.885 179.198 104.791 179.391 104.713L179.453 104.687L200.213 95.9029ZM226.956 132.431C225.913 134.392 223.879 136.427 220.436 139.874L197.642 162.663L168.161 156.524L168.004 156.493C167.743 156.451 167.467 156.404 167.467 156.169C167.355 154.953 166.994 153.773 166.406 152.702C165.818 151.632 165.016 150.694 164.05 149.947C163.93 149.827 163.962 149.639 163.998 149.467C163.998 149.441 163.998 149.415 164.009 149.394L169.553 115.354L169.574 115.239C169.606 114.978 169.652 114.676 169.887 114.676C171.075 114.528 172.222 114.145 173.261 113.549C174.3 112.954 175.21 112.158 175.938 111.207C175.985 111.155 176.016 111.097 176.079 111.066C176.246 110.988 176.444 111.066 176.616 111.139L226.951 132.431H226.956ZM192.4 167.905L154.917 205.388L161.333 165.955L161.343 165.902C161.349 165.85 161.359 165.798 161.375 165.751C161.427 165.626 161.562 165.574 161.693 165.522L161.755 165.496C163.16 164.896 164.403 163.972 165.381 162.799C165.506 162.653 165.657 162.512 165.85 162.486C165.9 162.478 165.951 162.478 166.001 162.486L192.394 167.911L192.4 167.905ZM146.983 213.322L142.758 217.547L96.0486 150.04C96.0317 150.016 96.0143 149.991 95.9964 149.967C95.9234 149.868 95.8452 149.769 95.8608 149.654C95.866 149.571 95.9182 149.498 95.9756 149.435L96.0277 149.368C96.1686 149.159 96.2885 148.95 96.4189 148.726L96.5233 148.543L96.5389 148.528C96.6119 148.403 96.6797 148.283 96.8049 148.215C96.9145 148.163 97.0657 148.184 97.1857 148.21L148.934 158.882C149.079 158.904 149.215 158.963 149.331 159.054C149.399 159.122 149.414 159.195 149.43 159.278C149.791 160.644 150.463 161.908 151.393 162.971C152.323 164.034 153.486 164.868 154.792 165.407C154.938 165.48 154.875 165.642 154.808 165.814C154.774 165.889 154.748 165.968 154.729 166.049C154.077 170.013 148.486 204.115 146.983 213.322ZM138.158 222.142C135.044 225.225 133.208 226.857 131.132 227.515C129.085 228.162 126.888 228.162 124.841 227.515C122.411 226.743 120.309 224.646 116.11 220.442L69.2015 173.534L81.4541 154.531C81.5114 154.438 81.5688 154.354 81.6627 154.286C81.7931 154.192 81.9809 154.234 82.1374 154.286C84.9497 155.135 87.9691 154.982 90.6813 153.853C90.8221 153.801 90.9629 153.765 91.0725 153.864C91.1272 153.914 91.1762 153.97 91.2185 154.031L138.158 222.147V222.142ZM64.6792 169.011L53.9186 158.251L75.1687 149.185C75.223 149.161 75.2816 149.149 75.3408 149.149C75.5182 149.149 75.6225 149.326 75.7164 149.488C75.93 149.816 76.1562 150.136 76.3945 150.447L76.4623 150.531C76.5249 150.619 76.4832 150.708 76.4206 150.792L64.6845 169.011H64.6792ZM49.1563 153.488L35.5424 139.874C33.2265 137.558 31.5469 135.879 30.3785 134.434L71.7731 143.02C71.8251 143.029 71.8772 143.038 71.9295 143.046C72.1851 143.087 72.4668 143.134 72.4668 143.374C72.4668 143.635 72.159 143.755 71.8982 143.854L71.7783 143.906L49.1563 153.488ZM28 127.434C28.0472 126.557 28.2049 125.69 28.4694 124.852C29.2414 122.421 31.3383 120.325 35.5424 116.12L52.9641 98.6987C60.9855 110.34 69.0286 121.967 77.0934 133.579C77.2343 133.766 77.3907 133.975 77.2291 134.131C76.4675 134.971 75.706 135.889 75.1687 136.886C75.1104 137.014 75.0207 137.125 74.9079 137.209C74.8401 137.251 74.7671 137.235 74.6888 137.219H74.6784L28 127.429V127.434ZM57.6272 94.0355L81.0524 70.6102C83.2536 71.5752 91.2655 74.9604 98.4323 77.9857C103.857 80.2808 108.802 82.3672 110.356 83.0453C110.513 83.1079 110.654 83.1705 110.721 83.327C110.763 83.4209 110.742 83.5408 110.721 83.6399C110.351 85.3309 110.406 87.0874 110.882 88.7517C111.358 90.4161 112.24 91.936 113.449 93.1749C113.606 93.3314 113.449 93.5557 113.314 93.7487L113.241 93.8582L89.4555 130.699C89.3929 130.804 89.3355 130.892 89.2312 130.96C89.106 131.038 88.9287 131.002 88.7826 130.965C87.8575 130.723 86.9065 130.593 85.9503 130.579C85.0949 130.579 84.1664 130.736 83.2275 130.908H83.2223C83.118 130.924 83.0241 130.944 82.9406 130.882C82.8485 130.807 82.7692 130.717 82.7059 130.616L57.6272 94.0355ZM85.7834 65.8794L116.11 35.5532C120.309 31.3543 122.411 29.2522 124.841 28.4854C126.888 27.8382 129.085 27.8382 131.132 28.4854C133.563 29.2522 135.665 31.3543 139.864 35.5532L146.436 42.1254L124.867 75.529C124.814 75.6262 124.741 75.7114 124.654 75.7793C124.523 75.868 124.341 75.8315 124.184 75.7793C122.484 75.2633 120.683 75.1693 118.938 75.5056C117.193 75.8419 115.556 76.5982 114.169 77.7093C114.028 77.8553 113.82 77.7719 113.642 77.6936C110.826 76.4679 88.9182 67.2095 85.7834 65.8794ZM151.016 46.7051L170.93 66.62L166.132 96.341V96.4193C166.127 96.487 166.113 96.5538 166.09 96.6175C166.038 96.7218 165.933 96.7427 165.829 96.774C164.803 97.0848 163.837 97.5661 162.971 98.198C162.933 98.2245 162.899 98.2542 162.866 98.2866C162.809 98.3492 162.752 98.4066 162.658 98.417C162.581 98.4194 162.505 98.407 162.433 98.3805L132.086 85.4864L132.029 85.4603C131.836 85.3821 131.607 85.2882 131.607 85.09C131.428 83.3989 130.876 81.7686 129.99 80.3173C129.844 80.0774 129.682 79.827 129.807 79.5818L151.016 46.7051ZM130.506 91.5944L158.954 103.644C159.111 103.717 159.283 103.784 159.351 103.946C159.378 104.043 159.378 104.146 159.351 104.243C159.267 104.661 159.194 105.135 159.194 105.615V106.413C159.194 106.612 158.991 106.695 158.803 106.773L158.746 106.794C154.239 108.719 95.4748 133.777 95.3861 133.777C95.2975 133.777 95.2036 133.777 95.1149 133.688C94.9584 133.532 95.1149 133.313 95.2557 133.114C95.2806 133.08 95.305 133.045 95.3288 133.01L118.707 96.8105L118.749 96.7479C118.885 96.5288 119.041 96.2837 119.291 96.2837L119.526 96.3202C120.058 96.3932 120.528 96.461 121.002 96.461C124.549 96.461 127.835 94.7345 129.817 91.7822C129.865 91.7034 129.925 91.6329 129.995 91.5736C130.136 91.4692 130.344 91.5214 130.506 91.5944ZM97.9264 139.504L161.98 112.188C161.98 112.188 162.074 112.188 162.162 112.276C162.512 112.626 162.809 112.86 163.096 113.079L163.237 113.168C163.367 113.241 163.498 113.325 163.508 113.46C163.508 113.512 163.508 113.544 163.498 113.591L158.01 147.297L157.989 147.432C157.953 147.693 157.916 147.991 157.671 147.991C156.208 148.089 154.791 148.543 153.544 149.313C152.296 150.083 151.254 151.145 150.51 152.409L150.483 152.45C150.41 152.57 150.343 152.685 150.223 152.748C150.113 152.8 149.972 152.779 149.858 152.753L98.7766 142.216C98.7244 142.206 97.9837 139.509 97.9264 139.504Z" fill="url(#paint0_radial_24_441)"/>
<defs>
<radialGradient id="paint0_radial_24_441" cx="0" cy="0" r="1" gradientUnits="userSpaceOnUse" gradientTransform="translate(21.2925 125.178) rotate(90) scale(199.78 230.653)">
<stop stop-color="#20C6B7"/>
<stop offset="1" stop-color="#4D9ABF"/>
</radialGradient>
</defs>
</svg>
