<svg width="257" height="256" viewBox="0 0 257 256" fill="none" xmlns="http://www.w3.org/2000/svg">
<path d="M0.00195312 56C0.00195312 25.0721 25.074 0 56.002 0H200.002C230.93 0 256.002 25.0721 256.002 56V200C256.002 230.928 230.93 256 200.002 256H56.002C25.074 256 0.00195312 230.928 0.00195312 200V56Z" fill="#0F172A"/>
<path d="M121.437 28.0538C121.007 28.0929 119.639 28.2298 118.407 28.3275C90.0047 30.8882 63.4005 46.2135 46.5506 69.7682C37.1678 82.865 31.1667 97.7212 28.8992 113.457C28.0978 118.95 28 120.573 28 128.02C28 135.467 28.0978 137.09 28.8992 142.582C34.3334 180.133 61.0548 211.683 97.2959 223.373C103.786 225.464 110.627 226.891 118.407 227.751C121.437 228.083 134.533 228.083 137.564 227.751C150.993 226.265 162.369 222.943 173.59 217.215C175.31 216.336 175.642 216.101 175.408 215.906C175.252 215.788 167.921 205.955 159.125 194.071L143.135 172.471L123.098 142.817C112.074 126.515 103.004 113.183 102.925 113.183C102.847 113.164 102.769 126.339 102.73 142.426C102.671 170.594 102.652 171.728 102.3 172.392C101.792 173.35 101.401 173.741 100.579 174.172C99.9543 174.484 99.407 174.543 96.4553 174.543H93.0736L92.1744 173.976C91.588 173.605 91.158 173.116 90.8647 172.549L90.4542 171.669L90.4933 132.477L90.552 93.2643L91.158 92.5019C91.4707 92.0915 92.1354 91.5637 92.6045 91.3095C93.4059 90.9186 93.7187 90.8795 97.1004 90.8795C101.088 90.8795 101.752 91.0358 102.789 92.1697C103.082 92.4824 113.93 108.824 126.911 128.508C139.89 148.193 157.639 175.071 166.357 188.265L182.191 212.25L182.992 211.722C190.087 207.109 197.594 200.541 203.536 193.699C216.184 179.175 224.335 161.466 227.072 142.582C227.873 137.09 227.971 135.467 227.971 128.02C227.971 120.573 227.873 118.95 227.072 113.457C221.638 75.9062 194.916 44.3564 158.675 32.667C152.283 30.595 145.481 29.1681 137.857 28.308C135.98 28.1125 123.059 27.8974 121.437 28.0538ZM162.369 88.5338C163.307 89.0029 164.07 89.9021 164.344 90.8404C164.5 91.3486 164.539 102.217 164.5 126.71L164.441 161.857L158.245 152.356L152.029 142.856V117.308C152.029 100.791 152.107 91.505 152.224 91.0554C152.537 89.9608 153.221 89.1007 154.16 88.5924C154.96 88.182 155.254 88.1429 158.323 88.1429C161.217 88.1429 161.725 88.182 162.369 88.5338Z" fill="white"/>
</svg>
