<svg width="256" height="256" viewBox="0 0 256 256" fill="none" xmlns="http://www.w3.org/2000/svg">
<path d="M122.086 38.0484C121.699 38.0836 120.467 38.2068 119.358 38.2947C93.7964 40.5994 69.8527 54.3921 54.6877 75.5914C46.2432 87.3785 40.8423 100.749 38.8014 114.911C38.0802 119.855 37.9922 121.315 37.9922 128.018C37.9922 134.721 38.0802 136.181 38.8014 141.124C43.6922 174.92 67.7415 203.315 100.358 213.835C106.2 215.718 112.356 217.002 119.358 217.776C122.086 218.075 133.872 218.075 136.6 217.776C148.686 216.439 158.925 213.448 169.023 208.293C170.571 207.502 170.87 207.291 170.659 207.115C170.519 207.009 163.921 198.16 156.005 187.464L141.614 168.024L123.581 141.336C113.659 126.663 105.496 114.664 105.425 114.664C105.355 114.647 105.284 126.505 105.249 140.984C105.196 166.335 105.179 167.355 104.862 167.953C104.405 168.815 104.053 169.167 103.314 169.555C102.751 169.835 102.258 169.889 99.602 169.889H96.5584L95.7492 169.378C95.2214 169.044 94.8344 168.604 94.5705 168.094L94.201 167.302L94.2362 132.029L94.289 96.7379L94.8344 96.0517C95.1159 95.6823 95.714 95.2073 96.1362 94.9786C96.8575 94.6267 97.139 94.5915 100.183 94.5915C103.772 94.5915 104.369 94.7323 105.302 95.7527C105.566 96.0342 115.33 110.742 127.012 128.458C138.693 146.173 154.667 170.364 162.513 182.238L176.764 203.825L177.485 203.35C183.871 199.198 190.627 193.287 195.975 187.129C207.357 174.058 214.694 158.119 217.157 141.124C217.878 136.181 217.966 134.721 217.966 128.018C217.966 121.315 217.878 119.855 217.157 114.911C212.266 81.1155 188.216 52.7208 155.6 42.2003C149.847 40.3355 143.725 39.0512 136.863 38.2772C135.174 38.1013 123.545 37.9077 122.086 38.0484ZM158.925 92.4804C159.769 92.9027 160.455 93.7119 160.702 94.5563C160.842 95.0137 160.877 104.796 160.842 126.839L160.789 158.471L155.213 149.92L149.618 141.371V118.377C149.618 103.511 149.688 95.1545 149.794 94.7499C150.075 93.7647 150.691 92.9907 151.536 92.5332C152.257 92.1638 152.521 92.1286 155.283 92.1286C157.887 92.1286 158.344 92.1638 158.925 92.4804Z" fill="#111827"/>
</svg>
