<svg width="256" height="256" viewBox="0 0 256 256" fill="none" xmlns="http://www.w3.org/2000/svg">
<g clip-path="url(#clip0_30_258)">
<path d="M196 0H60C26.8629 0 0 26.8629 0 60V196C0 229.137 26.8629 256 60 256H196C229.137 256 256 229.137 256 196V60C256 26.8629 229.137 0 196 0Z" fill="#009639"/>
<path d="M191.377 208C187.055 208 182.799 206.318 179.621 203.133L81.246 104.759V191.379C81.246 200.56 73.8056 208 64.6231 208C55.4472 208 48 200.56 48 191.379V64.6285C48 57.9001 52.056 51.8432 58.2664 49.2702C64.4701 46.6905 71.6247 48.1133 76.3788 52.8738L174.754 151.247V64.6285C174.754 55.4468 182.195 48.0069 191.377 48.0069C200.56 48.0069 208 55.4468 208 64.6285V191.379C208 198.1 203.944 204.164 197.734 206.737C195.679 207.588 193.525 208 191.377 208Z" fill="white"/>
</g>
<defs>
<clipPath id="clip0_30_258">
<rect width="256" height="256" fill="white"/>
</clipPath>
</defs>
</svg>
