<svg width="256" height="256" viewBox="0 0 256 256" fill="none" xmlns="http://www.w3.org/2000/svg">
<path d="M50.2711 173.034C51.0883 174.487 52.2686 175.576 53.7213 176.393L123.633 216.706C126.538 218.431 130.079 218.431 132.894 216.706L202.806 176.393C205.711 174.759 207.436 171.672 207.436 168.313V87.6873C207.436 84.3279 205.711 81.2409 202.806 79.6066L132.894 39.2938C129.989 37.5687 126.448 37.5687 123.633 39.2938L53.7213 79.6066C50.7251 81.2409 49 84.3279 49 87.6873V168.404C49 170.038 49.3632 171.581 50.2711 173.034Z" fill="#009639"/>
<path d="M105.838 158.779C105.838 163.773 101.843 167.768 96.849 167.768C91.8553 167.768 87.8604 163.773 87.8604 158.779V97.1298C87.8604 92.3177 92.1277 88.4135 98.0293 88.4135C102.297 88.4135 107.29 90.1386 110.287 93.8612L113.01 97.1298L150.599 142.073V97.3114C150.599 92.3177 154.594 88.3228 159.588 88.3228C164.582 88.3228 168.577 92.3177 168.577 97.3114V158.961C168.577 163.773 164.309 167.677 158.408 167.677C154.14 167.677 149.147 165.952 146.15 162.229L105.838 114.108V158.779Z" fill="white"/>
</svg>
