<svg width="257" height="256" viewBox="0 0 257 256" fill="none" xmlns="http://www.w3.org/2000/svg">
<path d="M0.00195312 56C0.00195312 25.0721 25.074 0 56.002 0H200.002C230.93 0 256.002 25.0721 256.002 56V200C256.002 230.928 230.93 256 200.002 256H56.002C25.074 256 0.00195312 230.928 0.00195312 200V56Z" fill="#F8FAFC"/>
<path d="M119.556 30.1339C124.516 27.295 130.975 27.2824 135.93 30.1339C160.857 44.2188 185.792 58.282 210.714 72.3754C215.403 75.0159 218.538 80.233 218.49 85.6343V170.376C218.525 176.001 215.08 181.343 210.135 183.923C185.289 197.931 160.456 211.955 135.615 225.964C130.555 228.857 123.966 228.635 119.061 225.503C111.613 221.185 104.152 216.888 96.7026 212.575C95.1802 211.667 93.4643 210.945 92.3896 209.469C93.3395 208.189 95.0387 208.029 96.4191 207.47C99.5278 206.48 102.384 204.893 105.24 203.354C105.963 202.86 106.844 203.049 107.537 203.491C113.906 207.143 120.22 210.902 126.61 214.519C127.973 215.306 129.354 214.26 130.519 213.611C154.9 199.831 179.31 186.104 203.688 172.32C204.591 171.885 205.09 170.926 205.016 169.937C205.034 141.983 205.021 114.024 205.026 86.0689C205.128 84.9464 204.479 83.9144 203.464 83.4546C178.705 69.5113 153.958 55.5468 129.204 41.5999C128.325 40.9961 127.167 40.9946 126.288 41.5954C101.532 55.5468 76.7907 69.5244 52.0359 83.4667C51.0244 83.927 50.3457 84.9424 50.4661 86.0689C50.4703 114.024 50.4661 141.983 50.4661 169.941C50.3781 170.93 50.9153 171.869 51.8123 172.295C58.4182 176.04 65.0327 179.76 71.6428 183.494C75.3668 185.497 79.9391 186.689 84.042 185.153C87.6626 183.855 90.2004 180.159 90.1314 176.316C90.1656 148.524 90.1142 120.729 90.1571 92.9414C90.0669 91.7075 91.2368 90.6882 92.4365 90.8045C95.6108 90.7828 98.7887 90.7618 101.963 90.8131C103.288 90.7828 104.199 92.1115 104.036 93.3544C104.023 121.322 104.07 149.29 104.015 177.256C104.023 184.711 100.961 192.821 94.0662 196.468C85.5728 200.867 75.0747 199.935 66.6838 195.716C59.4197 192.09 52.4876 187.811 45.3524 183.927C40.394 181.361 36.9657 175.998 37.0006 170.377V85.6343C36.9486 80.1211 40.2089 74.8094 45.0425 72.2077C69.8835 58.1888 94.7204 44.1589 119.556 30.1339Z" fill="#81CD39"/>
<path d="M141.228 88.8349C152.062 88.1373 163.661 88.4219 173.41 93.7587C180.959 97.8492 185.143 106.433 185.276 114.819C185.065 115.95 183.883 116.574 182.803 116.496C179.66 116.492 176.515 116.539 173.372 116.475C172.038 116.526 171.264 115.297 171.097 114.119C170.193 110.106 168.004 106.132 164.228 104.196C158.431 101.294 151.709 101.44 145.386 101.501C140.773 101.745 135.81 102.145 131.9 104.858C128.898 106.914 127.986 111.064 129.057 114.407C130.068 116.807 132.837 117.581 135.104 118.295C148.161 121.71 161.997 121.369 174.803 125.863C180.107 127.695 185.293 131.257 187.108 136.809C189.483 144.25 188.442 153.143 183.148 159.116C178.854 164.032 172.602 166.708 166.366 168.161C158.07 170.011 149.46 170.058 141.035 169.236C133.113 168.333 124.868 166.252 118.753 160.855C113.523 156.313 110.969 149.237 111.222 142.409C111.282 141.255 112.431 140.451 113.536 140.546C116.701 140.52 119.867 140.511 123.032 140.551C124.296 140.46 125.234 141.553 125.298 142.745C125.882 146.567 127.319 150.58 130.652 152.846C137.086 156.997 145.16 156.712 152.526 156.828C158.628 156.558 165.48 156.477 170.46 152.442C173.088 150.141 173.866 146.292 173.157 142.981C172.387 140.185 169.462 138.882 166.951 138.03C154.062 133.953 140.071 135.433 127.307 130.822C122.124 128.991 117.113 125.528 115.123 120.205C112.345 112.67 113.617 103.349 119.466 97.5777C125.169 91.8364 133.401 89.6255 141.228 88.8344V88.8349Z" fill="#81CD39"/>
</svg>
