<svg width="256" height="256" viewBox="0 0 256 256" fill="none" xmlns="http://www.w3.org/2000/svg">
<path d="M120.293 39.9205C124.757 37.3655 130.57 37.3542 135.029 39.9205C157.463 52.5969 179.905 65.2538 202.335 77.9379C206.555 80.3143 209.376 85.0097 209.333 89.8709V166.138C209.365 171.201 206.264 176.009 201.813 178.331C179.453 190.938 157.103 203.56 134.746 216.167C130.191 218.772 124.261 218.571 119.847 215.752C113.144 211.867 106.429 207.999 99.7246 204.117C98.3544 203.3 96.8101 202.651 95.8428 201.322C96.6978 200.17 98.227 200.026 99.4694 199.523C102.267 198.632 104.838 197.204 107.408 195.818C108.059 195.374 108.852 195.544 109.475 195.942C115.207 199.229 120.89 202.612 126.641 205.867C127.868 206.575 129.111 205.634 130.16 205.05C152.102 192.648 174.071 180.294 196.011 167.888C196.824 167.497 197.273 166.634 197.207 165.743C197.222 140.584 197.211 115.421 197.215 90.262C197.308 89.2517 196.723 88.323 195.81 87.9092C173.527 75.3601 151.254 62.7921 128.975 50.2399C128.185 49.6965 127.142 49.6951 126.351 50.2359C104.071 62.7921 81.8039 75.3719 59.5245 87.9201C58.6142 88.3343 58.0033 89.2481 58.1116 90.262C58.1154 115.421 58.1116 140.584 58.1116 165.747C58.0325 166.637 58.516 167.482 59.3233 167.865C65.2686 171.236 71.2217 174.584 77.1708 177.944C80.5224 179.747 84.6374 180.82 88.33 179.438C91.5885 178.269 93.8726 174.943 93.8104 171.484C93.8413 146.472 93.795 121.456 93.8335 96.4472C93.7524 95.3368 94.8053 94.4193 95.885 94.5241C98.7419 94.5046 101.602 94.4856 104.459 94.5318C105.651 94.5046 106.471 95.7003 106.324 96.8189C106.313 121.99 106.355 147.161 106.305 172.331C106.313 179.04 103.557 186.339 97.3518 189.621C89.7077 193.581 80.2595 192.741 72.7076 188.944C66.1699 185.681 59.931 181.83 53.5094 178.334C49.0468 176.025 45.9613 171.198 45.9927 166.139V89.8709C45.9459 84.909 48.8802 80.1285 53.2304 77.7869C75.5873 65.1699 97.9405 52.543 120.293 39.9205Z" fill="#81CD39"/>
<path d="M139.798 92.7513C149.548 92.1236 159.987 92.3796 168.761 97.1828C175.555 100.864 179.321 108.59 179.441 116.137C179.251 117.155 178.187 117.716 177.215 117.646C174.386 117.643 171.556 117.685 168.727 117.627C167.527 117.674 166.83 116.567 166.679 115.507C165.866 111.895 163.896 108.319 160.498 106.576C155.28 103.965 149.231 104.096 143.54 104.151C139.388 104.37 134.921 104.731 131.402 107.173C128.7 109.023 127.88 112.758 128.844 115.766C129.753 117.926 132.246 118.623 134.286 119.265C146.037 122.339 158.489 122.032 170.015 126.077C174.788 127.726 179.456 130.932 181.09 135.928C183.227 142.625 182.29 150.629 177.525 156.005C173.661 160.428 168.034 162.837 162.421 164.144C154.955 165.81 147.206 165.852 139.623 165.113C132.494 164.3 125.073 162.427 119.57 157.569C114.863 153.482 112.564 147.113 112.792 140.968C112.846 139.93 113.88 139.206 114.874 139.291C117.723 139.268 120.572 139.26 123.421 139.296C124.559 139.214 125.403 140.198 125.461 141.27C125.986 144.71 127.279 148.322 130.279 150.361C136.07 154.097 143.336 153.841 149.966 153.946C155.458 153.702 161.624 153.629 166.107 149.998C168.471 147.927 169.172 144.463 168.533 141.483C167.841 138.966 165.208 137.794 162.948 137.027C151.348 133.358 138.756 134.689 127.268 130.54C122.604 128.892 118.094 125.775 116.303 120.984C113.803 114.203 114.948 105.814 120.212 100.62C125.345 95.4527 132.753 93.4629 139.798 92.7509V92.7513Z" fill="#81CD39"/>
</svg>
