<svg width="256" height="256" viewBox="0 0 256 256" fill="none" xmlns="http://www.w3.org/2000/svg">
<path fill-rule="evenodd" clip-rule="evenodd" d="M152.421 38.4092L52.8221 45.7651C44.7882 46.4611 41.9922 51.711 41.9922 58.005V167.192C41.9922 172.094 43.7322 176.288 47.9321 181.892L71.3439 212.335C75.1898 217.237 78.6878 218.287 86.0317 217.939L201.692 210.937C211.472 210.241 214.274 205.687 214.274 197.989V75.1528C214.274 71.1748 212.702 70.0288 208.076 66.6329C207.81 66.4411 207.544 66.2491 207.278 66.0569L175.491 43.6591C167.799 38.0672 164.655 37.3592 152.421 38.4092ZM88.6477 73.1428C79.2038 73.7788 77.0618 73.9228 71.6978 69.5608L58.06 58.713C56.674 57.309 57.37 55.557 60.862 55.209L156.609 48.2131C164.649 47.5111 168.837 50.3131 171.981 52.761L188.402 64.6589C189.104 65.0129 190.85 67.1069 188.75 67.1069L89.8716 73.0588L88.6477 73.1428ZM77.6378 196.939V92.6606C77.6378 88.1066 79.0358 86.0066 83.2237 85.6527L196.79 79.0047C200.642 78.6567 202.382 81.1047 202.382 85.6527V189.235C202.382 193.789 201.68 197.641 195.392 197.989L86.7157 204.289C80.4277 204.637 77.6378 202.543 77.6378 196.939ZM184.917 98.2525C185.613 101.402 184.917 104.552 181.767 104.912L176.529 105.95V182.942C171.981 185.389 167.793 186.787 164.295 186.787C158.703 186.787 157.305 185.035 153.117 179.792L118.863 125.9V178.04L129.699 180.494C129.699 180.494 129.699 186.793 120.957 186.793L96.8556 188.191C96.1536 186.787 96.8556 183.29 99.2975 182.594L105.591 180.848V111.908L96.8556 111.2C96.1536 108.05 97.8995 103.502 102.795 103.148L128.655 101.408L164.295 155.996V107.702L155.211 106.658C154.509 102.8 157.305 99.9985 160.797 99.6565L184.917 98.2525Z" fill="black"/>
</svg>
