<svg width="257" height="256" viewBox="0 0 257 256" fill="none" xmlns="http://www.w3.org/2000/svg">
<path d="M0.00195312 56C0.00195312 25.0721 25.074 0 56.002 0H200.002C230.93 0 256.002 25.0721 256.002 56V200C256.002 230.928 230.93 256 200.002 256H56.002C25.074 256 0.00195312 230.928 0.00195312 200V56Z" fill="#0F172A"/>
<path fill-rule="evenodd" clip-rule="evenodd" d="M116.261 68.2263C110.657 58.5913 96.6477 58.5911 91.044 68.2263L29.9723 173.235C24.3685 182.87 31.3731 194.913 42.5805 194.913H90.2567C85.4676 190.728 83.6942 183.488 87.3183 177.276L133.571 97.9904L116.261 68.2263Z" fill="#80EEC0"/>
<path d="M154.957 91.2605C159.595 83.3772 171.188 83.3772 175.826 91.2605L226.368 177.176C231.005 185.059 225.209 194.913 215.934 194.913H114.849C105.574 194.913 99.7771 185.059 104.415 177.176L154.957 91.2605Z" fill="#00DC82"/>
</svg>
