<svg width="257" height="256" viewBox="0 0 257 256" fill="none" xmlns="http://www.w3.org/2000/svg">
<path d="M0.00195312 56C0.00195312 25.0721 25.074 0 56.002 0H200.002C230.93 0 256.002 25.0721 256.002 56V200C256.002 230.928 230.93 256 200.002 256H56.002C25.074 256 0.00195312 230.928 0.00195312 200V56Z" fill="#F8FAFC"/>
<path d="M61.8516 48.7731C30.8478 82.4657 38.3617 145.254 78.6254 189.01C118.889 232.765 176.658 240.92 207.662 207.228C238.666 173.535 231.173 110.744 190.909 66.9886C150.646 23.2331 92.8555 15.0805 61.8516 48.7731ZM89.9653 62.769C114.326 36.2956 159.117 42.0543 190.017 75.6338C220.917 109.213 226.216 157.889 201.855 184.362C177.494 210.836 132.691 205.09 101.792 171.51C70.8917 137.931 65.6044 89.2425 89.9653 62.769Z" fill="url(#paint0_radial_36_1141)"/>
<path d="M196.287 60.7383H179.516C176.98 60.7383 174.924 62.7943 174.924 65.3305V82.1019C174.924 84.6381 176.98 86.6941 179.516 86.6941H196.287C198.824 86.6941 200.88 84.6381 200.88 82.1019V65.3305C200.88 62.7943 198.824 60.7383 196.287 60.7383Z" fill="#FF7F2A" stroke="#D45500" stroke-width="6.28859"/>
<path d="M79.3189 94.9331H39.8162C33.8426 94.9331 29 99.7757 29 105.749V145.252C29 151.225 33.8426 156.068 39.8162 156.068H79.3189C85.2925 156.068 90.1351 151.225 90.1351 145.252V105.749C90.1351 99.7757 85.2925 94.9331 79.3189 94.9331Z" fill="#FF7F2A" stroke="#D45500" stroke-width="6.28859"/>
<path d="M217.396 174.966H193.531C189.922 174.966 186.996 177.892 186.996 181.501V205.366C186.996 208.975 189.922 211.901 193.531 211.901H217.396C221.005 211.901 223.931 208.975 223.931 205.366V181.501C223.931 177.892 221.005 174.966 217.396 174.966Z" fill="#FF7F2A" stroke="#D45500" stroke-width="6.28859"/>
<defs>
<radialGradient id="paint0_radial_36_1141" cx="0" cy="0" r="1" gradientUnits="userSpaceOnUse" gradientTransform="translate(89.3141 200.307) rotate(-47.3797) scale(300.774 999.838)">
<stop stop-color="#008CBE"/>
<stop offset="1" stop-color="#B2FFFF"/>
</radialGradient>
</defs>
</svg>
