<svg width="256" height="256" viewBox="0 0 256 256" fill="none" xmlns="http://www.w3.org/2000/svg">
<path d="M68.5587 56.6958C40.6552 87.0191 47.4178 143.529 83.6551 182.909C119.892 222.289 171.885 229.628 199.788 199.305C227.692 168.982 220.948 112.47 184.71 73.0898C148.474 33.7098 96.4622 26.3724 68.5587 56.6958ZM93.861 69.2921C115.786 45.4661 156.098 50.6489 183.908 80.8704C211.718 111.092 216.487 154.9 194.562 178.726C172.637 202.553 132.314 197.381 104.505 167.159C76.6948 136.938 71.9362 93.1182 93.861 69.2921Z" fill="url(#paint0_radial_36_1141)"/>
<path d="M189.55 67.4644H174.457C172.174 67.4644 170.324 69.3148 170.324 71.5973V86.6916C170.324 88.9742 172.174 90.8246 174.457 90.8246H189.55C191.834 90.8246 193.684 88.9742 193.684 86.6916V71.5973C193.684 69.3148 191.834 67.4644 189.55 67.4644Z" fill="#FF7F2A" stroke="#D45500" stroke-width="6.28859"/>
<path d="M84.2792 98.2397H48.7268C43.3505 98.2397 38.9922 102.598 38.9922 107.974V143.527C38.9922 148.903 43.3505 153.261 48.7268 153.261H84.2792C89.6554 153.261 94.0137 148.903 94.0137 143.527V107.974C94.0137 102.598 89.6554 98.2397 84.2792 98.2397Z" fill="#FF7F2A" stroke="#D45500" stroke-width="6.28859"/>
<path d="M208.549 170.27H187.07C183.822 170.27 181.189 172.903 181.189 176.151V197.63C181.189 200.878 183.822 203.511 187.07 203.511H208.549C211.797 203.511 214.43 200.878 214.43 197.63V176.151C214.43 172.903 211.797 170.27 208.549 170.27Z" fill="#FF7F2A" stroke="#D45500" stroke-width="6.28859"/>
<defs>
<radialGradient id="paint0_radial_36_1141" cx="0" cy="0" r="1" gradientUnits="userSpaceOnUse" gradientTransform="translate(93.2749 193.076) rotate(-47.3797) scale(270.697 899.854)">
<stop stop-color="#008CBE"/>
<stop offset="1" stop-color="#B2FFFF"/>
</radialGradient>
</defs>
</svg>
