<svg width="256" height="256" viewBox="0 0 256 256" fill="none" xmlns="http://www.w3.org/2000/svg">
<g clip-path="url(#clip0_30_663)">
<path d="M196 0H60C26.8629 0 0 26.8629 0 60V196C0 229.137 26.8629 256 60 256H196C229.137 256 256 229.137 256 196V60C256 26.8629 229.137 0 196 0Z" fill="black"/>
<path d="M53.7765 154.856C52.5826 154.857 51.4246 154.448 50.4965 153.697C49.5682 152.946 48.9259 151.899 48.677 150.732C48.4281 149.564 48.5877 148.347 49.1291 147.282C49.6705 146.218 50.5608 145.372 51.6512 144.885L74.5045 134.711C75.1294 134.432 75.8033 134.28 76.4874 134.261C77.1714 134.244 77.8523 134.36 78.4912 134.605C79.1302 134.851 79.7146 135.219 80.2112 135.689C80.7077 136.16 81.1067 136.725 81.3852 137.349C81.6639 137.974 81.8166 138.648 81.8347 139.332C81.8529 140.016 81.7362 140.697 81.4912 141.336C81.2462 141.976 80.8777 142.56 80.4068 143.057C79.9361 143.552 79.372 143.951 78.7469 144.23L55.8937 154.405C55.2279 154.703 54.5062 154.857 53.7765 154.856Z" fill="white"/>
<path d="M43.214 182.38C42.0201 182.381 40.8621 181.971 39.9339 181.22C39.0057 180.47 38.3634 179.423 38.1145 178.255C37.8656 177.087 38.0252 175.869 38.5667 174.805C39.108 173.741 39.9983 172.895 41.0887 172.409L63.9379 162.234C65.2002 161.671 66.6343 161.633 67.9247 162.128C69.2151 162.623 70.2561 163.61 70.8187 164.872C71.3812 166.134 71.4194 167.569 70.9245 168.859C70.4298 170.15 69.4427 171.191 68.1804 171.753L45.3315 181.928C44.6657 182.226 43.9439 182.381 43.214 182.38Z" fill="white"/>
<path d="M189.934 94.2328C188.74 94.2339 187.582 93.8244 186.653 93.073C185.724 92.3217 185.083 91.2739 184.835 90.1054C184.586 88.9369 184.747 87.7187 185.29 86.6549C185.833 85.5909 186.726 84.746 187.818 84.2617L210.675 74.087C211.3 73.809 211.974 73.6569 212.658 73.6392C213.342 73.6215 214.022 73.7387 214.66 73.9841C215.299 74.2294 215.883 74.5981 216.379 75.0692C216.875 75.5403 217.274 76.1045 217.552 76.7294C217.829 77.3545 217.982 78.0282 217.999 78.712C218.018 79.3959 217.9 80.0765 217.654 80.715C217.41 81.3537 217.04 81.9376 216.569 82.4337C216.098 82.9298 215.535 83.3281 214.909 83.6062L192.052 93.7808C191.387 94.0802 190.665 94.2343 189.934 94.2328Z" fill="white"/>
<path d="M179.373 121.755C178.178 121.756 177.02 121.347 176.091 120.595C175.162 119.844 174.52 118.796 174.272 117.628C174.023 116.459 174.185 115.242 174.728 114.177C175.271 113.113 176.164 112.269 177.255 111.784L200.105 101.61C200.729 101.331 201.403 101.179 202.087 101.161C202.771 101.144 203.452 101.261 204.091 101.507C204.728 101.752 205.313 102.121 205.808 102.592C206.305 103.063 206.703 103.627 206.981 104.252C207.26 104.877 207.412 105.55 207.429 106.234C207.447 106.918 207.33 107.599 207.085 108.238C206.839 108.876 206.47 109.46 205.999 109.957C205.527 110.452 204.964 110.851 204.338 111.128L181.49 121.303C180.824 121.602 180.102 121.756 179.373 121.755Z" fill="white"/>
<path d="M127.597 208.588C108.943 208.566 90.8853 202.027 76.544 190.099C75.4834 189.218 74.8156 187.952 74.6868 186.579C74.5581 185.205 74.9789 183.837 75.857 182.774C76.7352 181.71 77.9991 181.039 79.3719 180.905C80.7446 180.771 82.1142 181.188 83.1806 182.062C93.2045 190.354 105.344 195.682 118.232 197.447C131.12 199.214 144.246 197.346 156.13 192.055C168.015 186.765 178.186 178.262 185.5 167.503C192.813 156.745 196.977 144.158 197.524 131.161C197.536 130.472 197.688 129.792 197.971 129.164C198.252 128.535 198.66 127.971 199.167 127.505C199.674 127.039 200.27 126.68 200.92 126.451C201.571 126.222 202.26 126.127 202.948 126.174C204.328 126.232 205.628 126.837 206.563 127.855C207.497 128.873 207.99 130.22 207.931 131.6C207.024 152.306 198.168 171.865 183.203 186.205C168.24 200.546 148.322 208.563 127.597 208.588Z" fill="#EE0000"/>
<path d="M52.7421 130.143L52.5019 130.139C51.121 130.076 49.8216 129.467 48.8894 128.447C47.9572 127.425 47.4685 126.076 47.5307 124.696C48.1992 109.781 53.0128 95.3487 61.4306 83.0191C69.8484 70.6894 81.5371 60.9509 95.1839 54.8972C108.83 48.8435 123.895 46.7145 138.685 48.7493C153.474 50.7841 167.404 56.9021 178.909 66.4162C179.971 67.2983 180.641 68.566 180.77 69.941C180.899 71.3159 180.478 72.686 179.597 73.7503C178.718 74.8147 177.451 75.4865 176.076 75.6182C174.702 75.75 173.331 75.331 172.264 74.4533C162.254 66.1724 150.133 60.8471 137.262 59.0755C124.393 57.3039 111.282 59.1563 99.407 64.4245C87.5315 69.6927 77.3602 78.168 70.0359 88.8983C62.7117 99.6282 58.5246 112.189 57.9451 125.168C57.8838 126.507 57.309 127.771 56.3401 128.698C55.3713 129.623 54.0827 130.142 52.7421 130.143Z" fill="#EE0000"/>
</g>
<defs>
<clipPath id="clip0_30_663">
<rect width="256" height="256" fill="white"/>
</clipPath>
</defs>
</svg>
