<svg width="256" height="256" viewBox="0 0 256 256" fill="none" xmlns="http://www.w3.org/2000/svg">
<path d="M196 0H60C26.8629 0 0 26.8629 0 60V196C0 229.137 26.8629 256 60 256H196C229.137 256 256 229.137 256 196V60C256 26.8629 229.137 0 196 0Z" fill="black"/>
<path d="M45.5286 157.729C44.2021 157.73 42.9155 157.276 41.8842 156.441C40.8528 155.607 40.1392 154.444 39.8626 153.146C39.586 151.849 39.7634 150.496 40.3649 149.313C40.9665 148.132 41.9557 147.191 43.1673 146.65L68.5598 135.345C69.2542 135.036 70.0029 134.866 70.763 134.846C71.523 134.826 72.2795 134.956 72.9895 135.228C73.6994 135.501 74.3488 135.91 74.9006 136.432C75.4522 136.956 75.8955 137.583 76.205 138.277C76.5146 138.972 76.6843 139.72 76.7045 140.48C76.7247 141.24 76.595 141.997 76.3228 142.706C76.0505 143.417 75.6411 144.066 75.1179 144.618C74.5949 145.169 73.9681 145.613 73.2736 145.922L47.8811 157.228C47.1413 157.559 46.3395 157.73 45.5286 157.729Z" fill="white"/>
<path d="M33.7933 188.311C32.4668 188.312 31.1801 187.857 30.1488 187.023C29.1174 186.189 28.4038 185.025 28.1272 183.728C27.8507 182.43 28.028 181.077 28.6296 179.895C29.2311 178.712 30.2204 177.773 31.4319 177.232L56.8198 165.927C58.2225 165.302 59.8158 165.259 61.2497 165.809C62.6834 166.359 63.8401 167.456 64.4652 168.858C65.0903 170.26 65.1327 171.855 64.5828 173.288C64.0331 174.722 62.9363 175.879 61.5338 176.504L36.1461 187.809C35.4063 188.141 34.6044 188.312 33.7933 188.311Z" fill="white"/>
<path d="M196.815 90.3698C195.489 90.371 194.202 89.916 193.17 89.0812C192.138 88.2463 191.425 87.0821 191.149 85.7838C190.873 84.4855 191.052 83.1319 191.655 81.9499C192.259 80.7677 193.251 79.829 194.463 79.2908L219.86 67.9856C220.555 67.6767 221.303 67.5077 222.063 67.488C222.823 67.4684 223.579 67.5985 224.289 67.8712C224.998 68.1438 225.648 68.5535 226.198 69.0769C226.749 69.6004 227.193 70.2272 227.501 70.9216C227.81 71.6161 227.979 72.3647 227.998 73.1245C228.019 73.8844 227.889 74.6406 227.616 75.3501C227.344 76.0597 226.933 76.7085 226.41 77.2597C225.886 77.8109 225.26 78.2535 224.565 78.5624L199.169 89.8676C198.429 90.2003 197.627 90.3715 196.815 90.3698Z" fill="white"/>
<path d="M185.081 120.951C183.753 120.952 182.466 120.497 181.434 119.661C180.402 118.827 179.689 117.663 179.414 116.364C179.137 115.066 179.317 113.713 179.92 112.53C180.524 111.348 181.516 110.41 182.728 109.872L208.117 98.5666C208.81 98.2569 209.559 98.0877 210.319 98.0683C211.079 98.0489 211.836 98.1792 212.545 98.4523C213.254 98.7243 213.903 99.1346 214.454 99.658C215.006 100.181 215.448 100.808 215.757 101.503C216.066 102.196 216.236 102.945 216.255 103.705C216.274 104.465 216.144 105.221 215.872 105.931C215.599 106.64 215.189 107.289 214.665 107.841C214.142 108.392 213.516 108.834 212.821 109.143L187.433 120.448C186.694 120.78 185.892 120.952 185.081 120.951Z" fill="white"/>
<path d="M127.551 217.431C106.825 217.407 86.7609 210.141 70.8261 196.888C69.6477 195.909 68.9057 194.502 68.7626 192.976C68.6196 191.45 69.0872 189.93 70.0628 188.749C71.0386 187.567 72.4429 186.821 73.9682 186.672C75.4935 186.523 77.0153 186.986 78.2001 187.958C89.3378 197.171 102.827 203.091 117.147 205.053C131.467 207.015 146.051 204.939 159.255 199.061C172.461 193.183 183.762 183.735 191.888 171.781C200.014 159.827 204.64 145.842 205.248 131.401C205.262 130.635 205.43 129.88 205.744 129.182C206.058 128.483 206.51 127.857 207.074 127.338C207.637 126.821 208.3 126.422 209.022 126.168C209.744 125.913 210.51 125.808 211.275 125.859C212.809 125.925 214.253 126.597 215.292 127.728C216.33 128.858 216.877 130.355 216.812 131.889C215.804 154.896 205.964 176.627 189.336 192.561C172.71 208.495 150.58 217.404 127.551 217.431Z" fill="#EE0000"/>
<path d="M44.3794 130.27L44.1124 130.265C42.5781 130.196 41.1344 129.519 40.0986 128.385C39.0628 127.25 38.5198 125.751 38.5889 124.217C39.3317 107.646 44.6801 91.6097 54.0332 77.9101C63.3864 64.2104 76.3738 53.3899 91.5369 46.6636C106.699 39.9373 123.438 37.5717 139.871 39.8326C156.304 42.0935 171.782 48.8912 184.565 59.4624C185.745 60.4426 186.489 61.8511 186.632 63.3789C186.776 64.9066 186.308 66.4288 185.329 67.6115C184.352 68.7941 182.945 69.5405 181.417 69.6869C179.89 69.8333 178.367 69.3678 177.182 68.3925C166.06 59.1916 152.591 53.2745 138.29 51.3061C123.991 49.3376 109.424 51.3959 96.2293 57.2494C83.0342 63.103 71.7328 72.5201 63.5947 84.4426C55.4567 96.3647 50.8043 110.321 50.1604 124.742C50.0923 126.23 49.4537 127.634 48.3771 128.664C47.3007 129.693 45.8689 130.269 44.3794 130.27Z" fill="#EE0000"/>
</svg>
