<svg width="256" height="256" viewBox="0 0 256 256" fill="none" xmlns="http://www.w3.org/2000/svg">
<path d="M213.489 127.778C213.489 129.143 213.447 130.509 213.365 131.875C213.323 132.413 213.323 132.951 213.24 133.489C210.343 176.575 174.542 210.555 130.711 210.555C107.037 210.555 85.68 200.622 70.6558 184.687C70.5316 184.604 70.4489 184.48 70.3661 184.398C67.7586 181.624 65.3167 178.644 63.123 175.54L92.178 165.276C94.9511 168.173 98.0966 170.739 101.49 172.933C101.739 173.098 101.946 173.223 102.194 173.347C110.43 178.562 120.24 181.583 130.711 181.583C154.468 181.583 174.625 166.145 181.743 144.83C181.95 144.333 182.075 143.836 182.24 143.34C183.233 139.946 183.937 136.428 184.268 132.786L213.282 122.521C213.447 124.26 213.489 125.998 213.489 127.778Z" fill="url(#paint0_linear_175_13)"/>
<path d="M130.711 45C84.9766 45 47.9336 82.043 47.9336 127.778C47.9336 129.475 47.975 131.172 48.0991 132.868L77.1541 122.645C79.7202 95.3288 102.732 73.9722 130.711 73.9722C145.777 73.9722 159.435 80.1805 169.161 90.1966L198.216 79.9322C183.275 58.7825 158.607 45 130.711 45Z" fill="url(#paint1_linear_175_13)"/>
<path d="M90.1082 133.572L62.5846 143.298C61.881 140.36 61.3016 137.338 60.8877 134.234C60.6393 132.372 60.4738 130.426 60.3496 128.523L89.4046 118.3C89.239 119.997 89.1562 121.693 89.1562 123.432V124.094C89.1976 127.322 89.5287 130.509 90.1082 133.572Z" fill="url(#paint2_linear_175_13)"/>
<path d="M218 88.4581L190.476 98.1845C188.903 95.2045 187.041 92.39 184.889 89.7825C183.813 88.4167 182.654 87.0923 181.412 85.8506L210.467 75.5862C211.419 76.9106 212.33 78.2765 213.199 79.6423C214.978 82.4567 216.593 85.3953 218 88.4581Z" fill="url(#paint3_linear_175_13)"/>
<path d="M79.8441 169.829L50.7891 180.093C44.9119 171.774 40.5247 162.379 38 152.197L65.5236 142.471C67.5516 153.025 72.6424 162.462 79.8441 169.829Z" fill="#E52030"/>
<path d="M171.934 137.339C172.1 135.683 172.183 134.027 172.183 132.33C172.183 123.225 169.906 114.616 165.892 107.083L193.415 97.3569C197.678 106.462 200.327 116.52 200.948 127.074L171.934 137.339Z" fill="#E52030"/>
<path d="M101.49 172.933C101.739 173.098 101.946 173.223 102.194 173.347L70.6558 184.687C70.5316 184.604 70.4489 184.48 70.3661 184.398C67.7586 181.624 65.3167 178.644 63.123 175.54L92.178 165.276C94.9511 168.173 98.0966 170.739 101.49 172.933Z" fill="#AD213B"/>
<path d="M213.489 127.778C213.489 129.143 213.448 130.509 213.365 131.875C213.324 132.413 213.324 132.951 213.241 133.489L181.744 144.83C181.951 144.333 182.075 143.836 182.241 143.34C183.234 139.946 183.938 136.428 184.269 132.786L213.282 122.521C213.448 124.26 213.489 125.998 213.489 127.778Z" fill="#AD213B"/>
<path d="M60.3496 128.523L89.4046 118.3C89.239 119.997 89.1562 121.693 89.1562 123.432V124.094L60.8877 134.234C60.6393 132.372 60.4738 130.426 60.3496 128.523Z" fill="#AD213B"/>
<path d="M213.199 79.6423L184.889 89.7825C183.813 88.4167 182.654 87.0923 181.412 85.8506L210.467 75.5862C211.419 76.9106 212.33 78.2765 213.199 79.6423Z" fill="#AD213B"/>
<defs>
<linearGradient id="paint0_linear_175_13" x1="106.697" y1="61.6548" x2="161.492" y2="213.622" gradientUnits="userSpaceOnUse">
<stop stop-color="#E52030"/>
<stop offset="1" stop-color="#B31523"/>
</linearGradient>
<linearGradient id="paint1_linear_175_13" x1="93.3785" y1="32.7199" x2="130.359" y2="124.222" gradientUnits="userSpaceOnUse">
<stop stop-color="#F44F5A"/>
<stop offset="0.443" stop-color="#EE3D4A"/>
<stop offset="1" stop-color="#E52030"/>
</linearGradient>
<linearGradient id="paint2_linear_175_13" x1="57.4648" y1="79.4065" x2="112.259" y2="231.374" gradientUnits="userSpaceOnUse">
<stop stop-color="#E52030"/>
<stop offset="1" stop-color="#B31523"/>
</linearGradient>
<linearGradient id="paint3_linear_175_13" x1="180.87" y1="34.9092" x2="235.665" y2="186.881" gradientUnits="userSpaceOnUse">
<stop stop-color="#E52030"/>
<stop offset="1" stop-color="#B31523"/>
</linearGradient>
</defs>
</svg>
