<svg width="256" height="256" viewBox="0 0 256 256" fill="none" xmlns="http://www.w3.org/2000/svg">
<path fill-rule="evenodd" clip-rule="evenodd" d="M200.68 40H54.6675C45.4993 40 37.998 47.5013 37.998 56.6695V95.8737H78.4371V89.4529C78.4371 84.4674 82.481 80.4391 87.4509 80.4391H167.866C172.851 80.4391 176.88 84.4829 176.88 89.4529V95.8737H217.319V56.6695C217.319 47.5013 209.818 40 200.649 40H200.68Z" fill="#ED1844"/>
<path fill-rule="evenodd" clip-rule="evenodd" d="M177.528 166.102C177.528 171.087 173.484 175.116 168.514 175.116H88.0993C83.1139 175.116 79.0855 171.072 79.0855 166.102V159.681H38.6465V198.885C38.6465 208.054 46.1478 215.555 55.316 215.555H201.329C210.497 215.555 217.998 208.054 217.998 198.885V159.681H177.559L177.528 166.102Z" fill="#ED1844"/>
<path fill-rule="evenodd" clip-rule="evenodd" d="M38.6152 107.604V148.043H78.7456V107.604H38.6152Z" fill="#ED1844"/>
<path fill-rule="evenodd" clip-rule="evenodd" d="M177.528 107.604V148.043H217.659V107.604H177.528Z" fill="#ED1844"/>
</svg>
