<svg width="257" height="256" viewBox="0 0 257 256" fill="none" xmlns="http://www.w3.org/2000/svg">
<path d="M0.00195312 56C0.00195312 25.0721 25.074 0 56.002 0H200.002C230.93 0 256.002 25.0721 256.002 56V200C256.002 230.928 230.93 256 200.002 256H56.002C25.074 256 0.00195312 230.928 0.00195312 200V56Z" fill="#0F172A"/>
<path fill-rule="evenodd" clip-rule="evenodd" d="M200.682 40H54.6695C45.5013 40 38 47.5013 38 56.6695V95.8737H78.439V89.4529C78.439 84.4674 82.4829 80.4391 87.4528 80.4391H167.868C172.853 80.4391 176.882 84.4829 176.882 89.4529V95.8737H217.321V56.6695C217.321 47.5013 209.82 40 200.651 40H200.682Z" fill="#ED1844"/>
<path fill-rule="evenodd" clip-rule="evenodd" d="M177.53 166.102C177.53 171.087 173.486 175.116 168.516 175.116H88.1013C83.1159 175.116 79.0875 171.072 79.0875 166.102V159.681H38.6484V198.885C38.6484 208.054 46.1497 215.555 55.3179 215.555H201.331C210.499 215.555 218 208.054 218 198.885V159.681H177.561L177.53 166.102Z" fill="#ED1844"/>
<path fill-rule="evenodd" clip-rule="evenodd" d="M38.6172 107.604V148.043H78.7475V107.604H38.6172Z" fill="#ED1844"/>
<path fill-rule="evenodd" clip-rule="evenodd" d="M177.53 107.604V148.043H217.661V107.604H177.53Z" fill="#ED1844"/>
</svg>
