<svg width="256" height="256" viewBox="0 0 256 256" fill="none" xmlns="http://www.w3.org/2000/svg">
<path d="M196 0H60C26.8629 0 0 26.8629 0 60V196C0 229.137 26.8629 256 60 256H196C229.137 256 256 229.137 256 196V60C256 26.8629 229.137 0 196 0Z" fill="#004065"/>
<path d="M90.6313 223.435C87.2498 223.228 84.3649 222.391 82.0533 220.946C81.2664 220.453 81.0943 220.172 81.0943 219.384C81.0943 218.968 81.1376 218.815 81.366 218.424C81.6741 217.895 82.4271 217.247 83.309 216.753C84.1691 216.27 86.6111 215.285 87.4361 215.086C88.8322 214.75 89.9307 214.224 90.9788 213.389C91.9847 212.587 92.8613 211.337 93.2213 210.19C93.3124 209.899 93.6681 209.154 94.0118 208.534C98.4605 200.505 100.3 191.283 99.1981 182.533C99.1298 181.99 99.0183 180.817 98.9504 179.926C98.6213 175.607 98.0069 172.108 96.8719 168.087C96.6975 167.469 96.5727 166.812 96.5378 166.327C96.2843 162.798 95.5654 158.484 94.5709 154.524C94.0739 152.545 94.0397 152.027 94.0251 146.279C94.0098 140.304 93.9381 138.973 93.5235 136.978C93.3333 136.063 92.9794 134.794 92.9144 134.794C92.8825 134.794 92.5943 134.955 92.2741 135.153C89.8936 136.624 86.6854 137.805 83.3983 138.42C82.9113 138.511 82.25 138.672 81.9287 138.777C81.1591 139.029 80.0065 139.091 79.2167 138.924C77.9202 138.648 76.8067 137.912 76.1711 136.91C75.6498 136.088 75.1148 135.885 74.3263 136.207C74.1319 136.287 73.5099 136.714 72.9441 137.159C71.8588 138.011 71.4251 138.247 70.9406 138.247C70.5684 138.247 70.2689 138.052 69.9089 137.577C69.2891 136.759 65.4112 133.866 62.7782 132.256C62.2505 131.934 61.5982 131.499 61.3288 131.29C59.9307 130.206 58.0109 129.326 56.1026 128.896L55.2265 128.699L55.0179 128.347C54.8115 127.998 54.8095 127.976 54.8315 126.413C54.8601 124.388 54.8181 124.242 54.0263 123.591C53.7192 123.339 53.3859 123.019 53.2854 122.88C52.9607 122.431 52.4232 122.353 51.388 122.604C49.693 123.013 49.3716 122.71 48.3787 119.769C48.1337 119.044 47.8252 118.232 47.6932 117.968C47.194 116.964 46.5433 116.352 45.5058 115.909C44.4309 115.451 43.0229 113.855 42.3034 112.28C41.515 110.553 41.1918 108.7 41.0004 104.811C40.8968 102.705 40.7831 101.304 40.6232 100.161C40.0363 95.9637 40.089 90.0051 40.7566 85.1168L40.9249 83.8837L41.6617 82.4744C42.6761 80.5339 43.5211 78.8054 44.4073 76.8583C45.2898 74.9194 46.5065 72.0491 46.5065 71.9062C46.5065 71.7741 45.6185 71.247 44.8447 70.9199C43.4416 70.3266 41.9188 70.0133 38.2037 69.5534C36.9646 69.4 35.503 69.1897 34.956 69.0861C31.7987 68.4882 29.8589 67.4212 28.5402 65.5573C28.3091 65.2307 28.2042 64.9705 28.0998 64.4651C27.701 62.535 28.4914 60.5666 30.5798 58.2889C31.5101 57.2745 35.2559 54.1062 36.0342 53.6757C37.4494 52.8927 38.8174 52.607 42.209 52.3863C44.4414 52.2409 45.7769 52.0618 46.9041 51.7563C47.8798 51.4918 48.7606 51.3427 50.0528 51.2228C52.6398 50.9831 53.8178 50.6681 54.6836 49.9843C55.1318 49.6302 55.5411 49.0311 55.6903 48.5109C55.9354 47.6556 56.7737 46.7137 57.8132 46.1255C58.0427 45.9957 58.9064 45.5961 59.7325 45.2373C61.4564 44.4889 62.0506 44.1702 62.6947 43.6489C62.9472 43.4446 63.2288 43.2457 63.3205 43.2069C64.0701 42.89 65.1863 42.8113 66.0987 43.011C66.8288 43.1708 67.5413 43.4561 69.3137 44.2984C70.8011 45.0052 72.2117 45.514 72.6886 45.5156C73.0649 45.5169 75.4697 46.853 77.238 48.0432C79.1843 49.3535 82.6955 52.4801 83.2653 53.4105C83.4458 53.7051 83.6748 54.6329 83.8852 55.9211C84.0992 57.2315 84.2995 57.9107 84.6394 58.4794C84.8819 58.8849 85.1305 59.1209 86.2014 59.9613C87.2162 60.7579 88.3209 62.6303 88.7993 64.3653C89.3077 66.2088 89.4444 68.1803 89.3296 72.0105C89.2712 73.9578 89.2735 75.3723 89.3371 76.7195C89.4077 78.2126 89.4048 78.8247 89.3241 79.4449C89.136 80.8939 88.7222 82.1802 88.0211 83.4962C87.8011 83.909 87.628 84.3649 87.5695 84.6857C87.4218 85.495 87.1267 86.1479 86.1009 87.9354C84.7007 90.3753 84.5552 90.8463 84.6896 92.5033C84.7316 93.0198 84.7398 93.7332 84.7079 94.0887C84.5626 95.7076 84.5333 97.0117 84.6344 97.3514C84.8548 98.0918 85.3894 98.408 86.3095 98.3424C86.6079 98.3211 86.9136 98.2836 86.989 98.2588C87.3425 98.1429 87.8328 96.8066 88.2689 94.7704C88.5918 93.2633 88.8905 92.1951 89.1127 91.7536C89.1845 91.6107 89.5966 90.5997 90.0284 89.5068C91.3938 86.0513 92.6589 83.4248 94.1967 80.8539C96.5058 76.9931 98.7965 74.2688 101.841 71.763C103.638 70.2834 105.244 69.2507 107.254 68.2809C107.915 67.962 108.693 67.5015 109.38 67.0228C110.656 66.1327 113.278 63.9829 114.427 62.8856C118.207 59.2717 121.177 55.0945 123.149 50.62C123.757 49.2428 123.953 48.9481 124.887 48.0091C125.747 47.1439 126.688 46.3427 128.799 44.6814C131.498 42.5576 132.515 41.5924 133.541 40.185L134.086 39.4378L135.794 39.1031C139.012 38.473 142.77 37.5397 143.845 37.104C144.166 36.9737 145.346 36.4358 146.467 35.9086C148.706 34.8554 150.103 34.3204 151.313 34.0525C151.973 33.9064 152.413 33.8667 153.942 33.8151C156.864 33.7165 158.864 33.5389 161.561 33.1388C163.067 32.9153 162.797 32.8808 165.624 33.6605C167.502 34.1786 170.208 35.0545 171.559 35.581C172.643 36.0041 174.241 36.9727 175.942 38.2389C180.36 41.5263 183.652 46.2833 184.904 51.1887C185.219 52.4258 186.309 54.8064 187.413 56.6685C189.056 59.4398 190.835 61.7556 195.466 67.1486C198.105 70.223 199.3 71.6729 200.375 73.1028C202.532 75.9705 204.065 78.5422 205.058 80.9595C205.257 81.444 205.752 82.3912 206.158 83.0644C209.872 89.2293 214.639 94.937 220.286 99.9815C221.132 100.738 221.701 101.413 222.312 102.389C223.443 104.194 224.122 106.217 224.868 109.999C225.306 112.21 225.549 113.284 225.881 114.443C226.175 115.476 226.177 115.479 226.709 116.05C228.098 117.538 228.399 119.097 227.452 119.897C227.126 120.173 226.506 120.419 226.135 120.419C225.981 120.419 225.974 120.456 226.019 121.036C226.045 121.375 226.219 122.251 226.406 122.983C226.593 123.714 226.788 124.603 226.84 124.956C227.008 126.119 226.793 127.163 226.22 127.961C226.066 128.175 225.798 128.746 225.624 129.229C224.179 133.248 222.146 137.481 219.517 141.946C218.901 142.992 218.277 144.053 218.13 144.304C217.556 145.288 216.304 146.068 215.297 146.068C214.878 146.068 214.783 146.04 214.511 145.839C214.072 145.513 213.92 145.162 213.77 144.126C213.698 143.624 213.528 142.611 213.395 141.875C213.032 139.877 212.897 138.883 212.841 137.788C212.731 135.666 213.211 133.901 214.264 132.548C214.726 131.956 214.819 131.724 215.101 130.46C215.491 128.712 215.651 126.617 215.551 124.558C215.457 122.607 215.046 120.47 214.426 118.729C214.122 117.868 214.115 117.824 214.138 116.861C214.199 114.307 213.49 111.969 212.007 109.832C211.798 109.531 211.594 109.269 211.554 109.248C211.421 109.178 210.733 109.788 210.527 110.157C210.26 110.638 210.092 111.346 209.933 112.669C209.861 113.269 209.728 113.998 209.641 114.288C209.447 114.922 209.218 116.148 208.935 118.059C207.47 127.942 207.905 137.529 210.268 147.442C210.518 148.488 210.76 149.63 210.807 149.979C210.927 150.885 210.911 152.78 210.768 154.425C210.505 157.463 210.464 158.454 210.558 159.555C210.699 161.205 210.778 161.464 211.331 162.075C212.558 163.432 213.017 164.741 213.008 166.855C213.003 168.28 212.884 169.027 212.192 172.034C211.943 173.119 211.662 174.498 211.568 175.099C211.475 175.7 211.288 176.826 211.152 177.601C209.818 185.226 210.511 193.063 213.168 200.395C213.444 201.154 213.576 201.68 213.681 202.439C213.957 204.426 214.483 206.68 215.145 208.717L215.474 209.732L215.218 210.12C214.053 211.876 212.124 213.138 209.747 213.695C209.003 213.87 208.807 213.886 207.513 213.884C205.971 213.88 205.517 213.807 204.384 213.387C203.848 213.189 203.824 213.187 202.547 213.216C199.651 213.283 198.867 213.26 198.448 213.099C197.946 212.906 197.488 212.513 197.241 212.065C196.878 211.407 197.007 210.112 197.559 208.887C197.699 208.576 198.22 207.608 198.716 206.734C199.975 204.523 200.378 203.42 200.378 202.192C200.378 201.985 200.488 201.454 200.623 201.015C201.493 198.163 202.298 194.434 202.71 191.341C203.594 184.707 203.427 178.461 202.18 171.53C201.777 169.295 201.677 168.486 201.337 164.741C200.892 159.838 200.573 157.735 199.944 155.555C199.696 154.697 199.654 154.615 199.143 154.006C195.485 149.644 193.048 145.299 191.294 140.008C191.069 139.329 190.577 138.093 190.201 137.26C188.554 133.616 186.827 128.948 185.686 125.052C185.586 124.713 185.481 124.436 185.452 124.436C185.424 124.436 185.338 124.524 185.263 124.629C185.187 124.736 184.807 125.269 184.417 125.816C180.151 131.788 177.562 138.483 176.718 145.716C176.537 147.268 176.467 151.12 176.591 152.621C176.646 153.261 176.724 154.434 176.766 155.228C176.821 156.252 176.939 157.228 177.172 158.575C177.75 161.916 177.799 162.999 177.428 164.318C177.212 165.087 176.628 166.084 176.1 166.584C175.871 166.801 174.77 168.131 173.652 169.541C172.534 170.95 170.887 173.024 169.993 174.147C165.653 179.604 163.478 183.162 162.112 187.039C161.538 188.668 162.216 189.7 164.711 190.992C166.977 192.167 167.487 192.586 168.217 193.878C169.574 196.28 170.47 198.873 170.882 201.6C171.03 202.578 171.145 205.336 171.057 205.827C171.001 206.144 170.996 206.147 170.398 206.367C170.067 206.489 169.307 206.778 168.711 207.008C166.05 208.038 164.54 208.214 163.191 207.653C162.459 207.348 162.01 206.888 160.861 205.264C159.432 203.243 156.437 199.451 156.152 199.303C155.935 199.19 155.542 200.446 155.234 202.227C154.858 204.413 154.52 205.225 153.7 205.915C153.145 206.382 152.7 206.579 151.313 206.972C148.129 207.873 145.049 208.289 141.56 208.29C139.258 208.29 137.962 208.192 135.764 207.85C134.788 207.699 134.772 207.693 134.493 207.405C133.363 206.24 133.763 204.684 135.565 203.238C136.657 202.362 137.257 202.055 139.393 201.28C141.665 200.455 143.722 198.88 145.057 196.943C145.434 196.395 146.137 195.018 146.139 194.824C146.139 194.763 146.312 194.525 146.524 194.295C147.017 193.759 147.278 193.321 147.432 192.769C147.771 191.555 147.375 190.362 146.323 189.426C146.061 189.192 145.428 188.592 144.915 188.092C143.752 186.956 140.934 184.608 139.171 183.306C138.437 182.764 136.522 181.387 134.916 180.246C130.426 177.057 128.732 175.771 126.737 174.034C125.62 173.062 125.206 172.575 124.615 171.541C122.806 168.371 122.648 164.258 124.117 158.54C124.332 157.702 124.434 157.467 124.971 156.567C125.651 155.429 126.093 154.362 126.414 153.086C126.739 151.793 126.785 149.875 126.529 148.311C126.239 146.532 126.329 145.809 127.166 143.23C127.679 141.65 127.908 140.772 127.993 140.067L128.049 139.596L127.645 139.541C127.018 139.455 123.667 139.479 122.733 139.576C121.185 139.737 119.681 139.991 118.341 140.321L117.878 140.434L117.823 142.528C117.726 146.224 117.339 150.486 116.808 153.697C116.701 154.347 116.675 154.404 116.347 154.719C115.523 155.508 114.414 157.132 113.906 158.293C113.408 159.433 113.149 160.414 113.011 161.705C112.922 162.534 112.9 162.604 112.589 163.039C112.195 163.59 111.989 164.039 111.788 164.783C111.661 165.258 111.634 165.765 111.607 168.228C111.563 172.249 111.563 172.168 111.633 174.288C111.684 175.811 111.669 176.424 111.563 177.354C111.243 180.163 110.451 182.793 109.161 185.34C108.445 186.755 107.817 188.807 107.305 191.411C106.823 193.858 106.626 195.446 106.128 200.888C105.806 204.409 105.667 205.691 105.415 207.442C105.021 210.185 104.293 213.299 103.929 213.805C103.429 214.498 103.312 215.372 103.451 217.377C103.615 219.747 103.456 220.48 102.612 221.25C102.069 221.746 101.511 222 100.161 222.367C97.0219 223.222 93.538 223.612 90.6311 223.435H90.6313ZM154.879 182.449C155.181 182.328 155.616 181.837 155.709 181.511C155.737 181.414 155.992 181.034 156.276 180.666C158.683 177.548 160.34 174.122 161.2 170.484C161.575 168.899 161.729 167.831 161.843 166.045C161.927 164.722 161.917 164.322 161.753 162.274C161.031 153.266 159.801 144.211 158.193 136.066C157.961 134.889 157.781 134.165 157.704 134.1C157.537 133.959 157.148 134.098 156.667 134.471C155.971 135.012 155.674 135.768 155.404 137.682C155.227 138.933 155.093 139.49 154.854 139.973C154.639 140.407 154.425 141.354 154.192 142.897C153.741 145.888 153.19 147.035 151.859 147.763C151.419 148.003 151.276 148.129 151.113 148.42C150.648 149.25 150.388 150.178 150.19 151.706C149.821 154.566 149.618 155.419 149.103 156.284L148.794 156.801L148.928 157.688C149.148 159.155 149.048 160.193 148.619 160.904C148.202 161.595 147.733 161.822 146.522 161.918C145.121 162.03 144.385 162.475 142.863 164.131C142.405 164.629 141.806 165.216 141.53 165.435C140.573 166.197 139.176 168.228 138.785 169.427C138.513 170.258 138.531 171.212 138.832 171.964C139.098 172.626 139.332 172.962 140.254 174.007C140.629 174.433 141.522 175.527 142.236 176.438C143.668 178.265 144.599 179.253 145.452 179.855C146.7 180.737 147.783 181.116 149.477 181.267C150.697 181.376 150.537 181.335 152.023 181.921C152.665 182.174 153.341 182.421 153.525 182.47C153.997 182.596 154.535 182.587 154.879 182.449Z" fill="white"/>
</svg>
