<svg width="256" height="256" viewBox="0 0 256 256" fill="none" xmlns="http://www.w3.org/2000/svg">
<g clip-path="url(#clip0_30_518)">
<path d="M196 0H60C26.8629 0 0 26.8629 0 60V196C0 229.137 26.8629 256 60 256H196C229.137 256 256 229.137 256 196V60C256 26.8629 229.137 0 196 0Z" fill="#004065"/>
<path d="M94.3682 213.392C91.3248 213.206 88.7284 212.452 86.648 211.151C85.9398 210.708 85.7849 210.455 85.7849 209.745C85.7849 209.372 85.8238 209.234 86.0294 208.881C86.3066 208.406 86.9844 207.823 87.7781 207.378C88.5522 206.943 90.75 206.056 91.4925 205.877C92.749 205.575 93.7376 205.101 94.6809 204.35C95.5862 203.629 96.3751 202.503 96.6992 201.471C96.7812 201.209 97.1013 200.539 97.4106 199.981C101.414 192.754 103.07 184.454 102.078 176.58C102.017 176.091 101.916 175.035 101.855 174.233C101.559 170.347 101.006 167.198 99.9847 163.579C99.8277 163.022 99.7154 162.431 99.6841 161.994C99.4559 158.818 98.8088 154.935 97.9138 151.371C97.4665 149.59 97.4357 149.124 97.4226 143.951C97.4089 138.573 97.3443 137.376 96.9711 135.58C96.7999 134.756 96.4814 133.615 96.423 133.615C96.3943 133.615 96.1349 133.76 95.8467 133.938C93.7042 135.261 90.8168 136.324 87.8585 136.878C87.4202 136.96 86.825 137.105 86.5358 137.199C85.8432 137.426 84.8059 137.482 84.0951 137.331C82.9282 137.084 81.926 136.421 81.354 135.519C80.8848 134.78 80.4033 134.596 79.6937 134.886C79.5187 134.958 78.9589 135.343 78.4497 135.743C77.4729 136.51 77.0826 136.722 76.6466 136.722C76.3116 136.722 76.042 136.547 75.718 136.119C75.1602 135.383 71.6701 132.779 69.3003 131.33C68.8254 131.041 68.2383 130.649 67.9959 130.461C66.7377 129.485 65.0098 128.693 63.2924 128.306L62.5038 128.129L62.3161 127.812C62.1304 127.498 62.1286 127.478 62.1484 126.072C62.1741 124.25 62.1363 124.118 61.4236 123.532C61.1473 123.305 60.8473 123.017 60.7569 122.892C60.4647 122.488 59.9809 122.418 59.0492 122.643C57.5237 123.012 57.2344 122.739 56.3408 120.093C56.1203 119.439 55.8427 118.709 55.7239 118.471C55.2746 117.567 54.689 117.017 53.7552 116.619C52.7878 116.206 51.5206 114.77 50.8731 113.352C50.1635 111.798 49.8726 110.13 49.7003 106.63C49.6071 104.734 49.5048 103.474 49.3609 102.445C48.8327 98.6673 48.8801 93.3046 49.4809 88.9051L49.6325 87.7953L50.2955 86.527C51.2085 84.7805 51.969 83.2249 52.7666 81.4724C53.5608 79.7275 54.6558 77.1442 54.6558 77.0155C54.6558 76.8967 53.8566 76.4223 53.1602 76.1279C51.8974 75.594 50.5269 75.312 47.1833 74.8981C46.0681 74.76 44.7527 74.5707 44.2604 74.4775C41.4188 73.9394 39.673 72.9791 38.4862 71.3016C38.2782 71.0077 38.1838 70.7734 38.0898 70.3186C37.7309 68.5815 38.4423 66.8099 40.3218 64.76C41.1591 63.847 44.5303 60.9956 45.2308 60.6081C46.5045 59.9035 47.7357 59.6463 50.7881 59.4476C52.7973 59.3168 53.9992 59.1556 55.0137 58.8806C55.8918 58.6426 56.6845 58.5084 57.8476 58.4006C60.1758 58.1848 61.236 57.9013 62.0152 57.2858C62.4186 56.9672 62.787 56.428 62.9212 55.9598C63.1419 55.1901 63.8963 54.3423 64.8319 53.813C65.0385 53.6961 65.8157 53.3365 66.5592 53.0136C68.1107 52.34 68.6456 52.0532 69.2253 51.584C69.4525 51.4001 69.7059 51.2211 69.7885 51.1862C70.4631 50.901 71.4676 50.8302 72.2889 51.0099C72.9459 51.1537 73.5872 51.4105 75.1823 52.1685C76.521 52.8047 77.7905 53.2626 78.2198 53.2641C78.5584 53.2652 80.7227 54.4677 82.3142 55.5389C84.0659 56.7182 87.2259 59.5321 87.7388 60.3694C87.9012 60.6346 88.1073 61.4696 88.2967 62.629C88.4893 63.8084 88.6695 64.4197 88.9754 64.9315C89.1937 65.2964 89.4175 65.5088 90.3812 66.2652C91.2946 66.9821 92.2888 68.6672 92.7194 70.2288C93.1769 71.888 93.3 73.6622 93.1966 77.1095C93.1441 78.862 93.1461 80.135 93.2034 81.3475C93.2669 82.6914 93.2643 83.2422 93.1917 83.8004C93.0224 85.1045 92.65 86.2621 92.019 87.4465C91.821 87.8181 91.6652 88.2284 91.6125 88.5171C91.4796 89.2455 91.214 89.8331 90.2908 91.4418C89.0306 93.6378 88.8997 94.0617 89.0206 95.553C89.0584 96.0178 89.0658 96.6599 89.0371 96.9798C88.9064 98.4368 88.88 99.6105 88.971 99.9162C89.1693 100.583 89.6504 100.867 90.4785 100.808C90.7471 100.789 91.0222 100.755 91.0901 100.733C91.4083 100.629 91.8495 99.426 92.242 97.5934C92.5326 96.237 92.8015 95.2756 93.0014 94.8782C93.0661 94.7496 93.437 93.8397 93.8256 92.8561C95.0544 89.7462 96.193 87.3823 97.577 85.0685C99.6552 81.5938 101.717 79.1419 104.457 76.8867C106.074 75.5551 107.519 74.6257 109.329 73.7528C109.924 73.4658 110.624 73.0513 111.242 72.6205C112.391 71.8195 114.75 69.8846 115.784 68.897C119.186 65.6445 121.859 61.885 123.634 57.858C124.181 56.6185 124.358 56.3533 125.198 55.5082C125.972 54.7295 126.82 54.0084 128.719 52.5133C131.148 50.6019 132.064 49.7331 132.987 48.4665L133.477 47.794L135.015 47.4928C137.911 46.9257 141.293 46.0857 142.26 45.6936C142.549 45.5763 143.611 45.0922 144.62 44.6177C146.635 43.6699 147.892 43.1883 148.982 42.9472C149.576 42.8157 149.972 42.78 151.348 42.7335C153.977 42.6448 155.777 42.485 158.205 42.1249C159.56 41.9238 159.317 41.8927 161.861 42.5944C163.552 43.0607 165.988 43.849 167.203 44.3229C168.178 44.7037 169.617 45.5754 171.148 46.715C175.124 49.6737 178.087 53.955 179.213 58.3698C179.497 59.4832 180.478 61.6257 181.472 63.3016C182.95 65.7958 184.552 67.88 188.719 72.7338C191.094 75.5007 192.17 76.8056 193.138 78.0925C195.079 80.6735 196.458 82.9879 197.352 85.1635C197.531 85.5996 197.977 86.4521 198.342 87.058C201.685 92.6064 205.975 97.7433 211.057 102.283C211.819 102.964 212.331 103.572 212.881 104.451C213.898 106.075 214.51 107.895 215.182 111.299C215.575 113.289 215.794 114.255 216.093 115.299C216.358 116.229 216.359 116.231 216.838 116.745C218.088 118.084 218.359 119.487 217.507 120.207C217.213 120.456 216.655 120.677 216.322 120.677C216.183 120.677 216.177 120.711 216.217 121.233C216.24 121.538 216.397 122.326 216.566 122.985C216.734 123.643 216.91 124.442 216.956 124.76C217.108 125.807 216.914 126.746 216.398 127.465C216.259 127.658 216.018 128.171 215.861 128.606C214.561 132.224 212.732 136.033 210.365 140.051C209.811 140.993 209.249 141.948 209.117 142.173C208.6 143.06 207.473 143.761 206.567 143.761C206.19 143.761 206.104 143.736 205.86 143.555C205.465 143.262 205.328 142.946 205.193 142.013C205.128 141.561 204.976 140.65 204.856 139.988C204.529 138.189 204.407 137.294 204.357 136.31C204.258 134.399 204.69 132.811 205.637 131.594C206.053 131.06 206.137 130.851 206.391 129.714C206.742 128.141 206.886 126.255 206.796 124.402C206.711 122.646 206.341 120.723 205.784 119.156C205.51 118.381 205.504 118.341 205.524 117.475C205.579 115.176 204.941 113.072 203.606 111.149C203.418 110.878 203.235 110.642 203.199 110.623C203.079 110.56 202.46 111.109 202.275 111.441C202.034 111.874 201.883 112.511 201.74 113.702C201.675 114.242 201.556 114.898 201.477 115.16C201.303 115.73 201.096 116.834 200.842 118.553C199.523 127.448 199.914 136.076 202.042 144.998C202.266 145.94 202.484 146.967 202.526 147.281C202.635 148.096 202.62 149.802 202.492 151.282C202.254 154.016 202.217 154.909 202.302 155.9C202.429 157.384 202.5 157.617 202.998 158.168C204.102 159.389 204.515 160.567 204.508 162.47C204.502 163.752 204.395 164.425 203.773 167.131C203.548 168.107 203.296 169.348 203.212 169.889C203.128 170.43 202.96 171.443 202.837 172.141C201.636 179.003 202.26 186.056 204.652 192.656C204.899 193.339 205.018 193.812 205.113 194.495C205.361 196.284 205.834 198.312 206.43 200.145L206.727 201.059L206.496 201.408C205.448 202.988 203.711 204.124 201.573 204.626C200.902 204.783 200.727 204.798 199.562 204.795C198.174 204.792 197.765 204.727 196.745 204.349C196.264 204.17 196.241 204.169 195.093 204.194C192.486 204.254 191.781 204.234 191.404 204.089C190.951 203.915 190.54 203.562 190.317 203.158C189.99 202.567 190.107 201.401 190.603 200.298C190.729 200.018 191.198 199.148 191.644 198.361C192.778 196.37 193.14 195.378 193.14 194.273C193.14 194.086 193.24 193.609 193.36 193.214C194.144 190.646 194.868 187.291 195.239 184.507C196.035 178.537 195.884 172.915 194.762 166.677C194.399 164.666 194.309 163.937 194.003 160.567C193.603 156.154 193.316 154.262 192.749 152.3C192.526 151.527 192.489 151.454 192.028 150.905C188.736 146.979 186.544 143.069 184.965 138.308C184.762 137.696 184.319 136.584 183.981 135.834C182.499 132.554 180.945 128.354 179.917 124.847C179.827 124.542 179.733 124.293 179.707 124.293C179.681 124.293 179.604 124.371 179.536 124.466C179.469 124.562 179.127 125.042 178.775 125.535C174.936 130.909 172.606 136.934 171.846 143.444C171.683 144.842 171.62 148.308 171.732 149.659C171.781 150.235 171.851 151.291 171.889 152.006C171.939 152.927 172.045 153.805 172.255 155.018C172.775 158.024 172.819 158.999 172.486 160.186C172.291 160.879 171.766 161.775 171.29 162.225C171.084 162.421 170.093 163.618 169.087 164.887C168.081 166.155 166.599 168.021 165.794 169.033C161.888 173.943 159.93 177.146 158.701 180.635C158.184 182.102 158.794 183.03 161.04 184.193C163.079 185.25 163.538 185.627 164.195 186.79C165.417 188.952 166.223 191.286 166.594 193.74C166.727 194.62 166.83 197.102 166.751 197.545C166.701 197.829 166.696 197.833 166.158 198.031C165.86 198.14 165.177 198.4 164.64 198.608C162.245 199.534 160.886 199.693 159.672 199.188C159.013 198.914 158.609 198.5 157.575 197.037C156.289 195.218 153.593 191.806 153.337 191.672C153.142 191.571 152.788 192.701 152.511 194.305C152.172 196.272 151.868 197.002 151.13 197.624C150.63 198.044 150.23 198.221 148.982 198.575C146.116 199.386 143.344 199.76 140.204 199.761C138.132 199.761 136.966 199.673 134.987 199.365C134.109 199.229 134.095 199.224 133.844 198.964C132.826 197.916 133.186 196.515 134.808 195.214C135.791 194.426 136.331 194.15 138.254 193.452C140.298 192.71 142.15 191.292 143.351 189.548C143.691 189.056 144.323 187.816 144.325 187.641C144.325 187.586 144.481 187.372 144.671 187.166C145.115 186.683 145.35 186.289 145.489 185.792C145.794 184.7 145.438 183.626 144.49 182.783C144.255 182.573 143.685 182.033 143.224 181.583C142.177 180.56 139.641 178.448 138.054 177.275C137.393 176.787 135.67 175.548 134.224 174.521C130.183 171.651 128.659 170.494 126.863 168.931C125.858 168.056 125.485 167.618 124.954 166.687C123.325 163.834 123.184 160.132 124.505 154.986C124.699 154.232 124.791 154.02 125.274 153.21C125.886 152.186 126.284 151.226 126.573 150.077C126.865 148.914 126.906 147.188 126.676 145.78C126.415 144.179 126.496 143.528 127.249 141.207C127.711 139.785 127.917 138.995 127.994 138.36L128.044 137.936L127.68 137.887C127.116 137.81 124.1 137.831 123.26 137.918C121.866 138.063 120.513 138.292 119.307 138.589L118.89 138.691L118.84 140.576C118.753 143.901 118.405 147.737 117.928 150.627C117.831 151.212 117.808 151.263 117.512 151.547C116.771 152.258 115.773 153.719 115.315 154.764C114.867 155.79 114.635 156.673 114.51 157.834C114.43 158.581 114.41 158.643 114.131 159.035C113.776 159.531 113.59 159.935 113.41 160.604C113.295 161.032 113.271 161.488 113.246 163.706C113.207 167.324 113.207 167.252 113.27 169.16C113.315 170.53 113.303 171.081 113.207 171.919C112.919 174.446 112.206 176.814 111.045 179.106C110.4 180.38 109.835 182.226 109.374 184.57C108.941 186.772 108.763 188.201 108.315 193.1C108.025 196.268 107.9 197.422 107.674 198.998C107.319 201.466 106.664 204.269 106.336 204.724C105.887 205.348 105.781 206.135 105.906 207.939C106.054 210.073 105.911 210.732 105.151 211.425C104.663 211.871 104.16 212.1 102.945 212.431C100.12 213.2 96.9842 213.551 94.368 213.392H94.3682ZM152.191 176.504C152.463 176.396 152.854 175.953 152.938 175.66C152.963 175.573 153.193 175.231 153.448 174.899C155.614 172.094 157.106 169.01 157.88 165.735C158.218 164.309 158.356 163.348 158.458 161.74C158.534 160.55 158.525 160.19 158.378 158.347C157.728 150.239 156.621 142.09 155.174 134.759C154.965 133.7 154.803 133.048 154.733 132.99C154.583 132.863 154.233 132.988 153.8 133.324C153.174 133.811 152.907 134.491 152.663 136.214C152.504 137.34 152.384 137.841 152.169 138.276C151.975 138.666 151.782 139.519 151.573 140.907C151.167 143.599 150.671 144.632 149.473 145.286C149.077 145.502 148.948 145.616 148.802 145.878C148.384 146.625 148.149 147.46 147.971 148.835C147.639 151.409 147.456 152.177 146.992 152.955L146.715 153.421L146.835 154.22C147.033 155.54 146.943 156.474 146.557 157.113C146.182 157.736 145.76 157.94 144.67 158.026C143.409 158.127 142.746 158.528 141.376 160.018C140.964 160.466 140.425 160.994 140.177 161.192C139.316 161.877 138.058 163.706 137.706 164.784C137.462 165.532 137.478 166.391 137.749 167.067C137.988 167.663 138.199 167.966 139.029 168.906C139.366 169.29 140.17 170.274 140.812 171.094C142.102 172.738 142.939 173.628 143.707 174.17C144.83 174.963 145.804 175.304 147.329 175.441C148.427 175.538 148.283 175.502 149.62 176.029C150.198 176.257 150.807 176.479 150.972 176.523C151.397 176.636 151.882 176.629 152.191 176.504Z" fill="white"/>
</g>
<defs>
<clipPath id="clip0_30_518">
<rect width="256" height="256" fill="white"/>
</clipPath>
</defs>
</svg>
