<svg width="256" height="256" viewBox="0 0 256 256" fill="none" xmlns="http://www.w3.org/2000/svg">
<g clip-path="url(#clip0_30_254)">
<path d="M196 0H60C26.8629 0 0 26.8629 0 60V196C0 229.137 26.8629 256 60 256H196C229.137 256 256 229.137 256 196V60C256 26.8629 229.137 0 196 0Z" fill="#001E36"/>
<path d="M38 191.381V63.119C38 62.2464 38.3739 61.7479 39.2465 61.7479C41.3655 61.7479 43.3598 61.7479 46.2267 61.6232C49.2182 61.4985 52.3344 61.4985 55.6999 61.3739C59.0653 61.2493 62.6801 61.2493 66.5441 61.1246C70.4081 61 74.1475 61 77.8869 61C88.1079 61 96.5835 62.2464 103.564 64.864C109.796 66.983 115.531 70.4731 120.267 75.085C124.255 79.0737 127.372 83.9349 129.366 89.2948C131.236 94.5299 132.233 99.8898 132.233 105.499C132.233 116.219 129.74 125.068 124.754 132.049C119.768 139.029 112.788 144.264 104.686 147.256C96.2095 150.372 86.8615 151.494 76.6405 151.494C73.649 151.494 71.6546 151.494 70.4081 151.369C69.1617 151.244 67.4166 151.244 65.0484 151.244V191.256C65.173 192.128 64.5498 192.876 63.6772 193.001C63.5526 193.001 63.4279 193.001 63.1787 193.001H39.4958C38.4986 193.001 38 192.502 38 191.381ZM65.173 85.8046V127.686C66.9181 127.811 68.5384 127.936 70.0342 127.936H76.6405C81.5018 127.936 86.363 127.188 90.9744 125.692C94.9638 124.57 98.4532 122.202 101.196 119.085C103.813 115.97 105.06 111.731 105.06 106.247C105.184 102.383 104.187 98.5186 102.193 95.1531C100.074 91.9124 97.0824 89.4195 93.4681 88.0483C88.8558 86.1786 83.87 85.4307 78.7595 85.5554C75.5187 85.5554 72.6518 85.5554 70.2835 85.6801C67.7905 85.5554 66.0455 85.6801 65.173 85.8046Z" fill="#31A8FF"/>
<path d="M210.012 120.083C206.273 118.088 202.284 116.718 198.046 115.845C193.434 114.848 188.823 114.224 184.085 114.224C181.593 114.1 178.975 114.474 176.606 115.097C174.987 115.471 173.615 116.344 172.743 117.589C172.119 118.587 171.745 119.833 171.745 120.955C171.745 122.077 172.244 123.198 172.992 124.196C174.114 125.567 175.61 126.689 177.23 127.562C180.097 129.058 183.088 130.428 186.08 131.675C192.811 133.919 199.293 137.034 205.276 140.774C209.389 143.391 212.755 146.882 215.122 151.12C217.117 155.108 218.114 159.471 217.99 163.958C218.114 169.817 216.369 175.675 213.129 180.536C209.638 185.523 204.777 189.386 199.168 191.629C193.06 194.247 185.581 195.619 176.606 195.619C170.873 195.619 165.264 195.12 159.655 193.998C155.292 193.25 150.93 191.88 146.941 190.01C146.068 189.511 145.446 188.638 145.569 187.641V165.953C145.569 165.579 145.694 165.08 146.068 164.831C146.442 164.582 146.816 164.706 147.19 164.956C152.051 167.822 157.162 169.817 162.647 171.063C167.383 172.31 172.369 172.932 177.354 172.932C182.092 172.932 185.457 172.31 187.701 171.188C189.694 170.315 191.066 168.196 191.066 165.953C191.066 164.208 190.068 162.587 188.075 160.966C186.08 159.347 181.967 157.477 175.859 155.108C169.502 152.865 163.644 149.873 158.16 146.134C154.295 143.391 151.055 139.777 148.686 135.538C146.691 131.55 145.694 127.188 145.819 122.824C145.819 117.465 147.315 112.354 150.057 107.743C153.173 102.757 157.786 98.768 163.145 96.275C169.004 93.2834 176.358 91.9124 185.207 91.9124C190.318 91.9124 195.554 92.2863 200.664 93.0342C204.403 93.5328 208.017 94.5299 211.383 95.901C211.882 96.0257 212.381 96.5243 212.63 97.0228C212.755 97.5215 212.879 98.0201 212.879 98.5186V118.836C212.879 119.335 212.63 119.833 212.256 120.083C211.134 120.332 210.511 120.332 210.012 120.083Z" fill="#31A8FF"/>
</g>
<defs>
<clipPath id="clip0_30_254">
<rect width="256" height="256" fill="white"/>
</clipPath>
</defs>
</svg>
