<svg width="256" height="256" viewBox="0 0 256 256" fill="none" xmlns="http://www.w3.org/2000/svg">
<path d="M52.2361 102.025H78.9309C86.766 102.091 92.4437 104.35 95.9638 108.798C99.4839 113.247 100.645 119.323 99.45 127.027C98.9858 130.547 97.9559 133.999 96.3622 137.386C94.8342 140.772 92.7105 143.826 89.9873 146.55C86.6664 150.002 83.1144 152.194 79.3293 153.124C75.5442 154.054 71.6257 154.518 67.5756 154.518H55.6227L51.8376 173.444H37.9922L52.2361 102.025ZM63.8901 113.38L57.9137 143.263C58.3121 143.328 58.7106 143.362 59.109 143.362C59.5732 143.362 60.0393 143.362 60.5035 143.362C66.8784 143.428 72.1914 142.798 76.4407 141.47C80.69 140.075 83.5466 135.228 85.0069 126.927C86.2022 119.955 85.0069 115.936 81.4211 114.875C77.901 113.813 73.4863 113.315 68.1733 113.38C67.3764 113.446 66.6134 113.48 65.8823 113.48C65.2189 113.48 64.5216 113.48 63.7905 113.48L63.8901 113.38Z" fill="#111827"/>
<path d="M115.222 83H128.967L125.083 102.025H137.434C144.207 102.158 149.254 103.553 152.574 106.209C155.961 108.864 156.957 113.912 155.563 121.349L148.889 154.518H134.944L141.319 122.843C141.982 119.522 141.783 117.165 140.721 115.771C139.659 114.376 137.368 113.679 133.848 113.679L122.792 113.58L114.624 154.518H100.878L115.222 83Z" fill="#111827"/>
<path d="M170.324 102.025H197.019C204.854 102.091 210.531 104.35 214.051 108.798C217.572 113.247 218.733 119.323 217.538 127.027C217.073 130.547 216.044 133.999 214.45 137.386C212.922 140.772 210.798 143.826 208.075 146.55C204.754 150.002 201.202 152.194 197.417 153.124C193.632 154.054 189.713 154.518 185.663 154.518H173.71L169.925 173.444H156.08L170.324 102.025ZM181.978 113.38L176.001 143.263C176.4 143.328 176.798 143.362 177.197 143.362C177.661 143.362 178.127 143.362 178.591 143.362C184.966 143.428 190.279 142.798 194.528 141.47C198.778 140.075 201.634 135.228 203.095 126.927C204.29 119.955 203.095 115.936 199.509 114.875C195.989 113.813 191.574 113.315 186.261 113.38C185.464 113.446 184.701 113.48 183.97 113.48C183.307 113.48 182.609 113.48 181.878 113.48L181.978 113.38Z" fill="#111827"/>
</svg>
