<svg width="257" height="256" viewBox="0 0 257 256" fill="none" xmlns="http://www.w3.org/2000/svg">
<path d="M0.00195312 56C0.00195312 25.0721 25.074 0 56.002 0H200.002C230.93 0 256.002 25.0721 256.002 56V200C256.002 230.928 230.93 256 200.002 256H56.002C25.074 256 0.00195312 230.928 0.00195312 200V56Z" fill="#F8FAFC"/>
<path d="M43.8265 99.1392H73.4874C82.1932 99.2122 88.5016 101.722 92.4129 106.665C96.3241 111.608 97.6146 118.359 96.2865 126.919C95.7707 130.83 94.6264 134.666 92.8556 138.429C91.1578 142.192 88.7982 145.585 85.7724 148.611C82.0825 152.447 78.1358 154.882 73.9301 155.915C69.7245 156.949 65.3706 157.465 60.8705 157.465H47.5895L43.3838 178.493H28L43.8265 99.1392ZM56.7755 111.756L50.135 144.959C50.5777 145.032 51.0204 145.069 51.4631 145.069C51.9789 145.069 52.4968 145.069 53.0126 145.069C60.0958 145.142 65.9991 144.443 70.7206 142.966C75.442 141.417 78.6161 136.032 80.2386 126.808C81.5667 119.061 80.2386 114.596 76.2543 113.416C72.3431 112.236 67.4379 111.683 61.5345 111.756C60.6491 111.829 59.8013 111.867 58.989 111.867C58.2519 111.867 57.4771 111.867 56.6648 111.867L56.7755 111.756Z" fill="#111827"/>
<path d="M113.811 78H129.084L124.768 99.1389H138.491C146.017 99.2872 151.624 100.837 155.314 103.787C159.077 106.738 160.184 112.347 158.634 120.61L151.219 157.465H135.724L142.808 122.27C143.545 118.58 143.323 115.962 142.144 114.412C140.964 112.863 138.418 112.088 134.507 112.088L122.222 111.977L113.147 157.465H97.8735L113.811 78Z" fill="#111827"/>
<path d="M175.035 99.1392H204.696C213.402 99.2122 219.71 101.722 223.621 106.665C227.533 111.608 228.823 118.359 227.495 126.919C226.979 130.83 225.835 134.666 224.064 138.429C222.366 142.192 220.007 145.585 216.981 148.611C213.291 152.447 209.344 154.882 205.139 155.915C200.933 156.949 196.579 157.465 192.079 157.465H178.798L174.592 178.493H159.208L175.035 99.1392ZM187.984 111.756L181.343 144.959C181.786 145.032 182.229 145.069 182.672 145.069C183.187 145.069 183.705 145.069 184.221 145.069C191.304 145.142 197.208 144.443 201.929 142.966C206.65 141.417 209.825 136.032 211.447 126.808C212.775 119.061 211.447 114.596 207.463 113.416C203.552 112.236 198.646 111.683 192.743 111.756C191.858 111.829 191.01 111.867 190.197 111.867C189.46 111.867 188.686 111.867 187.873 111.867L187.984 111.756Z" fill="#111827"/>
</svg>
