<svg width="256" height="256" viewBox="0 0 256 256" fill="none" xmlns="http://www.w3.org/2000/svg">
<path d="M174.846 172.64C176.093 162.258 175.719 160.743 183.446 162.419L185.412 162.594C191.358 162.862 199.132 161.637 203.776 159.519C213.609 154.958 219.439 147.337 209.745 149.342C187.631 153.902 186.025 146.411 186.025 146.411C209.385 111.75 219.156 67.7531 210.717 56.9873C187.731 27.6053 147.935 41.5006 147.27 41.8679L147.056 41.9061C142.694 40.988 137.873 40.4523 132.288 40.3758C122.28 40.2228 114.69 43.0003 108.92 47.3694C108.92 47.3694 37.9365 18.125 41.2342 84.1505C41.9382 98.1984 61.3579 190.507 84.5422 162.579C93.0278 152.372 101.215 143.748 101.215 143.748C105.27 146.449 110.144 147.827 115.248 147.329L115.645 146.993C115.528 148.315 115.582 149.647 115.806 150.957C109.839 157.628 111.598 158.799 99.6615 161.255C87.5876 163.742 94.6882 168.172 99.31 169.336C104.926 170.744 117.919 172.733 126.703 160.445L126.35 161.844C128.692 163.719 128.531 175.311 128.875 183.59C129.22 191.869 129.763 199.606 131.454 204.158C133.145 208.711 135.127 220.456 150.812 217.165C163.92 214.358 173.944 210.309 174.861 172.71" fill="black"/>
<path d="M174.846 172.64C176.093 162.258 175.719 160.743 183.446 162.419L185.412 162.594C191.358 162.862 199.132 161.637 203.776 159.519C213.609 154.958 219.439 147.337 209.745 149.342C187.631 153.902 186.025 146.411 186.025 146.411C209.385 111.75 219.156 67.7531 210.717 56.9873C187.731 27.6053 147.935 41.5006 147.27 41.8679L147.056 41.9061C142.694 40.988 137.873 40.4523 132.288 40.3758C122.28 40.2228 114.69 43.0003 108.92 47.3694C108.92 47.3694 37.9365 18.125 41.2342 84.1505C41.9382 98.1984 61.3579 190.507 84.5422 162.579C93.0278 152.372 101.215 143.748 101.215 143.748C105.27 146.449 110.144 147.827 115.248 147.329L115.645 146.993C115.528 148.315 115.582 149.647 115.806 150.957C109.839 157.628 111.598 158.799 99.6615 161.255C87.5876 163.742 94.6882 168.172 99.31 169.336C104.926 170.744 117.919 172.733 126.703 160.445L126.35 161.844C128.692 163.719 128.531 175.311 128.875 183.59C129.22 191.869 129.763 199.606 131.454 204.158C133.145 208.711 135.127 220.456 150.812 217.165C163.92 214.358 173.944 210.309 174.861 172.71" stroke="black" stroke-width="15.11"/>
<path d="M209.675 149.411C187.563 153.971 185.956 146.481 185.956 146.481C209.316 111.818 219.087 67.822 210.655 57.0562C187.67 27.6742 147.874 41.5771 147.208 41.9367L146.994 41.975C142.134 40.9997 137.192 40.4848 132.234 40.437C122.226 40.284 114.635 43.0615 108.867 47.4306C108.867 47.4306 37.8751 18.1862 41.1806 84.2116C41.8845 98.2603 61.3042 190.569 84.4885 162.641C93.0276 152.372 101.215 143.748 101.215 143.748C105.27 146.449 110.144 147.827 115.248 147.329L115.645 146.993C115.529 148.315 115.583 149.647 115.806 150.956C109.838 157.628 111.598 158.799 99.6613 161.255C87.5874 163.742 94.688 168.172 99.3098 169.335C104.926 170.744 117.918 172.733 126.703 160.445L126.35 161.844C128.692 163.719 130.329 174.033 130.053 183.383C129.778 192.734 129.594 199.146 131.431 204.165C133.267 209.185 135.104 220.463 150.789 217.173C163.897 214.365 170.683 207.073 171.64 194.938C172.313 186.306 173.828 187.576 173.936 179.864L175.16 176.206C176.56 164.499 175.389 160.728 183.461 162.487L185.427 162.664C191.374 162.931 199.155 161.707 203.715 159.587C213.547 155.027 219.378 147.406 209.684 149.411H209.675Z" fill="#336791"/>
<path d="M147.2 41.5771C144.752 42.3424 186.714 26.2358 210.571 56.712C218.988 67.4777 209.232 111.475 185.871 146.136M127.643 156.045C127.031 177.821 127.796 199.75 129.924 205.015C132.05 210.279 136.618 220.701 152.312 217.349C165.419 214.541 170.193 209.1 172.26 197.095L177.103 158.708L127.643 156.045ZM108.836 46.8797C108.836 46.8797 37.7986 17.8344 41.1041 83.8597C41.808 97.9078 61.2277 190.216 84.412 162.288C92.8745 152.088 100.526 144.108 100.526 144.108L108.836 46.8797Z" stroke="white" stroke-width="5.034" stroke-linecap="round" stroke-linejoin="round"/>
<path d="M185.879 146.121C185.879 146.121 187.41 153.62 209.599 149.044C219.294 147.039 213.456 154.66 203.631 159.221C195.566 162.97 177.478 163.926 177.18 158.761C176.415 145.409 186.698 149.465 185.956 146.121C185.283 143.106 180.676 140.153 177.647 132.777C174.991 126.349 141.225 76.9965 187.012 84.319C188.695 83.9747 175.075 40.7051 132.226 40.0778C89.3778 39.4503 90.7321 92.7588 90.7321 92.7588" stroke="white" stroke-width="5.034" stroke-linecap="round" stroke-linejoin="bevel"/>
<path d="M115.653 150.696C109.685 157.368 111.445 158.539 99.5089 160.995C87.4342 163.482 94.5349 167.912 99.1563 169.075C104.773 170.483 117.765 172.473 126.549 160.176C129.227 156.427 126.534 150.459 122.861 148.944C121.086 148.21 118.714 147.291 115.669 150.704L115.653 150.696Z" stroke="white" stroke-width="5.034" stroke-linejoin="round"/>
<path d="M115.263 150.581C114.651 146.656 116.548 141.996 118.576 136.533C121.622 128.347 128.646 120.159 123.03 94.1665C118.843 74.8081 90.7397 90.1342 90.7397 92.7587C90.7397 95.3832 92.0099 106.073 90.2806 118.506C88.0082 134.743 100.61 148.47 115.117 147.07" stroke="white" stroke-width="5.034" stroke-linecap="round" stroke-linejoin="round"/>
<path d="M108.576 92.3681C108.446 93.2634 110.22 95.6583 112.524 95.9797C114.827 96.3011 116.793 94.4341 116.924 93.5312C117.053 92.6283 115.278 91.6489 112.976 91.3275C110.672 91.0062 108.69 91.4805 108.576 92.3681Z" fill="white" stroke="white" stroke-width="1.68"/>
<path d="M178.694 90.5398C178.816 91.4351 177.049 93.8299 174.746 94.1514C172.443 94.4727 170.461 92.6057 170.347 91.7029C170.231 90.8 171.992 89.8206 174.295 89.4992C176.597 89.1778 178.579 89.6522 178.694 90.5398Z" fill="white" stroke="white" stroke-width="0.837"/>
<path d="M186.928 84.334C187.31 91.3735 185.412 96.1557 185.167 103.647C184.816 114.527 190.356 126.984 182.007 139.456" stroke="white" stroke-width="5.034" stroke-linecap="round" stroke-linejoin="round"/>
</svg>
