<svg width="256" height="256" viewBox="0 0 256 256" fill="none" xmlns="http://www.w3.org/2000/svg">
<g clip-path="url(#clip0_196_255)">
<rect width="256" height="256" rx="56" fill="#FF6C37"/>
<path d="M177.273 80.5353L116.624 141.184L99.5215 124.082C159.165 64.4388 165.057 69.6126 177.273 80.5353Z" fill="#EEEEEE"/>
<path d="M116.624 142.622C116.193 142.622 115.906 142.478 115.618 142.19L98.3717 125.088C97.7967 124.513 97.7967 123.651 98.3717 123.076C159.021 62.4265 165.344 68.1754 178.135 79.673C178.423 79.9605 178.567 80.248 178.567 80.6792C178.567 81.1105 178.423 81.3979 178.135 81.6845L117.486 142.19C117.343 142.478 116.912 142.622 116.624 142.622ZM101.533 124.082L116.624 139.173L175.118 80.6792C164.483 71.193 157.296 68.3191 101.533 124.082Z" fill="#FF6C37"/>
<path d="M134.014 158.574L117.486 142.047L178.136 81.3979C194.376 97.781 170.088 124.369 134.014 158.574Z" fill="#EEEEEE"/>
<path d="M134.014 160.012C133.583 160.012 133.296 159.868 133.009 159.581L116.481 143.053C116.193 142.765 116.193 142.478 116.193 142.047C116.193 141.615 116.337 141.328 116.625 141.04L177.273 80.3917C177.848 79.8167 178.711 79.8167 179.286 80.3917C183.022 83.8406 185.035 88.7269 184.891 93.757C184.603 109.71 166.494 129.974 135.164 159.581C134.733 159.868 134.301 160.012 134.014 160.012ZM119.499 142.047C128.696 151.388 132.577 155.125 134.014 156.562C158.159 133.568 181.585 109.997 181.728 93.757C181.872 90.0206 180.436 86.2843 177.992 83.4094L119.499 142.047Z" fill="#FF6C37"/>
<path d="M99.8097 124.513L112.026 136.729C112.313 137.017 112.313 137.304 112.026 137.591C111.882 137.735 111.882 137.735 111.739 137.735L86.4434 143.197C85.1506 143.34 84.0007 142.478 83.7132 141.184C83.5694 140.465 83.8569 139.748 84.2882 139.316L98.9472 124.656C99.2347 124.369 99.6659 124.225 99.8097 124.513Z" fill="#EEEEEE"/>
<path d="M86.0118 144.634C83.8566 144.634 82.2754 142.909 82.2754 140.753C82.2754 139.747 82.7066 138.741 83.4253 138.023L98.0844 123.364C98.9469 122.645 100.097 122.645 100.959 123.364L113.175 135.579C114.037 136.298 114.037 137.591 113.175 138.454C112.887 138.741 112.6 138.885 112.168 139.029L86.8743 144.49C86.5868 144.49 86.2993 144.634 86.0118 144.634ZM99.3781 126.094L85.294 140.178C85.0065 140.465 84.8628 140.896 85.1503 141.328C85.294 141.759 85.7243 141.903 86.1555 141.759L109.87 136.585L99.3781 126.094Z" fill="#FF6C37"/>
<path d="M209.323 46.905C200.125 37.9948 185.322 38.2823 176.411 47.6237C167.501 56.9652 167.788 71.6243 177.13 80.5355C184.747 87.8645 196.245 89.1582 205.299 83.6969L188.915 67.3129L209.323 46.905Z" fill="#EEEEEE"/>
<path d="M193.226 88.4395C179.573 88.4395 168.507 77.3731 168.507 63.7202C168.507 50.0664 179.573 39 193.226 39C199.55 39 205.73 41.4437 210.329 45.8988C210.616 46.1863 210.76 46.4738 210.76 46.905C210.76 47.3362 210.616 47.6237 210.329 47.9112L190.927 67.3129L206.161 82.5469C206.736 83.1219 206.736 83.9844 206.161 84.5593C206.017 84.7031 206.017 84.7031 205.874 84.8468C202.137 87.1458 197.681 88.4395 193.226 88.4395ZM193.226 42.0186C181.154 42.0186 171.381 51.7913 171.525 63.864C171.525 75.9366 181.297 85.7093 193.37 85.5655C196.676 85.5655 199.981 84.8468 202.999 83.2656L187.909 68.3191C187.621 68.0316 187.477 67.7441 187.477 67.3129C187.477 66.8816 187.621 66.5942 187.909 66.3067L207.167 47.0487C203.286 43.7436 198.4 42.0186 193.226 42.0186Z" fill="#FF6C37"/>
<path d="M209.754 47.3361L209.467 47.0486L188.915 67.3127L205.155 83.553C206.736 82.5468 208.317 81.3978 209.61 80.1041C218.808 71.0491 218.808 56.3901 209.754 47.3361Z" fill="#EEEEEE"/>
<path d="M205.299 85.1343C204.868 85.1343 204.58 84.9906 204.293 84.7031L187.909 68.3191C187.621 68.0316 187.478 67.7441 187.478 67.3129C187.478 66.8816 187.621 66.5941 187.909 66.3067L208.317 45.8988C208.892 45.3238 209.754 45.3238 210.329 45.8988L210.76 46.1863C220.389 55.8152 220.389 71.3367 210.904 81.1104C209.467 82.5469 207.885 83.8406 206.161 84.8468C205.73 84.9906 205.443 85.1343 205.299 85.1343ZM190.927 67.3129L205.443 81.8282C206.593 81.1104 207.743 80.1042 208.604 79.2417C216.797 71.0493 217.228 57.6839 209.323 49.0611L190.927 67.3129Z" fill="#FF6C37"/>
<path d="M179.717 83.1218C176.267 79.6729 170.662 79.6729 167.213 83.1218L113.031 137.304L122.086 146.358L179.43 96.0569C183.166 92.8945 183.454 87.2895 180.292 83.5531C180.005 83.4093 179.861 83.2656 179.717 83.1218Z" fill="#EEEEEE"/>
<path d="M121.943 147.796C121.511 147.796 121.224 147.652 120.936 147.364L111.882 138.31C111.307 137.735 111.307 136.873 111.882 136.298L166.064 82.1158C170.088 78.0919 176.555 78.0919 180.58 82.1158C184.604 86.1407 184.604 92.6072 180.58 96.6321C180.436 96.7758 180.292 96.9196 180.149 97.0633L122.804 147.364C122.661 147.652 122.374 147.796 121.943 147.796ZM115.044 137.304L122.086 144.347L178.424 94.9072C181.585 92.3198 181.873 87.5771 179.286 84.4157C176.699 81.2543 171.956 80.9668 168.795 83.5533C168.651 83.697 168.507 83.8407 168.22 83.9845L115.044 137.304Z" fill="#FF6C37"/>
<path d="M71.497 198.959C70.922 199.246 70.6345 199.821 70.7783 200.396L73.2219 210.744C73.7969 212.181 72.9344 213.906 71.3532 214.337C70.2033 214.768 68.9106 214.338 68.1918 213.475L52.3828 197.81L103.978 146.214L121.799 146.502L133.871 158.574C130.997 161.018 113.606 177.832 71.497 198.959Z" fill="#EEEEEE"/>
<path d="M70.3466 215.774C69.1976 215.774 68.0476 215.343 67.3289 214.481L51.6637 198.815C51.3762 198.528 51.2324 198.241 51.2324 197.81C51.2324 197.378 51.3762 197.091 51.6637 196.804L103.258 145.209C103.546 144.921 103.977 144.778 104.265 144.778L122.086 145.065C122.517 145.065 122.804 145.209 123.091 145.495L135.164 157.568C135.451 157.855 135.595 158.287 135.595 158.718C135.595 159.149 135.451 159.437 135.02 159.724L134.014 160.587C118.78 173.952 98.0845 187.318 72.359 200.109L74.8027 210.313C75.233 212.181 74.3715 214.194 72.6465 215.199C71.7841 215.63 71.0653 215.774 70.3466 215.774ZM54.5376 197.81L69.3414 212.469C69.7716 213.187 70.6341 213.475 71.3528 213.044C72.0715 212.613 72.359 211.75 71.9278 211.031L69.4851 200.684C69.1976 199.39 69.7716 198.241 70.9216 197.666C96.3596 184.875 116.912 171.653 132.002 158.574L121.367 147.939L104.84 147.652L54.5376 197.81Z" fill="#FF6C37"/>
<path d="M40.1658 210.169L52.5259 197.81L70.9214 216.205L41.6032 214.194C40.3095 214.05 39.4471 212.9 39.5908 211.606C39.5908 211.031 39.7346 210.456 40.1658 210.169Z" fill="#EEEEEE"/>
<path d="M70.9216 217.499L41.4597 215.487C39.3036 215.343 37.8661 213.475 38.0099 211.319C38.1536 210.457 38.4411 209.594 39.1598 209.02L51.5199 196.66C52.0949 196.085 52.9574 196.085 53.5314 196.66L71.9278 215.055C72.3591 215.487 72.5028 216.062 72.2153 216.637C71.9278 217.212 71.4966 217.499 70.9216 217.499ZM52.5262 199.821L41.1723 211.175C40.741 211.463 40.741 212.182 41.1723 212.469C41.316 212.613 41.4598 212.756 41.7472 212.756L67.1852 214.481L52.5262 199.821Z" fill="#FF6C37"/>
<path d="M98.9472 152.825C98.0847 152.825 97.5098 152.107 97.5098 151.388C97.5098 150.957 97.6535 150.67 97.941 150.383L111.882 136.441C112.456 135.867 113.319 135.867 113.894 136.441L122.948 145.496C123.379 145.927 123.523 146.358 123.379 146.933C123.235 147.364 122.804 147.795 122.23 147.939L99.2347 152.825C99.091 152.825 98.9472 152.825 98.9472 152.825ZM112.888 139.46L103.402 148.945L118.924 145.639L112.888 139.46Z" fill="#FF6C37"/>
<path d="M121.799 146.502L105.99 149.952C104.84 150.239 103.69 149.52 103.402 148.37C103.259 147.652 103.402 146.933 103.977 146.358L112.744 137.592L121.799 146.502Z" fill="#EEEEEE"/>
<path d="M105.702 151.388C103.69 151.388 102.108 149.808 102.108 147.795C102.108 146.789 102.54 145.927 103.115 145.209L111.882 136.441C112.456 135.867 113.319 135.867 113.894 136.441L122.948 145.496C123.379 145.927 123.522 146.358 123.379 146.933C123.235 147.364 122.804 147.795 122.23 147.939L106.421 151.388C106.133 151.388 105.846 151.388 105.702 151.388ZM112.887 139.46L105.127 147.22C104.84 147.508 104.84 147.795 104.983 148.083C105.127 148.37 105.415 148.514 105.846 148.514L119.067 145.639L112.887 139.46Z" fill="#FF6C37"/>
<path d="M209.897 61.1328C209.61 60.2713 208.603 59.84 207.741 60.1275C206.879 60.4141 206.448 61.4203 206.736 62.2827C206.736 62.4265 206.879 62.5702 206.879 62.714C207.741 64.4389 207.454 66.5941 206.305 68.1753C205.73 68.894 205.873 69.9002 206.448 70.4752C207.167 71.0492 208.172 70.9064 208.747 70.1877C210.903 67.4566 211.335 64.0077 209.897 61.1328Z" fill="#FF6C37"/>
</g>
<defs>
<clipPath id="clip0_196_255">
<rect width="256" height="256" fill="white"/>
</clipPath>
</defs>
</svg>
