<svg width="257" height="256" viewBox="0 0 257 256" fill="none" xmlns="http://www.w3.org/2000/svg">
<path d="M0.00195312 56C0.00195312 25.0721 25.074 0 56.002 0H200.002C230.93 0 256.002 25.0721 256.002 56V200C256.002 230.928 230.93 256 200.002 256H56.002C25.074 256 0.00195312 230.928 0.00195312 200V56Z" fill="#22272E"/>
<path d="M179.726 177.6C181.112 166.064 180.696 164.381 189.282 166.243L191.467 166.438C198.074 166.735 206.71 165.375 211.871 163.021C222.797 157.953 229.274 149.486 218.503 151.713C193.932 156.78 192.148 148.457 192.148 148.457C218.103 109.944 228.96 61.0589 219.583 49.0969C194.043 16.4502 149.825 31.8895 149.087 32.2976L148.848 32.34C144.002 31.3198 138.646 30.7247 132.439 30.6397C121.32 30.4697 112.886 33.5558 106.475 38.4103C106.475 38.4103 27.6047 5.91661 31.2688 79.2782C32.051 94.887 53.6285 197.452 79.3888 166.421C88.8172 155.08 97.9147 145.498 97.9147 145.498C102.42 148.499 107.836 150.03 113.506 149.477L113.948 149.103C113.817 150.573 113.878 152.053 114.127 153.507C107.496 160.92 109.451 162.221 96.188 164.95C82.7725 167.713 90.6621 172.636 95.7975 173.928C102.038 175.493 116.474 177.703 126.234 164.05L125.842 165.605C128.444 167.688 128.265 180.568 128.647 189.767C129.031 198.966 129.634 207.562 131.513 212.619C133.392 217.678 135.594 230.729 153.022 227.072C167.586 223.953 178.724 219.455 179.743 177.678" fill="black"/>
<path d="M179.726 177.6C181.112 166.064 180.696 164.381 189.282 166.243L191.467 166.438C198.074 166.735 206.71 165.375 211.871 163.021C222.797 157.953 229.274 149.486 218.503 151.713C193.932 156.78 192.148 148.457 192.148 148.457C218.103 109.944 228.96 61.0589 219.583 49.0969C194.043 16.4502 149.825 31.8895 149.087 32.2976L148.848 32.34C144.002 31.3198 138.646 30.7247 132.439 30.6397C121.32 30.4697 112.886 33.5558 106.475 38.4103C106.475 38.4103 27.6047 5.91661 31.2688 79.2782C32.051 94.887 53.6285 197.452 79.3888 166.421C88.8172 155.08 97.9147 145.498 97.9147 145.498C102.42 148.499 107.836 150.03 113.506 149.477L113.948 149.103C113.817 150.573 113.878 152.053 114.127 153.507C107.496 160.92 109.451 162.221 96.188 164.95C82.7725 167.713 90.6621 172.636 95.7975 173.928C102.038 175.493 116.474 177.703 126.234 164.05L125.842 165.605C128.444 167.688 128.265 180.568 128.647 189.767C129.031 198.966 129.634 207.562 131.513 212.619C133.392 217.678 135.594 230.729 153.022 227.072C167.586 223.953 178.724 219.455 179.743 177.678" stroke="black" stroke-width="15.11"/>
<path d="M218.426 151.79C193.856 156.856 192.071 148.534 192.071 148.534C218.027 110.02 228.884 61.1354 219.514 49.1734C193.976 16.5267 149.758 31.9744 149.018 32.3739L148.779 32.4165C143.379 31.3329 137.889 30.7607 132.38 30.7076C121.259 30.5376 112.826 33.6237 106.416 38.4783C106.416 38.4783 27.5366 5.98451 31.2093 79.3461C31.9915 94.9557 53.5689 197.521 79.3292 166.489C88.8172 155.08 97.9147 145.498 97.9147 145.498C102.42 148.499 107.836 150.029 113.506 149.477L113.948 149.103C113.818 150.572 113.879 152.052 114.127 153.507C107.496 160.92 109.451 162.221 96.188 164.95C82.7725 167.713 90.6621 172.635 95.7974 173.928C102.038 175.493 116.474 177.703 126.234 164.049L125.842 165.604C128.444 167.688 130.263 179.148 129.957 189.537C129.651 199.927 129.447 207.051 131.488 212.628C133.527 218.205 135.568 230.737 152.997 227.081C167.561 223.961 175.101 215.859 176.164 202.375C176.912 192.785 178.596 194.196 178.715 185.626L180.075 181.563C181.63 168.555 180.329 164.364 189.299 166.319L191.484 166.515C198.09 166.812 206.737 165.452 211.803 163.097C222.728 158.03 229.206 149.562 218.435 151.79H218.426Z" fill="#336791"/>
<path d="M149.009 31.9746C146.289 32.8248 192.913 14.9286 219.421 48.7911C228.773 60.753 217.934 109.639 191.977 148.151M127.279 159.161C126.599 183.357 127.449 207.723 129.813 213.572C132.176 219.421 137.251 231.001 154.688 227.277C169.252 224.157 174.557 218.111 176.853 204.772L182.234 162.12L127.279 159.161ZM106.382 37.8663C106.382 37.8663 27.4516 5.59374 31.1243 78.9552C31.9065 94.5642 53.4839 197.129 79.2442 166.098C88.6471 154.765 97.1492 145.898 97.1492 145.898L106.382 37.8663Z" stroke="white" stroke-width="5.034" stroke-linecap="round" stroke-linejoin="round"/>
<path d="M191.985 148.134C191.985 148.134 193.687 156.466 218.341 151.382C229.113 149.155 222.626 157.622 211.71 162.69C202.749 166.855 182.651 167.918 182.32 162.179C181.47 147.343 192.896 151.85 192.071 148.134C191.323 144.785 186.205 141.503 182.838 133.308C179.888 126.165 142.37 71.3294 193.244 79.4656C195.115 79.083 179.981 31.0057 132.371 30.3086C84.7619 29.6114 86.2667 88.843 86.2667 88.843" stroke="white" stroke-width="5.034" stroke-linecap="round" stroke-linejoin="bevel"/>
<path d="M113.956 153.218C107.325 160.631 109.281 161.932 96.0187 164.661C82.6024 167.424 90.492 172.347 95.6269 173.639C101.867 175.204 116.303 177.414 126.063 163.751C129.039 159.585 126.046 152.955 121.966 151.271C119.993 150.455 117.358 149.435 113.974 153.227L113.956 153.218Z" stroke="white" stroke-width="5.034" stroke-linejoin="round"/>
<path d="M113.523 153.09C112.843 148.729 114.951 143.552 117.204 137.482C120.588 128.385 128.393 119.288 122.153 90.4075C117.502 68.8981 86.2752 85.9271 86.2752 88.8432C86.2752 91.7593 87.6865 103.637 85.7651 117.451C83.2401 135.493 97.2424 150.745 113.361 149.189" stroke="white" stroke-width="5.034" stroke-linecap="round" stroke-linejoin="round"/>
<path d="M106.093 88.409C105.948 89.4037 107.92 92.0648 110.48 92.4219C113.038 92.7789 115.223 90.7045 115.369 89.7013C115.512 88.6981 113.54 87.6099 110.982 87.2528C108.422 86.8957 106.22 87.4228 106.093 88.409Z" fill="white" stroke="white" stroke-width="1.68"/>
<path d="M184.003 86.3774C184.138 87.3722 182.174 90.0331 179.616 90.3903C177.056 90.7474 174.854 88.6728 174.727 87.6697C174.599 86.6665 176.556 85.5783 179.114 85.2212C181.673 84.8641 183.875 85.3912 184.003 86.3774Z" fill="white" stroke="white" stroke-width="0.837"/>
<path d="M193.151 79.4822C193.575 87.3038 191.467 92.6174 191.195 100.941C190.804 113.03 196.96 126.871 187.683 140.729" stroke="white" stroke-width="5.034" stroke-linecap="round" stroke-linejoin="round"/>
</svg>
