<svg width="257" height="256" viewBox="0 0 257 256" fill="none" xmlns="http://www.w3.org/2000/svg">
<path d="M0.00195312 56C0.00195312 25.0721 25.074 0 56.002 0H200.002C230.93 0 256.002 25.0721 256.002 56V200C256.002 230.928 230.93 256 200.002 256H56.002C25.074 256 0.00195312 230.928 0.00195312 200V56Z" fill="#F8FAFC"/>
<path fill-rule="evenodd" clip-rule="evenodd" d="M36.339 203.033C35.0869 203.071 33.8429 202.82 32.703 202.301C31.5633 201.781 30.5581 201.006 29.7651 200.036C28.9722 198.987 28.4268 197.771 28.1691 196.481C27.9115 195.191 27.9486 193.858 28.2775 192.585L58.0086 62.7083C58.6688 60.0162 60.1884 57.6126 62.3371 55.8613C64.4858 54.1101 67.1466 53.1068 69.9167 53.0034H218.055C219.307 52.9674 220.551 53.2188 221.689 53.7382C222.829 54.2577 223.835 55.0314 224.629 55.9999C225.421 57.0502 225.967 58.2658 226.224 59.556C226.482 60.8463 226.445 62.1781 226.117 63.4522L196.365 193.336C195.704 196.028 194.184 198.431 192.036 200.182C189.887 201.934 187.227 202.937 184.456 203.04H36.339V203.033Z" fill="url(#paint0_linear_36_1094)"/>
<path fill-rule="evenodd" clip-rule="evenodd" d="M70.5799 54.6727H221.157C222.212 54.6296 223.262 54.841 224.217 55.2891C225.172 55.7372 226.006 56.4087 226.648 57.2471C227.289 58.0854 227.718 59.0658 227.901 60.1054C228.083 61.145 228.013 62.2132 227.695 63.2198L197.453 195.235C196.857 197.59 195.52 199.692 193.639 201.232C191.758 202.771 189.432 203.664 187.005 203.781H36.4495C35.3948 203.824 34.3453 203.613 33.3897 203.165C32.4341 202.717 31.6003 202.046 30.9591 201.207C30.3178 200.369 29.8879 199.388 29.7055 198.348C29.5231 197.309 29.5937 196.241 29.9113 195.235L60.1535 63.2198C60.7472 60.8665 62.0807 58.766 63.9577 57.2274C65.8346 55.6888 68.1559 54.7933 70.5799 54.6727Z" fill="url(#paint1_linear_36_1094)"/>
<path fill-rule="evenodd" clip-rule="evenodd" d="M127.481 167.293H163.509C165.549 167.38 167.478 168.251 168.891 169.726C170.305 171.201 171.094 173.164 171.094 175.206C171.094 177.249 170.305 179.212 168.891 180.687C167.478 182.161 165.549 183.033 163.509 183.119H127.481C125.44 183.033 123.512 182.161 122.098 180.687C120.685 179.212 119.895 177.249 119.895 175.206C119.895 173.164 120.685 171.201 122.098 169.726C123.512 168.251 125.44 167.38 127.481 167.293Z" fill="#2C5591"/>
<path fill-rule="evenodd" clip-rule="evenodd" d="M150.851 132.116C149.819 133.851 148.383 135.309 146.664 136.366L79.799 184.36C77.9369 185.571 75.6811 186.021 73.4968 185.617C71.3125 185.214 69.3663 183.988 68.0597 182.191C66.7531 180.395 66.1858 178.166 66.4747 175.964C66.7636 173.761 67.8867 171.754 69.6124 170.355L129.911 126.69V125.797L92.0259 85.5181C90.6134 83.819 89.903 81.6448 90.0396 79.4395C90.1762 77.2342 91.1495 75.1643 92.7609 73.6524C94.3721 72.1406 96.4998 71.301 98.7093 71.3049C100.919 71.3089 103.043 72.1563 104.649 73.6739L150.114 122.035C151.335 123.397 152.071 125.125 152.204 126.95C152.337 128.775 151.861 130.591 150.851 132.116Z" fill="#2C5591"/>
<path fill-rule="evenodd" clip-rule="evenodd" d="M149.157 130.444C148.13 132.18 146.696 133.638 144.978 134.694L78.1342 182.695C76.2716 183.88 74.0271 184.312 71.8578 183.9C69.6884 183.489 67.7574 182.266 66.458 180.481C65.1586 178.696 64.5886 176.482 64.8641 174.292C65.1395 172.1 66.2397 170.098 67.9405 168.689L128.245 125.025V124.125L90.361 83.8244C88.9354 82.1263 88.2144 79.9466 88.3463 77.7332C88.4784 75.5199 89.4533 73.4411 91.0706 71.9245C92.688 70.4078 94.825 69.5683 97.0422 69.5787C99.2595 69.589 101.389 70.4485 102.992 71.9803L148.449 120.342C149.676 121.706 150.412 123.441 150.54 125.271C150.669 127.101 150.182 128.922 149.157 130.444Z" fill="white"/>
<path fill-rule="evenodd" clip-rule="evenodd" d="M126.49 166.36H162.518C164.508 166.36 166.415 167.15 167.823 168.557C169.229 169.964 170.02 171.872 170.02 173.861C170.02 175.851 169.229 177.76 167.823 179.166C166.415 180.573 164.508 181.363 162.518 181.363H126.49C124.5 181.363 122.591 180.573 121.185 179.166C119.778 177.76 118.987 175.851 118.987 173.861C118.987 171.872 119.778 169.964 121.185 168.557C122.591 167.15 124.5 166.36 126.49 166.36Z" fill="white"/>
<defs>
<linearGradient id="paint0_linear_36_1094" x1="179.086" y1="174.372" x2="65.2838" y2="72.7179" gradientUnits="userSpaceOnUse">
<stop stop-color="#5391FE"/>
<stop offset="1" stop-color="#3E6DBF"/>
</linearGradient>
<linearGradient id="paint1_linear_36_1094" x1="64.7186" y1="71.6372" x2="179.214" y2="174.533" gradientUnits="userSpaceOnUse">
<stop stop-color="#5391FE"/>
<stop offset="1" stop-color="#3E6DBF"/>
</linearGradient>
</defs>
</svg>
