<svg width="256" height="256" viewBox="0 0 256 256" fill="none" xmlns="http://www.w3.org/2000/svg">
<path fill-rule="evenodd" clip-rule="evenodd" d="M45.4973 195.03C44.3704 195.064 43.2508 194.838 42.2249 194.371C41.1991 193.903 40.2945 193.206 39.5808 192.333C38.8672 191.388 38.3763 190.294 38.1444 189.133C37.9126 187.972 37.9459 186.773 38.2419 185.626L64.9999 68.7375C65.5941 66.3146 66.9618 64.1513 68.8956 62.5752C70.8294 60.9991 73.2241 60.0962 75.7172 60.003H209.042C210.168 59.9706 211.288 60.197 212.313 60.6644C213.339 61.132 214.244 61.8282 214.958 62.6999C215.671 63.6452 216.162 64.7392 216.394 65.9004C216.626 67.0616 216.593 68.2603 216.297 69.407L189.52 186.302C188.926 188.725 187.558 190.888 185.624 192.464C183.691 194.041 181.296 194.943 178.803 195.036H45.4973V195.03Z" fill="url(#paint0_linear_36_1094)"/>
<path fill-rule="evenodd" clip-rule="evenodd" d="M76.3139 61.5054H211.834C212.783 61.4666 213.728 61.6569 214.587 62.0602C215.447 62.4635 216.198 63.0678 216.775 63.8224C217.352 64.5769 217.739 65.4592 217.903 66.3949C218.067 67.3305 218.004 68.2919 217.718 69.1978L190.5 188.011C189.964 190.131 188.76 192.023 187.067 193.409C185.375 194.793 183.281 195.598 181.097 195.703H45.5966C44.6474 195.742 43.7029 195.552 42.8428 195.148C41.9828 194.745 41.2324 194.141 40.6552 193.386C40.0781 192.632 39.6911 191.749 39.527 190.813C39.3628 189.878 39.4264 188.917 39.7123 188.011L66.9303 69.1978C67.4646 67.0798 68.6647 65.1894 70.354 63.8046C72.0432 62.4199 74.1324 61.614 76.3139 61.5054Z" fill="url(#paint1_linear_36_1094)"/>
<path fill-rule="evenodd" clip-rule="evenodd" d="M127.525 162.864H159.95C161.787 162.941 163.522 163.726 164.794 165.053C166.067 166.38 166.777 168.147 166.777 169.985C166.777 171.824 166.067 173.59 164.794 174.918C163.522 176.245 161.787 177.029 159.95 177.107H127.525C125.688 177.029 123.953 176.245 122.681 174.918C121.408 173.59 120.698 171.824 120.698 169.985C120.698 168.147 121.408 166.38 122.681 165.053C123.953 163.726 125.688 162.941 127.525 162.864Z" fill="#2C5591"/>
<path fill-rule="evenodd" clip-rule="evenodd" d="M148.558 131.204C147.629 132.765 146.337 134.078 144.79 135.029L84.6111 178.224C82.9353 179.314 80.9051 179.719 78.9392 179.356C76.9733 178.992 75.2218 177.889 74.0458 176.272C72.8699 174.655 72.3593 172.649 72.6193 170.667C72.8793 168.685 73.8901 166.878 75.4432 165.619L129.712 126.321V125.517L95.6153 89.2663C94.3441 87.737 93.7048 85.7803 93.8277 83.7954C93.9507 81.8107 94.8267 79.9478 96.2769 78.5871C97.727 77.2264 99.6419 76.4708 101.63 76.4744C103.619 76.4779 105.531 77.2406 106.976 78.6064L147.895 122.132C148.994 123.357 149.656 124.913 149.776 126.555C149.895 128.197 149.467 129.832 148.558 131.204Z" fill="#2C5591"/>
<path fill-rule="evenodd" clip-rule="evenodd" d="M147.034 129.699C146.11 131.262 144.819 132.574 143.272 133.525L83.1131 176.725C81.4367 177.792 79.4166 178.18 77.4642 177.81C75.5118 177.44 73.7739 176.339 72.6044 174.732C71.435 173.126 70.922 171.134 71.1699 169.162C71.4178 167.19 72.4079 165.388 73.9387 164.12L128.213 124.822V124.012L94.1172 87.7419C92.8341 86.2136 92.1852 84.2518 92.3039 82.2598C92.4228 80.2678 93.3002 78.3969 94.7558 77.032C96.2114 75.6669 98.1347 74.9114 100.13 74.9207C102.126 74.93 104.042 75.7035 105.485 77.0821L146.396 120.607C147.501 121.835 148.163 123.396 148.278 125.044C148.394 126.691 147.956 128.33 147.034 129.699Z" fill="white"/>
<path fill-rule="evenodd" clip-rule="evenodd" d="M126.633 162.024H159.058C160.849 162.024 162.566 162.735 163.833 164.001C165.099 165.267 165.81 166.985 165.81 168.775C165.81 170.566 165.099 172.284 163.833 173.55C162.566 174.816 160.849 175.527 159.058 175.527H126.633C124.842 175.527 123.124 174.816 121.858 173.55C120.592 172.284 119.881 170.566 119.881 168.775C119.881 166.985 120.592 165.267 121.858 164.001C123.124 162.735 124.842 162.024 126.633 162.024Z" fill="white"/>
<defs>
<linearGradient id="paint0_linear_36_1094" x1="173.97" y1="169.235" x2="71.5476" y2="77.7461" gradientUnits="userSpaceOnUse">
<stop stop-color="#5391FE"/>
<stop offset="1" stop-color="#3E6DBF"/>
</linearGradient>
<linearGradient id="paint1_linear_36_1094" x1="71.0388" y1="76.7734" x2="174.085" y2="169.38" gradientUnits="userSpaceOnUse">
<stop stop-color="#5391FE"/>
<stop offset="1" stop-color="#3E6DBF"/>
</linearGradient>
</defs>
</svg>
