<svg width="256" height="256" viewBox="0 0 256 256" fill="none" xmlns="http://www.w3.org/2000/svg">
<g clip-path="url(#clip0_30_527)">
<path d="M196 0H60C26.8629 0 0 26.8629 0 60V196C0 229.137 26.8629 256 60 256H196C229.137 256 256 229.137 256 196V60C256 26.8629 229.137 0 196 0Z" fill="#00005B"/>
<path d="M38 195.366V61.2141C38 60.3025 38.3907 59.7815 39.3025 59.7815C41.5166 59.7815 43.6006 59.7815 46.5962 59.6512C49.722 59.521 52.9782 59.521 56.4948 59.3907C60.0114 59.2604 63.7885 59.2604 67.8261 59.1303C71.8636 59 75.771 59 79.6783 59C90.3584 59 99.2147 60.3025 106.509 63.0376C113.021 65.2518 119.013 68.8987 123.962 73.7176C128.129 77.8855 131.386 82.9651 133.47 88.5656C135.424 94.0358 136.465 99.6364 136.465 105.497C136.465 116.698 133.861 125.946 128.65 133.24C123.44 140.533 116.147 146.003 107.681 149.129C98.824 152.386 89.056 153.558 78.376 153.558C75.2501 153.558 73.1661 153.558 71.8636 153.427C70.5613 153.298 68.7378 153.298 66.2632 153.298V195.106C66.3933 196.017 65.7422 196.799 64.8304 196.929H64.3095H39.5629C38.521 196.929 38 196.408 38 195.236V195.366ZM66.3934 85.0489V128.811C68.2169 128.942 69.91 129.072 71.4729 129.072H78.376C83.4555 129.072 88.5351 128.291 93.354 126.728C97.5223 125.556 101.168 123.08 104.034 119.824C106.769 116.569 108.072 112.14 108.072 106.41C108.202 102.372 107.16 98.3335 105.076 94.8169C102.862 91.431 99.7361 88.8261 95.9594 87.3934C91.1399 85.4397 85.9301 84.6582 80.5901 84.7885C77.2038 84.7885 74.208 84.7885 71.7335 84.9188C69.1285 84.7885 67.3051 84.9188 66.3934 85.0489Z" fill="#9999FF"/>
<path d="M155.221 92.7335H178.015C179.317 92.7335 180.359 93.6451 180.75 94.817C181.14 95.8597 181.4 96.9013 181.531 98.0735C181.791 99.3764 182.053 100.809 182.182 102.112C182.313 103.544 182.443 105.107 182.443 106.8C186.351 102.241 191.039 98.4642 196.379 95.5984C202.371 92.2125 209.273 90.5193 216.176 90.5193C217.088 90.3891 217.869 91.0403 218 91.952V92.4729V117.87C218 118.913 217.348 119.304 215.916 119.304C211.227 119.173 206.407 119.564 201.849 120.605C198.073 121.387 194.425 122.559 190.909 124.122C188.434 125.294 186.089 126.857 184.266 128.942V195.366C184.266 196.669 183.745 197.189 182.573 197.189H156.915C155.873 197.32 154.961 196.669 154.831 195.627V195.106V122.95C154.831 119.824 154.831 116.569 154.701 113.182C154.57 109.796 154.57 106.41 154.44 103.022C154.44 100.027 154.18 97.1614 153.92 94.1662C153.789 93.515 154.18 92.8637 154.831 92.7335C154.831 92.6032 155.092 92.6032 155.221 92.7335Z" fill="#9999FF"/>
</g>
<defs>
<clipPath id="clip0_30_527">
<rect width="256" height="256" fill="white"/>
</clipPath>
</defs>
</svg>
