<svg width="256" height="256" viewBox="0 0 256 256" fill="none" xmlns="http://www.w3.org/2000/svg">
<path d="M196 0H60C26.8629 0 0 26.8629 0 60V196C0 229.137 26.8629 256 60 256H196C229.137 256 256 229.137 256 196V60C256 26.8629 229.137 0 196 0Z" fill="#00005B"/>
<path d="M54 182.68V72.8133C54 72.0667 54.32 71.64 55.0667 71.64C56.88 71.64 58.5867 71.64 61.04 71.5333C63.6 71.4267 66.2667 71.4267 69.1467 71.32C72.0267 71.2133 75.12 71.2133 78.4267 71.1067C81.7333 71 84.9333 71 88.1333 71C96.88 71 104.133 72.0667 110.107 74.3067C115.44 76.12 120.347 79.1067 124.4 83.0533C127.813 86.4667 130.48 90.6267 132.187 95.2133C133.787 99.6933 134.64 104.28 134.64 109.08C134.64 118.253 132.507 125.827 128.24 131.8C123.973 137.773 118 142.253 111.067 144.813C103.813 147.48 95.8133 148.44 87.0667 148.44C84.5067 148.44 82.8 148.44 81.7333 148.333C80.6667 148.227 79.1733 148.227 77.1467 148.227V182.467C77.2533 183.213 76.72 183.853 75.9733 183.96H75.5467H55.28C54.4267 183.96 54 183.533 54 182.573V182.68ZM77.2533 92.3333V128.173C78.7467 128.28 80.1333 128.387 81.4133 128.387H87.0667C91.2267 128.387 95.3867 127.747 99.3333 126.467C102.747 125.507 105.733 123.48 108.08 120.813C110.32 118.147 111.387 114.52 111.387 109.827C111.493 106.52 110.64 103.213 108.933 100.333C107.12 97.56 104.56 95.4267 101.467 94.2533C97.52 92.6533 93.2533 92.0133 88.88 92.12C86.1067 92.12 83.6533 92.12 81.6267 92.2267C79.4933 92.12 78 92.2267 77.2533 92.3333Z" fill="#9999FF"/>
<path d="M150.001 98.6268H168.668C169.735 98.6268 170.588 99.3734 170.908 100.333C171.228 101.187 171.441 102.04 171.548 103C171.761 104.067 171.975 105.24 172.081 106.307C172.188 107.48 172.295 108.76 172.295 110.147C175.495 106.413 179.335 103.32 183.708 100.973C188.615 98.2001 194.268 96.8134 199.921 96.8134C200.668 96.7068 201.308 97.2401 201.415 97.9868V98.4134V119.213C201.415 120.067 200.881 120.387 199.708 120.387C195.868 120.28 191.921 120.6 188.188 121.453C185.095 122.093 182.108 123.053 179.228 124.333C177.201 125.293 175.281 126.573 173.788 128.28V182.68C173.788 183.747 173.361 184.173 172.401 184.173H151.388C150.535 184.28 149.788 183.747 149.681 182.893V182.467V123.373C149.681 120.813 149.681 118.147 149.575 115.373C149.468 112.6 149.468 109.827 149.361 107.053C149.361 104.6 149.148 102.253 148.935 99.8001C148.828 99.2668 149.148 98.7334 149.681 98.6268C149.681 98.5201 149.895 98.5201 150.001 98.6268Z" fill="#9999FF"/>
</svg>
