<svg width="256" height="256" viewBox="0 0 256 256" fill="none" xmlns="http://www.w3.org/2000/svg">
<path d="M196 0H60C26.8629 0 0 26.8629 0 60V196C0 229.137 26.8629 256 60 256H196C229.137 256 256 229.137 256 196V60C256 26.8629 229.137 0 196 0Z" fill="#677EEB"/>
<path fill-rule="evenodd" clip-rule="evenodd" d="M47.5477 165.279C45.513 162.069 45.4823 157.981 47.4685 154.741L122.252 32.7544C126.412 25.9696 136.455 26.5628 139.787 33.7901L208.105 181.988C210.64 187.487 207.722 193.957 201.922 195.697L95.648 227.579C91.3721 228.861 86.765 227.143 84.3748 223.372L47.5477 165.279ZM130.88 68.4223C131.6 64.8338 136.518 64.3163 137.97 67.6762L185.095 176.72C185.982 178.774 184.878 181.142 182.734 181.781L109.308 203.7C106.609 204.505 104.023 202.147 104.578 199.386L130.88 68.4223Z" fill="#F7FAFC"/>
</svg>
