<svg width="256" height="256" viewBox="0 0 256 256" fill="none" xmlns="http://www.w3.org/2000/svg">
<g clip-path="url(#clip0_196_193)">
<rect width="256" height="256" rx="56" fill="#677EEB"/>
<path fill-rule="evenodd" clip-rule="evenodd" d="M56.393 161.551C54.5617 158.662 54.5341 154.983 56.3216 152.067L123.627 42.279C127.37 36.1727 136.41 36.7065 139.408 43.2111L200.895 176.589C203.176 181.538 200.55 187.361 195.329 188.928L99.6832 217.621C95.8349 218.775 91.6885 217.229 89.5374 213.835L56.393 161.551ZM131.392 74.3801C132.04 71.1504 136.466 70.6847 137.773 73.7086L180.185 171.848C180.984 173.697 179.991 175.828 178.061 176.403L111.977 196.13C109.548 196.855 107.221 194.732 107.721 192.247L131.392 74.3801Z" fill="#F7FAFC"/>
</g>
<defs>
<clipPath id="clip0_196_193">
<rect width="256" height="256" fill="white"/>
</clipPath>
</defs>
</svg>
