<svg width="256" height="256" viewBox="0 0 256 256" fill="none" xmlns="http://www.w3.org/2000/svg">
<g clip-path="url(#clip0_30_524)">
<path d="M196 0H60C26.8629 0 0 26.8629 0 60V196C0 229.137 26.8629 256 60 256H196C229.137 256 256 229.137 256 196V60C256 26.8629 229.137 0 196 0Z" fill="#E6522C"/>
<path d="M128.319 218C112.207 218 99.1427 207.236 99.1427 193.963H157.497C157.497 207.234 144.433 218 128.319 218ZM176.51 186.002H80.1233V168.524H176.512L176.51 186.002ZM176.164 159.529H80.3984C80.0799 159.162 79.7541 158.799 79.4465 158.426C69.5803 146.446 67.2567 140.192 65.0001 133.818C64.9621 133.609 76.9637 136.271 85.4745 138.185C85.4745 138.185 89.8538 139.199 96.2563 140.366C90.1089 133.161 86.4589 123.999 86.4589 114.637C86.4589 94.0809 102.225 76.1183 96.5368 61.5996C102.073 62.0502 107.994 73.2827 108.393 90.8453C114.279 82.7127 116.742 67.8609 116.742 58.7548C116.742 49.3266 122.954 38.3746 129.168 38C123.629 47.1297 130.604 54.9564 136.803 74.3721C139.129 81.6649 138.831 93.938 140.627 101.721C141.223 85.5556 144.002 61.9687 154.257 53.8253C149.733 64.0806 154.927 76.9128 158.479 83.0819C164.211 93.0349 167.685 100.576 167.685 114.838C167.685 124.4 164.154 133.403 158.199 140.441C164.97 139.17 169.647 138.024 169.647 138.024L191.637 133.734C191.637 133.734 188.443 146.874 176.164 159.529Z" fill="white"/>
</g>
<defs>
<clipPath id="clip0_30_524">
<rect width="256" height="256" fill="white"/>
</clipPath>
</defs>
</svg>
