<svg width="256" height="256" viewBox="0 0 256 256" fill="none" xmlns="http://www.w3.org/2000/svg">
<path d="M188.613 102.256C188.332 94.6977 189.175 87.9986 186.365 82.3302C179.622 68.245 162.763 60 129.046 60V61.2024H128.343H129.046V60C95.3283 60 77.6268 68.245 70.8833 82.502C68.214 88.3422 68.4949 94.8694 68.0735 102.428C67.7925 108.439 65.5447 114.795 66.5281 121.665C67.652 130.598 68.0735 139.529 69.1974 147.775C70.0403 154.474 77.6267 160.142 78.3291 166.498C80.296 184.018 95.1878 192.091 128.905 192.091V193.466H128.062H128.202H129.046V192.091C162.763 192.091 177.093 184.018 178.919 166.498C179.622 159.97 186.646 154.474 187.489 147.775C188.613 139.529 189.034 130.598 190.159 121.665C191.142 114.795 188.894 108.268 188.613 102.256Z" fill="#EFCCA3"/>
<path d="M128.484 108.44C134.525 108.611 138.739 113.249 142.673 117.543C147.309 122.525 155.177 125.96 158.408 130.254C161.639 134.549 165.854 138.843 167.399 145.541C168.945 152.241 169.366 160.83 169.366 163.063C169.366 165.295 170.35 164.78 173.159 163.063C179.762 159.112 187.067 148.462 187.067 148.462C186.225 155.161 179.06 161.173 178.358 167.528C176.672 185.049 162.763 193.465 128.344 193.465H128.203H129.046" fill="#CCAC8D"/>
<path d="M150.681 95.0413C151.946 100.366 156.441 118.402 147.731 112.39C147.731 112.39 151.384 114.967 153.632 124.758C156.02 134.549 161.78 135.751 161.78 135.751C161.78 135.751 171.193 137.984 178.217 130.598C184.118 124.414 185.101 113.42 182.572 105.004C180.043 96.759 175.548 94.1824 168.945 92.4647C162.342 90.5752 149.135 89.0293 150.681 95.0413Z" fill="#CCAC8D"/>
<path d="M164.168 111.875C165.953 111.875 167.399 110.106 167.399 107.924C167.399 105.741 165.953 103.973 164.168 103.973C162.384 103.973 160.937 105.741 160.937 107.924C160.937 110.106 162.384 111.875 164.168 111.875Z" fill="white"/>
<path d="M148.574 113.936C148.574 113.936 159.672 123.212 165.713 132.316C171.754 141.42 171.614 143.138 171.614 143.138L167.259 145.542C167.259 145.542 161.078 131.285 153.491 125.96C145.764 120.635 144.921 116.169 144.921 116.169L148.574 113.936Z" fill="#EFCCA3"/>
<path d="M128.905 108.44C122.864 108.611 118.368 113.249 114.294 117.543C109.658 122.525 101.51 125.96 98.2786 130.254C95.0474 134.549 90.6922 138.843 89.1468 145.541C87.6015 152.241 87.0395 160.83 87.0395 163.063C87.0395 165.295 87.3205 165.467 83.2463 163.063C76.6433 159.283 69.3379 148.462 69.3379 148.462C70.1808 155.161 77.3458 161.173 78.0482 167.528C80.015 185.049 93.9235 193.465 128.343 193.465H128.484H129.046" fill="#CCAC8D"/>
<path d="M161.499 137.468C154.755 127.334 143.938 117.887 128.905 117.887H128.765C113.732 117.887 102.915 127.334 96.1714 137.468C89.147 147.946 89.7089 152.069 89.7089 162.032C89.7089 198.103 100.105 187.797 106.989 192.263C114.013 196.558 121.319 195.183 128.765 195.183H128.905C136.492 195.183 143.657 196.386 150.681 192.092C157.565 187.797 167.961 198.447 167.961 162.375C168.101 152.413 168.524 147.946 161.499 137.468Z" fill="#56332B"/>
<path d="M128.203 126.819C128.203 126.819 127.219 143.481 125.253 146.745L128.905 145.713L128.203 126.819Z" fill="#442823"/>
<path d="M129.186 126.819C129.186 126.819 130.17 143.481 132.136 146.745L128.484 145.713L129.186 126.819Z" fill="#442823"/>
<path d="M117.385 122.868C115.98 118.918 121.038 112.562 129.046 112.39C137.054 112.39 142.111 118.746 140.706 122.868C139.301 126.991 134.244 128.193 129.046 128.365C123.988 128.193 118.79 126.991 117.385 122.868Z" fill="#56332B"/>
<path d="M129.326 149.836C131.715 149.836 135.93 151.897 139.723 155.16C136.07 150.179 131.715 146.744 129.326 146.744C126.798 146.744 121.459 150.523 117.666 156.02C121.6 152.241 126.658 149.836 129.326 149.836Z" fill="#7F4A41"/>
<path d="M128.343 180.239C123.005 180.239 117.806 178.178 113.03 176.632C112.046 176.289 111.063 177.148 110.08 176.804C101.229 173.368 94.0639 167.528 89.7087 160.142C89.7087 160.658 89.7087 161.344 89.7087 161.86C89.7087 197.932 100.105 187.797 106.989 192.092C114.013 196.386 121.319 195.012 128.765 195.012H128.905C136.492 195.012 143.656 196.214 150.681 191.92C157.565 187.625 167.961 198.104 167.961 162.032C167.961 160.658 167.961 159.283 168.101 158.081C164.027 166.154 156.581 172.51 147.309 176.289C146.466 176.632 144.499 175.773 143.656 175.945C138.599 178.006 134.103 180.239 128.343 180.239Z" fill="#442823"/>
<path d="M114.997 160.83C114.997 160.83 111.485 173.712 113.873 179.381L110.642 177.663C110.642 177.663 113.03 164.609 114.997 160.83Z" fill="#442823"/>
<path d="M142.813 160.83C142.813 160.83 146.326 173.712 143.938 179.381L147.168 177.663C147.168 177.663 144.64 164.609 142.813 160.83Z" fill="#442823"/>
<path d="M106.006 95.0413C104.741 100.366 100.246 118.402 108.956 112.39C108.956 112.39 105.303 114.967 103.056 124.758C100.808 134.549 94.9072 135.751 94.9072 135.751C94.9072 135.751 85.4944 137.984 78.47 130.598C72.5694 124.414 71.586 113.42 74.1148 105.004C76.6436 96.5872 81.1393 94.1824 87.7422 92.4647C94.3452 90.5752 107.411 89.0293 106.006 95.0413Z" fill="#CCAC8D"/>
<path d="M131.972 122.961C132.573 122.772 132.825 121.501 132.534 120.124C132.244 118.746 131.52 117.783 130.92 117.972C130.318 118.162 130.066 119.432 130.357 120.81C130.648 122.188 131.371 123.151 131.972 122.961Z" fill="#331712"/>
<path d="M124.751 122.936C125.343 123.161 126.104 122.241 126.449 120.882C126.793 119.523 126.593 118.239 126 118.014C125.407 117.789 124.647 118.709 124.302 120.068C123.957 121.427 124.158 122.711 124.751 122.936Z" fill="#331712"/>
<path d="M93.221 111.875C95.0055 111.875 96.4522 110.106 96.4522 107.924C96.4522 105.741 95.0055 103.973 93.221 103.973C91.4364 103.973 89.9897 105.741 89.9897 107.924C89.9897 110.106 91.4364 111.875 93.221 111.875Z" fill="white"/>
<path d="M132.558 114.794C132.558 114.623 129.327 116.513 128.484 116.684C127.641 116.513 124.41 114.623 124.41 114.794C124.41 114.794 127.079 114.794 128.484 114.794C129.889 114.794 132.558 114.794 132.558 114.794Z" fill="#7F4A41"/>
<path d="M107.972 113.936C107.972 113.936 96.8739 123.212 90.8329 132.316C84.7919 141.42 84.9324 143.138 84.9324 143.138L89.2876 145.542C89.2876 145.542 95.4691 131.285 103.055 125.96C110.642 120.635 111.625 116.169 111.625 116.169L107.972 113.936Z" fill="#EFCCA3"/>
<path d="M83.6678 86.4524C83.6678 86.4524 79.8746 99.1635 71.4453 104.489C71.4453 104.489 84.6512 102.599 83.6678 86.4524Z" fill="#CCAC8D"/>
<path d="M172.316 86.4524C172.316 86.4524 176.109 99.1635 184.539 104.489C184.539 104.489 171.333 102.599 172.316 86.4524Z" fill="#CCAC8D"/>
<path d="M148.293 110.157C148.293 110.157 140.004 99.5071 128.905 99.1636C128.765 99.1636 129.186 99.1636 129.046 99.1636C128.905 99.1636 129.186 99.1636 129.186 99.1636C117.947 99.5071 109.799 110.157 109.799 110.157C119.492 101.912 127.781 102.084 129.186 102.084C129.046 102.084 138.599 101.912 148.293 110.157Z" fill="#CCAC8D"/>
<path d="M138.599 87.8268C138.599 87.8268 134.385 80.6125 128.765 80.4407H128.905H129.046C124.831 80.6125 119.352 87.8268 119.352 87.8268C124.129 82.1584 129.046 82.3301 129.046 82.3301C129.046 82.3301 133.682 82.1584 138.599 87.8268Z" fill="#CCAC8D"/>
<path d="M89.9898 140.56C89.9898 140.56 83.3868 144.511 78.6102 142.106H78.4697C74.255 139.186 72.1477 130.426 72.1477 130.426C72.1477 130.426 76.3624 145.885 89.9898 140.56Z" fill="#CCAC8D"/>
<path d="M166.978 140.56C166.978 140.56 173.58 144.511 178.358 142.106C183.977 139.186 184.82 130.426 184.82 130.426C184.82 130.426 180.605 145.885 166.978 140.56Z" fill="#CCAC8D"/>
<path d="M97.5764 85.5939C101.229 84.735 107.27 84.5632 112.047 86.4527C118.088 89.0293 113.171 98.4767 114.435 98.992C115.699 99.5072 117.385 92.4646 128.624 93.1517C140.004 93.8389 141.269 100.023 142.814 98.992C144.359 97.9613 141.269 81.8149 158.268 85.5939C158.268 85.5939 140.425 79.7537 141.269 95.5565C141.269 95.5565 131.012 85.9374 116.683 94.5259C116.823 94.5259 120.476 79.7537 97.5764 85.5939Z" fill="#CCAC8D"/>
<path d="M159.813 85.5938C160.094 85.5938 160.234 85.7656 160.375 85.7656C160.515 85.7656 160.234 85.5938 159.813 85.5938Z" fill="#CCAC8D"/>
<path d="M92.6591 64.4661C92.6591 64.4661 77.4863 87.8268 75.2385 96.7589C72.9906 105.863 71.3048 143.137 69.3379 148.462L62.3135 111.703L75.2385 73.3981L92.6591 64.4661Z" fill="#CCAC8D"/>
<path d="M164.027 64.4661C164.027 64.4661 179.2 87.8268 181.448 96.7589C183.696 105.863 185.382 143.137 187.348 148.462L194.373 111.703L181.448 73.3981L164.027 64.4661Z" fill="#CCAC8D"/>
<path d="M163.325 64.4659C163.325 64.4659 179.622 81.1276 184.398 100.366C189.175 119.604 187.208 142.965 190.861 145.885C196.059 150.008 201.959 125.444 203.926 122.868C207.017 118.746 217.273 108.268 217.975 106.378C218.678 104.489 197.183 75.8027 187.77 70.1342C176.391 63.607 162.342 63.0917 163.325 64.4659Z" fill="#56332B"/>
<path d="M177.233 74.7722C177.233 74.7722 196.48 104.832 196.199 142.278L203.926 123.04C203.786 123.04 197.042 98.4765 177.233 74.7722Z" fill="#442823"/>
<path d="M92.6591 64.4659C92.6591 64.4659 76.3624 81.1276 71.5858 100.366C66.8092 119.604 68.7761 142.965 65.1234 145.885C59.9253 150.008 54.0247 125.444 52.0579 122.868C48.9671 118.746 38.7114 108.268 38.009 106.378C37.3066 104.489 58.8013 75.8027 68.2141 70.1342C79.5937 63.607 93.6426 63.0917 92.6591 64.4659Z" fill="#56332B"/>
<path d="M78.7509 74.7722C78.7509 74.7722 59.504 104.832 59.7849 142.278L52.1985 123.04C52.1985 123.04 58.942 98.4765 78.7509 74.7722Z" fill="#442823"/>
<path d="M68.3545 142.966C68.3545 142.966 69.7593 152.241 72.0072 155.161C74.255 158.081 72.7097 152.928 72.7097 152.928C72.7097 152.928 70.3213 151.382 70.7428 139.529C71.1643 127.677 68.3545 142.966 68.3545 142.966Z" fill="#CCAC8D"/>
<path d="M188.192 142.966C188.192 142.966 186.787 152.241 184.539 155.161C182.291 158.081 183.837 152.928 183.837 152.928C183.837 152.928 186.225 151.382 185.804 139.529C185.382 127.677 188.192 142.966 188.192 142.966Z" fill="#CCAC8D"/>
<path d="M114.294 137.297C114.915 137.297 115.418 136.682 115.418 135.922C115.418 135.164 114.915 134.549 114.294 134.549C113.673 134.549 113.17 135.164 113.17 135.922C113.17 136.682 113.673 137.297 114.294 137.297Z" fill="#442823"/>
<path d="M107.832 145.542C108.452 145.542 108.956 144.927 108.956 144.168C108.956 143.409 108.452 142.794 107.832 142.794C107.211 142.794 106.708 143.409 106.708 144.168C106.708 144.927 107.211 145.542 107.832 145.542Z" fill="#442823"/>
<path d="M105.725 137.297C106.345 137.297 106.849 136.682 106.849 135.922C106.849 135.164 106.345 134.549 105.725 134.549C105.104 134.549 104.601 135.164 104.601 135.922C104.601 136.682 105.104 137.297 105.725 137.297Z" fill="#442823"/>
<path d="M141.69 137.297C142.311 137.297 142.814 136.682 142.814 135.922C142.814 135.164 142.311 134.549 141.69 134.549C141.069 134.549 140.566 135.164 140.566 135.922C140.566 136.682 141.069 137.297 141.69 137.297Z" fill="#442823"/>
<path d="M148.152 145.542C148.773 145.542 149.277 144.927 149.277 144.168C149.277 143.409 148.773 142.794 148.152 142.794C147.532 142.794 147.028 143.409 147.028 144.168C147.028 144.927 147.532 145.542 148.152 145.542Z" fill="#442823"/>
<path d="M150.26 137.297C150.881 137.297 151.384 136.682 151.384 135.922C151.384 135.164 150.881 134.549 150.26 134.549C149.639 134.549 149.136 135.164 149.136 135.922C149.136 136.682 149.639 137.297 150.26 137.297Z" fill="#442823"/>
<path d="M90.726 125.373C97.6334 125.373 103.233 118.656 103.233 110.368C103.233 102.082 97.6334 95.3638 90.726 95.3638C83.8186 95.3638 78.219 102.082 78.219 110.368C78.219 118.656 83.8186 125.373 90.726 125.373Z" fill="black" stroke="#242938" stroke-opacity="0.8" stroke-width="0.32"/>
<path d="M96.0842 109.82C97.9096 109.82 99.3893 108.106 99.3893 105.992C99.3893 103.878 97.9096 102.164 96.0842 102.164C94.2588 102.164 92.7791 103.878 92.7791 105.992C92.7791 108.106 94.2588 109.82 96.0842 109.82Z" fill="white"/>
<path d="M166.376 125.638C173.283 125.638 178.883 118.92 178.883 110.633C178.883 102.346 173.283 95.6287 166.376 95.6287C159.469 95.6287 153.869 102.346 153.869 110.633C153.869 118.92 159.469 125.638 166.376 125.638Z" fill="black" stroke="#242938" stroke-opacity="0.8" stroke-width="0.32"/>
<path d="M159.373 107.394C160.568 107.394 161.537 106.265 161.537 104.873C161.537 103.481 160.568 102.352 159.373 102.352C158.178 102.352 157.209 103.481 157.209 104.873C157.209 106.265 158.178 107.394 159.373 107.394Z" fill="white"/>
<path d="M159.803 109.513C161.629 109.513 163.108 107.798 163.108 105.684C163.108 103.571 161.629 101.857 159.803 101.857C157.978 101.857 156.498 103.571 156.498 105.684C156.498 107.798 157.978 109.513 159.803 109.513Z" fill="white"/>
</svg>
