<svg width="257" height="256" viewBox="0 0 257 256" fill="none" xmlns="http://www.w3.org/2000/svg">
<path d="M0.00195312 56C0.00195312 25.0721 25.074 0 56.002 0H200.002C230.93 0 256.002 25.0721 256.002 56V200C256.002 230.928 230.93 256 200.002 256H56.002C25.074 256 0.00195312 230.928 0.00195312 200V56Z" fill="#0F172A"/>
<path d="M195.357 99.9506C195.044 91.553 195.981 84.1096 192.859 77.8113C185.367 62.1611 166.635 53 129.171 53V54.336H128.39H129.171V53C91.707 53 72.0387 62.1611 64.5459 78.0022C61.58 84.4913 61.8922 91.7438 61.4239 100.142C61.1117 106.821 58.6141 113.883 59.7068 121.517C60.9556 131.442 61.4239 141.366 62.6727 150.528C63.6093 157.971 72.0386 164.269 72.8191 171.331C75.0045 190.798 91.5509 199.768 129.014 199.768V201.295H128.078H128.234H129.171V199.768C166.635 199.768 182.556 190.798 184.585 171.331C185.367 164.078 193.171 157.971 194.108 150.528C195.357 141.366 195.825 131.442 197.074 121.517C198.167 113.883 195.669 106.631 195.357 99.9506Z" fill="#EFCCA3"/>
<path d="M128.546 106.822C135.259 107.012 139.941 112.166 144.312 116.937C149.464 122.472 158.205 126.289 161.796 131.06C165.385 135.832 170.069 140.603 171.785 148.046C173.503 155.49 173.971 165.033 173.971 167.514C173.971 169.995 175.064 169.422 178.185 167.514C185.522 163.124 193.639 151.291 193.639 151.291C192.703 158.734 184.742 165.414 183.962 172.476C182.088 191.943 166.634 201.295 128.39 201.295H128.234H129.171" fill="#CCAC8D"/>
<path d="M153.21 91.9348C154.615 97.8513 159.61 117.891 149.932 111.211C149.932 111.211 153.99 114.074 156.488 124.953C159.142 135.832 165.542 137.168 165.542 137.168C165.542 137.168 176.001 139.649 183.805 131.442C190.362 124.571 191.454 112.356 188.644 103.004C185.835 93.8433 180.84 90.9805 173.503 89.0719C166.167 86.9725 151.493 85.2548 153.21 91.9348Z" fill="#CCAC8D"/>
<path d="M168.196 110.639C170.179 110.639 171.785 108.673 171.785 106.249C171.785 103.824 170.179 101.859 168.196 101.859C166.213 101.859 164.605 103.824 164.605 106.249C164.605 108.673 166.213 110.639 168.196 110.639Z" fill="white"/>
<path d="M150.869 112.929C150.869 112.929 163.2 123.235 169.912 133.351C176.625 143.466 176.469 145.375 176.469 145.375L171.63 148.047C171.63 148.047 164.762 132.205 156.332 126.289C147.746 120.372 146.81 115.41 146.81 115.41L150.869 112.929Z" fill="#EFCCA3"/>
<path d="M129.014 106.822C122.302 107.012 117.307 112.166 112.78 116.937C107.629 122.472 98.5752 126.289 94.985 131.06C91.3947 135.832 86.5556 140.603 84.8385 148.046C83.1215 155.49 82.4971 165.033 82.4971 167.514C82.4971 169.995 82.8092 170.186 78.2824 167.514C70.9457 163.315 62.8286 151.291 62.8286 151.291C63.7652 158.734 71.7262 165.414 72.5068 172.476C74.6921 191.943 90.1459 201.295 128.39 201.295H128.546H129.171" fill="#CCAC8D"/>
<path d="M165.23 139.076C157.737 127.816 145.717 117.319 129.014 117.319H128.859C112.156 117.319 100.136 127.816 92.6436 139.076C84.8387 150.718 85.463 155.299 85.463 166.369C85.463 206.448 97.0144 194.997 104.663 199.959C112.468 204.731 120.585 203.204 128.859 203.204H129.014C137.444 203.204 145.405 204.54 153.21 199.769C160.859 194.997 172.41 206.83 172.41 166.75C172.566 155.681 173.035 150.718 165.23 139.076Z" fill="#56332B"/>
<path d="M128.234 127.243C128.234 127.243 127.141 145.756 124.956 149.383L129.014 148.237L128.234 127.243Z" fill="#442823"/>
<path d="M129.327 127.243C129.327 127.243 130.419 145.756 132.605 149.383L128.546 148.237L129.327 127.243Z" fill="#442823"/>
<path d="M116.214 122.853C114.653 118.464 120.273 111.402 129.171 111.211C138.069 111.211 143.688 118.273 142.127 122.853C140.566 127.434 134.946 128.77 129.171 128.961C123.551 128.77 117.775 127.434 116.214 122.853Z" fill="#56332B"/>
<path d="M129.482 152.818C132.137 152.818 136.819 155.108 141.034 158.734C136.975 153.199 132.137 149.382 129.482 149.382C126.673 149.382 120.741 153.581 116.527 159.689C120.898 155.49 126.517 152.818 129.482 152.818Z" fill="#7F4A41"/>
<path d="M128.39 186.599C122.459 186.599 116.682 184.309 111.375 182.591C110.282 182.21 109.19 183.164 108.098 182.782C98.2631 178.965 90.3021 172.476 85.463 164.269C85.463 164.842 85.463 165.605 85.463 166.178C85.463 206.258 97.0143 194.997 104.663 199.769C112.468 204.54 120.585 203.013 128.859 203.013H129.014C137.444 203.013 145.405 204.349 153.21 199.578C160.859 194.806 172.41 206.449 172.41 166.369C172.41 164.842 172.41 163.315 172.566 161.979C168.039 170.949 159.766 178.011 149.464 182.21C148.527 182.591 146.341 181.637 145.405 181.828C139.785 184.118 134.79 186.599 128.39 186.599Z" fill="#442823"/>
<path d="M113.561 165.033C113.561 165.033 109.658 179.347 112.312 185.645L108.721 183.737C108.721 183.737 111.375 169.232 113.561 165.033Z" fill="#442823"/>
<path d="M144.468 165.033C144.468 165.033 148.371 179.347 145.717 185.645L149.307 183.737C149.307 183.737 146.498 169.232 144.468 165.033Z" fill="#442823"/>
<path d="M103.571 91.9348C102.166 97.8513 97.1706 117.891 106.848 111.211C106.848 111.211 102.79 114.074 100.293 124.953C97.7949 135.832 91.2388 137.168 91.2388 137.168C91.2388 137.168 80.7802 139.649 72.9752 131.442C66.4191 124.571 65.3264 112.356 68.1362 103.004C70.946 93.6525 75.9411 90.9805 83.2777 89.0719C90.6144 86.9725 105.132 85.2548 103.571 91.9348Z" fill="#CCAC8D"/>
<path d="M132.421 122.957C133.09 122.747 133.369 121.335 133.046 119.804C132.724 118.273 131.92 117.203 131.253 117.413C130.584 117.624 130.305 119.036 130.628 120.567C130.951 122.098 131.754 123.168 132.421 122.957Z" fill="#331712"/>
<path d="M124.399 122.929C125.057 123.179 125.902 122.157 126.285 120.647C126.668 119.137 126.445 117.71 125.786 117.46C125.127 117.21 124.283 118.232 123.9 119.742C123.516 121.252 123.74 122.679 124.399 122.929Z" fill="#331712"/>
<path d="M89.3654 110.639C91.3483 110.639 92.9557 108.673 92.9557 106.249C92.9557 103.824 91.3483 101.859 89.3654 101.859C87.3826 101.859 85.7751 103.824 85.7751 106.249C85.7751 108.673 87.3826 110.639 89.3654 110.639Z" fill="white"/>
<path d="M133.073 113.883C133.073 113.692 129.483 115.792 128.546 115.983C127.61 115.792 124.019 113.692 124.019 113.883C124.019 113.883 126.985 113.883 128.546 113.883C130.107 113.883 133.073 113.883 133.073 113.883Z" fill="#7F4A41"/>
<path d="M105.755 112.929C105.755 112.929 93.4241 123.235 86.7118 133.351C79.9996 143.466 80.1557 145.375 80.1557 145.375L84.9948 148.047C84.9948 148.047 91.8631 132.205 100.292 126.289C108.721 120.372 109.814 115.41 109.814 115.41L105.755 112.929Z" fill="#EFCCA3"/>
<path d="M78.7507 82.3916C78.7507 82.3916 74.5361 96.515 65.1702 102.432C65.1702 102.432 79.8434 100.332 78.7507 82.3916Z" fill="#CCAC8D"/>
<path d="M177.249 82.3916C177.249 82.3916 181.464 96.515 190.83 102.432C190.83 102.432 176.156 100.332 177.249 82.3916Z" fill="#CCAC8D"/>
<path d="M150.557 108.73C150.557 108.73 141.346 96.8968 129.014 96.5151C128.859 96.5151 129.327 96.5151 129.171 96.5151C129.014 96.5151 129.327 96.5151 129.327 96.5151C116.839 96.8968 107.785 108.73 107.785 108.73C118.556 99.5688 127.766 99.7597 129.327 99.7597C129.171 99.7597 139.785 99.5688 150.557 108.73Z" fill="#CCAC8D"/>
<path d="M139.785 83.9187C139.785 83.9187 135.103 75.9028 128.859 75.7119H129.014H129.171C124.488 75.9028 118.4 83.9187 118.4 83.9187C123.707 77.6205 129.171 77.8113 129.171 77.8113C129.171 77.8113 134.322 77.6205 139.785 83.9187Z" fill="#CCAC8D"/>
<path d="M85.7751 142.511C85.7751 142.511 78.4385 146.901 73.1311 144.229H72.975C68.292 140.985 65.9506 131.251 65.9506 131.251C65.9506 131.251 70.6335 148.428 85.7751 142.511Z" fill="#CCAC8D"/>
<path d="M171.317 142.511C171.317 142.511 178.654 146.901 183.962 144.229C190.205 140.985 191.142 131.251 191.142 131.251C191.142 131.251 186.459 148.428 171.317 142.511Z" fill="#CCAC8D"/>
<path d="M94.2045 81.4376C98.263 80.4833 104.975 80.2924 110.282 82.3919C116.995 85.2547 111.532 95.7518 112.936 96.3244C114.341 96.8969 116.214 89.0718 128.702 89.8352C141.346 90.5987 142.751 97.4695 144.468 96.3244C146.185 95.1792 142.751 77.2387 161.639 81.4376C161.639 81.4376 141.814 74.9485 142.751 92.5072C142.751 92.5072 131.356 81.8193 115.434 91.3621C115.59 91.3621 119.648 74.9485 94.2045 81.4376Z" fill="#CCAC8D"/>
<path d="M163.356 81.4375C163.669 81.4375 163.825 81.6284 163.981 81.6284C164.137 81.6284 163.825 81.4375 163.356 81.4375Z" fill="#CCAC8D"/>
<path d="M88.741 57.9624C88.741 57.9624 71.8823 83.9188 69.3848 93.8433C66.8872 103.959 65.014 145.374 62.8286 151.291L55.0237 110.448L69.3848 67.8869L88.741 57.9624Z" fill="#CCAC8D"/>
<path d="M168.039 57.9624C168.039 57.9624 184.898 83.9188 187.396 93.8433C189.894 103.959 191.767 145.374 193.951 151.291L201.757 110.448L187.396 67.8869L168.039 57.9624Z" fill="#CCAC8D"/>
<path d="M167.259 57.9622C167.259 57.9622 185.366 76.4752 190.673 97.8511C195.981 119.227 193.796 145.183 197.855 148.428C203.63 153.009 210.186 125.716 212.371 122.853C215.805 118.273 227.201 106.631 227.981 104.531C228.762 102.432 204.878 70.5587 194.42 64.2604C181.776 57.0079 166.166 56.4353 167.259 57.9622Z" fill="#56332B"/>
<path d="M182.712 69.4136C182.712 69.4136 204.098 102.813 203.786 144.42L212.371 123.044C212.215 123.044 204.723 95.7517 182.712 69.4136Z" fill="#442823"/>
<path d="M88.741 57.9622C88.741 57.9622 70.6336 76.4752 65.3263 97.8511C60.0189 119.227 62.2043 145.183 58.1458 148.428C52.3701 153.009 45.8139 125.716 43.6286 122.853C40.1943 118.273 28.7992 106.631 28.0187 104.531C27.2382 102.432 51.1213 70.5587 61.5799 64.2604C74.2239 57.0079 89.8338 56.4353 88.741 57.9622Z" fill="#56332B"/>
<path d="M73.2873 69.4136C73.2873 69.4136 51.9019 102.813 52.214 144.42L43.7847 123.044C43.7847 123.044 51.2774 95.7517 73.2873 69.4136Z" fill="#442823"/>
<path d="M61.736 145.184C61.736 145.184 63.2969 155.49 65.7945 158.734C68.2921 161.979 66.575 156.253 66.575 156.253C66.575 156.253 63.9213 154.536 64.3897 141.366C64.8579 128.197 61.736 145.184 61.736 145.184Z" fill="#CCAC8D"/>
<path d="M194.888 145.184C194.888 145.184 193.328 155.49 190.83 158.734C188.332 161.979 190.049 156.253 190.049 156.253C190.049 156.253 192.703 154.536 192.235 141.366C191.766 128.197 194.888 145.184 194.888 145.184Z" fill="#CCAC8D"/>
<path d="M112.78 138.885C113.47 138.885 114.029 138.202 114.029 137.358C114.029 136.515 113.47 135.832 112.78 135.832C112.09 135.832 111.532 136.515 111.532 137.358C111.532 138.202 112.09 138.885 112.78 138.885Z" fill="#442823"/>
<path d="M105.6 148.046C106.289 148.046 106.848 147.363 106.848 146.52C106.848 145.676 106.289 144.993 105.6 144.993C104.91 144.993 104.35 145.676 104.35 146.52C104.35 147.363 104.91 148.046 105.6 148.046Z" fill="#442823"/>
<path d="M103.258 138.885C103.948 138.885 104.507 138.202 104.507 137.358C104.507 136.515 103.948 135.832 103.258 135.832C102.569 135.832 102.009 136.515 102.009 137.358C102.009 138.202 102.569 138.885 103.258 138.885Z" fill="#442823"/>
<path d="M143.219 138.885C143.909 138.885 144.469 138.202 144.469 137.358C144.469 136.515 143.909 135.832 143.219 135.832C142.53 135.832 141.971 136.515 141.971 137.358C141.971 138.202 142.53 138.885 143.219 138.885Z" fill="#442823"/>
<path d="M150.4 148.046C151.09 148.046 151.649 147.363 151.649 146.52C151.649 145.676 151.09 144.993 150.4 144.993C149.711 144.993 149.151 145.676 149.151 146.52C149.151 147.363 149.711 148.046 150.4 148.046Z" fill="#442823"/>
<path d="M152.742 138.885C153.432 138.885 153.991 138.202 153.991 137.358C153.991 136.515 153.432 135.832 152.742 135.832C152.052 135.832 151.494 136.515 151.494 137.358C151.494 138.202 152.052 138.885 152.742 138.885Z" fill="#442823"/>
<path d="M86.5933 125.637C94.2682 125.637 100.49 118.173 100.49 108.965C100.49 99.7572 94.2682 92.293 86.5933 92.293C78.9184 92.293 72.6967 99.7572 72.6967 108.965C72.6967 118.173 78.9184 125.637 86.5933 125.637Z" fill="black" stroke="#242938" stroke-opacity="0.8" stroke-width="0.32"/>
<path d="M92.5468 108.355C94.5749 108.355 96.2191 106.451 96.2191 104.102C96.2191 101.753 94.5749 99.8491 92.5468 99.8491C90.5186 99.8491 88.8744 101.753 88.8744 104.102C88.8744 106.451 90.5186 108.355 92.5468 108.355Z" fill="white"/>
<path d="M170.649 125.931C178.324 125.931 184.545 118.467 184.545 109.259C184.545 100.051 178.324 92.5874 170.649 92.5874C162.974 92.5874 156.752 100.051 156.752 109.259C156.752 118.467 162.974 125.931 170.649 125.931Z" fill="black" stroke="#242938" stroke-opacity="0.8" stroke-width="0.32"/>
<path d="M162.867 105.66C164.195 105.66 165.271 104.406 165.271 102.859C165.271 101.312 164.195 100.058 162.867 100.058C161.539 100.058 160.463 101.312 160.463 102.859C160.463 104.406 161.539 105.66 162.867 105.66Z" fill="white"/>
<path d="M163.346 108.014C165.374 108.014 167.018 106.109 167.018 103.76C167.018 101.412 165.374 99.5073 163.346 99.5073C161.318 99.5073 159.673 101.412 159.673 103.76C159.673 106.109 161.318 108.014 163.346 108.014Z" fill="white"/>
</svg>
