<svg width="256" height="256" viewBox="0 0 256 256" fill="none" xmlns="http://www.w3.org/2000/svg">
<path d="M130.293 38.0003C122.927 38.024 117.821 38.673 111.649 39.7387C93.4219 42.9123 90.1014 49.5769 90.1014 61.8592V80.6309H132.732V90.1044H88.4814H67.8767C55.3907 90.1044 44.463 95.9874 41.0005 110.089C37.0879 126.274 36.9127 136.411 41.0005 153.311C44.103 165.916 50.9381 175.365 63.4289 175.365H80.6327V151.189C80.6327 137.14 93.3555 123.261 107.935 123.261H142.21C154.161 123.261 165.894 114.442 165.894 102.529V61.8592C165.894 50.3064 157.562 41.6666 145.914 39.7293C146.203 39.7008 137.597 37.9719 130.293 38.0003ZM106.685 56.9473C110.574 56.9473 113.79 60.154 113.79 64.0618C113.79 68.0075 110.574 71.1574 106.685 71.1574C102.72 71.1574 99.5796 68.0123 99.5796 64.0618C99.5796 60.1682 102.72 56.9473 106.685 56.9473Z" fill="url(#paint0_linear_36_1041)"/>
<path d="M125.703 217.996C133.068 217.972 138.174 217.323 144.346 216.258C162.573 213.084 165.894 206.419 165.894 194.137V175.365H123.263V165.892H167.519H188.123C200.609 165.892 211.537 160.009 214.999 145.908C218.912 129.722 219.087 119.586 214.999 102.685C211.892 90.0806 205.057 80.6309 192.566 80.6309H175.363V104.807C175.363 118.856 162.64 132.735 148.06 132.735H113.785C101.834 132.735 90.1014 141.555 90.1014 153.468V194.137C90.1014 205.69 98.4333 214.33 110.081 216.267C109.792 216.295 118.399 218.024 125.703 217.996ZM149.315 199.049C145.426 199.049 142.21 195.842 142.21 191.935C142.21 187.989 145.426 184.839 149.315 184.839C153.28 184.839 156.42 187.984 156.42 191.935C156.42 195.828 153.275 199.049 149.315 199.049Z" fill="url(#paint1_linear_36_1041)"/>
<defs>
<linearGradient id="paint0_linear_36_1041" x1="65.9251" y1="75.7615" x2="141.031" y2="138.784" gradientUnits="userSpaceOnUse">
<stop stop-color="#26ABE7"/>
<stop offset="1" stop-color="#086DBF"/>
</linearGradient>
<linearGradient id="paint1_linear_36_1041" x1="183.756" y1="193.891" x2="127.782" y2="113.949" gradientUnits="userSpaceOnUse">
<stop stop-color="#FEB705"/>
<stop offset="1" stop-color="#FFDA1C"/>
</linearGradient>
</defs>
</svg>
