<svg width="256" height="256" viewBox="0 0 256 256" fill="none" xmlns="http://www.w3.org/2000/svg">
<path d="M127.343 38C81.6481 38 84.5017 57.8162 84.5017 57.8162L84.5526 78.3456H128.159V84.5095H67.2326C67.2326 84.5095 37.9922 81.1934 37.9922 127.3C37.9922 173.407 63.5138 171.772 63.5138 171.772H78.7453V150.377C78.7453 150.377 77.9243 124.855 103.86 124.855H147.108C147.108 124.855 171.407 125.248 171.407 101.371V61.8915C171.407 61.8915 175.096 38 127.343 38ZM103.299 51.8051C107.638 51.8051 111.144 55.3116 111.144 59.65C111.144 63.9885 107.638 67.4951 103.299 67.4951C98.9605 67.4951 95.454 63.9885 95.454 59.65C95.454 55.3116 98.9605 51.8051 103.299 51.8051Z" fill="url(#paint0_linear_36_1041)"/>
<path d="M128.641 217.062C174.336 217.062 171.483 197.247 171.483 197.247L171.432 176.717H127.826V170.553H188.752C188.752 170.553 217.992 173.869 217.992 127.762C217.992 81.6555 192.471 83.2906 192.471 83.2906H177.239V104.686C177.239 104.686 178.06 130.208 152.125 130.208H108.876C108.876 130.208 84.5768 129.814 84.5768 153.691V193.171C84.5768 193.171 80.8875 217.062 128.641 217.062ZM152.685 203.257C148.347 203.257 144.84 199.751 144.84 195.413C144.84 191.074 148.347 187.567 152.685 187.567C157.023 187.567 160.531 191.074 160.531 195.413C160.531 199.751 157.023 203.257 152.685 203.257Z" fill="url(#paint1_linear_36_1041)"/>
<defs>
<linearGradient id="paint0_linear_36_1041" x1="55.2902" y1="54.1064" x2="144.492" y2="142.418" gradientUnits="userSpaceOnUse">
<stop stop-color="#387EB8"/>
<stop offset="1" stop-color="#366994"/>
</linearGradient>
<linearGradient id="paint1_linear_36_1041" x1="110.043" y1="110.814" x2="205.835" y2="201.37" gradientUnits="userSpaceOnUse">
<stop stop-color="#FFE052"/>
<stop offset="1" stop-color="#FFC331"/>
</linearGradient>
</defs>
</svg>
