<svg width="256" height="256" viewBox="0 0 256 256" fill="none" xmlns="http://www.w3.org/2000/svg">
<path d="M180.967 90.4152L167.559 103.824C189.5 125.765 189.5 161.115 167.559 182.65C145.617 204.591 110.267 204.591 88.7326 182.65C66.7913 160.709 66.7913 125.359 88.7326 103.824L123.473 69.0835L128.349 64.2077V38L75.9335 90.4152C46.6784 119.67 46.6784 166.804 75.9335 196.059C105.188 225.314 152.322 225.314 180.967 196.059C210.222 166.6 210.222 119.67 180.967 90.4152Z" fill="#EE4C2C"/>
<path d="M154.76 87.1646C160.145 87.1646 164.511 82.7986 164.511 77.4129C164.511 72.0272 160.145 67.6611 154.76 67.6611C149.374 67.6611 145.008 72.0272 145.008 77.4129C145.008 82.7986 149.374 87.1646 154.76 87.1646Z" fill="#EE4C2C"/>
</svg>
