<svg width="257" height="256" viewBox="0 0 257 256" fill="none" xmlns="http://www.w3.org/2000/svg">
<path d="M0.00195312 56C0.00195312 25.0721 25.074 0 56.002 0H200.002C230.93 0 256.002 25.0721 256.002 56V200C256.002 230.928 230.93 256 200.002 256H56.002C25.074 256 0.00195312 230.928 0.00195312 200V56Z" fill="#F8FAFC"/>
<path d="M186.083 86.2391L171.185 101.138C195.564 125.517 195.564 164.794 171.185 188.722C146.805 213.101 107.528 213.101 83.6004 188.722C59.2212 164.343 59.2212 125.065 83.6004 101.138L122.201 62.5372L127.619 57.1196V28L69.3792 86.2391C36.8736 118.744 36.8736 171.115 69.3792 203.621C101.884 236.126 154.255 236.126 186.083 203.621C218.589 170.889 218.589 118.744 186.083 86.2391Z" fill="#EE4C2C"/>
<path d="M156.964 82.6273C162.948 82.6273 167.799 77.7762 167.799 71.7921C167.799 65.808 162.948 60.9568 156.964 60.9568C150.98 60.9568 146.129 65.808 146.129 71.7921C146.129 77.7762 150.98 82.6273 156.964 82.6273Z" fill="#EE4C2C"/>
</svg>
