<svg width="257" height="256" viewBox="0 0 257 256" fill="none" xmlns="http://www.w3.org/2000/svg">
<path d="M0.00195312 56C0.00195312 25.0721 25.074 0 56.002 0H200.002C230.93 0 256.002 25.0721 256.002 56V200C256.002 230.928 230.93 256 200.002 256H56.002C25.074 256 0.00195312 230.928 0.00195312 200V56Z" fill="#22272E"/>
<path fill-rule="evenodd" clip-rule="evenodd" d="M102.513 94.4246C94.6559 94.4246 89.2371 96.8965 86.2568 101.905C83.3442 106.914 81.854 114.85 81.854 125.844C81.854 136.772 83.2764 144.643 86.1213 149.327C88.9661 154.01 94.4526 156.417 102.513 156.417C110.573 156.417 115.992 154.076 118.838 149.457C121.615 144.838 123.036 136.967 123.036 125.974C123.036 114.915 121.615 106.914 118.701 101.905C115.789 96.8965 110.37 94.4246 102.513 94.4246Z" fill="#41CD52"/>
<path fill-rule="evenodd" clip-rule="evenodd" d="M174.013 166.158C166.855 166.158 161.947 164.617 159.288 161.535C156.63 158.454 155.266 152.61 155.266 144.007V116.27H145.587V105.227H155.266V87.8922H168.969V105.227H186.418V116.334H168.969V142.594C168.969 147.474 169.377 150.684 170.127 152.226C170.876 153.831 172.853 154.601 175.921 154.601L186.282 154.215L186.896 164.617C181.306 165.644 177.011 166.158 174.013 166.158ZM134.544 178.613L121.524 184.328L110.277 166.927C108.641 167.378 106.119 167.635 102.574 167.635C89.4179 167.635 80.2154 164.296 75.0348 157.618C69.8542 150.942 67.2639 140.348 67.2639 125.965C67.2639 111.519 69.9224 100.797 75.1711 93.7991C80.42 86.8001 89.5543 83.2688 102.574 83.2688C115.594 83.2688 124.728 86.7366 129.909 93.7348C135.158 100.669 137.748 111.391 137.748 125.902C137.748 135.468 136.657 143.172 134.544 149.016C132.362 154.922 128.886 159.416 123.978 162.498L134.544 178.613ZM208.777 59H201.825H55.7438L28 85.1314V172.514V179.641V197.746H47.2229H54.1759H200.257L228 171.615V84.2319V77.1058V59H208.777Z" fill="#41CD52"/>
</svg>
