<svg width="257" height="256" viewBox="0 0 257 256" fill="none" xmlns="http://www.w3.org/2000/svg">
<path d="M0.00195312 56C0.00195312 25.0721 25.074 0 56.002 0H200.002C230.93 0 256.002 25.0721 256.002 56V200C256.002 230.928 230.93 256 200.002 256H56.002C25.074 256 0.00195312 230.928 0.00195312 200V56Z" fill="#F8FAFC"/>
<path fill-rule="evenodd" clip-rule="evenodd" d="M128 184.946C72.7718 184.946 28 154.961 28 117.973C28 80.9848 72.7718 51 128 51C183.229 51 228 80.9848 228 117.973C228 154.961 183.229 184.946 128 184.946ZM143.307 77.1842C101.328 77.1842 67.2982 97.6831 67.2982 122.969C67.2982 148.256 101.328 168.755 143.307 168.755C185.285 168.755 216.265 154.741 216.265 122.969C216.265 91.2088 185.285 77.1842 143.307 77.1842Z" fill="url(#paint0_linear_36_1029)"/>
<path fill-rule="evenodd" clip-rule="evenodd" d="M180.295 154.732C180.295 154.732 186.348 156.558 189.864 158.337C191.084 158.955 193.195 160.187 194.717 161.804C196.209 163.389 196.936 164.994 196.936 164.994L220.789 205.211L182.237 205.228L164.209 171.373C164.209 171.373 160.517 165.03 158.245 163.191C156.35 161.657 155.542 161.111 153.668 161.111C152.365 161.111 144.509 161.111 144.509 161.111L144.516 205.204L110.402 205.218V92.5864H178.909C178.909 92.5864 210.111 93.1492 210.111 122.836C210.111 152.522 180.295 154.732 180.295 154.732ZM165.457 117.017L144.804 117.004L144.794 136.156L165.457 136.149C165.457 136.149 175.025 136.119 175.025 126.407C175.025 116.499 165.457 117.017 165.457 117.017Z" fill="url(#paint1_linear_36_1029)"/>
<defs>
<linearGradient id="paint0_linear_36_1029" x1="27.9998" y1="51.0003" x2="151.859" y2="235.94" gradientUnits="userSpaceOnUse">
<stop stop-color="#CBCED0"/>
<stop offset="1" stop-color="#84838B"/>
</linearGradient>
<linearGradient id="paint1_linear_36_1029" x1="110.402" y1="92.5863" x2="223.02" y2="202.952" gradientUnits="userSpaceOnUse">
<stop stop-color="#276DC3"/>
<stop offset="1" stop-color="#165CAA"/>
</linearGradient>
</defs>
</svg>
