<svg width="256" height="256" viewBox="0 0 256 256" fill="none" xmlns="http://www.w3.org/2000/svg">
<g clip-path="url(#clip0_196_199)">
<rect width="256" height="256" rx="56" fill="#D30001"/>
<path d="M217.883 117.805L218 117.921C218 117.921 216.651 118.873 215.223 120.064C170.143 86.7301 142.603 102.444 133.953 106.651C94.6666 128.572 106.019 182.386 106.251 183.46L106.254 183.476H43.5556C43.5556 183.476 45.9365 159.984 62.6031 132.207C79.2698 104.429 107.682 83.3968 130.777 81.3334C175.309 76.8725 215.443 115.417 217.883 117.805ZM108.635 167.604L117.206 170.699C117.603 173.807 118.166 176.75 118.755 179.436L119.111 181.016L109.587 177.603C109.19 175.222 108.794 171.809 108.635 167.604ZM41.9682 141.889L51.0953 145.222C49.9841 147.792 48.5692 151.09 47.5416 153.682L47.127 154.746L38 151.412C38.7936 149.27 40.4602 145.301 41.9682 141.889ZM112.207 138.714L117.921 143.238C117.285 145.715 116.803 148.191 116.473 150.666L116.254 152.524L109.825 147.444C110.46 144.587 111.174 141.651 112.207 138.714ZM126.254 116.572L129.825 121.968C128.428 123.429 127.133 124.889 125.98 126.43L125.142 127.603L121.334 121.889C122.762 120.064 124.429 118.239 126.254 116.572ZM69.4285 104.826L75.0634 109.746C73.6349 111.234 72.251 112.812 70.9452 114.411L69.6667 116.015L63.5556 110.777C65.381 108.794 67.365 106.809 69.4285 104.826ZM148.079 104.508L149.825 109.746C147.984 110.318 146.143 111.041 144.302 111.876L142.92 112.523L141.095 107.048C143.079 106.175 145.381 105.302 148.079 104.508ZM166.65 102.603C168.683 102.731 170.765 102.958 172.898 103.329L174.507 103.635L174.191 108.555C172.095 108.111 170 107.819 167.905 107.68L166.334 107.603L166.65 102.603ZM101.492 80.6984L105.063 86.1746C103.515 86.9484 102.013 87.8115 100.488 88.7304L98.9523 89.6667L95.3016 84.1111C97.4444 82.8412 99.5079 81.7302 101.492 80.6984ZM166.81 77.6825C171.532 79.0317 173.563 79.9562 174.377 80.3891L174.507 80.4603L174.191 85.7778C172.497 85.09 170.804 84.4374 169.088 83.8201L166.492 82.9206L166.81 77.6825ZM136.492 73L138.079 77.8413H137.285C135.559 77.8413 133.833 77.8859 132.107 78.0087L130.381 78.1587L128.873 73.4762C131.492 73.1588 134.032 73 136.492 73Z" fill="white"/>
</g>
<defs>
<clipPath id="clip0_196_199">
<rect width="256" height="256" fill="white"/>
</clipPath>
</defs>
</svg>
