<svg width="256" height="256" viewBox="0 0 256 256" fill="none" xmlns="http://www.w3.org/2000/svg">
<path d="M93.8133 38.0029C92.864 38.0312 91.8416 38.3675 90.6811 39.2446C87.8377 38.1948 85.082 37.8302 82.6177 39.9674C78.8112 39.495 77.574 40.4708 76.6375 41.612C75.8024 41.5947 70.3859 40.7879 67.9025 44.3385C61.6609 43.6313 59.6864 47.8572 61.9214 51.7953C60.6486 53.6885 59.3255 55.5543 62.3079 59.1607C61.2534 61.1681 61.9067 63.3454 64.392 65.9833C63.736 68.8039 65.0243 70.7958 67.336 72.3482C66.9029 76.2095 71.0319 78.4572 72.2654 79.2558C72.7387 81.5053 73.7255 83.6306 78.4439 84.8029C79.2178 88.1599 82.0539 88.7382 84.7987 89.4409C75.7265 94.4955 67.9482 101.141 68.0021 117.451L66.6717 119.724C56.2683 125.785 46.911 145.264 61.5449 161.099C62.5025 166.056 64.1033 169.615 65.5305 173.556C67.6667 189.433 81.5998 196.867 85.2738 197.747C90.6601 201.676 96.3955 205.404 104.156 208.017C111.473 215.248 119.4 218.003 127.37 218H127.721C135.693 218.004 143.62 215.248 150.935 208.017C158.696 205.405 164.431 201.676 169.817 197.747C173.492 196.867 187.426 189.433 189.56 173.554C190.987 169.615 192.589 166.056 193.547 161.099C208.18 145.264 198.823 125.782 188.418 119.72L187.09 117.45C187.143 101.141 179.364 94.4918 170.291 89.44C173.036 88.7364 175.872 88.1553 176.649 84.802C181.365 83.6279 182.35 81.5044 182.825 79.254C184.057 78.4527 188.188 76.2086 187.755 72.3436C190.066 70.794 191.354 68.8012 190.699 65.9787C193.184 63.3436 193.837 61.1653 192.781 59.157C195.765 55.5543 194.441 53.6857 193.168 51.7944C195.402 47.8536 193.431 43.6295 187.187 44.3367C184.703 40.7879 179.288 41.5947 178.454 41.6102C177.515 40.4699 176.277 39.4941 172.472 39.9665C170.008 37.8302 167.251 38.1948 164.408 39.2446C161.034 36.6926 158.798 38.7384 156.248 39.5123C152.161 38.2313 151.226 39.9847 149.22 40.6992C144.762 39.7965 143.407 41.761 141.27 43.8351L138.785 43.7885C132.063 47.5822 128.724 55.3131 127.542 59.2868C126.356 55.3112 123.025 47.5813 116.304 43.7885L113.819 43.8333C111.679 41.7591 110.325 39.7965 105.869 40.6992C103.861 39.9847 102.928 38.2322 98.8387 39.5123C97.163 39.0043 95.6234 37.9481 93.8106 38.002L93.8133 38.0029Z" fill="#050606"/>
<path d="M80.5649 54.7035C98.3995 63.5107 108.765 70.6394 114.447 76.7101C111.538 87.8801 96.3637 88.389 90.8139 88.0756C91.9515 87.5695 92.899 86.9618 93.2352 86.0308C91.8427 85.0833 86.9069 85.9312 83.4595 84.0745C84.7834 83.8114 85.4029 83.5555 86.0224 82.6208C82.7651 81.6249 79.2583 80.7669 77.1951 79.1177C78.3089 79.1332 79.3478 79.358 80.8024 78.3904C77.885 76.8846 74.7729 75.6922 72.3561 73.3897C73.8601 73.3549 75.4883 73.3741 75.9616 72.8442C73.2918 71.2607 71.0395 69.4973 69.1764 67.5712C71.2871 67.8142 72.177 67.605 72.6887 67.2505C70.6694 65.2714 68.1156 63.5993 66.8977 61.1597C68.4647 61.6769 69.8983 61.8751 70.9317 61.1131C70.2446 59.6311 67.3088 58.7567 65.6157 55.2946C67.2659 55.4463 69.0156 55.6391 69.3637 55.2946C68.5999 52.305 67.2869 50.6238 65.9977 48.885C69.5273 48.8338 74.8761 48.8959 74.634 48.609L72.4502 46.4746C75.8995 45.5838 79.4282 46.6181 81.9902 47.3829C83.1397 46.5139 81.9701 45.4156 80.5676 44.29C83.4979 44.6655 86.1449 45.3124 88.5369 46.2014C89.817 45.0949 87.7082 43.9893 86.6876 42.881C91.215 43.7052 93.1338 44.861 95.0389 46.0205C96.4231 44.7486 95.1184 43.6705 94.1864 42.5649C97.5991 43.7755 99.357 45.3407 101.21 46.884C101.838 46.0708 102.802 45.4759 101.637 43.5188C104.059 44.8574 105.884 46.4353 107.235 48.2015C108.734 47.286 108.128 46.0342 108.138 44.882C110.657 46.8456 112.254 48.9334 114.213 50.9755C114.604 50.7014 114.949 49.7676 115.255 48.2929C121.264 53.8784 129.756 67.9495 117.437 73.5276C106.954 65.2449 94.434 59.2217 80.5603 54.7035H80.563H80.5649ZM175.025 54.7035C157.193 63.5125 146.824 70.6376 141.144 76.7101C144.054 87.8801 159.229 88.389 164.776 88.0756C163.64 87.5695 162.693 86.9618 162.358 86.0308C163.749 85.0833 168.687 85.9312 172.133 84.0745C170.809 83.8114 170.188 83.5555 169.571 82.6208C172.826 81.6249 176.334 80.7669 178.397 79.1177C177.283 79.1332 176.242 79.358 174.789 78.3904C177.706 76.8846 180.818 75.6922 183.238 73.3897C181.728 73.3549 180.104 73.3741 179.63 72.8442C182.301 71.2607 184.554 69.4973 186.417 67.5712C184.306 67.8142 183.416 67.605 182.904 67.2505C184.923 65.2714 187.476 63.5993 188.694 61.1597C187.127 61.6769 185.695 61.8751 184.66 61.1131C185.347 59.6311 188.283 58.7567 189.976 55.2946C188.324 55.4463 186.576 55.6391 186.226 55.2946C186.994 52.305 188.305 50.6228 189.595 48.8832C186.066 48.8329 180.716 48.8941 180.958 48.609L183.144 46.4746C179.693 45.5829 176.164 46.6163 173.604 47.381C172.452 46.5121 173.626 45.4138 175.025 44.289C172.098 44.6646 169.448 45.3115 167.056 46.2005C165.776 45.0931 167.886 43.9884 168.905 42.8801C164.378 43.7043 162.461 44.8601 160.553 46.0169C159.171 44.7477 160.476 43.6686 161.407 42.564C157.993 43.7746 156.235 45.3398 154.384 46.8803C153.757 46.0689 152.79 45.4741 153.957 43.5151C151.534 44.8555 149.708 46.4317 148.357 48.1997C146.858 47.2842 147.464 46.0324 147.454 44.8811C144.938 46.8438 143.338 48.9334 141.381 50.9746C140.988 50.7005 140.643 49.7667 140.337 48.2911C134.328 53.8766 125.837 67.9476 138.155 73.5267C148.634 65.2394 161.151 59.219 175.028 54.7025H175.025" fill="#63C54D"/>
<path d="M149.364 168.453C149.426 178.877 139.911 187.373 128.114 187.428C116.315 187.483 106.701 179.078 106.638 168.653V168.453C106.575 158.029 116.089 149.533 127.887 149.479C139.687 149.424 149.301 157.829 149.364 168.253V168.452V168.453ZM116.055 114.535C124.906 120.091 126.501 132.686 119.619 142.667C112.734 152.647 99.9795 156.234 91.1266 150.677C82.2765 145.121 80.6802 132.524 87.5641 122.545C94.447 112.563 107.203 108.978 116.055 114.535ZM139.946 113.528C131.094 119.086 129.499 131.68 136.383 141.662C143.266 151.64 156.022 155.229 164.872 149.67C173.726 144.114 175.319 131.519 168.436 121.538C161.552 111.56 148.798 107.972 139.946 113.53V113.528ZM72.3619 123.677C81.9175 121.221 75.5873 161.56 67.8134 158.251C59.2584 151.659 56.5027 132.354 72.36 123.677H72.3619ZM182.804 123.175C173.246 120.721 179.576 161.06 187.354 157.75C195.907 151.157 198.661 131.851 182.804 123.175ZM150.751 93.0793C167.244 90.4104 180.966 99.7978 180.412 116.934C179.87 123.503 144.674 94.056 150.751 93.0775V93.0793ZM105.182 92.5758C88.6871 89.9069 74.9641 99.2971 75.5187 116.432C76.0614 123 111.258 93.5526 105.182 92.5758ZM127.903 88.5793C118.061 88.3344 108.614 95.581 108.59 99.7804C108.564 104.888 116.372 110.115 127.972 110.249C139.815 110.329 147.372 106.064 147.41 100.795C147.453 94.8245 136.638 88.4879 127.903 88.5793ZM128.664 193.291C137.246 192.931 148.763 195.939 148.784 199.928C148.928 203.802 138.341 212.555 128.094 212.387C117.484 212.827 107.078 204.059 107.215 201.021C107.055 196.565 120.137 193.087 128.664 193.291ZM96.9031 169.645C103.012 176.699 105.796 189.09 100.7 192.742C95.8761 195.532 84.1597 194.383 75.8313 182.921C70.2175 173.305 70.9419 163.518 74.8846 160.641C80.7807 157.2 89.8913 161.849 96.9012 169.645H96.9031ZM158.422 167.408C151.81 174.829 148.128 188.36 152.951 192.719C157.561 196.106 169.94 195.632 179.086 183.475C185.725 175.31 183.5 161.676 179.708 158.055C174.074 153.879 165.987 159.223 158.421 167.405V167.408" fill="#C51850"/>
</svg>
