<svg width="257" height="256" viewBox="0 0 257 256" fill="none" xmlns="http://www.w3.org/2000/svg">
<path d="M0.00195312 56C0.00195312 25.0721 25.074 0 56.002 0H200.002C230.93 0 256.002 25.0721 256.002 56V200C256.002 230.928 230.93 256 200.002 256H56.002C25.074 256 0.00195312 230.928 0.00195312 200V56Z" fill="#22272E"/>
<path d="M90.2457 28.0032C89.1909 28.0347 88.0549 28.4083 86.7655 29.3829C83.6061 28.2164 80.5442 27.8113 77.8061 30.186C73.5767 29.6611 72.2021 30.7454 71.1615 32.0134C70.2335 31.9941 64.2153 31.0976 61.4559 35.0428C54.5208 34.257 52.3269 38.9525 54.8102 43.3281C53.396 45.4317 51.9259 47.5047 55.2396 51.5119C54.0681 53.7423 54.7939 56.1616 57.5554 59.0926C56.8264 62.2266 58.2579 64.4398 60.8264 66.1647C60.3452 70.455 64.933 72.9525 66.3036 73.8398C66.8295 76.3393 67.9259 78.7007 73.1686 80.0032C74.0285 83.7332 77.1797 84.3758 80.2295 85.1565C70.1493 90.7728 61.5066 98.1565 61.5665 116.279L60.0884 118.804C48.529 125.539 38.132 147.183 54.3919 164.777C55.4559 170.284 57.2346 174.239 58.8203 178.617C61.1939 196.259 76.6752 204.519 80.7574 205.496C86.7422 209.862 93.1148 214.004 101.738 216.908C109.867 224.942 118.675 228.003 127.531 228H127.921C136.779 228.004 145.587 224.942 153.714 216.908C162.338 214.006 168.71 209.862 174.694 205.496C178.778 204.519 194.26 196.259 196.63 178.615C198.216 174.239 199.997 170.284 201.061 164.777C217.32 147.183 206.923 125.536 195.362 118.8L193.886 116.278C193.945 98.1565 185.302 90.7687 175.221 85.1555C178.271 84.3738 181.422 83.7281 182.285 80.0022C187.525 78.6976 188.62 76.3383 189.147 73.8377C190.517 72.9474 195.107 70.454 194.625 66.1596C197.193 64.4377 198.624 62.2235 197.896 59.0875C200.658 56.1596 201.383 53.7393 200.21 51.5078C203.525 47.5048 202.054 45.4286 200.64 43.3271C203.122 38.9484 200.932 34.255 193.994 35.0408C191.235 31.0976 185.217 31.9941 184.29 32.0113C183.248 30.7443 181.872 29.6601 177.644 30.185C174.907 27.8113 171.843 28.2164 168.684 29.3829C164.935 26.5474 162.451 28.8205 159.617 29.6804C155.076 28.257 154.038 30.2053 151.808 30.9992C146.856 29.9961 145.35 32.1789 142.976 34.4834L140.214 34.4317C132.745 38.6469 129.036 47.2367 127.722 51.652C126.404 47.2347 122.704 38.6459 115.236 34.4317L112.474 34.4814C110.096 32.1768 108.592 29.9961 103.641 30.9992C101.41 30.2053 100.373 28.258 95.8295 29.6804C93.9675 29.1159 92.2569 27.9423 90.2427 28.0022L90.2457 28.0032Z" fill="#050606"/>
<path d="M75.5251 46.5595C95.3413 56.3453 106.859 64.2661 113.172 71.0113C109.94 83.4224 93.0794 83.9879 86.9129 83.6397C88.1768 83.0773 89.2296 82.4021 89.6032 81.3676C88.056 80.3148 82.5718 81.257 78.7413 79.194C80.2124 78.9016 80.9007 78.6174 81.589 77.5788C77.9697 76.4722 74.0733 75.5189 71.7809 73.6864C73.0185 73.7037 74.1728 73.9534 75.789 72.8783C72.5474 71.2052 69.0895 69.8803 66.4043 67.3219C68.0753 67.2834 69.8845 67.3047 70.4103 66.7158C67.4438 64.9565 64.9413 62.9971 62.8713 60.857C65.2164 61.127 66.2053 60.8945 66.7738 60.5006C64.5301 58.3016 61.6926 56.4438 60.3393 53.7331C62.0804 54.3077 63.6733 54.528 64.8215 53.6813C64.0581 52.0346 60.7961 51.063 58.9149 47.2163C60.7484 47.3849 62.6926 47.5991 63.0794 47.2163C62.2307 43.8945 60.7718 42.0265 59.3393 40.0945C63.2611 40.0377 69.2043 40.1067 68.9352 39.7879L66.5088 37.4163C70.3413 36.4265 74.2621 37.5757 77.1088 38.4255C78.386 37.46 77.0865 36.2397 75.5281 34.9889C78.784 35.4062 81.7251 36.125 84.3829 37.1128C85.8053 35.8834 83.4621 34.6549 82.3281 33.4235C87.3586 34.3392 89.4906 35.6235 91.6073 36.9118C93.1454 35.4986 91.6956 34.3006 90.6601 33.0722C94.452 34.4174 96.4053 36.1564 98.4642 37.8712C99.1616 36.9676 100.233 36.3067 98.9383 34.1321C101.629 35.6194 103.658 37.3727 105.158 39.3351C106.824 38.3179 106.151 36.927 106.161 35.6468C108.96 37.8285 110.735 40.1483 112.912 42.4174C113.346 42.1128 113.73 41.0752 114.07 39.4367C120.746 45.6427 130.182 61.2773 116.494 67.4752C104.847 58.2722 90.9352 51.5798 75.52 46.5595H75.523H75.5251ZM180.481 46.5595C160.667 56.3473 149.146 64.2641 142.836 71.0113C146.069 83.4224 162.93 83.9879 169.093 83.6397C167.83 83.0773 166.779 82.4021 166.406 81.3676C167.952 80.3148 173.439 81.257 177.267 79.194C175.796 78.9016 175.107 78.6174 174.42 77.5788C178.038 76.4722 181.935 75.5189 184.227 73.6864C182.99 73.7037 181.833 73.9534 180.218 72.8783C183.46 71.2052 186.918 69.8803 189.606 67.3219C187.929 67.2834 186.124 67.3047 185.598 66.7158C188.565 64.9565 191.068 62.9971 193.139 60.857C190.793 61.127 189.804 60.8945 189.236 60.5006C191.478 58.3016 194.316 56.4438 195.669 53.7331C193.928 54.3077 192.336 54.528 191.187 53.6813C191.949 52.0346 195.212 51.063 197.093 47.2163C195.258 47.3849 193.316 47.5991 192.926 47.2163C193.78 43.8945 195.237 42.0255 196.67 40.0925C192.748 40.0367 186.804 40.1047 187.073 39.7879L189.502 37.4163C185.667 36.4255 181.746 37.5737 178.902 38.4235C177.622 37.458 178.926 36.2377 180.481 34.9879C177.228 35.4052 174.284 36.124 171.626 37.1118C170.204 35.8813 172.548 34.6539 173.681 33.4224C168.651 34.3382 166.521 35.6224 164.401 36.9077C162.865 35.4976 164.315 34.2986 165.349 33.0712C161.556 34.4163 159.603 36.1554 157.546 37.8671C156.85 36.9656 155.776 36.3047 157.072 34.128C154.38 35.6174 152.35 37.3686 150.85 39.3331C149.184 38.3158 149.858 36.925 149.847 35.6458C147.051 37.8265 145.273 40.1483 143.098 42.4163C142.662 42.1118 142.278 41.0742 141.939 39.4346C135.262 45.6407 125.827 61.2752 139.514 67.4742C151.157 58.2661 165.065 51.5768 180.484 46.5585H180.481" fill="#63C54D"/>
<path d="M151.969 172.948C152.038 184.53 141.466 193.97 128.357 194.032C115.248 194.092 104.566 184.753 104.495 173.17V172.948C104.425 161.366 114.997 151.926 128.106 151.865C141.216 151.804 151.899 161.143 151.969 172.726V172.946V172.948ZM114.959 113.039C124.793 119.212 126.566 133.207 118.919 144.296C111.269 155.386 97.0973 159.372 87.2608 153.197C77.4273 147.023 75.6537 133.026 83.3024 121.939C90.9501 110.848 105.123 106.864 114.959 113.039ZM141.505 111.92C131.669 118.095 129.896 132.088 137.545 143.18C145.194 154.267 159.367 158.255 169.2 152.078C179.038 145.905 180.808 131.91 173.16 120.82C165.511 109.733 151.34 105.746 141.505 111.922V111.92ZM66.4111 123.197C77.0284 120.468 69.9949 165.288 61.3572 161.612C51.8516 154.287 48.7897 132.838 66.409 123.197H66.4111ZM189.125 122.639C178.505 119.913 185.538 164.733 194.18 161.056C203.683 153.73 206.743 132.279 189.125 122.639ZM153.51 89.1992C171.836 86.2337 187.082 96.6642 186.467 115.705C185.864 123.003 146.757 90.2845 153.51 89.1972V89.1992ZM102.878 88.6398C84.5502 85.6744 69.3024 96.1079 69.9186 115.146C70.5217 122.445 109.629 89.7251 102.878 88.6398ZM128.123 84.1992C117.188 83.9271 106.691 91.9789 106.664 96.6449C106.636 102.32 115.312 108.128 128.2 108.276C141.358 108.366 149.755 103.626 149.798 97.7718C149.846 91.1383 137.828 84.0977 128.123 84.1992ZM128.969 200.545C138.505 200.145 151.302 203.487 151.325 207.92C151.484 212.224 139.721 221.95 128.336 221.763C116.546 222.252 104.985 212.51 105.137 209.134C104.959 204.183 119.494 200.319 128.969 200.545ZM93.679 174.272C100.467 182.11 103.56 195.878 97.8974 199.936C92.538 203.036 79.5197 201.759 70.2659 189.023C64.0284 178.339 64.8333 167.464 69.2141 164.268C75.7653 160.445 85.8882 165.61 93.677 174.272H93.679ZM162.034 171.787C154.686 180.033 150.596 195.067 155.954 199.91C161.077 203.673 174.832 203.146 184.993 189.639C192.371 180.567 189.898 165.418 185.684 161.395C179.424 156.754 170.439 162.692 162.033 171.784V171.787" fill="#C51850"/>
</svg>
