<svg width="257" height="256" viewBox="0 0 257 256" fill="none" xmlns="http://www.w3.org/2000/svg">
<path d="M0.00195312 56C0.00195312 25.0721 25.074 0 56.002 0H200.002C230.93 0 256.002 25.0721 256.002 56V200C256.002 230.928 230.93 256 200.002 256H56.002C25.074 256 0.00195312 230.928 0.00195312 200V56Z" fill="#F8FAFC"/>
<path d="M90.2457 28.0032C89.1909 28.0347 88.0549 28.4083 86.7655 29.3829C83.6061 28.2164 80.5442 27.8113 77.8061 30.186C73.5767 29.6611 72.2021 30.7454 71.1615 32.0134C70.2335 31.9941 64.2153 31.0976 61.4559 35.0428C54.5208 34.257 52.3269 38.9525 54.8102 43.3281C53.396 45.4317 51.9259 47.5047 55.2396 51.5119C54.0681 53.7423 54.7939 56.1616 57.5554 59.0926C56.8264 62.2266 58.2579 64.4398 60.8264 66.1647C60.3452 70.455 64.933 72.9525 66.3036 73.8398C66.8295 76.3393 67.9259 78.7007 73.1686 80.0032C74.0285 83.7332 77.1797 84.3758 80.2295 85.1565C70.1493 90.7728 61.5066 98.1565 61.5665 116.279L60.0884 118.804C48.529 125.539 38.132 147.183 54.3919 164.777C55.4559 170.284 57.2346 174.239 58.8203 178.617C61.1939 196.259 76.6752 204.519 80.7574 205.496C86.7422 209.862 93.1148 214.004 101.738 216.908C109.867 224.942 118.675 228.003 127.531 228H127.921C136.779 228.004 145.587 224.942 153.714 216.908C162.338 214.006 168.71 209.862 174.694 205.496C178.778 204.519 194.26 196.259 196.63 178.615C198.216 174.239 199.997 170.284 201.061 164.777C217.32 147.183 206.923 125.536 195.362 118.8L193.886 116.278C193.945 98.1565 185.302 90.7687 175.221 85.1555C178.271 84.3738 181.422 83.7281 182.285 80.0022C187.525 78.6976 188.62 76.3383 189.147 73.8377C190.517 72.9474 195.107 70.454 194.625 66.1596C197.193 64.4377 198.624 62.2235 197.896 59.0875C200.658 56.1596 201.383 53.7393 200.21 51.5078C203.525 47.5048 202.054 45.4286 200.64 43.3271C203.122 38.9484 200.932 34.255 193.994 35.0408C191.235 31.0976 185.217 31.9941 184.29 32.0113C183.248 30.7443 181.872 29.6601 177.644 30.185C174.907 27.8113 171.843 28.2164 168.684 29.3829C164.935 26.5474 162.451 28.8205 159.617 29.6804C155.076 28.257 154.038 30.2053 151.808 30.9992C146.856 29.9961 145.35 32.1789 142.976 34.4834L140.214 34.4317C132.745 38.6469 129.036 47.2367 127.722 51.652C126.404 47.2347 122.704 38.6459 115.236 34.4317L112.474 34.4814C110.096 32.1768 108.592 29.9961 103.641 30.9992C101.41 30.2053 100.373 28.258 95.8295 29.6804C93.9675 29.1159 92.2569 27.9423 90.2427 28.0022L90.2457 28.0032Z" fill="#050606"/>
<path d="M75.5251 46.5594C95.3413 56.3452 106.859 64.266 113.172 71.0111C109.94 83.4223 93.0794 83.9878 86.9129 83.6396C88.1768 83.0771 89.2296 82.402 89.6032 81.3675C88.056 80.3147 82.5718 81.2568 78.7413 79.1939C80.2124 78.9015 80.9007 78.6172 81.589 77.5787C77.9697 76.4721 74.0733 75.5188 71.7809 73.6863C73.0185 73.7035 74.1728 73.9533 75.789 72.8782C72.5474 71.2051 69.0895 69.8802 66.4043 67.3218C68.0753 67.2832 69.8845 67.3046 70.4103 66.7157C67.4438 64.9563 64.9413 62.9969 62.8713 60.8568C65.2164 61.1269 66.2053 60.8944 66.7738 60.5005C64.5301 58.3015 61.6926 56.4436 60.3393 53.733C62.0804 54.3076 63.6733 54.5279 64.8215 53.6812C64.0581 52.0345 60.7961 51.0629 58.9149 47.2162C60.7484 47.3848 62.6926 47.599 63.0794 47.2162C62.2307 43.8944 60.7718 42.0264 59.3393 40.0944C63.2611 40.0375 69.2043 40.1066 68.9352 39.7878L66.5088 37.4162C70.3413 36.4264 74.2621 37.5756 77.1088 38.4254C78.386 37.4599 77.0865 36.2396 75.5281 34.9888C78.784 35.4061 81.7251 36.1249 84.3829 37.1127C85.8053 35.8832 83.4621 34.6548 82.3281 33.4233C87.3586 34.3391 89.4906 35.6233 91.6073 36.9117C93.1454 35.4985 91.6956 34.3005 90.6601 33.0721C94.452 34.4172 96.4053 36.1563 98.4642 37.871C99.1616 36.9675 100.233 36.3066 98.9383 34.132C101.629 35.6193 103.658 37.3726 105.158 39.335C106.824 38.3177 106.151 36.9269 106.161 35.6467C108.96 37.8284 110.735 40.1482 112.912 42.4172C113.346 42.1127 113.73 41.0751 114.07 39.4365C120.746 45.6426 130.182 61.2771 116.494 67.4751C104.847 58.2721 90.9352 51.5797 75.52 46.5594H75.523H75.5251ZM180.481 46.5594C160.667 56.3472 149.146 64.2639 142.836 71.0111C146.069 83.4223 162.93 83.9878 169.093 83.6396C167.83 83.0771 166.779 82.402 166.406 81.3675C167.952 80.3147 173.439 81.2568 177.267 79.1939C175.796 78.9015 175.107 78.6172 174.42 77.5787C178.038 76.4721 181.935 75.5188 184.227 73.6863C182.99 73.7035 181.833 73.9533 180.218 72.8782C183.46 71.2051 186.918 69.8802 189.606 67.3218C187.929 67.2832 186.124 67.3046 185.598 66.7157C188.565 64.9563 191.068 62.9969 193.139 60.8568C190.793 61.1269 189.804 60.8944 189.236 60.5005C191.478 58.3015 194.316 56.4436 195.669 53.733C193.928 54.3076 192.336 54.5279 191.187 53.6812C191.949 52.0345 195.212 51.0629 197.093 47.2162C195.258 47.3848 193.316 47.599 192.926 47.2162C193.78 43.8944 195.237 42.0254 196.67 40.0924C192.748 40.0365 186.804 40.1045 187.073 39.7878L189.502 37.4162C185.667 36.4254 181.746 37.5736 178.902 38.4233C177.622 37.4579 178.926 36.2375 180.481 34.9878C177.228 35.4051 174.284 36.1238 171.626 37.1117C170.204 35.8812 172.548 34.6538 173.681 33.4223C168.651 34.3381 166.521 35.6223 164.401 36.9076C162.865 35.4974 164.315 34.2985 165.349 33.071C161.556 34.4162 159.603 36.1553 157.546 37.867C156.85 36.9655 155.776 36.3045 157.072 34.1279C154.38 35.6172 152.35 37.3685 150.85 39.333C149.184 38.3157 149.858 36.9249 149.847 35.6457C147.051 37.8264 145.273 40.1482 143.098 42.4162C142.662 42.1117 142.278 41.0741 141.939 39.4345C135.262 45.6406 125.827 61.2751 139.514 67.4741C151.157 58.266 165.065 51.5766 180.484 46.5584H180.481" fill="#63C54D"/>
<path d="M151.969 172.948C152.038 184.53 141.466 193.969 128.357 194.031C115.248 194.092 104.566 184.753 104.495 173.169V172.948C104.425 161.365 114.997 151.926 128.106 151.865C141.216 151.804 151.899 161.143 151.969 172.726V172.946V172.948ZM114.959 113.038C124.793 119.212 126.566 133.207 118.919 144.296C111.269 155.386 97.0973 159.371 87.2608 153.197C77.4273 147.023 75.6537 133.026 83.3024 121.939C90.9501 110.848 105.123 106.864 114.959 113.038ZM141.505 111.92C131.669 118.095 129.896 132.088 137.545 143.18C145.194 154.267 159.367 158.255 169.2 152.078C179.038 145.904 180.808 131.91 173.16 120.82C165.511 109.733 151.34 105.746 141.505 111.922V111.92ZM66.4111 123.197C77.0284 120.468 69.9949 165.288 61.3572 161.612C51.8516 154.287 48.7897 132.837 66.409 123.197H66.4111ZM189.125 122.639C178.505 119.913 185.538 164.733 194.18 161.056C203.683 153.73 206.743 132.279 189.125 122.639ZM153.51 89.1991C171.836 86.2336 187.082 96.6641 186.467 115.704C185.864 123.003 146.757 90.2844 153.51 89.1971V89.1991ZM102.878 88.6397C84.5502 85.6742 69.3024 96.1077 69.9186 115.146C70.5217 122.445 109.629 89.725 102.878 88.6397ZM128.123 84.1991C117.188 83.927 106.691 91.9788 106.664 96.6448C106.636 102.32 115.312 108.128 128.2 108.276C141.358 108.365 149.755 103.626 149.798 97.7717C149.846 91.1382 137.828 84.0976 128.123 84.1991ZM128.969 200.545C138.505 200.145 151.302 203.487 151.325 207.92C151.484 212.224 139.721 221.95 128.336 221.763C116.546 222.252 104.985 212.51 105.137 209.134C104.959 204.183 119.494 200.319 128.969 200.545ZM93.679 174.272C100.467 182.11 103.56 195.878 97.8974 199.936C92.538 203.035 79.5197 201.759 70.2659 189.023C64.0284 178.339 64.8333 167.464 69.2141 164.268C75.7653 160.445 85.8882 165.61 93.677 174.272H93.679ZM162.034 171.787C154.686 180.032 150.596 195.067 155.954 199.91C161.077 203.673 174.832 203.146 184.993 189.639C192.371 180.566 189.898 165.418 185.684 161.395C179.424 156.754 170.439 162.692 162.033 171.784V171.787" fill="#C51850"/>
</svg>
