<svg width="256" height="256" viewBox="0 0 256 256" fill="none" xmlns="http://www.w3.org/2000/svg">
<path d="M49.727 151.402C40.5008 102.349 64.8841 55.0402 120.848 48.7467C113.131 40.5004 102.588 40.4385 97.7372 41.4415C89.1723 44.1711 89.4412 49.7135 79.726 56.8726C70.0676 62.389 65.2169 58.1645 58.1812 63.8832C51.1605 69.5593 56.0593 82.5893 53.1149 85.1226C50.1921 90.189 41.1254 94.7022 39.4749 101.101C38.1109 109.285 43.1772 115.131 42.9823 122.145C43.5669 127.991 37.1627 131.297 38.0828 136.034C40.8389 143.774 46.1511 148.434 48.6554 150.58C49.2296 150.985 49.8362 151.983 49.727 151.402Z" fill="#FF0090"/>
<path d="M149.309 83.4994C147.265 83.4994 145.607 81.8416 145.607 79.797C145.607 77.7525 147.265 76.0948 149.309 76.0948C151.354 76.0948 153.012 77.7525 153.012 79.797C153.012 81.8416 151.354 83.4994 149.309 83.4994ZM51.8872 156.753C43.0209 114.12 70.4572 78.4981 123.588 96.0353C154.764 114.274 193.982 113.086 195.75 101.296C200.116 87.1631 175.875 58.0381 139.631 50.4387C67.7293 36.409 28.9662 114.12 51.8872 156.753Z" fill="url(#paint0_radial_36_1011)"/>
<path d="M169.834 161.506C180.511 162.663 190.645 160.1 200.037 152.446C185.848 168.272 168.107 176.229 147.751 178.394C157.47 186.657 166.843 190.379 175.81 188.787C150.894 195.662 130.019 188.094 104.625 162.806C103.295 169.613 110.486 180.22 117.896 186.991C74.8975 168.349 71.1278 110.278 123.56 95.9937C69.2078 69.88 38.4744 120.619 53.5741 162.205C68.3483 194.234 107.718 218.891 150.867 213.469C171.827 210.901 203.125 196.451 215.911 162.205C206.9 170.291 190.791 177.334 183.604 177.874C207.932 165.716 221.065 145.056 217.378 116.82C212.339 128.817 205.691 138.031 197.374 144.359C215.04 116.82 212.009 102.586 198.932 86.9414C208.286 112.663 196.187 141.21 169.834 161.506Z" fill="url(#paint1_radial_36_1011)"/>
<path d="M157.349 191.138C155.503 190.793 161.534 193.581 149.874 190.495C138.215 187.408 126.344 184.434 104.625 162.805C103.295 169.613 110.486 180.22 117.896 186.99C137.902 200.942 124.296 194.417 154.778 204.954C157.224 200.085 157.349 195.758 157.349 191.138Z" fill="url(#paint2_linear_36_1011)"/>
<path d="M118.592 81.581C118.592 81.581 121.242 77.6694 122.274 75.9053C123.538 73.7435 125.48 69.8031 125.48 69.8031C125.48 69.8031 105.08 63.1478 100.074 62.3357C84.5122 66.3753 84.4555 72.8951 93.1559 82.8745C94.1239 83.9852 118.592 81.581 118.592 81.581Z" fill="url(#paint3_linear_36_1011)"/>
<defs>
<radialGradient id="paint0_radial_36_1011" cx="0" cy="0" r="1" gradientUnits="userSpaceOnUse" gradientTransform="translate(164.2 89.6374) scale(135.666 97.0486)">
<stop stop-color="#F80090"/>
<stop offset="1" stop-color="#4D008E"/>
</radialGradient>
<radialGradient id="paint1_radial_36_1011" cx="0" cy="0" r="1" gradientUnits="userSpaceOnUse" gradientTransform="translate(165.394 92.5395) scale(137.512 104.022)">
<stop stop-color="#57008E"/>
<stop offset="0.291746" stop-color="#5C008E"/>
<stop offset="1" stop-color="#F80090"/>
</radialGradient>
<linearGradient id="paint2_linear_36_1011" x1="114.11" y1="162.805" x2="138.418" y2="203.684" gradientUnits="userSpaceOnUse">
<stop stop-color="#F70090"/>
<stop offset="0.669713" stop-color="#E50090"/>
<stop offset="0.827148" stop-color="#D6008F" stop-opacity="0.2"/>
<stop offset="1" stop-color="#C10090" stop-opacity="0"/>
</linearGradient>
<linearGradient id="paint3_linear_36_1011" x1="112.09" y1="77.2427" x2="108.563" y2="70.4865" gradientUnits="userSpaceOnUse">
<stop stop-color="#B2008F" stop-opacity="0.15134"/>
<stop offset="0.400351" stop-color="#F70090" stop-opacity="0.4"/>
<stop offset="0.648996" stop-color="#F60090" stop-opacity="0.891668"/>
<stop offset="1" stop-color="#FF0090"/>
</linearGradient>
</defs>
</svg>
