<svg width="257" height="256" viewBox="0 0 257 256" fill="none" xmlns="http://www.w3.org/2000/svg">
<path d="M0.00195312 56C0.00195312 25.0721 25.074 0 56.002 0H200.002C230.93 0 256.002 25.0721 256.002 56V200C256.002 230.928 230.93 256 200.002 256H56.002C25.074 256 0.00195312 230.928 0.00195312 200V56Z" fill="#22272E"/>
<path d="M41.0387 154.669C30.7873 100.165 57.8799 47.6002 120.062 40.6075C111.488 31.4449 99.7728 31.3761 94.3833 32.4906C84.8668 35.5235 85.1655 41.6817 74.3709 49.6362C63.6394 55.7656 58.2497 51.0717 50.4322 57.4258C42.6314 63.7326 48.0746 78.2104 44.803 81.0251C41.5554 86.6544 31.4813 91.6691 29.6474 98.7791C28.1319 107.872 33.7611 114.368 33.5446 122.161C34.1942 128.657 27.0784 132.33 28.1007 137.594C31.163 146.194 37.0654 151.371 39.848 153.756C40.4861 154.205 41.16 155.314 41.0387 154.669Z" fill="#FF0090"/>
<path d="M151.686 79.2213C149.414 79.2213 147.572 77.3793 147.572 75.1077C147.572 72.836 149.414 70.9941 151.686 70.9941C153.957 70.9941 155.799 72.836 155.799 75.1077C155.799 77.3793 153.957 79.2213 151.686 79.2213ZM43.4389 160.614C33.5874 113.244 64.0722 73.6644 123.107 93.1501C157.747 113.415 201.322 112.095 203.287 98.9959C208.137 83.2922 181.203 50.9311 140.932 42.4873C61.0412 26.8987 17.9711 113.244 43.4389 160.614Z" fill="url(#paint0_radial_24_298)"/>
<path d="M174.491 165.896C186.354 167.181 197.614 164.334 208.05 155.829C192.285 173.413 172.572 182.255 149.954 184.66C160.753 193.841 171.168 197.977 181.131 196.208C153.447 203.847 130.252 195.438 102.037 167.34C100.559 174.903 108.549 186.689 116.782 194.212C69.0061 173.499 64.8176 108.976 123.076 93.1043C62.6843 64.0891 28.5361 120.465 45.3136 166.672C61.7293 202.26 105.474 229.657 153.417 223.632C176.706 220.779 211.481 204.724 225.688 166.672C215.675 175.657 197.777 183.482 189.791 184.082C216.823 170.574 231.414 147.618 227.318 116.244C221.719 129.575 214.332 139.812 205.091 146.843C224.72 116.244 221.352 100.429 206.822 83.0461C217.215 111.625 203.772 143.344 174.491 165.896Z" fill="url(#paint1_radial_24_298)"/>
<path d="M160.619 198.82C158.567 198.437 165.268 201.535 152.314 198.105C139.359 194.676 126.168 191.371 102.037 167.339C100.559 174.903 108.548 186.688 116.782 194.211C139.011 209.713 123.894 202.463 157.762 214.171C160.48 208.761 160.619 203.954 160.619 198.82Z" fill="url(#paint2_linear_24_298)"/>
<path d="M117.556 77.09C117.556 77.09 120.5 72.7438 121.647 70.7836C123.051 68.3816 125.209 64.0034 125.209 64.0034C125.209 64.0034 102.542 56.6086 96.98 55.7063C79.6891 60.1947 79.6261 67.439 89.2932 78.5272C90.3688 79.7613 117.556 77.09 117.556 77.09Z" fill="url(#paint3_linear_24_298)"/>
<defs>
<radialGradient id="paint0_radial_24_298" cx="0" cy="0" r="1" gradientUnits="userSpaceOnUse" gradientTransform="translate(168.231 86.0414) scale(150.74 107.832)">
<stop stop-color="#F80090"/>
<stop offset="1" stop-color="#4D008E"/>
</radialGradient>
<radialGradient id="paint1_radial_24_298" cx="0" cy="0" r="1" gradientUnits="userSpaceOnUse" gradientTransform="translate(169.558 89.2663) scale(152.791 115.58)">
<stop stop-color="#57008E"/>
<stop offset="0.291746" stop-color="#5C008E"/>
<stop offset="1" stop-color="#F80090"/>
</radialGradient>
<linearGradient id="paint2_linear_24_298" x1="112.576" y1="167.339" x2="139.584" y2="212.76" gradientUnits="userSpaceOnUse">
<stop stop-color="#F70090"/>
<stop offset="0.669713" stop-color="#E50090"/>
<stop offset="0.827148" stop-color="#D6008F" stop-opacity="0.2"/>
<stop offset="1" stop-color="#C10090" stop-opacity="0"/>
</linearGradient>
<linearGradient id="paint3_linear_24_298" x1="110.331" y1="72.2696" x2="106.412" y2="64.7627" gradientUnits="userSpaceOnUse">
<stop stop-color="#B2008F" stop-opacity="0.15134"/>
<stop offset="0.400351" stop-color="#F70090" stop-opacity="0.4"/>
<stop offset="0.648996" stop-color="#F60090" stop-opacity="0.891668"/>
<stop offset="1" stop-color="#FF0090"/>
</linearGradient>
</defs>
</svg>
