<svg width="256" height="256" viewBox="0 0 256 256" fill="none" xmlns="http://www.w3.org/2000/svg">
<path d="M127.993 144.256C137.267 144.256 144.784 136.738 144.784 127.466C144.784 118.193 137.267 110.675 127.993 110.675C118.721 110.675 111.203 118.193 111.203 127.466C111.203 136.738 118.721 144.256 127.993 144.256Z" fill="#00D8FF"/>
<path fill-rule="evenodd" clip-rule="evenodd" d="M127.994 93.3269C150.537 93.3269 171.479 96.5617 187.27 101.998C206.295 108.547 217.992 118.475 217.992 127.465C217.992 136.834 205.596 147.381 185.165 154.15C169.719 159.267 149.393 161.938 127.994 161.938C106.054 161.938 85.2772 159.431 69.6572 154.093C49.8951 147.338 37.9922 136.655 37.9922 127.465C37.9922 118.548 49.1608 108.697 67.9185 102.157C83.7677 96.6317 105.227 93.3269 127.99 93.3269H127.994Z" stroke="#00D8FF" stroke-width="8.911"/>
<path fill-rule="evenodd" clip-rule="evenodd" d="M98.2752 110.494C109.538 90.9662 122.801 74.4405 135.399 63.4774C150.577 50.2685 165.022 45.0955 172.809 49.5861C180.924 54.2661 183.868 70.2746 179.525 91.3541C176.245 107.291 168.402 126.233 157.711 144.771C146.75 163.777 134.2 180.522 121.773 191.384C106.049 205.128 90.8478 210.103 82.8872 205.512C75.1625 201.06 72.2085 186.461 75.9143 166.945C79.0453 150.454 86.9028 130.214 98.2715 110.494H98.2752Z" stroke="#00D8FF" stroke-width="8.911"/>
<path fill-rule="evenodd" clip-rule="evenodd" d="M98.3033 144.82C87.0092 125.314 79.3197 105.566 76.11 89.1767C72.2464 69.43 74.9781 54.3321 82.7583 49.8285C90.8659 45.1348 106.205 50.5796 122.299 64.8695C134.467 75.6733 146.962 91.9249 157.683 110.445C168.676 129.433 176.914 148.671 180.119 164.86C184.175 185.347 180.892 201.001 172.939 205.605C165.223 210.072 151.101 205.343 136.043 192.384C123.32 181.437 109.709 164.521 98.3033 144.82Z" stroke="#00D8FF" stroke-width="8.911"/>
</svg>
