<svg width="257" height="256" viewBox="0 0 257 256" fill="none" xmlns="http://www.w3.org/2000/svg">
<path d="M0.00195312 56C0.00195312 25.0721 25.074 0 56.002 0H200.002C230.93 0 256.002 25.0721 256.002 56V200C256.002 230.928 230.93 256 200.002 256H56.002C25.074 256 0.00195312 230.928 0.00195312 200V56Z" fill="#F8FAFC"/>
<path d="M220.158 174.177C209.485 179.744 154.2 202.475 142.43 208.609C130.659 214.744 124.122 214.686 114.822 210.242C105.522 205.799 46.6895 182.035 36.0853 176.966C30.7833 174.431 28.0049 172.3 28.0049 170.285V150.069C28.0049 150.069 104.605 133.394 116.974 128.956C129.344 124.518 133.623 124.359 144.153 128.214C154.683 132.068 217.603 143.42 228 147.232V167.168C228 169.167 225.604 171.409 220.169 174.188L220.158 174.177Z" fill="#A41E11"/>
<path d="M220.159 153.955C209.485 159.522 154.2 182.253 142.43 188.387C130.659 194.522 124.122 194.463 114.822 190.02C105.522 185.577 46.6897 161.812 36.0855 156.744C25.4812 151.675 25.2691 148.192 35.6772 144.114L116.969 112.641C129.334 108.209 133.618 108.044 144.147 111.899C154.677 115.754 209.629 137.625 220.021 141.495C230.413 145.366 230.821 148.441 220.148 154.008L220.159 153.955Z" fill="#D82C20"/>
<path d="M220.158 141.209C209.485 146.776 154.2 169.506 142.43 175.641C130.659 181.776 124.122 181.717 114.822 177.274C105.522 172.83 46.6895 149.066 36.0853 143.998C30.7833 141.463 28.0049 139.332 28.0049 137.317V117.1C28.0049 117.1 104.605 100.425 116.974 95.9873C129.344 91.5495 133.623 91.3904 144.153 95.245C154.683 99.0997 217.603 110.452 228 114.264V134.2C228 136.198 225.604 138.441 220.169 141.219L220.158 141.209Z" fill="#A41E11"/>
<path d="M220.159 120.992C209.485 126.559 154.2 149.289 142.43 155.424C130.659 161.558 124.122 161.5 114.822 157.057C105.522 152.613 46.6897 128.85 36.0855 123.781C25.4812 118.712 25.2691 115.229 35.6772 111.151L116.969 79.6831C129.334 75.2452 133.618 75.0862 144.147 78.9409C154.677 82.7954 209.629 104.672 220.031 108.474C230.434 112.276 230.832 115.42 220.159 120.987V120.992Z" fill="#D82C20"/>
<path d="M220.158 107.021C209.485 112.588 154.2 135.318 142.43 141.458C130.659 147.598 124.122 147.534 114.822 143.091C105.522 138.648 46.6895 114.884 36.0853 109.815C30.7833 107.281 28.0049 105.15 28.0049 103.135V82.9069C28.0049 82.9069 104.605 66.2318 116.974 61.794C129.344 57.3561 133.623 57.197 144.153 61.0517C154.683 64.9063 217.603 76.2581 228 80.0703V100.007C228 102.006 225.604 104.248 220.169 107.027L220.158 107.021Z" fill="#A41E11"/>
<path d="M220.159 86.7987C209.485 92.3658 154.2 115.096 142.43 121.231C130.659 127.365 124.122 127.307 114.822 122.864C105.522 118.421 46.6897 94.6564 36.0855 89.5876C25.4812 84.5188 25.2691 81.0353 35.6772 76.958L116.969 45.49C129.334 41.0522 133.618 40.8931 144.147 44.7477C154.677 48.6024 209.629 70.4788 220.031 74.2804C230.434 78.082 230.832 81.2261 220.159 86.7934V86.7987Z" fill="#D82C20"/>
<path d="M132.992 78.4638L126.725 68.0452L106.715 66.2425L121.646 60.8555L117.165 52.5842L131.142 58.0454L144.322 53.7294L140.759 62.2764L154.195 67.3135L136.868 69.1162L132.992 78.4638ZM99.6099 99.2056L145.95 92.0902L131.953 112.62L99.6099 99.2056Z" fill="white"/>
<path d="M87.118 91.7242C100.799 91.7242 111.89 87.4252 111.89 82.1221C111.89 76.819 100.799 72.52 87.118 72.52C73.4372 72.52 62.3467 76.819 62.3467 82.1221C62.3467 87.4252 73.4372 91.7242 87.118 91.7242Z" fill="white"/>
<path d="M202.11 80.7225L174.698 91.5493L174.677 69.8796L202.11 80.7225Z" fill="#7A0C00"/>
<path d="M174.703 91.5492L171.734 92.7156L144.344 81.8888L174.687 69.8848L174.703 91.5492Z" fill="#AD2115"/>
</svg>
