<svg width="256" height="256" viewBox="0 0 256 256" fill="none" xmlns="http://www.w3.org/2000/svg">
<path d="M210.934 169.96C201.328 174.97 151.572 195.427 140.979 200.948C130.385 206.469 124.502 206.417 116.132 202.418C107.762 198.419 54.8127 177.032 45.2689 172.47C40.4971 170.188 37.9966 168.27 37.9966 166.457V148.262C37.9966 148.262 106.936 133.254 118.069 129.26C129.202 125.266 133.053 125.123 142.53 128.592C152.007 132.061 208.635 142.278 217.992 145.709V163.651C217.992 165.451 215.836 167.468 210.944 169.969L210.934 169.96Z" fill="#A41E11"/>
<path d="M210.935 151.76C201.329 156.77 151.572 177.227 140.979 182.748C130.385 188.269 124.502 188.216 116.132 184.218C107.762 180.219 54.8129 158.831 45.2691 154.27C35.7253 149.708 35.5344 146.573 44.9016 142.903L118.064 114.577C129.193 110.588 133.048 110.439 142.525 113.909C152.002 117.378 201.458 137.063 210.811 140.546C220.164 144.029 220.531 146.797 210.925 151.807L210.935 151.76Z" fill="#D82C20"/>
<path d="M210.934 140.288C201.328 145.299 151.572 165.756 140.979 171.276C130.385 176.798 124.502 176.745 116.132 172.746C107.762 168.747 54.8127 147.36 45.2689 142.798C40.4971 140.517 37.9966 138.599 37.9966 136.785V118.59C37.9966 118.59 106.936 103.582 118.069 99.5885C129.202 95.5945 133.053 95.4513 142.53 98.9205C152.007 102.39 208.635 112.607 217.992 116.037V133.98C217.992 135.778 215.836 137.797 210.944 140.297L210.934 140.288Z" fill="#A41E11"/>
<path d="M210.935 122.093C201.329 127.103 151.572 147.56 140.979 153.082C130.385 158.602 124.502 158.55 116.132 154.552C107.762 150.552 54.8129 129.165 45.2691 124.603C35.7253 120.041 35.5344 116.906 44.9016 113.236L118.064 84.9149C129.193 80.9208 133.048 80.7777 142.525 84.2469C152.002 87.716 201.458 107.405 210.82 110.826C220.183 114.248 220.541 117.078 210.935 122.088V122.093Z" fill="#D82C20"/>
<path d="M210.934 109.519C201.328 114.529 151.572 134.986 140.979 140.512C130.385 146.038 124.502 145.981 116.132 141.982C107.762 137.983 54.8127 116.595 45.2689 112.033C40.4971 109.753 37.9966 107.835 37.9966 106.021V87.8162C37.9966 87.8162 106.936 72.8087 118.069 68.8146C129.202 64.8205 133.053 64.6774 142.53 68.1465C152.007 71.6157 208.635 81.8324 217.992 85.2633V103.206C217.992 105.005 215.836 107.023 210.944 109.524L210.934 109.519Z" fill="#A41E11"/>
<path d="M210.935 91.3188C201.329 96.3293 151.572 116.786 140.979 122.308C130.385 127.828 124.502 127.776 116.132 123.777C107.762 119.779 54.8129 98.3907 45.2691 93.8288C35.7253 89.2669 35.5344 86.1318 44.9016 82.4622L118.064 54.141C129.193 50.147 133.048 50.0038 142.525 53.4729C152.002 56.9421 201.458 76.6309 210.82 80.0524C220.183 83.4738 220.541 86.3035 210.935 91.314V91.3188Z" fill="#D82C20"/>
<path d="M132.485 83.8175L126.845 74.4408L108.835 72.8183L122.273 67.97L118.24 60.5259L130.82 65.4409L142.682 61.5566L139.475 69.2489L151.568 73.7822L135.973 75.4047L132.485 83.8175ZM102.441 102.485L144.147 96.0812L131.55 114.558L102.441 102.485Z" fill="white"/>
<path d="M91.1984 95.7518C103.511 95.7518 113.493 91.8827 113.493 87.1099C113.493 82.3371 103.511 78.468 91.1984 78.468C78.8857 78.468 68.9042 82.3371 68.9042 87.1099C68.9042 91.8827 78.8857 95.7518 91.1984 95.7518Z" fill="white"/>
<path d="M194.691 85.8503L170.021 95.5945L170.002 76.0918L194.691 85.8503Z" fill="#7A0C00"/>
<path d="M170.025 95.5942L167.353 96.644L142.702 86.8998L170.011 76.0962L170.025 95.5942Z" fill="#AD2115"/>
</svg>
