<svg width="256" height="256" viewBox="0 0 256 256" fill="none" xmlns="http://www.w3.org/2000/svg">
<g clip-path="url(#clip0_196_202)">
<rect width="256" height="256" rx="56" fill="#764ABC"/>
<path d="M162.721 162.339C169.364 161.651 174.403 155.925 174.173 149.053C173.945 142.182 168.218 136.684 161.347 136.684H160.888C153.787 136.913 148.29 142.868 148.519 149.969C148.748 153.405 150.123 156.383 152.184 158.445C144.396 173.791 132.485 185.015 114.619 194.407C102.479 200.82 89.8806 203.111 77.2824 201.508C66.9749 200.133 58.9579 195.551 53.9186 187.993C46.5888 176.769 45.9016 164.629 52.0861 152.489C56.4383 143.784 63.3099 137.371 67.662 134.164C66.7458 131.187 65.3715 126.147 64.6843 122.482C31.471 146.534 34.9069 179.06 44.9853 194.407C52.5442 205.859 67.8911 212.96 84.8413 212.96C89.4225 212.96 94.0037 212.502 98.5847 211.356C127.904 205.631 150.123 188.222 162.721 162.339Z" fill="white"/>
<path d="M203.034 133.936C185.627 113.549 159.972 102.326 130.653 102.326H126.988C124.926 98.2025 120.574 95.4539 115.764 95.4539H115.306C108.205 95.6829 102.708 101.638 102.937 108.739C103.166 115.611 108.892 121.108 115.764 121.108H116.222C121.261 120.88 125.614 117.673 127.446 113.32H131.569C148.977 113.32 165.469 118.36 180.358 128.209C191.811 135.768 200.057 145.618 204.638 157.528C208.533 167.148 208.303 176.54 204.18 184.557C197.767 196.697 187.001 203.34 172.799 203.34C163.637 203.34 154.933 200.591 150.351 198.53C147.832 200.82 143.251 204.485 140.044 206.775C149.893 211.356 159.972 213.876 169.592 213.876C191.582 213.876 207.845 201.736 214.03 189.596C220.673 176.311 220.214 153.405 203.034 133.936Z" fill="white"/>
<path d="M86.6743 166.233C86.9034 173.105 92.6298 178.602 99.5015 178.602H99.9596C107.06 178.372 112.558 172.417 112.329 165.316C112.1 158.445 106.373 152.947 99.5015 152.947H99.0433C98.5852 152.947 97.8981 152.947 97.44 153.177C88.0486 137.601 84.1547 120.65 85.529 102.326C86.4453 88.5824 91.0263 76.6714 99.0433 66.822C105.686 58.3469 118.513 54.2238 127.217 53.9947C151.497 53.5366 161.805 83.7722 162.492 95.9123C165.47 96.5994 170.509 98.2028 173.945 99.3481C171.197 62.2408 148.291 43 126.301 43C105.686 43 86.6743 57.8887 79.1154 79.8782C68.5788 109.198 75.4505 137.371 88.2777 159.59C87.1324 161.193 86.4453 163.713 86.6743 166.233Z" fill="white"/>
</g>
<defs>
<clipPath id="clip0_196_202">
<rect width="256" height="256" fill="white"/>
</clipPath>
</defs>
</svg>
