<svg width="257" height="256" viewBox="0 0 257 256" fill="none" xmlns="http://www.w3.org/2000/svg">
<path d="M0.00195312 56C0.00195312 25.0721 25.074 0 56.002 0H200.002C230.93 0 256.002 25.0721 256.002 56V200C256.002 230.928 230.93 256 200.002 256H56.002C25.074 256 0.00195312 230.928 0.00195312 200V56Z" fill="#F8FAFC"/>
<path fill-rule="evenodd" clip-rule="evenodd" d="M199.568 176.666C201.185 197.441 201.185 207.18 201.185 217.81H153.118C153.118 215.495 153.159 213.377 153.201 211.229C153.331 204.551 153.467 197.589 152.385 183.528C150.956 162.942 142.091 158.368 125.791 158.368H111.35H50.1903V120.914H128.079C148.668 120.914 158.962 114.651 158.962 98.0682C158.962 83.4863 148.668 74.6501 128.079 74.6501H50.1903V38H136.657C183.268 38 206.431 60.0151 206.431 95.1814C206.431 121.485 190.132 138.64 168.112 141.499C186.7 145.216 197.566 155.795 199.568 176.666Z" fill="#111827"/>
<path fill-rule="evenodd" clip-rule="evenodd" d="M199.568 176.666C201.185 197.441 201.185 207.18 201.185 217.81H153.118C153.118 215.495 153.159 213.377 153.201 211.229C153.331 204.551 153.467 197.589 152.385 183.528C150.956 162.942 142.091 158.368 125.791 158.368H111.35H50.1903V120.914H128.079C148.668 120.914 158.962 114.651 158.962 98.0682C158.962 83.4863 148.668 74.6501 128.079 74.6501H50.1903V38H136.657C183.268 38 206.431 60.0151 206.431 95.1814C206.431 121.485 190.132 138.64 168.112 141.499C186.7 145.216 197.566 155.795 199.568 176.666Z" fill="#111827"/>
<path d="M50.1903 217.81V189.889H101.015C109.504 189.889 111.348 196.186 111.348 199.941V217.81H50.1903Z" fill="#111827"/>
<path d="M50 217.81V218H50.1901H111.348H111.538V217.81V199.941C111.538 198.038 111.072 195.48 109.517 193.393C107.956 191.296 105.313 189.699 101.015 189.699H50.1901H50V189.889V217.81Z" fill="#111827" stroke="white" stroke-opacity="0.8" stroke-width="0.32"/>
</svg>
