<svg width="256" height="256" viewBox="0 0 256 256" fill="none" xmlns="http://www.w3.org/2000/svg">
<g clip-path="url(#clip0_30_513)">
<path d="M196 0H60C26.8629 0 0 26.8629 0 60V196C0 229.137 26.8629 256 60 256H196C229.137 256 256 229.137 256 196V60C256 26.8629 229.137 0 196 0Z" fill="#D33847"/>
<path fill-rule="evenodd" clip-rule="evenodd" d="M135.116 91.4986C144.596 82.3986 158.707 81.7825 166.633 90.1211C174.563 98.46 173.302 112.587 163.818 121.683C154.338 130.783 140.231 131.399 132.302 123.061C124.372 114.722 125.636 100.595 135.116 91.4986Z" fill="url(#paint0_linear_30_513)" fill-opacity="0.1"/>
<path fill-rule="evenodd" clip-rule="evenodd" d="M71.8172 150.878C72.1184 157.058 73.944 162.688 77.2793 167.556L66.932 177.506C65.8385 178.654 66.7301 179.603 68.0132 180.956L76.9744 190.344C78.2119 191.714 79.048 192.566 80.1895 191.447L91.4143 180.687C94.1117 181.92 100.551 184.234 110.096 183.732L117.211 178.826C117.742 178.456 118.675 177.923 119.295 177.633L125.754 174.608L120.697 179.517C120.213 179.987 119.384 180.67 118.857 181.037L112.739 185.253L125.022 216.145C125.146 216.457 125.34 216.743 125.589 216.979C125.838 217.214 126.132 217.391 126.446 217.494C126.759 217.596 127.082 217.62 127.385 217.565C127.687 217.509 127.961 217.374 128.18 217.174L152.405 195.238C152.687 194.983 152.869 194.63 152.922 194.232L157.057 162.685C163.692 157.309 170.363 150.952 176.899 143.786C214.514 102.526 218.737 67.8749 217.91 50.8945C217.637 45.3014 216.812 42.1558 216.78 42.025C216.678 41.6433 216.469 41.2846 216.18 40.9947C215.892 40.7047 215.536 40.4964 215.158 40.3964C213.162 39.8651 165.609 28.0275 107.204 84.0198C107.132 84.0981 99.5572 91.6252 91.534 102.431L60.4242 108.256C60.0534 108.327 59.7292 108.515 59.4953 108.794L38.3831 133.821C38.1924 134.048 38.068 134.328 38.0211 134.637C37.9741 134.945 38.006 135.271 38.1139 135.587C38.2219 135.901 38.4025 136.196 38.6396 136.442C38.8766 136.689 39.1628 136.881 39.4722 137L70.0505 148.712L74.8379 143.312C75.2625 142.833 76.0263 142.113 76.5468 141.695L81.9727 137.344L78.2689 143.295C77.8435 143.965 77.3718 144.599 76.857 145.195L71.8172 150.878ZM135.174 91.3932C144.655 82.2974 158.766 81.6771 166.691 90.0157C174.621 98.3543 173.361 112.482 163.877 121.582C154.397 130.678 140.289 131.293 132.36 122.959C124.43 114.62 125.695 100.489 135.174 91.3932Z" fill="white"/>
</g>
<defs>
<linearGradient id="paint0_linear_30_513" x1="120.007" y1="134.84" x2="167.656" y2="89.6625" gradientUnits="userSpaceOnUse">
<stop/>
<stop offset="1" stop-color="white"/>
</linearGradient>
<clipPath id="clip0_30_513">
<rect width="256" height="256" fill="white"/>
</clipPath>
</defs>
</svg>
