<svg width="256" height="256" viewBox="0 0 256 256" fill="none" xmlns="http://www.w3.org/2000/svg">
<path d="M196 0H60C26.8629 0 0 26.8629 0 60V196C0 229.137 26.8629 256 60 256H196C229.137 256 256 229.137 256 196V60C256 26.8629 229.137 0 196 0Z" fill="#D33847"/>
<path fill-rule="evenodd" clip-rule="evenodd" d="M135.907 87.3317C146.441 77.2206 162.12 76.5361 170.926 85.8011C179.737 95.0666 178.336 110.763 167.798 120.87C157.265 130.981 141.59 131.666 132.78 122.401C123.969 113.135 125.374 97.4386 135.907 87.3317Z" fill="url(#paint0_linear_30_513)" fill-opacity="0.1"/>
<path fill-rule="evenodd" clip-rule="evenodd" d="M65.5746 153.309C65.9093 160.175 67.9378 166.431 71.6436 171.84L60.1467 182.895C58.9316 184.171 59.9223 185.226 61.348 186.729L71.3049 197.16C72.6799 198.682 73.6089 199.629 74.8772 198.386L87.3493 186.43C90.3464 187.799 97.5016 190.371 108.106 189.813L116.012 184.363C116.602 183.952 117.639 183.359 118.328 183.037L125.504 179.676L119.885 185.13C119.348 185.652 118.427 186.411 117.841 186.819L111.043 191.504L124.692 225.827C124.829 226.174 125.045 226.492 125.321 226.754C125.597 227.016 125.924 227.212 126.273 227.326C126.622 227.44 126.98 227.467 127.317 227.405C127.652 227.343 127.956 227.194 128.2 226.971L155.117 202.598C155.43 202.314 155.632 201.923 155.691 201.48L160.285 166.428C167.657 160.455 175.07 153.391 182.332 145.429C224.127 99.5846 228.819 61.0832 227.9 42.2161C227.597 36.0015 226.68 32.5064 226.645 32.3611C226.531 31.937 226.299 31.5385 225.978 31.2163C225.658 30.8941 225.262 30.6627 224.842 30.5515C222.625 29.9612 169.788 16.8084 104.893 79.022C104.813 79.109 96.3969 87.4724 87.4823 99.4793L52.9158 105.951C52.5038 106.03 52.1436 106.239 51.8837 106.549L28.4256 134.357C28.2138 134.609 28.0756 134.92 28.0234 135.264C27.9712 135.606 28.0066 135.968 28.1266 136.318C28.2466 136.668 28.4472 136.995 28.7106 137.269C28.974 137.543 29.292 137.756 29.6357 137.889L63.6117 150.902L68.931 144.903C69.4027 144.37 70.2514 143.57 70.8297 143.105L76.8585 138.272L72.7432 144.883C72.2706 145.628 71.7465 146.333 71.1744 146.995L65.5746 153.309ZM135.971 87.2147C146.505 77.1082 162.184 76.419 170.99 85.6841C179.801 94.9493 178.401 110.647 167.864 120.758C157.33 130.864 141.655 131.548 132.845 122.287C124.034 113.022 125.438 97.3212 135.971 87.2147Z" fill="white"/>
<defs>
<linearGradient id="paint0_linear_30_513" x1="119.119" y1="135.488" x2="172.063" y2="85.2916" gradientUnits="userSpaceOnUse">
<stop/>
<stop offset="1" stop-color="white"/>
</linearGradient>
</defs>
</svg>
