<svg width="256" height="256" viewBox="0 0 256 256" fill="none" xmlns="http://www.w3.org/2000/svg">
<g clip-path="url(#clip0_196_208)">
<rect width="256" height="256" rx="56" fill="#F08733"/>
<path d="M124.11 214.002C120.232 209.217 115.815 199.827 114.982 194.6L114.367 190.768H128.13C138.892 190.768 141.892 191.038 141.892 192.005C141.892 194.645 138.802 203.652 136.575 207.5C134.077 211.827 128.917 218.075 127.912 218C127.59 217.97 125.872 216.17 124.11 214.002ZM90.1199 182.555C80.7374 160.018 80.8874 131.675 90.5399 102.83C96.4349 85.205 110.43 60.1625 123.637 43.58L128.077 38L131.242 41.6975C136.965 48.395 150.832 69.68 155.842 79.4675C165.742 98.8025 171.255 116.915 172.822 135.253C174.3 152.518 171.502 171.53 165.607 184.25L163.072 189.733L157.62 186.485L152.167 183.238H127.95C109.455 183.238 103.297 183.53 101.88 184.482C100.86 185.165 98.4824 186.658 96.5924 187.79L93.1574 189.86L90.1199 182.555ZM160.155 169.13C165.997 149.457 164.145 122.233 155.392 99.05C150.27 85.475 139.755 66.6575 131.31 55.9475C128.632 52.5575 128.407 52.4525 126.742 53.96C123.435 56.945 112.837 73.625 107.662 83.975C93.2099 112.895 89.0324 143.938 96.2549 168.785L97.7249 173.825H158.76L160.155 169.13ZM63.1574 186.762C63.4349 185.6 63.9674 182.525 64.3349 179.945C64.9274 175.827 65.7524 174.477 70.9724 169.122L76.9349 163.01L76.9499 166.812C76.9724 171.62 79.2149 180.305 81.6824 185.15L83.5874 188.885H73.1249C62.7449 188.878 62.6549 188.862 63.1574 186.762ZM175.237 183.943C177.27 179.345 179.205 171.823 179.782 166.303C180.015 164.06 180.277 164.188 185.497 169.145C190.717 174.102 191.032 174.658 192.307 181.378C193.042 185.247 193.65 188.518 193.65 188.652C193.65 188.78 189.015 188.885 183.352 188.885H173.055L175.237 183.943ZM126.66 150.162C122.345 150.157 118.209 148.44 115.158 145.389C112.107 142.338 110.391 138.202 110.385 133.887C110.385 124.917 117.682 117.612 126.66 117.612C135.637 117.612 142.935 124.91 142.935 133.887C142.935 142.865 135.637 150.162 126.66 150.162ZM126.66 121.175C119.647 121.175 113.94 126.882 113.94 133.887C113.94 140.893 119.647 146.607 126.66 146.607C133.672 146.607 139.38 140.9 139.38 133.887C139.38 126.875 133.672 121.175 126.66 121.175ZM109.237 108.927C110.544 108.927 111.798 109.447 112.722 110.371C113.646 111.295 114.165 112.548 114.165 113.855C114.165 115.162 113.646 116.415 112.722 117.339C111.798 118.263 110.544 118.783 109.237 118.783C107.931 118.783 106.677 118.263 105.753 117.339C104.829 116.415 104.31 115.162 104.31 113.855C104.31 112.548 104.829 111.295 105.753 110.371C106.677 109.447 107.931 108.927 109.237 108.927ZM106.56 143.915C108.151 143.915 109.677 144.547 110.803 145.672C111.928 146.798 112.56 148.324 112.56 149.915C112.56 151.506 111.928 153.032 110.803 154.158C109.677 155.283 108.151 155.915 106.56 155.915C104.969 155.915 103.442 155.283 102.317 154.158C101.192 153.032 100.56 151.506 100.56 149.915C100.56 148.324 101.192 146.798 102.317 145.672C103.442 144.547 104.969 143.915 106.56 143.915ZM145.65 105.065C147.776 105.065 149.816 105.91 151.319 107.413C152.823 108.917 153.667 110.956 153.667 113.082C153.667 115.209 152.823 117.248 151.319 118.752C149.816 120.255 147.776 121.1 145.65 121.1C143.524 121.1 141.484 120.255 139.981 118.752C138.477 117.248 137.632 115.209 137.632 113.082C137.632 110.956 138.477 108.917 139.981 107.413C141.484 105.91 143.524 105.065 145.65 105.065ZM145.65 148.19C147.047 148.19 148.429 148.465 149.72 149C151.01 149.534 152.182 150.317 153.17 151.305C154.158 152.292 154.941 153.465 155.475 154.755C156.01 156.045 156.285 157.428 156.285 158.825C156.285 160.222 156.01 161.605 155.475 162.895C154.941 164.185 154.158 165.358 153.17 166.345C152.182 167.333 151.01 168.116 149.72 168.65C148.429 169.185 147.047 169.46 145.65 169.46C142.829 169.46 140.124 168.34 138.13 166.345C136.135 164.351 135.015 161.646 135.015 158.825C135.015 156.004 136.135 153.299 138.13 151.305C140.124 149.31 142.829 148.19 145.65 148.19ZM109.177 118.1L112.86 114.418L118.327 119.885L114.645 123.568L109.177 118.1ZM139.672 115.58L143.715 119.623L138.247 125.09L134.205 121.048L139.672 115.58ZM112.882 140.795L116.565 144.477L111.097 149.945L107.415 146.263L112.882 140.795ZM133.29 148.775L137.865 144.35L143.707 150.005L139.132 154.43L133.29 148.775ZM120.412 132.522C120.963 132.522 121.492 132.741 121.881 133.131C122.271 133.521 122.49 134.049 122.49 134.6C122.49 135.151 122.271 135.679 121.881 136.069C121.492 136.459 120.963 136.677 120.412 136.677C119.861 136.677 119.333 136.459 118.943 136.069C118.554 135.679 118.335 135.151 118.335 134.6C118.335 134.049 118.554 133.521 118.943 133.131C119.333 132.741 119.861 132.522 120.412 132.522ZM126.367 132.522C126.918 132.522 127.447 132.741 127.836 133.131C128.226 133.521 128.445 134.049 128.445 134.6C128.445 135.151 128.226 135.679 127.836 136.069C127.447 136.459 126.918 136.677 126.367 136.677C125.816 136.677 125.288 136.459 124.898 136.069C124.509 135.679 124.29 135.151 124.29 134.6C124.29 134.049 124.509 133.521 124.898 133.131C125.288 132.741 125.816 132.522 126.367 132.522ZM132.322 132.522C132.873 132.522 133.402 132.741 133.791 133.131C134.181 133.521 134.4 134.049 134.4 134.6C134.4 135.151 134.181 135.679 133.791 136.069C133.402 136.459 132.873 136.677 132.322 136.677C131.771 136.677 131.243 136.459 130.853 136.069C130.464 135.679 130.245 135.151 130.245 134.6C130.245 134.049 130.464 133.521 130.853 133.131C131.243 132.741 131.771 132.522 132.322 132.522Z" fill="white"/>
</g>
<defs>
<clipPath id="clip0_196_208">
<rect width="256" height="256" fill="white"/>
</clipPath>
</defs>
</svg>
