<svg width="256" height="256" viewBox="0 0 256 256" fill="none" xmlns="http://www.w3.org/2000/svg">
<path d="M196.823 97.3264C196.823 86.6968 194.006 76.7939 189.191 68.163C176.199 54.8077 148.035 51.7187 141.04 68.0721C133.862 84.8797 153.123 103.504 161.572 102.051C172.293 100.143 159.664 75.6128 159.664 75.6128C176.018 106.502 172.293 97.0539 142.675 125.4C113.057 153.746 82.7128 213.617 78.2611 216.161C78.0793 216.252 77.8976 216.343 77.6251 216.433H193.825C195.914 216.433 197.186 214.253 196.278 212.436L165.933 152.292C165.297 151.02 165.751 149.385 167.023 148.658C184.83 138.482 196.823 119.313 196.823 97.3264Z" fill="url(#paint0_linear_36_983)"/>
<path d="M196.823 97.3264C196.823 86.6968 194.006 76.7939 189.191 68.163C176.199 54.8077 148.035 51.7187 141.04 68.0721C133.862 84.8797 153.123 103.504 161.572 102.051C172.293 100.143 159.664 75.6128 159.664 75.6128C176.018 106.502 172.293 97.0539 142.675 125.4C113.057 153.746 82.7128 213.617 78.2611 216.161C78.0793 216.252 77.8976 216.343 77.6251 216.433H193.825C195.914 216.433 197.186 214.253 196.278 212.436L165.933 152.292C165.297 151.02 165.751 149.385 167.023 148.658C184.83 138.482 196.823 119.313 196.823 97.3264Z" fill="url(#paint1_linear_36_983)"/>
<path d="M78.2611 216.161C82.7128 213.617 112.967 153.745 142.584 125.4C172.202 97.0536 176.018 106.502 159.574 75.6125C159.574 75.6125 96.8858 163.557 74.1728 207.075" fill="url(#paint2_linear_36_983)"/>
<path d="M87.0738 137.301C129.411 59.4411 134.953 51.5369 157.03 51.5369C168.659 51.5369 180.288 56.8064 187.92 66.0733C177.653 49.4474 159.392 38.3634 138.496 38H66.5413C64.9968 38 63.8157 39.2719 63.8157 40.7256V185.816C68.0858 174.823 75.3539 159.015 87.0738 137.301Z" fill="url(#paint3_linear_36_983)"/>
<path d="M142.585 125.4C112.967 153.745 82.7131 213.617 78.2613 216.161C73.8096 218.705 66.4506 218.977 62.5439 214.616C58.3647 209.892 51.8234 202.351 87.1648 137.392C129.502 59.5318 135.044 51.6277 157.121 51.6277C168.75 51.6277 180.379 56.8971 188.011 66.164C188.465 66.8 188.828 67.5268 189.282 68.2536C176.291 54.8984 148.126 51.8094 141.131 68.1628C133.954 84.9704 153.214 103.595 161.663 102.141C172.384 100.234 159.756 75.7035 159.756 75.7035C176.018 106.411 172.202 96.9628 142.585 125.4Z" fill="url(#paint4_linear_36_983)"/>
<path opacity="0.3" d="M90.5261 140.844C132.863 62.9842 138.405 55.0801 160.482 55.0801C170.022 55.0801 179.652 58.6233 186.92 65.0738C179.379 56.4428 168.114 51.6277 156.939 51.6277C134.862 51.6277 129.32 59.4409 86.9829 137.392C51.6414 202.351 58.1828 209.892 62.362 214.616C62.9979 215.252 63.6339 215.888 64.3607 216.342C60.8175 210.891 59.1822 198.445 90.5261 140.844Z" fill="url(#paint5_linear_36_983)"/>
<defs>
<linearGradient id="paint0_linear_36_983" x1="109.618" y1="133.901" x2="158.16" y2="145.248" gradientUnits="userSpaceOnUse">
<stop stop-color="#FF6533"/>
<stop offset="0.157" stop-color="#FF5633"/>
<stop offset="0.434" stop-color="#FF4333"/>
<stop offset="0.714" stop-color="#FF3733"/>
<stop offset="1" stop-color="#FF3333"/>
</linearGradient>
<linearGradient id="paint1_linear_36_983" x1="102.021" y1="117.811" x2="189.019" y2="185.266" gradientUnits="userSpaceOnUse">
<stop stop-color="#BF3338"/>
<stop offset="1" stop-color="#FF3333"/>
</linearGradient>
<linearGradient id="paint2_linear_36_983" x1="104.865" y1="131.091" x2="117.474" y2="144.329" gradientUnits="userSpaceOnUse">
<stop stop-color="#FF6533"/>
<stop offset="0.157" stop-color="#FF5633"/>
<stop offset="0.434" stop-color="#FF4333"/>
<stop offset="0.714" stop-color="#FF3733"/>
<stop offset="1" stop-color="#FF3333"/>
</linearGradient>
<linearGradient id="paint3_linear_36_983" x1="127.791" y1="153.881" x2="124.008" y2="99.6647" gradientUnits="userSpaceOnUse">
<stop stop-color="#FF6533"/>
<stop offset="0.157" stop-color="#FF5633"/>
<stop offset="0.434" stop-color="#FF4333"/>
<stop offset="0.714" stop-color="#FF3733"/>
<stop offset="1" stop-color="#FF3333"/>
</linearGradient>
<linearGradient id="paint4_linear_36_983" x1="111.402" y1="130.162" x2="129.312" y2="142.341" gradientUnits="userSpaceOnUse">
<stop stop-color="#FBB040"/>
<stop offset="1" stop-color="#FB8840"/>
</linearGradient>
<linearGradient id="paint5_linear_36_983" x1="129.752" y1="61.3045" x2="111.47" y2="262.407" gradientUnits="userSpaceOnUse">
<stop stop-color="white"/>
<stop offset="1" stop-color="white" stop-opacity="0"/>
</linearGradient>
</defs>
</svg>
