<svg width="257" height="256" viewBox="0 0 257 256" fill="none" xmlns="http://www.w3.org/2000/svg">
<path d="M0.00195312 56C0.00195312 25.0721 25.074 0 56.002 0H200.002C230.93 0 256.002 25.0721 256.002 56V200C256.002 230.928 230.93 256 200.002 256H56.002C25.074 256 0.00195312 230.928 0.00195312 200V56Z" fill="#22272E"/>
<path d="M204.144 93.9181C204.144 82.1074 201.015 71.1042 195.665 61.5142C181.23 46.6751 149.936 43.2429 142.163 61.4133C134.188 80.0884 155.589 100.782 164.977 99.1673C176.889 97.0475 162.857 69.7919 162.857 69.7919C181.028 104.114 176.889 93.6153 143.98 125.111C111.072 156.606 77.3555 223.13 72.4091 225.956C72.2072 226.057 72.0054 226.158 71.7025 226.259H200.813C203.135 226.259 204.548 223.836 203.539 221.818L169.823 154.991C169.116 153.578 169.621 151.761 171.034 150.953C190.819 139.647 204.144 118.347 204.144 93.9181Z" fill="url(#paint0_linear_24_314)"/>
<path d="M204.144 93.9181C204.144 82.1074 201.015 71.1042 195.665 61.5142C181.23 46.6751 149.936 43.2429 142.163 61.4133C134.188 80.0884 155.589 100.782 164.977 99.1673C176.889 97.0475 162.857 69.7919 162.857 69.7919C181.028 104.114 176.889 93.6153 143.98 125.111C111.072 156.606 77.3555 223.13 72.4091 225.956C72.2072 226.057 72.0054 226.158 71.7025 226.259H200.813C203.135 226.259 204.548 223.836 203.539 221.818L169.823 154.991C169.116 153.578 169.621 151.761 171.034 150.953C190.819 139.647 204.144 118.347 204.144 93.9181Z" fill="url(#paint1_linear_24_314)"/>
<path d="M72.4088 225.956C77.3552 223.13 110.97 156.606 143.879 125.111C176.788 93.6153 181.027 104.114 162.756 69.7919C162.756 69.7919 93.1029 167.508 67.8662 215.862" fill="url(#paint2_linear_24_314)"/>
<path d="M82.2006 138.335C129.242 51.8234 135.4 43.0411 159.93 43.0411C172.851 43.0411 185.772 48.896 194.252 59.1925C182.845 40.7193 162.554 28.4038 139.337 28H59.3867C57.6706 28 56.3583 29.4133 56.3583 31.0284V192.24C61.1028 180.026 69.1785 162.461 82.2006 138.335Z" fill="url(#paint3_linear_24_314)"/>
<path d="M143.879 125.111C110.971 156.606 77.3553 223.13 72.4089 225.956C67.4625 228.783 59.2859 229.086 54.9451 224.24C50.3016 218.991 43.0334 210.612 82.3017 138.436C129.343 51.9243 135.501 43.142 160.031 43.142C172.952 43.142 185.873 48.9969 194.352 59.2934C194.857 60.0001 195.261 60.8076 195.766 61.6152C181.33 46.776 150.037 43.3439 142.264 61.5143C134.289 80.1894 155.69 100.883 165.078 99.2683C176.99 97.1484 162.958 69.8928 162.958 69.8928C181.028 104.013 176.788 93.5144 143.879 125.111Z" fill="url(#paint4_linear_24_314)"/>
<path opacity="0.3" d="M86.0366 142.272C133.078 55.7603 139.235 46.9779 163.766 46.9779C174.365 46.9779 185.065 50.9149 193.141 58.0821C184.762 48.4921 172.245 43.142 159.829 43.142C135.299 43.142 129.141 51.8234 82.0997 138.436C42.8314 210.612 50.0996 218.991 54.7431 224.24C55.4497 224.947 56.1564 225.654 56.9639 226.158C53.027 220.101 51.21 206.272 86.0366 142.272Z" fill="url(#paint5_linear_24_314)"/>
<defs>
<linearGradient id="paint0_linear_24_314" x1="107.25" y1="134.556" x2="161.186" y2="147.164" gradientUnits="userSpaceOnUse">
<stop stop-color="#FF6533"/>
<stop offset="0.157" stop-color="#FF5633"/>
<stop offset="0.434" stop-color="#FF4333"/>
<stop offset="0.714" stop-color="#FF3733"/>
<stop offset="1" stop-color="#FF3333"/>
</linearGradient>
<linearGradient id="paint1_linear_24_314" x1="98.809" y1="116.679" x2="195.473" y2="191.628" gradientUnits="userSpaceOnUse">
<stop stop-color="#BF3338"/>
<stop offset="1" stop-color="#FF3333"/>
</linearGradient>
<linearGradient id="paint2_linear_24_314" x1="101.969" y1="131.434" x2="115.978" y2="146.144" gradientUnits="userSpaceOnUse">
<stop stop-color="#FF6533"/>
<stop offset="0.157" stop-color="#FF5633"/>
<stop offset="0.434" stop-color="#FF4333"/>
<stop offset="0.714" stop-color="#FF3733"/>
<stop offset="1" stop-color="#FF3333"/>
</linearGradient>
<linearGradient id="paint3_linear_24_314" x1="127.442" y1="156.756" x2="123.239" y2="96.5163" gradientUnits="userSpaceOnUse">
<stop stop-color="#FF6533"/>
<stop offset="0.157" stop-color="#FF5633"/>
<stop offset="0.434" stop-color="#FF4333"/>
<stop offset="0.714" stop-color="#FF3733"/>
<stop offset="1" stop-color="#FF3333"/>
</linearGradient>
<linearGradient id="paint4_linear_24_314" x1="109.232" y1="130.402" x2="129.132" y2="143.934" gradientUnits="userSpaceOnUse">
<stop stop-color="#FBB040"/>
<stop offset="1" stop-color="#FB8840"/>
</linearGradient>
<linearGradient id="paint5_linear_24_314" x1="129.621" y1="53.894" x2="109.308" y2="277.341" gradientUnits="userSpaceOnUse">
<stop stop-color="white"/>
<stop offset="1" stop-color="white" stop-opacity="0"/>
</linearGradient>
</defs>
</svg>
