<svg width="257" height="256" viewBox="0 0 257 256" fill="none" xmlns="http://www.w3.org/2000/svg">
<path d="M0.00195312 56C0.00195312 25.0721 25.074 0 56.002 0H200.002C230.93 0 256.002 25.0721 256.002 56V200C256.002 230.928 230.93 256 200.002 256H56.002C25.074 256 0.00195312 230.928 0.00195312 200V56Z" fill="#F8FAFC"/>
<path d="M78.5154 58.4185C78.5154 69.6915 69.6667 78.8371 58.7612 78.8371C47.8487 78.8371 39 69.6915 39 58.4185C39 47.1385 47.8487 38 58.7612 38C69.6667 38 78.5154 47.1385 78.5154 58.4185Z" fill="#111827"/>
<path d="M78.5154 127.999C78.5154 139.272 69.6667 148.417 58.7612 148.417C47.8487 148.417 39 139.272 39 127.999C39 116.719 47.8487 107.58 58.7612 107.58C69.6667 107.58 78.5154 116.719 78.5154 127.999Z" fill="#111827"/>
<path d="M78.5154 197.581C78.5154 208.854 69.6667 218 58.7612 218C47.8487 218 39 208.854 39 197.581C39 186.308 47.8487 177.162 58.7612 177.162C69.6667 177.162 78.5154 186.308 78.5154 197.581Z" fill="#111827"/>
<path d="M147.461 127.999C147.461 139.272 138.619 148.417 127.707 148.417C116.794 148.417 107.945 139.272 107.945 127.999C107.945 116.719 116.794 107.58 127.707 107.58C138.619 107.58 147.461 116.719 147.461 127.999Z" fill="#111827"/>
<path d="M147.461 58.4185C147.461 69.6915 138.619 78.8371 127.707 78.8371C116.794 78.8371 107.945 69.6915 107.945 58.4185C107.945 47.1385 116.794 38 127.707 38C138.619 38 147.461 47.1385 147.461 58.4185Z" fill="#111827"/>
<path d="M216.414 127.999C216.414 139.272 207.565 148.417 196.652 148.417C185.74 148.417 176.899 139.272 176.899 127.999C176.899 116.719 185.74 107.58 196.652 107.58C207.565 107.58 216.414 116.719 216.414 127.999Z" fill="#111827"/>
<path d="M216.414 58.4185C216.414 69.6915 207.565 78.8371 196.652 78.8371C185.74 78.8371 176.899 69.6915 176.899 58.4185C176.899 47.1385 185.74 38 196.652 38C207.565 38 216.414 47.1385 216.414 58.4185Z" fill="#111827"/>
<path d="M216.414 197.581C216.414 208.854 207.565 218 196.652 218C185.74 218 176.899 208.854 176.899 197.581C176.899 186.308 185.74 177.162 196.652 177.162C207.565 177.162 216.414 186.308 216.414 197.581Z" fill="#111827"/>
<path d="M147.462 197.581C147.462 208.854 138.619 218 127.707 218C116.795 218 107.945 208.854 107.945 197.581C107.945 186.308 116.795 177.162 127.707 177.162C138.619 177.162 147.462 186.308 147.462 197.581Z" fill="#111827"/>
</svg>
