<svg width="256" height="256" viewBox="0 0 256 256" fill="none" xmlns="http://www.w3.org/2000/svg">
<g clip-path="url(#clip0_30_490)">
<path d="M196 0H60C26.8629 0 0 26.8629 0 60V196C0 229.137 26.8629 256 60 256H196C229.137 256 256 229.137 256 196V60C256 26.8629 229.137 0 196 0Z" fill="#E43717"/>
<path d="M216.717 125.796L209.166 121.118C209.102 120.382 209.03 119.647 208.951 118.916L215.452 112.862C216.113 112.246 216.409 111.335 216.23 110.454C216.056 109.568 215.435 108.839 214.591 108.528L206.282 105.432C206.074 104.713 205.855 103.999 205.632 103.282L210.81 96.0921C211.338 95.361 211.446 94.4099 211.102 93.5809C210.758 92.7502 210.006 92.1551 209.124 92.0088L200.368 90.5848C200.028 89.9208 199.673 89.2672 199.315 88.6239L202.997 80.5401C203.373 79.718 203.296 78.7685 202.794 78.0117C202.293 77.2618 201.445 76.8232 200.54 76.8576L191.647 77.1672C191.188 76.5927 190.72 76.0235 190.243 75.4645L192.291 66.813C192.497 65.9341 192.238 65.007 191.598 64.3706C190.962 63.7342 190.041 63.4711 189.154 63.6775L180.502 65.7242C179.942 65.2495 179.372 64.78 178.796 64.3208L179.107 55.4285C179.142 54.529 178.702 53.6741 177.953 53.1754C177.201 52.6731 176.25 52.5974 175.424 52.9706L167.356 56.6514C166.704 56.2937 166.051 55.9393 165.396 55.5971L163.968 46.8424C163.824 45.9548 163.228 45.2015 162.395 44.8644C161.565 44.5187 160.607 44.6305 159.884 45.1568L152.694 50.334C151.985 50.1086 151.273 49.8919 150.561 49.6855L147.464 41.3781C147.149 40.5318 146.42 39.9109 145.538 39.7355C144.654 39.5618 143.749 39.8559 143.13 40.5129L137.075 47.0144C136.344 46.9336 135.608 46.8596 134.873 46.7994L130.194 39.2315C129.721 38.4661 128.883 38 127.975 38C127.067 38 126.238 38.4661 125.773 39.2315L121.094 46.7994C120.358 46.8596 119.622 46.9336 118.893 47.0144L112.838 40.5129C112.224 39.8559 111.312 39.5618 110.429 39.7355C109.544 39.9126 108.814 40.5318 108.502 41.3781L105.406 49.6855C104.687 49.8919 103.975 50.1103 103.273 50.334L96.0831 45.1568C95.352 44.6288 94.3991 44.517 93.5717 44.8644C92.7409 45.2084 92.144 45.9618 91.9995 46.8424L90.5717 55.5971C89.9112 55.9393 89.2575 56.2919 88.6108 56.6514L80.5432 52.9706C79.7227 52.5957 78.7714 52.6731 78.0145 53.1754C77.2646 53.6741 76.8259 54.529 76.8603 55.4285L77.1699 64.3208C76.5954 64.78 76.026 65.2495 75.4635 65.7242L66.8111 63.6775C65.932 63.4728 65.0049 63.7342 64.3685 64.3706C63.7286 65.0087 63.4688 65.9289 63.6752 66.813L65.705 75.4645C65.2319 76.0252 64.7641 76.5927 64.3048 77.1672L55.4115 76.8576C54.5154 76.8319 53.6569 77.2618 53.1581 78.0117C52.6558 78.7582 52.5802 79.7145 52.9534 80.5401L56.6346 88.6239C56.2768 89.2724 55.9224 89.9259 55.5802 90.5848L46.8245 92.0088C45.9351 92.1534 45.1851 92.7484 44.8463 93.5809C44.5022 94.4152 44.614 95.3697 45.1387 96.0921L50.3164 103.282C50.091 103.992 49.8726 104.705 49.6662 105.432L41.3578 108.528C40.5149 108.843 39.8939 109.572 39.7185 110.454C39.543 111.338 39.8372 112.243 40.496 112.862L46.9982 118.916C46.9174 119.647 46.8451 120.383 46.7832 121.118L39.2316 125.796C38.4662 126.269 38 127.105 38 128.014C38 128.924 38.4662 129.752 39.2316 130.217L46.7832 134.895C46.8451 135.631 46.9174 136.366 46.9982 137.096L40.496 143.151C39.8372 143.764 39.543 144.676 39.7185 145.558C39.8939 146.445 40.5149 147.172 41.3578 147.485L49.6662 150.581C49.8726 151.3 50.091 152.014 50.3164 152.731L45.1387 159.92C44.6123 160.653 44.5005 161.604 44.8463 162.431C45.192 163.266 45.9438 163.861 46.8417 164.004L55.5973 165.427C55.9396 166.092 56.2905 166.745 56.6518 167.389L52.9706 175.455C52.5957 176.275 52.6731 177.226 53.1753 177.983C53.6776 178.735 54.5325 179.174 55.4288 179.137L64.3048 178.827C64.7675 179.404 65.2337 179.97 65.7085 180.532L63.6786 189.184C63.4722 190.061 63.732 190.973 64.3719 191.609C65.0067 192.251 65.9303 192.507 66.8145 192.301L75.467 190.271C76.0294 190.749 76.5988 191.213 77.1734 191.671L76.8637 200.563C76.8293 201.463 77.268 202.318 78.018 202.816C78.7645 203.316 79.7209 203.393 80.5466 203.018L88.6142 199.337C89.2644 199.699 89.9181 200.049 90.5752 200.392L92.0029 209.146C92.1474 210.037 92.7426 210.79 93.5752 211.141C94.406 211.487 95.3641 211.375 96.0866 210.85L103.277 205.674C103.987 205.899 104.701 206.119 105.427 206.325L108.523 214.632C108.838 215.476 109.567 216.1 110.45 216.272C111.334 216.45 112.239 216.155 112.858 215.494L118.914 208.993C119.644 209.077 120.381 209.148 121.115 209.213L125.794 216.763C126.265 217.526 127.103 217.995 127.995 217.995C128.888 217.995 129.733 217.528 130.215 216.763L134.894 209.213C135.63 209.148 136.365 209.077 137.095 208.993L143.151 215.494C143.764 216.155 144.676 216.45 145.559 216.272C146.445 216.098 147.174 215.476 147.485 214.632L150.582 206.325C151.3 206.119 152.015 205.899 152.732 205.674L159.922 210.85C160.653 211.375 161.606 211.487 162.433 211.141C163.266 210.799 163.861 210.044 164.005 209.146L165.434 200.392C166.094 200.049 166.748 199.693 167.395 199.337L175.462 203.018C176.282 203.393 177.234 203.316 177.99 202.816C178.74 202.314 179.178 201.463 179.145 200.563L178.836 191.671C179.41 191.212 179.98 190.749 180.54 190.271L189.192 192.301C190.071 192.507 190.998 192.251 191.635 191.609C192.275 190.971 192.535 190.054 192.328 189.184L190.298 180.532C190.773 179.97 191.241 179.404 191.698 178.827L200.592 179.137C201.488 179.174 202.346 178.735 202.845 177.983C203.348 177.234 203.425 176.279 203.048 175.455L199.367 167.389C199.726 166.737 200.079 166.083 200.42 165.427L209.176 164.004C210.066 163.861 210.816 163.266 211.154 162.431C211.497 161.601 211.389 160.643 210.861 159.92L205.684 152.731C205.908 152.02 206.125 151.306 206.334 150.581L214.642 147.485C215.487 147.168 216.109 146.441 216.282 145.558C216.46 144.674 216.165 143.77 215.504 143.151L209.002 137.096C209.081 136.366 209.153 135.629 209.217 134.895L216.769 130.217C217.534 129.745 218 128.907 218 128.014C218 127.123 217.536 126.277 216.77 125.796H216.717ZM166.144 188.575C163.254 187.953 161.43 185.101 162.05 182.212C162.667 179.322 165.507 177.481 168.397 178.1C171.287 178.718 173.128 181.574 172.509 184.464C171.889 187.354 169.051 189.195 166.161 188.575H166.144ZM163.581 171.204C160.949 170.639 158.352 172.314 157.801 174.953L155.118 187.474C146.843 191.224 137.571 193.322 127.939 193.322C118.031 193.322 108.673 191.138 100.244 187.216L97.5607 174.695C96.9965 172.063 94.4129 170.377 91.781 170.945L80.7203 173.319C78.6733 171.204 76.764 168.95 75.0093 166.577H128.851C129.46 166.577 129.866 166.467 129.866 165.913V146.821C129.866 146.267 129.46 146.158 128.851 146.158H113.111V134.1H130.123C131.676 134.1 138.432 134.544 140.582 143.181C141.258 145.83 142.749 154.465 143.764 157.234C144.776 160.33 148.891 166.522 153.277 166.522H180.112C180.416 166.522 180.741 166.487 181.084 166.426C179.225 168.954 177.179 171.344 174.994 173.581L163.675 171.155L163.581 171.204ZM89.0976 188.317C86.2077 188.94 83.3694 187.099 82.7502 184.206C82.1326 181.317 83.968 178.461 86.8614 177.842C89.7513 177.225 92.5895 179.065 93.2088 181.953C93.8263 184.843 91.9892 187.698 89.0976 188.317ZM68.6275 105.586C69.8248 108.286 68.6069 111.452 65.9097 112.655C63.2091 113.854 60.0612 112.635 58.857 109.938C57.6529 107.241 58.8777 104.073 61.5749 102.868C64.2756 101.672 67.4234 102.889 68.6275 105.586ZM62.349 120.447L73.8741 115.322C76.3339 114.229 77.452 111.348 76.3512 108.889L73.9773 103.523H83.3006V145.49H64.5508C62.9183 139.745 62.0394 133.691 62.0394 127.43C62.0394 125.039 62.1683 122.683 62.416 120.361L62.349 120.447ZM112.922 116.37V103.987H135.112C136.259 103.987 143.214 105.313 143.214 110.506C143.214 114.822 137.881 116.37 133.495 116.37H112.853H112.922ZM193.597 127.516C193.597 129.16 193.537 130.784 193.417 132.401H186.657C185.981 132.401 185.709 132.845 185.709 133.506V136.602C185.709 143.895 181.598 145.495 177.985 145.89C174.545 146.277 170.744 144.453 170.279 142.347C168.249 130.944 164.878 128.518 159.545 124.288C166.168 120.091 173.049 113.882 173.049 105.54C173.049 96.5788 166.908 90.9373 162.727 88.1682C156.845 84.2983 150.342 83.5243 148.587 83.5243H78.749C88.2271 72.9636 101.111 65.4645 115.56 62.7126L123.801 71.3468C125.658 73.2904 128.737 73.3764 130.698 71.5051L139.918 62.6988C159.184 66.2936 175.525 78.2989 184.986 94.8623L178.674 109.104C177.585 111.563 178.696 114.453 181.15 115.537L193.295 120.937C193.505 123.087 193.615 125.271 193.615 127.473L193.597 127.516ZM123.759 55.4491C125.892 53.4023 129.281 53.4884 131.31 55.6228C133.341 57.7556 133.271 61.144 131.133 63.1907C129 65.2375 125.611 65.1515 123.582 63.0153C121.552 60.8825 121.621 57.4942 123.759 55.4474V55.4491ZM186.373 105.845C187.568 103.144 190.725 101.923 193.426 103.127C196.126 104.324 197.348 107.495 196.143 110.196C194.948 112.896 191.791 114.118 189.091 112.913C186.39 111.716 185.169 108.545 186.373 105.845Z" fill="white"/>
</g>
<defs>
<clipPath id="clip0_30_490">
<rect width="256" height="256" fill="white"/>
</clipPath>
</defs>
</svg>
