<svg width="256" height="256" viewBox="0 0 256 256" fill="none" xmlns="http://www.w3.org/2000/svg">
<g clip-path="url(#clip0_196_214)">
<rect width="256" height="256" rx="56" fill="#CD6799"/>
<path d="M192.994 138.555C186.714 138.588 181.257 140.1 176.687 142.334C175.01 139.015 173.333 136.058 173.037 133.889C172.708 131.359 172.314 129.815 172.708 126.792C173.103 123.768 174.879 119.465 174.845 119.136C174.813 118.807 174.451 117.263 170.834 117.23C167.218 117.198 164.095 117.92 163.733 118.873C163.371 119.826 162.681 121.995 162.221 124.229C161.596 127.515 154.987 139.246 151.207 145.39C149.99 142.992 148.938 140.888 148.708 139.212C148.379 136.683 147.985 135.138 148.379 132.115C148.773 129.092 150.549 124.787 150.516 124.459C150.484 124.13 150.122 122.586 146.505 122.553C142.889 122.52 139.765 123.243 139.404 124.196C139.042 125.149 138.647 127.384 137.891 129.552C137.135 131.721 128.357 151.305 126.055 156.365C124.872 158.96 123.852 161.03 123.129 162.443C123.129 162.443 123.096 162.542 122.998 162.706C122.373 163.922 122.011 164.579 122.011 164.579C122.011 164.579 122.011 164.579 122.011 164.612C121.518 165.5 120.992 166.32 120.729 166.32C120.531 166.32 120.17 163.955 120.794 160.735C122.11 153.933 125.233 143.352 125.201 142.992C125.201 142.794 125.792 140.954 123.162 140.001C120.597 139.048 119.677 140.625 119.446 140.625C119.217 140.625 119.052 141.184 119.052 141.184C119.052 141.184 121.913 129.289 113.595 129.289C108.4 129.289 101.232 134.973 97.6816 140.1C95.4459 141.316 90.6787 143.911 85.5826 146.704C83.6429 147.788 81.6373 148.873 79.7633 149.892C79.6318 149.76 79.5003 149.596 79.3688 149.464C69.3082 138.719 50.6994 131.13 51.4885 116.704C51.7844 111.447 53.5926 97.6462 87.2265 80.8882C114.909 67.2518 136.938 71.0306 140.752 79.4096C146.209 91.3701 128.949 113.582 100.345 116.802C89.4294 118.018 83.7086 113.813 82.262 112.236C80.7496 110.592 80.5195 110.494 79.9606 110.823C79.04 111.315 79.6318 112.794 79.9606 113.648C80.8153 115.883 84.3333 119.826 90.2841 121.764C95.5446 123.473 108.334 124.426 123.819 118.446C141.146 111.743 154.692 93.1116 150.713 77.5037C146.736 61.6659 120.433 56.4413 95.5446 65.2803C80.7496 70.5377 64.7053 78.8181 53.1652 89.5958C39.4553 102.411 37.2853 113.55 38.173 118.215C41.3621 134.776 64.2122 145.554 73.3521 153.539C72.8919 153.801 72.4645 154.032 72.1028 154.229C67.5328 156.496 50.1076 165.598 45.7677 175.226C40.8361 186.135 46.5569 193.955 50.3378 195.006C62.0751 198.26 74.1412 192.411 80.6181 182.75C87.095 173.089 86.306 160.538 83.3141 154.788C83.2812 154.722 83.2484 154.656 83.1825 154.591C84.3662 153.9 85.5826 153.178 86.7663 152.487C89.1006 151.108 91.402 149.826 93.3746 148.774C92.2568 151.83 91.4349 155.477 91.0403 160.735C90.5472 166.913 93.0787 174.93 96.3994 178.084C97.8789 179.464 99.6214 179.497 100.739 179.497C104.619 179.497 106.362 176.277 108.301 172.466C110.668 167.799 112.806 162.378 112.806 162.378C112.806 162.378 110.142 177.033 117.375 177.033C120.005 177.033 122.668 173.616 123.852 171.874C123.852 171.907 123.852 171.907 123.852 171.907C123.852 171.907 123.918 171.809 124.05 171.578C124.313 171.151 124.477 170.888 124.477 170.888C124.477 170.888 124.477 170.856 124.477 170.822C125.529 168.983 127.896 164.809 131.414 157.876C135.951 148.939 140.324 137.767 140.324 137.767C140.324 137.767 140.718 140.494 142.066 145.028C142.855 147.69 144.5 150.615 145.814 153.44C144.763 154.919 144.105 155.74 144.105 155.74C144.105 155.74 144.105 155.74 144.138 155.773C143.283 156.89 142.363 158.106 141.343 159.289C137.759 163.561 133.485 168.457 132.894 169.87C132.203 171.546 132.368 172.761 133.683 173.747C134.636 174.47 136.345 174.568 138.088 174.47C141.31 174.239 143.579 173.451 144.697 172.958C146.439 172.334 148.478 171.381 150.384 169.968C153.903 167.372 156.04 163.659 155.843 158.763C155.743 156.069 154.856 153.375 153.771 150.844C154.1 150.384 154.395 149.924 154.724 149.464C160.281 141.348 164.587 132.443 164.587 132.443C164.587 132.443 164.982 135.171 166.33 139.706C166.987 142.005 168.335 144.503 169.52 146.934C164.292 151.173 161.07 156.102 159.919 159.322C157.848 165.303 159.459 167.996 162.516 168.621C163.898 168.917 165.87 168.26 167.317 167.635C169.158 167.044 171.328 166.025 173.399 164.513C176.917 161.918 180.303 158.303 180.106 153.407C180.007 151.173 179.415 148.971 178.593 146.835C183.032 144.996 188.753 143.977 196.052 144.831C211.702 146.672 214.792 156.43 214.2 160.538C213.608 164.645 210.32 166.879 209.235 167.57C208.151 168.26 207.789 168.489 207.888 168.983C208.02 169.705 208.545 169.672 209.466 169.541C210.748 169.311 217.685 166.222 217.981 158.665C218.475 149.004 209.269 138.456 192.994 138.555ZM72.2672 179.235C67.0725 184.886 59.8394 187.022 56.7161 185.215C53.3625 183.276 54.6777 174.93 61.0559 168.949C64.9355 165.303 69.9328 161.918 73.2535 159.848C74.0097 159.388 75.1276 158.731 76.4756 157.909C76.7056 157.778 76.8372 157.712 76.8372 157.712C77.1002 157.547 77.3632 157.383 77.6262 157.219C79.9606 165.762 77.7248 173.287 72.2672 179.235ZM110.076 153.539C108.268 157.942 104.488 169.212 102.186 168.588C100.213 168.062 98.9967 159.519 101.791 151.074C103.205 146.835 106.197 141.776 107.939 139.804C110.767 136.649 113.89 135.598 114.646 136.88C115.6 138.555 111.195 150.778 110.076 153.539ZM141.278 168.457C140.521 168.851 139.798 169.114 139.469 168.917C139.239 168.785 139.798 168.26 139.798 168.26C139.798 168.26 143.711 164.053 145.256 162.148C146.143 161.03 147.196 159.716 148.313 158.238C148.313 158.369 148.313 158.534 148.313 158.665C148.313 163.692 143.448 167.076 141.278 168.457ZM165.344 162.969C164.785 162.575 164.884 161.261 166.758 157.153C167.481 155.543 169.191 152.849 172.117 150.253C172.445 151.305 172.676 152.323 172.643 153.276C172.61 159.618 168.072 161.983 165.344 162.969Z" fill="white"/>
</g>
<defs>
<clipPath id="clip0_196_214">
<rect width="256" height="256" fill="white"/>
</clipPath>
</defs>
</svg>
