<svg width="256" height="256" viewBox="0 0 256 256" fill="none" xmlns="http://www.w3.org/2000/svg">
<path d="M196 0H60C26.8629 0 0 26.8629 0 60V196C0 229.137 26.8629 256 60 256H196C229.137 256 256 229.137 256 196V60C256 26.8629 229.137 0 196 0Z" fill="#CD6799"/>
<path d="M200.216 139.173C193.238 139.209 187.174 140.889 182.097 143.371C180.233 139.684 178.37 136.398 178.041 133.988C177.676 131.177 177.238 129.461 177.676 126.102C178.114 122.743 180.087 117.961 180.05 117.596C180.014 117.23 179.612 115.515 175.594 115.478C171.575 115.442 168.105 116.245 167.703 117.304C167.301 118.362 166.535 120.772 166.023 123.255C165.329 126.906 157.986 139.94 153.785 146.767C152.433 144.102 151.265 141.765 151.009 139.903C150.643 137.092 150.205 135.376 150.643 132.017C151.082 128.658 153.055 123.875 153.018 123.51C152.982 123.145 152.579 121.429 148.561 121.393C144.543 121.356 141.072 122.159 140.671 123.218C140.268 124.277 139.83 126.76 138.99 129.169C138.15 131.579 128.397 153.339 125.839 158.961C124.524 161.845 123.392 164.145 122.588 165.715C122.588 165.715 122.551 165.825 122.442 166.007C121.748 167.358 121.345 168.088 121.345 168.088C121.345 168.088 121.345 168.088 121.345 168.125C120.798 169.111 120.213 170.023 119.921 170.023C119.701 170.023 119.3 167.395 119.994 163.817C121.456 156.259 124.926 144.503 124.889 144.102C124.889 143.883 125.547 141.838 122.624 140.779C119.775 139.72 118.752 141.473 118.496 141.473C118.241 141.473 118.058 142.094 118.058 142.094C118.058 142.094 121.236 128.877 111.994 128.877C106.222 128.877 98.2582 135.193 94.3129 140.889C91.8288 142.24 86.5318 145.124 80.8696 148.227C78.7143 149.432 76.4859 150.637 74.4036 151.769C74.2576 151.623 74.1115 151.44 73.9653 151.294C62.7869 139.355 42.1105 130.922 42.9872 114.894C43.316 109.052 45.3251 93.718 82.6961 75.098C113.455 59.9465 137.931 64.1451 142.168 73.4551C148.232 86.7446 129.054 111.425 97.2719 115.003C85.1437 116.354 78.7874 111.681 77.18 109.929C75.4996 108.103 75.2439 107.994 74.6229 108.359C73.6 108.906 74.2576 110.549 74.6229 111.498C75.5726 113.981 79.4815 118.362 86.0935 120.516C91.9385 122.415 106.149 123.474 123.355 116.829C142.607 109.381 157.657 88.6796 153.237 71.3375C148.817 53.7399 119.592 47.9348 91.9385 57.7559C75.4996 63.5975 57.6726 72.7979 44.8503 84.7731C29.617 99.0119 27.2059 111.389 28.1922 116.573C31.7357 134.974 57.1247 146.949 67.2801 155.821C66.7687 156.113 66.2939 156.369 65.892 156.588C60.8142 159.107 41.4529 169.22 36.6308 179.918C31.1512 192.039 37.5076 200.728 41.7086 201.896C54.7501 205.511 68.1569 199.012 75.3535 188.278C82.55 177.544 81.6733 163.598 78.349 157.209C78.3125 157.136 78.276 157.063 78.2028 156.99C79.518 156.223 80.8696 155.42 82.1847 154.653C84.7784 153.12 87.3355 151.696 89.5274 150.527C88.2854 153.923 87.3721 157.975 86.9337 163.817C86.3858 170.681 89.1986 179.589 92.8882 183.094C94.5322 184.627 96.4683 184.664 97.7103 184.664C102.021 184.664 103.957 181.086 106.113 176.851C108.742 171.666 111.118 165.642 111.118 165.642C111.118 165.642 108.158 181.926 116.194 181.926C119.117 181.926 122.076 178.129 123.392 176.194C123.392 176.23 123.392 176.23 123.392 176.23C123.392 176.23 123.465 176.121 123.611 175.865C123.903 175.39 124.085 175.098 124.085 175.098C124.085 175.098 124.085 175.062 124.085 175.025C125.255 172.981 127.884 168.344 131.793 160.64C136.834 150.71 141.693 138.297 141.693 138.297C141.693 138.297 142.131 141.327 143.629 146.365C144.506 149.323 146.333 152.572 147.794 155.712C146.625 157.355 145.895 158.267 145.895 158.267C145.895 158.267 145.895 158.267 145.931 158.304C144.981 159.545 143.959 160.896 142.826 162.21C138.844 166.957 134.095 172.397 133.437 173.967C132.67 175.829 132.853 177.179 134.314 178.275C135.374 179.078 137.273 179.187 139.209 179.078C142.789 178.822 145.31 177.946 146.552 177.398C148.488 176.705 150.753 175.646 152.872 174.076C156.781 171.192 159.155 167.066 158.936 161.626C158.826 158.632 157.84 155.639 156.635 152.827C157 152.316 157.328 151.805 157.693 151.294C163.868 142.276 168.653 132.382 168.653 132.382C168.653 132.382 169.091 135.412 170.589 140.451C171.319 143.006 172.817 145.781 174.133 148.483C168.325 153.193 164.745 158.669 163.466 162.247C161.164 168.892 162.954 171.885 166.351 172.579C167.886 172.908 170.078 172.178 171.686 171.484C173.731 170.827 176.142 169.695 178.443 168.015C182.352 165.131 186.115 161.115 185.896 155.675C185.786 153.193 185.128 150.746 184.215 148.373C189.147 146.329 195.503 145.197 203.613 146.146C221.002 148.191 224.436 159.034 223.778 163.598C223.12 168.161 219.467 170.644 218.261 171.411C217.057 172.178 216.654 172.433 216.765 172.981C216.911 173.784 217.495 173.747 218.518 173.601C219.942 173.346 227.65 169.914 227.979 161.517C228.527 150.783 218.298 139.063 200.216 139.173ZM66.0746 184.372C60.3028 190.651 52.266 193.025 48.7956 191.017C45.0695 188.862 46.5307 179.589 53.6176 172.944C57.9283 168.892 63.4809 165.131 67.1706 162.831C68.0107 162.32 69.2529 161.59 70.7506 160.677C71.0063 160.531 71.1525 160.458 71.1525 160.458C71.4446 160.275 71.7369 160.093 72.0292 159.91C74.6229 169.403 72.1387 177.764 66.0746 184.372ZM108.085 155.821C106.076 160.714 101.875 173.236 99.3176 172.543C97.1258 171.958 95.7742 162.466 98.8793 153.083C100.45 148.373 103.774 142.751 105.71 140.56C108.852 137.055 112.322 135.887 113.163 137.311C114.222 139.173 109.327 152.754 108.085 155.821ZM142.753 172.397C141.912 172.835 141.109 173.127 140.744 172.908C140.488 172.762 141.109 172.178 141.109 172.178C141.109 172.178 145.456 167.504 147.173 165.387C148.159 164.145 149.329 162.685 150.57 161.042C150.57 161.188 150.57 161.371 150.57 161.517C150.57 167.103 145.164 170.863 142.753 172.397ZM169.493 166.299C168.872 165.861 168.982 164.401 171.064 159.837C171.868 158.048 173.768 155.055 177.019 152.17C177.384 153.339 177.64 154.47 177.603 155.529C177.567 162.576 172.525 165.204 169.493 166.299Z" fill="white"/>
</svg>
