<svg width="256" height="256" viewBox="0 0 256 256" fill="none" xmlns="http://www.w3.org/2000/svg">
<path fill-rule="evenodd" clip-rule="evenodd" d="M71.1611 104.979C72.7313 107.143 85.9709 111.226 105.72 115.477C125.469 119.263 146.007 134.208 161.981 129.599C172.784 126.476 184.505 98.6477 184.505 94.5146V94.0902C184.505 91.2046 182.34 88.8878 178.666 86.9612C163.601 79.2635 160.749 76.4289 155.165 77.965C126.174 85.9683 74.9887 81.8775 71.1611 104.979Z" fill="#380D09"/>
<path fill-rule="evenodd" clip-rule="evenodd" d="M71.1611 161.486C72.7313 163.683 85.9709 167.732 105.72 171.992C127.786 176.015 146.975 189.127 162.956 184.511C173.76 181.387 184.505 155.163 184.505 151.021V150.614C184.505 147.737 182.34 145.412 178.666 143.494C167.174 137.383 151.991 130.653 146.415 132.189C117.373 140.175 78.5533 141.931 71.1611 161.486Z" fill="#380D09"/>
<path fill-rule="evenodd" clip-rule="evenodd" d="M70.9997 117.125V117.531C70.991 117.395 70.991 117.26 70.9997 117.125Z" fill="#555555"/>
<path fill-rule="evenodd" clip-rule="evenodd" d="M162.914 48.9228C136.214 56.6374 93.8552 60.9912 71.0337 60.9912V104.572C71.041 104.721 71.0977 104.865 71.195 104.979C86.7686 104.979 134.847 99.8869 163.855 91.9092C168.915 90.6215 173.875 88.9736 178.699 86.9782C182.247 85.3827 184.538 83.7022 184.538 81.954V38C184.504 42.1416 173.717 45.808 162.914 48.9228Z" fill="#DE3423"/>
<path fill-rule="evenodd" clip-rule="evenodd" d="M162.914 105.438C146.933 110.046 125.368 113.475 105.72 115.478C92.5312 116.827 80.2081 117.531 71.0337 117.531V161.078C71.041 161.228 71.0977 161.371 71.195 161.485C86.7686 161.485 134.847 156.393 163.855 148.424C168.913 147.132 173.874 145.485 178.699 143.493C182.247 141.889 184.538 140.218 184.538 138.469V94.5149C184.504 98.6481 173.717 102.314 162.914 105.438Z" fill="#DE3423"/>
<path fill-rule="evenodd" clip-rule="evenodd" d="M162.913 161.986C146.932 166.595 125.367 170.015 105.719 172.026C92.5137 173.375 80.1737 174.08 70.9993 174.08V218C86.4116 218 134.736 212.95 163.821 204.938C174.54 201.986 184.504 198.624 184.504 194.975V151.021C184.504 155.196 173.717 158.829 162.913 161.986Z" fill="#DE3423"/>
</svg>
