<svg width="256" height="256" viewBox="0 0 256 256" fill="none" xmlns="http://www.w3.org/2000/svg">
<g clip-path="url(#clip0_196_218)">
<rect width="256" height="256" rx="56" fill="#59B943"/>
<path fill-rule="evenodd" clip-rule="evenodd" d="M229.145 0H250.453V256H248.472C248.973 256 249.452 255.802 249.807 255.449C250.161 255.096 250.359 254.616 250.359 254.118V38.0988C250.51 37.6595 250.478 37.1787 250.273 36.7621C250.068 36.3456 249.705 36.0274 249.264 35.8777C248.824 35.7279 248.342 35.7588 247.925 35.9635C247.507 36.1683 247.188 36.53 247.038 36.9694L167.768 125.741C167.542 125.986 167.267 126.18 166.962 126.313C166.657 126.447 166.327 126.515 165.993 126.515C165.661 126.515 165.331 126.447 165.025 126.313C164.72 126.18 164.446 125.986 164.22 125.741L123.754 84.1036C123.411 83.6762 123.224 83.1451 123.224 82.5977C123.224 82.0502 123.411 81.5191 123.754 81.0918L137.116 64C137.34 63.6891 137.635 63.4357 137.976 63.2611C138.318 63.0864 138.696 62.9952 139.08 62.9952C139.463 62.9952 139.841 63.0864 140.182 63.2611C140.524 63.4357 140.819 63.6891 141.042 64L163.691 88.9977C163.918 89.2668 164.2 89.4832 164.521 89.6317C164.84 89.7802 165.188 89.8572 165.541 89.8572C165.893 89.8572 166.242 89.7802 166.561 89.6317C166.88 89.4832 167.163 89.2668 167.39 88.9977L230.504 2.71059C230.68 2.45559 230.783 2.15834 230.805 1.84975C230.827 1.54115 230.764 1.23246 230.626 0.955791C230.487 0.67911 230.276 0.444539 230.016 0.276451C229.756 0.108373 229.455 0.0129151 229.145 0ZM6.88738 0H5V1.88236C5 1.38312 5.19885 0.904341 5.5528 0.55133C5.90675 0.198318 6.38681 0 6.88738 0ZM5 254.118V256H6.88738C6.38681 256 5.90675 255.802 5.5528 255.449C5.19885 255.096 5 254.616 5 254.118ZM167.007 162.076C162.32 161.934 157.751 163.549 154.208 166.602C150.664 169.654 148.406 173.919 147.881 178.55C147.858 178.64 147.856 178.734 147.875 178.824C147.894 178.915 147.934 179 147.993 179.072C148.051 179.144 148.125 179.202 148.21 179.241C148.295 179.28 148.388 179.299 148.481 179.296H185.608C185.694 179.296 185.779 179.279 185.857 179.244C185.935 179.21 186.005 179.159 186.062 179.095C186.119 179.032 186.162 178.957 186.187 178.876C186.212 178.794 186.219 178.709 186.209 178.625C185.843 173.91 183.623 169.529 180.028 166.43C176.434 163.332 171.755 161.767 167.007 162.076ZM30.0644 212.857C41.9932 223.31 57.5393 228.713 73.3986 227.916H73.3231C101.936 227.916 115.751 213.308 115.751 194.183C115.751 170.197 93.4312 164.853 75.8273 160.639C64.3651 157.894 54.9024 155.629 54.9024 149.007C54.9024 142.682 60.338 138.391 70.0014 138.391C80.5212 138.293 90.7557 141.801 98.9915 148.329C99.2349 148.538 99.5186 148.693 99.8249 148.787C100.131 148.881 100.453 148.911 100.772 148.876C101.09 148.84 101.398 148.741 101.677 148.582C101.955 148.423 102.197 148.209 102.388 147.953L111.674 135.078C112.094 134.643 112.329 134.062 112.329 133.458C112.329 132.855 112.094 132.275 111.674 131.84C100.505 122.786 86.4237 118.078 72.0397 118.588C46.9753 118.588 31.8763 133.196 31.8763 150.739C31.8763 174.327 53.3523 179.414 70.8186 183.55C82.7892 186.385 92.8764 188.774 92.8764 196.367C92.8764 202.391 86.8368 208.113 74.4556 208.113C62.6999 208.149 51.3683 203.736 42.7476 195.764C42.481 195.602 42.1845 195.496 41.8757 195.449C41.5669 195.403 41.2519 195.419 40.9494 195.497C40.6469 195.573 40.3629 195.711 40.1142 195.898C39.8655 196.087 39.6571 196.323 39.5013 196.593L30.0644 209.769C29.6875 210.196 29.4796 210.745 29.4796 211.313C29.4796 211.882 29.6875 212.43 30.0644 212.857ZM206.282 192.066C206.385 191.805 206.432 191.526 206.421 191.247L206.345 188.838C206.345 163.162 190.416 145.619 166.937 145.619C161.52 145.525 156.139 146.528 151.119 148.566C146.101 150.605 141.55 153.637 137.739 157.479C133.928 161.322 130.939 165.896 128.95 170.923C126.961 175.95 126.016 181.328 126.17 186.729C125.951 192.265 126.894 197.783 128.939 202.934C130.984 208.084 134.085 212.751 138.044 216.636C142.003 220.521 146.733 223.538 151.93 225.493C157.126 227.449 162.675 228.299 168.221 227.991C179.322 228.27 190.204 224.881 199.174 218.353C199.581 218.027 199.852 217.562 199.937 217.047C200.02 216.532 199.91 216.006 199.626 215.567L192.832 205.703C192.675 205.462 192.468 205.256 192.225 205.1C191.983 204.945 191.709 204.842 191.425 204.799C191.139 204.757 190.847 204.775 190.569 204.853C190.291 204.93 190.033 205.067 189.812 205.252C184.143 209.229 177.415 211.43 170.485 211.577C165.205 212.011 159.952 210.46 155.761 207.228C151.569 203.995 148.743 199.315 147.837 194.108C147.826 194.019 147.834 193.929 147.859 193.843C147.883 193.757 147.925 193.676 147.981 193.606C148.037 193.536 148.107 193.478 148.186 193.434C148.265 193.391 148.351 193.364 148.441 193.356H204.307C204.588 193.366 204.867 193.318 205.129 193.217C205.39 193.114 205.627 192.959 205.826 192.761C206.024 192.564 206.18 192.327 206.282 192.066Z" fill="white"/>
</g>
<defs>
<clipPath id="clip0_196_218">
<rect width="256" height="256" fill="white"/>
</clipPath>
</defs>
</svg>
