<svg width="257" height="256" viewBox="0 0 257 256" fill="none" xmlns="http://www.w3.org/2000/svg">
<path d="M0.00195312 56C0.00195312 25.0721 25.074 0 56.002 0H200.002C230.93 0 256.002 25.0721 256.002 56V200C256.002 230.928 230.93 256 200.002 256H56.002C25.074 256 0.00195312 230.928 0.00195312 200V56Z" fill="#0F172A"/>
<path d="M157.548 28L36 43.8399V44.7576L53.5582 149.708L78.511 228L206.734 191.488L220.141 77.1176L157.548 28ZM154.289 40.146L204.81 79.8513L159.917 87.9243L132.516 59.408L56.221 70.5196L49.2631 53.8602L154.289 40.146ZM133.552 90.1487L159.555 122.586L117.404 131.558L107.331 114.218L68.5113 121.779L61.4745 102.889L133.552 90.1487ZM110.219 148.597L119.779 167.411L80.8198 177.113L73.9253 156.888L110.219 148.597Z" fill="#E7242D"/>
</svg>
