<svg width="256" height="256" viewBox="0 0 256 256" fill="none" xmlns="http://www.w3.org/2000/svg">
<path d="M196 0H60C26.8629 0 0 26.8629 0 60V196C0 229.137 26.8629 256 60 256H196C229.137 256 256 229.137 256 196V60C256 26.8629 229.137 0 196 0Z" fill="#65AFFF"/>
<path opacity="0.45" d="M164.395 28L127.913 85.1492H55L91.4567 28H164.395Z" fill="black"/>
<path opacity="0.6" d="M127.913 85.1492H200.852L164.396 28H91.457L127.913 85.1492Z" fill="black"/>
<path opacity="0.8" d="M91.4567 142.276L127.913 85.1492L91.4567 28L55 85.1492L91.4567 142.276Z" fill="black"/>
<path opacity="0.45" d="M91.8105 228L128.292 170.851H201.231L164.749 228H91.8105Z" fill="black"/>
<path opacity="0.6" d="M128.292 170.851H55.3535L91.8099 228H164.748L128.292 170.851Z" fill="black"/>
<path opacity="0.8" d="M164.747 113.724L128.291 170.851L164.747 228L201.229 170.851L164.747 113.724Z" fill="black"/>
</svg>
