<svg width="256" height="256" viewBox="0 0 256 256" fill="none" xmlns="http://www.w3.org/2000/svg">
<g clip-path="url(#clip0_30_353)">
<path d="M196 0H60C26.8629 0 0 26.8629 0 60V196C0 229.137 26.8629 256 60 256H196C229.137 256 256 229.137 256 196V60C256 26.8629 229.137 0 196 0Z" fill="#65AFFF"/>
<path opacity="0.45" d="M160.456 38L127.621 89.4343H62L94.811 38H160.456Z" fill="black"/>
<path opacity="0.6" d="M127.621 89.4343H193.266L160.456 38H94.811L127.621 89.4343Z" fill="black"/>
<path opacity="0.8" d="M94.811 140.848L127.621 89.4343L94.811 38L62 89.4343L94.811 140.848Z" fill="black"/>
<path opacity="0.45" d="M95.1289 218L127.963 166.566H193.608L160.773 218H95.1289Z" fill="black"/>
<path opacity="0.6" d="M127.963 166.566H62.3179L95.1286 218H160.773L127.963 166.566Z" fill="black"/>
<path opacity="0.8" d="M160.773 115.151L127.962 166.566L160.773 218L193.607 166.566L160.773 115.151Z" fill="black"/>
</g>
<defs>
<clipPath id="clip0_30_353">
<rect width="256" height="256" fill="white"/>
</clipPath>
</defs>
</svg>
