<svg width="257" height="256" viewBox="0 0 257 256" fill="none" xmlns="http://www.w3.org/2000/svg">
<path d="M0.00195312 56C0.00195312 25.0721 25.074 0 56.002 0H200.002C230.93 0 256.002 25.0721 256.002 56V200C256.002 230.928 230.93 256 200.002 256H56.002C25.074 256 0.00195312 230.928 0.00195312 200V56Z" fill="#0F172A"/>
<path d="M209.545 171.821C184.93 204.618 132.347 193.547 98.6354 195.139C98.6354 195.139 92.6674 195.471 86.6564 196.461C86.6564 196.461 88.9293 195.491 91.828 194.492C115.506 186.304 126.695 184.659 141.082 177.269C168.114 163.421 195.018 133.259 200.492 101.925C190.202 132.061 158.909 157.998 130.415 168.53C110.911 175.727 75.642 182.731 75.6369 182.734C75.6534 182.759 74.2313 181.996 74.2114 181.979C50.2253 170.309 49.5332 118.359 93.0966 101.613C112.197 94.2663 130.466 98.3017 151.114 93.3872C173.136 88.1512 198.642 71.6442 209.009 50.0631C220.631 84.5353 234.592 138.467 209.545 171.821ZM209.973 39.381C207.043 46.3431 203.466 52.6168 199.344 58.2282C181.197 39.6039 155.868 28 127.871 28C72.799 28 28 72.8041 28 127.866C28 156.731 40.3209 182.764 59.9644 201.012L62.1514 202.949C58.4993 199.971 57.9377 194.608 60.8977 190.952C63.8759 187.295 69.2445 186.728 72.8984 189.69C76.5621 192.658 77.1203 198.035 74.1539 201.697C71.1985 205.361 65.8203 205.914 62.1614 202.958L63.6498 204.276C81.0255 218.906 103.424 227.743 127.871 227.743C180.511 227.743 223.736 186.778 227.436 135.073C230.176 109.757 222.699 77.6108 209.973 39.381Z" fill="#5FB832"/>
</svg>
