<svg width="256" height="256" viewBox="0 0 256 256" fill="none" xmlns="http://www.w3.org/2000/svg">
<path d="M201.384 167.439C179.23 196.957 131.906 186.993 101.565 188.425C101.565 188.425 96.1938 188.724 90.7839 189.615C90.7839 189.615 92.8295 188.742 95.4384 187.843C116.749 180.474 126.819 178.993 139.767 172.342C164.096 159.879 188.31 132.733 193.236 104.533C183.975 131.655 155.811 154.998 130.167 164.477C112.613 170.955 80.8709 177.258 80.8663 177.261C80.8812 177.283 79.6013 176.597 79.5834 176.581C57.996 166.078 57.3731 119.323 96.5801 104.252C113.771 97.6397 130.213 101.272 148.796 96.8485C168.616 92.1361 191.571 77.2797 200.902 57.8568C211.361 88.8818 223.926 137.421 201.384 167.439ZM201.769 48.2429C199.132 54.5088 195.913 60.1552 192.203 65.2054C175.871 48.4435 153.075 38 127.877 38C78.3122 38 37.9932 78.3237 37.9932 127.88C37.9932 153.858 49.082 177.288 66.7612 193.711L68.7295 195.454C65.4426 192.774 64.9371 187.948 67.6011 184.657C70.2815 181.366 75.1132 180.856 78.4017 183.521C81.699 186.193 82.2014 191.032 79.5316 194.328C76.8718 197.625 72.0314 198.123 68.7385 195.463L70.0779 196.649C85.7161 209.816 105.875 217.769 127.877 217.769C175.253 217.769 214.156 180.901 217.486 134.366C219.952 111.581 213.223 82.6497 201.769 48.2429Z" fill="#5FB832"/>
</svg>
