<svg width="256" height="256" viewBox="0 0 256 256" fill="none" xmlns="http://www.w3.org/2000/svg">
<g clip-path="url(#clip0_30_500)">
<path d="M196 0H60C26.8629 0 0 26.8629 0 60V196C0 229.137 26.8629 256 60 256H196C229.137 256 256 229.137 256 196V60C256 26.8629 229.137 0 196 0Z" fill="url(#paint0_linear_30_500)"/>
<path d="M44.669 129.107L80.9547 143.811V154.103L38 134.201V128.162L44.669 129.107ZM80.9547 117.03L44.7215 131.943L38 132.678V126.587L80.9547 106.737V117.03Z" fill="white"/>
<path d="M210.491 131.208L173.155 116.662V106.632L218 126.482V132.626L210.491 131.208ZM173.155 144.021L210.597 129.16L218 128.057V134.149L173.155 154.051V144.021Z" fill="white"/>
<path fill-rule="evenodd" clip-rule="evenodd" d="M163.392 80.0713C163.185 83.3651 161.701 86.8046 162.114 90.0065C164.706 94.5894 170.41 95.3206 175.116 95.6347C178.377 96.2173 178.335 94.0585 178.117 91.6333C178.13 87.7566 178.143 83.8799 178.157 80.0032C173.235 80.0208 168.312 79.9543 163.392 80.0713ZM124.584 89.2833C116.572 90.6429 108.45 94.4718 101.784 99.0813C96.4186 103.257 106.39 107.304 110.007 107.98C117.285 108.069 123.74 103.16 128.521 98.0641C130.082 95.9213 132.032 92.6418 130.071 90.1588C128.573 88.8602 126.395 89.1753 124.584 89.2833ZM141.634 100.936C135.046 102.19 128.778 104.906 123.232 108.686C119.166 109.963 115.814 114.428 120.853 116.664C126.144 120.881 132.276 119.848 137.148 117.001C141.61 114.349 146.43 111.076 148.495 106.083C150.445 100.614 145.414 100.41 141.634 100.936ZM160.323 122.131C159.096 127.255 153.936 129.585 151.19 133.645C148.946 136.607 149.985 140.096 152.541 142.427C153.785 145.008 155.966 146.449 158.306 144.208C164.33 140.113 165.996 132.135 165.746 125.222C166.191 122.367 162.916 124.948 160.323 122.131ZM137.397 131.755C129.397 133.124 121.395 137.022 114.727 141.625C109.55 145.795 119.3 149.688 122.947 150.306C130.36 150.316 136.972 145.539 141.66 140.113C143.29 137.959 145.265 133.774 142.037 132.061C140.594 131.449 138.918 131.629 137.397 131.755Z" fill="#B956A6"/>
<path fill-rule="evenodd" clip-rule="evenodd" d="M101.784 99.0812C95.6313 101.543 89.6955 104.533 83.8346 107.663C82.7451 111.713 83.6187 116.728 83.3363 121.17C83.315 139.431 83.3255 157.693 83.3219 175.954C87.8473 175.954 92.3728 175.954 96.8982 175.954C99.6389 173.373 103.073 171.484 106.05 169.14C117.515 160.918 128.976 152.664 140.425 144.464C141.268 144.843 140.728 139.508 138.88 143.214C134.501 147.334 128.689 150.724 122.536 150.393C119.045 149.245 113.417 147.296 113.382 143.018C115.84 140.125 108.848 144.533 106.935 145.164C100.715 148.15 94.6429 151.485 88.4106 154.416C89.9088 152.807 92.7109 151.308 94.6968 149.712C108.888 139.525 123.075 129.299 137.299 119.12C140.035 117.2 142.678 115.104 145.499 113.309C145.756 114.303 146.239 108.553 144.142 112.093C139.866 116.332 134.098 119.487 128.015 119.53C124.594 118.491 117.307 116.008 118.929 111.59C119.72 110.04 111.58 114.895 115.177 112.157C119.005 109.36 122.863 106.612 126.721 103.844C128.669 103.698 128.254 96.461 125.607 101.129C121.16 105.036 115.317 108.611 109.193 107.764C105.752 106.774 101.624 104.855 100.373 101.257C99.9589 100.393 102.69 99.0469 101.784 99.0812ZM127.275 103.549C126.934 104.524 127.893 103.192 127.275 103.549V103.549Z" fill="#FCCC44"/>
<path fill-rule="evenodd" clip-rule="evenodd" d="M166.149 94.2455C164.229 103.419 162.129 113.019 160.323 122.13C165.511 128.668 166.014 118 166.921 114.983C168.388 108.678 170.125 103.917 170.309 97.3892C170.698 95.1617 168.08 93.8122 166.149 94.2455ZM172.101 101.439C171.939 102.379 172.338 101.616 172.101 101.439V101.439ZM166.049 122.007C166.299 122.544 166.299 121.469 166.049 122.007V122.007Z" fill="#62777F"/>
<path fill-rule="evenodd" clip-rule="evenodd" d="M169.552 95.2843C171.17 104.375 165.809 115.419 164.055 123.989C168.037 121.059 171.113 107.765 171.9 102.562C172.102 101.967 172.352 100.469 172.406 100.415C172.656 99.1516 174.988 97.0116 175.116 95.6347C176.474 94.6765 168.444 94.5222 169.552 95.2843ZM166.25 122.007C166 122.545 166 121.469 166.25 122.007V122.007Z" fill="#4E5E67"/>
<path fill-rule="evenodd" clip-rule="evenodd" d="M101.918 99.2325C99.6738 101.48 100.516 100.931 102.187 99.062L101.918 99.2325ZM126.198 100.346C123.598 104.253 114.221 107.521 113.04 107.774C118.681 106.717 123.939 103.208 127.638 99.0975C127.05 99.3593 126.701 99.9752 126.198 100.346ZM100.376 101.614C101.778 104.984 106.874 107.224 109.35 107.746C105.969 106.657 101.99 104.725 100.376 101.614ZM127.073 103.563C126.365 104.399 123.845 105.649 122.516 106.874C119.666 108.976 116.718 110.93 113.901 113.084C115.694 113.007 120.952 109.08 118.257 113.065C120.54 116.995 125.513 119.728 130.046 119.479C136.033 118.539 141.554 115.229 145.523 110.625C140.705 115.393 134.336 119.879 127.288 119.261C123.877 118.473 114.556 113.658 120.791 110.283C122.989 108.475 126.78 107.528 127.209 104.35C127.119 103.953 127.858 103.566 127.073 103.563V103.563ZM110.007 107.98C112.275 108.277 112.275 107.684 110.007 107.98V107.98ZM145.354 113.408C136.353 119.679 127.482 126.196 118.558 132.58C108.445 139.817 98.3756 147.082 88.2651 154.314C92.0665 153.032 95.8752 150.529 99.6517 148.8C104.852 146.049 110.336 143.876 115.202 140.534C124.823 134.87 134.998 129.474 142.398 120.808C144.013 118.914 145.632 115.865 145.705 113.814C145.472 113.88 145.648 112.994 145.354 113.408ZM114.726 141.624C113.107 143.454 112.449 144.762 114.13 142.435C114.1 142.705 115.494 140.99 114.726 141.624ZM139.364 142.5C135.098 146.998 128.789 150.243 122.869 150.461C129.713 150.511 135.887 146.449 140.524 141.656C140.22 141.288 139.603 142.513 139.364 142.5ZM140.668 143.914C126.336 154.347 111.509 165.169 97.1281 175.565C99.3939 176.276 104.326 176.609 106.577 173.708C111.367 170.403 116.752 167.973 121.557 164.623C128.516 160.108 135.967 155.172 139.919 147.583C140.107 146.565 141.506 144.735 140.668 143.914ZM113.392 144.576C114.057 147.383 122.371 150.606 121.469 149.989C118.404 148.914 115.363 147.239 113.392 144.576Z" fill="#DC9624"/>
</g>
<defs>
<linearGradient id="paint0_linear_30_500" x1="0" y1="256" x2="256" y2="1.52588e-05" gradientUnits="userSpaceOnUse">
<stop stop-color="#DB7093"/>
<stop offset="1" stop-color="#F3B661"/>
</linearGradient>
<clipPath id="clip0_30_500">
<rect width="256" height="256" fill="white"/>
</clipPath>
</defs>
</svg>
