<svg width="256" height="256" viewBox="0 0 256 256" fill="none" xmlns="http://www.w3.org/2000/svg">
<path d="M196 0H60C26.8629 0 0 26.8629 0 60V196C0 229.137 26.8629 256 60 256H196C229.137 256 256 229.137 256 196V60C256 26.8629 229.137 0 196 0Z" fill="url(#paint0_linear_30_500)"/>
<path d="M35.41 129.564L75.7275 145.901V157.337L28 135.224V128.514L35.41 129.564ZM75.7275 116.145L35.4684 132.714L28 133.532V126.763L75.7275 104.708V116.145Z" fill="white"/>
<path d="M219.656 131.898L178.172 115.736V104.592L228 126.646V133.473L219.656 131.898ZM178.172 146.134L219.773 129.622L228 128.397V135.165L178.172 157.279V146.134Z" fill="white"/>
<path fill-rule="evenodd" clip-rule="evenodd" d="M167.324 75.0793C167.093 78.739 165.444 82.5606 165.904 86.1184C168.783 91.2104 175.121 92.0229 180.35 92.3719C183.973 93.0192 183.927 90.6206 183.684 87.9259C183.699 83.6184 183.713 79.311 183.729 75.0035C178.26 75.0232 172.79 74.9493 167.324 75.0793ZM124.204 85.3148C115.301 86.8254 106.276 91.0798 98.8701 96.2014C92.9086 100.841 103.988 105.337 108.007 106.089C116.094 106.188 123.266 100.733 128.578 95.0712C130.313 92.6903 132.479 89.0465 130.3 86.2876C128.636 84.8447 126.216 85.1948 124.204 85.3148ZM143.148 98.2622C135.828 99.656 128.864 102.673 122.701 106.874C118.183 108.292 114.459 113.253 120.058 115.738C125.937 120.423 132.75 119.275 138.164 116.113C143.122 113.165 148.477 109.529 150.771 103.982C152.937 97.904 147.348 97.6783 143.148 98.2622ZM163.914 121.812C162.55 127.505 156.817 130.094 153.766 134.606C151.272 137.897 152.427 141.773 155.267 144.364C156.649 147.231 159.073 148.833 161.672 146.343C168.366 141.792 170.217 132.927 169.939 125.247C170.434 122.075 166.794 124.942 163.914 121.812ZM138.44 132.506C129.551 134.027 120.66 138.358 113.251 143.472C107.499 148.105 118.332 152.431 122.384 153.117C130.621 153.129 137.968 147.821 143.176 141.793C144.988 139.399 147.183 134.749 143.596 132.846C141.992 132.166 140.131 132.366 138.44 132.506Z" fill="#B956A6"/>
<path fill-rule="evenodd" clip-rule="evenodd" d="M98.8706 96.2014C92.0341 98.9369 85.4388 102.258 78.9267 105.736C77.7162 110.237 78.6868 115.81 78.373 120.744C78.3493 141.034 78.361 161.325 78.357 181.615C83.3853 181.615 88.4135 181.615 93.4418 181.615C96.487 178.748 100.302 176.649 103.61 174.045C116.349 164.909 129.084 155.737 141.805 146.627C142.742 147.048 142.142 141.12 140.089 145.237C135.223 149.816 128.765 153.582 121.929 153.214C118.05 151.938 111.797 149.774 111.757 145.02C114.488 141.805 106.719 146.703 104.594 147.404C97.6831 150.723 90.9359 154.428 84.0111 157.684C85.6758 155.897 88.7893 154.231 90.9958 152.458C106.763 141.139 122.527 129.777 138.332 118.467C141.372 116.333 144.308 114.005 147.442 112.01C147.728 113.115 148.265 106.726 145.935 110.659C141.183 115.369 134.775 118.874 128.016 118.922C124.215 117.768 116.118 115.009 117.921 110.101C118.8 108.378 109.755 113.772 113.751 110.731C118.005 107.622 122.292 104.569 126.578 101.494C128.743 101.331 128.282 93.29 125.341 98.4767C120.4 102.818 113.908 106.79 107.102 105.849C103.279 104.749 98.6922 102.617 97.303 98.6192C96.8426 97.659 99.8768 96.1632 98.8706 96.2014ZM127.194 101.165C126.815 102.249 127.881 100.769 127.194 101.165V101.165Z" fill="#FCCC44"/>
<path fill-rule="evenodd" clip-rule="evenodd" d="M170.388 90.8284C168.253 101.021 165.92 111.687 163.914 121.812C169.678 129.076 170.237 117.222 171.245 113.871C172.875 106.865 174.805 101.575 175.009 94.3214C175.442 91.8465 172.532 90.347 170.388 90.8284ZM177.001 98.8209C176.82 99.866 177.263 99.0173 177.001 98.8209V98.8209ZM170.276 121.675C170.553 122.272 170.553 121.077 170.276 121.675V121.675Z" fill="#62777F"/>
<path fill-rule="evenodd" clip-rule="evenodd" d="M174.17 91.9826C175.968 102.084 170.011 114.354 168.062 123.877C172.487 120.622 175.905 105.85 176.779 100.069C177.004 99.4073 177.281 97.7431 177.341 97.6835C177.619 96.2796 180.21 93.9018 180.352 92.3719C181.861 91.3073 172.939 91.1357 174.17 91.9826ZM170.501 121.675C170.223 122.272 170.223 121.077 170.501 121.675V121.675Z" fill="#4E5E67"/>
<path fill-rule="evenodd" clip-rule="evenodd" d="M99.0199 96.3693C96.5259 98.8666 97.4618 98.2566 99.3186 96.1799L99.0199 96.3693ZM125.998 97.6062C123.108 101.948 112.689 105.578 111.377 105.86C117.645 104.686 123.487 100.787 127.598 96.2194C126.944 96.5103 126.556 97.1946 125.998 97.6062ZM97.3062 99.016C98.8636 102.76 104.526 105.249 107.278 105.829C103.521 104.619 99.0991 102.472 97.3062 99.016ZM126.969 101.181C126.183 102.11 123.383 103.499 121.906 104.86C118.74 107.196 115.464 109.366 112.333 111.76C114.327 111.674 120.168 107.311 117.174 111.739C119.711 116.106 125.236 119.143 130.273 118.865C136.925 117.821 143.06 114.143 147.469 109.028C142.116 114.325 135.039 119.31 127.208 118.623C123.418 117.748 113.061 112.398 119.989 108.648C122.432 106.639 126.644 105.586 127.121 102.055C127.02 101.614 127.842 101.184 126.969 101.181V101.181ZM108.007 106.089C110.528 106.418 110.528 105.76 108.007 106.089V106.089ZM147.282 112.12C137.28 119.088 127.424 126.329 117.509 133.422C106.272 141.464 95.0835 149.535 83.8496 157.571C88.0733 156.147 92.3052 153.366 96.5013 151.445C102.279 148.388 108.373 145.973 113.779 142.26C124.469 135.966 135.775 129.971 143.997 120.342C145.792 118.238 147.591 114.85 147.671 112.571C147.412 112.644 147.609 111.66 147.282 112.12ZM113.251 143.471C111.452 145.505 110.721 146.958 112.588 144.372C112.555 144.672 114.104 142.767 113.251 143.471ZM140.626 144.444C135.886 149.442 128.876 153.047 122.298 153.29C129.903 153.346 136.763 148.832 141.915 143.507C141.577 143.098 140.892 144.459 140.626 144.444ZM142.075 146.015C126.15 157.608 109.676 169.632 93.6973 181.183C96.2149 181.973 101.695 182.343 104.196 179.12C109.519 175.448 115.502 172.748 120.841 169.026C128.573 164.008 136.851 158.525 141.243 150.092C141.452 148.962 143.006 146.927 142.075 146.015ZM111.768 146.751C112.507 149.87 121.745 153.451 120.743 152.765C117.337 151.571 113.958 149.71 111.768 146.751Z" fill="#DC9624"/>
<defs>
<linearGradient id="paint0_linear_30_500" x1="0" y1="256" x2="256" y2="1.52588e-05" gradientUnits="userSpaceOnUse">
<stop stop-color="#DB7093"/>
<stop offset="1" stop-color="#F3B661"/>
</linearGradient>
</defs>
</svg>
