<svg width="257" height="256" viewBox="0 0 257 256" fill="none" xmlns="http://www.w3.org/2000/svg">
<path d="M0.00195312 56C0.00195312 25.0721 25.074 0 56.002 0H200.002C230.93 0 256.002 25.0721 256.002 56V200C256.002 230.928 230.93 256 200.002 256H56.002C25.074 256 0.00195312 230.928 0.00195312 200V56Z" fill="#0F172A"/>
<path d="M144.788 224.677C139.679 231.111 129.319 227.586 129.196 219.37L127.396 99.2064H208.194C222.829 99.2064 230.991 116.11 221.891 127.571L144.788 224.677Z" fill="url(#paint0_linear_24_398)"/>
<path d="M144.788 224.677C139.679 231.111 129.319 227.586 129.196 219.37L127.396 99.2064H208.194C222.829 99.2064 230.991 116.11 221.891 127.571L144.788 224.677Z" fill="url(#paint1_linear_24_398)" fill-opacity="0.2"/>
<path d="M111.928 31.3231C117.037 24.8882 127.397 28.4141 127.52 36.6299L128.31 156.794H48.5221C33.887 156.794 25.7247 139.89 34.8252 128.429L111.928 31.3231Z" fill="#3ECF8E"/>
<defs>
<linearGradient id="paint0_linear_24_398" x1="127.396" y1="125.85" x2="199.206" y2="155.967" gradientUnits="userSpaceOnUse">
<stop stop-color="#249361"/>
<stop offset="1" stop-color="#3ECF8E"/>
</linearGradient>
<linearGradient id="paint1_linear_24_398" x1="95.5592" y1="82.2588" x2="128.309" y2="143.908" gradientUnits="userSpaceOnUse">
<stop/>
<stop offset="1" stop-opacity="0"/>
</linearGradient>
</defs>
</svg>
