<svg width="256" height="256" viewBox="0 0 256 256" fill="none" xmlns="http://www.w3.org/2000/svg">
<path d="M142.403 215.01C137.805 220.8 128.481 217.627 128.37 210.233L126.75 102.086H199.469C212.639 102.086 219.985 117.299 211.795 127.614L142.403 215.01Z" fill="url(#paint0_linear_36_931)"/>
<path d="M142.403 215.01C137.805 220.8 128.481 217.627 128.37 210.233L126.75 102.086H199.469C212.639 102.086 219.985 117.299 211.795 127.614L142.403 215.01Z" fill="url(#paint1_linear_36_931)" fill-opacity="0.2"/>
<path d="M112.828 40.9908C117.427 35.1994 126.751 38.3727 126.861 45.7669L127.572 153.915H55.7631C42.5914 153.915 35.2454 138.701 43.4359 128.386L112.828 40.9908Z" fill="#3ECF8E"/>
<defs>
<linearGradient id="paint0_linear_36_931" x1="126.75" y1="126.065" x2="191.379" y2="153.171" gradientUnits="userSpaceOnUse">
<stop stop-color="#249361"/>
<stop offset="1" stop-color="#3ECF8E"/>
</linearGradient>
<linearGradient id="paint1_linear_36_931" x1="98.0969" y1="86.8331" x2="127.571" y2="142.318" gradientUnits="userSpaceOnUse">
<stop/>
<stop offset="1" stop-opacity="0"/>
</linearGradient>
</defs>
</svg>
