<svg width="256" height="256" viewBox="0 0 256 256" fill="none" xmlns="http://www.w3.org/2000/svg">
<g clip-path="url(#clip0_30_467)">
<path d="M196 0H60C26.8629 0 0 26.8629 0 60V196C0 229.137 26.8629 256 60 256H196C229.137 256 256 229.137 256 196V60C256 26.8629 229.137 0 196 0Z" fill="#FF3E00"/>
<path d="M193.04 61.8119C176.417 37.8682 143.323 30.8529 119.532 45.9511L77.5921 72.7923C66.154 79.9602 58.2236 91.7033 55.936 104.971C53.9534 116.105 55.631 127.542 60.9687 137.456C57.3085 142.946 54.8684 149.046 53.8008 155.452C51.3608 169.025 54.5635 183.055 62.4938 194.188C79.2696 218.132 112.211 225.147 136.002 210.049L177.942 183.36C189.38 176.192 197.31 164.45 199.598 151.181C201.58 140.048 199.903 128.61 194.565 118.697C198.225 113.206 200.665 107.107 201.733 100.701C204.326 86.9756 201.123 72.9449 193.04 61.8119Z" fill="white"/>
<path d="M115.414 196.475C101.841 199.984 87.6571 194.646 79.7268 183.208C74.8465 176.497 73.0164 168.11 74.389 159.874C74.694 158.501 74.9991 157.282 75.304 155.909L76.0665 153.469L78.2016 154.994C83.2344 158.654 88.7247 161.4 94.6724 163.229L96.1975 163.687L96.045 165.212C95.8925 167.347 96.5025 169.635 97.7226 171.465C100.163 174.972 104.433 176.65 108.55 175.582C109.466 175.277 110.381 174.972 111.144 174.515L152.93 147.826C155.066 146.454 156.438 144.471 156.895 142.031C157.353 139.591 156.743 136.998 155.37 135.016C152.93 131.507 148.66 129.983 144.542 131.051C143.627 131.355 142.712 131.66 141.95 132.118L125.936 142.336C123.344 144.014 120.446 145.233 117.396 145.996C103.823 149.503 89.6397 144.166 81.7093 132.728C76.9816 126.018 74.9991 117.63 76.5241 109.395C77.8967 101.464 82.7769 94.2961 89.6397 90.0259L131.579 63.3371C134.171 61.6595 137.07 60.4395 140.12 59.5244C153.693 56.0168 167.876 61.3545 175.807 72.7925C180.687 79.5029 182.516 87.8908 181.145 96.1262C180.839 97.4988 180.534 98.7188 180.077 100.092L179.314 102.531L177.178 101.006C172.147 97.3462 166.656 94.6011 160.708 92.771L159.183 92.3134L159.336 90.7884C159.489 88.6533 158.878 86.3657 157.658 84.5356C155.217 81.0279 150.947 79.5029 146.83 80.5705C145.915 80.8755 145 81.1804 144.237 81.638L102.451 108.327C100.315 109.699 98.9426 111.682 98.4852 114.122C98.0276 116.562 98.6376 119.155 100.01 121.138C102.451 124.645 106.721 126.17 110.839 125.103C111.753 124.798 112.668 124.492 113.431 124.035L129.444 113.818C132.037 112.14 134.934 110.919 137.984 110.004C151.557 106.496 165.741 111.834 173.671 123.272C178.551 129.983 180.382 138.371 179.009 146.606C177.636 154.536 172.756 161.704 165.893 165.975L123.954 192.663C121.361 194.341 118.464 195.561 115.414 196.475Z" fill="#FF3E00"/>
</g>
<defs>
<clipPath id="clip0_30_467">
<rect width="256" height="256" fill="white"/>
</clipPath>
</defs>
</svg>
