<svg width="256" height="256" viewBox="0 0 256 256" fill="none" xmlns="http://www.w3.org/2000/svg">
<g clip-path="url(#clip0_196_236)">
<rect width="256" height="256" rx="56" fill="#FF3E00"/>
<path d="M193.04 61.8119C176.417 37.8682 143.323 30.8529 119.532 45.9511L77.5921 72.7923C66.154 79.9602 58.2236 91.7033 55.936 104.971C53.9534 116.105 55.631 127.542 60.9687 137.456C57.3085 142.946 54.8684 149.046 53.8008 155.452C51.3608 169.025 54.5635 183.055 62.4938 194.188C79.2696 218.132 112.211 225.147 136.002 210.049L177.942 183.36C189.38 176.192 197.31 164.45 199.598 151.181C201.58 140.048 199.903 128.61 194.565 118.697C198.225 113.206 200.665 107.107 201.733 100.701C204.326 86.9756 201.123 72.9449 193.04 61.8119Z" fill="white"/>
<path d="M115.415 196.475C101.842 199.984 87.6581 194.646 79.7277 183.208C74.8475 176.497 73.0174 168.11 74.39 159.874C74.695 158.501 75 157.282 75.305 155.909L76.0675 153.469L78.2026 154.994C83.2353 158.654 88.7257 161.4 94.6734 163.229L96.1985 163.687L96.046 165.212C95.8935 167.347 96.5035 169.635 97.7236 171.465C100.164 174.972 104.434 176.65 108.551 175.582C109.467 175.277 110.382 174.972 111.145 174.515L152.931 147.826C155.067 146.454 156.439 144.471 156.896 142.031C157.354 139.591 156.744 136.998 155.371 135.016C152.931 131.507 148.661 129.983 144.543 131.051C143.628 131.355 142.713 131.66 141.951 132.118L125.937 142.336C123.345 144.014 120.447 145.233 117.397 145.996C103.824 149.503 89.6407 144.166 81.7103 132.728C76.9826 126.018 75 117.63 76.5251 109.395C77.8977 101.464 82.7778 94.2961 89.6407 90.0259L131.58 63.3371C134.172 61.6595 137.071 60.4395 140.121 59.5244C153.694 56.0168 167.877 61.3545 175.808 72.7925C180.688 79.5029 182.517 87.8908 181.146 96.1262C180.84 97.4988 180.535 98.7188 180.078 100.092L179.315 102.531L177.179 101.006C172.148 97.3462 166.657 94.6011 160.709 92.771L159.184 92.3134L159.337 90.7884C159.49 88.6533 158.879 86.3657 157.659 84.5356C155.218 81.0279 150.948 79.5029 146.831 80.5705C145.916 80.8755 145.001 81.1804 144.238 81.638L102.452 108.327C100.316 109.699 98.9436 111.682 98.4861 114.122C98.0285 116.562 98.6386 119.155 100.011 121.138C102.452 124.645 106.722 126.17 110.84 125.103C111.754 124.798 112.669 124.492 113.432 124.035L129.445 113.818C132.038 112.14 134.935 110.919 137.985 110.004C151.558 106.496 165.742 111.834 173.672 123.272C178.552 129.983 180.383 138.371 179.01 146.606C177.637 154.536 172.757 161.704 165.894 165.975L123.955 192.663C121.362 194.341 118.465 195.561 115.415 196.475Z" fill="#FF3E00"/>
</g>
<defs>
<clipPath id="clip0_196_236">
<rect width="256" height="256" fill="white"/>
</clipPath>
</defs>
</svg>
