<svg width="256" height="256" viewBox="0 0 256 256" fill="none" xmlns="http://www.w3.org/2000/svg">
<path d="M196 0H60C26.8629 0 0 26.8629 0 60V196C0 229.137 26.8629 256 60 256H196C229.137 256 256 229.137 256 196V60C256 26.8629 229.137 0 196 0Z" fill="#FF3E00"/>
<path d="M200.6 54.4576C182.13 27.8535 145.358 20.0588 118.924 36.8346L72.3245 66.6582C59.6156 74.6224 50.804 87.6703 48.2622 102.413C46.0593 114.783 47.9234 127.491 53.8541 138.507C49.7873 144.606 47.076 151.385 45.8898 158.502C43.1787 173.583 46.7372 189.173 55.5487 201.542C74.1884 228.147 110.79 235.941 137.225 219.166L183.824 189.511C196.533 181.547 205.345 168.5 207.886 153.756C210.089 141.387 208.225 128.678 202.294 117.664C206.361 111.563 209.073 104.785 210.259 97.6681C213.139 82.4173 209.581 66.8277 200.6 54.4576Z" fill="white"/>
<path d="M114.348 204.084C99.2673 207.982 83.5077 202.051 74.6962 189.342C69.2737 181.886 67.2402 172.567 68.7653 163.415C69.1043 161.89 69.4432 160.535 69.782 159.01L70.6292 156.299L73.0016 157.993C78.5935 162.06 84.6939 165.111 91.3025 167.143L92.997 167.652L92.8276 169.346C92.6582 171.719 93.3359 174.261 94.6916 176.295C97.4033 180.192 102.148 182.056 106.722 180.869C107.74 180.53 108.756 180.192 109.604 179.683L156.033 150.029C158.406 148.504 159.931 146.302 160.439 143.59C160.948 140.878 160.27 137.998 158.745 135.795C156.033 131.897 151.289 130.203 146.713 131.389C145.697 131.728 144.68 132.067 143.833 132.576L126.04 143.929C123.16 145.793 119.94 147.148 116.551 147.996C101.47 151.893 85.7105 145.962 76.899 133.254C71.646 125.797 69.4432 116.477 71.1377 107.327C72.6628 98.5159 78.0852 90.5512 85.7105 85.8065L132.31 56.1523C135.19 54.2883 138.411 52.9328 141.8 51.916C156.881 48.0187 172.639 53.9494 181.452 66.6584C186.874 74.1143 188.907 83.4342 187.383 92.5846C187.043 94.1097 186.704 95.4653 186.196 96.9907L185.349 99.7012L182.976 98.0072C177.385 93.9402 171.284 90.8901 164.676 88.8567L162.98 88.3483L163.15 86.6538C163.32 84.2814 162.642 81.7397 161.286 79.7063C158.575 75.8088 153.83 74.1143 149.256 75.3005C148.238 75.6394 147.222 75.9782 146.374 76.4867L99.9449 106.141C97.5721 107.666 96.0472 109.869 95.5388 112.58C95.0304 115.291 95.7082 118.173 97.2333 120.375C99.9449 124.272 104.689 125.966 109.265 124.781C110.281 124.442 111.298 124.102 112.145 123.595L129.938 112.242C132.818 110.378 136.038 109.021 139.427 108.005C154.508 104.107 170.268 110.038 179.079 122.747C184.501 130.203 186.535 139.523 185.01 148.673C183.485 157.485 178.063 165.449 170.436 170.194L123.837 199.848C120.957 201.712 117.738 203.067 114.348 204.084Z" fill="#FF3E00"/>
</svg>
