<svg width="257" height="256" viewBox="0 0 257 256" fill="none" xmlns="http://www.w3.org/2000/svg">
<path d="M0.00195312 56C0.00195312 25.0721 25.074 0 56.002 0H200.002C230.93 0 256.002 25.0721 256.002 56V200C256.002 230.928 230.93 256 200.002 256H56.002C25.074 256 0.00195312 230.928 0.00195312 200V56Z" fill="#22272E"/>
<path d="M28 120.674H228V186.944C228 202.517 215.277 214.442 198.671 214.442H57.3286C40.7186 214.442 28 202.517 28 186.944V120.674Z" fill="black"/>
<path d="M68.4571 110.62C62.2713 104.817 52.2402 104.817 46.0544 110.62C39.8686 116.42 39.8686 125.824 46.0544 131.628C52.2402 137.427 62.2713 137.427 68.4571 131.628H187.397C193.586 137.427 203.614 137.427 209.803 131.628C215.989 125.824 215.989 116.42 209.803 110.62C203.614 104.817 193.586 104.817 187.397 110.62H68.4571Z" fill="#FFB13B" stroke="black" stroke-width="28.695"/>
<path d="M93.7991 74.2662C93.7991 66.0586 86.7068 59.4089 77.9575 59.4089C69.2045 59.4089 62.1123 66.0586 62.1123 74.2662C62.1123 82.4703 69.2045 89.1199 77.9575 89.1199L162.059 167.981C162.059 176.185 169.152 182.835 177.901 182.835C186.65 182.835 193.743 176.185 193.743 167.981C193.743 159.777 186.65 153.128 177.901 153.128L93.7991 74.2662Z" fill="#FFB13B" stroke="black" stroke-width="28.725"/>
<path d="M139.132 65.3611C145.318 59.5577 145.318 50.1533 139.132 44.3499C132.942 38.55 122.911 38.55 116.726 44.3499C110.54 50.1533 110.54 59.5577 116.726 65.3611V176.887C110.54 182.686 110.54 192.094 116.726 197.894C122.911 203.698 132.942 203.698 139.132 197.894C145.318 192.094 145.318 182.686 139.132 176.887V65.3611Z" fill="#FFB13B" stroke="black" stroke-width="28.695"/>
<path d="M177.901 89.1199C186.65 89.1199 193.743 82.4703 193.743 74.2662C193.743 66.0586 186.65 59.4089 177.901 59.4089C169.152 59.4089 162.059 66.0586 162.059 74.2662L77.9575 153.128C69.2045 153.128 62.1123 159.777 62.1123 167.981C62.1123 176.185 69.2045 182.835 77.9575 182.835C86.7068 182.835 93.7991 176.185 93.7991 167.981L177.901 89.1199Z" fill="#FFB13B" stroke="black" stroke-width="28.725"/>
<path d="M68.4571 114.62C62.2713 108.817 52.2402 108.817 46.0544 114.62C39.8686 120.42 39.8686 129.824 46.0544 135.628C52.2402 141.427 62.2713 141.427 68.4571 135.628H187.397C193.586 141.427 203.614 141.427 209.803 135.628C215.989 129.824 215.989 120.42 209.803 114.62C203.614 108.817 193.586 108.817 187.397 114.62H68.4571Z" fill="#FFB13B"/>
<path d="M93.7991 74.2662C93.7991 66.0586 86.7068 59.4089 77.9575 59.4089C69.2045 59.4089 62.1123 66.0586 62.1123 74.2662C62.1123 82.4703 69.2045 89.12 77.9575 89.12L162.059 167.981C162.059 176.185 169.152 182.835 177.901 182.835C186.65 182.835 193.743 176.185 193.743 167.981C193.743 159.777 186.65 153.128 177.901 153.128L93.7991 74.2662Z" fill="#FFB13B"/>
<path d="M139.132 65.3611C145.318 59.5577 145.318 50.1533 139.132 44.3499C132.942 38.55 122.911 38.55 116.726 44.3499C110.54 50.1533 110.54 59.5577 116.726 65.3611V176.887C110.54 182.686 110.54 192.094 116.726 197.894C122.911 203.698 132.942 203.698 139.132 197.894C145.318 192.094 145.318 182.686 139.132 176.887V65.3611Z" fill="#FFB13B"/>
<path d="M177.901 89.12C186.65 89.12 193.743 82.4703 193.743 74.2662C193.743 66.0586 186.65 59.4089 177.901 59.4089C169.152 59.4089 162.059 66.0586 162.059 74.2662L77.9575 153.128C69.2045 153.128 62.1123 159.777 62.1123 167.981C62.1123 176.185 69.2045 182.835 77.9575 182.835C86.7068 182.835 93.7991 176.185 93.7991 167.981L177.901 89.12Z" fill="#FFB13B"/>
<path d="M28 121.58H228V187.85C228 203.423 215.277 215.348 198.671 215.348H57.3286C40.7186 215.348 28 203.423 28 187.85V121.58Z" fill="black" fill-opacity="0.9"/>
<path d="M57.9378 167.932C53.2463 163.534 50.3428 157.461 50.3428 150.755C50.3428 137.335 61.9531 126.454 76.2581 126.454C90.57 126.454 102.177 137.335 102.177 150.755H86.9973C86.9973 145.196 82.1854 140.692 76.2581 140.692C70.3307 140.692 65.5258 145.196 65.5258 150.755C65.5258 153.531 66.7298 156.048 68.663 157.861H68.6701C70.614 159.692 72.2322 160.22 76.2581 160.821C83.4176 161.519 89.8938 163.541 94.5853 167.939C99.2769 172.34 102.177 178.412 102.177 185.119C102.177 198.538 90.57 209.423 76.2581 209.423C61.9531 209.423 50.3428 198.538 50.3428 185.119H65.5258C65.5258 190.678 70.3307 195.189 76.2581 195.189C82.1854 195.189 86.9973 190.678 86.9973 185.119C86.9973 182.342 85.797 179.832 83.8602 178.012H83.8531C81.9093 176.189 79.119 175.562 76.2581 175.059V175.055C69.318 174.057 62.6294 172.332 57.9378 167.932Z" fill="white"/>
<path d="M154.011 126.454L135.676 209.423H120.497L102.177 126.454H117.36L128.103 175.048L138.828 126.454H154.011Z" fill="white"/>
<path d="M179.933 160.821H205.845V185.119H205.852C205.852 198.542 194.245 209.426 179.933 209.426C165.617 209.426 154.018 198.542 154.018 185.119V150.755H154.011C154.011 137.335 165.617 126.458 179.933 126.458C194.239 126.458 205.845 137.335 205.845 150.755H190.665C190.665 145.203 185.854 140.692 179.933 140.692C174.002 140.692 169.198 145.203 169.198 150.755V185.119C169.198 190.678 174.002 195.185 179.933 195.185C185.854 195.185 190.658 190.678 190.665 185.126V175.063H179.933V160.821Z" fill="white"/>
</svg>
