<svg width="256" height="256" viewBox="0 0 256 256" fill="none" xmlns="http://www.w3.org/2000/svg">
<g clip-path="url(#clip0_30_487)">
<path d="M196 0H60C26.8629 0 0 26.8629 0 60V196C0 229.137 26.8629 256 60 256H196C229.137 256 256 229.137 256 196V60C256 26.8629 229.137 0 196 0Z" fill="#F05138"/>
<path d="M192.966 160.119C193.19 159.221 193.414 158.323 193.639 157.425C203.514 118.148 179.499 71.4642 138.651 47C156.606 71.2398 164.461 100.642 157.503 126.228C156.83 128.473 156.156 130.717 155.259 132.962C154.361 132.288 153.239 131.615 151.668 130.942C151.668 130.942 111.044 105.804 67.053 61.5887C65.9308 60.4665 90.6194 96.8262 118.45 126.228C105.209 118.822 68.6241 92.113 45.2821 71.0154C48.1998 75.7287 51.5665 80.442 55.1576 84.7063C74.4596 109.395 99.8218 139.695 130.122 163.037C108.799 176.055 78.724 177.177 48.8731 163.037C41.4665 159.67 34.5089 155.406 28 150.693C40.5688 170.892 60.0953 188.399 83.8861 198.723C112.166 210.843 140.446 210.17 161.319 198.947C161.319 198.947 161.543 198.947 161.543 198.723C162.441 198.275 163.339 197.601 164.237 197.152C174.336 191.99 194.087 186.828 204.861 207.476C208.003 212.19 213.614 185.256 192.966 160.119Z" fill="white"/>
</g>
<defs>
<clipPath id="clip0_30_487">
<rect width="256" height="256" fill="white"/>
</clipPath>
</defs>
</svg>
