<svg width="256" height="256" viewBox="0 0 256 256" fill="none" xmlns="http://www.w3.org/2000/svg">
<path d="M196 0H60C26.8629 0 0 26.8629 0 60V196C0 229.137 26.8629 256 60 256H196C229.137 256 256 229.137 256 196V60C256 26.8629 229.137 0 196 0Z" fill="#F05138"/>
<path d="M211.295 164.688C211.544 163.69 211.793 162.692 212.043 161.695C223.016 118.054 196.332 66.1825 150.945 39C170.895 65.9331 179.623 98.6019 171.892 127.031C171.144 129.525 170.396 132.019 169.398 134.513C168.401 133.765 167.155 133.017 165.409 132.268C165.409 132.268 120.271 104.338 71.3922 55.2097C70.1453 53.9628 97.5772 94.3624 128.5 127.031C113.787 118.802 73.1379 89.1256 47.2023 65.6838C50.4442 70.9207 54.185 76.1577 58.1751 80.8959C79.6218 108.328 107.802 141.994 141.468 167.929C117.777 182.394 84.36 183.641 51.1924 167.929C42.9628 164.189 35.2321 159.451 28 154.214C41.9653 176.658 63.6614 196.11 90.0957 207.581C121.517 221.048 152.94 220.3 176.132 207.83C176.132 207.83 176.381 207.83 176.381 207.581C177.379 207.083 178.377 206.335 179.374 205.835C190.596 200.1 212.542 194.364 224.512 217.307C228.004 222.544 234.238 192.618 211.295 164.688Z" fill="white"/>
</svg>
