<svg width="257" height="256" viewBox="0 0 257 256" fill="none" xmlns="http://www.w3.org/2000/svg">
<path d="M0.00195312 56C0.00195312 25.0721 25.074 0 56.002 0H200.002C230.93 0 256.002 25.0721 256.002 56V200C256.002 230.928 230.93 256 200.002 256H56.002C25.074 256 0.00195312 230.928 0.00195312 200V56Z" fill="#22272E"/>
<path d="M128 228C183.228 228 228 183.228 228 128C228 72.7715 183.228 28 128 28C72.7715 28 28 72.7715 28 128C28 183.228 72.7715 228 128 228Z" fill="white"/>
<path d="M171.719 65.0018C161.56 65.3561 152.692 70.9547 146.093 78.7008C138.784 87.1925 133.922 97.2649 130.419 107.547C124.151 102.411 119.317 95.7613 109.263 92.8619C101.492 90.6311 93.3304 91.5524 85.8247 97.1448C82.269 99.8007 79.8194 103.816 78.6547 107.59C75.6382 117.397 81.8253 126.126 84.6353 129.26L90.7792 135.844C92.0456 137.136 95.096 140.503 93.6047 145.331C91.9932 150.582 85.6644 153.98 79.1724 151.978C76.273 151.093 72.1072 148.933 73.0408 145.892C73.4259 144.647 74.3164 143.717 74.794 142.642C75.2315 141.717 75.441 141.024 75.5735 140.617C76.7598 136.744 75.1391 131.706 70.9918 130.428C67.1218 129.242 63.1625 130.181 61.6281 135.164C59.8872 140.824 62.5956 151.096 77.1049 155.57C94.1038 160.793 108.484 151.537 110.523 139.465C111.808 131.904 108.394 126.287 102.139 119.061L97.0433 113.426C93.9559 110.341 92.896 105.085 96.0912 101.046C98.7872 97.6378 102.626 96.1834 108.915 97.8935C118.094 100.386 122.186 106.755 129.013 111.891C126.194 121.138 124.352 130.419 122.685 138.741L121.668 144.946C116.787 170.545 113.062 184.601 103.381 192.671C101.431 194.057 98.6424 196.134 94.4397 196.279C92.2366 196.347 91.5249 194.831 91.494 194.171C91.4417 192.625 92.745 191.916 93.6108 191.22C94.9049 190.514 96.8615 189.343 96.729 185.593C96.5872 181.163 92.9176 177.32 87.6117 177.496C83.637 177.632 77.5794 181.372 77.8074 188.219C78.0447 195.29 84.6353 200.59 94.5722 200.254C99.8841 200.072 111.747 197.909 123.437 184.013C137.043 168.083 140.848 149.821 143.711 136.455L146.906 118.809C148.681 119.021 150.579 119.163 152.643 119.212C169.59 119.57 178.066 110.791 178.192 104.407C178.276 100.543 175.657 96.7411 171.99 96.8274C169.365 96.9014 166.068 98.6484 165.276 102.278C164.503 105.84 170.668 109.054 165.849 112.175C162.426 114.39 156.288 115.952 147.645 114.683L149.217 105.997C152.424 89.525 156.381 69.2631 171.389 68.7701C172.483 68.7146 176.485 68.8194 176.578 71.4661C176.606 72.3504 176.387 72.5754 175.351 74.5997C174.298 76.1773 173.9 77.5207 173.95 79.0643C174.094 83.2702 177.293 86.034 181.917 85.8676C188.111 85.6673 189.892 79.6374 189.79 76.5409C189.54 69.2662 181.871 64.669 171.719 65.0018Z" fill="#242938"/>
</svg>
