<svg width="257" height="256" viewBox="0 0 257 256" fill="none" xmlns="http://www.w3.org/2000/svg">
<path d="M0.00195312 56C0.00195312 25.0721 25.074 0 56.002 0H200.002C230.93 0 256.002 25.0721 256.002 56V200C256.002 230.928 230.93 256 200.002 256H56.002C25.074 256 0.00195312 230.928 0.00195312 200V56Z" fill="#F8FAFC"/>
<path fill-rule="evenodd" clip-rule="evenodd" d="M78 108C84.6657 81.3343 101.334 68 128 68C168 68 173 98 193 103C206.334 106.334 218 101.334 228 88C221.334 114.666 204.666 128 178 128C138 128 133 98 113 93C99.6656 89.6657 88 94.6657 78 108ZM28 168C34.6657 141.334 51.3343 128 78 128C118 128 123 158 143 163C156.334 166.334 168 161.334 178 148C171.334 174.666 154.666 188 128 188C88 188 83 158 63 153C49.6657 149.666 38 154.666 28 168Z" fill="url(#paint0_linear_36_910)"/>
<defs>
<linearGradient id="paint0_linear_36_910" x1="81.8889" y1="68" x2="167.444" y2="191.889" gradientUnits="userSpaceOnUse">
<stop stop-color="#32B1C1"/>
<stop offset="1" stop-color="#14C6B7"/>
</linearGradient>
</defs>
</svg>
