<svg width="256" height="256" viewBox="0 0 256 256" fill="none" xmlns="http://www.w3.org/2000/svg">
<path fill-rule="evenodd" clip-rule="evenodd" d="M82.9932 110C88.9923 86.0009 103.994 74 127.993 74C163.993 74 168.493 101 186.493 105.5C198.494 108.501 208.993 104.001 217.993 92C211.994 115.999 196.992 128 172.993 128C136.993 128 132.493 101 114.493 96.5C102.492 93.4991 91.9932 97.9991 82.9932 110ZM37.9932 164C43.9923 140.001 58.9941 128 82.9932 128C118.993 128 123.493 155 141.493 159.5C153.494 162.501 163.993 158.001 172.993 146C166.994 169.999 151.992 182 127.993 182C91.9932 182 87.4932 155 69.4932 150.5C57.4923 147.499 46.9932 151.999 37.9932 164Z" fill="url(#paint0_linear_36_910)"/>
<defs>
<linearGradient id="paint0_linear_36_910" x1="86.4932" y1="74" x2="163.493" y2="185.5" gradientUnits="userSpaceOnUse">
<stop stop-color="#32B1C1"/>
<stop offset="1" stop-color="#14C6B7"/>
</linearGradient>
</defs>
</svg>
