<svg width="256" height="256" viewBox="0 0 256 256" fill="none" xmlns="http://www.w3.org/2000/svg">
<path d="M159.484 103.505C159.484 108.049 157.695 112.405 154.508 115.618C151.323 118.83 147.003 120.635 142.499 120.635C137.993 120.635 133.673 118.83 130.488 115.618C127.302 112.405 125.513 108.049 125.513 103.505C125.513 98.9625 127.302 94.6057 130.488 91.3933C133.673 88.1809 137.993 86.3762 142.499 86.3762C147.003 86.3762 151.323 88.1809 154.508 91.3933C157.695 94.6057 159.484 98.9625 159.484 103.505Z" fill="#FFC131"/>
<path d="M113.932 135.428C104.551 135.428 96.9463 143.097 96.9463 152.557C96.9463 162.017 104.551 169.687 113.932 169.687C123.312 169.687 130.917 162.017 130.917 152.557C130.917 143.097 123.312 135.428 113.932 135.428Z" fill="#24C8DB"/>
<path fill-rule="evenodd" clip-rule="evenodd" d="M177.705 158.397C170.879 162.847 163.284 165.964 155.315 167.584C157.624 160.944 158.39 153.859 157.554 146.874C164.31 144.492 170.414 140.538 175.372 135.333C180.331 130.128 184.003 123.817 186.091 116.914C188.179 110.011 188.626 102.708 187.393 95.5986C186.161 88.4889 183.285 81.772 178.997 75.9926C174.711 70.2131 169.133 65.5338 162.718 62.3338C156.303 59.1337 149.23 57.5031 142.073 57.5741C134.917 57.6451 127.878 59.4157 121.526 62.7423C115.174 66.069 109.69 70.8581 105.517 76.7214C96.874 77.702 88.464 80.1779 80.6558 84.0403C83.7425 73.997 89.1849 64.8522 96.5215 57.3812C103.858 49.9101 112.873 44.3332 122.802 41.1229C132.73 37.9126 143.28 37.1637 153.557 38.9397C163.834 40.7157 173.534 44.9642 181.836 51.3251C190.138 57.686 196.797 65.9717 201.249 75.48C205.7 84.9882 207.813 95.4386 207.408 105.945C207.002 116.452 204.09 126.705 198.92 135.836C193.749 144.966 186.472 152.706 177.705 158.397ZM81.4278 95.9529L97.3324 97.8994C97.6932 94.802 98.3658 91.7497 99.3399 88.7897C93.0488 90.2647 87.0115 92.679 81.4278 95.9529Z" fill="#FFC131"/>
<path fill-rule="evenodd" clip-rule="evenodd" d="M78.648 97.666C85.5155 93.1701 93.1651 90.0263 101.193 88.4006C98.7643 95.0391 97.8923 102.154 98.6446 109.189C91.9119 111.604 85.8371 115.583 80.9112 120.804C75.9855 126.026 72.3468 132.342 70.2893 139.244C68.2319 146.145 67.8135 153.438 69.0679 160.533C70.3222 167.627 73.2141 174.325 77.51 180.084C81.8057 185.843 87.3849 190.503 93.7964 193.684C100.208 196.867 107.272 198.484 114.418 198.404C121.564 198.324 128.59 196.55 134.93 193.225C141.27 189.9 146.746 185.117 150.914 179.263C159.551 178.307 167.962 175.858 175.774 172.023C172.68 182.055 167.234 191.188 159.898 198.649C152.562 206.11 143.551 211.678 133.628 214.883C123.707 218.088 113.164 218.835 102.895 217.061C92.6259 215.286 82.9317 211.043 74.6332 204.69C66.3347 198.337 59.676 190.061 55.221 180.563C50.766 171.065 48.6457 160.625 49.0395 150.125C49.4334 139.626 52.3299 129.376 57.4838 120.245C62.6376 111.113 69.8973 103.369 78.648 97.666ZM174.926 160.11L174.616 160.266L174.926 160.11Z" fill="#24C8DB"/>
</svg>
