<svg width="257" height="256" viewBox="0 0 257 256" fill="none" xmlns="http://www.w3.org/2000/svg">
<path d="M0.00195312 56C0.00195312 25.0721 25.074 0 56.002 0H200.002C230.93 0 256.002 25.0721 256.002 56V200C256.002 230.928 230.93 256 200.002 256H56.002C25.074 256 0.00195312 230.928 0.00195312 200V56Z" fill="#22272E"/>
<path d="M162.767 100.784C162.767 105.832 160.779 110.672 157.239 114.242C153.7 117.811 148.9 119.816 143.895 119.816C138.889 119.816 134.089 117.811 130.549 114.242C127.01 110.672 125.021 105.832 125.021 100.784C125.021 95.7361 127.01 90.8952 130.549 87.3259C134.089 83.7566 138.889 81.7513 143.895 81.7513C148.9 81.7513 153.7 83.7566 157.239 87.3259C160.779 90.8952 162.767 95.7361 162.767 100.784Z" fill="#FFC131"/>
<path d="M112.155 136.253C101.731 136.253 93.2812 144.775 93.2812 155.286C93.2812 165.797 101.731 174.319 112.155 174.319C122.577 174.319 131.027 165.797 131.027 155.286C131.027 144.775 122.577 136.253 112.155 136.253Z" fill="#24C8DB"/>
<path fill-rule="evenodd" clip-rule="evenodd" d="M183.013 161.774C175.429 166.719 166.989 170.182 158.136 171.982C160.701 164.605 161.552 156.732 160.623 148.971C168.13 146.324 174.912 141.931 180.421 136.147C185.931 130.364 190.011 123.353 192.331 115.683C194.651 108.012 195.148 99.8981 193.778 91.9984C192.408 84.0987 189.213 76.6356 184.449 70.214C179.686 63.7924 173.489 58.5931 166.361 55.0375C159.233 51.4819 151.374 49.6701 143.423 49.749C135.471 49.8279 127.65 51.7952 120.592 55.4914C113.535 59.1878 107.441 64.509 102.804 71.0238C93.2009 72.1134 83.8565 74.8643 75.1807 79.1559C78.6103 67.9966 84.6574 57.8358 92.8093 49.5346C100.961 41.2335 110.977 35.0369 122.009 31.4698C133.041 27.9028 144.764 27.0708 156.182 29.0441C167.601 31.0174 178.378 35.738 187.603 42.8057C196.828 49.8733 204.227 59.0797 209.173 69.6444C214.119 80.2091 216.467 91.8207 216.016 103.495C215.566 115.169 212.33 126.561 206.585 136.706C200.84 146.852 192.754 155.451 183.013 161.774ZM76.0385 92.3921L93.7103 94.5549C94.1112 91.1133 94.8585 87.7219 95.9408 84.433C88.9507 86.0719 82.2426 88.7545 76.0385 92.3921Z" fill="#FFC131"/>
<path fill-rule="evenodd" clip-rule="evenodd" d="M72.9498 94.2957C80.5804 89.3002 89.08 85.8071 97.9993 84.0009C95.3013 91.377 94.3324 99.2827 95.1683 107.099C87.6875 109.783 80.9377 114.204 75.4645 120.005C69.9914 125.806 65.9485 132.825 63.6624 140.494C61.3764 148.162 60.9114 156.265 62.3052 164.148C63.6989 172.03 66.9122 179.472 71.6853 185.872C76.4584 192.27 82.6575 197.447 89.7814 200.983C96.9054 204.519 104.754 206.315 112.694 206.227C120.634 206.138 128.441 204.167 135.486 200.472C142.53 196.778 148.614 191.463 153.246 184.959C162.842 183.897 172.187 181.175 180.868 176.914C177.43 188.061 171.379 198.209 163.228 206.499C155.076 214.789 145.064 220.976 134.039 224.537C123.015 228.098 111.301 228.928 99.8911 226.956C88.4808 224.985 77.7095 220.27 68.4889 213.211C59.2683 206.153 51.8698 196.957 46.9198 186.403C41.9698 175.85 39.6139 164.25 40.0515 152.584C40.4892 140.917 43.7075 129.529 49.434 119.383C55.1605 109.237 63.2268 100.632 72.9498 94.2957ZM179.925 163.677L179.581 163.851L179.925 163.677Z" fill="#24C8DB"/>
</svg>
