<svg width="256" height="256" viewBox="0 0 256 256" fill="none" xmlns="http://www.w3.org/2000/svg">
<path d="M140.036 161.347L124.358 73.9572C123.329 67.7885 121.273 61.6198 117.418 55.7081C112.277 47.4832 104.052 41.8285 94.7992 39.5153C58.301 30.7763 31.3129 67.2744 47.2487 99.6602L85.2891 181.139C86.3172 183.709 87.8594 186.279 89.6586 188.592C92.7429 192.705 96.8554 195.789 101.739 197.331C126.414 205.042 146.205 183.195 140.036 161.347Z" fill="url(#paint0_linear_134_257)"/>
<path d="M211.234 106.343C207.636 100.688 202.495 96.3188 196.583 93.7485L103.539 42.5996C100.968 41.3145 98.1411 40.0293 95.0567 39.2583C55.2171 30.0052 26.6869 73.7002 52.1328 107.628C55.9882 112.769 61.3859 116.881 67.5546 119.194L161.37 161.347C163.427 162.632 165.483 163.404 167.796 164.175C203.78 175.484 231.025 137.444 211.234 106.343Z" fill="url(#paint1_linear_134_257)"/>
<path d="M211.226 106.343C206.599 99.1464 199.402 94.0059 190.92 91.9496C181.924 89.8934 173.442 90.6645 166.245 93.7488L67.2891 131.018C67.2891 131.018 66.775 131.275 65.7469 132.046C40.301 142.07 27.7065 175.227 48.2689 202.729C52.8954 208.898 59.3211 213.525 66.518 215.581C80.1405 219.693 92.4779 218.151 102.502 212.753H102.759L199.402 161.091L199.659 160.834C216.623 151.066 224.591 127.163 211.226 106.343Z" fill="url(#paint2_linear_134_257)"/>
<path d="M167.279 71.1298C170.363 64.19 170.106 55.7081 164.966 47.9972C162.138 43.3706 157.512 40.2863 152.371 39.0011C140.805 36.1738 131.038 41.5714 126.411 49.7964L46.9892 146.182V146.439C35.6799 161.347 33.8807 183.452 48.2743 202.729C52.9009 208.898 59.3266 213.524 66.5234 215.58C93.5115 224.062 116.13 209.155 123.327 187.821L167.279 71.1298Z" fill="url(#paint3_linear_134_257)"/>
<path d="M72.4302 72.6721H183.467V183.709H72.4302V72.6721Z" fill="black"/>
<path d="M80.4021 162.89H122.041V169.83H80.4021V162.89ZM94.2817 96.5762H80.4021V87.3231H118.442V96.5762H104.306V133.331H94.2817V96.5762ZM118.957 110.456C118.957 97.3472 128.724 86.552 142.86 86.552C151.599 86.552 156.74 89.3793 161.109 93.7488L154.684 101.203C151.085 97.8613 147.487 96.0621 142.86 96.0621C135.149 96.0621 129.495 102.488 129.495 110.456V110.199C129.495 118.167 134.892 124.592 142.86 124.592C148.001 124.592 151.342 122.536 154.941 119.195L161.366 125.62C156.74 130.761 151.342 133.845 142.603 133.845C128.981 134.102 118.957 123.564 118.957 110.456Z" fill="white"/>
<defs>
<linearGradient id="paint0_linear_134_257" x1="42.5554" y1="118.611" x2="141.234" y2="118.611" gradientUnits="userSpaceOnUse">
<stop stop-color="#905CFB"/>
<stop offset="0.068" stop-color="#776CF9"/>
<stop offset="0.173" stop-color="#5681F7"/>
<stop offset="0.286" stop-color="#3B92F5"/>
<stop offset="0.41" stop-color="#269FF4"/>
<stop offset="0.547" stop-color="#17A9F3"/>
<stop offset="0.711" stop-color="#0FAEF2"/>
<stop offset="0.968" stop-color="#0CB0F2"/>
</linearGradient>
<linearGradient id="paint1_linear_134_257" x1="51.647" y1="63.0823" x2="215.933" y2="150.979" gradientUnits="userSpaceOnUse">
<stop stop-color="#905CFB"/>
<stop offset="0.068" stop-color="#776CF9"/>
<stop offset="0.173" stop-color="#5681F7"/>
<stop offset="0.286" stop-color="#3B92F5"/>
<stop offset="0.41" stop-color="#269FF4"/>
<stop offset="0.547" stop-color="#17A9F3"/>
<stop offset="0.711" stop-color="#0FAEF2"/>
<stop offset="0.968" stop-color="#0CB0F2"/>
</linearGradient>
<linearGradient id="paint2_linear_134_257" x1="-11.5779" y1="220.259" x2="181.881" y2="123.528" gradientUnits="userSpaceOnUse">
<stop stop-color="#3BEA62"/>
<stop offset="0.117" stop-color="#31DE80"/>
<stop offset="0.302" stop-color="#24CEA8"/>
<stop offset="0.484" stop-color="#1AC1C9"/>
<stop offset="0.659" stop-color="#12B7DF"/>
<stop offset="0.824" stop-color="#0EB2ED"/>
<stop offset="0.968" stop-color="#0CB0F2"/>
</linearGradient>
<linearGradient id="paint3_linear_134_257" x1="138.091" y1="53.2663" x2="51.9319" y2="237.451" gradientUnits="userSpaceOnUse">
<stop stop-color="#3BEA62"/>
<stop offset="0.094" stop-color="#2FDB87"/>
<stop offset="0.196" stop-color="#24CEA8"/>
<stop offset="0.306" stop-color="#1BC3C3"/>
<stop offset="0.426" stop-color="#14BAD8"/>
<stop offset="0.56" stop-color="#10B5E7"/>
<stop offset="0.719" stop-color="#0DB1EF"/>
<stop offset="0.968" stop-color="#0CB0F2"/>
</linearGradient>
</defs>
</svg>
