<svg width="256" height="256" viewBox="0 0 256 256" fill="none" xmlns="http://www.w3.org/2000/svg">
<g clip-path="url(#clip0_122_2)">
<path d="M196 0H60C26.8629 0 0 26.8629 0 60V196C0 229.137 26.8629 256 60 256H196C229.137 256 256 229.137 256 196V60C256 26.8629 229.137 0 196 0Z" fill="#37AEE2"/>
<path d="M105.708 194.69C100.243 194.69 100.74 192.703 99.2498 187.735L83.3523 135.571L205.067 64.0327" fill="#C8DAEA"/>
<path d="M105.708 194.69C109.186 194.69 111.173 192.703 113.657 190.716L136.013 169.353L108.192 152.462" fill="#A9C9DD"/>
<path d="M108.192 152.462L175.26 201.645C182.215 206.116 188.176 203.632 190.163 194.69L217.487 66.5166C219.971 55.5871 213.016 50.6191 205.564 54.0967L46.0926 115.699C35.6599 119.674 35.6599 126.132 44.1054 128.616L85.3395 141.533L179.731 81.4205C184.202 78.9365 188.176 79.9301 185.195 83.4076" fill="#F6FBFE"/>
</g>
<defs>
<clipPath id="clip0_122_2">
<rect width="256" height="256" fill="white"/>
</clipPath>
</defs>
</svg>
