<svg width="257" height="256" viewBox="0 0 257 256" fill="none" xmlns="http://www.w3.org/2000/svg">
<path d="M0.00195312 56C0.00195312 25.0721 25.074 0 56.002 0H200.002C230.93 0 256.002 25.0721 256.002 56V200C256.002 230.928 230.93 256 200.002 256H56.002C25.074 256 0.00195312 230.928 0.00195312 200V56Z" fill="#F8FAFC"/>
<path d="M123.983 228L90.8749 208.187V91.3596L41 121.063L41.1212 76.8128L123.983 28V228ZM131.428 28V228L164.54 208.187V151.922L189.535 166.813L189.386 128.328L164.54 113.702V91.3596L214.399 121.063L214.279 76.8128L131.428 28Z" fill="#FF6F00"/>
</svg>
