<svg width="256" height="256" viewBox="0 0 256 256" fill="none" xmlns="http://www.w3.org/2000/svg">
<path fill-rule="evenodd" clip-rule="evenodd" d="M47.7329 66.3796C68.7157 57.8811 103.336 56.7754 118.374 57.3411L128 69.7011L137.63 57.3411C152.669 56.7754 187.289 57.8768 208.267 66.3796C205.37 71.8825 192.766 79.7082 185.84 81.4482C185.446 70.6354 170.163 68.3811 155.501 68.3811L127.996 215.887L100.494 68.3768C85.8157 68.3768 70.5329 70.6311 70.1386 81.4439C63.2214 79.7082 50.6257 71.8825 47.7329 66.3796ZM38 51.7182L43.37 59.5996C63.74 52.4511 87.9157 49.0139 113.429 48.2425C123.084 47.9468 132.916 47.9468 142.563 48.2425C168.076 49.0096 192.256 52.4468 212.626 59.5996L218 51.7182C193.944 43.5668 168.384 40.8496 142.863 40.1896C132.976 39.9368 123.02 39.9368 113.15 40.1896C87.6071 40.8496 62.06 43.5668 38 51.7182Z" fill="url(#paint0_linear_175_41)"/>
<defs>
<linearGradient id="paint0_linear_175_41" x1="126.937" y1="38.0125" x2="140.373" y2="211.365" gradientUnits="userSpaceOnUse">
<stop stop-color="#F44F5A"/>
<stop offset="0.499" stop-color="#EE3D4A"/>
<stop offset="1" stop-color="#E52030"/>
</linearGradient>
</defs>
</svg>
