<svg width="256" height="256" viewBox="0 0 256 256" fill="none" xmlns="http://www.w3.org/2000/svg">
<path d="M196 0H60C26.8629 0 0 26.8629 0 60V196C0 229.137 26.8629 256 60 256H196C229.137 256 256 229.137 256 196V60C256 26.8629 229.137 0 196 0Z" fill="white"/>
<path d="M196 0H60C26.8629 0 0 26.8629 0 60V196C0 229.137 26.8629 256 60 256H196C229.137 256 256 229.137 256 196V60C256 26.8629 229.137 0 196 0Z" fill="#1D9BF0"/>
<path d="M207.524 87.4571C207.647 89.2204 207.647 90.9835 207.647 92.7629C207.647 146.982 166.371 209.513 90.8967 209.513V209.48C68.6012 209.513 46.769 203.127 28 191.086C31.2419 191.476 34.5001 191.67 37.7664 191.678C56.2429 191.694 74.1913 185.494 88.7272 174.079C71.1688 173.746 55.7717 162.298 50.3929 145.584C56.5436 146.771 62.8812 146.527 68.9181 144.878C49.7753 141.01 36.0032 124.191 36.0032 104.658C36.0032 104.479 36.0032 104.309 36.0032 104.138C41.7071 107.314 48.0934 109.078 54.626 109.273C36.5963 97.2234 31.0388 73.2382 41.9264 54.4854C62.7593 80.1201 93.4967 95.7041 126.493 97.3534C123.186 83.1021 127.703 68.1681 138.363 58.1498C154.89 42.6146 180.882 43.4108 196.418 59.9292C205.607 58.1174 214.414 54.7454 222.474 49.9678C219.412 59.4661 213.001 67.5344 204.437 72.6614C212.57 71.7026 220.517 69.525 228 66.2018C222.491 74.4569 215.552 81.6477 207.524 87.4571Z" fill="white"/>
</svg>
