<svg width="256" height="256" viewBox="0 0 256 256" fill="none" xmlns="http://www.w3.org/2000/svg">
<path d="M218 72.142C211.386 75.0715 204.274 77.0245 196.769 77.9499C204.397 73.4213 210.269 66.1978 213.024 57.6609C205.885 61.844 197.975 64.9185 189.562 66.5389C182.842 59.4177 173.256 55 162.638 55C142.242 55 125.706 71.3873 125.706 91.5953C125.706 94.4566 126.043 97.2411 126.67 99.9446C95.9845 98.4052 68.7661 83.8174 50.558 61.6777C47.3599 67.089 45.5604 73.4213 45.5604 80.1075C45.5604 92.8106 52.0633 103.996 61.9818 110.584C55.9267 110.4 50.2297 108.716 45.2406 106.013C45.2406 106.123 45.2406 106.285 45.2406 106.443C45.2406 124.195 57.9735 138.979 74.8511 142.343C71.7681 143.188 68.506 143.657 65.1458 143.657C62.7622 143.657 60.4382 143.388 58.1867 142.983C62.8858 157.49 76.5184 168.095 92.6712 168.41C80.0321 178.21 64.1139 184.077 46.8056 184.077C43.8164 184.077 40.8911 183.906 38 183.557C54.3617 193.915 73.7766 199.982 94.6199 199.982C162.536 199.982 199.694 144.211 199.694 95.8254C199.694 94.2391 199.643 92.6613 199.57 91.1006C206.819 85.9793 213.066 79.5234 218 72.142Z" fill="url(#paint0_linear_171_7)"/>
<defs>
<linearGradient id="paint0_linear_171_7" x1="65.4955" y1="60.5946" x2="195.37" y2="190.469" gradientUnits="userSpaceOnUse">
<stop stop-color="#2AA4F4"/>
<stop offset="1" stop-color="#007AD9"/>
</linearGradient>
</defs>
</svg>
