<svg width="256" height="256" viewBox="0 0 256 256" fill="none" xmlns="http://www.w3.org/2000/svg">
<rect width="256" height="256" rx="56" fill="#37AEE2"/>
<path d="M103.06 153.679L103 161.393H115.259H127.519V196.228V231.062H136.19H144.862V196.228V161.393H157.121H169.38V153.828C169.38 149.642 169.291 146.144 169.171 146.054C169.081 145.935 154.16 145.874 136.07 145.905L103.15 145.994L103.06 153.679Z" fill="white"/>
<path d="M213.403 145.775C218.187 146.972 221.835 149.095 225.184 152.563C226.919 154.417 229.49 157.796 229.699 158.603C229.759 158.842 221.566 164.344 216.603 167.424C216.423 167.544 215.705 166.766 214.898 165.57C212.476 162.042 209.935 160.516 206.047 160.248C200.336 159.859 196.659 162.849 196.689 167.843C196.689 169.308 196.898 170.174 197.496 171.371C198.751 173.972 201.084 175.527 208.41 178.696C221.895 184.498 227.666 188.325 231.254 193.766C235.261 199.836 236.158 209.524 233.437 216.731C230.447 224.564 223.031 229.887 212.595 231.651C209.367 232.219 201.712 232.13 198.244 231.502C190.678 230.156 183.502 226.419 179.077 221.515C177.343 219.601 173.964 214.608 174.173 214.249C174.262 214.129 175.04 213.651 175.907 213.143C176.744 212.664 179.914 210.84 182.904 209.106L188.316 205.966L189.452 207.641C191.037 210.062 194.505 213.382 196.599 214.488C202.609 217.658 210.862 217.209 214.928 213.561C216.663 211.976 217.38 210.332 217.38 207.91C217.38 205.727 217.111 204.77 215.974 203.125C214.509 201.033 211.52 199.268 203.027 195.59C193.31 191.404 189.124 188.803 185.296 184.676C183.084 182.285 180.99 178.457 180.123 175.258C179.406 172.597 179.226 165.929 179.795 163.238C181.797 153.849 188.884 147.301 199.11 145.357C202.43 144.729 210.144 144.968 213.403 145.775Z" fill="white"/>
</svg>
