<svg width="256" height="256" viewBox="0 0 256 256" fill="none" xmlns="http://www.w3.org/2000/svg">
<path d="M196 0H60C26.8629 0 0 26.8629 0 60V196C0 229.137 26.8629 256 60 256H196C229.137 256 256 229.137 256 196V60C256 26.8629 229.137 0 196 0Z" fill="#007ACC"/>
<path d="M56.6106 128.849L56.5293 139.333H73.1896H89.8499V186.673V234.012H101.634H113.418V186.673V139.333H130.078H146.738V129.052C146.738 123.363 146.617 118.609 146.454 118.487C146.332 118.325 126.055 118.243 101.471 118.284L56.7325 118.406L56.6106 128.849Z" fill="white"/>
<path d="M206.568 118.108C213.069 119.734 218.027 122.619 222.578 127.332C224.935 129.852 228.429 134.444 228.714 135.541C228.795 135.866 217.661 143.343 210.916 147.528C210.672 147.691 209.696 146.634 208.599 145.009C205.308 140.214 201.854 138.141 196.571 137.776C188.81 137.247 183.812 141.311 183.853 148.097C183.853 150.088 184.137 151.266 184.95 152.892C186.656 156.427 189.826 158.54 199.782 162.847C218.108 170.731 225.95 175.932 230.827 183.327C236.272 191.576 237.491 204.742 233.793 214.535C229.73 225.181 219.652 232.414 205.47 234.812C201.082 235.584 190.679 235.462 185.966 234.609C175.685 232.78 165.933 227.701 159.919 221.037C157.562 218.436 152.97 211.65 153.255 211.162C153.376 211 154.433 210.35 155.611 209.659C156.749 209.009 161.057 206.53 165.12 204.173L172.475 199.906L174.019 202.182C176.173 205.473 180.886 209.984 183.731 211.487C191.898 215.795 203.114 215.185 208.64 210.228C210.997 208.074 211.972 205.839 211.972 202.548C211.972 199.581 211.606 198.281 210.062 196.046C208.071 193.202 204.008 190.804 192.467 185.806C179.261 180.117 173.572 176.582 168.371 170.974C165.364 167.724 162.519 162.522 161.341 158.174C160.366 154.558 160.122 145.496 160.894 141.839C163.616 129.08 173.247 120.181 187.144 117.539C191.655 116.686 202.138 117.011 206.568 118.108Z" fill="white"/>
</svg>
