<svg width="256" height="256" viewBox="0 0 256 256" fill="none" xmlns="http://www.w3.org/2000/svg">
<path d="M207.33 163.833V80.0683L134.735 38.1861V70.3888L163.215 86.7694C164.332 87.3278 164.332 89.0031 163.215 89.5615L129.336 109.106C128.406 109.665 127.103 109.665 126.172 109.106L92.2945 89.3753C91.1777 88.8169 91.1777 87.1416 92.2945 86.5832L120.775 70.2026V38L48.1787 79.882V163.833V163.46V163.833L76.1 147.824V114.877C76.1 113.76 77.4031 112.83 78.52 113.574L112.397 133.119C113.329 133.677 114.073 134.794 114.073 135.911V175.001C114.073 176.118 112.77 177.048 111.653 176.304L83.1735 159.923L55.2521 175.931L127.848 217.814L200.444 175.931L172.522 159.923L144.042 176.304C143.112 176.862 141.622 176.118 141.622 175.001V135.911C141.622 134.794 142.18 133.677 143.297 133.119L177.176 113.574C178.106 113.015 179.595 113.76 179.595 114.877V147.824L207.33 163.833Z" fill="#CCCCCC"/>
<path d="M127.662 218L200.257 176.118L172.336 160.109L143.856 176.49C142.926 177.049 141.436 176.304 141.436 175.187V136.097C141.436 134.98 141.995 133.863 143.112 133.305L176.99 113.76C177.92 113.202 179.41 113.946 179.41 115.063V148.011L207.331 164.019V80.0684L127.662 126.045V218Z" fill="#404040"/>
<path d="M134.549 38V70.2026L163.029 86.5832C164.146 87.1416 164.146 88.8169 163.029 89.3753L129.151 108.92C128.22 109.479 126.917 109.479 125.987 108.92L92.2945 89.3753C91.1776 88.8169 91.1776 87.1416 92.2945 86.5832L120.775 70.2026V38L48.1787 79.882L127.848 125.859L207.517 79.882L134.549 38Z" fill="#111827"/>
<path d="M111.28 176.304L82.8009 159.924L54.8794 175.932L127.475 217.814V125.86L47.9922 80.0684V164.019V163.646V164.019L75.9135 148.011V115.063C75.9135 113.946 77.2165 113.016 78.3334 113.76L112.212 133.305C113.142 133.863 113.887 134.98 113.887 136.097V175.187C113.7 176.118 112.397 176.863 111.28 176.304Z" fill="#807E7E"/>
</svg>
