<svg width="256" height="256" viewBox="0 0 256 256" fill="none" xmlns="http://www.w3.org/2000/svg">
<path d="M176.136 60.4763L113.549 76.1679L68.0449 121.258H140.081L176.136 60.4763Z" fill="white"/>
<path d="M68.1934 134.763L113.554 179.507L176.315 195.198L140.243 134.763H68.1934Z" fill="white"/>
<path d="M188.074 67.375L152.137 128.004L188.074 188.453L205.449 128.004L188.074 67.375Z" fill="white"/>
<path opacity="0.07" d="M114.692 78.2018L171.447 63.9683L138.799 119.008H73.5125L114.692 78.2018Z" stroke="black" stroke-width="5" stroke-miterlimit="10"/>
<path opacity="0.05" d="M114.692 78.2018L171.447 63.9683L138.799 119.008H73.5125L114.692 78.2018Z" stroke="#1D1D1B" stroke-width="10"/>
<path opacity="0.07" d="M114.692 78.2018L171.447 63.9683L138.799 119.008H73.5125L114.692 78.2018Z" stroke="black" stroke-width="5"/>
<path opacity="0.07" d="M187.35 182.832L154.756 128.004L187.35 73.0088L203.109 128.004L187.35 182.832Z" stroke="black" stroke-width="5" stroke-miterlimit="10"/>
<path opacity="0.07" d="M114.692 177.473L73.679 137.013H138.965L171.613 191.702L114.692 177.473Z" stroke="black" stroke-width="5" stroke-miterlimit="10"/>
<path opacity="0.05" d="M187.35 182.832L154.756 128.004L187.35 73.0088L203.109 128.004L187.35 182.832Z" stroke="#1D1D1B" stroke-width="10"/>
<path opacity="0.07" d="M187.35 182.832L154.756 128.004L187.35 73.0088L203.109 128.004L187.35 182.832Z" stroke="black" stroke-width="5"/>
<path opacity="0.05" d="M114.692 177.473L73.679 137.013H138.965L171.613 191.702L114.692 177.473Z" stroke="#1D1D1B" stroke-width="10"/>
<path opacity="0.07" d="M114.692 177.473L73.679 137.013H138.965L171.613 191.702L114.692 177.473Z" stroke="black" stroke-width="5"/>
<path d="M187.35 182.832L154.756 128.004L187.35 73.0088L203.109 128.004L187.35 182.832ZM114.692 177.472L73.6745 137.013H138.965L171.609 191.701L114.692 177.472ZM114.692 78.2018L171.442 63.9727L138.799 119.013H73.5125L114.692 78.2018ZM193.717 38.1471L125.731 55.7962C124.561 56.1022 123.557 56.8582 122.945 57.9067L112.852 75.1913L92.4531 75.0383C91.2561 75.0293 90.1086 75.4928 89.2491 76.3253L39.3798 124.737C37.5393 126.528 37.5393 129.484 39.3843 131.271L89.2491 179.529C90.1041 180.357 91.2561 180.816 92.4486 180.807L112.852 180.654L122.95 197.943C123.557 198.987 124.556 199.743 125.726 200.049L193.713 217.851C196.125 218.481 198.595 217.055 199.252 214.652L217.464 148.101C217.797 146.89 217.612 145.594 216.955 144.523L206.835 128.022L216.955 111.489C217.612 110.417 217.797 109.121 217.464 107.911L199.248 41.3466C198.591 38.9481 196.125 37.5216 193.717 38.1471Z" fill="url(#paint0_linear_36_896)"/>
<defs>
<linearGradient id="paint0_linear_36_896" x1="96.1611" y1="47.8941" x2="203.878" y2="226.514" gradientUnits="userSpaceOnUse">
<stop stop-color="#636363"/>
<stop offset="1" stop-color="#444444"/>
</linearGradient>
</defs>
</svg>
