<svg width="256" height="256" viewBox="0 0 256 256" fill="none" xmlns="http://www.w3.org/2000/svg">
<path d="M196 0H60C26.8629 0 0 26.8629 0 60V196C0 229.137 26.8629 256 60 256H196C229.137 256 256 229.137 256 196V60C256 26.8629 229.137 0 196 0Z" fill="#0E1128"/>
<path fill-rule="evenodd" clip-rule="evenodd" d="M187.422 143.122C185.697 151.847 178.031 174.244 153.577 186.37L143.759 174.776L127.19 192.265C117.761 192.132 108.49 189.712 100.101 185.194C91.7116 180.676 84.4308 174.182 78.8278 166.22C80.5877 166.796 82.4052 167.155 84.2439 167.291C86.9582 167.343 89.895 166.298 89.895 161.513V114.319C89.9332 113.106 89.7008 111.9 89.2164 110.798C88.732 109.696 88.009 108.728 87.1051 107.971C86.2013 107.214 85.1415 106.69 84.0102 106.439C82.8791 106.189 81.7079 106.22 80.5899 106.529C72.9171 108.385 66.79 128.484 66.79 128.484C66.704 119.204 68.5438 110.017 72.1815 101.559C75.8192 93.1019 81.1675 85.5779 87.8547 79.5103C96.6565 71.5166 107.431 66.298 118.935 64.4561C110.558 69.4676 105.853 77.6407 105.853 84.4959C105.853 95.5318 112.184 94.1945 114.057 92.5716V156.268C114.376 157.067 114.792 157.82 115.294 158.508C116.13 159.723 117.232 160.711 118.507 161.389C119.782 162.066 121.192 162.414 122.62 162.403C128.958 162.403 137.181 154.807 137.181 154.807V103.25C137.181 98.0051 133.416 91.6692 129.644 89.4945C129.644 89.4945 136.624 88.1962 142.01 92.5261C143.022 91.2285 144.097 89.9869 145.231 88.8064C157.8 75.8555 169.64 72.1682 179.502 70.3245C179.502 70.3245 161.572 85.1191 161.572 104.971C161.572 119.733 161.937 155.736 161.937 155.736C168.589 162.481 178.482 152.737 187.422 143.122Z" fill="white"/>
<path fill-rule="evenodd" clip-rule="evenodd" d="M128 23C108.222 23 88.888 29.1579 72.4431 40.6951C55.9981 52.2323 43.1809 68.6306 35.6121 87.8162C28.0434 107.002 26.063 128.113 29.9215 148.481C33.7801 168.848 43.3042 187.557 57.2894 202.241C71.2747 216.925 89.093 226.925 108.491 230.976C127.889 235.027 147.996 232.948 166.269 225.001C184.541 217.054 200.159 203.596 211.147 186.33C222.136 169.063 228 148.763 228 127.997C228 100.15 217.464 73.4435 198.711 53.7528C179.957 34.0621 154.522 23 128 23ZM128 228.787C109.013 228.787 90.4521 222.875 74.6648 211.799C58.8776 200.723 46.5731 184.98 39.3073 166.562C32.0415 148.143 30.1407 127.876 33.8454 108.323C37.55 88.7706 46.6938 70.8104 60.1202 56.714C73.5467 42.6176 90.6528 33.0181 109.275 29.1296C127.898 25.2411 147.201 27.2381 164.742 34.8682C182.284 42.4982 197.277 55.4186 207.825 71.9953C218.372 88.5721 224.002 108.061 224 127.997C224 154.73 213.886 180.368 195.883 199.271C177.879 218.174 153.461 228.793 128 228.793V228.787Z" fill="white"/>
</svg>
