<svg width="256" height="256" viewBox="0 0 256 256" fill="none" xmlns="http://www.w3.org/2000/svg">
<g clip-path="url(#clip0_30_658)">
<path d="M196 0H60C26.8629 0 0 26.8629 0 60V196C0 229.137 26.8629 256 60 256H196C229.137 256 256 229.137 256 196V60C256 26.8629 229.137 0 196 0Z" fill="#0E1128"/>
<path fill-rule="evenodd" clip-rule="evenodd" d="M178.652 140.965C177.174 148.444 170.602 167.642 149.641 178.036L141.226 168.098L127.023 183.089C118.941 182.975 110.994 180.9 103.803 177.028C96.6121 173.155 90.3712 167.589 85.5685 160.764C87.077 161.258 88.6349 161.565 90.211 161.682C92.5376 161.726 95.055 160.831 95.055 156.729V116.276C95.0877 115.236 94.8885 114.202 94.4732 113.258C94.058 112.313 93.4383 111.483 92.6636 110.835C91.8888 110.186 90.9804 109.737 90.0107 109.521C89.0411 109.307 88.0372 109.334 87.0789 109.599C80.502 111.189 75.25 128.418 75.25 128.418C75.1763 120.463 76.7533 112.588 79.8714 105.338C82.9896 98.0892 87.574 91.6399 93.3061 86.4389C100.851 79.587 110.087 75.1137 119.947 73.5349C112.767 77.8306 108.733 84.8364 108.733 90.7124C108.733 100.172 114.161 99.0258 115.766 97.6347V152.233C116.04 152.918 116.396 153.564 116.826 154.153C117.543 155.195 118.488 156.042 119.581 156.623C120.673 157.203 121.881 157.501 123.106 157.492C128.538 157.492 135.587 150.981 135.587 150.981V106.788C135.587 102.292 132.36 96.8612 129.127 94.9971C129.127 94.9971 135.11 93.8842 139.726 97.5957C140.593 96.4834 141.515 95.4191 142.487 94.4073C153.261 83.3061 163.41 80.1455 171.863 78.5651C171.863 78.5651 156.494 91.2466 156.494 108.263C156.494 120.917 156.807 151.777 156.807 151.777C162.509 157.559 170.989 149.207 178.652 140.965Z" fill="white"/>
<path fill-rule="evenodd" clip-rule="evenodd" d="M127.717 38C110.764 38 94.1914 43.2784 80.0953 53.1677C65.9991 63.057 55.0126 77.1132 48.5249 93.5585C42.0372 110.004 40.3396 128.1 43.6471 145.559C46.9545 163.017 55.1183 179.053 67.106 191.64C79.0938 204.227 94.3671 212.798 110.995 216.271C127.622 219.743 144.857 217.961 160.52 211.149C176.182 204.337 189.569 192.801 198.988 178.002C208.407 163.201 213.434 145.8 213.434 128C213.434 104.131 204.403 81.2386 188.328 64.3604C172.253 47.4821 150.451 38 127.717 38ZM127.717 214.394C111.442 214.394 95.532 209.327 81.9997 199.833C68.4674 190.339 57.9203 176.844 51.6923 161.057C45.4642 145.269 43.835 127.897 47.0105 111.136C50.186 94.3766 58.0237 78.9816 69.5325 66.8986C81.0413 54.8156 95.7041 46.5872 111.667 43.2541C127.629 39.921 144.175 41.6328 159.211 48.1731C174.247 54.7133 187.099 65.7882 196.14 79.9973C205.181 94.2064 210.007 110.912 210.005 128C210.005 150.915 201.336 172.891 185.904 189.094C170.471 205.297 149.542 214.4 127.717 214.4V214.394Z" fill="white"/>
</g>
<defs>
<clipPath id="clip0_30_658">
<rect width="256" height="256" fill="white"/>
</clipPath>
</defs>
</svg>
