<svg width="257" height="256" viewBox="0 0 257 256" fill="none" xmlns="http://www.w3.org/2000/svg">
<path d="M0.00195312 56C0.00195312 25.0721 25.074 0 56.002 0H200.002C230.93 0 256.002 25.0721 256.002 56V200C256.002 230.928 230.93 256 200.002 256H56.002C25.074 256 0.00195312 230.928 0.00195312 200V56Z" fill="#0F172A"/>
<path d="M156.717 213.261L217.69 43.7065C218.723 40.8308 217.094 38.7341 214.052 39.0274L166.102 43.6465C163.061 43.9399 159.775 46.5205 158.77 49.4058L102.334 211.445C101.328 214.331 102.993 216.673 106.048 216.673H152.721C154.248 216.673 155.908 215.506 156.426 214.068L156.717 213.261Z" fill="#536B8A"/>
<g filter="url(#filter0_f_24_481)">
<path d="M149.76 214.068L124.374 140.732L128 138.464L153.84 213.261L149.76 214.068Z" fill="black"/>
</g>
<path d="M41.9486 39.0274L89.8982 43.6465C92.9397 43.9399 96.2288 46.5193 97.2386 49.4033L154.869 214.061C155.373 215.503 154.543 216.673 153.015 216.673H106.048C102.993 216.673 99.6719 214.339 98.6378 211.463L38.3108 43.7065C37.277 40.8308 38.9066 38.7341 41.9486 39.0274Z" fill="#5D87BF"/>
<defs>
<filter id="filter0_f_24_481" x="111.494" y="125.584" width="55.2258" height="101.364" filterUnits="userSpaceOnUse" color-interpolation-filters="sRGB">
<feFlood flood-opacity="0" result="BackgroundImageFix"/>
<feBlend mode="normal" in="SourceGraphic" in2="BackgroundImageFix" result="shape"/>
<feGaussianBlur stdDeviation="6.44" result="effect1_foregroundBlur_24_481"/>
</filter>
</defs>
</svg>
