<svg width="256" height="256" viewBox="0 0 256 256" fill="none" xmlns="http://www.w3.org/2000/svg">
<g clip-path="url(#clip0_30_481)">
<path d="M196 0H60C26.8629 0 0 26.8629 0 60V196C0 229.137 26.8629 256 60 256H196C229.137 256 256 229.137 256 196V60C256 26.8629 229.137 0 196 0Z" fill="url(#paint0_linear_30_481)"/>
<path opacity="0.15" d="M130.887 38C124.358 38 117.805 38.8294 111.252 40.4629C104.795 42.0116 98.5617 44.2196 92.5551 47.0872C86.6673 49.8554 81.0521 53.2048 75.788 57.0886C75.7799 57.0953 75.7718 57.102 75.7637 57.1086C70.7349 60.8363 66.1219 65.1289 62.0095 69.9075C61.9998 69.9207 61.9901 69.9341 61.9805 69.9474C58.1552 74.4703 54.9791 79.538 52.5498 84.9946C52.5417 85.0129 52.5336 85.0311 52.5257 85.0495C50.2272 90.3514 49.0262 96.0907 49 101.9C49 106.456 49.532 110.502 50.804 114.06C50.8165 114.095 50.8293 114.129 50.8427 114.164C52.1581 117.611 54.1313 120.624 56.7283 122.907C56.7507 122.927 56.7733 122.947 56.796 122.967C59.4076 125.185 62.5415 126.734 66.0236 127.698C66.0606 127.708 66.0976 127.718 66.1347 127.727C69.5298 128.582 73.2586 128.986 77.3549 128.986C78.6572 128.986 79.9063 128.453 80.8276 127.501C81.7489 126.551 82.2672 125.261 82.2685 123.916C82.2685 122.037 81.63 120.739 80.982 119.67L81.2094 120.089C80.9411 119.484 80.7022 118.866 80.4936 118.236C80.4936 118.23 80.4839 118.236 80.4839 118.226C80.1405 117.07 79.8532 115.899 79.623 114.714C79.3623 112.667 79.2459 110.603 79.2748 108.539C79.2748 96.7194 81.8961 87.3225 86.9548 79.814C90.8092 74.1638 96.1436 70.0125 102.286 66.5604L105.627 213.045C105.658 214.369 106.189 215.63 107.107 216.555C108.026 217.482 109.258 218 110.541 218H142.122C143.123 218 144.1 217.685 144.923 217.095C145.746 216.506 146.375 215.672 146.726 214.702L207.633 45.9532C207.909 45.1861 208.002 44.3615 207.902 43.5496C207.803 42.7377 207.516 41.9625 207.064 41.2903C206.612 40.6181 206.009 40.0687 205.308 39.6889C204.606 39.3091 203.826 39.1101 203.034 39.109H187.732C186.709 39.1085 185.711 39.4381 184.878 40.0516C184.045 40.6651 183.418 41.532 183.085 42.5311L146.092 153.685L144.574 43.4503C144.556 42.2053 144.096 41.0104 143.281 40.093C142.466 39.1755 141.353 38.5995 140.154 38.4746C138.651 38.3194 137.144 38.2028 135.637 38.1248H135.627C134.048 38.0422 132.468 38.0023 130.887 38.005V38Z" fill="#201C2C"/>
<path opacity="0.3" d="M110.541 212.924L107.011 58.2222C96.7325 62.2021 88.7043 68.4301 82.9266 76.9061C77.2134 85.3855 74.3568 95.928 74.3568 108.534C74.3568 111.408 74.5003 113.768 74.7873 115.613C75.1419 117.382 75.4982 118.818 75.856 119.924C76.214 120.956 76.5363 121.767 76.8234 122.357C77.178 122.946 77.3553 123.463 77.3553 123.906C73.5734 123.906 70.2202 123.538 67.296 122.801C64.3683 121.989 61.9051 120.735 59.9061 119.039C57.9782 117.348 56.4789 115.1 55.4085 112.296C54.409 109.498 53.9092 106.034 53.9092 101.905C53.9092 96.8922 54.9426 91.9531 57.0093 87.0873C59.1501 82.2248 62.0406 77.6171 65.6806 73.2642C69.3916 68.918 73.7104 64.9015 78.6369 61.2146C83.6344 57.5278 88.9509 54.3572 94.5868 51.7029C100.294 48.9752 106.216 46.8753 112.355 45.4032C118.565 43.8512 124.739 43.0752 130.878 43.0752C132.519 43.0752 134.018 43.1118 135.376 43.1851C136.801 43.2584 138.225 43.3683 139.651 43.5148L141.581 182.845L187.718 44.1743H203.024L142.117 212.929H110.537L110.541 212.924Z" fill="#201C2C"/>
<path d="M109.015 217.995L105.274 54.0518C94.3814 58.2695 85.8737 64.8695 79.7508 73.8518C73.6963 82.8377 70.6691 94.01 70.6691 107.368C70.6691 110.415 70.8211 112.915 71.1253 114.871C71.501 116.745 71.8786 118.268 72.2579 119.439C72.6372 120.533 72.9788 121.393 73.283 122.017C73.6587 122.642 73.8466 123.189 73.8466 123.659C69.8388 123.659 66.2854 123.269 63.1864 122.489C60.0839 121.628 57.4736 120.299 55.3552 118.503C53.3121 116.71 51.7232 114.327 50.5889 111.355C49.5296 108.391 49 104.72 49 100.343C49 95.0318 50.0951 89.7976 52.2853 84.6411C54.554 79.4882 57.6171 74.6053 61.4746 69.9923C65.4073 65.3865 69.9841 61.1301 75.2049 57.2231C80.5008 53.316 86.135 49.956 92.1075 47.143C98.1552 44.2525 104.431 42.0271 110.937 40.4671C117.518 38.8224 124.061 38 130.566 38C132.306 38 133.894 38.0388 135.333 38.1165C136.843 38.1942 138.353 38.3106 139.864 38.466L141.908 186.119L190.802 39.1647H207.023L142.477 218H109.01L109.015 217.995Z" fill="white"/>
</g>
<defs>
<linearGradient id="paint0_linear_30_481" x1="128" y1="0" x2="128" y2="256" gradientUnits="userSpaceOnUse">
<stop stop-color="#AD65D6"/>
<stop offset="1" stop-color="#7B37B2"/>
</linearGradient>
<clipPath id="clip0_30_481">
<rect width="256" height="256" fill="white"/>
</clipPath>
</defs>
</svg>
