<svg width="256" height="256" viewBox="0 0 256 256" fill="none" xmlns="http://www.w3.org/2000/svg">
<path d="M131.53 47.8434C125.081 41.3855 114.616 41.3855 108.166 47.8435L42.82 113.278C36.3829 119.723 36.3829 130.165 42.82 136.61L107.798 201.675C114.247 208.133 124.713 208.133 131.162 201.675L196.508 136.24C202.945 129.794 202.945 119.353 196.508 112.907L131.53 47.8434Z" fill="#019833" stroke="black" stroke-width="4"/>
<path d="M154.358 48.9282L152.024 51.2643V59.8412L154.068 61.8869H164.864V70.1741L93.4476 142.657V61.9903H105.316L107.751 59.552V50.8727L105.503 49.1334H43.0447L41.0015 51.179V60.0458L43.0792 62.1261H53.9424V201.52C53.9424 206.772 57.8064 211.225 63.0064 211.963C66.3514 212.44 69.7218 211.284 72.0714 208.856L217.992 58.0843V51.2654L215.658 48.9294L154.358 48.9282Z" fill="white" stroke="black" stroke-width="4"/>
</svg>
