<svg width="257" height="256" viewBox="0 0 257 256" fill="none" xmlns="http://www.w3.org/2000/svg">
<path d="M0.00195312 56C0.00195312 25.0721 25.074 0 56.002 0H200.002C230.93 0 256.002 25.0721 256.002 56V200C256.002 230.928 230.93 256 200.002 256H56.002C25.074 256 0.00195312 230.928 0.00195312 200V56Z" fill="#22272E"/>
<path d="M131.931 39.3816C124.765 32.2061 113.137 32.2061 105.971 39.3817L33.3643 112.086C26.2119 119.248 26.2119 130.85 33.3643 138.012L105.562 210.306C112.728 217.481 124.356 217.481 131.522 210.306L204.129 137.6C211.281 130.438 211.281 118.837 204.129 111.675L131.931 39.3816Z" fill="#019833" stroke="black" stroke-width="4"/>
<path d="M157.296 40.5868L154.703 43.1824V52.7123L156.973 54.9853H168.97V64.1933L89.6177 144.73V55.1002H102.805L105.511 52.391V42.7474L103.013 40.8147H33.6145L31.3442 43.0877V52.9397L33.6528 55.2511H45.723V210.133C45.723 215.969 50.0164 220.916 55.7942 221.737C59.5109 222.266 63.2557 220.982 65.8664 218.284L228 50.7602V43.1837L225.408 40.588L157.296 40.5868Z" fill="white" stroke="black" stroke-width="4"/>
</svg>
