<svg width="256" height="256" viewBox="0 0 256 256" fill="none" xmlns="http://www.w3.org/2000/svg">
<path d="M70.9912 190.248L40.9931 167.749C40.0578 167.055 39.2989 166.148 38.7776 165.107C38.2563 164.065 37.9873 162.915 37.9923 161.75V94.2499C37.9873 93.0846 38.2563 91.9345 38.7776 90.8926C39.2989 89.8505 40.0578 88.9455 40.9931 88.2507L70.9912 65.7507C70.1854 66.5075 69.5764 67.4494 69.2171 68.4948C68.8578 69.5404 68.7592 70.6576 68.9297 71.7499V184.25C68.7592 185.343 68.8578 186.459 69.2171 187.505C69.5764 188.55 70.1854 189.492 70.9912 190.248Z" fill="#5E438F"/>
<g filter="url(#filter0_dd_36_875)">
<path d="M214.653 69.2384C213.418 68.4266 211.97 67.9962 210.491 68.001C209.534 67.9933 208.582 68.1746 207.694 68.5347C206.807 68.8947 205.998 69.4263 205.316 70.0991L204.793 70.625L172.915 101.188L144.943 128L111.829 159.762L81.192 189.124L80.6662 189.65C79.9846 190.323 79.1765 190.856 78.2884 191.217C77.4002 191.577 76.4497 191.759 75.4912 191.751C73.8686 191.747 72.2905 191.221 70.9912 190.249L40.9932 167.749C42.5171 168.893 44.4203 169.414 46.315 169.206C48.2096 168.997 49.9534 168.073 51.1912 166.624L67.9931 147.125L84.4912 127.963L111.829 96.2384L159.717 40.6241C160.412 39.8005 161.279 39.1389 162.257 38.6856C163.235 38.2323 164.301 37.9983 165.378 38C166.857 37.9953 168.305 38.4256 169.541 39.2375L214.653 69.2384Z" fill="url(#paint0_linear_36_875)"/>
</g>
<g filter="url(#filter1_dd_36_875)">
<path d="M214.653 186.761L169.654 216.763C168.124 217.762 166.283 218.176 164.471 217.928C162.66 217.68 160.999 216.787 159.793 215.413L111.829 159.762L84.4912 127.963L67.9931 108.838L51.1912 89.3367C49.9423 87.9018 48.1969 86.9925 46.3054 86.791C44.4139 86.5896 42.5161 87.1114 40.9932 88.251L70.9912 65.7511C72.2905 64.7792 73.8686 64.2524 75.4912 64.2493C76.4497 64.2412 77.4002 64.4226 78.2884 64.7832C79.1765 65.1437 79.9846 65.6763 80.6662 66.3502L81.192 66.8761L111.829 96.2385L144.943 128L172.955 154.852L204.793 185.375L205.316 185.902C205.998 186.574 206.807 187.105 207.694 187.465C208.582 187.825 209.534 188.007 210.491 187.999C211.97 188.004 213.418 187.573 214.653 186.761Z" fill="url(#paint1_linear_36_875)"/>
</g>
<g filter="url(#filter2_dd_36_875)">
<path d="M217.994 75.4988V180.5C217.994 181.738 217.69 182.957 217.108 184.049C216.526 185.14 215.683 186.073 214.654 186.761L169.654 216.762C170.683 216.073 171.526 215.141 172.107 214.048C172.69 212.956 172.993 211.737 172.993 210.499V45.5007C172.976 44.2536 172.653 43.0297 172.051 41.9373C171.449 40.8449 170.588 39.9176 169.542 39.2373L214.654 69.2381C215.68 69.9294 216.52 70.8616 217.103 71.953C217.685 73.0445 217.991 74.2619 217.994 75.4988Z" fill="url(#paint2_linear_36_875)"/>
</g>
<defs>
<filter id="filter0_dd_36_875" x="35.8122" y="34.1143" width="184.022" height="164.113" filterUnits="userSpaceOnUse" color-interpolation-filters="sRGB">
<feFlood flood-opacity="0" result="BackgroundImageFix"/>
<feColorMatrix in="SourceAlpha" type="matrix" values="0 0 0 0 0 0 0 0 0 0 0 0 0 0 0 0 0 0 127 0" result="hardAlpha"/>
<feOffset dy="0.246095"/>
<feGaussianBlur stdDeviation="0.246095"/>
<feColorMatrix type="matrix" values="0 0 0 0 0 0 0 0 0 0 0 0 0 0 0 0 0 0 0.24 0"/>
<feBlend mode="normal" in2="BackgroundImageFix" result="effect1_dropShadow_36_875"/>
<feColorMatrix in="SourceAlpha" type="matrix" values="0 0 0 0 0 0 0 0 0 0 0 0 0 0 0 0 0 0 127 0" result="hardAlpha"/>
<feOffset dy="1.29524"/>
<feGaussianBlur stdDeviation="2.59048"/>
<feColorMatrix type="matrix" values="0 0 0 0 0 0 0 0 0 0 0 0 0 0 0 0 0 0 0.22 0"/>
<feBlend mode="normal" in2="effect1_dropShadow_36_875" result="effect2_dropShadow_36_875"/>
<feBlend mode="normal" in="SourceGraphic" in2="effect2_dropShadow_36_875" result="shape"/>
</filter>
<filter id="filter1_dd_36_875" x="35.8122" y="60.3633" width="184.022" height="164.111" filterUnits="userSpaceOnUse" color-interpolation-filters="sRGB">
<feFlood flood-opacity="0" result="BackgroundImageFix"/>
<feColorMatrix in="SourceAlpha" type="matrix" values="0 0 0 0 0 0 0 0 0 0 0 0 0 0 0 0 0 0 127 0" result="hardAlpha"/>
<feOffset dy="0.246095"/>
<feGaussianBlur stdDeviation="0.246095"/>
<feColorMatrix type="matrix" values="0 0 0 0 0 0 0 0 0 0 0 0 0 0 0 0 0 0 0.24 0"/>
<feBlend mode="normal" in2="BackgroundImageFix" result="effect1_dropShadow_36_875"/>
<feColorMatrix in="SourceAlpha" type="matrix" values="0 0 0 0 0 0 0 0 0 0 0 0 0 0 0 0 0 0 127 0" result="hardAlpha"/>
<feOffset dy="1.29524"/>
<feGaussianBlur stdDeviation="2.59048"/>
<feColorMatrix type="matrix" values="0 0 0 0 0 0 0 0 0 0 0 0 0 0 0 0 0 0 0.22 0"/>
<feBlend mode="normal" in2="effect1_dropShadow_36_875" result="effect2_dropShadow_36_875"/>
<feBlend mode="normal" in="SourceGraphic" in2="effect2_dropShadow_36_875" result="shape"/>
</filter>
<filter id="filter2_dd_36_875" x="153.999" y="23.6944" width="79.5374" height="208.61" filterUnits="userSpaceOnUse" color-interpolation-filters="sRGB">
<feFlood flood-opacity="0" result="BackgroundImageFix"/>
<feColorMatrix in="SourceAlpha" type="matrix" values="0 0 0 0 0 0 0 0 0 0 0 0 0 0 0 0 0 0 127 0" result="hardAlpha"/>
<feOffset/>
<feGaussianBlur stdDeviation="0.129524"/>
<feColorMatrix type="matrix" values="0 0 0 0 0 0 0 0 0 0 0 0 0 0 0 0 0 0 0.24 0"/>
<feBlend mode="normal" in2="BackgroundImageFix" result="effect1_dropShadow_36_875"/>
<feColorMatrix in="SourceAlpha" type="matrix" values="0 0 0 0 0 0 0 0 0 0 0 0 0 0 0 0 0 0 127 0" result="hardAlpha"/>
<feOffset/>
<feGaussianBlur stdDeviation="7.77143"/>
<feColorMatrix type="matrix" values="0 0 0 0 0 0 0 0 0 0 0 0 0 0 0 0 0 0 0.3 0"/>
<feBlend mode="normal" in2="effect1_dropShadow_36_875" result="effect2_dropShadow_36_875"/>
<feBlend mode="normal" in="SourceGraphic" in2="effect2_dropShadow_36_875" result="shape"/>
</filter>
<linearGradient id="paint0_linear_36_875" x1="184.242" y1="38" x2="50.583" y2="172.524" gradientUnits="userSpaceOnUse">
<stop stop-color="#7252AA"/>
<stop offset="1" stop-color="#7252AA"/>
</linearGradient>
<linearGradient id="paint1_linear_36_875" x1="54.8677" y1="70.8115" x2="180.491" y2="211.435" gradientUnits="userSpaceOnUse">
<stop stop-color="#AE7FE2"/>
<stop offset="1" stop-color="#9A70D4"/>
</linearGradient>
<linearGradient id="paint2_linear_36_875" x1="193.235" y1="35.6175" x2="193.235" y2="216.61" gradientUnits="userSpaceOnUse">
<stop stop-color="#D59DFF"/>
<stop offset="1" stop-color="#C18EF1"/>
</linearGradient>
</defs>
</svg>
