<svg width="256" height="256" viewBox="0 0 256 256" fill="none" xmlns="http://www.w3.org/2000/svg">
<path d="M217.171 64.6414L132.723 215.65C130.978 218.769 126.499 218.787 124.73 215.684L38.6063 64.6559C36.6782 61.2749 39.5694 57.1794 43.4008 57.8643L127.94 72.9751C128.479 73.0715 129.032 73.0706 129.571 72.9724L212.342 57.8859C216.161 57.19 219.065 61.2536 217.171 64.6414Z" fill="url(#paint0_linear_36_871)"/>
<path d="M168.211 38.0443L105.717 50.2899C104.689 50.4911 103.929 51.3616 103.867 52.4063L100.023 117.333C99.9322 118.862 101.337 120.049 102.829 119.705L120.229 115.69C121.857 115.315 123.327 116.748 122.993 118.385L117.824 143.699C117.475 145.402 119.076 146.859 120.739 146.354L131.486 143.089C133.152 142.583 134.753 144.043 134.4 145.749L126.185 185.51C125.671 187.998 128.979 189.354 130.359 187.221L131.281 185.797L182.204 84.1693C183.057 82.4677 181.587 80.5273 179.718 80.8881L161.808 84.3446C160.125 84.6691 158.694 83.1017 159.168 81.4551L170.858 40.9324C171.333 39.283 169.896 37.7143 168.211 38.0443Z" fill="url(#paint1_linear_36_871)"/>
<defs>
<linearGradient id="paint0_linear_36_871" x1="36.5035" y1="52.4675" x2="141.607" y2="195.206" gradientUnits="userSpaceOnUse">
<stop stop-color="#41D1FF"/>
<stop offset="1" stop-color="#BD34FE"/>
</linearGradient>
<linearGradient id="paint1_linear_36_871" x1="123.089" y1="41.369" x2="142.101" y2="171.794" gradientUnits="userSpaceOnUse">
<stop stop-color="#FFEA83"/>
<stop offset="0.0833333" stop-color="#FFDD35"/>
<stop offset="1" stop-color="#FFA800"/>
</linearGradient>
</defs>
</svg>
