<svg width="256" height="256" viewBox="0 0 256 256" fill="none" xmlns="http://www.w3.org/2000/svg">
<mask id="mask0_36_865" style="mask-type:alpha" maskUnits="userSpaceOnUse" x="38" y="38" width="180" height="180">
<path d="M165.641 216.307C168.476 217.412 171.709 217.341 174.571 215.964L211.63 198.132C215.524 196.258 218 192.316 218 187.993V67.0801C218 62.7564 215.524 58.8153 211.63 56.9415L174.571 39.1088C170.815 37.3018 166.42 37.7444 163.125 40.1406C162.654 40.4829 162.205 40.865 161.784 41.2862L90.8391 106.011L59.9369 82.5534C57.0602 80.3698 53.0365 80.5487 50.3648 82.979L40.4535 91.9949C37.1854 94.9677 37.1817 100.109 40.4454 103.087L67.2448 127.536L40.4454 151.986C37.1817 154.964 37.1854 160.105 40.4535 163.078L50.3648 172.093C53.0365 174.524 57.0602 174.702 59.9369 172.519L90.8391 149.062L161.784 213.786C162.907 214.909 164.224 215.755 165.641 216.307ZM173.027 86.6742L119.196 127.536L173.027 168.398V86.6742Z" fill="white"/>
</mask>
<g mask="url(#mask0_36_865)">
<path d="M211.74 56.969L174.652 39.1118C170.359 37.0448 165.229 37.9167 161.859 41.2858L40.4468 151.986C37.1812 154.963 37.1849 160.105 40.4549 163.077L50.3723 172.093C53.0457 174.524 57.0719 174.702 59.9503 172.519L206.159 61.6016C211.064 57.8805 218.109 61.379 218.109 67.5358V67.1052C218.109 62.7835 215.633 58.8438 211.74 56.969Z" fill="#0065A9"/>
<path d="M211.74 198.103L174.652 215.96C170.359 218.027 165.229 217.155 161.859 213.786L40.4468 103.086C37.1812 100.109 37.1849 94.9674 40.4549 91.9946L50.3723 82.9788C53.0457 80.5485 57.0719 80.3695 59.9503 82.5532L206.159 193.47C211.064 197.191 218.109 193.693 218.109 187.536V187.967C218.109 192.288 215.633 196.228 211.74 198.103Z" fill="#007ACC"/>
<path d="M174.535 215.975C170.241 218.04 165.111 217.167 161.741 213.798C165.892 217.949 172.991 215.009 172.991 209.137V45.9573C172.991 40.0862 165.892 37.1459 161.741 41.2975C165.111 37.928 170.241 37.0549 174.535 39.1201L211.617 56.9527C215.513 58.8266 217.991 62.7676 217.991 67.0913V188.004C217.991 192.328 215.513 196.269 211.617 198.143L174.535 215.975Z" fill="#1F9CF0"/>
<path d="M165.641 216.307C168.476 217.411 171.709 217.34 174.57 215.964L211.629 198.131C215.524 196.257 218 192.316 218 187.993V67.0798C218 62.7561 215.524 58.815 211.63 56.9412L174.57 39.1086C170.816 37.3016 166.42 37.7442 163.124 40.1403C162.654 40.4826 162.205 40.8648 161.784 41.286L90.8391 106.01L59.9369 82.5532C57.0603 80.3695 53.0365 80.5485 50.3648 82.9788L40.4535 91.9946C37.1854 94.9674 37.1817 100.109 40.4454 103.086L67.2448 127.536L40.4454 151.986C37.1817 154.963 37.1854 160.105 40.4535 163.078L50.3648 172.093C53.0365 174.524 57.0603 174.702 59.9369 172.519L90.8391 149.061L161.784 213.786C162.906 214.909 164.224 215.755 165.641 216.307ZM173.028 86.6739L119.196 127.536L173.028 168.398V86.6739Z" fill="url(#paint0_linear_36_865)" fill-opacity="0.25"/>
</g>
<defs>
<linearGradient id="paint0_linear_36_865" x1="128" y1="38" x2="128" y2="217.072" gradientUnits="userSpaceOnUse">
<stop stop-color="white"/>
<stop offset="1" stop-color="white" stop-opacity="0"/>
</linearGradient>
</defs>
</svg>
