<svg width="257" height="256" viewBox="0 0 257 256" fill="none" xmlns="http://www.w3.org/2000/svg">
<path d="M0.00195312 56C0.00195312 25.0721 25.074 0 56.002 0H200.002C230.93 0 256.002 25.0721 256.002 56V200C256.002 230.928 230.93 256 200.002 256H56.002C25.074 256 0.00195312 230.928 0.00195312 200V56Z" fill="#F8FAFC"/>
<path d="M29.9028 97.9977C29.9028 97.9977 25.0316 94.4861 30.8771 89.7975L44.4963 77.6194C44.4963 77.6194 48.3933 73.5194 52.5136 77.0916L178.192 172.243V217.871C178.192 217.871 178.131 225.036 168.936 224.244L29.9028 97.9977Z" fill="#2489CA"/>
<path d="M62.2966 127.407L29.9028 156.858C29.9028 156.858 26.5741 159.334 29.9028 163.759L44.9428 177.439C44.9428 177.439 48.515 181.275 53.7921 176.911L88.1345 150.87L62.2966 127.407Z" fill="#1070B3"/>
<path d="M119.168 127.651L178.578 82.2873L178.192 36.9035C178.192 36.9035 175.655 26.9986 167.191 32.154L88.1348 104.106L119.168 127.651Z" fill="#0877B9"/>
<path d="M168.936 224.305C172.387 227.836 176.568 226.68 176.568 226.68L222.866 203.866C228.792 199.826 227.96 194.813 227.96 194.813V58.5803C227.96 52.5928 221.83 50.5225 221.83 50.5225L181.704 31.1795C172.935 25.7603 167.191 32.1538 167.191 32.1538C167.191 32.1538 174.578 26.836 178.192 36.9033V217.038C178.192 218.276 177.927 219.494 177.401 220.59C176.345 222.721 174.052 224.71 168.551 223.878L168.936 224.305Z" fill="#3C99D4"/>
</svg>
