<svg width="256" height="256" viewBox="0 0 256 256" fill="none" xmlns="http://www.w3.org/2000/svg">
<path d="M39.7067 101.098C39.7067 101.098 35.3226 97.9374 40.5835 93.7177L52.8408 82.7574C52.8408 82.7574 56.3481 79.0674 60.0564 82.2824L173.167 167.919V208.983C173.167 208.983 173.112 215.432 164.837 214.719L39.7067 101.098Z" fill="#2489CA"/>
<path d="M68.8619 127.567L39.7075 154.072C39.7075 154.072 36.7116 156.301 39.7075 160.283L53.2435 172.595C53.2435 172.595 56.4585 176.048 61.2079 172.12L92.116 148.683L68.8619 127.567Z" fill="#1070B3"/>
<path d="M120.046 127.786L173.514 86.9585L173.167 46.1131C173.167 46.1131 170.883 37.1987 163.266 41.8385L92.1152 106.595L120.046 127.786Z" fill="#0877B9"/>
<path d="M164.837 214.774C167.943 217.952 171.706 216.912 171.706 216.912L213.374 196.379C218.708 192.744 217.959 188.232 217.959 188.232V65.6223C217.959 60.2335 212.441 58.3703 212.441 58.3703L176.328 40.9616C168.437 36.0843 163.267 41.8384 163.267 41.8384C163.267 41.8384 169.915 37.0524 173.167 46.113V208.234C173.167 209.349 172.93 210.444 172.455 211.431C171.505 213.349 169.441 215.139 164.491 214.39L164.837 214.774Z" fill="#3C99D4"/>
</svg>
