<svg width="257" height="256" viewBox="0 0 257 256" fill="none" xmlns="http://www.w3.org/2000/svg">
<path d="M0.00195312 56C0.00195312 25.0721 25.074 0 56.002 0H200.002C230.93 0 256.002 25.0721 256.002 56V200C256.002 230.928 230.93 256 200.002 256H56.002C25.074 256 0.00195312 230.928 0.00195312 200V56Z" fill="#22272E"/>
<path d="M188 42H228L128 214.5L28 42H67.5H104.5L128 82L151 42H188Z" fill="#41B883"/>
<path d="M28 42L128 214.5L228 42H188L128 145.5L67.5 42H28Z" fill="#41B883"/>
<path d="M67.4995 42L128 146L188 42H151L128 82L104.5 42H67.4995Z" fill="#35495E"/>
</svg>
