<svg width="256" height="256" viewBox="0 0 256 256" fill="none" xmlns="http://www.w3.org/2000/svg">
<path d="M127.731 197.488H58.3346C47.1009 197.488 37.9941 188.425 37.9941 177.245V98.6534C37.9941 87.4734 47.1009 78.4102 58.3346 78.4102H157.643L127.731 197.488Z" fill="#006DA8"/>
<path d="M128.258 59H197.654C208.888 59 217.994 68.0632 217.994 79.2433V157.834C217.994 169.015 208.888 178.078 197.654 178.078H98.3452L128.258 59Z" fill="#9F73FF"/>
<path d="M128.258 59H197.654C208.888 59 217.994 68.0632 217.994 79.2433V157.834C217.994 169.015 208.888 178.078 197.654 178.078H98.3452L128.258 59Z" fill="url(#paint0_linear_36_855)"/>
<defs>
<linearGradient id="paint0_linear_36_855" x1="139.188" y1="156.465" x2="237.125" y2="76.3116" gradientUnits="userSpaceOnUse">
<stop stop-color="#01A4FF"/>
<stop offset="0.791667" stop-color="#01FFC2"/>
</linearGradient>
</defs>
</svg>
