<svg width="257" height="256" viewBox="0 0 257 256" fill="none" xmlns="http://www.w3.org/2000/svg">
<path d="M0.00195312 56C0.00195312 25.0721 25.074 0 56.002 0H200.002C230.93 0 256.002 25.0721 256.002 56V200C256.002 230.928 230.93 256 200.002 256H56.002C25.074 256 0.00195312 230.928 0.00195312 200V56Z" fill="#F8FAFC"/>
<path d="M127.707 204.875H50.6004C38.1185 204.875 28 194.805 28 182.383V95.0593C28 82.6372 38.1185 72.5669 50.6004 72.5669H160.943L127.707 204.875Z" fill="#006DA8"/>
<path d="M128.293 51H205.4C217.881 51 228 61.0702 228 73.4925V160.816C228 173.238 217.881 183.308 205.4 183.308H95.0566L128.293 51Z" fill="#9F73FF"/>
<path d="M128.293 51H205.4C217.881 51 228 61.0702 228 73.4925V160.816C228 173.238 217.881 183.308 205.4 183.308H95.0566L128.293 51Z" fill="url(#paint0_linear_36_855)"/>
<defs>
<linearGradient id="paint0_linear_36_855" x1="140.437" y1="159.295" x2="249.256" y2="70.2351" gradientUnits="userSpaceOnUse">
<stop stop-color="#01A4FF"/>
<stop offset="0.791667" stop-color="#01FFC2"/>
</linearGradient>
</defs>
</svg>
