<svg width="256" height="256" viewBox="0 0 256 256" fill="none" xmlns="http://www.w3.org/2000/svg">
<path d="M157.281 0C157.281 0.451765 157.281 0.903529 157.281 1.38039C157.281 17.5937 144.138 30.7325 127.929 30.7325C111.716 30.7325 98.5767 17.5895 98.5767 1.38039C98.5767 0.903529 98.5767 0.451765 98.5767 0H0V256H256V0H157.281Z" fill="#654FF0"/>
<path d="M59.4648 137.96H76.431L88.0138 199.647H88.2229L102.144 137.96H118.014L130.588 200.404H130.835L144.037 137.96H160.677L139.055 228.601H122.218L109.748 166.914H109.422L96.0744 228.601H78.9241L59.4648 137.96ZM179.805 137.96H206.552L233.114 228.601H215.612L209.835 208.431H179.366L174.907 228.601H157.861L179.805 137.96ZM189.987 160.301L182.587 193.556H205.619L197.123 160.301H189.987Z" fill="white"/>
</svg>
