<svg width="256" height="256" viewBox="0 0 256 256" fill="none" xmlns="http://www.w3.org/2000/svg">
<g clip-path="url(#clip0_30_366)">
<path d="M158.661 0C157.899 0 157.281 0.618022 157.281 1.38039C157.281 17.5937 144.138 30.7325 127.929 30.7325C111.716 30.7325 98.5767 17.5895 98.5767 1.38039C98.5767 0.618022 97.9587 0 97.1963 0H49.2884C22.0672 0 0 22.0671 0 49.2883V191C0 226.899 29.1015 256 65 256H191C226.898 256 256 226.899 256 191V49.3595C256 22.099 233.901 0 206.64 0H158.661Z" fill="#654FF0"/>
<path d="M61.5977 147.89C60.5006 142.78 64.3958 137.96 69.6223 137.96C73.571 137.96 76.96 140.772 77.6887 144.653L87.9952 199.542C88.0066 199.603 88.0596 199.647 88.1213 199.647C88.1813 199.647 88.2333 199.605 88.2465 199.547L100.419 145.608C101.428 141.136 105.401 137.96 109.986 137.96C114.656 137.96 118.678 141.253 119.6 145.831L130.565 200.282C130.579 200.353 130.641 200.404 130.713 200.404C130.785 200.404 130.847 200.354 130.862 200.284L142.695 144.313C143.478 140.61 146.747 137.96 150.532 137.96C155.708 137.96 159.525 142.795 158.324 147.829L140.975 220.558C139.85 225.274 135.635 228.601 130.787 228.601C125.803 228.601 121.509 225.088 120.522 220.203L109.782 167.075C109.763 166.981 109.681 166.914 109.585 166.914C109.491 166.914 109.409 166.98 109.389 167.072L97.8874 220.227C96.83 225.114 92.5073 228.601 87.5074 228.601C82.501 228.601 78.1745 225.105 77.1237 220.21L61.5977 147.89ZM176.582 151.278C178.474 143.464 185.469 137.96 193.509 137.96C201.241 137.96 208.047 143.058 210.222 150.478L229.969 217.866C231.541 223.231 227.519 228.601 221.929 228.601C218.19 228.601 214.904 226.124 213.874 222.529L212.725 218.516C211.015 212.546 205.556 208.431 199.346 208.431H189.696C183.662 208.431 178.44 212.625 177.138 218.516L176.333 222.156C175.501 225.921 172.163 228.601 168.308 228.601C162.986 228.601 159.068 223.621 160.32 218.448L176.582 151.278ZM193.613 160.301C191.495 160.301 189.661 161.772 189.201 163.84L185.05 182.495C183.787 188.171 188.105 193.556 193.92 193.556C199.851 193.556 204.192 187.966 202.724 182.22L197.993 163.703C197.482 161.701 195.679 160.301 193.613 160.301Z" fill="white"/>
</g>
<defs>
<clipPath id="clip0_30_366">
<rect width="256" height="256" fill="white"/>
</clipPath>
</defs>
</svg>
