<svg width="257" height="256" viewBox="0 0 257 256" fill="none" xmlns="http://www.w3.org/2000/svg">
<path d="M0.00195312 56C0.00195312 25.0721 25.074 0 56.002 0H200.002C230.93 0 256.002 25.0721 256.002 56V200C256.002 230.928 230.93 256 200.002 256H56.002C25.074 256 0.00195312 230.928 0.00195312 200V56Z" fill="#F8FAFC"/>
<path d="M212.778 182.149L131.719 228V192.288L182.222 164.507L212.778 182.149ZM218.322 177.128V81.2377L188.659 98.3568V159.989L218.322 177.128ZM43.5449 182.149L124.604 228V192.288L74.0993 164.507L43.5449 182.149ZM38 177.128V81.2377L67.6627 98.3568V159.989L38 177.128ZM41.4704 75.0338L124.604 28V62.529L71.3464 91.8233L70.9392 92.056L41.4704 75.0338ZM214.851 75.0338L131.719 28V62.529L184.976 91.8233L185.383 92.056L214.851 75.0338Z" fill="#8ED6FB"/>
<path d="M124.603 184.165L74.7773 156.77V102.486L124.603 131.257V184.165ZM131.718 184.165L181.544 156.77V102.486L131.718 131.257V184.165ZM78.1507 96.2045L128.17 68.6938L178.19 96.2045L128.17 125.092L78.1507 96.2045Z" fill="#1C78C0"/>
</svg>
