<svg width="256" height="256" viewBox="0 0 256 256" fill="none" xmlns="http://www.w3.org/2000/svg">
<path d="M204.294 176.734L131.341 218V185.86L176.794 160.856L204.294 176.734ZM209.284 172.215V85.9139L182.588 101.321V156.79L209.284 172.215ZM51.9845 176.734L124.938 218V185.86L79.4835 160.856L51.9845 176.734ZM46.9941 172.215V85.9139L73.6906 101.321V156.79L46.9941 172.215ZM50.1175 80.3304L124.938 38V69.0761L77.0059 95.441L76.6394 95.6504L50.1175 80.3304ZM206.16 80.3304L131.341 38V69.0761L179.273 95.441L179.639 95.6504L206.16 80.3304Z" fill="#8ED6FB"/>
<path d="M124.937 178.548L80.0938 153.893V105.037L124.937 130.932V178.548ZM131.34 178.548L176.184 153.893V105.037L131.34 130.932V178.548ZM83.1298 99.3841L128.147 74.6245L173.165 99.3841L128.147 125.383L83.1298 99.3841Z" fill="#1C78C0"/>
</svg>
