<svg width="257" height="256" viewBox="0 0 257 256" fill="none" xmlns="http://www.w3.org/2000/svg">
<path d="M0.00195312 56C0.00195312 25.0721 25.074 0 56.002 0H200.002C230.93 0 256.002 25.0721 256.002 56V200C256.002 230.928 230.93 256 200.002 256H56.002C25.074 256 0.00195312 230.928 0.00195312 200V56Z" fill="#0F172A"/>
<path d="M132.158 63.1626C132.158 43.7728 116.385 28 96.9952 28C76.5606 28 64.3442 43.3208 64.3442 58.1392H84.437C84.437 53.97 88.3351 48.0928 96.9952 48.0928C105.303 48.0928 112.065 54.8542 112.065 63.1626C112.065 71.471 106 78.2323 90.7067 78.2323H36V98.3252H90.7067C116.518 98.3252 132.158 82.5524 132.158 63.1626ZM132.158 63.1626C132.158 43.7728 116.385 28 96.9952 28C76.5606 28 64.3442 43.3208 64.3442 58.1392H84.437C84.437 53.97 88.3351 48.0928 96.9952 48.0928C105.303 48.0928 112.065 54.8542 112.065 63.1626C112.065 71.471 106 78.2323 90.7067 78.2323H36V98.3252H90.7067C116.518 98.3252 132.158 82.5524 132.158 63.1626Z" fill="url(#paint0_linear_24_366)"/>
<path d="M176.734 192.837C176.734 212.228 160.961 228 141.571 228C121.137 228 108.92 212.68 108.92 197.861H129.013C129.013 202.03 132.911 207.908 141.571 207.908C149.88 207.908 156.641 201.146 156.641 192.837C156.641 184.529 149 177.768 135.283 177.768H74.5762V157.675H135.283C161.094 157.675 176.734 173.448 176.734 192.837ZM176.734 192.837C176.734 212.228 160.961 228 141.571 228C121.137 228 108.92 212.68 108.92 197.861H129.013C129.013 202.03 132.911 207.908 141.571 207.908C149.88 207.908 156.641 201.146 156.641 192.837C156.641 184.529 149 177.768 135.283 177.768H74.5762V157.675H135.283C161.094 157.675 176.734 173.448 176.734 192.837Z" fill="url(#paint1_linear_24_366)"/>
<path d="M182 59.0001C159.838 59.0001 144.204 75.8539 144.204 98.0164H162C162 87.0001 170 79.0001 182 79.0001C194 79.0001 200 87.0001 200 98.0164C200 109.032 192.207 118.109 171 118.109H36V138.202H174C205.406 138.202 220 118.016 220 98.0164C220 75.8539 205 59.0001 182 59.0001Z" fill="url(#paint2_linear_24_366)"/>
<path d="M62.3402 157.675H36V177.936H62.3402V157.675Z" fill="url(#paint3_linear_24_366)"/>
<defs>
<linearGradient id="paint0_linear_24_366" x1="52" y1="45" x2="168" y2="228" gradientUnits="userSpaceOnUse">
<stop offset="0.078" stop-color="#54C8F1"/>
<stop offset="0.573" stop-color="#41A2EF"/>
<stop offset="1" stop-color="#3386EE"/>
</linearGradient>
<linearGradient id="paint1_linear_24_366" x1="51.9999" y1="44.9998" x2="168" y2="228" gradientUnits="userSpaceOnUse">
<stop offset="0.078" stop-color="#54C8F1"/>
<stop offset="0.573" stop-color="#41A2EF"/>
<stop offset="1" stop-color="#3386EE"/>
</linearGradient>
<linearGradient id="paint2_linear_24_366" x1="52" y1="45.0001" x2="168" y2="228" gradientUnits="userSpaceOnUse">
<stop offset="0.078" stop-color="#54C8F1"/>
<stop offset="0.573" stop-color="#41A2EF"/>
<stop offset="1" stop-color="#3386EE"/>
</linearGradient>
<linearGradient id="paint3_linear_24_366" x1="52" y1="44.9998" x2="168" y2="228" gradientUnits="userSpaceOnUse">
<stop offset="0.078" stop-color="#54C8F1"/>
<stop offset="0.573" stop-color="#41A2EF"/>
<stop offset="1" stop-color="#3386EE"/>
</linearGradient>
</defs>
</svg>
