<svg width="256" height="256" viewBox="0 0 256 256" fill="none" xmlns="http://www.w3.org/2000/svg">
<path d="M131.536 69.6464C131.536 52.1955 117.341 38 99.8898 38C81.4987 38 70.5039 51.7887 70.5039 65.1253H88.5875C88.5875 61.373 92.0958 56.0835 99.8898 56.0835C107.367 56.0835 113.453 62.1688 113.453 69.6464C113.453 77.1239 107.994 83.209 94.2302 83.209H44.9941V101.293H94.2302C117.46 101.293 131.536 87.0971 131.536 69.6464ZM131.536 69.6464C131.536 52.1955 117.341 38 99.8898 38C81.4987 38 70.5039 51.7887 70.5039 65.1253H88.5875C88.5875 61.373 92.0958 56.0835 99.8898 56.0835C107.367 56.0835 113.453 62.1688 113.453 69.6464C113.453 77.1239 107.994 83.209 94.2302 83.209H44.9941V101.293H94.2302C117.46 101.293 131.536 87.0971 131.536 69.6464Z" fill="url(#paint0_linear_36_845)"/>
<path d="M171.655 186.353C171.655 203.805 157.459 218 140.008 218C121.618 218 110.622 204.212 110.622 190.875H128.706C128.706 194.627 132.214 199.917 140.008 199.917C147.486 199.917 153.571 193.831 153.571 186.353C153.571 178.876 146.694 172.791 134.349 172.791H79.7129V154.708H134.349C157.579 154.708 171.655 168.903 171.655 186.353ZM171.655 186.353C171.655 203.805 157.459 218 140.008 218C121.618 218 110.622 204.212 110.622 190.875H128.706C128.706 194.627 132.214 199.917 140.008 199.917C147.486 199.917 153.571 193.831 153.571 186.353C153.571 178.876 146.694 172.791 134.349 172.791H79.7129V154.708H134.349C157.579 154.708 171.655 168.903 171.655 186.353Z" fill="url(#paint1_linear_36_845)"/>
<path d="M176.394 65.8999C156.448 65.8999 142.378 81.0683 142.378 101.015H158.394C158.394 91.0999 165.594 83.8999 176.394 83.8999C187.194 83.8999 192.594 91.0999 192.594 101.015C192.594 110.929 185.581 119.098 166.494 119.098H44.9941V137.182H169.194C197.46 137.182 210.594 119.014 210.594 101.015C210.594 81.0683 197.094 65.8999 176.394 65.8999Z" fill="url(#paint2_linear_36_845)"/>
<path d="M68.7003 154.708H44.9941V172.942H68.7003V154.708Z" fill="url(#paint3_linear_36_845)"/>
<defs>
<linearGradient id="paint0_linear_36_845" x1="59.3942" y1="53.3" x2="163.794" y2="218" gradientUnits="userSpaceOnUse">
<stop offset="0.078" stop-color="#54C8F1"/>
<stop offset="0.573" stop-color="#41A2EF"/>
<stop offset="1" stop-color="#3386EE"/>
</linearGradient>
<linearGradient id="paint1_linear_36_845" x1="59.3943" y1="53.2999" x2="163.794" y2="218" gradientUnits="userSpaceOnUse">
<stop offset="0.078" stop-color="#54C8F1"/>
<stop offset="0.573" stop-color="#41A2EF"/>
<stop offset="1" stop-color="#3386EE"/>
</linearGradient>
<linearGradient id="paint2_linear_36_845" x1="59.3942" y1="53.2999" x2="163.794" y2="218" gradientUnits="userSpaceOnUse">
<stop offset="0.078" stop-color="#54C8F1"/>
<stop offset="0.573" stop-color="#41A2EF"/>
<stop offset="1" stop-color="#3386EE"/>
</linearGradient>
<linearGradient id="paint3_linear_36_845" x1="59.3942" y1="53.2999" x2="163.794" y2="218" gradientUnits="userSpaceOnUse">
<stop offset="0.078" stop-color="#54C8F1"/>
<stop offset="0.573" stop-color="#41A2EF"/>
<stop offset="1" stop-color="#3386EE"/>
</linearGradient>
</defs>
</svg>
