<svg width="256" height="256" viewBox="0 0 256 256" fill="none" xmlns="http://www.w3.org/2000/svg">
<g clip-path="url(#clip0_30_651)">
<path d="M196 0H60C26.8629 0 0 26.8629 0 60V196C0 229.137 26.8629 256 60 256H196C229.137 256 256 229.137 256 196V60C256 26.8629 229.137 0 196 0Z" fill="#0073AA"/>
<path d="M50.7925 127.995C50.7925 158.554 68.552 184.964 94.3047 197.479L57.4767 96.5747C53.193 106.177 50.7925 116.802 50.7925 127.995Z" fill="white"/>
<path d="M180.117 124.099C180.117 114.558 176.69 107.95 173.751 102.806C169.837 96.4468 166.168 91.0612 166.168 84.7016C166.168 77.6045 171.551 70.9982 179.133 70.9982C179.476 70.9982 179.8 71.0407 180.133 71.0599C166.398 58.4758 148.098 50.7927 127.997 50.7927C101.026 50.7927 77.296 64.6313 63.4912 85.5919C65.3026 85.6462 67.0096 85.6844 68.4596 85.6844C76.535 85.6844 89.0353 84.7045 89.0353 84.7045C93.1972 84.4592 93.6878 90.572 89.5304 91.0641C89.5304 91.0641 85.3479 91.5562 80.6939 91.8001L108.808 175.426L125.704 124.754L113.676 91.7972C109.519 91.5534 105.58 91.0612 105.58 91.0612C101.419 90.8173 101.907 84.4563 106.068 84.7016C106.068 84.7016 118.817 85.6815 126.403 85.6815C134.478 85.6815 146.979 84.7016 146.979 84.7016C151.144 84.4563 151.633 90.569 147.474 91.0612C147.474 91.0612 143.283 91.5534 138.638 91.7972L166.539 174.79L174.239 149.057C177.577 138.378 180.117 130.708 180.117 124.099Z" fill="white"/>
<path d="M129.353 134.748L106.188 202.059C113.104 204.092 120.419 205.205 127.998 205.205C136.988 205.205 145.61 203.65 153.636 200.828C153.429 200.498 153.24 200.147 153.087 199.764L129.353 134.748Z" fill="white"/>
<path d="M195.742 90.9536C196.074 93.4128 196.262 96.0527 196.262 98.8924C196.262 106.727 194.799 115.534 190.392 126.546L166.809 194.729C189.762 181.345 205.2 156.479 205.2 127.996C205.201 114.573 201.773 101.951 195.742 90.9536Z" fill="white"/>
<path d="M127.998 38C78.3743 38 38 78.3713 38 127.995C38 177.624 78.3743 217.994 127.998 217.994C177.62 217.994 218 177.624 218 127.995C217.998 78.3713 177.62 38 127.998 38ZM127.998 213.869C80.6498 213.869 42.1266 175.345 42.1266 127.995C42.1266 80.647 80.6484 42.1266 127.998 42.1266C175.344 42.1266 213.864 80.647 213.864 127.995C213.864 175.345 175.344 213.869 127.998 213.869Z" fill="white"/>
</g>
<defs>
<clipPath id="clip0_30_651">
<rect width="256" height="256" fill="white"/>
</clipPath>
</defs>
</svg>
