<svg width="256" height="256" viewBox="0 0 256 256" fill="none" xmlns="http://www.w3.org/2000/svg">
<path d="M196 0H60C26.8629 0 0 26.8629 0 60V196C0 229.137 26.8629 256 60 256H196C229.137 256 256 229.137 256 196V60C256 26.8629 229.137 0 196 0Z" fill="#0073AA"/>
<path d="M42.2148 127.994C42.2148 161.949 61.9476 191.293 90.5617 205.199L49.6417 93.083C44.882 103.752 42.2148 115.558 42.2148 127.994Z" fill="white"/>
<path d="M185.909 123.665C185.909 113.064 182.101 105.722 178.835 100.007C174.486 92.9408 170.41 86.9568 170.41 79.8906C170.41 72.005 176.391 64.6646 184.815 64.6646C185.196 64.6646 185.556 64.7119 185.927 64.7332C170.665 50.7509 150.332 42.2141 127.998 42.2141C98.0293 42.2141 71.6628 57.5903 56.3242 80.8798C58.3368 80.9402 60.2335 80.9826 61.8446 80.9826C70.8173 80.9826 84.7065 79.8939 84.7065 79.8939C89.3308 79.6213 89.876 86.4133 85.2566 86.9601C85.2566 86.9601 80.6094 87.5069 75.4383 87.7779L106.677 180.696L125.45 124.393L112.085 87.7746C107.466 87.5037 103.09 86.9568 103.09 86.9568C98.4667 86.6859 99.0087 79.6181 103.632 79.8906C103.632 79.8906 117.798 80.9794 126.227 80.9794C135.199 80.9794 149.089 79.8906 149.089 79.8906C153.717 79.6181 154.26 86.41 149.639 86.9568C149.639 86.9568 144.982 87.5037 139.821 87.7746L170.822 179.989L179.378 151.397C183.087 139.531 185.909 131.009 185.909 123.665Z" fill="white"/>
<path d="M129.504 135.498L103.766 210.288C111.45 212.547 119.578 213.783 127.999 213.783C137.988 213.783 147.568 212.056 156.485 208.92C156.255 208.553 156.046 208.163 155.875 207.738L129.504 135.498Z" fill="white"/>
<path d="M203.269 86.8374C203.638 89.5698 203.847 92.5031 203.847 95.6583C203.847 104.363 202.221 114.149 197.324 126.385L171.121 202.144C196.624 187.272 213.778 159.643 213.778 127.996C213.779 113.081 209.97 99.0567 203.269 86.8374Z" fill="white"/>
<path d="M127.998 28C72.8603 28 28 72.857 28 127.994C28 183.138 72.8603 227.993 127.998 227.993C183.133 227.993 228 183.138 228 127.994C227.998 72.857 183.133 28 127.998 28ZM127.998 223.41C75.3887 223.41 32.5851 180.606 32.5851 127.994C32.5851 75.3855 75.3871 32.5851 127.998 32.5851C180.605 32.5851 223.405 75.3855 223.405 127.994C223.405 180.606 180.605 223.41 127.998 223.41Z" fill="white"/>
</svg>
