<svg width="257" height="256" viewBox="0 0 257 256" fill="none" xmlns="http://www.w3.org/2000/svg">
<path d="M0.00390625 56C0.00390625 25.0721 25.076 0 56.0039 0H200.004C230.932 0 256.004 25.0721 256.004 56V200C256.004 230.928 230.932 256 200.004 256H56.0039C25.076 256 0.00390625 230.928 0.00390625 200V56Z" fill="#0F172A"/>
<path d="M79.4224 40.5967L102.985 83.1058L81.3459 122.056C80.31 123.917 79.7663 126.01 79.7663 128.139C79.7663 130.269 80.31 132.362 81.3459 134.222L102.985 173.269L79.4224 215.778C74.9887 213.58 71.307 210.116 68.8433 205.824L31.3353 140.666C29.15 136.862 28 132.551 28 128.163C28 123.776 29.15 119.465 31.3353 115.661L68.8433 50.5027C71.3145 46.2288 74.9954 42.782 79.4224 40.5967Z" fill="url(#paint0_linear_24_378)"/>
<path opacity="0.7" d="M81.3457 122.104C80.3185 123.959 79.7795 126.044 79.7795 128.163C79.7795 130.283 80.3185 132.368 81.3457 134.222L102.985 173.269L79.4222 215.778C74.9886 213.58 71.3068 210.116 68.8431 205.824L31.3351 140.666C28.3537 135.521 45.04 129.366 81.3457 122.153V122.104Z" fill="url(#paint1_linear_24_378)"/>
<path opacity="0.5" d="M81.8271 44.8765L102.985 83.1058L99.4751 89.2128L80.8173 57.6196C75.4315 48.8197 67.2087 53.3879 56.918 71.1802L58.4568 68.5354L68.8437 50.5027C71.2892 46.2428 74.9351 42.7974 79.3266 40.5967L81.779 44.8765H81.8271Z" fill="url(#paint2_linear_24_378)"/>
<path d="M187.138 50.5027L224.646 115.661C229.118 123.355 229.118 132.972 224.646 140.666L187.138 205.824C184.945 209.623 181.791 212.778 177.992 214.973C174.194 217.168 169.885 218.324 165.499 218.327H127.991L174.635 134.223C175.663 132.368 176.202 130.283 176.202 128.164C176.202 126.044 175.663 123.959 174.635 122.105L127.991 38H165.499C169.885 38.0028 174.194 39.1595 177.992 41.3541C181.791 43.5486 184.945 46.7037 187.138 50.5027Z" fill="url(#paint3_linear_24_378)"/>
<path d="M163.575 218.039L126.548 218.375L171.365 133.838C172.367 131.958 172.891 129.861 172.891 127.731C172.891 125.601 172.367 123.503 171.365 121.624L126.548 38H135.011L182.041 121.239C183.155 123.205 183.737 125.429 183.729 127.689C183.72 129.949 183.122 132.168 181.993 134.126C171.871 151.718 161.821 169.35 151.842 187.022C142.705 203.083 146.649 213.422 163.575 218.039Z" fill="url(#paint4_linear_24_378)"/>
<path d="M90.482 218.327C86.635 218.327 82.788 217.413 79.4219 215.778L125.682 132.347C127.124 129.75 127.124 126.577 125.682 123.98L79.4219 40.5967C82.8605 38.894 86.6449 38.0055 90.482 38H127.99L174.634 122.105C175.662 123.959 176.201 126.044 176.201 128.164C176.201 130.283 175.662 132.368 174.634 134.223L127.99 218.327H90.482Z" fill="url(#paint5_linear_24_378)"/>
<path opacity="0.6" d="M171.365 123.98L123.663 38H127.991L174.635 122.105C175.663 123.959 176.202 126.044 176.202 128.164C176.202 130.283 175.663 132.368 174.635 134.223L127.991 218.327H123.663L171.365 132.347C172.808 129.75 172.808 126.577 171.365 123.98Z" fill="url(#paint6_linear_24_378)"/>
<path opacity="0.6" d="M125.682 123.98L79.4219 40.5969C80.8645 39.8275 82.5957 39.2504 84.2306 38.7695C94.4251 57.0908 109.476 84.8852 129.432 122.105C130.46 123.959 130.999 126.044 130.999 128.164C130.999 130.283 130.46 132.368 129.432 134.223L83.5093 217.365C81.8744 216.885 81.0088 216.548 79.47 215.827L125.633 132.395C127.076 129.799 127.076 126.625 125.633 124.028L125.682 123.98Z" fill="url(#paint7_linear_24_378)"/>
<defs>
<linearGradient id="paint0_linear_24_378" x1="65.493" y1="215.778" x2="-11.309" y2="92.263" gradientUnits="userSpaceOnUse">
<stop stop-color="#EB6F07"/>
<stop offset="1" stop-color="#FAB743"/>
</linearGradient>
<linearGradient id="paint1_linear_24_378" x1="89.3067" y1="200.51" x2="49.7627" y2="159.839" gradientUnits="userSpaceOnUse">
<stop stop-color="#D96504"/>
<stop offset="1" stop-color="#D96504" stop-opacity="0"/>
</linearGradient>
<linearGradient id="paint2_linear_24_378" x1="76.2662" y1="44.8261" x2="97.2002" y2="78.454" gradientUnits="userSpaceOnUse">
<stop stop-color="#EB6F07"/>
<stop offset="1" stop-color="#EB720A" stop-opacity="0"/>
</linearGradient>
<linearGradient id="paint3_linear_24_378" x1="177.995" y1="218.327" x2="109.226" y2="75.029" gradientUnits="userSpaceOnUse">
<stop stop-color="#EE6F05"/>
<stop offset="1" stop-color="#FAB743"/>
</linearGradient>
<linearGradient id="paint4_linear_24_378" x1="107.564" y1="218.375" x2="217.671" y2="190.429" gradientUnits="userSpaceOnUse">
<stop stop-color="#D96504" stop-opacity="0.8"/>
<stop offset="0.498" stop-color="#D96504" stop-opacity="0.2"/>
<stop offset="1" stop-color="#D96504" stop-opacity="0"/>
</linearGradient>
<linearGradient id="paint5_linear_24_378" x1="127.811" y1="218.327" x2="57.6383" y2="76.826" gradientUnits="userSpaceOnUse">
<stop stop-color="#FFA95F"/>
<stop offset="1" stop-color="#FFEBC8"/>
</linearGradient>
<linearGradient id="paint6_linear_24_378" x1="127.918" y1="39.984" x2="186.439" y2="49.184" gradientUnits="userSpaceOnUse">
<stop stop-color="white" stop-opacity="0.5"/>
<stop offset="1" stop-color="white" stop-opacity="0.1"/>
</linearGradient>
<linearGradient id="paint7_linear_24_378" x1="72.3563" y1="224.866" x2="144.689" y2="214.211" gradientUnits="userSpaceOnUse">
<stop stop-color="white" stop-opacity="0.5"/>
<stop offset="1" stop-color="white" stop-opacity="0.1"/>
</linearGradient>
</defs>
</svg>
