<svg width="256" height="256" viewBox="0 0 256 256" fill="none" xmlns="http://www.w3.org/2000/svg">
<g clip-path="url(#clip0_115_292)">
<path d="M196 0H60C26.8629 0 0 26.8629 0 60V196C0 229.137 26.8629 256 60 256H196C229.137 256 256 229.137 256 196V60C256 26.8629 229.137 0 196 0Z" fill="#470137"/>
<path d="M134.527 77.8074L102.788 130.176L136.643 185.719C136.855 186.142 136.96 186.565 136.855 186.988C136.749 187.412 136.326 187.094 135.691 187.2H111.464C109.771 187.2 108.607 187.094 107.867 186.036C105.645 181.593 103.317 177.255 101.096 172.812C98.8739 168.474 96.4408 164.031 93.9017 159.481C91.3626 154.932 88.8235 150.383 86.2844 145.728H86.0728C83.8511 150.277 81.4178 154.826 78.9845 159.376C76.5512 163.925 74.1179 168.474 71.7904 172.918C69.3571 177.361 66.9238 181.91 64.4905 186.248C64.0673 187.306 63.2209 187.412 62.0572 187.412H38.7821C38.3589 187.412 38.0415 187.623 38.0415 187.094C37.9357 186.671 38.0415 186.248 38.2531 185.93L71.1556 131.975L39.0995 77.7016C38.7821 77.2784 38.6763 76.8552 38.8879 76.6436C39.0995 76.3263 39.5226 76.2205 39.9458 76.2205H63.9615C64.4905 76.2205 65.0195 76.3263 65.4426 76.432C65.8658 76.6436 66.1832 76.961 66.5006 77.3842C68.5107 81.9334 70.8382 86.4827 73.2715 91.0319C75.8106 95.5811 78.2439 100.024 80.8888 104.468C83.4279 108.911 85.7554 113.354 87.9772 117.904H88.1887C90.4105 113.249 92.738 108.699 95.0655 104.256C97.393 99.8126 99.8261 95.3695 102.259 90.9261C104.693 86.4827 107.02 81.9334 109.348 77.5958C109.454 77.1726 109.665 76.7494 109.982 76.5378C110.406 76.3263 110.829 76.2205 111.358 76.3263H133.681C134.21 76.2205 134.739 76.5378 134.845 77.0668C134.95 77.1726 134.739 77.5958 134.527 77.8074Z" fill="#FF61F6"/>
<path d="M183.405 189.423C175.576 189.529 167.747 187.942 160.659 184.662C153.994 181.594 148.492 176.516 144.684 170.274C140.769 163.82 138.865 155.78 138.865 146.152C138.759 138.323 140.769 130.6 144.684 123.829C148.704 116.953 154.523 111.24 161.505 107.431C168.911 103.305 177.798 101.295 188.271 101.295C188.8 101.295 189.541 101.295 190.493 101.401C191.445 101.506 192.503 101.506 193.773 101.612V68.1802C193.773 67.4396 194.09 67.0164 194.831 67.0164H216.307C216.836 66.9106 217.26 67.3338 217.365 67.757C217.365 67.8628 217.365 67.9686 217.365 67.9686V168.687C217.365 170.591 217.471 172.707 217.577 175.035C217.789 177.256 217.894 179.372 218 181.171C218 181.911 217.683 182.546 216.942 182.863C211.441 185.191 205.622 186.884 199.697 187.942C194.302 188.894 188.906 189.423 183.405 189.423ZM193.773 168.264V121.713C192.821 121.502 191.869 121.29 190.916 121.184C189.753 121.079 188.589 120.973 187.425 120.973C183.299 120.973 179.173 121.819 175.47 123.724C171.873 125.522 168.805 128.167 166.478 131.552C164.15 134.938 162.986 139.487 162.986 144.989C162.88 148.691 163.515 152.394 164.785 155.886C165.843 158.742 167.43 161.281 169.546 163.397C171.556 165.301 173.989 166.782 176.74 167.629C179.596 168.581 182.558 169.004 185.521 169.004C187.108 169.004 188.589 168.898 189.964 168.793C191.34 168.898 192.503 168.687 193.773 168.264Z" fill="#FF61F6"/>
</g>
<defs>
<clipPath id="clip0_115_292">
<rect width="256" height="256" fill="white"/>
</clipPath>
</defs>
</svg>
