<svg width="257" height="256" viewBox="0 0 257 256" fill="none" xmlns="http://www.w3.org/2000/svg">
<path d="M0.00390625 56C0.00390625 25.0721 25.076 0 56.0039 0H200.004C230.932 0 256.004 25.0721 256.004 56V200C256.004 230.928 230.932 256 200.004 256H56.0039C25.076 256 0.00390625 230.928 0.00390625 200V56Z" fill="#F8FAFC"/>
<path d="M88.131 64.7581L64.6017 93.5162L52.8369 75.2155L88.131 64.7581Z" fill="#F7A41D"/>
<path d="M88.1306 64.7581L71.1372 79.1371L64.6013 93.5162H56.7582V160.183H68.5229L54.1438 166.719L43.6862 188.941H28V64.7581H88.1306Z" fill="#F7A41D"/>
<path d="M68.5236 160.184L43.6869 188.941L33.2295 174.562L68.5236 160.184Z" fill="#F7A41D"/>
<path d="M101.203 64.7581L109.046 83.0587L76.3662 93.5163L101.203 64.7581Z" fill="#F7A41D"/>
<path d="M101.203 64.7581H173.098V93.5163H76.3662L101.203 77.8301V64.7581Z" fill="#F7A41D"/>
<path d="M179.634 160.184L154.798 188.941L145.646 171.948L179.634 160.184Z" fill="#F7A41D"/>
<path d="M179.634 160.184L158.719 171.948L154.797 188.941H82.9023V160.184H179.634Z" fill="#F7A41D"/>
<path d="M224.078 36L95.9742 188.941L31.9219 219.007L160.026 64.7582L224.078 36Z" fill="#F7A41D"/>
<path d="M212.314 64.7581L211.006 88.2874L187.478 94.8234L212.314 64.7581Z" fill="#F7A41D"/>
<path d="M228 64.7581V188.941H166.562L184.864 173.255L191.399 160.183H199.242V94.8234H187.478L200.549 83.0587L212.315 64.7581H228Z" fill="#F7A41D"/>
<path d="M191.399 160.184L197.935 179.791L166.562 188.941L191.399 160.184Z" fill="#F7A41D"/>
</svg>
