<svg width="256" height="256" viewBox="0 0 256 256" fill="none" xmlns="http://www.w3.org/2000/svg">
<path d="M92.4763 76.7852L71.2174 102.768L60.5879 86.2335L92.4763 76.7852Z" fill="#F7A41D"/>
<path d="M92.4764 76.7852L77.1227 89.7767L71.2175 102.768H64.1312V163.002H74.7606L61.769 168.907L52.3205 188.985H38.1479V76.7852H92.4764Z" fill="#F7A41D"/>
<path d="M74.761 163.002L52.3209 188.985L42.8726 175.994L74.761 163.002Z" fill="#F7A41D"/>
<path d="M104.286 76.7852L111.372 93.3199L81.8462 102.768L104.286 76.7852Z" fill="#F7A41D"/>
<path d="M104.286 76.7852H169.244V102.768H81.8462L104.286 88.5958V76.7852Z" fill="#F7A41D"/>
<path d="M175.15 163.002L152.71 188.985L144.442 173.632L175.15 163.002Z" fill="#F7A41D"/>
<path d="M175.15 163.002L156.254 173.632L152.71 188.985H87.7524V163.002H175.15Z" fill="#F7A41D"/>
<path d="M215.305 50.802L99.5626 188.985L41.6909 216.15L157.434 76.7852L215.305 50.802Z" fill="#F7A41D"/>
<path d="M204.677 76.7852L203.496 98.044L182.237 103.949L204.677 76.7852Z" fill="#F7A41D"/>
<path d="M218.848 76.7852V188.985H163.339L179.874 174.813L185.779 163.002H192.865V103.949H182.236L194.046 93.3199L204.676 76.7852H218.848Z" fill="#F7A41D"/>
<path d="M185.779 163.002L191.684 180.718L163.339 188.985L185.779 163.002Z" fill="#F7A41D"/>
</svg>
