<svg width="256" height="256" viewBox="0 0 256 256" fill="none" xmlns="http://www.w3.org/2000/svg">
<path d="M92.4773 76.7852L71.2184 102.768L60.5889 86.2335L92.4773 76.7852Z" fill="#F7A41D"/>
<path d="M92.4768 76.7852L77.1232 89.7767L71.218 102.768H64.1317V163.002H74.7611L61.7695 168.907L52.321 188.985H38.1484V76.7852H92.4768Z" fill="#F7A41D"/>
<path d="M74.7615 163.002L52.3214 188.985L42.873 175.994L74.7615 163.002Z" fill="#F7A41D"/>
<path d="M104.286 76.7852L111.373 93.3199L81.8467 102.768L104.286 76.7852Z" fill="#F7A41D"/>
<path d="M104.286 76.7852H169.244V102.768H81.8467L104.286 88.5958V76.7852Z" fill="#F7A41D"/>
<path d="M175.151 163.002L152.71 188.985L144.442 173.632L175.151 163.002Z" fill="#F7A41D"/>
<path d="M175.15 163.002L156.254 173.632L152.71 188.985H87.7529V163.002H175.15Z" fill="#F7A41D"/>
<path d="M215.306 50.802L99.5631 188.985L41.6914 216.15L157.434 76.7852L215.306 50.802Z" fill="#F7A41D"/>
<path d="M204.678 76.7852L203.497 98.044L182.238 103.949L204.678 76.7852Z" fill="#F7A41D"/>
<path d="M218.848 76.7852V188.985H163.339L179.874 174.813L185.779 163.002H192.865V103.949H182.236L194.046 93.3199L204.676 76.7852H218.848Z" fill="#F7A41D"/>
<path d="M185.779 163.002L191.684 180.718L163.339 188.985L185.779 163.002Z" fill="#F7A41D"/>
</svg>
